<?xml version="1.0" standalone="no"?>
<!DOCTYPE svg PUBLIC "-//W3C//DTD SVG 1.1//EN" "http://www.w3.org/Graphics/SVG/1.1/DTD/svg11.dtd" >
<svg xmlns="http://www.w3.org/2000/svg" xmlns:xlink="http://www.w3.org/1999/xlink" version="1.1">
<metadata>
Created by FontForge 20170731 at Fri Sep  7 20:22:58 2018
 By Aleksey,,,
Copyright (c) 2018 by atipo. All rights reserved. |DCNT
</metadata>
<defs>
<font id="Silka-Black" horiz-adv-x="640" >
  <font-face 
    font-family="Silka Black"
    font-weight="900"
    font-stretch="normal"
    units-per-em="1000"
    panose-1="0 0 10 0 0 0 0 0 0 0"
    ascent="750"
    descent="-250"
    x-height="532"
    cap-height="700"
    bbox="-190 -243 1128 947"
    underline-thickness="50"
    underline-position="-399"
    unicode-range="U+000D-25FC"
  />
<missing-glyph horiz-adv-x="568" 
d="M534 0h-500v700h500v-700zM84 605v-510l170 255zM284 305l-170 -255h340zM454 650h-340l170 -255zM484 605l-170 -255l170 -255v510z" />
    <glyph glyph-name="ellipsis" unicode="&#x2e;&#x2e;&#x2e;" horiz-adv-x="815" 
d="M40 82q0 41 28 68t69 27q44 0 71 -26.5t27 -68.5q0 -43 -26.5 -69t-71.5 -26q-42 0 -69.5 26.5t-27.5 68.5zM310 82q0 41 28 68t69 27q44 0 71 -26.5t27 -68.5q0 -43 -26.5 -69t-71.5 -26q-42 0 -69.5 26.5t-27.5 68.5zM580 82q0 41 28 68t69 27q44 0 71 -26.5t27 -68.5
q0 -43 -27 -69t-71 -26q-42 0 -69.5 26.5t-27.5 68.5z" />
    <glyph glyph-name="degree.alt" unicode="&#xb0;C" horiz-adv-x="972" 
d="M352 565q0 -63 -42 -107q-40 -42 -109 -42q-68 0 -110 42q-41 44 -41 106t42 106q42 43 109 43q69 0 109 -43q42 -44 42 -105zM157 564q0 -19 12.5 -32t31.5 -13q20 0 32 13t12 33q0 19 -12 32t-32 13t-32 -13t-12 -33zM410 225v250q0 109 75.5 173.5t177.5 64.5
q113 0 183 -69q71 -68 71 -181h-190q0 33 -17 51.5t-47 18.5q-28 0 -45.5 -18.5t-17.5 -51.5v-226q0 -32 17.5 -51t45.5 -19q30 0 47 18t17 51h190q0 -113 -71 -181t-183 -68q-102 0 -177.5 64.5t-75.5 173.5z" />
    <glyph glyph-name=".notdef" horiz-adv-x="568" 
d="M534 0h-500v700h500v-700zM84 605v-510l170 255zM284 305l-170 -255h340zM454 650h-340l170 -255zM484 605l-170 -255l170 -255v510z" />
    <glyph glyph-name=".null" horiz-adv-x="0" 
 />
    <glyph glyph-name="nonmarkingreturn" horiz-adv-x="333" 
 />
    <glyph glyph-name="CR.001" unicode="&#xd;" horiz-adv-x="0" 
 />
    <glyph glyph-name="space" unicode=" " horiz-adv-x="248" 
 />
    <glyph glyph-name="exclam" unicode="!" horiz-adv-x="295" 
d="M50 82q0 41 28 68t69 27q44 0 71 -26.5t27 -68.5q0 -43 -27 -69t-71 -26q-42 0 -69.5 26.5t-27.5 68.5zM94 224l-41 220v256h191v-256l-41 -220h-109z" />
    <glyph glyph-name="quotedbl" unicode="&#x22;" horiz-adv-x="509" 
d="M70 446l-15 254h169l-15 -254h-139zM300 446l-15 254h169l-15 -254h-139z" />
    <glyph glyph-name="numbersign" unicode="#" horiz-adv-x="611" 
d="M103 172h-63v135h83l13 85h-66v135h87l26 173h141l-26 -173h69l26 173h141l-26 -173h63v-135h-84l-13 -85h67v-135h-87l-26 -172h-141l26 172h-69l-26 -172h-141zM277 392l-13 -85h69l13 85h-69z" />
    <glyph glyph-name="dollar" unicode="$" horiz-adv-x="617" 
d="M20 236h182q4 -49 56 -67v98q-37 7 -63 14.5t-58 24.5t-52.5 39.5t-34.5 60.5t-14 87q0 89 59 148t163 70v55h91v-56q102 -11 160 -70t64 -158h-190q-1 34 -34 51v-89q50 -9 73 -15q43 -12 72 -27q98 -46 98 -177q0 -98 -64 -161.5t-179 -74.5v-74h-91v74
q-114 11 -176.5 76.5t-61.5 170.5zM227 499q0 -25 31 -35v73q-31 -12 -31 -38zM349 248v-82q42 10 42 44q0 28 -42 38z" />
    <glyph glyph-name="percent" unicode="%" horiz-adv-x="848" 
d="M60 455v126q0 59 40.5 95.5t103.5 36.5q64 0 104 -36.5t40 -95.5v-126q0 -59 -40 -95.5t-104 -36.5q-63 0 -103.5 36.5t-40.5 95.5zM267 26l-97 71l411 587l97 -71zM173 578v-120q0 -34 31 -34q32 0 32 34v120q0 34 -32 34q-31 0 -31 -34zM500 119v126q0 59 40.5 95.5
t103.5 36.5q64 0 104 -36.5t40 -95.5v-126q0 -59 -40 -95.5t-104 -36.5q-63 0 -103.5 36.5t-40.5 95.5zM613 242v-120q0 -34 31 -34q32 0 32 34v120q0 34 -32 34q-31 0 -31 -34z" />
    <glyph glyph-name="ampersand" unicode="&#x26;" horiz-adv-x="708" 
d="M28 207q0 109 109 176q-57 71 -57 141q0 84 57 136q58 53 152 53q86 0 148 -54t62 -135q1 -59 -27.5 -100t-88.5 -76h-1l82 -92q35 62 18 139h160q29 -144 -65 -265l116 -130h-218l-24 27q-79 -40 -168 -40q-68 0 -123.5 21t-93.5 72.5t-38 126.5zM208 207
q0 -27 21.5 -43.5t56.5 -16.5q22 0 52 8l-98 110q-32 -23 -32 -58zM278 464l2 -2l3 2q26 14 36 26t10 29q0 16 -11 27t-29 11q-17 0 -28 -11t-11 -27q0 -23 28 -55z" />
    <glyph glyph-name="quotesingle" unicode="'" horiz-adv-x="279" 
d="M70 446l-15 254h169l-15 -254h-139z" />
    <glyph glyph-name="parenleft" unicode="(" horiz-adv-x="528" 
d="M317 783l141 -90q-239 -142 -239 -383q0 -130 67 -225.5t172 -157.5l-141 -90q-123 67 -202.5 192t-79.5 281t79.5 281t202.5 192z" />
    <glyph glyph-name="parenright" unicode=")" horiz-adv-x="528" 
d="M211 -163l-141 90q239 142 239 383t-239 383l141 90q123 -67 202.5 -191.5t79.5 -281.5t-79.5 -281.5t-202.5 -191.5z" />
    <glyph glyph-name="asterisk" unicode="*" horiz-adv-x="453" 
d="M155 494l-105 -12v83l104 -14v6l-82 62l59 59l63 -84l4 2l-13 104h83l-13 -104l4 -2l63 84l59 -59l-82 -62v-6l104 14v-83l-105 12v-6l83 -60l-59 -59l-65 81l-3 -2l14 -101h-83l14 101l-3 2l-65 -81l-59 59l83 60v6z" />
    <glyph glyph-name="plus" unicode="+" horiz-adv-x="510" 
d="M181 239h-176v144h176v176h149v-176h175v-144h-175v-176h-149v176z" />
    <glyph glyph-name="comma" unicode="," horiz-adv-x="276" 
d="M169 -131h-134l19 278h179z" />
    <glyph glyph-name="hyphen" unicode="-" horiz-adv-x="379" 
d="M339 229h-299v156h299v-156z" />
    <glyph glyph-name="period" unicode="." horiz-adv-x="275" 
d="M40 82q0 41 28 68t69 27q44 0 71 -26.5t27 -68.5q0 -43 -26.5 -69t-71.5 -26q-42 0 -69.5 26.5t-27.5 68.5z" />
    <glyph glyph-name="slash" unicode="/" horiz-adv-x="539" 
d="M207 -108h-182l306 858h183z" />
    <glyph glyph-name="zero" unicode="0" horiz-adv-x="607" 
d="M50 225v250q0 109 75.5 173.5t177.5 64.5t178 -64.5t76 -173.5v-250q0 -110 -75 -174t-179 -64q-102 0 -177.5 64.5t-75.5 173.5zM240 463v-226q0 -32 17.5 -51t45.5 -19q30 0 47 18.5t17 51.5v226q0 33 -17 51.5t-47 18.5q-28 0 -45.5 -18.5t-17.5 -51.5z" />
    <glyph glyph-name="one" unicode="1" horiz-adv-x="470" 
d="M210 451h-160v139q97 0 136 26t39 84h175v-700h-190v451z" />
    <glyph glyph-name="two" unicode="2" horiz-adv-x="587" 
d="M226 475h-176q0 100 64.5 169t178.5 69q118 0 185 -61q69 -62 69 -157q0 -71 -33 -119.5t-102 -88.5l-148 -85q-23 -14 -23 -33v-4h302v-165h-492v138q0 70 30 119t100 91l131 80q45 28 45 59q0 22 -18 36.5t-47 14.5t-47.5 -18.5t-18.5 -44.5z" />
    <glyph glyph-name="three" unicode="3" horiz-adv-x="597" 
d="M61 226h176q1 -25 18.5 -41.5t46.5 -16.5t47.5 17.5t18.5 41.5q0 23 -18.5 40.5t-50.5 17.5h-106v141l121 98v7h-242v170h472v-163l-127 -106v-6q63 -18 102 -73t39 -127q0 -98 -69.5 -168t-184.5 -70q-114 0 -178.5 69t-64.5 169z" />
    <glyph glyph-name="four" unicode="4" horiz-adv-x="657" 
d="M355 99h-305v162l153 439h195l-144 -425v-6h101v138h190v-138h62v-170h-62v-99h-190v99z" />
    <glyph glyph-name="five" unicode="5" horiz-adv-x="584" 
d="M61 226h176q0 -24 18 -41t47 -17q30 0 48 17t18 41q0 25 -18 43t-48 18q-34 0 -52 -22h-182l30 436h419v-170h-256l-7 -105h4q38 24 87 24q92 0 152.5 -66.5t60.5 -157.5q0 -102 -68.5 -170t-185.5 -68q-114 0 -178.5 69t-64.5 169z" />
    <glyph glyph-name="six" unicode="6" horiz-adv-x="608" 
d="M45 233q0 72 36 138l182 329h222l-150 -241l4 -4q10 2 18 2q29 0 62 -11.5t66.5 -36t55.5 -70.5t22 -106q0 -108 -78 -177t-182 -69q-101 -3 -180 67.5t-78 178.5zM236 233q0 -28 19.5 -47t47.5 -19q29 0 48.5 19t19.5 47t-19.5 47.5t-48.5 19.5q-28 0 -47.5 -19.5
t-19.5 -47.5z" />
    <glyph glyph-name="seven" unicode="7" horiz-adv-x="562" 
d="M312 531h-272v170h482v-163l-235 -538h-211l236 524v7z" />
    <glyph glyph-name="eight" unicode="8" horiz-adv-x="609" 
d="M40 201q0 111 94 169v9q-72 53 -72 144q0 85 67 137q68 53 175 53q111 0 176 -52q67 -52 67 -138q0 -92 -73 -144v-9q95 -59 95 -169q0 -96 -73 -154q-74 -59 -192 -59q-117 0 -191 59q-73 58 -73 154zM230 218q0 -27 20.5 -45t53.5 -18t53.5 18t20.5 45q0 28 -20.5 46.5
t-53.5 18.5t-53.5 -18.5t-20.5 -46.5zM243 495q0 -24 17.5 -40.5t43.5 -16.5t43.5 16.5t17.5 40.5t-17.5 40t-43.5 16q-27 0 -44 -16t-17 -40z" />
    <glyph glyph-name="nine" unicode="9" horiz-adv-x="608" 
d="M45 467q0 108 78 177t182 69t181 -68.5t77 -177.5q0 -72 -36 -138l-182 -329h-222l150 241l-4 4q-10 -2 -18 -2q-22 0 -48 6.5t-54.5 23.5t-51 41t-37.5 64t-15 89zM305 400q28 0 47.5 19.5t19.5 47.5t-19.5 47t-47.5 19q-29 0 -48.5 -19t-19.5 -47t20 -47.5t48 -19.5z
" />
    <glyph glyph-name="colon" unicode=":" horiz-adv-x="275" 
d="M40 82q0 41 28 68t69 27q44 0 71 -26.5t27 -68.5q0 -43 -26.5 -69t-71.5 -26q-42 0 -69.5 26.5t-27.5 68.5zM40 402q0 40 28 67.5t69 27.5q44 0 71 -26.5t27 -68.5q0 -43 -26.5 -69t-71.5 -26q-42 0 -69.5 26.5t-27.5 68.5z" />
    <glyph glyph-name="semicolon" unicode=";" horiz-adv-x="279" 
d="M169 -131h-134l19 278h179zM40 402q0 40 28 67.5t69 27.5q44 0 71 -26.5t27 -68.5q0 -43 -26.5 -69t-71.5 -26q-42 0 -69.5 26.5t-27.5 68.5z" />
    <glyph glyph-name="less" unicode="&#x3c;" horiz-adv-x="521" 
d="M476 73l-431 152v174l431 152v-155l-264 -81v-6l264 -81v-155z" />
    <glyph glyph-name="equal" unicode="=" horiz-adv-x="510" 
d="M505 128h-500v144h500v-144zM505 338h-500v144h500v-144z" />
    <glyph glyph-name="greater" unicode="&#x3e;" horiz-adv-x="521" 
d="M476 225l-431 -152v155l264 81v6l-264 81v155l431 -152v-174z" />
    <glyph glyph-name="question" unicode="?" horiz-adv-x="567" 
d="M216 492h-171q0 98 61 159q62 62 172 62q113 0 178.5 -59.5t65.5 -157.5q0 -55 -32.5 -102.5t-86.5 -79.5l-49 -30q-31 -19 -31 -53v-12h-165v35q0 96 86 150l54 34q39 26 39 59q0 23 -16 37t-45 14t-44 -15.5t-16 -40.5zM142 82q0 41 28 68t69 27q44 0 71 -26.5
t27 -68.5q0 -43 -27 -69t-71 -26q-42 0 -69.5 26.5t-27.5 68.5z" />
    <glyph glyph-name="at" unicode="@" horiz-adv-x="885" 
d="M35 263q-3 173 116.5 294t293.5 119q87 0 163.5 -29.5t129.5 -81.5q112 -107 112 -264q0 -117 -46.5 -178t-133.5 -61q-94 0 -125 70h-6q-37 -72 -132 -72q-75 0 -125 53q-49 52 -49 142q0 92 46 147q47 57 121 55q65 0 95 -45h6v35h135v-222q0 -19 11 -31t29 -12
q50 0 50 118q0 116 -81 185.5t-201 69.5q-119 0 -199 -79t-80 -212q0 -138 81.5 -212.5t211.5 -74.5h187v-122h-187q-182 0 -302.5 116t-120.5 292zM436 185q30 0 48.5 20t18.5 53t-18.5 54t-48.5 20q-30 0 -48.5 -21t-18.5 -53t18.5 -52.5t48.5 -20.5z" />
    <glyph glyph-name="A" unicode="A" horiz-adv-x="722" 
d="M205 0h-195l224 700h249l229 -700h-205l-32 106h-238zM351 491l-64 -215h138l-64 215h-10z" />
    <glyph glyph-name="B" unicode="B" horiz-adv-x="617" 
d="M372 0h-317v700h296q101 0 159.5 -52t58.5 -137q0 -44 -20 -80.5t-54 -57.5v-6q43 -22 70 -62.5t27 -96.5q0 -95 -65 -151.5t-155 -56.5zM237 295v-135h81q33 0 51.5 18t18.5 51q0 30 -19.5 48t-50.5 18h-81zM237 546v-117h84q29 0 45.5 16.5t16.5 44.5q0 25 -16.5 40.5
t-45.5 15.5h-84z" />
    <glyph glyph-name="C" unicode="C" horiz-adv-x="808" 
d="M35 350q0 157 103.5 260t268.5 103q148 0 243 -81.5t114 -206.5h-209q-10 44 -50 73.5t-98 29.5q-79 0 -125 -51q-47 -50 -47 -127q0 -79 47 -128.5t125 -49.5q55 0 96.5 28t60.5 72h209q-19 -122 -118.5 -203.5t-247.5 -81.5q-165 0 -268.5 103t-103.5 260z" />
    <glyph glyph-name="D" unicode="D" horiz-adv-x="721" 
d="M322 0h-267v700h267q167 0 265.5 -95.5t98.5 -250.5q0 -163 -98 -259q-98 -95 -266 -95zM247 535v-370h65q31 0 59 9t55 29t43.5 59t16.5 92q0 51 -16 88t-43 56.5t-55.5 28t-59.5 8.5h-65z" />
    <glyph glyph-name="E" unicode="E" horiz-adv-x="563" 
d="M528 0h-473v700h463v-162h-271v-106h229v-162h-229v-107h281v-163z" />
    <glyph glyph-name="F" unicode="F" horiz-adv-x="553" 
d="M247 0h-192v700h463v-162h-271v-126h239v-162h-239v-250z" />
    <glyph glyph-name="G" unicode="G" horiz-adv-x="807" 
d="M35 350q0 157 104.5 260t268.5 103q142 0 237 -77q96 -76 118 -193h-211q-15 37 -53.5 61t-90.5 24q-78 0 -126 -51q-47 -50 -47 -127q0 -79 47 -132q48 -52 126 -52q54 0 94.5 19.5t55.5 47.5h-150v155h363q1 -11 1 -32q0 -159 -89 -260q-99 -109 -275 -109
q-165 0 -269 103t-104 260z" />
    <glyph glyph-name="H" unicode="H" horiz-adv-x="733" 
d="M247 0h-192v700h192v-256h239v256h192v-700h-192v259h-239v-259z" />
    <glyph glyph-name="I" unicode="I" horiz-adv-x="302" 
d="M247 0h-192v700h192v-700z" />
    <glyph glyph-name="J" unicode="J" horiz-adv-x="601" 
d="M25 241h180q0 -36 19.5 -57.5t57.5 -21.5q77 0 77 89v284h-202v165h394v-459q0 -119 -72 -186t-194 -67q-129 0 -194.5 69.5t-65.5 183.5z" />
    <glyph glyph-name="K" unicode="K" horiz-adv-x="683" 
d="M247 0h-192v700h192v-229h6l173 229h236l-224 -266l225 -434h-219l-140 276l-57 -68v-208z" />
    <glyph glyph-name="L" unicode="L" horiz-adv-x="539" 
d="M509 0h-454v700h192v-530h262v-170z" />
    <glyph glyph-name="M" unicode="M" horiz-adv-x="882" 
d="M240 0h-185v700h242l153 -416h6l129 416h242v-700h-185v341h-6l-117 -341h-142l-131 364h-6v-364z" />
    <glyph glyph-name="N" unicode="N" horiz-adv-x="742" 
d="M240 0h-185v700h215l226 -389h6v389h185v-700h-215l-226 389h-6v-389z" />
    <glyph glyph-name="O" unicode="O" horiz-adv-x="823" 
d="M35 350q0 155 108 259t269 104t268.5 -104.5t107.5 -258.5q3 -151 -107.5 -258.5t-268.5 -104.5q-162 0 -269.5 103.5t-107.5 259.5zM235 350q0 -78 49 -128q50 -50 128 -50q76 0 126 50q50 52 50 128q0 74 -50 126q-49 52 -126 52q-78 0 -128 -51q-49 -50 -49 -127z" />
    <glyph glyph-name="P" unicode="P" horiz-adv-x="612" 
d="M247 0h-192v700h280q108 0 182.5 -69.5t74.5 -174.5q2 -103 -75.5 -176.5t-181.5 -70.5h-88v-209zM247 538v-167h68q36 0 59 23t23 62q0 38 -22.5 60t-59.5 22h-68z" />
    <glyph glyph-name="Q" unicode="Q" horiz-adv-x="825" 
d="M35 350q0 155 108 259t269 104t268.5 -104.5t107.5 -258.5q0 -137 -88 -238l90 -112h-195l-17 22q-78 -35 -166 -35q-162 0 -269.5 103.5t-107.5 259.5zM230 350q0 -79 50 -134q51 -54 132 -54q26 0 48 6l-137 170h196l57 -71q17 39 17 83q0 78 -51 130q-50 53 -130 53
q-81 0 -132 -53q-50 -53 -50 -130z" />
    <glyph glyph-name="R" unicode="R" horiz-adv-x="655" 
d="M247 0h-192v700h290q109 0 183 -68t74 -174q0 -65 -30 -118.5t-84 -86.5l142 -253h-211l-104 213h-68v-213zM247 538v-163h78q37 0 59.5 22.5t22.5 60.5t-22.5 59t-59.5 21h-78z" />
    <glyph glyph-name="S" unicode="S" horiz-adv-x="617" 
d="M20 233v3h182q3 -34 31 -54t76 -20q82 0 82 48q0 21 -26.5 33t-65.5 16.5t-85.5 17.5t-85.5 33.5t-65.5 67.5t-26.5 115q0 97 70 158q71 62 194 62t195 -60.5t78 -170.5h-190q-2 28 -24 44.5t-59 16.5q-34 0 -53.5 -12t-19.5 -32q0 -22 27 -34t67.5 -16t88 -16.5
t88 -31.5t67.5 -64t27 -112q0 -107 -76 -173q-77 -65 -212 -65q-137 0 -210 67q-74 68 -74 179z" />
    <glyph glyph-name="T" unicode="T" horiz-adv-x="619" 
d="M213 535h-188v165h569v-165h-189v-535h-192v535z" />
    <glyph glyph-name="U" unicode="U" horiz-adv-x="690" 
d="M50 273v427h192v-426q0 -51 26.5 -78.5t76.5 -27.5q103 0 103 106v426h192v-427q0 -128 -82 -207t-213 -79t-213 79t-82 207z" />
    <glyph glyph-name="V" unicode="V" horiz-adv-x="728" 
d="M268 0l-258 700h215l137 -432h9l137 432h210l-258 -700h-192z" />
    <glyph glyph-name="W" unicode="W" horiz-adv-x="1025" 
d="M193 0l-183 700h210l84 -392h9l82 392h235l82 -392h9l84 392h210l-183 -700h-222l-93 422h-9l-93 -422h-222z" />
    <glyph glyph-name="X" unicode="X" horiz-adv-x="690" 
d="M229 0h-219l205 361l-195 339h215l99 -186h6l98 186h215l-195 -339l205 -361h-219l-104 210h-6z" />
    <glyph glyph-name="Y" unicode="Y" horiz-adv-x="683" 
d="M248 272l-238 428h210l117 -235h9l117 235h210l-233 -426v-274h-192v272z" />
    <glyph glyph-name="Z" unicode="Z" horiz-adv-x="627" 
d="M587 0h-547v163l296 366v9h-284v162h533v-162l-297 -366v-9h299v-163z" />
    <glyph glyph-name="bracketleft" unicode="[" horiz-adv-x="420" 
d="M330 -151h-275v914h275v-147h-97v-620h97v-147z" />
    <glyph glyph-name="backslash" unicode="\" horiz-adv-x="539" 
d="M332 -108l-307 858h183l306 -858h-182z" />
    <glyph glyph-name="bracketright" unicode="]" horiz-adv-x="420" 
d="M55 -151v147h97v620h-97v147h275v-914h-275z" />
    <glyph glyph-name="asciicircum" unicode="^" horiz-adv-x="598" 
d="M195 289h-155l182 411h154l182 -411h-155l-101 244h-6z" />
    <glyph glyph-name="underscore" unicode="_" horiz-adv-x="645" 
d="M50 -180v151h545v-151h-545z" />
    <glyph glyph-name="grave" unicode="`" horiz-adv-x="297" 
d="M134 600l-94 160h173l44 -160h-123z" />
    <glyph glyph-name="a" unicode="a" horiz-adv-x="630" 
d="M30 262q0 128 64 205q64 78 170 78q88 0 134 -63h9v50h188v-532h-187v50h-9q-40 -63 -132 -63q-106 0 -172 74q-65 76 -65 201zM246 345q-26 -31 -26 -79t26 -79q26 -30 69 -30t69 30q26 31 26 79t-26 79q-26 30 -69 30t-69 -30z" />
    <glyph glyph-name="b" unicode="b" horiz-adv-x="650" 
d="M242 0h-187v750h188v-268h9q46 63 134 63q104 0 169 -78q65 -79 65 -205t-66 -201q-65 -74 -171 -74q-92 0 -132 63h-9v-50zM266 345q-26 -31 -26 -79t26 -79q26 -30 69 -30t69 30q26 31 26 79t-26 79q-26 30 -69 30t-69 -30z" />
    <glyph glyph-name="c" unicode="c" horiz-adv-x="621" 
d="M315 545q119 0 193 -65q76 -65 83 -168h-190q-9 29 -31.5 46t-54.5 17q-44 0 -69.5 -30.5t-25.5 -78.5t25.5 -78.5t69.5 -30.5q63 0 82 54h192q-11 -99 -84 -162q-74 -62 -190 -62q-128 0 -206.5 80t-78.5 199q-2 118 77 199t208 80z" />
    <glyph glyph-name="d" unicode="d" horiz-adv-x="630" 
d="M30 262q0 128 64 205q64 78 170 78q88 0 134 -63h9v268h188v-750h-187v50h-9q-40 -63 -132 -63q-106 0 -172 74q-65 76 -65 201zM246 345q-26 -31 -26 -79t26 -79q26 -30 69 -30t69 30q26 31 26 79t-26 79q-26 30 -69 30t-69 -30z" />
    <glyph glyph-name="e" unicode="e" horiz-adv-x="609" 
d="M30 261q0 125 76 204q77 80 202 80q129 0 200 -81.5t71 -198.5v-49h-374q4 -39 33 -64t71 -25q75 0 99 49h165q-16 -89 -87.5 -139t-183.5 -50q-112 -2 -192.5 78t-79.5 196zM208 333h201q-6 31 -33 52t-68 21q-38 0 -66 -22t-34 -51z" />
    <glyph glyph-name="f" unicode="f" horiz-adv-x="456" 
d="M107 387h-82v145h87v21q0 91 58 143q58 54 154 54h89v-153h-62q-59 0 -59 -53v-12h124v-145h-121v-387h-188v387z" />
    <glyph glyph-name="g" unicode="g" 
d="M30 271q0 126 65 200q66 74 167 74q48 0 84.5 -18.5t52.5 -44.5h9v50h187v-524q0 -108 -71 -179.5t-215 -71.5q-126 0 -193.5 62t-67.5 147h170q8 -59 91 -59q98 0 98 101v52h-9q-46 -63 -134 -63q-101 0 -168 73q-66 74 -66 201zM246 347q-26 -29 -26 -76q0 -48 25 -76
t69 -28q45 0 70 28q26 29 26 76t-26 76q-25 28 -70 28q-43 0 -68 -28z" />
    <glyph glyph-name="h" unicode="h" horiz-adv-x="600" 
d="M243 0h-188v750h187v-268h9q43 63 130 63q84 0 134 -50t50 -132v-363h-188v296q0 34 -17 54t-49 20q-30 0 -49 -23t-19 -57v-290z" />
    <glyph glyph-name="i" unicode="i" horiz-adv-x="278" 
d="M42 671q0 44 29 70t77 26t77 -26t29 -70t-29 -70t-77 -26t-77 26t-29 70zM243 0h-188v532h188v-532z" />
    <glyph glyph-name="j" unicode="j" horiz-adv-x="321" 
d="M0 -230v165h36q62 0 62 61v536h188v-537q0 -104 -57 -164q-55 -61 -150 -61h-79zM87 671q0 44 29 70t77 26t77 -26t29 -70t-29 -70t-77 -26t-77 26t-29 70z" />
    <glyph glyph-name="k" unicode="k" horiz-adv-x="621" 
d="M243 0h-188v750h188v-370h6l119 152h230l-162 -184l175 -348h-210l-95 200l-63 -71v-129z" />
    <glyph glyph-name="l" unicode="l" horiz-adv-x="337" 
d="M55 190v560h188v-535q0 -50 47 -50h17v-165h-60q-91 0 -141.5 50.5t-50.5 139.5z" />
    <glyph glyph-name="m" unicode="m" horiz-adv-x="902" 
d="M243 0h-188v532h176v-50h9q43 63 132 63q96 0 147 -63h8q55 63 147 63q86 0 139 -51q54 -49 54 -131v-363h-188v296q0 74 -60 74q-29 0 -45.5 -22.5t-16.5 -57.5v-290h-188v296q0 34 -16 54t-46 20q-29 0 -46.5 -22.5t-17.5 -57.5v-290z" />
    <glyph glyph-name="n" unicode="n" horiz-adv-x="596" 
d="M243 0h-188v532h176v-50h9q19 27 55 45t79 18q84 0 135.5 -50.5t51.5 -131.5v-363h-188v296q0 34 -16.5 54t-47.5 20q-29 0 -47.5 -23t-18.5 -57v-290z" />
    <glyph glyph-name="o" unicode="o" 
d="M30 266q0 119 79.5 199t210.5 80q128 0 209 -80.5t81 -198.5q2 -117 -80.5 -198.5t-210.5 -80.5q-126 -1 -208.5 80.5t-80.5 198.5zM248 345q-28 -31 -28 -79t28 -79q28 -30 71 -30t72 30q29 32 29 79t-29 78q-28 31 -72 31q-43 0 -71 -30z" />
    <glyph glyph-name="p" unicode="p" horiz-adv-x="650" 
d="M243 -230h-188v762h187v-50h9q40 63 132 63q107 0 171 -75q66 -74 66 -200t-65 -205q-65 -78 -169 -78q-97 0 -134 63h-9v-280zM266 345q-26 -31 -26 -79t26 -79q26 -30 69 -30t69 30q26 31 26 79t-26 79q-26 30 -69 30t-69 -30z" />
    <glyph glyph-name="q" unicode="q" 
d="M30 270q0 126 65 200q66 75 172 75q92 0 132 -63h9v50h187v-762h-188v280h-9q-43 -63 -134 -63q-106 0 -170 78q-64 77 -64 205zM246 345q-26 -31 -26 -79t26 -79q26 -30 69 -30t69 30q26 31 26 79t-26 79q-26 30 -69 30t-69 -30z" />
    <glyph glyph-name="r" unicode="r" horiz-adv-x="462" 
d="M243 0h-188v532h176v-73h9q17 34 52.5 56t81.5 22h53v-175h-68q-53 0 -84.5 -35.5t-31.5 -98.5v-228z" />
    <glyph glyph-name="s" unicode="s" horiz-adv-x="532" 
d="M25 167h169q2 -40 68 -40q64 0 64 31q0 17 -21.5 25t-54.5 9.5t-70.5 10t-70.5 22.5t-54.5 50.5t-21.5 91.5q0 72 60.5 125t168.5 53q104 0 166 -46t66 -131h-159q-7 42 -70 42q-64 0 -64 -34q0 -17 31.5 -22.5t76.5 -9.5t90 -16t76.5 -52t31.5 -108q0 -82 -64.5 -131.5
t-180.5 -49.5q-235 0 -237 180z" />
    <glyph glyph-name="t" unicode="t" horiz-adv-x="451" 
d="M115 387h-80v143h39q24 0 37.5 15.5t13.5 40.5v85h178v-139h128v-145h-128v-181q0 -24 16.5 -38.5t45.5 -14.5h66v-153h-119q-92 0 -144.5 52t-52.5 143v192z" />
    <glyph glyph-name="u" unicode="u" horiz-adv-x="606" 
d="M55 169v363h188v-296q0 -34 16.5 -54t47.5 -20q29 0 47.5 23t18.5 57v290h188v-532h-176v50h-9q-18 -28 -53.5 -45.5t-80.5 -17.5q-85 0 -136 50t-51 132z" />
    <glyph glyph-name="v" unicode="v" horiz-adv-x="599" 
d="M190 0l-180 532h194l90 -310h9l89 310h197l-179 -532h-220z" />
    <glyph glyph-name="w" unicode="w" horiz-adv-x="881" 
d="M150 0l-130 532h194l45 -300h9l84 300h177l84 -300h9l45 300h194l-130 -532h-200l-87 279h-6l-88 -279h-200z" />
    <glyph glyph-name="x" unicode="x" horiz-adv-x="595" 
d="M212 0h-202l173 276l-159 256h200l71 -131h6l70 131h200l-159 -256l173 -276h-202l-82 140h-6z" />
    <glyph glyph-name="y" unicode="y" horiz-adv-x="604" 
d="M218 -2l-208 534h194l97 -290h9l87 290h197l-214 -589q-31 -88 -87 -130.5t-144 -42.5h-76v165h70q51 0 72 55z" />
    <glyph glyph-name="z" unicode="z" horiz-adv-x="531" 
d="M491 0h-451v167l199 201v9h-191v155h438v-155l-199 -208v-9h204v-160z" />
    <glyph glyph-name="braceleft" unicode="{" horiz-adv-x="498" 
d="M89 236h-34v140h34q19 0 31.5 12t12.5 31v176q0 83 53 125.5t138 42.5h84v-147h-46q-51 0 -51 -52v-177q0 -65 -51 -77v-9q51 -12 51 -77v-176q0 -28 11.5 -40t39.5 -12h46v-147h-84q-85 0 -138 42.5t-53 125.5v176q0 18 -12.5 30.5t-31.5 12.5z" />
    <glyph glyph-name="bar" unicode="|" horiz-adv-x="340" 
d="M260 -206h-180v989h180v-989z" />
    <glyph glyph-name="braceright" unicode="}" horiz-adv-x="498" 
d="M90 -151v147h46q28 0 39.5 12t11.5 40v176q0 65 51 77v9q-51 12 -51 77v177q0 52 -51 52h-46v147h84q85 0 138 -42.5t53 -125.5v-176q0 -19 12.5 -31t31.5 -12h34v-140h-34q-19 0 -31.5 -12.5t-12.5 -30.5v-176q0 -83 -53 -125.5t-138 -42.5h-84z" />
    <glyph glyph-name="asciitilde" unicode="~" horiz-adv-x="538" 
d="M147 210h-117q0 184 139 184q32 0 92 -23q57 -22 82 -22q21 0 34.5 12t14.5 31h116q0 -184 -139 -184q-30 0 -93.5 25.5t-79.5 25.5q-23 0 -35.5 -13.5t-13.5 -35.5z" />
    <glyph glyph-name="uni00A0" unicode="&#xa0;" horiz-adv-x="248" 
 />
    <glyph glyph-name="exclamdown" unicode="&#xa1;" horiz-adv-x="295" 
d="M50 465q0 42 27.5 68.5t69.5 26.5q44 0 71 -26t27 -69q0 -42 -27 -68.5t-71 -26.5q-41 0 -69 27t-28 68zM53 -153v256l41 220h109l41 -220v-256h-191z" />
    <glyph glyph-name="cent" unicode="&#xa2;" horiz-adv-x="621" 
d="M30 348q0 101 56 175q55 73 154 96v86h146v-85q89 -18 144 -79t61 -147h-190q-9 29 -31.5 46t-54.5 17q-44 0 -69.5 -30.5t-25.5 -78.5t25.5 -78.5t69.5 -30.5q30 0 51.5 15t30.5 39h192q-8 -84 -62 -141.5t-141 -75.5v-76h-146v77q-97 22 -154 96q-56 76 -56 175z" />
    <glyph glyph-name="sterling" unicode="&#xa3;" horiz-adv-x="670" 
d="M615 0h-565v185h58v75h-48v155h48v60q0 109 75 173.5t178 64.5q113 0 183 -69q71 -68 71 -181h-190q0 33 -17 51.5t-47 18.5q-28 0 -45.5 -18.5t-17.5 -51.5v-48h167v-155h-167v-75h317v-185z" />
    <glyph glyph-name="yen" unicode="&#xa5;" horiz-adv-x="683" 
d="M187 381l-177 319h210l117 -235h9l117 235h210l-174 -319h84v-120h-143v-45h143v-119h-143v-97h-192v97h-148v119h148v45h-148v120h87z" />
    <glyph glyph-name="section" unicode="&#xa7;" horiz-adv-x="534" 
d="M25 269q0 39 20 74t54 56v9q-55 58 -55 139q0 86 66 136t164 50q44 0 83 -11t71 -33.5t51 -62.5t19 -93h-175q0 45 -49 45q-21 0 -33.5 -10.5t-12.5 -28.5q0 -27 35 -47l143 -81q103 -57 103 -162q0 -40 -20 -75t-54 -55v-9q55 -58 55 -139q0 -87 -65.5 -136.5
t-164.5 -49.5q-95 0 -159.5 49t-64.5 151h175q0 -45 49 -45q21 0 33.5 11t12.5 28q0 27 -35 47l-143 81q-103 57 -103 162zM198 279q0 -28 31 -44l66 -35q17 0 29 11t12 27q0 29 -31 45l-66 35q-17 0 -29 -11.5t-12 -27.5z" />
    <glyph glyph-name="dieresis" unicode="&#xa8;" horiz-adv-x="434" 
d="M30 678q0 35 23.5 58.5t57.5 23.5q36 0 59 -23.5t23 -58.5q0 -36 -22.5 -59t-59.5 -23q-35 0 -58 23.5t-23 58.5zM323 760q34 0 57.5 -23.5t23.5 -58.5t-23 -58.5t-58 -23.5q-37 0 -59.5 23t-22.5 59t22.5 59t59.5 23z" />
    <glyph glyph-name="copyright" unicode="&#xa9;" horiz-adv-x="827" 
d="M35 348q0 156 107.5 260.5t268.5 104.5q164 0 272.5 -104t108.5 -261t-107 -259.5t-272 -102.5q-160 -3 -270.5 103.5t-107.5 258.5zM144 348q0 -113 76 -186q76 -72 193 -72q119 0 194 72q76 73 76 187q0 113 -76 186t-196 73q-112 0 -189.5 -74.5t-77.5 -185.5z
M216 348q0 83 55 138t143 55q77 0 128 -43t61 -110h-111q-5 24 -26.5 39t-51.5 15q-42 0 -67 -26t-25 -68t25 -68t67 -26q29 0 51.5 15t31.5 38h111q-11 -66 -64 -109q-52 -43 -130 -43q-88 0 -143 55t-55 138z" />
    <glyph glyph-name="ordfeminine" unicode="&#xaa;" horiz-adv-x="527" 
d="M45 502q0 94 48 153q49 58 127 58q65 0 100 -47h6v37h141v-397h-140v38h-7q-29 -47 -98 -47q-79 0 -128 56t-49 149zM258 427q31 0 51 22t20 56t-20 55.5t-51 21.5q-32 0 -51.5 -21.5t-19.5 -55.5t19.5 -56t51.5 -22z" />
    <glyph glyph-name="guillemotleft" unicode="&#xab;" horiz-adv-x="591" 
d="M286 78l-221 177v74l221 177v-155l-74 -56v-6l74 -56v-155zM526 78l-221 177v74l221 177v-155l-74 -56v-6l74 -56v-155z" />
    <glyph glyph-name="uni00AD" unicode="&#xad;" horiz-adv-x="379" 
d="M339 229h-299v156h299v-156z" />
    <glyph glyph-name="registered" unicode="&#xae;" horiz-adv-x="557" 
d="M40 528q0 100 65 168q66 68 171 68q108 0 174 -68q67 -67 67 -167q0 -99 -66.5 -167.5t-172.5 -68.5t-172 67q-66 68 -66 168zM118 528q0 -71 44 -116t116 -45q74 0 117 44.5t43 117.5t-44 116.5t-118 43.5q-72 0 -115 -44.5t-43 -116.5zM259 414h-69v227h111
q34 0 57 -23t23 -55q0 -24 -10.5 -43.5t-26.5 -25.5l41 -80h-76l-28 68h-22v-68zM259 583v-43h27q9 0 15 6.5t6 15.5q0 21 -21 21h-27z" />
    <glyph glyph-name="overscore" unicode="&#xaf;" horiz-adv-x="377" 
d="M337 614h-297v127h297v-127z" />
    <glyph glyph-name="degree" unicode="&#xb0;" horiz-adv-x="402" 
d="M352 565q0 -63 -42 -107q-40 -42 -109 -42q-68 0 -110 42q-41 44 -41 106t42 106q42 43 109 43q69 0 109 -43q42 -44 42 -105zM157 564q0 -19 12.5 -32t31.5 -13q20 0 32 13t12 33q0 19 -12 32t-32 13t-32 -13t-12 -33z" />
    <glyph glyph-name="uni00B2" unicode="&#xb2;" horiz-adv-x="372" 
d="M330 289h-290v95q0 41 17 66.5t60 47.5l77 41q26 14 26 36q0 13 -10.5 21.5t-28.5 8.5q-17 0 -27.5 -10.5t-10.5 -25.5h-103q0 61 39 100t104 39q67 0 108 -38.5t41 -95.5q0 -76 -79 -117l-88 -45q-13 -7 -13 -19v-4h178v-100z" />
    <glyph glyph-name="uni00B3" unicode="&#xb3;" horiz-adv-x="372" 
d="M40 421h103q1 -15 11 -25t27 -10q18 0 28.5 10t10.5 25q0 14 -10.5 24t-29.5 10h-63v86l71 55v4h-142v100h278v-96l-75 -59v-6q37 -11 60 -43.5t23 -74.5q0 -60 -41 -100t-108 -40t-105 39t-38 101z" />
    <glyph glyph-name="acute" unicode="&#xb4;" horiz-adv-x="297" 
d="M163 600h-123l44 160h173z" />
    <glyph glyph-name="paragraph" unicode="&#xb6;" horiz-adv-x="630" 
d="M288 700h287v-745h-120v616h-44v-616h-119v276q-100 -1 -170 70.5t-67 164.5q-2 93 67.5 164t165.5 70z" />
    <glyph glyph-name="middot" unicode="&#xb7;" horiz-adv-x="275" 
d="M40 315q0 40 28 67.5t69 27.5q44 0 71 -26.5t27 -68.5q0 -43 -26.5 -69t-71.5 -26q-42 0 -69.5 26.5t-27.5 68.5z" />
    <glyph glyph-name="cedilla" unicode="&#xb8;" horiz-adv-x="261" 
d="M25 -125h83q1 -7 7 -12t14 -5q23 0 23 23q0 10 -6 16.5t-16 6.5q-14 0 -19 -11l-81 1l22 126h76l-18 -64h6q10 9 33 9q38 0 62.5 -22.5t24.5 -61.5q0 -38 -29.5 -62t-76.5 -24q-46 0 -75 22.5t-30 57.5z" />
    <glyph glyph-name="uni00B9" unicode="&#xb9;" horiz-adv-x="286" 
d="M134 554h-94v82q57 0 80 15t23 49h103v-411h-112v265z" />
    <glyph glyph-name="ordmasculine" unicode="&#xba;" horiz-adv-x="523" 
d="M45 505q0 89 59 148q60 60 157 60t157 -60q60 -58 60 -148q0 -89 -60 -149q-61 -59 -157 -59q-95 0 -156 59q-60 60 -60 149zM261 427q32 0 53.5 22t21.5 56t-21.5 55.5t-53.5 21.5t-53 -21.5t-21 -55.5t21 -56t53 -22z" />
    <glyph glyph-name="guillemotright" unicode="&#xbb;" horiz-adv-x="591" 
d="M286 255l-221 -177v155l74 56v6l-74 56v155l221 -177v-74zM526 255l-221 -177v155l74 56v6l-74 56v155l221 -177v-74z" />
    <glyph glyph-name="onequarter" unicode="&#xbc;" horiz-adv-x="873" 
d="M134 554h-94v82q57 0 80 15t23 49h103v-411h-112v265zM290 -41h-140l394 782h140zM685 58h-179v95l90 258h114l-84 -250v-3h59v81h112v-81h36v-100h-36v-58h-112v58z" />
    <glyph glyph-name="onehalf" unicode="&#xbd;" horiz-adv-x="882" 
d="M134 554h-94v82q57 0 80 15t23 49h103v-411h-112v265zM290 -41h-140l394 782h140zM840 -1h-290v95q0 41 17 66.5t60 47.5l77 41q26 14 26 36q0 13 -10.5 21.5t-28.5 8.5q-17 0 -27.5 -10.5t-10.5 -25.5h-103q0 61 38 100t105 39t108 -38.5t41 -95.5q0 -76 -79 -117
l-88 -45q-13 -7 -13 -19v-4h178v-100z" />
    <glyph glyph-name="threequarters" unicode="&#xbe;" horiz-adv-x="913" 
d="M40 421h103q1 -15 11 -25t27 -10q18 0 28.5 10t10.5 25q0 14 -10.5 24t-29.5 10h-63v86l71 55v4h-142v100h278v-96l-75 -59v-6q37 -11 60 -43.5t23 -74.5q0 -60 -41 -100t-108 -40t-105 39t-38 101zM334 -41h-140l394 782h140zM725 58h-179v95l90 258h114l-84 -250v-3h59
v81h112v-81h36v-100h-36v-58h-112v58z" />
    <glyph glyph-name="questiondown" unicode="&#xbf;" horiz-adv-x="567" 
d="M45 51q0 55 32.5 102.5t86.5 79.5l49 30q31 19 31 53v12h165v-35q0 -52 -20.5 -87.5t-65.5 -62.5l-54 -34q-39 -25 -39 -59q0 -23 16 -37t45 -14t44 15.5t16 40.5h171q0 -97 -62 -159t-171 -62q-113 0 -178.5 59.5t-65.5 157.5zM230 465q0 43 27 69t71 26
q42 0 69.5 -26.5t27.5 -68.5q0 -41 -28 -68t-69 -27q-44 0 -71 26.5t-27 68.5z" />
    <glyph glyph-name="Agrave" unicode="&#xc0;" horiz-adv-x="722" 
d="M205 0h-195l224 700h249l229 -700h-205l-32 106h-238zM309 776l-94 160h173l44 -160h-123zM351 491l-64 -215h138l-64 215h-10z" />
    <glyph glyph-name="Aacute" unicode="&#xc1;" horiz-adv-x="722" 
d="M205 0h-195l224 700h249l229 -700h-205l-32 106h-238zM351 491l-64 -215h138l-64 215h-10zM411 776h-123l44 160h173z" />
    <glyph glyph-name="Acircumflex" unicode="&#xc2;" horiz-adv-x="722" 
d="M205 0h-195l224 700h249l229 -700h-205l-32 106h-238zM292 776h-116l110 160h150l110 -160h-116l-65 48h-9zM351 491l-64 -215h138l-64 215h-10z" />
    <glyph glyph-name="Atilde" unicode="&#xc3;" horiz-adv-x="722" 
d="M205 0h-195l224 700h249l229 -700h-205l-32 106h-238zM272 768h-108q0 78 32.5 118t89.5 40q35 0 69 -18t46 -18q29 0 34 36h108q0 -76 -33 -117.5t-88 -41.5q-29 0 -66.5 18t-49.5 18q-29 0 -34 -35zM351 491l-64 -215h138l-64 215h-10z" />
    <glyph glyph-name="Adieresis" unicode="&#xc4;" horiz-adv-x="722" 
d="M205 0h-195l224 700h249l229 -700h-205l-32 106h-238zM172 854q0 35 23.5 58.5t57.5 23.5q36 0 59 -23t23 -59t-22.5 -59t-59.5 -23q-35 0 -58 23t-23 59zM351 491l-64 -215h138l-64 215h-10zM465 936q34 0 57.5 -23.5t23.5 -58.5q0 -36 -23 -59t-58 -23q-37 0 -59.5 23
t-22.5 59t22.5 59t59.5 23z" />
    <glyph glyph-name="Aring" unicode="&#xc5;" horiz-adv-x="722" 
d="M205 0h-195l224 700h249l229 -700h-205l-32 106h-238zM249 843q0 46 31 75t79 29q50 0 81 -28.5t31 -74.5t-31.5 -76t-79.5 -30t-79.5 29.5t-31.5 75.5zM351 491l-64 -215h138l-64 215h-10zM327 843q0 -21 16.5 -29t33 0.5t16.5 29.5q0 14 -9 23t-25 9q-14 0 -23 -9.5
t-9 -23.5z" />
    <glyph glyph-name="AE" unicode="&#xc6;" horiz-adv-x="943" 
d="M205 0h-195l325 700h563v-162h-271v-106h229v-162h-229v-107h281v-163h-473v106h-183zM425 491l-96 -215h106v215h-10z" />
    <glyph glyph-name="Ccedilla" unicode="&#xc7;" horiz-adv-x="808" 
d="M35 350q0 157 103.5 260t268.5 103q148 0 243 -81.5t114 -206.5h-209q-10 44 -50 73.5t-98 29.5q-79 0 -125 -51q-47 -50 -47 -127q0 -79 47 -128.5t125 -49.5q55 0 96.5 28t60.5 72h209q-19 -122 -118.5 -203.5t-247.5 -81.5l-9 -31h6q10 9 33 9q38 0 62.5 -22.5
t24.5 -61.5q0 -38 -29.5 -62t-76.5 -24q-46 0 -75 22.5t-30 57.5h83q1 -7 7 -12t14 -5q23 0 23 23q0 10 -6 16.5t-16 6.5q-14 0 -19 -11l-81 1l17 99q-135 22 -218 120q-82 97 -82 237z" />
    <glyph glyph-name="Egrave" unicode="&#xc8;" horiz-adv-x="563" 
d="M528 0h-473v700h463v-162h-271v-106h229v-162h-229v-107h281v-163zM247 776l-94 160h173l44 -160h-123z" />
    <glyph glyph-name="Eacute" unicode="&#xc9;" horiz-adv-x="563" 
d="M528 0h-473v700h463v-162h-271v-106h229v-162h-229v-107h281v-163zM349 776h-123l44 160h173z" />
    <glyph glyph-name="Ecircumflex" unicode="&#xca;" horiz-adv-x="563" 
d="M528 0h-473v700h463v-162h-271v-106h229v-162h-229v-107h281v-163zM230 776h-116l110 160h150l110 -160h-116l-65 48h-9z" />
    <glyph glyph-name="Edieresis" unicode="&#xcb;" horiz-adv-x="563" 
d="M528 0h-473v700h463v-162h-271v-106h229v-162h-229v-107h281v-163zM110 854q0 35 23.5 58.5t57.5 23.5q36 0 59 -23t23 -59t-22.5 -59t-59.5 -23q-35 0 -58 23t-23 59zM403 936q34 0 57.5 -23.5t23.5 -58.5q0 -36 -23.5 -59t-57.5 -23q-37 0 -59.5 23t-22.5 59t22.5 59
t59.5 23z" />
    <glyph glyph-name="Igrave" unicode="&#xcc;" horiz-adv-x="302" 
d="M96 776l-94 160h173l44 -160h-123zM247 0h-192v700h192v-700z" />
    <glyph glyph-name="Iacute" unicode="&#xcd;" horiz-adv-x="302" 
d="M247 0h-192v700h192v-700zM198 776h-123l44 160h173z" />
    <glyph glyph-name="Icircumflex" unicode="&#xce;" horiz-adv-x="302" 
d="M79 776h-116l110 160h150l110 -160h-116l-65 48h-9zM247 0h-192v700h192v-700z" />
    <glyph glyph-name="Idieresis" unicode="&#xcf;" horiz-adv-x="302" 
d="M-41 854q0 35 23.5 58.5t57.5 23.5q36 0 59 -23t23 -59t-22.5 -59t-59.5 -23q-35 0 -58 23t-23 59zM247 0h-192v700h192v-700zM252 936q34 0 57.5 -23.5t23.5 -58.5q0 -36 -23 -59t-58 -23q-37 0 -59.5 23t-22.5 59t22.5 59t59.5 23z" />
    <glyph glyph-name="Eth" unicode="&#xd0;" horiz-adv-x="721" 
d="M55 280h-66v130h66v290h267q167 0 265.5 -95.5t98.5 -250.5q0 -163 -98 -259q-98 -95 -266 -95h-267v280zM247 280v-115h65q31 0 59 9t55 29t43.5 59t16.5 92q0 51 -16 88t-43 56.5t-55.5 28t-59.5 8.5h-65v-125h112v-130h-112z" />
    <glyph glyph-name="Ntilde" unicode="&#xd1;" horiz-adv-x="742" 
d="M240 0h-185v700h215l226 -389h6v389h185v-700h-215l-226 389h-6v-389zM288 768h-108q0 78 32.5 118t89.5 40q31 0 68.5 -18t46.5 -18q29 0 34 36h108q0 -76 -33 -117.5t-88 -41.5q-32 0 -66 18t-50 18q-29 0 -34 -35z" />
    <glyph glyph-name="Ograve" unicode="&#xd2;" horiz-adv-x="823" 
d="M35 350q0 155 108 259t269 104t268.5 -104.5t107.5 -258.5q3 -151 -107.5 -258.5t-268.5 -104.5q-162 0 -269.5 103.5t-107.5 259.5zM235 350q0 -78 49 -128q50 -50 128 -50q76 0 126 50q50 52 50 128q0 74 -50 126q-49 52 -126 52q-78 0 -128 -51q-49 -50 -49 -127z
M361 776l-94 160h173l44 -160h-123z" />
    <glyph glyph-name="Oacute" unicode="&#xd3;" horiz-adv-x="823" 
d="M35 350q0 155 108 259t269 104t268.5 -104.5t107.5 -258.5q3 -151 -107.5 -258.5t-268.5 -104.5q-162 0 -269.5 103.5t-107.5 259.5zM235 350q0 -78 49 -128q50 -50 128 -50q76 0 126 50q50 52 50 128q0 74 -50 126q-49 52 -126 52q-78 0 -128 -51q-49 -50 -49 -127z
M463 776h-123l44 160h173z" />
    <glyph glyph-name="Ocircumflex" unicode="&#xd4;" horiz-adv-x="823" 
d="M35 350q0 155 108 259t269 104t268.5 -104.5t107.5 -258.5q3 -151 -107.5 -258.5t-268.5 -104.5q-162 0 -269.5 103.5t-107.5 259.5zM344 776h-116l110 160h150l110 -160h-116l-65 48h-9zM235 350q0 -78 49 -128q50 -50 128 -50q76 0 126 50q50 52 50 128q0 74 -50 126
q-49 52 -126 52q-78 0 -128 -51q-49 -50 -49 -127z" />
    <glyph glyph-name="Otilde" unicode="&#xd5;" horiz-adv-x="823" 
d="M35 350q0 155 108 259t269 104t268.5 -104.5t107.5 -258.5q3 -151 -107.5 -258.5t-268.5 -104.5q-162 0 -269.5 103.5t-107.5 259.5zM324 768h-108q0 78 32.5 118t89.5 40q31 0 68.5 -18t46.5 -18q29 0 34 36h108q0 -76 -33 -117.5t-88 -41.5q-32 0 -66 18t-50 18
q-29 0 -34 -35zM235 350q0 -78 49 -128q50 -50 128 -50q76 0 126 50q50 52 50 128q0 74 -50 126q-49 52 -126 52q-78 0 -128 -51q-49 -50 -49 -127z" />
    <glyph glyph-name="Odieresis" unicode="&#xd6;" horiz-adv-x="823" 
d="M35 350q0 155 108 259t269 104t268.5 -104.5t107.5 -258.5q3 -151 -107.5 -258.5t-268.5 -104.5q-162 0 -269.5 103.5t-107.5 259.5zM224 854q0 35 23.5 58.5t57.5 23.5q36 0 59 -23t23 -59t-22.5 -59t-59.5 -23q-34 0 -57.5 23t-23.5 59zM235 350q0 -78 49 -128
q50 -50 128 -50q76 0 126 50q50 52 50 128q0 74 -50 126q-49 52 -126 52q-78 0 -128 -51q-49 -50 -49 -127zM517 936q34 0 57.5 -23.5t23.5 -58.5q0 -36 -23 -59t-58 -23q-37 0 -59.5 23t-22.5 59t22.5 59t59.5 23z" />
    <glyph glyph-name="multiply" unicode="&#xd7;" horiz-adv-x="507" 
d="M111 50l-106 104l146 155l-146 155l106 105l143 -151l142 151l106 -105l-146 -155l146 -155l-106 -104l-142 151z" />
    <glyph glyph-name="Oslash" unicode="&#xd8;" horiz-adv-x="813" 
d="M35 350q0 157 108 260t269 103q77 0 144 -26l34 52h149l-75 -115q59 -50 91.5 -121.5t32.5 -152.5q3 -151 -107.5 -258.5t-268.5 -104.5q-78 0 -147 26l-42 -63h-149l83 127q-122 106 -122 273zM235 350q0 -62 31 -106l184 280q-15 4 -38 4q-78 0 -128 -51
q-49 -50 -49 -127zM555 457l-184 -281q16 -4 41 -4q76 0 126 50q50 52 50 128q0 60 -33 107z" />
    <glyph glyph-name="Ugrave" unicode="&#xd9;" horiz-adv-x="690" 
d="M50 273v427h192v-426q0 -51 26.5 -78.5t76.5 -27.5q103 0 103 106v426h192v-427q0 -128 -82 -207t-213 -79t-213 79t-82 207zM285 776l-94 160h173l44 -160h-123z" />
    <glyph glyph-name="Uacute" unicode="&#xda;" horiz-adv-x="690" 
d="M50 273v427h192v-426q0 -51 26.5 -78.5t76.5 -27.5q103 0 103 106v426h192v-427q0 -128 -82 -207t-213 -79t-213 79t-82 207zM387 776h-123l44 160h173z" />
    <glyph glyph-name="Ucircumflex" unicode="&#xdb;" horiz-adv-x="690" 
d="M50 273v427h192v-426q0 -51 26.5 -78.5t76.5 -27.5q103 0 103 106v426h192v-427q0 -128 -82 -207t-213 -79t-213 79t-82 207zM268 776h-116l110 160h150l110 -160h-116l-65 48h-9z" />
    <glyph glyph-name="Udieresis" unicode="&#xdc;" horiz-adv-x="690" 
d="M50 273v427h192v-426q0 -51 26.5 -78.5t76.5 -27.5q103 0 103 106v426h192v-427q0 -128 -82 -207t-213 -79t-213 79t-82 207zM148 854q0 35 23.5 58.5t57.5 23.5q36 0 59 -23t23 -59t-22.5 -59t-59.5 -23q-35 0 -58 23t-23 59zM441 936q34 0 57.5 -23.5t23.5 -58.5
q0 -36 -23 -59t-58 -23q-37 0 -59.5 23t-22.5 59t22.5 59t59.5 23z" />
    <glyph glyph-name="Yacute" unicode="&#xdd;" horiz-adv-x="683" 
d="M248 272l-238 428h210l117 -235h9l117 235h210l-233 -426v-274h-192v272zM396 776h-123l44 160h173z" />
    <glyph glyph-name="Thorn" unicode="&#xde;" horiz-adv-x="612" 
d="M247 0h-192v700h192v-88h88q109 0 183 -69t74 -175q2 -102 -75.5 -175.5t-181.5 -71.5h-88v-121zM247 450v-167h68q36 0 59 23t23 62q0 38 -22.5 60t-59.5 22h-68z" />
    <glyph glyph-name="germandbls" unicode="&#xdf;" horiz-adv-x="649" 
d="M243 0h-188v502q0 116 70 182t187 66t191 -59t74 -141q0 -98 -79 -138v-6q59 -23 90 -70.5t31 -110.5q0 -111 -62 -174.5t-190 -63.5q-40 0 -85 13v171q29 -10 59 -10q36 0 57 17t21 49q0 31 -23 47.5t-65 16.5h-39v171h6q32 0 50 16.5t18 44.5q0 25 -16 41t-45 16
t-45.5 -19.5t-16.5 -53.5v-507z" />
    <glyph glyph-name="agrave" unicode="&#xe0;" horiz-adv-x="630" 
d="M30 262q0 128 64 205q64 78 170 78q88 0 134 -63h9v50h188v-532h-187v50h-9q-40 -63 -132 -63q-106 0 -172 74q-65 76 -65 201zM279 600l-94 160h173l44 -160h-123zM246 345q-26 -31 -26 -79t26 -79q26 -30 69 -30t69 30q26 31 26 79t-26 79q-26 30 -69 30t-69 -30z" />
    <glyph glyph-name="aacute" unicode="&#xe1;" horiz-adv-x="630" 
d="M30 262q0 128 64 205q64 78 170 78q88 0 134 -63h9v50h188v-532h-187v50h-9q-40 -63 -132 -63q-106 0 -172 74q-65 76 -65 201zM246 345q-26 -31 -26 -79t26 -79q26 -30 69 -30t69 30q26 31 26 79t-26 79q-26 30 -69 30t-69 -30zM381 600h-123l44 160h173z" />
    <glyph glyph-name="acircumflex" unicode="&#xe2;" horiz-adv-x="630" 
d="M30 262q0 128 64 205q64 78 170 78q88 0 134 -63h9v50h188v-532h-187v50h-9q-40 -63 -132 -63q-106 0 -172 74q-65 76 -65 201zM262 600h-116l110 160h150l110 -160h-116l-65 48h-9zM246 345q-26 -31 -26 -79t26 -79q26 -30 69 -30t69 30q26 31 26 79t-26 79
q-26 30 -69 30t-69 -30z" />
    <glyph glyph-name="atilde" unicode="&#xe3;" horiz-adv-x="630" 
d="M30 262q0 128 64 205q64 78 170 78q88 0 134 -63h9v50h188v-532h-187v50h-9q-40 -63 -132 -63q-106 0 -172 74q-65 76 -65 201zM242 592h-108q0 78 32.5 118t89.5 40q31 0 68.5 -18t46.5 -18q29 0 34 36h108q0 -76 -33 -117.5t-88 -41.5q-32 0 -66 18t-50 18
q-29 0 -34 -35zM246 345q-26 -31 -26 -79t26 -79q26 -30 69 -30t69 30q26 31 26 79t-26 79q-26 30 -69 30t-69 -30z" />
    <glyph glyph-name="adieresis" unicode="&#xe4;" horiz-adv-x="630" 
d="M30 262q0 128 64 205q64 78 170 78q88 0 134 -63h9v50h188v-532h-187v50h-9q-40 -63 -132 -63q-106 0 -172 74q-65 76 -65 201zM142 678q0 35 23.5 58.5t57.5 23.5q36 0 59 -23t23 -59t-22.5 -59t-59.5 -23q-35 0 -58 23.5t-23 58.5zM246 345q-26 -31 -26 -79t26 -79
q26 -30 69 -30t69 30q26 31 26 79t-26 79q-26 30 -69 30t-69 -30zM435 760q34 0 57.5 -23.5t23.5 -58.5t-23 -58.5t-58 -23.5q-37 0 -59.5 23t-22.5 59t22.5 59t59.5 23z" />
    <glyph glyph-name="aring" unicode="&#xe5;" horiz-adv-x="630" 
d="M30 262q0 128 64 205q64 78 170 78q88 0 134 -63h9v50h188v-532h-187v50h-9q-40 -63 -132 -63q-106 0 -172 74q-65 76 -65 201zM219 667q0 46 31 75t79 29q50 0 81 -29t31 -74q0 -46 -31.5 -76t-79.5 -30t-79.5 30t-31.5 75zM246 345q-26 -31 -26 -79t26 -79
q26 -30 69 -30t69 30q26 31 26 79t-26 79q-26 30 -69 30t-69 -30zM297 667q0 -20 16.5 -28.5t33 0t16.5 29.5q0 14 -9 23t-25 9q-14 0 -23 -9.5t-9 -23.5z" />
    <glyph glyph-name="ae" unicode="&#xe6;" horiz-adv-x="974" 
d="M30 167q0 75 55 118.5t147 47.5h162v10q0 28 -28.5 45.5t-77.5 17.5q-41 0 -68 -16t-29 -38h-143q0 82 67.5 137.5t162.5 55.5q137 0 202 -73h8q67 73 185 73q129 0 200 -81.5t71 -198.5v-49h-372q3 -40 32 -65.5t74 -25.5q70 0 95 51h165q-17 -89 -88.5 -139t-182.5 -50
q-124 0 -200 85h-9q-64 -85 -207 -85q-97 0 -159 49q-62 50 -62 131zM187 167q0 -22 24 -36t59 -14q54 0 89 24.5t35 63.5v7h-157q-22 0 -36 -12t-14 -33zM573 333h201q-5 30 -33.5 51.5t-69.5 21.5q-38 0 -65 -21.5t-33 -51.5z" />
    <glyph glyph-name="ccedilla" unicode="&#xe7;" horiz-adv-x="621" 
d="M30 266q-2 118 77 199t208 80q119 0 193 -65q76 -65 83 -168h-190q-9 29 -31.5 46t-54.5 17q-44 0 -69.5 -30.5t-25.5 -78.5t25.5 -78.5t69.5 -30.5q63 0 82 54h192q-9 -96 -78 -157q-67 -61 -176 -66l-9 -32h6q10 9 33 9q38 0 62.5 -22.5t24.5 -61.5q0 -38 -29 -62
t-77 -24q-46 0 -75 22.5t-30 57.5h83q1 -7 7 -12t14 -5q23 0 23 23q0 10 -6 16.5t-16 6.5q-13 0 -19 -11l-81 1l17 97q-108 17 -170 92q-63 77 -63 183z" />
    <glyph glyph-name="egrave" unicode="&#xe8;" horiz-adv-x="609" 
d="M30 261q0 125 76 204q77 80 202 80q129 0 200 -81.5t71 -198.5v-49h-374q4 -39 33 -64t71 -25q75 0 99 49h165q-16 -89 -87.5 -139t-183.5 -50q-112 -2 -192.5 78t-79.5 196zM256 600l-94 160h173l44 -160h-123zM208 333h201q-6 31 -33 52t-68 21q-38 0 -66 -22t-34 -51z
" />
    <glyph glyph-name="eacute" unicode="&#xe9;" horiz-adv-x="609" 
d="M30 261q0 125 76 204q77 80 202 80q129 0 200 -81.5t71 -198.5v-49h-374q4 -39 33 -64t71 -25q75 0 99 49h165q-16 -89 -87.5 -139t-183.5 -50q-112 -2 -192.5 78t-79.5 196zM208 333h201q-6 31 -33 52t-68 21q-38 0 -66 -22t-34 -51zM358 600h-123l44 160h173z" />
    <glyph glyph-name="ecircumflex" unicode="&#xea;" horiz-adv-x="609" 
d="M30 261q0 125 76 204q77 80 202 80q129 0 200 -81.5t71 -198.5v-49h-374q4 -39 33 -64t71 -25q75 0 99 49h165q-16 -89 -87.5 -139t-183.5 -50q-112 -2 -192.5 78t-79.5 196zM239 600h-116l110 160h150l110 -160h-116l-65 48h-9zM208 333h201q-6 31 -33 52t-68 21
q-38 0 -66 -22t-34 -51z" />
    <glyph glyph-name="edieresis" unicode="&#xeb;" horiz-adv-x="609" 
d="M30 261q0 125 76 204q77 80 202 80q129 0 200 -81.5t71 -198.5v-49h-374q4 -39 33 -64t71 -25q75 0 99 49h165q-16 -89 -87.5 -139t-183.5 -50q-112 -2 -192.5 78t-79.5 196zM119 678q0 35 23.5 58.5t57.5 23.5q36 0 59 -23t23 -59t-22.5 -59t-59.5 -23q-34 0 -57.5 23.5
t-23.5 58.5zM208 333h201q-6 31 -33 52t-68 21q-38 0 -66 -22t-34 -51zM412 760q34 0 57.5 -23.5t23.5 -58.5t-23 -58.5t-58 -23.5q-37 0 -59.5 23t-22.5 59t22.5 59t59.5 23z" />
    <glyph glyph-name="igrave" unicode="&#xec;" horiz-adv-x="278" 
d="M99 600l-94 160h173l44 -160h-123zM243 0h-188v532h188v-532z" />
    <glyph glyph-name="iacute" unicode="&#xed;" horiz-adv-x="278" 
d="M243 0h-188v532h188v-532zM201 600h-123l44 160h173z" />
    <glyph glyph-name="icircumflex" unicode="&#xee;" horiz-adv-x="278" 
d="M82 600h-116l110 160h150l110 -160h-116l-65 48h-9zM243 0h-188v532h188v-532z" />
    <glyph glyph-name="idieresis" unicode="&#xef;" horiz-adv-x="278" 
d="M-38 678q0 35 23.5 58.5t57.5 23.5q36 0 59 -23t23 -59t-22.5 -59t-59.5 -23q-35 0 -58 23.5t-23 58.5zM243 0h-188v532h188v-532zM255 760q34 0 57.5 -23.5t23.5 -58.5t-23 -58.5t-58 -23.5q-37 0 -59.5 23t-22.5 59t22.5 59t59.5 23z" />
    <glyph glyph-name="eth" unicode="&#xf0;" horiz-adv-x="618" 
d="M30 250q0 113 69 180t170 67q63 0 97 -26h6q-24 50 -85 108l-161 -59v91l84 31q-54 38 -100 59l102 54q77 -28 132 -64l155 57v-92l-74 -27q163 -150 163 -369q0 -125 -76 -198q-77 -74 -203 -75q-125 0 -202 73.5t-77 189.5zM309 162q40 1 64.5 24t24.5 64t-24.5 64
t-64.5 24q-40 -1 -64.5 -24t-24.5 -64t24.5 -64t64.5 -24z" />
    <glyph glyph-name="ntilde" unicode="&#xf1;" horiz-adv-x="596" 
d="M243 0h-188v532h176v-50h9q19 27 55 45t79 18q84 0 135.5 -50.5t51.5 -131.5v-363h-188v296q0 34 -16.5 54t-47.5 20q-29 0 -47.5 -23t-18.5 -57v-290zM230 592h-108q0 78 32.5 118t89.5 40q31 0 68.5 -18t46.5 -18q29 0 34 36h108q0 -76 -33 -117.5t-88 -41.5
q-29 0 -66.5 18t-49.5 18q-29 0 -34 -35z" />
    <glyph glyph-name="ograve" unicode="&#xf2;" 
d="M30 266q0 119 79.5 199t210.5 80q128 0 209 -80.5t81 -198.5q2 -117 -80.5 -198.5t-210.5 -80.5q-126 -1 -208.5 80.5t-80.5 198.5zM270 600l-94 160h173l44 -160h-123zM248 345q-28 -31 -28 -79t28 -79q28 -30 71 -30t72 30q29 32 29 79t-29 78q-28 31 -72 31
q-43 0 -71 -30z" />
    <glyph glyph-name="oacute" unicode="&#xf3;" 
d="M30 266q0 119 79.5 199t210.5 80q128 0 209 -80.5t81 -198.5q2 -117 -80.5 -198.5t-210.5 -80.5q-126 -1 -208.5 80.5t-80.5 198.5zM248 345q-28 -31 -28 -79t28 -79q28 -30 71 -30t72 30q29 32 29 79t-29 78q-28 31 -72 31q-43 0 -71 -30zM372 600h-123l44 160h173z" />
    <glyph glyph-name="ocircumflex" unicode="&#xf4;" 
d="M30 266q0 119 79.5 199t210.5 80q128 0 209 -80.5t81 -198.5q2 -117 -80.5 -198.5t-210.5 -80.5q-126 -1 -208.5 80.5t-80.5 198.5zM253 600h-116l110 160h150l110 -160h-116l-65 48h-9zM248 345q-28 -31 -28 -79t28 -79q28 -30 71 -30t72 30q29 32 29 79t-29 78
q-28 31 -72 31q-43 0 -71 -30z" />
    <glyph glyph-name="otilde" unicode="&#xf5;" 
d="M30 266q0 119 79.5 199t210.5 80q128 0 209 -80.5t81 -198.5q2 -117 -80.5 -198.5t-210.5 -80.5q-126 -1 -208.5 80.5t-80.5 198.5zM233 592h-108q0 78 32.5 118t89.5 40q31 0 68.5 -18t46.5 -18q30 0 34 36h108q0 -76 -33 -117.5t-88 -41.5q-29 0 -66.5 18t-49.5 18
q-29 0 -34 -35zM248 345q-28 -31 -28 -79t28 -79q28 -30 71 -30t72 30q29 32 29 79t-29 78q-28 31 -72 31q-43 0 -71 -30z" />
    <glyph glyph-name="odieresis" unicode="&#xf6;" 
d="M30 266q0 119 79.5 199t210.5 80q128 0 209 -80.5t81 -198.5q2 -117 -80.5 -198.5t-210.5 -80.5q-126 -1 -208.5 80.5t-80.5 198.5zM133 678q0 35 23.5 58.5t57.5 23.5q36 0 59 -23.5t23 -58.5q0 -36 -22.5 -59t-59.5 -23q-35 0 -58 23.5t-23 58.5zM248 345
q-28 -31 -28 -79t28 -79q28 -30 71 -30t72 30q29 32 29 79t-29 78q-28 31 -72 31q-43 0 -71 -30zM426 760q34 0 57.5 -23.5t23.5 -58.5t-23.5 -58.5t-57.5 -23.5q-37 0 -59.5 23t-22.5 59t22.5 59t59.5 23z" />
    <glyph glyph-name="divide" unicode="&#xf7;" horiz-adv-x="510" 
d="M505 239h-500v144h500v-144zM255 208q32 0 53.5 -22t21.5 -54t-21.5 -53.5t-53.5 -21.5t-54 21.5t-22 53.5t22 54t54 22zM255 574q32 0 53.5 -22t21.5 -54t-21.5 -53.5t-53.5 -21.5t-54 21.5t-22 53.5t22 54t54 22z" />
    <glyph glyph-name="oslash" unicode="&#xf8;" 
d="M30 266q0 119 79.5 199t210.5 80q48 0 96 -14l22 39h121l-50 -87q101 -80 101 -217q3 -117 -80 -198.5t-210 -80.5q-46 0 -89 12l-30 -53h-120l56 98q-51 38 -79 96t-28 126zM220 266q0 -32 12 -55l94 164h-6q-44 0 -72 -30.5t-28 -78.5zM411 313l-89 -156q42 1 70 31.5
t28 77.5q0 26 -9 47z" />
    <glyph glyph-name="ugrave" unicode="&#xf9;" horiz-adv-x="606" 
d="M55 169v363h188v-296q0 -34 16.5 -54t47.5 -20q29 0 47.5 23t18.5 57v290h188v-532h-176v50h-9q-18 -28 -53.5 -45.5t-80.5 -17.5q-85 0 -136 50t-51 132zM259 600l-94 160h173l44 -160h-123z" />
    <glyph glyph-name="uacute" unicode="&#xfa;" horiz-adv-x="606" 
d="M55 169v363h188v-296q0 -34 16.5 -54t47.5 -20q29 0 47.5 23t18.5 57v290h188v-532h-176v50h-9q-18 -28 -53.5 -45.5t-80.5 -17.5q-85 0 -136 50t-51 132zM361 600h-123l44 160h173z" />
    <glyph glyph-name="ucircumflex" unicode="&#xfb;" horiz-adv-x="606" 
d="M55 169v363h188v-296q0 -34 16.5 -54t47.5 -20q29 0 47.5 23t18.5 57v290h188v-532h-176v50h-9q-18 -28 -53.5 -45.5t-80.5 -17.5q-85 0 -136 50t-51 132zM242 600h-116l110 160h150l110 -160h-116l-65 48h-9z" />
    <glyph glyph-name="udieresis" unicode="&#xfc;" horiz-adv-x="606" 
d="M55 169v363h188v-296q0 -34 16.5 -54t47.5 -20q29 0 47.5 23t18.5 57v290h188v-532h-176v50h-9q-18 -28 -53.5 -45.5t-80.5 -17.5q-85 0 -136 50t-51 132zM122 678q0 35 23.5 58.5t57.5 23.5q36 0 59 -23t23 -59t-22.5 -59t-59.5 -23q-35 0 -58 23.5t-23 58.5zM415 760
q34 0 57.5 -23.5t23.5 -58.5t-23 -58.5t-58 -23.5q-37 0 -59.5 23t-22.5 59t22.5 59t59.5 23z" />
    <glyph glyph-name="yacute" unicode="&#xfd;" horiz-adv-x="604" 
d="M218 -2l-208 534h194l97 -290h9l87 290h197l-214 -589q-31 -88 -87 -130.5t-144 -42.5h-76v165h70q51 0 72 55zM351 600h-123l44 160h173z" />
    <glyph glyph-name="thorn" unicode="&#xfe;" horiz-adv-x="650" 
d="M243 -218h-188v967h188v-267h9q40 63 131 63q107 0 171 -75q66 -74 66 -200t-65 -205q-65 -78 -169 -78q-91 0 -134 63h-9v-268zM266 345q-26 -31 -26 -79t26 -79q26 -30 69 -30t69 30q26 31 26 79t-26 79q-26 30 -69 30t-69 -30z" />
    <glyph glyph-name="ydieresis" unicode="&#xff;" horiz-adv-x="604" 
d="M218 -2l-208 534h194l97 -290h9l87 290h197l-214 -589q-31 -88 -87 -130.5t-144 -42.5h-76v165h70q51 0 72 55zM112 678q0 35 23.5 58.5t57.5 23.5q36 0 59 -23.5t23 -58.5q0 -36 -22.5 -59t-59.5 -23q-35 0 -58 23.5t-23 58.5zM405 760q34 0 57.5 -23.5t23.5 -58.5
t-23.5 -58.5t-57.5 -23.5q-37 0 -59.5 23t-22.5 59t22.5 59t59.5 23z" />
    <glyph glyph-name="Amacron" unicode="&#x100;" horiz-adv-x="722" 
d="M205 0h-195l224 700h249l229 -700h-205l-32 106h-238zM517 790h-297v127h297v-127zM351 491l-64 -215h138l-64 215h-10z" />
    <glyph glyph-name="amacron" unicode="&#x101;" horiz-adv-x="630" 
d="M30 262q0 128 64 205q64 78 170 78q88 0 134 -63h9v50h188v-532h-187v50h-9q-40 -63 -132 -63q-106 0 -172 74q-65 76 -65 201zM487 614h-297v127h297v-127zM246 345q-26 -31 -26 -79t26 -79q26 -30 69 -30t69 30q26 31 26 79t-26 79q-26 30 -69 30t-69 -30z" />
    <glyph glyph-name="Abreve" unicode="&#x102;" horiz-adv-x="722" 
d="M205 0h-195l224 700h249l229 -700h-205l-32 106h-238zM203 930h105q0 -22 13 -34.5t36 -12.5q21 0 34.5 13.5t13.5 33.5h105q0 -75 -40 -116t-113 -41q-74 0 -114 40.5t-40 116.5zM351 491l-64 -215h138l-64 215h-10z" />
    <glyph glyph-name="abreve" unicode="&#x103;" horiz-adv-x="630" 
d="M30 262q0 128 64 205q64 78 170 78q88 0 134 -63h9v50h188v-532h-187v50h-9q-40 -63 -132 -63q-106 0 -172 74q-65 76 -65 201zM173 754h105q0 -22 13 -34.5t36 -12.5q22 0 35 13t13 34h105q0 -77 -40 -117t-113 -40q-75 0 -114.5 40t-39.5 117zM246 345q-26 -31 -26 -79
t26 -79q26 -30 69 -30t69 30q26 31 26 79t-26 79q-26 30 -69 30t-69 -30z" />
    <glyph glyph-name="Aogonek" unicode="&#x104;" horiz-adv-x="722" 
d="M205 0h-195l224 700h249l229 -700l-34 -45q-15 -19 -15 -30q0 -23 27 -23h22v-101h-95q-41 0 -67 22t-26 59q0 41 36 86l26 32h-79l-32 106h-238zM351 491l-64 -215h138l-64 215h-10z" />
    <glyph glyph-name="aogonek" unicode="&#x105;" horiz-adv-x="630" 
d="M30 262q0 128 64 205q64 78 170 78q88 0 134 -63h9v50h188v-532l-34 -45q-15 -19 -15 -30q0 -23 27 -23h22v-101h-95q-41 0 -67 22t-26 59q0 42 36 86l26 32h-61v50h-9q-40 -63 -132 -63q-106 0 -172 74q-65 76 -65 201zM246 345q-26 -31 -26 -79t26 -79q26 -30 69 -30
t69 30q26 31 26 79t-26 79q-26 30 -69 30t-69 -30z" />
    <glyph glyph-name="Cacute" unicode="&#x106;" horiz-adv-x="808" 
d="M35 350q0 157 103.5 260t268.5 103q148 0 243 -81.5t114 -206.5h-209q-10 44 -50 73.5t-98 29.5q-79 0 -125 -51q-47 -50 -47 -127q0 -79 47 -128.5t125 -49.5q55 0 96.5 28t60.5 72h209q-19 -122 -118.5 -203.5t-247.5 -81.5q-165 0 -268.5 103t-103.5 260zM453 776
h-123l44 160h173z" />
    <glyph glyph-name="cacute" unicode="&#x107;" horiz-adv-x="621" 
d="M315 545q119 0 193 -65q76 -65 83 -168h-190q-9 29 -31.5 46t-54.5 17q-44 0 -69.5 -30.5t-25.5 -78.5t25.5 -78.5t69.5 -30.5q63 0 82 54h192q-11 -99 -84 -162q-74 -62 -190 -62q-128 0 -206.5 80t-78.5 199q-2 118 77 199t208 80zM366 602h-123l44 160h173z" />
    <glyph glyph-name="Cdotaccent" unicode="&#x10a;" horiz-adv-x="808" 
d="M35 350q0 157 103.5 260t268.5 103q148 0 243 -81.5t114 -206.5h-209q-10 44 -50 73.5t-98 29.5q-79 0 -125 -51q-47 -50 -47 -127q0 -79 47 -128.5t125 -49.5q55 0 96.5 28t60.5 72h209q-19 -122 -118.5 -203.5t-247.5 -81.5q-165 0 -268.5 103t-103.5 260zM301 847
q0 42 28 69t73 27t73 -27t28 -69t-28 -69t-73 -27t-73 27t-28 69z" />
    <glyph glyph-name="cdotaccent" unicode="&#x10b;" horiz-adv-x="621" 
d="M315 545q119 0 193 -65q76 -65 83 -168h-190q-9 29 -31.5 46t-54.5 17q-44 0 -69.5 -30.5t-25.5 -78.5t25.5 -78.5t69.5 -30.5q63 0 82 54h192q-11 -99 -84 -162q-74 -62 -190 -62q-128 0 -206.5 80t-78.5 199q-2 118 77 199t208 80zM214 673q0 42 28 69t73 27t73 -27
t28 -69q0 -43 -27.5 -69.5t-73.5 -26.5t-73.5 26.5t-27.5 69.5z" />
    <glyph glyph-name="Ccaron" unicode="&#x10c;" horiz-adv-x="808" 
d="M35 350q0 157 103.5 260t268.5 103q148 0 243 -81.5t114 -206.5h-209q-10 44 -50 73.5t-98 29.5q-79 0 -125 -51q-47 -50 -47 -127q0 -79 47 -128.5t125 -49.5q55 0 96.5 28t60.5 72h209q-19 -122 -118.5 -203.5t-247.5 -81.5q-165 0 -268.5 103t-103.5 260zM327 776
l-110 160h116l64 -48h9l65 48h116l-110 -160h-150z" />
    <glyph glyph-name="ccaron" unicode="&#x10d;" horiz-adv-x="621" 
d="M315 545q119 0 193 -65q76 -65 83 -168h-190q-9 29 -31.5 46t-54.5 17q-44 0 -69.5 -30.5t-25.5 -78.5t25.5 -78.5t69.5 -30.5q63 0 82 54h192q-11 -99 -84 -162q-74 -62 -190 -62q-128 0 -206.5 80t-78.5 199q-2 118 77 199t208 80zM240 602l-110 160h116l64 -48h9
l65 48h116l-110 -160h-150z" />
    <glyph glyph-name="Dcaron" unicode="&#x10e;" horiz-adv-x="721" 
d="M322 0h-267v700h267q167 0 265.5 -95.5t98.5 -250.5q0 -163 -98 -259q-98 -95 -266 -95zM230 776l-110 160h116l64 -48h9l65 48h116l-110 -160h-150zM247 535v-370h65q31 0 59 9t55 29t43.5 59t16.5 92q0 51 -16 88t-43 56.5t-55.5 28t-59.5 8.5h-65z" />
    <glyph glyph-name="dcaron" unicode="&#x10f;" horiz-adv-x="769" 
d="M30 262q0 128 64 205q64 78 170 78q88 0 134 -63h9v268h188v-750h-187v50h-9q-40 -63 -132 -63q-106 0 -172 74q-65 76 -65 201zM246 345q-26 -31 -26 -79t26 -79q26 -30 69 -30t69 30q26 31 26 79t-26 79q-26 30 -69 30t-69 -30zM776 537h-125v213h149z" />
    <glyph glyph-name="Dcroat" unicode="&#x110;" horiz-adv-x="721" 
d="M55 280h-66v130h66v290h267q167 0 265.5 -95.5t98.5 -250.5q0 -163 -98 -259q-98 -95 -266 -95h-267v280zM247 280v-115h65q31 0 59 9t55 29t43.5 59t16.5 92q0 51 -16 88t-43 56.5t-55.5 28t-59.5 8.5h-65v-125h112v-130h-112z" />
    <glyph glyph-name="dslash" unicode="&#x111;" horiz-adv-x="635" 
d="M30 262q0 128 64 205q64 78 170 78q88 0 134 -63h9v88h-116v128h116v52h188v-52h54v-128h-54v-570h-187v50h-9q-40 -63 -132 -63q-106 0 -172 74q-65 76 -65 201zM246 345q-26 -31 -26 -79t26 -79q26 -30 69 -30t69 30q26 31 26 79t-26 79q-26 30 -69 30t-69 -30z" />
    <glyph glyph-name="Emacron" unicode="&#x112;" horiz-adv-x="563" 
d="M528 0h-473v700h463v-162h-271v-106h229v-162h-229v-107h281v-163zM455 790h-297v127h297v-127z" />
    <glyph glyph-name="emacron" unicode="&#x113;" horiz-adv-x="609" 
d="M30 261q0 125 76 204q77 80 202 80q129 0 200 -81.5t71 -198.5v-49h-374q4 -39 33 -64t71 -25q75 0 99 49h165q-16 -89 -87.5 -139t-183.5 -50q-112 -2 -192.5 78t-79.5 196zM464 614h-297v127h297v-127zM208 333h201q-6 31 -33 52t-68 21q-38 0 -66 -22t-34 -51z" />
    <glyph glyph-name="Edotaccent" unicode="&#x116;" horiz-adv-x="563" 
d="M528 0h-473v700h463v-162h-271v-106h229v-162h-229v-107h281v-163zM197 847q0 42 28 69t73 27t73 -27t28 -69t-28 -69t-73 -27t-73 27t-28 69z" />
    <glyph glyph-name="edotaccent" unicode="&#x117;" horiz-adv-x="609" 
d="M30 261q0 125 76 204q77 80 202 80q129 0 200 -81.5t71 -198.5v-49h-374q4 -39 33 -64t71 -25q75 0 99 49h165q-16 -89 -87.5 -139t-183.5 -50q-112 -2 -192.5 78t-79.5 196zM206 671q0 42 28 69t73 27t73 -27t28 -69q0 -43 -27.5 -69.5t-73.5 -26.5t-73.5 26.5
t-27.5 69.5zM208 333h201q-6 31 -33 52t-68 21q-38 0 -66 -22t-34 -51z" />
    <glyph glyph-name="Eogonek" unicode="&#x118;" horiz-adv-x="563" 
d="M402 0h-347v700h463v-162h-271v-106h229v-162h-229v-107h281v-163l-34 -45q-15 -19 -15 -30q0 -23 27 -23h22v-101h-95q-41 0 -67 22t-26 59q0 41 36 86z" />
    <glyph glyph-name="eogonek" unicode="&#x119;" horiz-adv-x="609" 
d="M30 261q0 125 76 204q77 80 202 80q129 0 200 -81.5t71 -198.5v-49h-374q4 -39 33 -64t71 -25q75 0 99 49h165q-13 -69 -61.5 -116t-124.5 -64l-31 -41q-15 -19 -15 -30q0 -23 27 -23h22v-101h-95q-41 0 -67 22t-26 59q0 42 36 86l18 23q-98 15 -162 90q-64 74 -64 180z
M208 333h201q-6 31 -33 52t-68 21q-38 0 -66 -22t-34 -51z" />
    <glyph glyph-name="Ecaron" unicode="&#x11a;" horiz-adv-x="563" 
d="M528 0h-473v700h463v-162h-271v-106h229v-162h-229v-107h281v-163zM223 776l-110 160h116l64 -48h9l65 48h116l-110 -160h-150z" />
    <glyph glyph-name="ecaron" unicode="&#x11b;" horiz-adv-x="609" 
d="M30 261q0 125 76 204q77 80 202 80q129 0 200 -81.5t71 -198.5v-49h-374q4 -39 33 -64t71 -25q75 0 99 49h165q-16 -89 -87.5 -139t-183.5 -50q-112 -2 -192.5 78t-79.5 196zM232 600l-110 160h116l64 -48h9l65 48h116l-110 -160h-150zM208 333h201q-6 31 -33 52t-68 21
q-38 0 -66 -22t-34 -51z" />
    <glyph glyph-name="Gbreve" unicode="&#x11e;" horiz-adv-x="807" 
d="M35 350q0 157 104.5 260t268.5 103q142 0 237 -77q96 -76 118 -193h-211q-15 37 -53.5 61t-90.5 24q-78 0 -126 -51q-47 -50 -47 -127q0 -79 47 -132q48 -52 126 -52q54 0 94.5 19.5t55.5 47.5h-150v155h363q11 -182 -89 -292q-97 -109 -274 -109q-165 0 -269 103
t-104 260zM256 930h105q0 -22 13 -34.5t36 -12.5q22 0 35 13.5t13 33.5h105q0 -75 -40 -116t-113 -41q-74 0 -114 40.5t-40 116.5z" />
    <glyph glyph-name="gbreve" unicode="&#x11f;" 
d="M30 271q0 126 65 200q66 74 167 74q48 0 84.5 -18.5t52.5 -44.5h9v50h187v-524q0 -108 -71 -179.5t-215 -71.5q-126 0 -193.5 62t-67.5 147h170q8 -59 91 -59q98 0 98 101v52h-9q-46 -63 -134 -63q-101 0 -168 73q-66 74 -66 201zM157 754h105q0 -22 13 -34.5t36 -12.5
q22 0 35 13t13 34h105q0 -77 -40 -117t-113 -40q-75 0 -114.5 40t-39.5 117zM246 347q-26 -29 -26 -76q0 -48 25 -76t69 -28q45 0 70 28q26 29 26 76t-26 76q-25 28 -70 28q-43 0 -68 -28z" />
    <glyph glyph-name="Gdotaccent" unicode="&#x120;" horiz-adv-x="807" 
d="M35 350q0 157 104.5 260t268.5 103q142 0 237 -77q96 -76 118 -193h-211q-15 37 -53.5 61t-90.5 24q-78 0 -126 -51q-47 -50 -47 -127q0 -79 47 -132q48 -52 126 -52q54 0 94.5 19.5t55.5 47.5h-150v155h363q11 -182 -89 -292q-97 -109 -274 -109q-165 0 -269 103
t-104 260zM312 847q0 42 28 69t73 27t73 -27t28 -69t-28 -69t-73 -27t-73 27t-28 69z" />
    <glyph glyph-name="gdotaccent" unicode="&#x121;" 
d="M30 271q0 126 65 200q66 74 167 74q48 0 84.5 -18.5t52.5 -44.5h9v50h187v-524q0 -108 -71 -179.5t-215 -71.5q-126 0 -193.5 62t-67.5 147h170q8 -59 91 -59q98 0 98 101v52h-9q-46 -63 -134 -63q-101 0 -168 73q-66 74 -66 201zM213 671q0 42 28 69t73 27t73 -27
t28 -69q0 -43 -27.5 -69.5t-73.5 -26.5t-73.5 26.5t-27.5 69.5zM246 347q-26 -29 -26 -76q0 -48 25 -76t69 -28q45 0 70 28q26 29 26 76t-26 76q-25 28 -70 28q-43 0 -68 -28z" />
    <glyph glyph-name="uni0122" unicode="&#x122;" horiz-adv-x="807" 
d="M35 350q0 157 104.5 260t268.5 103q142 0 237 -77q96 -76 118 -193h-211q-15 37 -53.5 61t-90.5 24q-78 0 -126 -51q-47 -50 -47 -127q0 -79 47 -132q48 -52 126 -52q54 0 94.5 19.5t55.5 47.5h-150v155h363q11 -182 -89 -292q-97 -109 -274 -109q-165 0 -269 103
t-104 260zM431 -229h-109l15 179h144z" />
    <glyph glyph-name="uni0123" unicode="&#x123;" 
d="M30 271q0 126 65 200q66 74 167 74q48 0 84.5 -18.5t52.5 -44.5h9v50h187v-524q0 -108 -71 -179.5t-215 -71.5q-126 0 -193.5 62t-67.5 147h170q8 -59 91 -59q98 0 98 101v52h-9q-46 -63 -134 -63q-101 0 -168 73q-66 74 -66 201zM246 347q-26 -29 -26 -76q0 -48 25 -76
t69 -28q45 0 70 28q26 29 26 76t-26 76q-25 28 -70 28q-43 0 -68 -28zM377 601h-144l50 179h109z" />
    <glyph glyph-name="Hcircumflex" unicode="&#x124;" horiz-adv-x="733" 
d="M247 0h-192v700h192v-256h239v256h192v-700h-192v259h-239v-259zM299 776h-116l110 160h150l110 -160h-116l-65 48h-9z" />
    <glyph glyph-name="hcircumflex" unicode="&#x125;" horiz-adv-x="600" 
d="M66 786h-116l110 160h150l110 -160h-116l-65 48h-9zM243 0h-188v750h187v-268h9q43 63 130 63q84 0 134 -50t50 -132v-363h-188v296q0 34 -17 54t-49 20q-30 0 -49 -23t-19 -57v-290z" />
    <glyph glyph-name="Hbar" unicode="&#x126;" horiz-adv-x="839" 
d="M109 503h-54v130h54v67h192v-67h239v67h192v-67h52v-130h-52v-503h-192v259h-239v-259h-192v503zM301 503v-59h239v59h-239z" />
    <glyph glyph-name="hbar" unicode="&#x127;" horiz-adv-x="600" 
d="M55 570h-59v128h59v52h187v-52h112v-128h-112v-88h9q43 63 130 63q84 0 134 -50t50 -132v-363h-188v296q0 34 -17 54t-49 20q-30 0 -49 -23t-19 -57v-290h-188v570z" />
    <glyph glyph-name="Imacron" unicode="&#x12a;" horiz-adv-x="302" 
d="M304 790h-297v127h297v-127zM247 0h-192v700h192v-700z" />
    <glyph glyph-name="imacron" unicode="&#x12b;" horiz-adv-x="278" 
d="M307 614h-297v127h297v-127zM243 0h-188v532h188v-532z" />
    <glyph glyph-name="Iogonek" unicode="&#x12e;" horiz-adv-x="302" 
d="M121 0h-66v700h192v-700l-34 -45q-15 -19 -15 -30q0 -23 27 -23h22v-101h-95q-41 0 -67 22t-26 59q0 41 36 86z" />
    <glyph glyph-name="iogonek" unicode="&#x12f;" horiz-adv-x="268" 
d="M42 671q0 42 28 69t73 27t73 -27t28 -69q0 -43 -27.5 -69.5t-73.5 -26.5t-73.5 26.5t-27.5 69.5zM110 0h-62v532h188v-532l-34 -45q-15 -19 -15 -30q0 -23 27 -23h22v-101h-95q-41 0 -67 22t-26 59q0 41 36 86z" />
    <glyph glyph-name="Idot" unicode="&#x130;" horiz-adv-x="302" 
d="M46 847q0 42 28 69t73 27t73 -27t28 -69t-28 -69t-73 -27t-73 27t-28 69zM247 0h-192v700h192v-700z" />
    <glyph glyph-name="dotlessi" unicode="&#x131;" horiz-adv-x="278" 
d="M243 0h-188v532h188v-532z" />
    <glyph glyph-name="Jcircumflex" unicode="&#x134;" horiz-adv-x="601" 
d="M25 241h180q0 -36 19.5 -57.5t57.5 -21.5q77 0 77 89v284h-202v165h394v-459q0 -119 -72 -186t-194 -67q-129 0 -194.5 69.5t-65.5 183.5zM288 776h-116l110 160h150l110 -160h-116l-65 48h-9z" />
    <glyph glyph-name="jcircumflex" unicode="&#x135;" horiz-adv-x="321" 
d="M114 600h-116l110 160h150l110 -160h-116l-65 48h-9zM0 -230v165h36q62 0 62 61v536h188v-537q0 -104 -57 -164q-55 -61 -150 -61h-79z" />
    <glyph glyph-name="uni0136" unicode="&#x136;" horiz-adv-x="683" 
d="M247 0h-192v700h192v-229h6l173 229h236l-224 -266l225 -434h-219l-140 276l-57 -68v-208zM346 -229h-109l15 179h144z" />
    <glyph glyph-name="uni0137" unicode="&#x137;" horiz-adv-x="621" 
d="M243 0h-188v750h188v-370h6l119 152h230l-162 -184l175 -348h-210l-95 200l-63 -71v-129zM336 -229h-109l15 179h144z" />
    <glyph glyph-name="kgreenlandic" unicode="&#x138;" horiz-adv-x="621" 
d="M243 0h-188v532h188v-152h6l124 152h230l-166 -186l174 -346h-210l-95 200l-63 -71v-129z" />
    <glyph glyph-name="Lacute" unicode="&#x139;" horiz-adv-x="539" 
d="M509 0h-454v700h192v-530h262v-170zM194 776h-123l44 160h173z" />
    <glyph glyph-name="lacute" unicode="&#x13a;" horiz-adv-x="337" 
d="M55 190v560h188v-535q0 -50 47 -50h17v-165h-60q-91 0 -141.5 50.5t-50.5 139.5zM201 786h-123l44 160h173z" />
    <glyph glyph-name="uni013B" unicode="&#x13b;" horiz-adv-x="539" 
d="M509 0h-454v700h192v-530h262v-170zM303 -229h-109l15 179h144z" />
    <glyph glyph-name="uni013C" unicode="&#x13c;" horiz-adv-x="337" 
d="M55 190v560h188v-535q0 -50 47 -50h17v-165h-60q-91 0 -141.5 50.5t-50.5 139.5zM226 -229h-109l15 179h144z" />
    <glyph glyph-name="Lcaron" unicode="&#x13d;" horiz-adv-x="533" 
d="M509 0h-454v700h192v-530h262v-170zM456 487h-125v213h149z" />
    <glyph glyph-name="lcaron" unicode="&#x13e;" horiz-adv-x="369" 
d="M55 190v560h188v-535q0 -50 47 -50h17v-165h-60q-91 0 -141.5 50.5t-50.5 139.5zM435 537h-125v213h149z" />
    <glyph glyph-name="Ldot" unicode="&#x13f;" horiz-adv-x="600" 
d="M509 0h-454v700h192v-530h262v-170zM280 385q0 40 28 67.5t69 27.5q44 0 71 -26.5t27 -68.5q0 -43 -27 -69t-71 -26q-42 0 -69.5 26.5t-27.5 68.5z" />
    <glyph glyph-name="ldot" unicode="&#x140;" horiz-adv-x="454" 
d="M55 190v560h188v-535q0 -50 47 -50h17v-165h-60q-91 0 -141.5 50.5t-50.5 139.5zM281 391q0 41 28 68t69 27q44 0 71 -26.5t27 -68.5q0 -43 -27 -69t-71 -26q-42 0 -69.5 26.5t-27.5 68.5z" />
    <glyph glyph-name="Lslash" unicode="&#x141;" horiz-adv-x="585" 
d="M107 221l-67 -31v148l67 31v331h192v-240l131 61v-148l-131 -61v-142h262v-170h-454v221z" />
    <glyph glyph-name="lslash" unicode="&#x142;" horiz-adv-x="404" 
d="M94 273l-64 -29v148l64 29v329h188v-244l72 32v-148l-72 -32v-143q0 -50 47 -50h17v-165h-60q-91 0 -141.5 50.5t-50.5 139.5v83z" />
    <glyph glyph-name="Nacute" unicode="&#x143;" horiz-adv-x="742" 
d="M240 0h-185v700h215l226 -389h6v389h185v-700h-215l-226 389h-6v-389zM427 776h-123l44 160h173z" />
    <glyph glyph-name="nacute" unicode="&#x144;" horiz-adv-x="596" 
d="M243 0h-188v532h176v-50h9q19 27 55 45t79 18q84 0 135.5 -50.5t51.5 -131.5v-363h-188v296q0 34 -16.5 54t-47.5 20q-29 0 -47.5 -23t-18.5 -57v-290zM369 600h-123l44 160h173z" />
    <glyph glyph-name="uni0145" unicode="&#x145;" horiz-adv-x="742" 
d="M240 0h-185v700h215l226 -389h6v389h185v-700h-215l-226 389h-6v-389zM379 -229h-109l15 179h144z" />
    <glyph glyph-name="uni0146" unicode="&#x146;" horiz-adv-x="596" 
d="M243 0h-188v532h176v-50h9q19 27 55 45t79 18q84 0 135.5 -50.5t51.5 -131.5v-363h-188v296q0 34 -16.5 54t-47.5 20q-29 0 -47.5 -23t-18.5 -57v-290zM331 -229h-109l15 179h144z" />
    <glyph glyph-name="Ncaron" unicode="&#x147;" horiz-adv-x="742" 
d="M240 0h-185v700h215l226 -389h6v389h185v-700h-215l-226 389h-6v-389zM301 776l-110 160h116l64 -48h9l65 48h116l-110 -160h-150z" />
    <glyph glyph-name="ncaron" unicode="&#x148;" horiz-adv-x="596" 
d="M243 0h-188v532h176v-50h9q19 27 55 45t79 18q84 0 135.5 -50.5t51.5 -131.5v-363h-188v296q0 34 -16.5 54t-47.5 20q-29 0 -47.5 -23t-18.5 -57v-290zM243 600l-110 160h116l64 -48h9l65 48h116l-110 -160h-150z" />
    <glyph glyph-name="Eng" unicode="&#x14a;" horiz-adv-x="742" 
d="M240 0h-185v700h193l248 -342h6v342h185v-667q0 -124 -75 -193q-74 -70 -196 -70v174q40 0 59.5 25t19.5 64v19l-249 337h-6v-389z" />
    <glyph glyph-name="eng" unicode="&#x14b;" horiz-adv-x="596" 
d="M243 0h-188v532h176v-50h9q19 27 55 45t79 18q84 0 135.5 -50.5t51.5 -131.5v-368q0 -104 -57 -164q-55 -61 -150 -61h-69v165h26q62 0 62 61v300q0 34 -16.5 54t-47.5 20q-29 0 -47.5 -23t-18.5 -57v-290z" />
    <glyph glyph-name="Omacron" unicode="&#x14c;" horiz-adv-x="823" 
d="M35 350q0 155 108 259t269 104t268.5 -104.5t107.5 -258.5q3 -151 -107.5 -258.5t-268.5 -104.5q-162 0 -269.5 103.5t-107.5 259.5zM235 350q0 -78 49 -128q50 -50 128 -50q76 0 126 50q50 52 50 128q0 74 -50 126q-49 52 -126 52q-78 0 -128 -51q-49 -50 -49 -127z
M569 790h-297v127h297v-127z" />
    <glyph glyph-name="omacron" unicode="&#x14d;" 
d="M30 266q0 119 79.5 199t210.5 80q128 0 209 -80.5t81 -198.5q2 -117 -80.5 -198.5t-210.5 -80.5q-126 -1 -208.5 80.5t-80.5 198.5zM478 614h-297v127h297v-127zM248 345q-28 -31 -28 -79t28 -79q28 -30 71 -30t72 30q29 32 29 79t-29 78q-28 31 -72 31q-43 0 -71 -30z
" />
    <glyph glyph-name="Ohungarumlaut" unicode="&#x150;" horiz-adv-x="823" 
d="M35 350q0 155 108 259t269 104t268.5 -104.5t107.5 -258.5q3 -151 -107.5 -258.5t-268.5 -104.5q-162 0 -269.5 103.5t-107.5 259.5zM235 350q0 -78 49 -128q50 -50 128 -50q76 0 126 50q50 52 50 128q0 74 -50 126q-49 52 -126 52q-78 0 -128 -51q-49 -50 -49 -127z
M378 776h-118l31 160h168zM583 776h-118l31 160h168z" />
    <glyph glyph-name="ohungarumlaut" unicode="&#x151;" 
d="M30 266q0 119 79.5 199t210.5 80q128 0 209 -80.5t81 -198.5q2 -117 -80.5 -198.5t-210.5 -80.5q-126 -1 -208.5 80.5t-80.5 198.5zM287 600h-118l31 160h168zM248 345q-28 -31 -28 -79t28 -79q28 -30 71 -30t72 30q29 32 29 79t-29 78q-28 31 -72 31q-43 0 -71 -30z
M492 600h-118l31 160h168z" />
    <glyph glyph-name="OE" unicode="&#x152;" horiz-adv-x="1113" 
d="M35 350q0 155 108 259t269 104q52 0 104 -13h552v-162h-331q31 -52 42 -106h247v-162h-246q-14 -59 -43 -107h341v-163h-562q-53 -13 -104 -13q-162 0 -269.5 103.5t-107.5 259.5zM235 350q0 -78 49 -128q50 -50 128 -50q76 0 126 50q50 52 50 128q0 74 -50 126
q-49 52 -126 52q-78 0 -128 -51q-49 -50 -49 -127z" />
    <glyph glyph-name="oe" unicode="&#x153;" horiz-adv-x="1009" 
d="M30 266q0 119 79.5 199t210.5 80q118 0 198 -69q74 69 190 69q129 0 200 -81.5t71 -198.5v-49h-372q3 -39 31.5 -65t70.5 -26q75 0 99 51h165q-16 -89 -87.5 -139t-183.5 -50q-108 0 -184 69q-81 -69 -198 -69q-127 -1 -209.5 80.5t-80.5 198.5zM248 345q-28 -31 -28 -79
t28 -79q28 -30 71 -30t72 30q29 32 29 79t-29 78q-28 31 -72 31q-43 0 -71 -30zM608 333h201q-5 31 -33.5 52t-69.5 21q-37 0 -64.5 -22t-33.5 -51z" />
    <glyph glyph-name="Racute" unicode="&#x154;" horiz-adv-x="655" 
d="M247 0h-192v700h290q109 0 183 -68t74 -174q0 -65 -30 -118.5t-84 -86.5l142 -253h-211l-104 213h-68v-213zM347 776h-123l44 160h173zM247 538v-163h78q37 0 59.5 22.5t22.5 60.5t-22.5 59t-59.5 21h-78z" />
    <glyph glyph-name="racute" unicode="&#x155;" horiz-adv-x="462" 
d="M243 0h-188v532h176v-73h9q17 34 52.5 56t81.5 22h53v-175h-68q-53 0 -84.5 -35.5t-31.5 -98.5v-228zM316 600h-123l44 160h173z" />
    <glyph glyph-name="uni0156" unicode="&#x156;" horiz-adv-x="655" 
d="M247 0h-192v700h290q109 0 183 -68t74 -174q0 -65 -30 -118.5t-84 -86.5l142 -253h-211l-104 213h-68v-213zM341 -229h-109l15 179h144zM247 538v-163h78q37 0 59.5 22.5t22.5 60.5t-22.5 59t-59.5 21h-78z" />
    <glyph glyph-name="uni0157" unicode="&#x157;" horiz-adv-x="462" 
d="M243 0h-188v532h176v-73h9q17 34 52.5 56t81.5 22h53v-175h-68q-53 0 -84.5 -35.5t-31.5 -98.5v-228zM248 -229h-109l15 179h144z" />
    <glyph glyph-name="Rcaron" unicode="&#x158;" horiz-adv-x="655" 
d="M247 0h-192v700h290q109 0 183 -68t74 -174q0 -65 -30 -118.5t-84 -86.5l142 -253h-211l-104 213h-68v-213zM221 776l-110 160h116l64 -48h9l65 48h116l-110 -160h-150zM247 538v-163h78q37 0 59.5 22.5t22.5 60.5t-22.5 59t-59.5 21h-78z" />
    <glyph glyph-name="rcaron" unicode="&#x159;" horiz-adv-x="462" 
d="M243 0h-188v532h176v-73h9q17 34 52.5 56t81.5 22h53v-175h-68q-53 0 -84.5 -35.5t-31.5 -98.5v-228zM190 600l-110 160h116l64 -48h9l65 48h116l-110 -160h-150z" />
    <glyph glyph-name="Sacute" unicode="&#x15a;" horiz-adv-x="617" 
d="M20 236h182q3 -34 31 -54t76 -20q82 0 82 48q0 21 -26.5 33t-65.5 16.5t-85.5 17.5t-85.5 33.5t-65.5 67.5t-26.5 115q0 97 70 158q71 62 194 62t195 -60.5t78 -170.5h-190q-2 28 -24 44.5t-59 16.5q-34 0 -53.5 -12t-19.5 -32q0 -22 27 -34t67.5 -16t88 -16.5t88 -31.5
t67.5 -64t27 -112q0 -107 -76 -173q-77 -65 -212 -65t-210 67t-74 182zM351 776h-123l44 160h173z" />
    <glyph glyph-name="sacute" unicode="&#x15b;" horiz-adv-x="532" 
d="M25 167h169q2 -40 68 -40q64 0 64 31q0 17 -21.5 25t-54.5 9.5t-70.5 10t-70.5 22.5t-54.5 50.5t-21.5 91.5q0 72 60.5 125t168.5 53q104 0 166 -46t66 -131h-159q-7 42 -70 42q-64 0 -64 -34q0 -17 31.5 -22.5t76.5 -9.5t90 -16t76.5 -52t31.5 -108q0 -82 -64.5 -131.5
t-180.5 -49.5q-235 0 -237 180zM308 600h-123l44 160h173z" />
    <glyph glyph-name="Scedilla" unicode="&#x15e;" horiz-adv-x="617" 
d="M20 236h182q3 -34 31 -54t76 -20q82 0 82 48q0 21 -26.5 33t-65.5 16.5t-85.5 17.5t-85.5 33.5t-65.5 67.5t-26.5 115q0 97 70 158q71 62 194 62t195 -60.5t78 -170.5h-190q-2 28 -24 44.5t-59 16.5q-34 0 -53.5 -12t-19.5 -32q0 -22 27 -34t67.5 -16t88 -16.5t88 -31.5
t67.5 -64t27 -112q0 -105 -74 -171t-205 -67l-9 -31h6q10 9 33 9q37 0 62 -22.5t25 -61.5q0 -38 -29 -62t-77 -24q-46 0 -75 22.5t-30 57.5h83q1 -7 7 -12t14 -5q23 0 23 23q0 10 -6 16.5t-16 6.5q-13 0 -19 -11l-81 1l17 97q-107 16 -164.5 80.5t-56.5 164.5z" />
    <glyph glyph-name="scedilla" unicode="&#x15f;" horiz-adv-x="532" 
d="M25 167h169q2 -40 68 -40q64 0 64 31q0 17 -21.5 25t-54.5 9.5t-70.5 10t-70.5 22.5t-54.5 50.5t-21.5 91.5q0 72 60.5 125t168.5 53q104 0 166 -46t66 -131h-159q-7 42 -70 42q-64 0 -64 -34q0 -17 31.5 -22.5t76.5 -9.5t90 -16t76.5 -52t31.5 -108q0 -80 -61 -129
t-171 -52l-9 -31h6q10 9 33 9q38 0 62.5 -22.5t24.5 -61.5q0 -38 -29.5 -62t-76.5 -24q-46 0 -75 22.5t-30 57.5h83q1 -7 7 -12t14 -5q23 0 23 23q0 10 -6 16.5t-16 6.5q-14 0 -19 -11l-81 1l17 96q-176 22 -178 177z" />
    <glyph glyph-name="Scaron" unicode="&#x160;" horiz-adv-x="617" 
d="M20 236h182q3 -34 31 -54t76 -20q82 0 82 48q0 21 -26.5 33t-65.5 16.5t-85.5 17.5t-85.5 33.5t-65.5 67.5t-26.5 115q0 97 70 158q71 62 194 62t195 -60.5t78 -170.5h-190q-2 28 -24 44.5t-59 16.5q-34 0 -53.5 -12t-19.5 -32q0 -22 27 -34t67.5 -16t88 -16.5t88 -31.5
t67.5 -64t27 -112q0 -107 -76 -173q-77 -65 -212 -65t-210 67t-74 182zM225 776l-110 160h116l64 -48h9l65 48h116l-110 -160h-150z" />
    <glyph glyph-name="scaron" unicode="&#x161;" horiz-adv-x="532" 
d="M25 167h169q2 -40 68 -40q64 0 64 31q0 17 -21.5 25t-54.5 9.5t-70.5 10t-70.5 22.5t-54.5 50.5t-21.5 91.5q0 72 60.5 125t168.5 53q104 0 166 -46t66 -131h-159q-7 42 -70 42q-64 0 -64 -34q0 -17 31.5 -22.5t76.5 -9.5t90 -16t76.5 -52t31.5 -108q0 -82 -64.5 -131.5
t-180.5 -49.5q-235 0 -237 180zM182 600l-110 160h116l64 -48h9l65 48h116l-110 -160h-150z" />
    <glyph glyph-name="uni0162" unicode="&#x162;" horiz-adv-x="619" 
d="M213 535h-188v165h569v-165h-189v-535h-192v535zM329 -229h-109l15 179h144z" />
    <glyph glyph-name="uni0163" unicode="&#x163;" horiz-adv-x="451" 
d="M115 387h-80v143h39q24 0 37.5 15.5t13.5 40.5v85h178v-139h128v-145h-128v-181q0 -24 16.5 -38.5t45.5 -14.5h66v-153h-119q-92 0 -144.5 52t-52.5 143v192zM304 -229h-109l15 179h144z" />
    <glyph glyph-name="Tcaron" unicode="&#x164;" horiz-adv-x="619" 
d="M213 535h-188v165h569v-165h-189v-535h-192v535zM241 776l-110 160h116l64 -48h9l65 48h116l-110 -160h-150z" />
    <glyph glyph-name="tcaron" unicode="&#x165;" horiz-adv-x="438" 
d="M115 387h-80v143h39q24 0 37.5 15.5t13.5 40.5v85h178v-139h128v-145h-128v-181q0 -24 16.5 -38.5t45.5 -14.5h66v-153h-119q-92 0 -144.5 52t-52.5 143v192zM469 567h-125v213h149z" />
    <glyph glyph-name="Tbar" unicode="&#x166;" horiz-adv-x="569" 
d="M213 535h-188v165h569v-165h-189v-125h94v-130h-94v-280h-192v280h-144v130h144v125z" />
    <glyph glyph-name="tbar" unicode="&#x167;" horiz-adv-x="438" 
d="M115 387h-80v143h39q24 0 37.5 15.5t13.5 40.5v85h178v-139h128v-145h-128v-51h114v-128h-114v-2q0 -24 16.5 -38.5t45.5 -14.5h66v-153h-119q-92 0 -144.5 52t-52.5 143v13h-74v128h74v51z" />
    <glyph glyph-name="Umacron" unicode="&#x16a;" horiz-adv-x="690" 
d="M50 273v427h192v-426q0 -51 26.5 -78.5t76.5 -27.5q103 0 103 106v426h192v-427q0 -128 -82 -207t-213 -79t-213 79t-82 207zM493 790h-297v127h297v-127z" />
    <glyph glyph-name="umacron" unicode="&#x16b;" horiz-adv-x="606" 
d="M55 169v363h188v-296q0 -34 16.5 -54t47.5 -20q29 0 47.5 23t18.5 57v290h188v-532h-176v50h-9q-18 -28 -53.5 -45.5t-80.5 -17.5q-85 0 -136 50t-51 132zM467 614h-297v127h297v-127z" />
    <glyph glyph-name="Uring" unicode="&#x16e;" horiz-adv-x="690" 
d="M50 273v427h192v-426q0 -51 26.5 -78.5t76.5 -27.5q103 0 103 106v426h192v-427q0 -128 -82 -207t-213 -79t-213 79t-82 207zM225 843q0 46 31 75t79 29q50 0 81 -28.5t31 -74.5t-31.5 -76t-79.5 -30t-79.5 29.5t-31.5 75.5zM303 843q0 -21 16.5 -29t33 0.5t16.5 29.5
q0 14 -9 23t-25 9q-14 0 -23 -9.5t-9 -23.5z" />
    <glyph glyph-name="uring" unicode="&#x16f;" horiz-adv-x="606" 
d="M55 169v363h188v-296q0 -34 16.5 -54t47.5 -20q29 0 47.5 23t18.5 57v290h188v-532h-176v50h-9q-18 -28 -53.5 -45.5t-80.5 -17.5q-85 0 -136 50t-51 132zM199 667q0 46 31 75t79 29q50 0 81 -29t31 -74q0 -46 -31.5 -76t-79.5 -30t-79.5 30t-31.5 75zM277 667
q0 -20 16.5 -28.5t33 0t16.5 29.5q0 14 -9.5 23t-24.5 9q-14 0 -23 -9.5t-9 -23.5z" />
    <glyph glyph-name="Uhungarumlaut" unicode="&#x170;" horiz-adv-x="690" 
d="M50 273v427h192v-426q0 -51 26.5 -78.5t76.5 -27.5q103 0 103 106v426h192v-427q0 -128 -82 -207t-213 -79t-213 79t-82 207zM302 776h-118l31 160h168zM507 776h-118l31 160h168z" />
    <glyph glyph-name="uhungarumlaut" unicode="&#x171;" horiz-adv-x="606" 
d="M55 169v363h188v-296q0 -34 16.5 -54t47.5 -20q29 0 47.5 23t18.5 57v290h188v-532h-176v50h-9q-18 -28 -53.5 -45.5t-80.5 -17.5q-85 0 -136 50t-51 132zM276 600h-118l31 160h168zM481 600h-118l31 160h168z" />
    <glyph glyph-name="Uogonek" unicode="&#x172;" horiz-adv-x="690" 
d="M50 273v427h192v-426q0 -51 26.5 -78.5t76.5 -27.5q103 0 103 106v426h192v-427q0 -104 -56 -177.5t-152 -97.5l-32 -43q-15 -19 -15 -30q0 -23 27 -23h22v-101h-95q-41 0 -67 22t-26 59q0 41 36 86l18 22q-113 14 -182 90q-68 77 -68 193z" />
    <glyph glyph-name="uogonek" unicode="&#x173;" horiz-adv-x="606" 
d="M55 169v363h188v-296q0 -34 16.5 -54t47.5 -20q29 0 47.5 23t18.5 57v290h188v-532l-34 -45q-15 -19 -15 -30q0 -23 27 -23h22v-101h-95q-41 0 -67 22t-26 59q0 41 36 86l26 32h-50v50h-9q-18 -28 -53.5 -45.5t-80.5 -17.5q-85 0 -136 50t-51 132z" />
    <glyph glyph-name="Wcircumflex" unicode="&#x174;" horiz-adv-x="1025" 
d="M193 0l-183 700h210l84 -392h9l82 392h235l82 -392h9l84 392h210l-183 -700h-222l-93 422h-9l-93 -422h-222zM449 776h-116l110 160h150l110 -160h-116l-65 48h-9z" />
    <glyph glyph-name="wcircumflex" unicode="&#x175;" horiz-adv-x="881" 
d="M150 0l-130 532h194l45 -300h9l84 300h177l84 -300h9l45 300h194l-130 -532h-200l-87 279h-6l-88 -279h-200zM372 600h-116l110 160h150l110 -160h-116l-65 48h-9z" />
    <glyph glyph-name="Ycircumflex" unicode="&#x176;" horiz-adv-x="683" 
d="M248 272l-238 428h210l117 -235h9l117 235h210l-233 -426v-274h-192v272zM277 776h-116l110 160h150l110 -160h-116l-65 48h-9z" />
    <glyph glyph-name="ycircumflex" unicode="&#x177;" horiz-adv-x="604" 
d="M218 -2l-208 534h194l97 -290h9l87 290h197l-214 -589q-31 -88 -87 -130.5t-144 -42.5h-76v165h70q51 0 72 55zM232 600h-116l110 160h150l110 -160h-116l-65 48h-9z" />
    <glyph glyph-name="Ydieresis" unicode="&#x178;" horiz-adv-x="683" 
d="M248 272l-238 428h210l117 -235h9l117 235h210l-233 -426v-274h-192v272zM157 854q0 35 23.5 58.5t57.5 23.5q36 0 59 -23.5t23 -58.5q0 -36 -22.5 -59t-59.5 -23q-35 0 -58 23t-23 59zM450 936q34 0 57.5 -23.5t23.5 -58.5q0 -36 -23 -59t-58 -23q-37 0 -59.5 23
t-22.5 59t22.5 59t59.5 23z" />
    <glyph glyph-name="Zacute" unicode="&#x179;" horiz-adv-x="627" 
d="M587 0h-547v163l296 366v9h-284v162h533v-162l-297 -366v-9h299v-163zM360 776h-123l44 160h173z" />
    <glyph glyph-name="zacute" unicode="&#x17a;" horiz-adv-x="531" 
d="M491 0h-451v167l199 201v9h-191v155h438v-155l-199 -208v-9h204v-160zM327 600h-123l44 160h173z" />
    <glyph glyph-name="Zdotaccent" unicode="&#x17b;" horiz-adv-x="627" 
d="M587 0h-547v163l296 366v9h-284v162h533v-162l-297 -366v-9h299v-163zM208 847q0 42 28 69t73 27t73 -27t28 -69t-28 -69t-73 -27t-73 27t-28 69z" />
    <glyph glyph-name="zdotaccent" unicode="&#x17c;" horiz-adv-x="531" 
d="M491 0h-451v167l199 201v9h-191v155h438v-155l-199 -208v-9h204v-160zM175 671q0 42 28 69t73 27t73 -27t28 -69q0 -43 -27.5 -69.5t-73.5 -26.5t-73.5 26.5t-27.5 69.5z" />
    <glyph glyph-name="Zcaron" unicode="&#x17d;" horiz-adv-x="627" 
d="M587 0h-547v163l296 366v9h-284v162h533v-162l-297 -366v-9h299v-163zM234 776l-110 160h116l64 -48h9l65 48h116l-110 -160h-150z" />
    <glyph glyph-name="zcaron" unicode="&#x17e;" horiz-adv-x="531" 
d="M491 0h-451v167l199 201v9h-191v155h438v-155l-199 -208v-9h204v-160zM201 600l-110 160h116l64 -48h9l65 48h116l-110 -160h-150z" />
    <glyph glyph-name="florin" unicode="&#x192;" horiz-adv-x="552" 
d="M139 302h-93v145h120l22 121q16 86 78 134t156 48h95l-19 -156h-56q-64 0 -76 -63l-16 -84h115v-145h-142l-93 -495h-182z" />
    <glyph glyph-name="uni0218" unicode="&#x218;" horiz-adv-x="617" 
d="M20 236h182q3 -34 31 -54t76 -20q82 0 82 48q0 21 -26.5 33t-65.5 16.5t-85.5 17.5t-85.5 33.5t-65.5 67.5t-26.5 115q0 97 70 158q71 62 194 62t195 -60.5t78 -170.5h-190q-2 28 -24 44.5t-59 16.5q-34 0 -53.5 -12t-19.5 -32q0 -22 27 -34t67.5 -16t88 -16.5t88 -31.5
t67.5 -64t27 -112q0 -107 -76 -173q-77 -65 -212 -65t-210 67t-74 182zM331 -229h-109l15 179h144z" />
    <glyph glyph-name="uni0219" unicode="&#x219;" horiz-adv-x="532" 
d="M25 167h169q2 -40 68 -40q64 0 64 31q0 17 -21.5 25t-54.5 9.5t-70.5 10t-70.5 22.5t-54.5 50.5t-21.5 91.5q0 72 60.5 125t168.5 53q104 0 166 -46t66 -131h-159q-7 42 -70 42q-64 0 -64 -34q0 -17 31.5 -22.5t76.5 -9.5t90 -16t76.5 -52t31.5 -108q0 -82 -64.5 -131.5
t-180.5 -49.5q-235 0 -237 180zM293 -229h-109l15 179h144z" />
    <glyph glyph-name="uni021A" unicode="&#x21a;" horiz-adv-x="619" 
d="M213 535h-188v165h569v-165h-189v-535h-65l-12 -44h6q10 9 33 9q38 0 62.5 -22.5t24.5 -61.5q0 -38 -29 -62t-77 -24q-46 0 -75 22.5t-30 57.5h83q1 -7 7 -12t14 -5q23 0 23 23q0 10 -6 16.5t-16 6.5q-14 0 -19 -11l-81 1l19 106h-54v535z" />
    <glyph glyph-name="uni021B" unicode="&#x21b;" horiz-adv-x="451" 
d="M115 387h-80v143h39q24 0 37.5 15.5t13.5 40.5v85h178v-139h128v-145h-128v-181q0 -24 16.5 -38.5t45.5 -14.5h66v-153h-116l-12 -44h6q11 9 33 9q37 0 62 -22.5t25 -61.5q0 -38 -29 -62t-77 -24q-46 0 -75 22.5t-30 57.5h83q1 -7 7 -12t14 -5q23 0 23 23q0 10 -6 16.5
t-16 6.5q-13 0 -19 -11l-81 1l20 115q-61 17 -94.5 65.5t-33.5 120.5v192z" />
    <glyph glyph-name="uni0237" unicode="&#x237;" horiz-adv-x="321" 
d="M0 -230v165h36q62 0 62 61v536h188v-537q0 -104 -57 -164q-55 -61 -150 -61h-79z" />
    <glyph glyph-name="circumflex" unicode="&#x2c6;" horiz-adv-x="430" 
d="M146 600h-116l110 160h150l110 -160h-116l-65 48h-9z" />
    <glyph glyph-name="caron" unicode="&#x2c7;" horiz-adv-x="430" 
d="M140 600l-110 160h116l64 -48h9l65 48h116l-110 -160h-150z" />
    <glyph glyph-name="breve" unicode="&#x2d8;" horiz-adv-x="387" 
d="M40 754h105q0 -22 13 -34.5t36 -12.5q21 0 34.5 13t13.5 34h105q0 -75 -40 -116t-113 -41q-75 0 -114.5 40t-39.5 117z" />
    <glyph glyph-name="dotaccent" unicode="&#x2d9;" horiz-adv-x="292" 
d="M45 671q0 42 28 69t73 27t73 -27t28 -69q0 -43 -27.5 -69.5t-73.5 -26.5t-73.5 26.5t-27.5 69.5z" />
    <glyph glyph-name="ring" unicode="&#x2da;" horiz-adv-x="302" 
d="M40 667q0 46 31 75t79 29q50 0 81 -29t31 -74q0 -46 -31.5 -76t-79.5 -30t-79.5 30t-31.5 75zM118 667q0 -20 16.5 -28.5t33 0t16.5 29.5q0 14 -9 23t-25 9q-14 0 -23 -9t-9 -24z" />
    <glyph glyph-name="ogonek" unicode="&#x2db;" horiz-adv-x="268" 
d="M40 -118q0 41 36 86l26 32h126l-34 -45q-15 -19 -15 -30q0 -23 27 -23h22v-101h-95q-41 0 -67 22t-26 59z" />
    <glyph glyph-name="tilde" unicode="&#x2dc;" horiz-adv-x="449" 
d="M143 592h-108q0 78 33 118t89 40q32 0 69 -18t46 -18q30 0 34 36h108q0 -76 -33 -117.5t-88 -41.5q-32 0 -66 18t-50 18q-29 0 -34 -35z" />
    <glyph glyph-name="hungarumlaut" unicode="&#x2dd;" horiz-adv-x="487" 
d="M161 600h-118l31 160h168zM366 600h-118l31 160h168z" />
    <glyph glyph-name="uni0326" unicode="&#x326;" horiz-adv-x="0" 
d="M-81 -229h-109l15 179h144z" />
    <glyph glyph-name="Wgrave" unicode="&#x1e80;" horiz-adv-x="1025" 
d="M193 0l-183 700h210l84 -392h9l82 392h235l82 -392h9l84 392h210l-183 -700h-222l-93 422h-9l-93 -422h-222zM466 776l-94 160h173l44 -160h-123z" />
    <glyph glyph-name="wgrave" unicode="&#x1e81;" horiz-adv-x="881" 
d="M150 0l-130 532h194l45 -300h9l84 300h177l84 -300h9l45 300h194l-130 -532h-200l-87 279h-6l-88 -279h-200zM389 600l-94 160h173l44 -160h-123z" />
    <glyph glyph-name="Wacute" unicode="&#x1e82;" horiz-adv-x="1025" 
d="M193 0l-183 700h210l84 -392h9l82 392h235l82 -392h9l84 392h210l-183 -700h-222l-93 422h-9l-93 -422h-222zM568 776h-123l44 160h173z" />
    <glyph glyph-name="wacute" unicode="&#x1e83;" horiz-adv-x="881" 
d="M150 0l-130 532h194l45 -300h9l84 300h177l84 -300h9l45 300h194l-130 -532h-200l-87 279h-6l-88 -279h-200zM491 600h-123l44 160h173z" />
    <glyph glyph-name="Wdieresis" unicode="&#x1e84;" horiz-adv-x="1025" 
d="M193 0l-183 700h210l84 -392h9l82 392h235l82 -392h9l84 392h210l-183 -700h-222l-93 422h-9l-93 -422h-222zM329 854q0 35 23.5 58.5t57.5 23.5q36 0 59 -23t23 -59t-22.5 -59t-59.5 -23q-35 0 -58 23t-23 59zM622 936q34 0 57.5 -23.5t23.5 -58.5q0 -36 -23 -59
t-58 -23q-37 0 -59.5 23t-22.5 59t22.5 59t59.5 23z" />
    <glyph glyph-name="wdieresis" unicode="&#x1e85;" horiz-adv-x="881" 
d="M150 0l-130 532h194l45 -300h9l84 300h177l84 -300h9l45 300h194l-130 -532h-200l-87 279h-6l-88 -279h-200zM252 678q0 35 23.5 58.5t57.5 23.5q36 0 59 -23t23 -59t-22.5 -59t-59.5 -23q-35 0 -58 23.5t-23 58.5zM545 760q34 0 57.5 -23.5t23.5 -58.5t-23 -58.5
t-58 -23.5q-37 0 -59.5 23t-22.5 59t22.5 59t59.5 23z" />
    <glyph glyph-name="uni1E9E" unicode="&#x1e9e;" horiz-adv-x="705" 
d="M247 0h-192v484q0 92 66 154t179 62h315v-172l-103 -111v-10l8 -1q65 -8 112.5 -61t47.5 -137q2 -82 -59 -145.5t-150 -62.5h-188v163h150q20 0 33.5 13.5t13.5 32.5q0 20 -13.5 33.5t-33.5 13.5h-129v171l87 101v10h-61q-38 0 -60.5 -22t-22.5 -56v-460z" />
    <glyph glyph-name="Ygrave" unicode="&#x1ef2;" horiz-adv-x="683" 
d="M248 272l-238 428h210l117 -235h9l117 235h210l-233 -426v-274h-192v272zM294 776l-94 160h173l44 -160h-123z" />
    <glyph glyph-name="ygrave" unicode="&#x1ef3;" horiz-adv-x="604" 
d="M218 -2l-208 534h194l97 -290h9l87 290h197l-214 -589q-31 -88 -87 -130.5t-144 -42.5h-76v165h70q51 0 72 55zM249 600l-94 160h173l44 -160h-123z" />
    <glyph glyph-name="uni2000" unicode="&#x2000;" horiz-adv-x="473" 
 />
    <glyph glyph-name="uni2001" unicode="&#x2001;" horiz-adv-x="947" 
 />
    <glyph glyph-name="uni2002" unicode="&#x2002;" horiz-adv-x="473" 
 />
    <glyph glyph-name="uni2003" unicode="&#x2003;" horiz-adv-x="947" 
 />
    <glyph glyph-name="uni2004" unicode="&#x2004;" horiz-adv-x="315" 
 />
    <glyph glyph-name="uni2005" unicode="&#x2005;" horiz-adv-x="236" 
 />
    <glyph glyph-name="uni2006" unicode="&#x2006;" horiz-adv-x="158" 
 />
    <glyph glyph-name="uni2007" unicode="&#x2007;" horiz-adv-x="158" 
 />
    <glyph glyph-name="uni2008" unicode="&#x2008;" horiz-adv-x="118" 
 />
    <glyph glyph-name="uni2009" unicode="&#x2009;" horiz-adv-x="189" 
 />
    <glyph glyph-name="uni200A" unicode="&#x200a;" horiz-adv-x="52" 
 />
    <glyph glyph-name="uni2010" unicode="&#x2010;" horiz-adv-x="379" 
d="M339 229h-299v156h299v-156z" />
    <glyph glyph-name="uni2011" unicode="&#x2011;" horiz-adv-x="379" 
d="M339 229h-299v156h299v-156z" />
    <glyph glyph-name="figuredash" unicode="&#x2012;" horiz-adv-x="379" 
d="M339 229h-299v156h299v-156z" />
    <glyph glyph-name="endash" unicode="&#x2013;" horiz-adv-x="645" 
d="M605 230h-565v156h565v-156z" />
    <glyph glyph-name="emdash" unicode="&#x2014;" horiz-adv-x="891" 
d="M851 229h-811v156h811v-156z" />
    <glyph glyph-name="quoteleft" unicode="&#x2018;" horiz-adv-x="288" 
d="M224 422h-179l64 278h134z" />
    <glyph glyph-name="quoteright" unicode="&#x2019;" horiz-adv-x="288" 
d="M179 422h-134l19 278h179z" />
    <glyph glyph-name="quotesinglbase" unicode="&#x201a;" horiz-adv-x="276" 
d="M169 -131h-134l19 278h179z" />
    <glyph glyph-name="quotedblleft" unicode="&#x201c;" horiz-adv-x="528" 
d="M224 422h-179l64 278h124zM464 422h-179l64 278h134z" />
    <glyph glyph-name="quotedblright" unicode="&#x201d;" horiz-adv-x="528" 
d="M179 422h-134l19 278h179zM419 422h-124l9 278h179z" />
    <glyph glyph-name="quotedblbase" unicode="&#x201e;" horiz-adv-x="528" 
d="M179 -131h-134l19 278h179zM419 -131h-124l9 278h179z" />
    <glyph glyph-name="dagger" unicode="&#x2020;" horiz-adv-x="481" 
d="M157 375h-127v150h127v175h165v-175h129v-150h-129v-375h-165v375z" />
    <glyph glyph-name="daggerdbl" unicode="&#x2021;" horiz-adv-x="481" 
d="M157 135h-127v150h127v130h-127v150h127v135h165v-135h129v-150h-129v-130h129v-150h-129v-135h-165v135z" />
    <glyph glyph-name="bullet" unicode="&#x2022;" horiz-adv-x="464" 
d="M109 188q-49 49 -49 122t49 122q50 50 123 50t123 -50q49 -49 49 -122t-49 -122q-50 -50 -123 -50t-123 50z" />
    <glyph glyph-name="uni202F" unicode="&#x202f;" horiz-adv-x="189" 
 />
    <glyph glyph-name="perthousand" unicode="&#x2030;" horiz-adv-x="1188" 
d="M60 455v126q0 59 40.5 95.5t103.5 36.5q64 0 104 -36.5t40 -95.5v-126q0 -59 -40 -95.5t-104 -36.5q-63 0 -103.5 36.5t-40.5 95.5zM267 26l-97 71l411 587l97 -71zM173 578v-120q0 -34 31 -34q32 0 32 34v120q0 34 -32 34q-31 0 -31 -34zM500 119v126q0 59 40.5 95.5
t103.5 36.5q64 0 104 -36.5t40 -95.5v-126q0 -59 -40 -95.5t-104 -36.5q-63 0 -103.5 36.5t-40.5 95.5zM613 242v-120q0 -34 31 -34q32 0 32 34v120q0 34 -32 34q-31 0 -31 -34zM840 119v126q0 59 40 95.5t103 36.5q64 0 104.5 -36.5t40.5 -95.5v-126q0 -59 -40.5 -95.5
t-104.5 -36.5q-63 0 -103 36.5t-40 95.5zM953 242v-120q0 -34 31 -34q32 0 32 34v120q0 34 -32 34q-31 0 -31 -34z" />
    <glyph glyph-name="guilsinglleft" unicode="&#x2039;" horiz-adv-x="331" 
d="M276 78l-221 177v74l221 177v-155l-74 -56v-6l74 -56v-155z" />
    <glyph glyph-name="guilsinglright" unicode="&#x203a;" horiz-adv-x="331" 
d="M276 255l-221 -177v155l74 56v6l-74 56v155l221 -177v-74z" />
    <glyph glyph-name="fraction" unicode="&#x2044;" horiz-adv-x="529" 
d="M145 -41h-155l394 782h155z" />
    <glyph glyph-name="uni205F" unicode="&#x205f;" horiz-adv-x="236" 
 />
    <glyph glyph-name="Euro" unicode="&#x20ac;" horiz-adv-x="622" 
d="M60 242h-40v95h40v24h-40v95h40v19q0 109 75.5 173.5t177.5 64.5q113 0 183 -69q71 -68 71 -181h-190q0 33 -17 51.5t-47 18.5q-28 0 -45.5 -18.5t-17.5 -51.5v-7h90v-95h-90v-24h90v-95h-90v-5q0 -32 17.5 -51t45.5 -19q30 0 47 18t17 51h190q0 -113 -71 -181t-183 -68
q-102 0 -177.5 64.5t-75.5 173.5v17z" />
    <glyph glyph-name="uni2116" unicode="&#x2116;" horiz-adv-x="1168" 
d="M240 0h-185v700h215l226 -384h6v384h185v-700h-215l-226 384h-6v-384zM749 533q0 76 52 128t134 52q81 0 133 -52q53 -53 53 -128q0 -74 -53 -127q-52 -51 -133 -51t-134 51q-52 52 -52 127zM1107 162h-345v150h345v-150zM887 533q0 -18 13.5 -31.5t34.5 -13.5t34.5 13.5
t13.5 31.5q0 19 -13.5 33t-34.5 14t-34.5 -14t-13.5 -33z" />
    <glyph glyph-name="trademark" unicode="&#x2122;" horiz-adv-x="889" 
d="M133 589h-88v111h306v-111h-88v-249h-130v249zM530 340h-126v360h142l75 -160h6l75 160h142v-360h-126v138h-6l-64 -138h-48l-64 138h-6v-138z" />
    <glyph glyph-name="arrowleft" unicode="&#x2190;" horiz-adv-x="814" 
d="M322 -14l-308 305v122l308 308l115 -114l-145 -145v-6h472v-204h-472v-6l145 -145z" />
    <glyph glyph-name="arrowup" unicode="&#x2191;" horiz-adv-x="792" 
d="M143 327l-114 115l308 308h122l305 -308l-115 -115l-145 145h-6v-472h-204v472h-6z" />
    <glyph glyph-name="arrowright" unicode="&#x2192;" horiz-adv-x="814" 
d="M522 252h-472v204h472v6l-145 145l115 114l308 -308v-122l-308 -305l-115 115l145 145v6z" />
    <glyph glyph-name="arrowdown" unicode="&#x2193;" horiz-adv-x="792" 
d="M337 -50l-308 308l114 115l145 -145h6v472h204v-472h6l145 145l115 -115l-305 -308h-122z" />
    <glyph glyph-name="uni2196" unicode="&#x2196;" horiz-adv-x="678" 
d="M5 206l-2 434l86 86h436l1 -162h-205l-5 -4l334 -334l-144 -144l-334 334l-4 -5v-205h-163z" />
    <glyph glyph-name="uni2197" unicode="&#x2197;" horiz-adv-x="678" 
d="M172 82l-144 144l334 334l-5 4h-205l1 162h436l86 -86l-2 -434h-163v205l-4 5z" />
    <glyph glyph-name="uni2198" unicode="&#x2198;" horiz-adv-x="677" 
d="M345 116l-334 334l144 144l334 -334l4 5v205l162 -1v-436l-86 -86l-434 2v163h205z" />
    <glyph glyph-name="uni2199" unicode="&#x2199;" horiz-adv-x="677" 
d="M108 -53l-86 86v436l162 1v-205l4 -5l334 334l144 -144l-334 -334l5 -4h205v-163z" />
    <glyph glyph-name="minus" unicode="&#x2212;" horiz-adv-x="510" 
d="M505 239h-500v144h500v-144z" />
    <glyph glyph-name="uni25FC" unicode="&#x25fc;" horiz-adv-x="530" 
d="M530 0h-530v530h530v-530z" />
    <glyph glyph-name="_1" horiz-adv-x="0" 
 />
    <glyph glyph-name="CR" horiz-adv-x="333" 
 />
    <glyph glyph-name="i.loclTRK" horiz-adv-x="278" 
d="M47 671q0 42 28 69t73 27t73 -27t28 -69q0 -43 -27.5 -69.5t-73.5 -26.5t-73.5 26.5t-27.5 69.5zM243 0h-188v532h188v-532z" />
    <glyph glyph-name="zero.tf" horiz-adv-x="600" 
d="M47 225v250q0 109 75 173.5t178 64.5q104 0 179 -64t75 -174v-250q0 -109 -76 -173.5t-178 -64.5q-103 0 -178 64.5t-75 173.5zM237 463v-226q0 -33 17 -51.5t46 -18.5q30 0 47 18.5t17 51.5v226q0 33 -17 51.5t-47 18.5q-28 0 -45.5 -18.5t-17.5 -51.5z" />
    <glyph glyph-name="one.tf" horiz-adv-x="600" 
d="M307 451h-160v139q99 0 137 27t38 83h175v-700h-190v451z" />
    <glyph glyph-name="two.tf" horiz-adv-x="600" 
d="M227 475h-176q0 100 64.5 169t178.5 69q118 0 185 -61q69 -62 69 -157q0 -71 -33 -119.5t-102 -88.5l-148 -85q-23 -14 -23 -33v-4h302v-165h-492v138q0 70 30 119t100 91l131 80q45 28 45 59q0 22 -18 36.5t-47 14.5t-47.5 -18.5t-18.5 -44.5z" />
    <glyph glyph-name="three.tf" horiz-adv-x="600" 
d="M52 226h176q1 -25 18.5 -41.5t46.5 -16.5t47.5 17.5t18.5 41.5q0 23 -18.5 40.5t-50.5 17.5h-106v141l121 98v7h-242v170h472v-163l-127 -106v-6q64 -18 102.5 -72.5t38.5 -127.5q0 -98 -69.5 -168t-184.5 -70t-179 69t-64 169z" />
    <glyph glyph-name="four.tf" horiz-adv-x="600" 
d="M326 99h-305v162l153 439h195l-144 -425v-6h101v138h190v-138h62v-170h-62v-99h-190v99z" />
    <glyph glyph-name="five.tf" horiz-adv-x="600" 
d="M51 226h176q0 -24 18 -41t47 -17q31 0 48.5 16.5t17.5 41.5t-18 43t-48 18q-34 0 -52 -22h-182l30 436h419v-170h-256l-7 -105h4q38 24 87 24q90 1 152.5 -67t60.5 -157q0 -102 -68.5 -170t-185.5 -68q-114 0 -178.5 69t-64.5 169z" />
    <glyph glyph-name="six.tf" horiz-adv-x="600" 
d="M41 233q0 72 36 138l182 329h222l-150 -241l4 -4q10 2 18 2q29 0 62 -11.5t66.5 -36t55.5 -70.5t22 -106q0 -109 -78 -177.5t-182 -68.5t-181 68t-77 178zM232 233q0 -28 19.5 -47t47.5 -19q29 0 48.5 19t19.5 47t-20 47.5t-48 19.5t-47.5 -19.5t-19.5 -47.5z" />
    <glyph glyph-name="seven.tf" horiz-adv-x="600" 
d="M331 531h-272v170h482v-163l-235 -538h-211l236 524v7z" />
    <glyph glyph-name="eight.tf" horiz-adv-x="600" 
d="M36 201q0 111 94 169v9q-72 53 -72 144q0 85 67 137q68 53 175 53q111 0 176 -52q67 -52 67 -138q0 -92 -73 -144v-9q95 -59 95 -169q0 -95 -74 -154t-192 -59q-117 0 -191 59q-72 58 -72 154zM226 218q0 -27 20.5 -45t53.5 -18t53.5 18t20.5 45q0 28 -20.5 46.5
t-53.5 18.5t-53.5 -18.5t-20.5 -46.5zM239 495q0 -24 17.5 -40.5t43.5 -16.5t43.5 16.5t17.5 40.5t-17.5 40t-43.5 16q-27 0 -44 -16t-17 -40z" />
    <glyph glyph-name="nine.tf" horiz-adv-x="600" 
d="M41 467q0 108 78 177t182 69q101 2 180 -68.5t78 -177.5q0 -72 -36 -138l-182 -329h-222l150 241l-4 4q-10 -2 -18 -2q-22 0 -48 6.5t-54.5 23.5t-51 41t-37.5 64t-15 89zM301 400q28 0 47.5 19.5t19.5 47.5q3 43 -42 60.5t-74 -13.5q-31 -28 -13 -72.5t62 -41.5z" />
    <glyph glyph-name="caron.Slovak" horiz-adv-x="249" 
d="M175 487h-125v213h149z" />
    <glyph glyph-name="NULL" horiz-adv-x="0" 
 />
    </font>
</defs>
</svg>
