<?xml version="1.0" standalone="no"?>
<!DOCTYPE svg PUBLIC "-//W3C//DTD SVG 1.1//EN" "http://www.w3.org/Graphics/SVG/1.1/DTD/svg11.dtd" >
<svg xmlns="http://www.w3.org/2000/svg" xmlns:xlink="http://www.w3.org/1999/xlink" version="1.1">
<metadata>
Created by FontForge 20170731 at Fri Sep  7 20:32:43 2018
 By Aleksey,,,
Copyright (c) 2018 by atipo. All rights reserved. |DCNT
</metadata>
<defs>
<font id="Silka-LightItalic" horiz-adv-x="673" >
  <font-face 
    font-family="Silka Light"
    font-weight="300"
    font-style="italic"
    font-stretch="normal"
    units-per-em="1000"
    panose-1="0 0 4 0 0 0 0 0 0 0"
    ascent="750"
    descent="-250"
    x-height="520"
    cap-height="700"
    bbox="-178 -243 1195 943"
    underline-thickness="50"
    underline-position="-399"
    unicode-range="U+000D-25FC"
  />
<missing-glyph horiz-adv-x="568" 
d="M534 0h-500l130 700h500zM196 605l-94 -510l217 255zM341 305l-218 -255h340zM574 650h-340l123 -255zM596 605l-217 -255l123 -255z" />
    <glyph glyph-name="ellipsis" unicode="&#x2e;&#x2e;&#x2e;" horiz-adv-x="736" 
d="M94 26q0 21 17.5 38.5t39.5 17.5q17 0 29 -11t12 -28q0 -22 -18 -39t-40 -17q-17 0 -28.5 11t-11.5 28zM326 26q0 21 17.5 38.5t39.5 17.5q17 0 29 -11t12 -28q0 -22 -18 -39t-40 -17q-17 0 -28.5 11t-11.5 28zM557 26q0 21 18 38.5t40 17.5q18 0 29 -11t11 -28
q0 -22 -17.5 -39t-39.5 -17q-17 0 -29 11t-12 28z" />
    <glyph glyph-name="degree.alt" unicode="&#xb0;C" horiz-adv-x="987" 
d="M165 538q0 70 51 123q51 52 125 52q56 0 89.5 -32.5t33.5 -83.5q0 -72 -51 -123q-49 -51 -125 -51q-56 0 -89.5 31.5t-33.5 83.5zM215 546q0 -34 22.5 -56t58.5 -22q50 0 84 36q35 37 35 85q0 36 -22 57t-60 21q-49 0 -83 -36q-35 -37 -35 -85zM484 206l53 288
q19 101 92 161t167 58q97 0 148 -64q52 -63 33 -162h-61q14 74 -22 120.5t-106 46.5q-73 0 -125 -45t-66 -120l-51 -278q-14 -74 22.5 -119.5t106.5 -45.5q74 0 125.5 45.5t65.5 121.5h60q-19 -107 -88.5 -166.5t-170.5 -59.5q-91 0 -146 59.5t-37 159.5z" />
    <glyph glyph-name=".notdef" horiz-adv-x="568" 
d="M534 0h-500l130 700h500zM196 605l-94 -510l217 255zM341 305l-218 -255h340zM574 650h-340l123 -255zM596 605l-217 -255l123 -255z" />
    <glyph glyph-name=".null" horiz-adv-x="0" 
 />
    <glyph glyph-name="nonmarkingreturn" horiz-adv-x="333" 
 />
    <glyph glyph-name="CR.001" unicode="&#xd;" horiz-adv-x="0" 
 />
    <glyph glyph-name="space" unicode=" " horiz-adv-x="289" 
 />
    <glyph glyph-name="exclam" unicode="!" horiz-adv-x="312" 
d="M114 26q0 21 17.5 38.5t39.5 17.5q17 0 29 -11t12 -28q0 -22 -18 -39t-40 -17q-17 0 -28.5 11t-11.5 28zM207 170h-38l35 254l51 276h63l-51 -276z" />
    <glyph glyph-name="quotedbl" unicode="&#x22;" horiz-adv-x="356" 
d="M229 502h-44l31 198h56zM358 502h-46l32 198h57z" />
    <glyph glyph-name="numbersign" unicode="#" horiz-adv-x="571" 
d="M186 218h-83l9 49h91l55 165h-85l9 49h92l74 219h54l-74 -219h132l74 219h54l-74 -219h83l-9 -49h-90l-56 -165h86l-10 -49h-93l-73 -218h-54l73 218h-131l-73 -218h-54zM312 432l-55 -165h131l56 165h-132z" />
    <glyph glyph-name="dollar" unicode="$" horiz-adv-x="591" 
d="M89 205h61q-11 -67 23 -109.5t105 -49.5l55 295q-55 17 -93 37q-71 41 -71 122q0 89 64 147q63 57 168 65l10 54h51l-10 -54q83 -8 132 -57.5t32 -141.5h-63q11 61 -19 98.5t-92 44.5l-50 -269q64 -19 102 -40q74 -38 79 -130q0 -102 -70 -163q-69 -61 -185 -66l-13 -73
h-51l14 73q-95 8 -145 68q-50 61 -34 149zM233 506q0 -39 27 -62t84 -42l47 254q-71 -8 -114.5 -49.5t-43.5 -100.5zM381 326l-52 -281q82 5 131.5 49.5t49.5 113.5q0 50 -40 78q-29 22 -89 40z" />
    <glyph glyph-name="percent" unicode="%" horiz-adv-x="807" 
d="M156 454l24 128q11 61 51.5 96t102.5 35q58 0 89 -37t20 -94l-24 -128q-12 -61 -52.5 -96t-100.5 -35q-57 0 -88.5 37t-21.5 94zM214 26l-40 32l549 616l40 -32zM232 581l-23 -126q-6 -35 12 -58t52 -23q36 0 62 22.5t33 58.5l23 126q6 34 -12.5 57.5t-52.5 23.5
q-36 0 -61.5 -22.5t-32.5 -58.5zM493 118l24 128q11 61 51.5 96t102.5 35q58 0 89 -37t20 -94l-24 -128q-12 -61 -52.5 -96t-100.5 -35q-57 0 -88.5 37t-21.5 94zM569 245l-23 -126q-6 -35 12 -58t52 -23q36 0 62 22.5t33 58.5l23 126q6 34 -12.5 57.5t-52.5 23.5
q-36 0 -61.5 -22.5t-32.5 -58.5z" />
    <glyph glyph-name="ampersand" unicode="&#x26;" horiz-adv-x="669" 
d="M88 163q0 129 171 204l12 5l-1 1q-54 73 -54 142q0 84 58 141t151 57q69 0 111 -39q42 -38 42 -94q0 -75 -45 -123q-42 -42 -104 -70l-71 -32l154 -213q98 106 92 250h58q5 -79 -26 -158t-91 -139q18 -24 30.5 -32.5t30.5 -8.5h32l-10 -54h-38q-31 0 -50 12.5t-40 44.5
q-97 -70 -215 -70q-85 0 -141 48q-56 50 -56 128zM149 163q0 -52 40.5 -86.5t101.5 -34.5q97 0 176 60l-165 227l-18 -8q-135 -61 -135 -158zM277 518q0 -52 50 -120l77 35q113 51 113 139q0 37 -27 62.5t-71 25.5q-60 0 -101 -41t-41 -101z" />
    <glyph glyph-name="quotesingle" unicode="'" horiz-adv-x="228" 
d="M229 502h-44l31 198h56z" />
    <glyph glyph-name="parenleft" unicode="(" horiz-adv-x="453" 
d="M99 215q0 169 98.5 317t268.5 231l26 -46q-150 -76 -241 -210q-92 -134 -92 -285q0 -104 48.5 -186.5t133.5 -132.5l-35 -46q-98 58 -152.5 149.5t-54.5 208.5z" />
    <glyph glyph-name="parenright" unicode=")" horiz-adv-x="453" 
d="M101 -143l-26 46q150 76 242 210q91 133 91 285q0 103 -48.5 185t-133.5 134l36 46q96 -56 151.5 -149t55.5 -209q0 -171 -98 -318.5t-270 -229.5z" />
    <glyph glyph-name="asterisk" unicode="*" horiz-adv-x="500" 
d="M309 517l-136 -9l8 42l131 -9l5 6l-85 88l35 30l69 -102l7 3l16 134h41l-34 -134l7 -3l106 102l25 -30l-119 -88l2 -6l136 9l-8 -42l-132 9l-5 -6l87 -88l-36 -30l-69 102l-7 -3l-16 -134h-42l34 134l-6 3l-106 -102l-24 30l117 88z" />
    <glyph glyph-name="plus" unicode="+" horiz-adv-x="480" 
d="M266 286h-208l10 51h207l42 221h54l-41 -221h208l-10 -51h-207l-42 -222h-54z" />
    <glyph glyph-name="comma" unicode="," horiz-adv-x="266" 
d="M112 -131h-44l55 207h71z" />
    <glyph glyph-name="hyphen" unicode="-" horiz-adv-x="395" 
d="M375 271h-255l11 56h255z" />
    <glyph glyph-name="period" unicode="." horiz-adv-x="273" 
d="M94 26q0 21 17.5 38.5t40.5 17.5q17 0 28.5 -11t11.5 -28q0 -22 -18 -39t-39 -17q-18 0 -29.5 11t-11.5 28z" />
    <glyph glyph-name="slash" unicode="/" horiz-adv-x="485" 
d="M99 -108h-59l462 858h59z" />
    <glyph glyph-name="zero" unicode="0" horiz-adv-x="622" 
d="M129 206l53 288q19 103 91 161q71 58 168 58q90 0 145 -60t37 -159l-53 -288q-20 -103 -91 -161t-168 -58q-90 0 -145 60t-37 159zM242 489l-51 -278q-14 -74 22.5 -119.5t106.5 -45.5q74 0 125 44.5t65 120.5l51 278q14 74 -23 119q-37 46 -106 46q-73 0 -124.5 -45
t-65.5 -120z" />
    <glyph glyph-name="one" unicode="1" horiz-adv-x="448" 
d="M361 546h-167l9 50q103 0 141 21t50 83h57l-130 -700h-61z" />
    <glyph glyph-name="two" unicode="2" horiz-adv-x="586" 
d="M513 0h-429l15 84q12 65 51.5 112t117.5 90l152 83q122 68 122 173q0 51 -33.5 82t-93.5 31q-71 0 -119.5 -41t-58.5 -103h-60q13 84 78 143t169 59q84 0 133 -48t49 -118q0 -137 -162 -226l-148 -83q-65 -37 -95.5 -71.5t-39.5 -82.5l-5 -28h368z" />
    <glyph glyph-name="three" unicode="3" horiz-adv-x="610" 
d="M118 190h58q-10 -57 26 -101q36 -43 108 -43q84 0 141 57q58 58 58 141q0 59 -39.5 94.5t-104.5 35.5h-62l10 56l227 208l1 6h-323l11 56h404l-11 -60l-229 -206l-1 -6q81 -1 132 -52q50 -50 50 -123q0 -113 -76.5 -189t-197.5 -76q-98 0 -147 63.5t-35 138.5z" />
    <glyph glyph-name="four" unicode="4" horiz-adv-x="608" 
d="M417 177h-316l9 51l310 472h68l-304 -462l-1 -6h244l32 169h60l-32 -169h90l-10 -55h-90l-33 -177h-60z" />
    <glyph glyph-name="five" unicode="5" horiz-adv-x="608" 
d="M111 179h58q-6 -63 32 -99t107 -36q79 -2 142.5 63.5t61.5 147.5q0 61 -39.5 99t-106.5 38q-62 0 -106 -31q-33 -25 -49 -44h-60l94 383h371l-10 -56h-316l-64 -255h6q4 6 25 20q53 39 128 39q85 0 138 -53q52 -52 52 -132q3 -109 -80.5 -193.5t-194.5 -82.5
q-92 0 -145 53t-44 139z" />
    <glyph glyph-name="six" unicode="6" horiz-adv-x="631" 
d="M119 177q0 90 63 174l260 349h71l-211 -275l3 -4q46 26 96 26q87 0 139 -51q53 -51 53 -132q3 -112 -80.5 -195.5t-198.5 -81.5q-84 0 -140 54q-55 54 -55 136zM182 182q0 -61 38.5 -99t102.5 -38q81 -2 144.5 62.5t61.5 146.5q0 61 -38.5 99t-102.5 38q-82 0 -144 -63
t-62 -146z" />
    <glyph glyph-name="seven" unicode="7" horiz-adv-x="554" 
d="M242 0h-68l369 638l1 6h-358l10 56h425l-10 -56z" />
    <glyph glyph-name="eight" unicode="8" horiz-adv-x="628" 
d="M114 157q0 72 47 130.5t123 83.5l2 6q-33 15 -55.5 49t-22.5 75q0 88 68 150t170 62q76 0 123 -43q48 -44 48 -110q0 -60 -36.5 -110t-96.5 -73l-2 -6q40 -13 71 -50t31 -93q0 -101 -77 -172q-77 -69 -196 -69q-87 0 -143 47q-54 48 -54 123zM179 164q0 -54 38 -87.5
t104 -33.5q83 0 142 51q58 52 58 128q0 56 -39.5 88t-104.5 32q-83 0 -141 -52q-57 -51 -57 -126zM270 503q0 -47 33.5 -75.5t84.5 -28.5q69 0 117 45q48 46 48 109q0 46 -31.5 74.5t-85.5 28.5q-71 0 -119 -45q-47 -45 -47 -108z" />
    <glyph glyph-name="nine" unicode="9" horiz-adv-x="631" 
d="M168 436q-3 112 80.5 195.5t198.5 81.5q85 0 140 -55q55 -54 55 -135q0 -91 -64 -174l-260 -349h-70l211 275l-4 4q-43 -26 -95 -26q-87 0 -139.5 51t-52.5 132zM232 446q0 -61 38.5 -99t102.5 -38q82 0 144 63t62 146q0 60 -39 98.5t-102 38.5q-84 0 -145 -63
q-61 -61 -61 -146z" />
    <glyph glyph-name="colon" unicode=":" horiz-adv-x="273" 
d="M94 26q0 21 17.5 38.5t40.5 17.5q17 0 28.5 -11t11.5 -28q0 -22 -18 -39t-39 -17q-18 0 -29.5 11t-11.5 28zM169 431q0 22 18 39t40 17q18 0 29 -11t11 -28q0 -21 -18 -39t-40 -18q-17 0 -28.5 12t-11.5 28z" />
    <glyph glyph-name="semicolon" unicode=";" horiz-adv-x="273" 
d="M112 -131h-44l55 207h71zM169 431q0 22 18.5 39t40.5 17q17 0 28 -11t11 -28q0 -21 -18 -39t-39 -18q-18 0 -29.5 12t-11.5 28z" />
    <glyph glyph-name="less" unicode="&#x3c;" horiz-adv-x="553" 
d="M494 98l-364 184l11 60l432 184l-10 -56l-370 -154l-1 -6l312 -157z" />
    <glyph glyph-name="equal" unicode="=" horiz-adv-x="480" 
d="M511 194h-470l9 51h470zM543 370h-470l9 50h470z" />
    <glyph glyph-name="greater" unicode="&#x3e;" horiz-adv-x="557" 
d="M528 282l-432 -184l11 56l370 156l1 6l-313 154l10 56l364 -184z" />
    <glyph glyph-name="question" unicode="?" horiz-adv-x="543" 
d="M225 518h-57q12 81 73.5 138t160.5 57q76 0 123 -44t47 -108q0 -61 -34 -106q-22 -29 -43 -46q-19 -16 -41 -31l-69 -50q-49 -34 -57 -83l-13 -67h-59l12 67q8 41 25.5 66t57.5 55l71 52q26 18 44 38q43 43 43 102q0 46 -31 73t-85 27q-68 0 -113.5 -39.5t-54.5 -100.5z
M212 26q0 21 17.5 38.5t39.5 17.5q17 0 28 -11t11 -28q0 -22 -17 -39t-40 -17q-17 0 -28 11t-11 28z" />
    <glyph glyph-name="at" unicode="@" horiz-adv-x="920" 
d="M106 181q0 97 38.5 188.5t104.5 159.5q67 68 159 107.5t189 39.5q153 0 246.5 -87.5t93.5 -218.5q1 -125 -60.5 -218t-143.5 -90q-45 0 -69 23.5t-23 65.5h-6q-21 -38 -65 -63.5t-97 -25.5q-70 0 -112.5 42t-42.5 111q0 99 65.5 170.5t158.5 71.5q49 0 81 -22t41 -55h6
l12 70h52l-48 -257q-14 -85 60 -85q58 0 99.5 75.5t41.5 178.5q0 118 -79 193t-219 75q-83 0 -162.5 -35.5t-138.5 -96.5t-93.5 -143.5t-34.5 -167.5q0 -128 82 -206q82 -79 225 -79h167l-9 -47h-167q-158 0 -256 90q-96 90 -96 236zM374 223q0 -52 30 -83t81 -31
q69 0 118 55q50 56 50 132q0 51 -30.5 82t-81.5 31q-69 0 -118 -55q-49 -53 -49 -131z" />
    <glyph glyph-name="A" unicode="A" 
d="M96 0h-70l402 700h76l143 -700h-65l-35 176h-352zM450 629l-225 -396h310l-79 396h-6z" />
    <glyph glyph-name="B" unicode="B" horiz-adv-x="618" 
d="M352 0h-242l130 700h224q80 0 127 -40.5t47 -106.5q0 -62 -34.5 -111t-92.5 -73l-2 -6q39 -13 65.5 -47.5t26.5 -83.5q0 -98 -69 -166q-68 -66 -180 -66zM233 337l-53 -283h168q84 0 137 48q53 50 53 124q0 52 -38.5 81.5t-100.5 29.5h-166zM290 645l-47 -256h166
q65 0 115 44t50 110q0 46 -32.5 74t-87.5 28h-164z" />
    <glyph glyph-name="C" unicode="C" horiz-adv-x="808" 
d="M111 277q0 85 33 165t91 140q58 61 138.5 96t168.5 35q117 0 194 -65t92 -172h-66q-14 84 -75.5 131.5t-154.5 47.5q-143 0 -250 -111t-107 -257q0 -108 67 -175t177 -67q96 0 174 47.5t120 131.5h69q-49 -112 -146 -174.5t-228 -62.5q-134 0 -216 81q-81 81 -81 209z
" />
    <glyph glyph-name="D" unicode="D" horiz-adv-x="710" 
d="M309 0h-199l130 700h195q138 0 217 -74q78 -74 78 -198q0 -185 -117.5 -306.5t-303.5 -121.5zM290 644l-109 -589h134q151 0 251 104.5t100 260.5q0 103 -64 163.5t-177 60.5h-135z" />
    <glyph glyph-name="E" unicode="E" horiz-adv-x="563" 
d="M505 0h-395l130 700h387l-11 -56h-326l-48 -260h282l-11 -55h-281l-50 -273h334z" />
    <glyph glyph-name="F" unicode="F" horiz-adv-x="553" 
d="M171 0h-61l130 700h387l-11 -56h-326l-49 -267h304l-11 -56h-303z" />
    <glyph glyph-name="G" unicode="G" horiz-adv-x="814" 
d="M111 276q0 86 33.5 166.5t91.5 140.5q58 61 138.5 95.5t167.5 34.5q118 0 194 -64q77 -65 93 -166h-68q-16 80 -76.5 126t-152.5 46q-146 0 -251.5 -109t-105.5 -261q0 -108 66 -174t179 -66q120 -1 214.5 76.5t114.5 187.5h-300l10 55h369q-26 -180 -143.5 -278.5
t-274.5 -98.5q-134 0 -217 80q-82 81 -82 209z" />
    <glyph glyph-name="H" unicode="H" horiz-adv-x="736" 
d="M171 0h-61l130 700h61l-59 -315h394l59 315h61l-130 -700h-61l60 328h-393z" />
    <glyph glyph-name="I" unicode="I" horiz-adv-x="281" 
d="M171 0h-61l130 700h61z" />
    <glyph glyph-name="J" unicode="J" horiz-adv-x="578" 
d="M79 181h59q-1 -9 -1 -24q0 -49 27 -77q34 -36 106 -36q81 0 128.5 47t59.5 118l81 435h-277l11 56h338l-91 -490q-18 -98 -83 -160.5t-178 -62.5q-65 0 -112.5 28t-62.5 82q-7 21 -7 50q0 12 2 34z" />
    <glyph glyph-name="K" unicode="K" horiz-adv-x="612" 
d="M171 0h-61l130 700h61l-70 -375h6l389 375h80l-310 -296l131 -303q20 -45 57 -45h28l-10 -56h-32q-63 0 -93 68l-128 291l-136 -130z" />
    <glyph glyph-name="L" unicode="L" horiz-adv-x="532" 
d="M477 0h-367l130 700h61l-119 -644h305z" />
    <glyph glyph-name="M" unicode="M" horiz-adv-x="907" 
d="M169 0h-59l130 700h66l158 -633h6l382 633h75l-130 -700h-60l106 568h-6l-343 -568h-71l-143 568h-6z" />
    <glyph glyph-name="N" unicode="N" horiz-adv-x="736" 
d="M171 0h-61l130 700h61l278 -595h6l111 595h61l-130 -700h-62l-277 595h-6z" />
    <glyph glyph-name="O" unicode="O" horiz-adv-x="825" 
d="M111 276q0 86 34 167t93 141q58 60 139 94.5t167 34.5q135 0 217 -82q83 -83 83 -209q-1 -179 -128 -306.5t-306 -128.5q-134 0 -217 80q-82 81 -82 209zM175 286q0 -107 67 -174t178 -67q143 0 251 110t108 257q0 108 -67 175q-68 68 -178 68q-144 0 -251.5 -110.5
t-107.5 -258.5z" />
    <glyph glyph-name="P" unicode="P" horiz-adv-x="611" 
d="M171 0h-61l130 700h236q83 0 133 -45.5t50 -120.5q1 -107 -74.5 -180t-181.5 -71h-180zM290 645l-56 -307h174q78 0 132 54q55 54 55 134q0 54 -35 86.5t-95 32.5h-175z" />
    <glyph glyph-name="Q" unicode="Q" horiz-adv-x="825" 
d="M111 276q0 86 34 167t93 141q58 60 139 94.5t167 34.5q135 0 217 -82q83 -83 83 -209q0 -93 -38 -176.5t-108 -146.5l2 -3q15 -23 29 -31.5t35 -8.5h36l-10 -56h-36q-33 0 -55.5 14t-44.5 49q-112 -76 -244 -76q-134 0 -217 80q-82 81 -82 209zM175 286q0 -107 67 -174
t178 -67q110 0 202 67l-123 186h69l98 -149q54 51 83.5 120t29.5 143q0 108 -67 175q-68 68 -178 68q-144 0 -251.5 -110.5t-107.5 -258.5z" />
    <glyph glyph-name="R" unicode="R" horiz-adv-x="626" 
d="M171 0h-61l130 700h230q88 0 139 -47t51 -124q0 -93 -55 -154q-53 -61 -140 -79l68 -198q10 -24 22 -33t32 -9h34l-10 -56h-41q-35 0 -56 16t-33 52l-76 222h-181zM290 645l-55 -300h169q82 0 137 50q54 51 54 134q0 52 -37.5 84t-101.5 32h-166z" />
    <glyph glyph-name="S" unicode="S" horiz-adv-x="591" 
d="M89 205h61q-3 -17 -3 -33q0 -52 33 -85q42 -43 128 -43q89 0 145 45q57 45 57 119q0 39 -25.5 65.5t-63 38.5t-82 26.5t-82 30t-63 49t-25.5 82.5q0 94 72.5 153.5t185.5 59.5q70 0 122.5 -31t67.5 -94q4 -15 3 -34q0 -21 -4 -41h-63q3 16 3 32q0 45 -29 74
q-38 38 -111 38q-80 0 -132 -43q-51 -44 -51 -108q0 -42 35 -68t85 -40t100 -31t85 -54t35 -96q0 -107 -77 -169q-76 -61 -201 -61q-106 -1 -165 61q-47 47 -45 115q0 22 4 42z" />
    <glyph glyph-name="T" unicode="T" horiz-adv-x="567" 
d="M372 644h-217l11 56h495l-11 -56h-217l-119 -644h-61z" />
    <glyph glyph-name="U" unicode="U" horiz-adv-x="704" 
d="M144 240l85 460h62l-85 -459q-5 -30 -5 -51q0 -56 28 -93q41 -53 130 -53q91 0 152 53t78 145l85 458h60l-85 -459q-22 -119 -99 -186.5t-198 -67.5q-116 -2 -172 69q-42 50 -42 126q0 26 6 58z" />
    <glyph glyph-name="V" unicode="V" horiz-adv-x="657" 
d="M289 0l-133 700h64l114 -633h6l350 633h71l-397 -700h-75z" />
    <glyph glyph-name="W" unicode="W" horiz-adv-x="929" 
d="M208 0l-52 700h64l39 -626h6l288 626h80l55 -626h6l271 626h68l-312 -700h-82l-57 618h-6l-286 -618h-82z" />
    <glyph glyph-name="X" unicode="X" horiz-adv-x="596" 
d="M92 0h-76l306 356l-165 344h68l140 -296h6l251 296h76l-295 -345l174 -355h-69l-149 308h-6z" />
    <glyph glyph-name="Y" unicode="Y" horiz-adv-x="623" 
d="M332 278l-176 422h65l148 -358h6l280 358h72l-333 -422l-52 -278h-62z" />
    <glyph glyph-name="Z" unicode="Z" horiz-adv-x="617" 
d="M561 0h-505l11 64l533 573l1 7h-414l11 56h492l-13 -65l-532 -573l-1 -6h428z" />
    <glyph glyph-name="bracketleft" unicode="[" horiz-adv-x="415" 
d="M264 -143h-190l168 906h190l-10 -53h-130l-148 -800h130z" />
    <glyph glyph-name="backslash" unicode="\" horiz-adv-x="485" 
d="M348 -108l-144 858h54l144 -858h-54z" />
    <glyph glyph-name="bracketright" unicode="]" horiz-adv-x="415" 
d="M287 -143h-190l10 53h130l148 800h-130l10 53h190z" />
    <glyph glyph-name="asciicircum" unicode="^" horiz-adv-x="584" 
d="M196 318h-57l253 382h60l110 -382h-55l-93 326h-6z" />
    <glyph glyph-name="underscore" unicode="_" horiz-adv-x="670" 
d="M586 -85h-534l9 50h534z" />
    <glyph glyph-name="grave" unicode="`" horiz-adv-x="252" 
d="M256 610l-63 133h76l35 -133h-48z" />
    <glyph glyph-name="a" unicode="a" 
d="M96 198q-2 137 90.5 237.5t217.5 97.5q76 0 119 -37t55 -81h6l19 105h59l-79 -426q-1 -4 -1 -11q0 -12 6 -21q9 -11 27 -11h23l-10 -51h-39q-35 0 -53 21q-14 16 -14 38q0 4 2 14l6 32h-7q-75 -118 -216 -118q-98 0 -154.5 57.5t-56.5 153.5zM158 206q0 -76 43.5 -120.5
t119.5 -44.5q101 -1 172 80t69 192q0 76 -43.5 120.5t-118.5 44.5q-98 2 -171 -80t-71 -192z" />
    <glyph glyph-name="b" unicode="b" horiz-adv-x="665" 
d="M156 0h-58l139 750h60l-62 -335h6q28 44 85 81t133 37q96 0 151 -58q56 -59 56 -153q3 -138 -88.5 -237.5t-222.5 -97.5q-78 0 -119.5 36.5t-54.5 79.5h-6zM200 209q0 -76 42.5 -122t117.5 -46q98 -2 171.5 79.5t71.5 191.5q0 76 -43 121t-118 45q-98 2 -171 -79
t-71 -190z" />
    <glyph glyph-name="c" unicode="c" horiz-adv-x="629" 
d="M96 208q0 134 93 229.5t229 95.5q86 0 148 -50q61 -49 64 -134h-62q-5 57 -49.5 93t-108.5 36q-101 2 -177 -79t-74 -185q0 -78 46.5 -125t124.5 -47q65 0 123 35q57 36 82 94h62q-30 -86 -106 -135t-173 -49q-100 0 -162 62q-60 61 -60 159z" />
    <glyph glyph-name="d" unicode="d" horiz-adv-x="676" 
d="M96 198q0 137 91 236t217 99q76 0 119 -37t55 -81h6l62 335h60l-122 -655q-1 -3 -1 -11q0 -12 6 -21q9 -11 27 -11h24l-10 -52h-41q-36 0 -54 20q-14 16 -14 37q0 9 1 14l6 32h-7q-24 -42 -78.5 -79t-135.5 -37q-98 0 -154.5 57t-56.5 154zM158 206q0 -76 43.5 -120.5
t119.5 -44.5q101 -1 172 80t69 192q0 76 -43.5 120.5t-118.5 44.5q-98 3 -171 -80t-71 -192z" />
    <glyph glyph-name="e" unicode="e" horiz-adv-x="613" 
d="M96 203q-2 137 87 234.5t220 95.5q77 0 129.5 -34t71.5 -94q11 -35 11 -72q0 -32 -7 -64l-6 -31h-440q-2 -24 -2 -35q-1 -64 32 -108q40 -55 129 -55q62 0 116.5 31t81.5 82h63q-30 -73 -104 -120q-73 -46 -167 -46q-101 0 -158 60t-57 156zM173 292h376q2 26 2 35
q0 63 -33 102q-42 49 -122 49q-78 0 -141 -51q-62 -51 -82 -135z" />
    <glyph glyph-name="f" unicode="f" horiz-adv-x="394" 
d="M148 -230h-60l130 699h-98l9 51h99l12 66q15 78 67 121t133 43h42l-10 -53h-41q-52 0 -86.5 -30t-44.5 -82l-12 -65h154l-9 -51h-155z" />
    <glyph glyph-name="g" unicode="g" horiz-adv-x="654" 
d="M82 -84h57q2 -51 40.5 -78.5t104.5 -27.5q91 0 149 47.5t73 132.5l21 113h-6q-24 -41 -80.5 -79t-133.5 -37q-98 0 -155 57t-57 154q0 137 91 236t217 99q76 0 119 -37t55 -81h6l19 105h60l-98 -530q-21 -113 -94 -173t-194 -60q-92 0 -143 43t-51 116zM157 206
q0 -76 43.5 -120.5t119.5 -44.5q98 0 169.5 80t71.5 192q0 76 -43.5 120.5t-118.5 44.5q-98 3 -171 -80t-71 -192z" />
    <glyph glyph-name="h" unicode="h" horiz-adv-x="619" 
d="M158 0h-60l139 750h60l-58 -316h6q27 44 77.5 71.5t109.5 27.5q58 0 99 -27q39 -26 56 -72q9 -27 9 -57q0 -24 -4 -44l-62 -333h-60l61 329q3 16 3 32q0 43 -27 75q-36 41 -100 41q-67 0 -122 -46q-55 -45 -67 -111z" />
    <glyph glyph-name="i" unicode="i" horiz-adv-x="269" 
d="M115 87l79 433h60l-78 -423q-1 -4 -1 -11q0 -14 6 -22q8 -11 27 -11h23l-10 -53h-34q-40 0 -60 23q-14 17 -14 43q0 7 2 21zM205 666q0 23 17.5 40t39.5 17q19 0 30.5 -10.5t11.5 -27.5q0 -23 -18 -40.5t-41 -17.5q-17 0 -28.5 11t-11.5 28z" />
    <glyph glyph-name="j" unicode="j" horiz-adv-x="302" 
d="M-8 -230h-31l10 55h31q50 0 83 29t43 81l109 585h60l-108 -586q-16 -80 -67 -122t-130 -42zM247 666q0 23 17.5 40t40.5 17q18 0 29 -10.5t11 -27.5q0 -23 -17.5 -40.5t-41.5 -17.5q-17 0 -28 11t-11 28z" />
    <glyph glyph-name="k" unicode="k" horiz-adv-x="529" 
d="M158 0h-60l139 750h60l-92 -495h6l293 265h80l-230 -208l87 -216q18 -45 55 -45h28l-10 -51h-33q-64 0 -89 67l-83 204l-119 -106z" />
    <glyph glyph-name="l" unicode="l" horiz-adv-x="273" 
d="M116 97l121 653h60l-121 -653q-2 -8 -1 -12q0 -12 5 -20q8 -11 26 -12h22l-10 -53h-32q-41 0 -60 25q-13 16 -13 44q0 13 3 28z" />
    <glyph glyph-name="m" unicode="m" horiz-adv-x="947" 
d="M158 0h-60l96 520h60l-15 -84h6q63 97 176 97q60 0 99.5 -28.5t50.5 -77.5h7q68 106 188 106q86 0 128 -54q30 -41 30 -94q0 -24 -4 -44l-63 -341h-60l60 322q4 20 4 42q0 43 -20 72q-30 43 -95 41q-64 0 -115 -45q-50 -43 -64 -116l-58 -316h-60l61 333q3 18 3 33
q0 42 -23 71q-31 40 -96 40q-64 0 -114 -46q-51 -47 -63 -113z" />
    <glyph glyph-name="n" unicode="n" horiz-adv-x="614" 
d="M158 0h-60l96 520h60l-15 -85h6q27 43 76.5 70.5t107.5 27.5q89 0 132 -57q31 -41 31 -99q0 -24 -4 -44l-62 -333h-60l61 329q3 16 3 31q-2 45 -27 76q-35 41 -98 41q-67 0 -122 -47q-53 -46 -67 -114z" />
    <glyph glyph-name="o" unicode="o" horiz-adv-x="645" 
d="M96 206q-3 130 94 229.5t228 97.5q103 0 165 -61q63 -62 63 -158q0 -134 -93.5 -230.5t-228.5 -96.5q-101 0 -165 61q-63 62 -63 158zM158 214q0 -77 47 -124.5t125 -47.5q102 -2 179.5 77.5t74.5 186.5q0 76 -47.5 124t-125.5 48q-101 2 -178 -78t-75 -186z" />
    <glyph glyph-name="p" unicode="p" horiz-adv-x="665" 
d="M116 -230h-60l139 750h58l-19 -103h6q19 30 58 62t92 46q32 8 61 8h3q98 0 155 -58q57 -59 57 -152q3 -137 -87.5 -237.5t-218.5 -98.5q-76 0 -122 38t-54 80h-6zM200 207q0 -77 43.5 -121t118.5 -44q97 -3 170.5 80t71.5 193q0 75 -44 119.5t-119 44.5q-97 3 -170 -80
t-71 -192z" />
    <glyph glyph-name="q" unicode="q" horiz-adv-x="655" 
d="M96 198q-3 138 88.5 237.5t222.5 97.5q78 0 121 -38t52 -78h6l19 103h58l-139 -750h-60l62 335h-6q-28 -44 -84.5 -81t-132.5 -37q-96 0 -151 58q-56 59 -56 153zM158 208q0 -76 43 -121t118 -45q98 -2 171.5 79t71.5 190q0 76 -42.5 122t-117.5 46q-100 2 -173 -79.5
t-71 -191.5z" />
    <glyph glyph-name="r" unicode="r" horiz-adv-x="394" 
d="M158 0h-60l96 520h60l-20 -104h6q25 44 70.5 74t97.5 30h40l-11 -60h-39q-72 0 -123 -52t-65 -128z" />
    <glyph glyph-name="s" unicode="s" horiz-adv-x="535" 
d="M93 146h58q-1 -4 -1 -12q0 -43 30 -67q34 -27 94 -27q73 0 116.5 32.5t43.5 88.5q0 34 -29 53.5t-70.5 27.5t-83.5 18t-71 36.5t-29 72.5q0 72 58 118t152 46q77 0 120 -39q40 -34 40 -91q0 -11 -1 -17h-58v8q0 39 -26 62q-29 25 -85 25q-60 0 -100 -30t-40 -74
q0 -32 29 -49.5t70.5 -26t83.5 -19t71 -38t29 -74.5q0 -84 -60 -133.5t-169 -49.5q-90 0 -134 43q-39 38 -39 96q0 13 1 20z" />
    <glyph glyph-name="t" unicode="t" horiz-adv-x="426" 
d="M234 469h-99l10 51h74q26 0 32 27l24 124h56l-28 -151h161l-10 -51h-160l-58 -312q-5 -17 -3 -32q0 -72 81 -72h58l-10 -53h-63q-71 0 -105 39q-23 28 -23 73q0 17 5 44z" />
    <glyph glyph-name="u" unicode="u" horiz-adv-x="604" 
d="M123 187l62 333h60l-61 -330q-3 -20 -3 -35q0 -45 25 -73q34 -40 99 -40q69 0 122 46t67 115l59 317h60l-97 -520h-60l15 85h-6q-26 -44 -74 -71t-109 -27q-58 0 -98.5 26.5t-55.5 72.5q-9 27 -9 58q0 23 4 43z" />
    <glyph glyph-name="v" unicode="v" horiz-adv-x="549" 
d="M242 0l-110 520h63l88 -447h6l253 447h68l-303 -520h-65z" />
    <glyph glyph-name="w" unicode="w" horiz-adv-x="861" 
d="M203 0l-71 520h63l57 -452h6l232 452h72l63 -452h6l225 452h66l-265 -520h-79l-62 446h-6l-227 -446h-80z" />
    <glyph glyph-name="x" unicode="x" horiz-adv-x="535" 
d="M112 0h-75l239 270l-129 250h66l105 -211h6l182 211h75l-223 -254l140 -266h-67l-115 225h-8z" />
    <glyph glyph-name="y" unicode="y" horiz-adv-x="604" 
d="M66 -84h56q0 -106 130 -106q87 0 135.5 45.5t66.5 134.5l17 95h-6q-25 -42 -75 -70t-108 -28t-98.5 26.5t-55.5 72.5q-9 27 -9 58q0 23 4 43l62 333h60l-61 -330q-3 -16 -3 -32q0 -43 26 -75q35 -41 98 -41q69 0 122 46t67 115l59 317h60l-99 -530q-22 -118 -88.5 -175.5
t-182.5 -57.5q-93 0 -137 43q-41 41 -41 104q0 8 1 12z" />
    <glyph glyph-name="z" unicode="z" horiz-adv-x="519" 
d="M454 0h-388l9 54l387 409l1 6h-304l9 51h378l-9 -54l-387 -409l-1 -6h314z" />
    <glyph glyph-name="braceleft" unicode="{" horiz-adv-x="491" 
d="M184 283h-29l10 54h29q43 0 52 49l45 242q25 135 164 135h51l-10 -53h-52q-80 0 -93 -83l-45 -240q-13 -63 -57 -74l-1 -6q41 -11 29 -74l-43 -240q-7 -44 7 -63.5t55 -19.5h52l-10 -53h-51q-67 0 -97 34t-17 101l44 242q9 49 -33 49z" />
    <glyph glyph-name="bar" unicode="|" horiz-adv-x="309" 
d="M145 -206h-57l183 989h57z" />
    <glyph glyph-name="braceright" unicode="}" horiz-adv-x="491" 
d="M151 -143h-51l10 53h52q80 0 93 83l45 240q12 65 56 74l2 6q-42 10 -30 74l45 240q7 44 -7.5 63.5t-55.5 19.5h-52l10 53h51q67 0 97 -34t17 -101l-45 -242q-9 -49 34 -49h30l-11 -54h-29q-44 0 -52 -49l-45 -242q-25 -135 -164 -135z" />
    <glyph glyph-name="asciitilde" unicode="~" horiz-adv-x="498" 
d="M131 237h-50q10 56 49 91.5t92 35.5q42 0 94 -35t81 -35q32 0 54 20.5t28 52.5h51q-10 -55 -48.5 -91t-91.5 -36q-48 0 -91 35q-41 35 -85 35q-32 0 -54.5 -21t-28.5 -52z" />
    <glyph glyph-name="uni00A0" unicode="&#xa0;" horiz-adv-x="289" 
 />
    <glyph glyph-name="exclamdown" unicode="&#xa1;" horiz-adv-x="312" 
d="M160 -153h-63l51 276l60 254h37l-34 -254zM203 504q0 21 17 38.5t40 17.5q17 0 29 -11t12 -28q0 -21 -18 -38.5t-41 -17.5q-17 0 -28 11t-11 28z" />
    <glyph glyph-name="cent" unicode="&#xa2;" horiz-adv-x="625" 
d="M100 296q-2 128 87.5 224t217.5 100l15 80h48l-16 -82q77 -8 128 -57q52 -48 54 -125h-62q-5 59 -49 94t-109 35q-101 2 -177 -78.5t-74 -185.5q0 -77 47 -124.5t124 -47.5q65 0 123 35q57 35 83 94h62q-27 -78 -94.5 -126.5t-156.5 -55.5l-13 -76h-48l13 75
q-93 6 -148 67t-55 154z" />
    <glyph glyph-name="sterling" unicode="&#xa3;" horiz-adv-x="615" 
d="M536 0h-463l10 55h67l50 270h-58l10 51h58l25 135q17 91 81 147q64 55 159 55q87 0 129.5 -52t33.5 -115h-60q4 44 -26.5 76.5t-85.5 32.5q-66 0 -112 -40.5t-59 -107.5l-24 -131h185l-10 -51h-185l-50 -270h335z" />
    <glyph glyph-name="yen" unicode="&#xa5;" horiz-adv-x="623" 
d="M305 132h-171l10 53h171l17 93v1h-171l9 52h140l-154 369h65l148 -358h6l280 358h72l-291 -369h141l-9 -52h-173l-1 -1l-17 -93h174l-10 -53h-174l-25 -132h-62z" />
    <glyph glyph-name="section" unicode="&#xa7;" horiz-adv-x="536" 
d="M62 -36h59q-8 -48 21 -84t92 -36q65 0 107 36t42 91q0 54 -67 99l-110 72q-86 56 -86 129q0 54 33.5 94.5t93.5 57.5v6q-59 51 -59 115q0 82 60 135q60 54 157 54q82 0 131.5 -48.5t34.5 -126.5h-59q9 50 -21.5 84.5t-91.5 34.5q-66 0 -108 -36q-41 -36 -41 -91t67 -98
l111 -73q85 -55 85 -128q0 -56 -34 -96.5t-93 -56.5v-6q59 -50 59 -114q0 -83 -60 -136q-60 -54 -157 -54q-82 0 -131.5 49t-34.5 127zM178 278q0 -49 64 -89l94 -60q50 2 84 34q35 35 35 80q0 28 -15.5 48t-47.5 42l-95 59q-50 -1 -85 -35q-34 -33 -34 -79z" />
    <glyph glyph-name="dieresis" unicode="&#xa8;" horiz-adv-x="366" 
d="M178 665q0 22 18 39.5t40 17.5q18 0 29 -11t11 -27q0 -24 -17.5 -41t-40.5 -17q-17 0 -28.5 11t-11.5 28zM340 664q0 23 17 40.5t41 17.5q17 0 28.5 -11t11.5 -28q0 -21 -18 -39t-40 -18q-19 0 -29.5 10.5t-10.5 27.5z" />
    <glyph glyph-name="copyright" unicode="&#xa9;" horiz-adv-x="821" 
d="M111 280q0 84 33.5 164t91.5 139q58 60 138 95t166 35q135 0 218 -83q82 -82 82 -213q0 -115 -56.5 -214.5t-156.5 -158t-219 -58.5q-135 0 -216 82t-81 212zM161 282q0 -110 69 -181q71 -71 186 -71q152 0 263.5 114.5t111.5 271.5q0 109 -71 180q-70 72 -187 72
q-150 0 -260.5 -115t-111.5 -271zM286 312q-2 91 66.5 161t160.5 68q64 0 104 -35t43 -95h-49q-6 37 -34.5 59.5t-70.5 22.5q-69 0 -118 -52t-49 -126q0 -51 30.5 -81.5t83.5 -30.5q94 0 136 82h49q-22 -63 -76 -96.5t-119 -33.5q-71 0 -114 44t-43 113z" />
    <glyph glyph-name="ordfeminine" unicode="&#xaa;" horiz-adv-x="525" 
d="M152 459q-2 102 68 179.5t163 74.5q57 0 89.5 -28.5t39.5 -59.5h7l14 78h49l-60 -322q-6 -33 24 -33h18l-7 -39h-31q-51 0 -49 56l4 23h-5q-66 -88 -166 -88q-72 0 -115 43.5t-43 115.5zM202 467q0 -56 33 -89t87 -33q73 0 126 59t53 141q0 57 -32.5 90t-86.5 33
q-74 0 -127 -60q-53 -59 -53 -141z" />
    <glyph glyph-name="guillemotleft" unicode="&#xab;" horiz-adv-x="511" 
d="M276 108l-155 163l8 42l215 163l-14 -71l-148 -116l-2 -6l106 -115zM466 108l-155 163l8 42l215 163l-14 -71l-148 -116l-2 -6l106 -115z" />
    <glyph glyph-name="uni00AD" unicode="&#xad;" horiz-adv-x="395" 
d="M375 271h-255l11 56h255z" />
    <glyph glyph-name="registered" unicode="&#xae;" horiz-adv-x="512" 
d="M146 497q-2 99 71.5 173t174.5 72q80 0 127 -45t47 -117q2 -100 -72.5 -173.5t-175.5 -71.5q-78 0 -125 45t-47 117zM183 502q0 -61 38 -97.5t103 -36.5q88 0 146 60q60 60 60 148q0 61 -38 96.5t-106 35.5q-84 0 -144 -61q-59 -61 -59 -145zM303 430h-37l40 216h78
q30 0 48 -16t18 -41q0 -24 -14.5 -45t-35.5 -28l29 -86h-39l-24 78h-49zM336 614l-13 -74h41q20 0 33.5 13t13.5 32q0 29 -33 29h-42z" />
    <glyph glyph-name="overscore" unicode="&#xaf;" horiz-adv-x="342" 
d="M412 644h-242l9 51h242z" />
    <glyph glyph-name="degree" unicode="&#xb0;" horiz-adv-x="419" 
d="M165 538q0 70 51 123q51 52 125 52q56 0 89.5 -32.5t33.5 -83.5q0 -72 -51 -123q-49 -51 -125 -51q-56 0 -89.5 31.5t-33.5 83.5zM215 546q0 -34 22.5 -56t58.5 -22q50 0 84 36q35 37 35 85q0 36 -22 57t-60 21q-49 0 -83 -36q-35 -37 -35 -85z" />
    <glyph glyph-name="uni00B2" unicode="&#xb2;" horiz-adv-x="379" 
d="M375 304h-249l7 43q6 40 28 68t68 54l82 46q63 37 63 92q0 24 -17.5 39.5t-47.5 15.5q-34 0 -58.5 -20t-29.5 -50h-46q7 50 45 83t96 33q50 0 79.5 -26.5t29.5 -66.5q0 -84 -88 -133l-88 -50q-32 -18 -46 -34t-19 -43l-2 -8h201z" />
    <glyph glyph-name="uni00B3" unicode="&#xb3;" horiz-adv-x="386" 
d="M143 415h46q-4 -33 14 -53.5t51 -20.5q43 0 72 27t29 68q0 27 -20 44t-53 17h-40l7 39l122 116v4h-166l9 44h228l-8 -44l-126 -117l-1 -3q44 0 71.5 -26.5t27.5 -68.5q0 -63 -43.5 -104t-113.5 -41q-56 0 -86 37q-29 38 -20 82z" />
    <glyph glyph-name="acute" unicode="&#xb4;" horiz-adv-x="252" 
d="M220 610h-49l82 133h76z" />
    <glyph glyph-name="paragraph" unicode="&#xb6;" horiz-adv-x="552" 
d="M156 434q0 105 80 185.5t188 80.5h185l-138 -745h-53l129 692h-76l-129 -692h-52l55 296q-84 0 -136 52q-53 53 -53 131z" />
    <glyph glyph-name="middot" unicode="&#xb7;" horiz-adv-x="272" 
d="M146 306q0 22 17.5 39t38.5 17q18 0 29.5 -11t11.5 -28q0 -21 -18 -39t-40 -18q-17 0 -28 12t-11 28z" />
    <glyph glyph-name="cedilla" unicode="&#xb8;" horiz-adv-x="268" 
d="M28 -131h40q-2 -15 8.5 -25t26.5 -10q21 0 37 16t16 37q0 15 -10 25t-27 10q-23 0 -37 -18h-43l46 113h44l-35 -75h6q14 13 38 13q28 0 44 -17.5t16 -45.5q0 -40 -29 -68.5t-71 -28.5q-33 0 -54.5 21t-15.5 53z" />
    <glyph glyph-name="uni00B9" unicode="&#xb9;" horiz-adv-x="284" 
d="M281 599h-104l6 35q71 0 92.5 13t28.5 53h45l-74 -396h-49z" />
    <glyph glyph-name="ordmasculine" unicode="&#xba;" horiz-adv-x="537" 
d="M153 463q-2 98 74.5 175.5t174.5 74.5q77 0 123.5 -45.5t46.5 -118.5q2 -98 -74 -174.5t-173 -74.5q-77 0 -124.5 45t-47.5 118zM203 471q0 -57 35 -92t95 -35q77 0 132 58q56 59 56 139q0 57 -34.5 91.5t-92.5 34.5q-77 0 -134 -58q-57 -59 -57 -138z" />
    <glyph glyph-name="guillemotright" unicode="&#xbb;" horiz-adv-x="521" 
d="M306 271l-215 -163l14 71l148 116l1 6l-106 115l11 60l155 -163zM496 271l-215 -163l14 71l148 116l1 6l-106 115l11 60l155 -163z" />
    <glyph glyph-name="onequarter" unicode="&#xbc;" horiz-adv-x="847" 
d="M281 599h-104l6 35q71 0 92.5 13t28.5 53h45l-74 -396h-49zM240 -41h-58l534 782h58zM696 86h-192l7 40l175 270h53l-172 -262l-1 -4h138l21 113h49l-21 -113h53l-8 -44h-53l-16 -86h-50z" />
    <glyph glyph-name="onehalf" unicode="&#xbd;" horiz-adv-x="882" 
d="M281 599h-104l6 35q71 0 92.5 13t28.5 53h45l-74 -396h-49zM240 -41h-58l534 782h58zM817 0h-250l8 43q6 40 28 68t68 54l81 46q63 36 63 92q0 25 -17 40t-47 15q-35 0 -59.5 -20t-29.5 -50h-45q7 50 45 83t95 33q50 0 79.5 -26.5t29.5 -66.5q0 -84 -88 -133l-88 -50
q-31 -18 -45 -34t-19 -43l-2 -8h200z" />
    <glyph glyph-name="threequarters" unicode="&#xbe;" horiz-adv-x="869" 
d="M143 415h46q-4 -33 14 -53.5t51 -20.5q44 0 72.5 26.5t28.5 68.5q0 27 -20 44t-53 17h-40l7 39l122 116v4h-166l9 44h228l-8 -44l-126 -117l-1 -3q44 0 71.5 -26.5t27.5 -68.5q0 -63 -43.5 -104t-113.5 -41q-56 0 -86 37q-29 38 -20 82zM278 -41h-56l534 782h56zM717 86
h-192l7 40l175 270h53l-171 -262l-1 -4h137l21 113h49l-21 -113h53l-8 -44h-53l-16 -86h-50z" />
    <glyph glyph-name="questiondown" unicode="&#xbf;" horiz-adv-x="549" 
d="M75 -14q0 60 33 105q24 30 43 46q20 17 42 32l69 50q48 33 58 83l12 67h59l-12 -67q-8 -41 -25.5 -66t-56.5 -55l-72 -52q-24 -18 -44 -38q-43 -43 -43 -102q0 -46 31 -73t85 -27q68 0 113.5 39.5t54.5 100.5h57q-12 -81 -73.5 -138t-160.5 -57q-77 0 -124 44
q-46 43 -46 108zM339 504q0 22 17 39t40 17q17 0 28.5 -11t11.5 -28q0 -21 -18 -38.5t-40 -17.5q-17 0 -28 11t-11 28z" />
    <glyph glyph-name="Agrave" unicode="&#xc0;" 
d="M96 0h-70l402 700h76l143 -700h-65l-35 176h-352zM450 629l-225 -396h310l-79 396h-6zM474 790l-63 133h76l35 -133h-48z" />
    <glyph glyph-name="Aacute" unicode="&#xc1;" 
d="M96 0h-70l402 700h76l143 -700h-65l-35 176h-352zM450 629l-225 -396h310l-79 396h-6zM503 790h-49l82 133h76z" />
    <glyph glyph-name="Acircumflex" unicode="&#xc2;" 
d="M96 0h-70l402 700h76l143 -700h-65l-35 176h-352zM450 629l-225 -396h310l-79 396h-6zM418 790h-62l121 130h66l73 -130h-53l-56 78h-6z" />
    <glyph glyph-name="Atilde" unicode="&#xc3;" 
d="M96 0h-70l402 700h76l143 -700h-65l-35 176h-352zM450 629l-225 -396h310l-79 396h-6zM377 798h-47q7 51 36 81.5t69 30.5q34 0 70.5 -31.5t56.5 -31.5q21 0 37.5 18t20.5 45h45q-7 -51 -34.5 -82t-68.5 -31q-32 0 -68.5 32t-58.5 32t-38.5 -18t-19.5 -45z" />
    <glyph glyph-name="Adieresis" unicode="&#xc4;" 
d="M96 0h-70l402 700h76l143 -700h-65l-35 176h-352zM450 629l-225 -396h310l-79 396h-6zM367 845q0 22 17.5 39.5t40.5 17.5q18 0 29 -11t11 -27q0 -24 -17 -41t-41 -17q-17 0 -28.5 11.5t-11.5 27.5zM529 844q0 24 17 41t41 17q17 0 28.5 -11.5t11.5 -27.5
q0 -22 -18 -39.5t-40 -17.5q-18 0 -29 11t-11 27z" />
    <glyph glyph-name="Aring" unicode="&#xc5;" 
d="M96 0h-70l402 700h76l143 -700h-65l-35 176h-352zM450 629l-225 -396h310l-79 396h-6zM405 836q0 43 32 75t77 32q35 0 56.5 -19.5t21.5 -51.5q0 -46 -30 -77t-80 -31q-35 0 -56 20t-21 52zM446 842q0 -19 11.5 -30t31.5 -11q25 0 43.5 19t18.5 45q0 18 -12 29t-32 11
q-25 0 -43 -18.5t-18 -44.5z" />
    <glyph glyph-name="AE" unicode="&#xc6;" horiz-adv-x="893" 
d="M93 0h-67l508 700h423l-11 -56h-326l-48 -260h272l-11 -55h-271l-50 -273h334l-11 -56h-395l33 176h-253zM553 644l-294 -411h223l77 411h-6z" />
    <glyph glyph-name="Ccedilla" unicode="&#xc7;" horiz-adv-x="792" 
d="M111 277q0 85 33 165t91 140q58 61 138.5 96t168.5 35q117 0 194 -65t92 -172h-66q-14 84 -75.5 131.5t-154.5 47.5q-143 0 -250 -111t-107 -257q0 -108 67 -175t177 -67q96 0 174 47.5t120 131.5h69q-51 -112 -146.5 -174.5t-225.5 -62.5l-21 -45h6q19 13 38 13
q27 0 43.5 -17.5t16.5 -44.5q0 -40 -30.5 -69t-73.5 -29q-33 0 -52.5 21t-13.5 53h40q-2 -15 8.5 -25t26.5 -10q21 0 37 16t16 37q0 15 -10.5 25t-26.5 10q-23 0 -37 -18h-43l34 85q-118 12 -188 91q-69 80 -69 197z" />
    <glyph glyph-name="Egrave" unicode="&#xc8;" horiz-adv-x="563" 
d="M505 0h-395l130 700h387l-11 -56h-326l-48 -260h282l-11 -55h-281l-50 -273h334zM446 790l-63 133h76l35 -133h-48z" />
    <glyph glyph-name="Eacute" unicode="&#xc9;" horiz-adv-x="563" 
d="M505 0h-395l130 700h387l-11 -56h-326l-48 -260h282l-11 -55h-281l-50 -273h334zM475 790h-49l82 133h76z" />
    <glyph glyph-name="Ecircumflex" unicode="&#xca;" horiz-adv-x="563" 
d="M505 0h-395l130 700h387l-11 -56h-326l-48 -260h282l-11 -55h-281l-50 -273h334zM390 790h-62l121 130h66l73 -130h-53l-56 78h-6z" />
    <glyph glyph-name="Edieresis" unicode="&#xcb;" horiz-adv-x="563" 
d="M505 0h-395l130 700h387l-11 -56h-326l-48 -260h282l-11 -55h-281l-50 -273h334zM339 845q0 22 18 39.5t40 17.5q18 0 29 -11t11 -27q0 -24 -17.5 -41t-40.5 -17q-17 0 -28.5 11.5t-11.5 27.5zM501 844q0 24 17 41t41 17q17 0 28.5 -11.5t11.5 -27.5q0 -22 -18 -39.5
t-40 -17.5q-18 0 -29 11t-11 27z" />
    <glyph glyph-name="Igrave" unicode="&#xcc;" horiz-adv-x="281" 
d="M171 0h-61l130 700h61zM276 790l-63 133h76l35 -133h-48z" />
    <glyph glyph-name="Iacute" unicode="&#xcd;" horiz-adv-x="281" 
d="M171 0h-61l130 700h61zM305 790h-49l82 133h76z" />
    <glyph glyph-name="Icircumflex" unicode="&#xce;" horiz-adv-x="281" 
d="M171 0h-61l130 700h61zM220 790h-62l121 130h66l73 -130h-53l-56 78h-6z" />
    <glyph glyph-name="Idieresis" unicode="&#xcf;" horiz-adv-x="281" 
d="M171 0h-61l130 700h61zM169 845q0 22 18 39.5t40 17.5q18 0 29 -11t11 -27q0 -24 -17.5 -41t-40.5 -17q-17 0 -28.5 11.5t-11.5 27.5zM331 844q0 24 17 41t41 17q17 0 28.5 -11.5t11.5 -27.5q0 -22 -17.5 -39.5t-40.5 -17.5q-18 0 -29 11t-11 27z" />
    <glyph glyph-name="Eth" unicode="&#xd0;" horiz-adv-x="754" 
d="M354 0h-186l61 327h-59l10 55h59l59 318h186q136 0 213 -74t77 -196q0 -185 -119.5 -307.5t-300.5 -122.5zM290 327l-50 -272h124q97 0 176.5 47.5t124.5 131.5t45 187t-63 163t-174 60h-124l-48 -262h163l-10 -55h-164z" />
    <glyph glyph-name="Ntilde" unicode="&#xd1;" horiz-adv-x="736" 
d="M171 0h-61l130 700h61l278 -595h6l111 595h61l-130 -700h-62l-277 595h-6zM419 798h-47q7 51 36 81.5t69 30.5q34 0 70.5 -31.5t56.5 -31.5q21 0 37.5 18t20.5 45h45q-7 -51 -34.5 -82t-68.5 -31q-32 0 -68.5 32t-58.5 32t-38.5 -18t-19.5 -45z" />
    <glyph glyph-name="Ograve" unicode="&#xd2;" horiz-adv-x="825" 
d="M111 276q0 86 34 167t93 141q58 60 139 94.5t167 34.5q135 0 217 -82q83 -83 83 -209q-1 -179 -128 -306.5t-306 -128.5q-134 0 -217 80q-82 81 -82 209zM175 286q0 -107 67 -174t178 -67q143 0 251 110t108 257q0 108 -67 175q-68 68 -178 68q-144 0 -251.5 -110.5
t-107.5 -258.5zM545 790l-63 133h76l35 -133h-48z" />
    <glyph glyph-name="Oacute" unicode="&#xd3;" horiz-adv-x="825" 
d="M111 276q0 86 34 167t93 141q58 60 139 94.5t167 34.5q135 0 217 -82q83 -83 83 -209q-1 -179 -128 -306.5t-306 -128.5q-134 0 -217 80q-82 81 -82 209zM175 286q0 -107 67 -174t178 -67q143 0 251 110t108 257q0 108 -67 175q-68 68 -178 68q-144 0 -251.5 -110.5
t-107.5 -258.5zM574 790h-49l82 133h76z" />
    <glyph glyph-name="Ocircumflex" unicode="&#xd4;" horiz-adv-x="825" 
d="M111 276q0 86 34 167t93 141q58 60 139 94.5t167 34.5q135 0 217 -82q83 -83 83 -209q-1 -179 -128 -306.5t-306 -128.5q-134 0 -217 80q-82 81 -82 209zM175 286q0 -107 67 -174t178 -67q143 0 251 110t108 257q0 108 -67 175q-68 68 -178 68q-144 0 -251.5 -110.5
t-107.5 -258.5zM489 790h-62l121 130h66l73 -130h-53l-56 78h-6z" />
    <glyph glyph-name="Otilde" unicode="&#xd5;" horiz-adv-x="825" 
d="M111 276q0 86 34 167t93 141q58 60 139 94.5t167 34.5q135 0 217 -82q83 -83 83 -209q-1 -179 -128 -306.5t-306 -128.5q-134 0 -217 80q-82 81 -82 209zM175 286q0 -107 67 -174t178 -67q143 0 251 110t108 257q0 108 -67 175q-68 68 -178 68q-144 0 -251.5 -110.5
t-107.5 -258.5zM448 798h-47q7 51 35.5 81.5t69.5 30.5q27 0 49.5 -16t41 -31.5t36.5 -15.5q21 0 37.5 18t20.5 45h45q-7 -51 -35 -82t-68 -31q-32 0 -68.5 32t-58.5 32t-38.5 -18t-19.5 -45z" />
    <glyph glyph-name="Odieresis" unicode="&#xd6;" horiz-adv-x="825" 
d="M111 276q0 86 34 167t93 141q58 60 139 94.5t167 34.5q135 0 217 -82q83 -83 83 -209q-1 -179 -128 -306.5t-306 -128.5q-134 0 -217 80q-82 81 -82 209zM175 286q0 -107 67 -174t178 -67q143 0 251 110t108 257q0 108 -67 175q-68 68 -178 68q-144 0 -251.5 -110.5
t-107.5 -258.5zM438 845q0 22 18 39.5t40 17.5q18 0 29 -11t11 -27q0 -24 -17.5 -41t-40.5 -17q-17 0 -28.5 11.5t-11.5 27.5zM600 844q0 24 17 41t41 17q17 0 28.5 -11.5t11.5 -27.5q0 -22 -17.5 -39.5t-40.5 -17.5q-18 0 -29 11t-11 27z" />
    <glyph glyph-name="multiply" unicode="&#xd7;" horiz-adv-x="446" 
d="M62 83l-33 41l216 191l-141 188l41 32l139 -186l209 186l33 -40l-210 -187l145 -194l-41 -32l-143 191z" />
    <glyph glyph-name="Oslash" unicode="&#xd8;" horiz-adv-x="825" 
d="M164 -50h-70l101 115q-84 78 -84 211q0 84 35 165t94 142q60 60 140.5 95t163.5 35q104 0 178 -50l67 76h69l-96 -109q82 -79 82 -208q0 -114 -60 -215t-160.5 -160.5t-213.5 -59.5q-99 0 -173 46zM175 286q0 -104 64 -171l440 499q-62 41 -145 41q-144 0 -251.5 -110.5
t-107.5 -258.5zM718 580l-438 -498q59 -37 140 -37q143 0 251 110t108 257q0 104 -61 168z" />
    <glyph glyph-name="Ugrave" unicode="&#xd9;" horiz-adv-x="704" 
d="M144 240l85 460h62l-85 -459q-17 -93 23 -145t130 -52q91 0 152 53t78 145l85 458h60l-85 -459q-22 -119 -99 -186.5t-198 -67.5q-115 0 -172 69t-36 184zM485 790l-63 133h76l35 -133h-48z" />
    <glyph glyph-name="Uacute" unicode="&#xda;" horiz-adv-x="704" 
d="M144 240l85 460h62l-85 -459q-17 -93 23 -145t130 -52q91 0 152 53t78 145l85 458h60l-85 -459q-22 -119 -99 -186.5t-198 -67.5q-115 0 -172 69t-36 184zM514 790h-49l82 133h76z" />
    <glyph glyph-name="Ucircumflex" unicode="&#xdb;" horiz-adv-x="704" 
d="M144 240l85 460h62l-85 -459q-17 -93 23 -145t130 -52q91 0 152 53t78 145l85 458h60l-85 -459q-22 -119 -99 -186.5t-198 -67.5q-115 0 -172 69t-36 184zM429 790h-62l121 130h66l73 -130h-53l-56 78h-6z" />
    <glyph glyph-name="Udieresis" unicode="&#xdc;" horiz-adv-x="704" 
d="M144 240l85 460h62l-85 -459q-17 -93 23 -145t130 -52q91 0 152 53t78 145l85 458h60l-85 -459q-22 -119 -99 -186.5t-198 -67.5q-115 0 -172 69t-36 184zM378 845q0 22 18 39.5t40 17.5q18 0 29 -11t11 -27q0 -24 -17.5 -41t-40.5 -17q-17 0 -28.5 11.5t-11.5 27.5z
M540 844q0 24 17 41t41 17q17 0 28.5 -11.5t11.5 -27.5q0 -22 -17.5 -39.5t-40.5 -17.5q-18 0 -29 11t-11 27z" />
    <glyph glyph-name="Yacute" unicode="&#xdd;" horiz-adv-x="623" 
d="M332 278l-176 422h65l148 -358h6l280 358h72l-333 -422l-52 -278h-62zM477 790h-49l82 133h76z" />
    <glyph glyph-name="Thorn" unicode="&#xde;" horiz-adv-x="589" 
d="M171 0h-61l130 700h61l-26 -138h160q83 0 133.5 -45.5t50.5 -120.5q0 -109 -72 -181q-73 -71 -180 -71h-169zM265 507l-57 -308h159q78 0 132 55q55 55 55 134q0 54 -34.5 86.5t-94.5 32.5h-160z" />
    <glyph glyph-name="germandbls" unicode="&#xdf;" horiz-adv-x="608" 
d="M114 -230h-60l144 772q20 96 85 151q66 57 157 57q88 0 135 -54q47 -53 30 -137q-11 -53 -45 -92t-81 -57l-1 -6q53 -13 86.5 -53t33.5 -98q0 -112 -81.5 -189t-197.5 -77q-38 0 -80 12l11 57q40 -13 77 -13q86 0 148 59q61 58 61 142q0 59 -43 93t-110 34h-35l10 54h15
q75 0 124 48q50 48 50 116q0 48 -31.5 77t-85.5 29q-68 0 -113.5 -40.5t-58.5 -113.5z" />
    <glyph glyph-name="agrave" unicode="&#xe0;" 
d="M96 198q-2 137 90.5 237.5t217.5 97.5q76 0 119 -37t55 -81h6l19 105h59l-79 -426q-6 -43 32 -43h23l-10 -51h-39q-35 0 -52.5 20t-12.5 53l6 32h-7q-75 -118 -216 -118q-98 0 -154.5 57.5t-56.5 153.5zM158 206q0 -76 43.5 -120.5t119.5 -44.5q101 -1 172 80t69 192
q0 76 -43.5 120.5t-118.5 44.5q-98 2 -171 -80t-71 -192zM421 610l-63 133h76l35 -133h-48z" />
    <glyph glyph-name="aacute" unicode="&#xe1;" 
d="M96 198q-2 137 90.5 237.5t217.5 97.5q76 0 119 -37t55 -81h6l19 105h59l-79 -426q-6 -43 32 -43h23l-10 -51h-39q-35 0 -52.5 20t-12.5 53l6 32h-7q-75 -118 -216 -118q-98 0 -154.5 57.5t-56.5 153.5zM158 206q0 -76 43.5 -120.5t119.5 -44.5q101 -1 172 80t69 192
q0 76 -43.5 120.5t-118.5 44.5q-98 2 -171 -80t-71 -192zM450 610h-49l82 133h76z" />
    <glyph glyph-name="acircumflex" unicode="&#xe2;" 
d="M96 198q-2 137 90.5 237.5t217.5 97.5q76 0 119 -37t55 -81h6l19 105h59l-79 -426q-6 -43 32 -43h23l-10 -51h-39q-35 0 -52.5 20t-12.5 53l6 32h-7q-75 -118 -216 -118q-98 0 -154.5 57.5t-56.5 153.5zM158 206q0 -76 43.5 -120.5t119.5 -44.5q101 -1 172 80t69 192
q0 76 -43.5 120.5t-118.5 44.5q-98 2 -171 -80t-71 -192zM365 610h-62l121 130h66l73 -130h-53l-56 78h-6z" />
    <glyph glyph-name="atilde" unicode="&#xe3;" 
d="M96 198q-2 137 90.5 237.5t217.5 97.5q76 0 119 -37t55 -81h6l19 105h59l-79 -426q-6 -43 32 -43h23l-10 -51h-39q-35 0 -52.5 20t-12.5 53l6 32h-7q-75 -118 -216 -118q-98 0 -154.5 57.5t-56.5 153.5zM158 206q0 -76 43.5 -120.5t119.5 -44.5q101 -1 172 80t69 192
q0 76 -43.5 120.5t-118.5 44.5q-98 2 -171 -80t-71 -192zM324 618h-47q7 51 35.5 81.5t69.5 30.5q27 0 49.5 -16t41 -31.5t36.5 -15.5q21 0 37.5 18t20.5 45h45q-7 -51 -35 -82t-68 -31q-32 0 -68.5 32t-58.5 32t-38.5 -17.5t-19.5 -45.5z" />
    <glyph glyph-name="adieresis" unicode="&#xe4;" 
d="M96 198q-2 137 90.5 237.5t217.5 97.5q76 0 119 -37t55 -81h6l19 105h59l-79 -426q-6 -43 32 -43h23l-10 -51h-39q-35 0 -52.5 20t-12.5 53l6 32h-7q-75 -118 -216 -118q-98 0 -154.5 57.5t-56.5 153.5zM158 206q0 -76 43.5 -120.5t119.5 -44.5q101 -1 172 80t69 192
q0 76 -43.5 120.5t-118.5 44.5q-98 2 -171 -80t-71 -192zM314 665q0 22 18 39.5t40 17.5q18 0 29 -11t11 -27q0 -24 -17.5 -41t-40.5 -17q-17 0 -28.5 11t-11.5 28zM476 664q0 23 17 40.5t41 17.5q17 0 28.5 -11t11.5 -28q0 -21 -17.5 -39t-40.5 -18q-18 0 -29 10.5
t-11 27.5z" />
    <glyph glyph-name="aring" unicode="&#xe5;" 
d="M96 198q-2 137 90.5 237.5t217.5 97.5q76 0 119 -37t55 -81h6l19 105h59l-79 -426q-6 -43 32 -43h23l-10 -51h-39q-35 0 -52.5 20t-12.5 53l6 32h-7q-75 -118 -216 -118q-98 0 -154.5 57.5t-56.5 153.5zM158 206q0 -76 43.5 -120.5t119.5 -44.5q101 -1 172 80t69 192
q0 76 -43.5 120.5t-118.5 44.5q-98 2 -171 -80t-71 -192zM352 656q0 43 32 75t77 32q35 0 56.5 -19.5t21.5 -51.5q0 -47 -30 -77.5t-80 -30.5q-34 0 -55.5 20t-21.5 52zM393 662q0 -19 11.5 -30t31.5 -11q25 0 43.5 19t18.5 45q0 18 -12 29t-32 11q-25 0 -43 -18.5
t-18 -44.5z" />
    <glyph glyph-name="ae" unicode="&#xe6;" horiz-adv-x="1008" 
d="M96 123q0 77 59.5 123t156.5 46h189l9 51q11 58 -24.5 96t-103.5 38q-62 0 -105.5 -30t-55.5 -76h-63q16 72 80 117t154 45q70 0 114.5 -32t54.5 -88h6q36 57 97.5 88.5t134.5 31.5q118 0 172 -74q54 -73 31 -190l-6 -28h-443q-15 -89 29 -145t133 -56q65 0 118.5 31
t78.5 82h64q-34 -74 -108 -121q-72 -45 -163 -45q-77 0 -129.5 36.5t-67.5 99.5h-6q-82 -135 -235 -136q-77 -1 -124 37t-47 99zM159 128q0 -39 31.5 -62.5t86.5 -23.5q88 0 143.5 53.5t66.5 118.5l5 27h-184q-67 0 -108 -31t-41 -82zM564 292h382q13 87 -30 137.5
t-126 50.5q-79 0 -143.5 -52t-82.5 -136z" />
    <glyph glyph-name="ccedilla" unicode="&#xe7;" horiz-adv-x="629" 
d="M96 208q0 134 93 229.5t229 95.5q86 0 148 -50q61 -49 64 -134h-62q-5 57 -49.5 93t-108.5 36q-101 2 -177 -79t-74 -185q0 -78 46.5 -125t124.5 -47q65 0 123 35q57 36 82 94h62q-29 -83 -102 -132q-71 -49 -165 -52l-21 -45h6q14 13 38 13q27 0 43.5 -17.5t16.5 -45.5
q0 -40 -28.5 -68.5t-70.5 -28.5q-33 0 -54.5 21t-16.5 53h40q0 -16 9.5 -25.5t25.5 -9.5q21 0 37 16t16 37q0 15 -9.5 25t-27.5 10q-23 0 -37 -18h-42l34 85q-89 9 -141 69q-52 61 -52 150z" />
    <glyph glyph-name="egrave" unicode="&#xe8;" horiz-adv-x="613" 
d="M96 203q-2 137 87 234.5t220 95.5q118 0 173 -73.5t32 -190.5l-6 -31h-440q-11 -89 31 -143.5t128 -54.5q62 0 116.5 31t81.5 82h63q-30 -73 -104 -120q-73 -46 -167 -46q-101 0 -158 60t-57 156zM173 292h376q11 87 -30.5 136.5t-122.5 49.5q-78 0 -141 -51
q-62 -51 -82 -135zM404 610l-63 133h76l35 -133h-48z" />
    <glyph glyph-name="eacute" unicode="&#xe9;" horiz-adv-x="613" 
d="M96 203q-2 137 87 234.5t220 95.5q118 0 173 -73.5t32 -190.5l-6 -31h-440q-11 -89 31 -143.5t128 -54.5q62 0 116.5 31t81.5 82h63q-30 -73 -104 -120q-73 -46 -167 -46q-101 0 -158 60t-57 156zM173 292h376q11 87 -30.5 136.5t-122.5 49.5q-78 0 -141 -51
q-62 -51 -82 -135zM433 610h-49l82 133h76z" />
    <glyph glyph-name="ecircumflex" unicode="&#xea;" horiz-adv-x="613" 
d="M96 203q-2 137 87 234.5t220 95.5q118 0 173 -73.5t32 -190.5l-6 -31h-440q-11 -89 31 -143.5t128 -54.5q62 0 116.5 31t81.5 82h63q-30 -73 -104 -120q-73 -46 -167 -46q-101 0 -158 60t-57 156zM173 292h376q11 87 -30.5 136.5t-122.5 49.5q-78 0 -141 -51
q-62 -51 -82 -135zM348 610h-62l121 130h66l73 -130h-53l-56 78h-6z" />
    <glyph glyph-name="edieresis" unicode="&#xeb;" horiz-adv-x="613" 
d="M96 203q-2 137 87 234.5t220 95.5q118 0 173 -73.5t32 -190.5l-6 -31h-440q-11 -89 31 -143.5t128 -54.5q62 0 116.5 31t81.5 82h63q-30 -73 -104 -120q-73 -46 -167 -46q-101 0 -158 60t-57 156zM173 292h376q11 87 -30.5 136.5t-122.5 49.5q-78 0 -141 -51
q-62 -51 -82 -135zM297 665q0 22 18 39.5t40 17.5q18 0 29 -11t11 -27q0 -24 -17.5 -41t-40.5 -17q-17 0 -28.5 11t-11.5 28zM459 664q0 23 17 40.5t41 17.5q17 0 28.5 -11t11.5 -28q0 -21 -18 -39t-40 -18q-19 0 -29.5 10.5t-10.5 27.5z" />
    <glyph glyph-name="igrave" unicode="&#xec;" horiz-adv-x="269" 
d="M115 87l79 433h60l-78 -423q-8 -44 32 -44h23l-10 -53h-34q-41 0 -60 23t-12 64zM228 610l-63 133h76l35 -133h-48z" />
    <glyph glyph-name="iacute" unicode="&#xed;" horiz-adv-x="269" 
d="M115 87l79 433h60l-78 -423q-8 -44 32 -44h23l-10 -53h-34q-41 0 -60 23t-12 64zM257 610h-49l82 133h76z" />
    <glyph glyph-name="icircumflex" unicode="&#xee;" horiz-adv-x="269" 
d="M172 610h-62l121 130h66l73 -130h-53l-56 78h-6zM115 87l79 433h60l-78 -423q-8 -44 32 -44h23l-10 -53h-34q-41 0 -60 23t-12 64z" />
    <glyph glyph-name="idieresis" unicode="&#xef;" horiz-adv-x="269" 
d="M115 87l79 433h60l-78 -423q-8 -44 32 -44h23l-10 -53h-34q-41 0 -60 23t-12 64zM121 665q0 22 18 39.5t40 17.5q18 0 29 -11t11 -27q0 -24 -17 -41t-41 -17q-17 0 -28.5 11t-11.5 28zM283 664q0 23 17 40.5t41 17.5q17 0 28.5 -11t11.5 -28q0 -22 -17.5 -39.5
t-40.5 -17.5q-18 0 -29 10.5t-11 27.5z" />
    <glyph glyph-name="eth" unicode="&#xf0;" horiz-adv-x="623" 
d="M95 194q0 126 88 217t214 91q51 0 85 -19.5t50 -40.5h6q-12 43 -41 86t-63 71l-178 -65l8 47l135 51q-51 39 -107 70l48 28q69 -31 122 -77l144 52l-9 -48l-101 -37q128 -122 128 -295q3 -139 -91.5 -240t-225.5 -98q-98 0 -155 58q-57 59 -57 149zM157 204
q0 -73 43.5 -118t116.5 -45q97 0 170 75.5t73 178.5q0 68 -46 111q-45 45 -117 45q-96 2 -169 -73t-71 -174z" />
    <glyph glyph-name="ntilde" unicode="&#xf1;" horiz-adv-x="614" 
d="M158 0h-60l96 520h60l-15 -85h6q27 43 76.5 70.5t107.5 27.5q89 0 132 -57q44 -57 27 -143l-62 -333h-60l61 329q12 65 -23 106.5t-99 41.5q-67 0 -122 -47q-53 -46 -67 -114zM327 618h-47q7 51 35.5 81.5t69.5 30.5q34 0 71 -31.5t56 -31.5q22 0 38 18t20 45h45
q-7 -51 -34.5 -82t-68.5 -31q-33 0 -69 32t-58 32t-38.5 -17.5t-19.5 -45.5z" />
    <glyph glyph-name="ograve" unicode="&#xf2;" horiz-adv-x="645" 
d="M96 206q-3 130 94 229.5t228 97.5q103 0 165 -61q63 -62 63 -158q0 -134 -93.5 -230.5t-228.5 -96.5q-101 0 -165 61q-63 62 -63 158zM158 214q0 -77 47 -124.5t125 -47.5q102 -2 179.5 77.5t74.5 186.5q0 76 -47.5 124t-125.5 48q-101 2 -178 -78t-75 -186zM424 610
l-63 133h76l35 -133h-48z" />
    <glyph glyph-name="oacute" unicode="&#xf3;" horiz-adv-x="645" 
d="M96 206q-3 130 94 229.5t228 97.5q103 0 165 -61q63 -62 63 -158q0 -134 -93.5 -230.5t-228.5 -96.5q-101 0 -165 61q-63 62 -63 158zM158 214q0 -77 47 -124.5t125 -47.5q102 -2 179.5 77.5t74.5 186.5q0 76 -47.5 124t-125.5 48q-101 2 -178 -78t-75 -186zM453 610h-49
l82 133h76z" />
    <glyph glyph-name="ocircumflex" unicode="&#xf4;" horiz-adv-x="645" 
d="M96 206q-3 130 94 229.5t228 97.5q103 0 165 -61q63 -62 63 -158q0 -134 -93.5 -230.5t-228.5 -96.5q-101 0 -165 61q-63 62 -63 158zM158 214q0 -77 47 -124.5t125 -47.5q102 -2 179.5 77.5t74.5 186.5q0 76 -47.5 124t-125.5 48q-101 2 -178 -78t-75 -186zM368 610h-62
l121 130h66l73 -130h-53l-56 78h-6z" />
    <glyph glyph-name="otilde" unicode="&#xf5;" horiz-adv-x="645" 
d="M96 206q-3 130 94 229.5t228 97.5q103 0 165 -61q63 -62 63 -158q0 -134 -93.5 -230.5t-228.5 -96.5q-101 0 -165 61q-63 62 -63 158zM158 214q0 -77 47 -124.5t125 -47.5q102 -2 179.5 77.5t74.5 186.5q0 76 -47.5 124t-125.5 48q-101 2 -178 -78t-75 -186zM327 618h-47
q7 51 35.5 81.5t69.5 30.5q34 0 71 -31.5t56 -31.5q22 0 38 18t20 45h45q-7 -51 -34.5 -82t-68.5 -31q-33 0 -69 32t-58 32t-38.5 -17.5t-19.5 -45.5z" />
    <glyph glyph-name="odieresis" unicode="&#xf6;" horiz-adv-x="645" 
d="M96 206q-3 130 94 229.5t228 97.5q103 0 165 -61q63 -62 63 -158q0 -134 -93.5 -230.5t-228.5 -96.5q-101 0 -165 61q-63 62 -63 158zM158 214q0 -77 47 -124.5t125 -47.5q102 -2 179.5 77.5t74.5 186.5q0 76 -47.5 124t-125.5 48q-101 2 -178 -78t-75 -186zM317 665
q0 22 18 39.5t40 17.5q18 0 29 -11t11 -27q0 -24 -17.5 -41t-40.5 -17q-17 0 -28.5 11t-11.5 28zM479 664q0 23 17 40.5t41 17.5q17 0 28.5 -11t11.5 -28q0 -21 -17.5 -39t-40.5 -18q-19 0 -29.5 10.5t-10.5 27.5z" />
    <glyph glyph-name="divide" unicode="&#xf7;" horiz-adv-x="480" 
d="M528 286h-470l10 51h470zM221 132q0 20 16.5 36.5t36.5 16.5q16 0 26.5 -10.5t10.5 -25.5q0 -21 -16 -37t-37 -16q-16 0 -26.5 10.5t-10.5 25.5zM285 474q0 20 16.5 36.5t36.5 16.5q16 0 26 -10.5t10 -25.5q0 -21 -16 -37t-36 -16q-16 0 -26.5 10.5t-10.5 25.5z" />
    <glyph glyph-name="oslash" unicode="&#xf8;" horiz-adv-x="645" 
d="M144 -54h-54l78 95q-72 61 -72 165q-3 130 94 229.5t228 97.5q68 0 126 -32l57 69h55l-77 -94q67 -62 67 -162q0 -134 -93.5 -230.5t-228.5 -96.5q-68 0 -122 30zM158 214q0 -76 48 -126l300 366q-40 24 -95 24q-101 2 -178 -78t-75 -186zM539 428l-299 -365
q40 -21 90 -21q102 -2 179.5 77.5t74.5 186.5q0 74 -45 122z" />
    <glyph glyph-name="ugrave" unicode="&#xf9;" horiz-adv-x="604" 
d="M123 187l62 333h60l-61 -330q-13 -68 21 -108t100 -40q69 0 122 46t67 115l59 317h60l-97 -520h-60l15 85h-6q-26 -44 -74 -71t-109 -27q-89 0 -131.5 57t-27.5 143zM402 610l-63 133h76l35 -133h-48z" />
    <glyph glyph-name="uacute" unicode="&#xfa;" horiz-adv-x="604" 
d="M123 187l62 333h60l-61 -330q-13 -68 21 -108t100 -40q69 0 122 46t67 115l59 317h60l-97 -520h-60l15 85h-6q-26 -44 -74 -71t-109 -27q-89 0 -131.5 57t-27.5 143zM431 610h-49l82 133h76z" />
    <glyph glyph-name="ucircumflex" unicode="&#xfb;" horiz-adv-x="604" 
d="M123 187l62 333h60l-61 -330q-13 -68 21 -108t100 -40q69 0 122 46t67 115l59 317h60l-97 -520h-60l15 85h-6q-26 -44 -74 -71t-109 -27q-89 0 -131.5 57t-27.5 143zM346 610h-62l121 130h66l73 -130h-53l-56 78h-6z" />
    <glyph glyph-name="udieresis" unicode="&#xfc;" horiz-adv-x="604" 
d="M123 187l62 333h60l-61 -330q-13 -68 21 -108t100 -40q69 0 122 46t67 115l59 317h60l-97 -520h-60l15 85h-6q-26 -44 -74 -71t-109 -27q-89 0 -131.5 57t-27.5 143zM295 665q0 22 18 39.5t40 17.5q18 0 29 -11t11 -27q0 -24 -17.5 -41t-40.5 -17q-17 0 -28.5 11
t-11.5 28zM457 664q0 23 17 40.5t41 17.5q17 0 28.5 -11t11.5 -28q0 -21 -17.5 -39t-40.5 -18q-18 0 -29 10.5t-11 27.5z" />
    <glyph glyph-name="yacute" unicode="&#xfd;" horiz-adv-x="604" 
d="M66 -84h56q0 -106 130 -106q87 0 135.5 45.5t66.5 134.5l17 95h-6q-25 -42 -75 -70t-108 -28q-89 0 -131.5 57t-27.5 143l62 333h60l-61 -330q-12 -64 23 -107q35 -41 98 -41q69 0 122 46t67 115l59 317h60l-99 -530q-22 -118 -88.5 -175.5t-182.5 -57.5
q-90 0 -135.5 42.5t-41.5 116.5zM431 610h-49l82 133h76z" />
    <glyph glyph-name="thorn" unicode="&#xfe;" horiz-adv-x="665" 
d="M116 -230h-60l181 980h60l-62 -333h6q24 39 72 73q60 43 141 43q98 0 155 -56.5t57 -153.5q2 -88 -40.5 -166.5t-115 -125t-152.5 -44.5q-76 0 -119 37t-55 81h-6zM200 207q0 -77 43.5 -121t118.5 -44q97 -3 170.5 80t71.5 192q0 76 -43.5 120.5t-119.5 44.5
q-97 3 -170 -80t-71 -192z" />
    <glyph glyph-name="ydieresis" unicode="&#xff;" horiz-adv-x="604" 
d="M66 -84h56q0 -106 130 -106q87 0 135.5 45.5t66.5 134.5l17 95h-6q-25 -42 -75 -70t-108 -28q-89 0 -131.5 57t-27.5 143l62 333h60l-61 -330q-12 -64 23 -107q35 -41 98 -41q69 0 122 46t67 115l59 317h60l-99 -530q-22 -118 -88.5 -175.5t-182.5 -57.5
q-90 0 -135.5 42.5t-41.5 116.5zM295 665q0 22 18 39.5t40 17.5q18 0 29 -11t11 -27q0 -24 -17.5 -41t-40.5 -17q-17 0 -28.5 11t-11.5 28zM457 664q0 23 17 40.5t41 17.5q17 0 28.5 -11t11.5 -28q0 -21 -17.5 -39t-40.5 -18q-18 0 -29 10.5t-11 27.5z" />
    <glyph glyph-name="Amacron" unicode="&#x100;" 
d="M96 0h-70l402 700h76l143 -700h-65l-35 176h-352zM450 629l-225 -396h310l-79 396h-6zM615 824h-242l9 51h242z" />
    <glyph glyph-name="amacron" unicode="&#x101;" 
d="M96 198q-2 137 90.5 237.5t217.5 97.5q76 0 119 -37t55 -81h6l19 105h59l-79 -426q-6 -43 32 -43h23l-10 -51h-39q-35 0 -52.5 20t-12.5 53l6 32h-7q-75 -118 -216 -118q-98 0 -154.5 57.5t-56.5 153.5zM158 206q0 -76 43.5 -120.5t119.5 -44.5q101 -1 172 80t69 192
q0 76 -43.5 120.5t-118.5 44.5q-98 2 -171 -80t-71 -192zM562 644h-242l9 51h242z" />
    <glyph glyph-name="Abreve" unicode="&#x102;" 
d="M96 0h-70l402 700h76l143 -700h-65l-35 176h-352zM450 629l-225 -396h310l-79 396h-6zM384 915h46q-13 -83 62 -83q37 0 61.5 22.5t30.5 60.5h52q-10 -57 -49 -91.5t-100 -34.5t-89 35.5t-14 90.5z" />
    <glyph glyph-name="abreve" unicode="&#x103;" 
d="M96 198q-2 137 90.5 237.5t217.5 97.5q76 0 119 -37t55 -81h6l19 105h59l-79 -426q-6 -43 32 -43h23l-10 -51h-39q-35 0 -52.5 20t-12.5 53l6 32h-7q-75 -118 -216 -118q-98 0 -154.5 57.5t-56.5 153.5zM158 206q0 -76 43.5 -120.5t119.5 -44.5q101 -1 172 80t69 192
q0 76 -43.5 120.5t-118.5 44.5q-98 2 -171 -80t-71 -192zM331 735h46q-13 -83 62 -83q37 0 61 22.5t31 60.5h52q-10 -57 -49 -91.5t-100 -34.5q-60 0 -88.5 35.5t-14.5 90.5z" />
    <glyph glyph-name="Aogonek" unicode="&#x104;" 
d="M96 0h-70l402 700h76l143 -700l-59 -59q-29 -27 -32 -53q0 -14 10.5 -22.5t26.5 -8.5h28l-9 -49h-42q-32 0 -53 17t-21 45t18 53q9 12 29 32l45 45h-6l-35 176h-352zM450 629l-225 -396h310l-79 396h-6z" />
    <glyph glyph-name="aogonek" unicode="&#x105;" 
d="M96 198q-2 137 90.5 237.5t217.5 97.5q76 0 119 -37t55 -81h6l19 105h59l-79 -426q-6 -43 32 -43h23l-10 -51h-3l-59 -59q-29 -27 -32 -53q0 -14 10.5 -22.5t26.5 -8.5h28l-9 -49h-42q-32 0 -53 17t-21 45t18 53q9 12 29 32l47 47q-52 12 -44 71l6 32h-7
q-75 -118 -216 -118q-98 0 -154.5 57.5t-56.5 153.5zM158 206q0 -76 43.5 -120.5t119.5 -44.5q101 -1 172 80t69 192q0 76 -43.5 120.5t-118.5 44.5q-98 2 -171 -80t-71 -192z" />
    <glyph glyph-name="Cacute" unicode="&#x106;" horiz-adv-x="808" 
d="M111 277q0 85 33 165t91 140q58 61 138.5 96t168.5 35q117 0 194 -65t92 -172h-66q-14 84 -75.5 131.5t-154.5 47.5q-143 0 -250 -111t-107 -257q0 -108 67 -175t177 -67q96 0 174 47.5t120 131.5h69q-49 -112 -146 -174.5t-228 -62.5q-134 0 -216 81q-81 81 -81 209z
M571 790h-49l82 133h76z" />
    <glyph glyph-name="cacute" unicode="&#x107;" horiz-adv-x="629" 
d="M96 208q0 134 93 229.5t229 95.5q86 0 148 -50q61 -49 64 -134h-62q-5 57 -49.5 93t-108.5 36q-101 2 -177 -79t-74 -185q0 -78 46.5 -125t124.5 -47q65 0 123 35q57 36 82 94h62q-30 -86 -106 -135t-173 -49q-100 0 -162 62q-60 61 -60 159zM445 609h-49l82 133h76z" />
    <glyph glyph-name="Cdotaccent" unicode="&#x10a;" horiz-adv-x="808" 
d="M111 277q0 85 33 165t91 140q58 61 138.5 96t168.5 35q117 0 194 -65t92 -172h-66q-14 84 -75.5 131.5t-154.5 47.5q-143 0 -250 -111t-107 -257q0 -108 67 -175t177 -67q96 0 174 47.5t120 131.5h69q-49 -112 -146 -174.5t-228 -62.5q-134 0 -216 81q-81 81 -81 209z
M520 846q0 23 17.5 40t40.5 17q18 0 29 -10.5t11 -27.5q0 -23 -17 -40.5t-41 -17.5q-18 0 -29 11t-11 28z" />
    <glyph glyph-name="cdotaccent" unicode="&#x10b;" horiz-adv-x="629" 
d="M96 208q0 134 93 229.5t229 95.5q86 0 148 -50q61 -49 64 -134h-62q-5 57 -49.5 93t-108.5 36q-101 2 -177 -79t-74 -185q0 -78 46.5 -125t124.5 -47q65 0 123 35q57 36 82 94h62q-30 -86 -106 -135t-173 -49q-100 0 -162 62q-60 61 -60 159zM395 665q0 23 17.5 40
t40.5 17q18 0 29 -10.5t11 -27.5q0 -23 -17 -40.5t-41 -17.5q-18 0 -29 11t-11 28z" />
    <glyph glyph-name="Ccaron" unicode="&#x10c;" horiz-adv-x="808" 
d="M111 277q0 85 33 165t91 140q58 61 138.5 96t168.5 35q117 0 194 -65t92 -172h-66q-14 84 -75.5 131.5t-154.5 47.5q-143 0 -250 -111t-107 -257q0 -108 67 -175t177 -67q96 0 174 47.5t120 131.5h69q-49 -112 -146 -174.5t-228 -62.5q-134 0 -216 81q-81 81 -81 209z
M522 790l-73 130h54l55 -78h6l84 78h61l-121 -130h-66z" />
    <glyph glyph-name="ccaron" unicode="&#x10d;" horiz-adv-x="629" 
d="M96 208q0 134 93 229.5t229 95.5q86 0 148 -50q61 -49 64 -134h-62q-5 57 -49.5 93t-108.5 36q-101 2 -177 -79t-74 -185q0 -78 46.5 -125t124.5 -47q65 0 123 35q57 36 82 94h62q-30 -86 -106 -135t-173 -49q-100 0 -162 62q-60 61 -60 159zM396 609l-73 130h54l55 -78
h6l84 78h61l-121 -130h-66z" />
    <glyph glyph-name="Dcaron" unicode="&#x10e;" horiz-adv-x="710" 
d="M309 0h-199l130 700h195q138 0 217 -74q78 -74 78 -198q0 -185 -117.5 -306.5t-303.5 -121.5zM290 644l-109 -589h134q151 0 251 104.5t100 260.5q0 103 -64 163.5t-177 60.5h-135zM436 791l-73 130h54l55 -78h6l84 78h61l-121 -130h-66z" />
    <glyph glyph-name="dcaron" unicode="&#x10f;" horiz-adv-x="728" 
d="M96 198q0 137 91 236t217 99q76 0 119 -37t55 -81h6l62 335h60l-122 -655q-6 -43 32 -43h24l-10 -52h-41q-36 0 -54 20t-13 51l6 32h-7q-24 -42 -78.5 -79t-135.5 -37q-98 0 -154.5 57t-56.5 154zM158 206q0 -76 43.5 -120.5t119.5 -44.5q101 -1 172 80t69 192
q0 76 -43.5 120.5t-118.5 44.5q-98 3 -171 -80t-71 -192zM793 569h-49l34 181h69z" />
    <glyph glyph-name="Dcroat" unicode="&#x110;" horiz-adv-x="754" 
d="M354 0h-186l61 327h-59l10 55h59l59 318h186q136 0 213 -74t77 -196q0 -185 -119.5 -307.5t-300.5 -122.5zM290 327l-50 -272h124q97 0 176.5 47.5t124.5 131.5t45 187t-63 163t-174 60h-124l-48 -262h163l-10 -55h-164z" />
    <glyph glyph-name="dslash" unicode="&#x111;" horiz-adv-x="676" 
d="M96 198q0 137 91 236t217 99q76 0 119 -37t55 -81h6l36 195h-182l10 49h181l17 91h60l-17 -91h60l-9 -49h-60l-96 -515q-6 -43 32 -43h24l-10 -52h-41q-36 0 -54 20t-13 51l6 32h-7q-24 -42 -78.5 -79t-135.5 -37q-98 0 -154.5 57t-56.5 154zM158 206q0 -76 43.5 -120.5
t119.5 -44.5q101 -1 172 80t69 192q0 76 -43.5 120.5t-118.5 44.5q-98 3 -171 -80t-71 -192z" />
    <glyph glyph-name="Emacron" unicode="&#x112;" horiz-adv-x="563" 
d="M505 0h-395l130 700h387l-11 -56h-326l-48 -260h282l-11 -55h-281l-50 -273h334zM586 824h-242l9 51h242z" />
    <glyph glyph-name="emacron" unicode="&#x113;" horiz-adv-x="613" 
d="M96 203q-2 137 87 234.5t220 95.5q118 0 173 -73.5t32 -190.5l-6 -31h-440q-11 -89 31 -143.5t128 -54.5q62 0 116.5 31t81.5 82h63q-30 -73 -104 -120q-73 -46 -167 -46q-101 0 -158 60t-57 156zM173 292h376q11 87 -30.5 136.5t-122.5 49.5q-78 0 -141 -51
q-62 -51 -82 -135zM544 644h-242l9 51h242z" />
    <glyph glyph-name="Edotaccent" unicode="&#x116;" horiz-adv-x="563" 
d="M505 0h-395l130 700h387l-11 -56h-326l-48 -260h282l-11 -55h-281l-50 -273h334zM424 846q0 23 17 40t41 17q18 0 29 -10.5t11 -27.5q0 -23 -17 -40.5t-41 -17.5q-18 0 -29 11t-11 28z" />
    <glyph glyph-name="edotaccent" unicode="&#x117;" horiz-adv-x="613" 
d="M96 203q-2 137 87 234.5t220 95.5q118 0 173 -73.5t32 -190.5l-6 -31h-440q-11 -89 31 -143.5t128 -54.5q62 0 116.5 31t81.5 82h63q-30 -73 -104 -120q-73 -46 -167 -46q-101 0 -158 60t-57 156zM173 292h376q11 87 -30.5 136.5t-122.5 49.5q-78 0 -141 -51
q-62 -51 -82 -135zM383 666q0 23 17.5 40t40.5 17q18 0 29 -10.5t11 -27.5q0 -23 -17 -40.5t-41 -17.5q-18 0 -29 11t-11 28z" />
    <glyph glyph-name="Eogonek" unicode="&#x118;" horiz-adv-x="563" 
d="M435 0h-325l130 700h387l-11 -56h-326l-48 -260h282l-11 -55h-281l-50 -273h334l-11 -56h-11l-59 -59l-15 -15q-17 -24 -17 -38t10.5 -22.5t26.5 -8.5h28l-9 -49h-42q-32 0 -53 17t-21 45q0 17 11 42q6 9 13 18q8 10 23 25z" />
    <glyph glyph-name="eogonek" unicode="&#x119;" horiz-adv-x="613" 
d="M403 533q118 0 173 -73.5t32 -190.5l-6 -31h-440q-11 -89 31 -143.5t128 -54.5q62 0 116.5 31t81.5 82h63q-26 -67 -89 -111t-144 -53l-50 -50q-29 -27 -32 -53q0 -14 11 -22.5t26 -8.5h28l-9 -49h-42q-32 0 -53 17t-21 45t18 53q9 12 29 32l35 35q-90 6 -141.5 64.5
t-51.5 150.5q-2 137 87 234.5t220 95.5zM173 292h376q11 87 -30.5 136.5t-122.5 49.5q-78 0 -141 -51q-62 -51 -82 -135z" />
    <glyph glyph-name="Ecaron" unicode="&#x11a;" horiz-adv-x="563" 
d="M505 0h-395l130 700h387l-11 -56h-326l-48 -260h282l-11 -55h-281l-50 -273h334zM426 790l-73 130h54l55 -78h6l84 78h61l-121 -130h-66z" />
    <glyph glyph-name="ecaron" unicode="&#x11b;" horiz-adv-x="613" 
d="M96 203q-2 137 87 234.5t220 95.5q118 0 173 -73.5t32 -190.5l-6 -31h-440q-11 -89 31 -143.5t128 -54.5q62 0 116.5 31t81.5 82h63q-30 -73 -104 -120q-73 -46 -167 -46q-101 0 -158 60t-57 156zM173 292h376q11 87 -30.5 136.5t-122.5 49.5q-78 0 -141 -51
q-62 -51 -82 -135zM384 610l-73 130h54l55 -78h6l84 78h61l-121 -130h-66z" />
    <glyph glyph-name="Gbreve" unicode="&#x11e;" horiz-adv-x="814" 
d="M111 276q0 86 33.5 166.5t91.5 140.5q58 61 138.5 95.5t167.5 34.5q118 0 194 -64q77 -65 93 -166h-68q-16 80 -76.5 126t-152.5 46q-146 0 -251.5 -109t-105.5 -261q0 -108 66 -174t179 -66q120 -1 214.5 76.5t114.5 187.5h-300l10 55h369q-26 -180 -143.5 -278.5
t-274.5 -98.5q-134 0 -217 80q-82 81 -82 209zM456 915h46q-13 -83 62 -83q37 0 61 22.5t31 60.5h52q-10 -57 -49 -91.5t-100 -34.5q-60 0 -88.5 35.5t-14.5 90.5z" />
    <glyph glyph-name="gbreve" unicode="&#x11f;" horiz-adv-x="654" 
d="M82 -84h57q2 -51 40.5 -78.5t104.5 -27.5q91 0 149 47.5t73 132.5l21 113h-6q-24 -41 -80.5 -79t-133.5 -37q-98 0 -155 57t-57 154q0 137 91 236t217 99q76 0 119 -37t55 -81h6l19 105h60l-98 -530q-21 -113 -94 -173t-194 -60q-92 0 -143 43t-51 116zM157 206
q0 -76 43.5 -120.5t119.5 -44.5q98 0 169.5 80t71.5 192q0 76 -43.5 120.5t-118.5 44.5q-98 3 -171 -80t-71 -192zM337 735h46q-15 -83 62 -83q37 0 61.5 22.5t30.5 60.5h52q-10 -56 -49.5 -91t-100.5 -35q-60 0 -88 35.5t-14 90.5z" />
    <glyph glyph-name="Gdotaccent" unicode="&#x120;" horiz-adv-x="814" 
d="M111 276q0 86 33.5 166.5t91.5 140.5q58 61 138.5 95.5t167.5 34.5q118 0 194 -64q77 -65 93 -166h-68q-16 80 -76.5 126t-152.5 46q-146 0 -251.5 -109t-105.5 -261q0 -108 66 -174t179 -66q120 -1 214.5 76.5t114.5 187.5h-300l10 55h369q-26 -180 -143.5 -278.5
t-274.5 -98.5q-134 0 -217 80q-82 81 -82 209zM524 846q0 23 17.5 40t40.5 17q18 0 29 -10.5t11 -27.5q0 -23 -17 -40.5t-41 -17.5q-18 0 -29 11t-11 28z" />
    <glyph glyph-name="gdotaccent" unicode="&#x121;" horiz-adv-x="654" 
d="M82 -84h57q2 -51 40.5 -78.5t104.5 -27.5q91 0 149 47.5t73 132.5l21 113h-6q-24 -41 -80.5 -79t-133.5 -37q-98 0 -155 57t-57 154q0 137 91 236t217 99q76 0 119 -37t55 -81h6l19 105h60l-98 -530q-21 -113 -94 -173t-194 -60q-92 0 -143 43t-51 116zM157 206
q0 -76 43.5 -120.5t119.5 -44.5q98 0 169.5 80t71.5 192q0 76 -43.5 120.5t-118.5 44.5q-98 3 -171 -80t-71 -192zM406 666q0 23 17.5 40t40.5 17q18 0 29 -10.5t11 -27.5q0 -23 -17 -40.5t-41 -17.5q-18 0 -29 11t-11 28z" />
    <glyph glyph-name="uni0122" unicode="&#x122;" horiz-adv-x="814" 
d="M111 276q0 86 33.5 166.5t91.5 140.5q58 61 138.5 95.5t167.5 34.5q118 0 194 -64q77 -65 93 -166h-68q-16 80 -76.5 126t-152.5 46q-146 0 -251.5 -109t-105.5 -261q0 -108 66 -174t179 -66q120 -1 214.5 76.5t114.5 187.5h-300l10 55h369q-26 -180 -143.5 -278.5
t-274.5 -98.5q-134 0 -217 80q-82 81 -82 209zM370 -219h-46l46 159h64z" />
    <glyph glyph-name="uni0123" unicode="&#x123;" horiz-adv-x="654" 
d="M82 -84h57q2 -51 40.5 -78.5t104.5 -27.5q91 0 149 47.5t73 132.5l21 113h-6q-24 -41 -80.5 -79t-133.5 -37q-98 0 -155 57t-57 154q0 137 91 236t217 99q76 0 119 -37t55 -81h6l19 105h60l-98 -530q-21 -113 -94 -173t-194 -60q-92 0 -143 43t-51 116zM157 206
q0 -76 43.5 -120.5t119.5 -44.5q98 0 169.5 80t71.5 192q0 76 -43.5 120.5t-118.5 44.5q-98 3 -171 -80t-71 -192zM446 611h-63l64 159h46z" />
    <glyph glyph-name="Hcircumflex" unicode="&#x124;" horiz-adv-x="736" 
d="M171 0h-61l130 700h61l-59 -315h394l59 315h61l-130 -700h-61l60 328h-393zM449 790h-62l121 130h66l73 -130h-53l-56 78h-6z" />
    <glyph glyph-name="hcircumflex" unicode="&#x125;" horiz-adv-x="619" 
d="M158 0h-60l139 750h60l-58 -316h6q27 44 77.5 71.5t109.5 27.5q88 0 132.5 -57.5t27.5 -142.5l-62 -333h-60l61 329q12 65 -23.5 106.5t-100.5 41.5q-67 0 -122 -46q-55 -45 -67 -111zM211 790h-62l121 130h66l73 -130h-53l-56 78h-6z" />
    <glyph glyph-name="Hbar" unicode="&#x126;" horiz-adv-x="848" 
d="M228 0h-61l98 530h-57l10 54h57l22 116h61l-21 -116h393l22 116h61l-22 -116h56l-10 -54h-56l-98 -530h-61l60 328h-393zM327 530l-27 -145h393l27 145h-393z" />
    <glyph glyph-name="hbar" unicode="&#x127;" horiz-adv-x="612" 
d="M158 0h-60l113 610h-70l9 49h70l17 91h60l-17 -91h171l-9 -49h-171l-32 -176h6q27 44 77.5 71.5t109.5 27.5q88 0 132.5 -57.5t27.5 -142.5l-62 -333h-60l61 329q12 65 -23.5 106.5t-100.5 41.5q-67 0 -122 -46q-55 -45 -67 -111z" />
    <glyph glyph-name="Imacron" unicode="&#x12a;" horiz-adv-x="281" 
d="M171 0h-61l130 700h61zM417 824h-242l9 51h242z" />
    <glyph glyph-name="imacron" unicode="&#x12b;" horiz-adv-x="269" 
d="M115 87l79 433h60l-78 -423q-8 -44 32 -44h23l-10 -53h-34q-41 0 -60 23t-12 64zM368 644h-242l9 51h242z" />
    <glyph glyph-name="Iogonek" unicode="&#x12e;" horiz-adv-x="281" 
d="M20 -130q0 28 18 53q9 12 29 32l45 45h-2l130 700h61l-130 -700l-59 -59q-29 -27 -32 -53q0 -14 11 -22.5t26 -8.5h28l-9 -49h-42q-32 0 -53 17t-21 45z" />
    <glyph glyph-name="iogonek" unicode="&#x12f;" horiz-adv-x="304" 
d="M70 -130q0 17 11 42q6 9 13 18q13 15 23 25l47 47q-29 7 -42 29t-7 56l79 433h60l-78 -423q-8 -44 32 -44h23l-10 -53l-59 -59l-15 -15q-17 -24 -17 -38t10.5 -22.5t26.5 -8.5h28l-9 -49h-42q-32 0 -53 17t-21 45zM207 666q0 23 17.5 40t40.5 17q18 0 29 -10.5t11 -27.5
q0 -23 -17.5 -40.5t-41.5 -17.5q-17 0 -28 11t-11 28z" />
    <glyph glyph-name="Idot" unicode="&#x130;" horiz-adv-x="281" 
d="M171 0h-61l130 700h61zM255 846q0 23 17.5 40t40.5 17q18 0 29 -10.5t11 -27.5q0 -23 -17 -40.5t-41 -17.5q-18 0 -29 11t-11 28z" />
    <glyph glyph-name="dotlessi" unicode="&#x131;" horiz-adv-x="269" 
d="M115 87l79 433h60l-78 -423q-8 -44 32 -44h23l-10 -53h-34q-41 0 -60 23t-12 64z" />
    <glyph glyph-name="Jcircumflex" unicode="&#x134;" horiz-adv-x="578" 
d="M79 181h59q-8 -64 26.5 -100.5t105.5 -36.5q81 0 128.5 47t59.5 118l81 435h-277l11 56h338l-91 -490q-18 -98 -83 -160.5t-178 -62.5q-88 0 -141 51t-39 143zM384 790h-62l121 130h66l73 -130h-53l-56 78h-6z" />
    <glyph glyph-name="jcircumflex" unicode="&#x135;" horiz-adv-x="289" 
d="M-8 -230h-31l10 55h31q50 0 83 29t43 81l109 585h60l-108 -586q-16 -80 -67 -122t-130 -42zM216 610h-62l121 130h66l73 -130h-53l-56 78h-6z" />
    <glyph glyph-name="uni0136" unicode="&#x136;" horiz-adv-x="612" 
d="M171 0h-61l130 700h61l-70 -375h6l389 375h80l-310 -296l131 -303q20 -45 57 -45h28l-10 -56h-32q-63 0 -93 68l-128 291l-136 -130zM290 -219h-46l46 159h64z" />
    <glyph glyph-name="uni0137" unicode="&#x137;" horiz-adv-x="529" 
d="M158 0h-60l139 750h60l-92 -495h6l293 265h80l-230 -208l87 -216q18 -45 55 -45h28l-10 -51h-33q-64 0 -89 67l-83 204l-119 -106zM247 -219h-46l46 159h64z" />
    <glyph glyph-name="kgreenlandic" unicode="&#x138;" horiz-adv-x="534" 
d="M158 0h-60l96 520h60l-49 -265h6l294 265h79l-231 -207l88 -217q18 -45 55 -45h28l-10 -51h-33q-64 0 -89 67l-84 205l-119 -106z" />
    <glyph glyph-name="Lacute" unicode="&#x139;" horiz-adv-x="532" 
d="M477 0h-367l130 700h61l-119 -644h305zM310 790h-49l82 133h76z" />
    <glyph glyph-name="lacute" unicode="&#x13a;" horiz-adv-x="273" 
d="M116 97l121 653h60l-121 -653q-8 -44 30 -44h22l-10 -53h-32q-41 0 -60 25.5t-10 71.5zM277 790h-49l82 133h76z" />
    <glyph glyph-name="uni013B" unicode="&#x13b;" horiz-adv-x="532" 
d="M477 0h-367l130 700h61l-119 -644h305zM250 -219h-46l46 159h64z" />
    <glyph glyph-name="uni013C" unicode="&#x13c;" horiz-adv-x="273" 
d="M102 -219h-46l46 159h64zM116 97l121 653h60l-121 -653q-8 -44 30 -44h22l-10 -53h-32q-41 0 -60 25.5t-10 71.5z" />
    <glyph glyph-name="Lcaron" unicode="&#x13d;" horiz-adv-x="533" 
d="M477 0h-367l130 700h61l-119 -644h305zM497 519h-49l34 181h68z" />
    <glyph glyph-name="lcaron" unicode="&#x13e;" horiz-adv-x="336" 
d="M116 97l121 653h60l-121 -653q-8 -44 30 -44h22l-10 -53h-32q-41 0 -60 25.5t-10 71.5zM389 569h-49l34 181h69z" />
    <glyph glyph-name="Ldot" unicode="&#x13f;" horiz-adv-x="600" 
d="M477 0h-367l130 700h61l-119 -644h305zM374 376q0 21 17.5 38.5t38.5 17.5q18 0 29.5 -11t11.5 -28q0 -21 -18 -39t-40 -18q-17 0 -28 11.5t-11 28.5z" />
    <glyph glyph-name="ldot" unicode="&#x140;" horiz-adv-x="417" 
d="M116 97l121 653h60l-121 -653q-8 -44 30 -44h22l-10 -53h-32q-41 0 -60 25.5t-10 71.5zM310 376q0 21 17.5 38.5t38.5 17.5q18 0 29.5 -11t11.5 -28q0 -21 -18 -39t-40 -18q-17 0 -28 11.5t-11 28.5z" />
    <glyph glyph-name="Lslash" unicode="&#x141;" horiz-adv-x="556" 
d="M183 277l-86 -43l11 63l87 43l67 360h62l-61 -326l216 106l-11 -63l-217 -107l-47 -254h306l-11 -56h-367z" />
    <glyph glyph-name="lslash" unicode="&#x142;" horiz-adv-x="367" 
d="M175 335l-85 -45l11 63l86 45l65 352h60l-59 -316l124 65l-12 -63l-123 -65l-51 -274q-8 -44 30 -44h22l-10 -53h-32q-41 0 -60 25.5t-10 71.5z" />
    <glyph glyph-name="Nacute" unicode="&#x143;" horiz-adv-x="736" 
d="M171 0h-61l130 700h61l278 -595h6l111 595h61l-130 -700h-62l-277 595h-6zM546 790h-49l82 133h76z" />
    <glyph glyph-name="nacute" unicode="&#x144;" horiz-adv-x="614" 
d="M158 0h-60l96 520h60l-15 -85h6q27 43 76.5 70.5t107.5 27.5q89 0 132 -57q44 -57 27 -143l-62 -333h-60l61 329q12 65 -23 106.5t-99 41.5q-67 0 -122 -47q-53 -46 -67 -114zM453 610h-49l82 133h76z" />
    <glyph glyph-name="uni0145" unicode="&#x145;" horiz-adv-x="736" 
d="M171 0h-61l130 700h61l278 -595h6l111 595h61l-130 -700h-62l-277 595h-6zM319 -219h-46l46 159h64z" />
    <glyph glyph-name="uni0146" unicode="&#x146;" horiz-adv-x="614" 
d="M158 0h-60l96 520h60l-15 -85h6q27 43 76.5 70.5t107.5 27.5q89 0 132 -57q44 -57 27 -143l-62 -333h-60l61 329q12 65 -23 106.5t-99 41.5q-67 0 -122 -47q-53 -46 -67 -114zM271 -219h-46l46 159h64z" />
    <glyph glyph-name="Ncaron" unicode="&#x147;" horiz-adv-x="736" 
d="M171 0h-61l130 700h61l278 -595h6l111 595h61l-130 -700h-62l-277 595h-6zM497 790l-73 130h54l55 -78h6l84 78h61l-121 -130h-66z" />
    <glyph glyph-name="ncaron" unicode="&#x148;" horiz-adv-x="614" 
d="M158 0h-60l96 520h60l-15 -85h6q27 43 76.5 70.5t107.5 27.5q89 0 132 -57q44 -57 27 -143l-62 -333h-60l61 329q12 65 -23 106.5t-99 41.5q-67 0 -122 -47q-53 -46 -67 -114zM404 610l-73 130h54l55 -78h6l84 78h61l-121 -130h-66z" />
    <glyph glyph-name="Eng" unicode="&#x14a;" horiz-adv-x="738" 
d="M171 0h-61l130 700h66l277 -588h6l109 588h61l-142 -766q-14 -75 -71 -119q-57 -45 -131 -45l11 53q51 0 86.5 30.5t44.5 81.5l12 65l-281 597h-6z" />
    <glyph glyph-name="eng" unicode="&#x14b;" horiz-adv-x="608" 
d="M158 0h-60l96 520h60l-15 -85h6q27 43 76.5 70.5t107.5 27.5q89 0 132 -57q44 -57 27 -143l-62 -333h-1l-12 -66q-13 -77 -66 -120.5t-134 -43.5h-48l10 55h48q51 0 86 29.5t44 80.5l16 86h1l57 308q12 65 -23 106.5t-99 41.5q-67 0 -122 -47q-53 -46 -67 -114z" />
    <glyph glyph-name="Omacron" unicode="&#x14c;" horiz-adv-x="825" 
d="M111 276q0 86 34 167t93 141q58 60 139 94.5t167 34.5q135 0 217 -82q83 -83 83 -209q-1 -179 -128 -306.5t-306 -128.5q-134 0 -217 80q-82 81 -82 209zM175 286q0 -107 67 -174t178 -67q143 0 251 110t108 257q0 108 -67 175q-68 68 -178 68q-144 0 -251.5 -110.5
t-107.5 -258.5zM686 824h-242l9 51h242z" />
    <glyph glyph-name="omacron" unicode="&#x14d;" horiz-adv-x="645" 
d="M96 206q-3 130 94 229.5t228 97.5q103 0 165 -61q63 -62 63 -158q0 -134 -93.5 -230.5t-228.5 -96.5q-101 0 -165 61q-63 62 -63 158zM158 214q0 -77 47 -124.5t125 -47.5q102 -2 179.5 77.5t74.5 186.5q0 76 -47.5 124t-125.5 48q-101 2 -178 -78t-75 -186zM564 644
h-242l9 51h242z" />
    <glyph glyph-name="Ohungarumlaut" unicode="&#x150;" horiz-adv-x="825" 
d="M111 276q0 86 34 167t93 141q58 60 139 94.5t167 34.5q135 0 217 -82q83 -83 83 -209q-1 -179 -128 -306.5t-306 -128.5q-134 0 -217 80q-82 81 -82 209zM175 286q0 -107 67 -174t178 -67q143 0 251 110t108 257q0 108 -67 175q-68 68 -178 68q-144 0 -251.5 -110.5
t-107.5 -258.5zM504 790h-48l83 140h75zM637 790h-49l83 140h76z" />
    <glyph glyph-name="ohungarumlaut" unicode="&#x151;" horiz-adv-x="645" 
d="M96 206q-3 130 94 229.5t228 97.5q103 0 165 -61q63 -62 63 -158q0 -134 -93.5 -230.5t-228.5 -96.5q-101 0 -165 61q-63 62 -63 158zM158 214q0 -77 47 -124.5t125 -47.5q102 -2 179.5 77.5t74.5 186.5q0 76 -47.5 124t-125.5 48q-101 2 -178 -78t-75 -186zM383 610h-48
l83 140h75zM516 610h-49l83 140h76z" />
    <glyph glyph-name="OE" unicode="&#x152;" horiz-adv-x="1099" 
d="M111 276q0 83 35 164t94 142q61 61 140.5 96t163.5 35q50 0 96 -13h523l-11 -56h-414q55 -42 81.5 -111t17.5 -149h231l-10 -55h-230q-20 -86 -72.5 -158t-126.5 -115h422l-10 -56h-532q-51 -13 -99 -13q-136 0 -217.5 80.5t-81.5 208.5zM175 286q0 -107 67 -174t179 -67
q142 0 248.5 110t106.5 257q0 108 -67 175q-68 68 -175 68q-144 0 -251.5 -110.5t-107.5 -258.5z" />
    <glyph glyph-name="oe" unicode="&#x153;" horiz-adv-x="1092" 
d="M96 204q0 132 97 230.5t229 98.5q77 0 133 -37.5t78 -101.5q42 66 106.5 102.5t143.5 36.5q117 0 171 -73q53 -73 34 -191l-6 -31h-440q-11 -89 31 -143.5t128 -54.5q62 0 116.5 31t80.5 82h63q-30 -73 -104 -120q-73 -46 -167 -46q-79 0 -132 39t-70 108
q-45 -68 -116.5 -107.5t-151.5 -39.5q-102 0 -163 60q-61 61 -61 157zM158 214q0 -77 47 -124.5t125 -47.5q100 -3 178.5 78.5t75.5 185.5q0 76 -47.5 124t-125.5 48q-99 2 -177 -79.5t-76 -184.5zM653 292h376q10 87 -31 136.5t-122 49.5q-76 0 -140 -51q-63 -50 -83 -135z
" />
    <glyph glyph-name="Racute" unicode="&#x154;" horiz-adv-x="626" 
d="M171 0h-61l130 700h230q88 0 139 -47t51 -124q0 -93 -55 -154q-53 -61 -140 -79l68 -198q10 -24 22 -33t32 -9h34l-10 -56h-41q-35 0 -56 16t-33 52l-76 222h-181zM290 645l-55 -300h169q82 0 137 50q54 51 54 134q0 52 -37.5 84t-101.5 32h-166zM471 790h-49l82 133h76z
" />
    <glyph glyph-name="racute" unicode="&#x155;" horiz-adv-x="394" 
d="M158 0h-60l96 520h60l-20 -104h6q25 44 70.5 74t97.5 30h40l-11 -60h-39q-72 0 -123 -52t-65 -128zM363 610h-49l82 133h76z" />
    <glyph glyph-name="uni0156" unicode="&#x156;" horiz-adv-x="626" 
d="M171 0h-61l130 700h230q88 0 139 -47t51 -124q0 -93 -55 -154q-53 -61 -140 -79l68 -198q10 -24 22 -33t32 -9h34l-10 -56h-41q-35 0 -56 16t-33 52l-76 222h-181zM290 645l-55 -300h169q82 0 137 50q54 51 54 134q0 52 -37.5 84t-101.5 32h-166zM289 -219h-46l46 159h64
z" />
    <glyph glyph-name="uni0157" unicode="&#x157;" horiz-adv-x="394" 
d="M158 0h-60l96 520h60l-20 -104h6q25 44 70.5 74t97.5 30h40l-11 -60h-39q-72 0 -123 -52t-65 -128zM158 -219h-46l46 159h64z" />
    <glyph glyph-name="Rcaron" unicode="&#x158;" horiz-adv-x="626" 
d="M171 0h-61l130 700h230q88 0 139 -47t51 -124q0 -93 -55 -154q-53 -61 -140 -79l68 -198q10 -24 22 -33t32 -9h34l-10 -56h-41q-35 0 -56 16t-33 52l-76 222h-181zM290 645l-55 -300h169q82 0 137 50q54 51 54 134q0 52 -37.5 84t-101.5 32h-166zM422 790l-73 130h54
l55 -78h6l84 78h61l-121 -130h-66z" />
    <glyph glyph-name="rcaron" unicode="&#x159;" horiz-adv-x="394" 
d="M158 0h-60l96 520h60l-20 -104h6q25 44 70.5 74t97.5 30h40l-11 -60h-39q-72 0 -123 -52t-65 -128zM314 610l-73 130h54l55 -78h6l84 78h61l-121 -130h-66z" />
    <glyph glyph-name="Sacute" unicode="&#x15a;" horiz-adv-x="591" 
d="M89 205h61q-13 -75 29.5 -118t128.5 -43q89 0 145 45q57 45 57 119q0 39 -25.5 65.5t-63 38.5t-82 26.5t-82 30t-63 49t-25.5 82.5q0 94 72.5 153.5t185.5 59.5q41 0 78 -11.5t66.5 -34.5t42.5 -63t2 -91h-63q13 67 -25 105.5t-112 38.5q-80 0 -132 -43q-51 -44 -51 -108
q0 -42 35 -68t85 -40t100 -31t85 -54t35 -96q0 -107 -77 -169q-76 -61 -201 -61q-107 0 -165 61q-59 62 -41 157zM457 790h-49l82 133h76z" />
    <glyph glyph-name="sacute" unicode="&#x15b;" horiz-adv-x="535" 
d="M93 146h58q-5 -51 28.5 -78.5t94.5 -27.5q73 0 116.5 32.5t43.5 88.5q0 34 -29 53.5t-70.5 27.5t-83.5 18t-71 36.5t-29 72.5q0 72 58 118t152 46q77 0 121 -40t38 -107h-58q3 45 -26 70t-85 25q-60 0 -100 -30t-40 -74q0 -32 29 -49.5t70.5 -26t83.5 -19t71 -38
t29 -74.5q0 -84 -60 -133.5t-169 -49.5q-89 0 -134.5 43t-37.5 116zM394 610h-49l82 133h76z" />
    <glyph glyph-name="Scedilla" unicode="&#x15e;" horiz-adv-x="591" 
d="M89 205h61q-13 -75 29.5 -118t128.5 -43q89 0 145 45q57 45 57 119q0 39 -25.5 65.5t-63 38.5t-82 26.5t-82 30t-63 49t-25.5 82.5q0 94 72.5 153.5t185.5 59.5q41 0 78 -11.5t66.5 -34.5t42.5 -63t2 -91h-63q13 67 -25 105.5t-112 38.5q-80 0 -132 -43q-51 -44 -51 -108
q0 -42 35 -68t85 -40t100 -31t85 -54t35 -96q0 -105 -75 -167q-73 -61 -196 -63l-21 -45h6q20 13 39 13q27 0 43.5 -17.5t16.5 -44.5q0 -40 -30.5 -69t-73.5 -29q-33 0 -52.5 21t-13.5 53h40q-2 -15 8.5 -25t25.5 -10q22 0 38 16t16 37q0 15 -10.5 25t-26.5 10
q-23 0 -37 -18h-43l35 85q-92 11 -141 69q-48 61 -32 147z" />
    <glyph glyph-name="scedilla" unicode="&#x15f;" horiz-adv-x="535" 
d="M93 146h58q-5 -51 28.5 -78.5t94.5 -27.5q73 0 116.5 32.5t43.5 88.5q0 34 -29 53.5t-70.5 27.5t-83.5 18t-71 36.5t-29 72.5q0 72 58 118t152 46q77 0 121 -40t38 -107h-58q3 45 -26 70t-85 25q-60 0 -100 -30t-40 -74q0 -32 29 -49.5t70.5 -26t83.5 -19t71 -38
t29 -74.5q0 -84 -60 -133.5t-168 -49.5l-21 -45h6q19 13 39 13q27 0 43.5 -17.5t16.5 -44.5q0 -40 -30.5 -69t-73.5 -29q-33 0 -52.5 21t-13.5 53h39q-1 -15 9.5 -25t25.5 -10q21 0 37.5 16t16.5 37q0 15 -10.5 25t-27.5 10q-22 0 -36 -18h-43l34 86q-69 10 -104 51.5
t-28 104.5z" />
    <glyph glyph-name="Scaron" unicode="&#x160;" horiz-adv-x="591" 
d="M89 205h61q-13 -75 29.5 -118t128.5 -43q89 0 145 45q57 45 57 119q0 39 -25.5 65.5t-63 38.5t-82 26.5t-82 30t-63 49t-25.5 82.5q0 94 72.5 153.5t185.5 59.5q41 0 78 -11.5t66.5 -34.5t42.5 -63t2 -91h-63q13 67 -25 105.5t-112 38.5q-80 0 -132 -43q-51 -44 -51 -108
q0 -42 35 -68t85 -40t100 -31t85 -54t35 -96q0 -107 -77 -169q-76 -61 -201 -61q-107 0 -165 61q-59 62 -41 157zM408 790l-73 130h54l55 -78h6l84 78h61l-121 -130h-66z" />
    <glyph glyph-name="scaron" unicode="&#x161;" horiz-adv-x="535" 
d="M93 146h58q-5 -51 28.5 -78.5t94.5 -27.5q73 0 116.5 32.5t43.5 88.5q0 34 -29 53.5t-70.5 27.5t-83.5 18t-71 36.5t-29 72.5q0 72 58 118t152 46q77 0 121 -40t38 -107h-58q3 45 -26 70t-85 25q-60 0 -100 -30t-40 -74q0 -32 29 -49.5t70.5 -26t83.5 -19t71 -38
t29 -74.5q0 -84 -60 -133.5t-169 -49.5q-89 0 -134.5 43t-37.5 116zM345 610l-73 130h54l55 -78h6l84 78h61l-121 -130h-66z" />
    <glyph glyph-name="uni0162" unicode="&#x162;" horiz-adv-x="567" 
d="M372 644h-217l11 56h495l-11 -56h-217l-119 -644h-61zM243 -219h-46l46 159h64z" />
    <glyph glyph-name="uni0163" unicode="&#x163;" horiz-adv-x="426" 
d="M234 469h-99l10 51h74q26 0 32 27l24 124h56l-28 -151h161l-10 -51h-160l-58 -312q-20 -104 78 -104h58l-10 -53h-63q-72 0 -105 40t-18 116zM236 -219h-46l46 159h64z" />
    <glyph glyph-name="Tcaron" unicode="&#x164;" horiz-adv-x="567" 
d="M372 644h-217l11 56h495l-11 -56h-217l-119 -644h-61zM403 790l-73 130h54l55 -78h6l84 78h61l-121 -130h-66z" />
    <glyph glyph-name="tcaron" unicode="&#x165;" horiz-adv-x="432" 
d="M234 469h-99l10 51h74q26 0 32 27l24 124h56l-28 -151h161l-10 -51h-160l-58 -312q-20 -104 78 -104h58l-10 -53h-63q-72 0 -105 40t-18 116zM494 569h-49l34 181h69z" />
    <glyph glyph-name="Tbar" unicode="&#x166;" horiz-adv-x="552" 
d="M372 644h-217l11 56h495l-11 -56h-217l-43 -235h161l-10 -53h-161l-66 -356h-61l66 356h-156l10 53h156z" />
    <glyph glyph-name="tbar" unicode="&#x167;" horiz-adv-x="432" 
d="M202 298h-94l9 49h94l23 122h-99l10 51h74q26 0 32 27l24 124h56l-28 -151h161l-10 -51h-160l-23 -122h149l-10 -49h-148l-26 -141q-20 -104 78 -104h58l-10 -53h-63q-72 0 -105 40t-18 116z" />
    <glyph glyph-name="Umacron" unicode="&#x16a;" horiz-adv-x="704" 
d="M144 240l85 460h62l-85 -459q-17 -93 23 -145t130 -52q91 0 152 53t78 145l85 458h60l-85 -459q-22 -119 -99 -186.5t-198 -67.5q-115 0 -172 69t-36 184zM625 824h-242l9 51h242z" />
    <glyph glyph-name="umacron" unicode="&#x16b;" horiz-adv-x="604" 
d="M123 187l62 333h60l-61 -330q-13 -68 21 -108t100 -40q69 0 122 46t67 115l59 317h60l-97 -520h-60l15 85h-6q-26 -44 -74 -71t-109 -27q-89 0 -131.5 57t-27.5 143zM542 644h-242l9 51h242z" />
    <glyph glyph-name="Uring" unicode="&#x16e;" horiz-adv-x="704" 
d="M144 240l85 460h62l-85 -459q-17 -93 23 -145t130 -52q91 0 152 53t78 145l85 458h60l-85 -459q-22 -119 -99 -186.5t-198 -67.5q-115 0 -172 69t-36 184zM415 836q0 43 32 75t77 32q35 0 56.5 -19.5t21.5 -51.5q0 -46 -30 -77t-80 -31q-34 0 -55.5 20t-21.5 52zM456 842
q0 -19 11.5 -30t31.5 -11q25 0 43.5 19t18.5 45q0 18 -12 29t-32 11q-25 0 -43 -18.5t-18 -44.5z" />
    <glyph glyph-name="uring" unicode="&#x16f;" horiz-adv-x="604" 
d="M123 187l62 333h60l-61 -330q-13 -68 21 -108t100 -40q69 0 122 46t67 115l59 317h60l-97 -520h-60l15 85h-6q-26 -44 -74 -71t-109 -27q-89 0 -131.5 57t-27.5 143zM332 656q0 43 32 75t77 32q35 0 56.5 -19.5t21.5 -51.5q0 -47 -30 -77.5t-80 -30.5q-34 0 -55.5 20
t-21.5 52zM373 662q0 -19 11.5 -30t31.5 -11q25 0 43.5 19t18.5 45q0 18 -12 29t-32 11q-25 0 -43 -18.5t-18 -44.5z" />
    <glyph glyph-name="Uhungarumlaut" unicode="&#x170;" horiz-adv-x="704" 
d="M144 240l85 460h62l-85 -459q-17 -93 23 -145t130 -52q91 0 152 53t78 145l85 458h60l-85 -459q-22 -119 -99 -186.5t-198 -67.5q-115 0 -172 69t-36 184zM444 790h-48l83 140h75zM577 790h-49l83 140h76z" />
    <glyph glyph-name="uhungarumlaut" unicode="&#x171;" horiz-adv-x="604" 
d="M123 187l62 333h60l-61 -330q-13 -68 21 -108t100 -40q69 0 122 46t67 115l59 317h60l-97 -520h-60l15 85h-6q-26 -44 -74 -71t-109 -27q-89 0 -131.5 57t-27.5 143zM361 610h-48l83 140h75zM494 610h-49l83 140h76z" />
    <glyph glyph-name="Uogonek" unicode="&#x172;" horiz-adv-x="704" 
d="M144 240l85 460h62l-85 -459q-17 -93 23 -145t130 -52q91 0 152 53t78 145l85 458h60l-85 -459q-19 -108 -84 -173.5t-167 -77.5l-49 -49l-15 -15q-17 -24 -17 -38t10.5 -22.5t26.5 -8.5h28l-9 -49h-42q-32 0 -53 17t-21 45q0 17 11 42q6 9 13 18q13 15 23 25l32 32
q-107 4 -160 73q-52 68 -32 180z" />
    <glyph glyph-name="uogonek" unicode="&#x173;" horiz-adv-x="604" 
d="M123 187l62 333h60l-61 -330q-13 -68 21 -108t100 -40q69 0 122 46t67 115l59 317h60l-97 -520l-62 -59q-32 -30 -32 -55q0 -29 37 -29h31l-9 -49h-42q-32 0 -53.5 16.5t-21.5 44.5q0 17 11 42q6 9 13 18q8 10 24 26l46 45h-2l15 85h-6q-26 -44 -74 -71t-109 -27
q-89 0 -131.5 57t-27.5 143z" />
    <glyph glyph-name="Wcircumflex" unicode="&#x174;" horiz-adv-x="929" 
d="M208 0l-52 700h64l39 -626h6l288 626h80l55 -626h6l271 626h68l-312 -700h-82l-57 618h-6l-286 -618h-82zM544 790h-62l121 130h66l73 -130h-53l-56 78h-6z" />
    <glyph glyph-name="wcircumflex" unicode="&#x175;" horiz-adv-x="861" 
d="M203 0l-71 520h63l57 -452h6l232 452h72l63 -452h6l225 452h66l-265 -520h-79l-62 446h-6l-227 -446h-80zM478 610h-62l121 130h66l73 -130h-53l-56 78h-6z" />
    <glyph glyph-name="Ycircumflex" unicode="&#x176;" horiz-adv-x="623" 
d="M332 278l-176 422h65l148 -358h6l280 358h72l-333 -422l-52 -278h-62zM392 790h-62l121 130h66l73 -130h-53l-56 78h-6z" />
    <glyph glyph-name="ycircumflex" unicode="&#x177;" horiz-adv-x="604" 
d="M66 -84h56q0 -106 130 -106q87 0 135.5 45.5t66.5 134.5l17 95h-6q-25 -42 -75 -70t-108 -28q-89 0 -131.5 57t-27.5 143l62 333h60l-61 -330q-12 -64 23 -107q35 -41 98 -41q69 0 122 46t67 115l59 317h60l-99 -530q-22 -118 -88.5 -175.5t-182.5 -57.5
q-90 0 -135.5 42.5t-41.5 116.5zM346 610h-62l121 130h66l73 -130h-53l-56 78h-6z" />
    <glyph glyph-name="Ydieresis" unicode="&#x178;" horiz-adv-x="623" 
d="M332 278l-176 422h65l148 -358h6l280 358h72l-333 -422l-52 -278h-62zM341 845q0 22 17.5 39.5t40.5 17.5q18 0 29 -11t11 -27q0 -24 -17.5 -41t-40.5 -17q-17 0 -28.5 11.5t-11.5 27.5zM503 844q0 24 17 41t41 17q17 0 28.5 -11.5t11.5 -27.5q0 -22 -18 -39.5t-40 -17.5
q-18 0 -29 11t-11 27z" />
    <glyph glyph-name="Zacute" unicode="&#x179;" horiz-adv-x="617" 
d="M561 0h-505l11 64l533 573l1 7h-414l11 56h492l-13 -65l-532 -573l-1 -6h428zM468 790h-49l82 133h76z" />
    <glyph glyph-name="zacute" unicode="&#x17a;" horiz-adv-x="519" 
d="M454 0h-388l9 54l387 409l1 6h-304l9 51h378l-9 -54l-387 -409l-1 -6h314zM385 610h-49l82 133h76z" />
    <glyph glyph-name="Zdotaccent" unicode="&#x17b;" horiz-adv-x="617" 
d="M561 0h-505l11 64l533 573l1 7h-414l11 56h492l-13 -65l-532 -573l-1 -6h428zM417 846q0 23 17.5 40t40.5 17q18 0 29 -10.5t11 -27.5q0 -23 -17 -40.5t-41 -17.5q-18 0 -29 11t-11 28z" />
    <glyph glyph-name="zdotaccent" unicode="&#x17c;" horiz-adv-x="519" 
d="M454 0h-388l9 54l387 409l1 6h-304l9 51h378l-9 -54l-387 -409l-1 -6h314zM334 666q0 23 17.5 40t40.5 17q18 0 29 -10.5t11 -27.5q0 -23 -17 -40.5t-41 -17.5q-18 0 -29 11t-11 28z" />
    <glyph glyph-name="Zcaron" unicode="&#x17d;" horiz-adv-x="617" 
d="M561 0h-505l11 64l533 573l1 7h-414l11 56h492l-13 -65l-532 -573l-1 -6h428zM419 790l-73 130h54l55 -78h6l84 78h61l-121 -130h-66z" />
    <glyph glyph-name="zcaron" unicode="&#x17e;" horiz-adv-x="519" 
d="M454 0h-388l9 54l387 409l1 6h-304l9 51h378l-9 -54l-387 -409l-1 -6h314zM336 610l-73 130h54l55 -78h6l84 78h61l-121 -130h-66z" />
    <glyph glyph-name="florin" unicode="&#x192;" horiz-adv-x="509" 
d="M256 391h-123v51h132l31 165q14 72 58.5 107.5t111.5 35.5h57l-10 -53h-42q-99 0 -117 -101l-29 -154h146v-51h-156l-109 -584h-58z" />
    <glyph glyph-name="uni0218" unicode="&#x218;" horiz-adv-x="591" 
d="M89 205h61q-13 -75 29.5 -118t128.5 -43q89 0 145 45q57 45 57 119q0 39 -25.5 65.5t-63 38.5t-82 26.5t-82 30t-63 49t-25.5 82.5q0 94 72.5 153.5t185.5 59.5q41 0 78 -11.5t66.5 -34.5t42.5 -63t2 -91h-63q13 67 -25 105.5t-112 38.5q-80 0 -132 -43q-51 -44 -51 -108
q0 -42 35 -68t85 -40t100 -31t85 -54t35 -96q0 -107 -77 -169q-76 -61 -201 -61q-107 0 -165 61q-59 62 -41 157zM260 -219h-46l46 159h64z" />
    <glyph glyph-name="uni0219" unicode="&#x219;" horiz-adv-x="535" 
d="M93 146h58q-5 -51 28.5 -78.5t94.5 -27.5q73 0 116.5 32.5t43.5 88.5q0 34 -29 53.5t-70.5 27.5t-83.5 18t-71 36.5t-29 72.5q0 72 58 118t152 46q77 0 121 -40t38 -107h-58q3 45 -26 70t-85 25q-60 0 -100 -30t-40 -74q0 -32 29 -49.5t70.5 -26t83.5 -19t71 -38
t29 -74.5q0 -84 -60 -133.5t-169 -49.5q-89 0 -134.5 43t-37.5 116zM224 -219h-46l46 159h64z" />
    <glyph glyph-name="uni021A" unicode="&#x21a;" horiz-adv-x="567" 
d="M372 644h-217l11 56h495l-11 -56h-217l-119 -644h-11l-28 -58h6q14 13 38 13q27 0 43.5 -17.5t16.5 -45.5q0 -40 -28.5 -68.5t-70.5 -28.5q-33 0 -54.5 21t-16.5 53h40q-1 -16 9 -25.5t26 -9.5q21 0 37 16t16 37q0 15 -10 25t-27 10q-24 0 -37 -18h-43l40 96h-7z" />
    <glyph glyph-name="uni021B" unicode="&#x21b;" horiz-adv-x="426" 
d="M234 469h-99l10 51h74q26 0 32 27l24 124h56l-28 -151h161l-10 -51h-160l-58 -312q-20 -104 78 -104h58l-10 -53h-63h-4l-27 -58h6q16 13 38 13q27 0 43.5 -17.5t16.5 -45.5q0 -40 -29 -68.5t-71 -28.5q-33 0 -54 21t-16 53h40q-1 -16 9 -25.5t26 -9.5q21 0 37 16t16 37
q0 15 -10 25t-27 10q-23 0 -37 -18h-43l41 101q-102 25 -78 151z" />
    <glyph glyph-name="uni0237" unicode="&#x237;" horiz-adv-x="289" 
d="M-8 -230h-31l10 55h31q50 0 83 29t43 81l109 585h60l-108 -586q-16 -80 -67 -122t-130 -42z" />
    <glyph glyph-name="circumflex" unicode="&#x2c6;" horiz-adv-x="372" 
d="M231 610h-62l121 130h66l73 -130h-53l-56 78h-6z" />
    <glyph glyph-name="caron" unicode="&#x2c7;" horiz-adv-x="372" 
d="M266 610l-73 130h54l55 -78h6l84 78h61l-121 -130h-66z" />
    <glyph glyph-name="breve" unicode="&#x2d8;" horiz-adv-x="354" 
d="M187 735h46q-13 -83 62 -83q37 0 61.5 22.5t30.5 60.5h52q-10 -57 -49 -91.5t-100 -34.5q-60 0 -88.5 35.5t-14.5 90.5z" />
    <glyph glyph-name="dotaccent" unicode="&#x2d9;" horiz-adv-x="215" 
d="M183 666q0 23 17.5 40t40.5 17q18 0 29 -10.5t11 -27.5q0 -23 -17 -40.5t-41 -17.5q-18 0 -29 11t-11 28z" />
    <glyph glyph-name="ring" unicode="&#x2da;" horiz-adv-x="280" 
d="M171 656q0 43 32 75t77 32q35 0 56.5 -19.5t21.5 -51.5q0 -47 -30 -77.5t-80 -30.5q-35 0 -56 20t-21 52zM212 662q0 -19 11.5 -30t31.5 -11q25 0 43.5 19t18.5 45q0 18 -12 29t-32 11q-25 0 -43 -18.5t-18 -44.5z" />
    <glyph glyph-name="ogonek" unicode="&#x2db;" horiz-adv-x="242" 
d="M34 -130q0 28 18 53q13 16 29 32l61 61l43 -16l-59 -59q-29 -27 -32 -53q0 -14 10.5 -22.5t26.5 -8.5h28l-9 -49h-42q-32 0 -53 17t-21 45z" />
    <glyph glyph-name="tilde" unicode="&#x2dc;" horiz-adv-x="420" 
d="M214 618h-47q7 51 35.5 81.5t69.5 30.5q34 0 70.5 -31.5t56.5 -31.5q21 0 37.5 18t20.5 45h45q-7 -51 -35 -82t-68 -31q-32 0 -68.5 32t-58.5 32t-38.5 -17.5t-19.5 -45.5z" />
    <glyph glyph-name="hungarumlaut" unicode="&#x2dd;" horiz-adv-x="393" 
d="M225 610h-48l83 140h75zM358 610h-49l83 140h76z" />
    <glyph glyph-name="uni0326" unicode="&#x326;" horiz-adv-x="0" 
d="M-132 -219h-46l46 159h64z" />
    <glyph glyph-name="Wgrave" unicode="&#x1e80;" horiz-adv-x="929" 
d="M208 0l-52 700h64l39 -626h6l288 626h80l55 -626h6l271 626h68l-312 -700h-82l-57 618h-6l-286 -618h-82zM600 790l-63 133h76l35 -133h-48z" />
    <glyph glyph-name="wgrave" unicode="&#x1e81;" horiz-adv-x="861" 
d="M203 0l-71 520h63l57 -452h6l232 452h72l63 -452h6l225 452h66l-265 -520h-79l-62 446h-6l-227 -446h-80zM534 610l-63 133h76l35 -133h-48z" />
    <glyph glyph-name="Wacute" unicode="&#x1e82;" horiz-adv-x="929" 
d="M208 0l-52 700h64l39 -626h6l288 626h80l55 -626h6l271 626h68l-312 -700h-82l-57 618h-6l-286 -618h-82zM629 790h-49l82 133h76z" />
    <glyph glyph-name="wacute" unicode="&#x1e83;" horiz-adv-x="861" 
d="M203 0l-71 520h63l57 -452h6l232 452h72l63 -452h6l225 452h66l-265 -520h-79l-62 446h-6l-227 -446h-80zM563 610h-49l82 133h76z" />
    <glyph glyph-name="Wdieresis" unicode="&#x1e84;" horiz-adv-x="929" 
d="M208 0l-52 700h64l39 -626h6l288 626h80l55 -626h6l271 626h68l-312 -700h-82l-57 618h-6l-286 -618h-82zM493 845q0 22 17.5 39.5t40.5 17.5q18 0 29 -11t11 -27q0 -24 -17 -41t-41 -17q-17 0 -28.5 11.5t-11.5 27.5zM655 844q0 24 17 41t41 17q17 0 28.5 -11.5
t11.5 -27.5q0 -22 -18 -39.5t-40 -17.5q-18 0 -29 11t-11 27z" />
    <glyph glyph-name="wdieresis" unicode="&#x1e85;" horiz-adv-x="861" 
d="M203 0l-71 520h63l57 -452h6l232 452h72l63 -452h6l225 452h66l-265 -520h-79l-62 446h-6l-227 -446h-80zM427 665q0 22 17.5 39.5t40.5 17.5q18 0 29 -11t11 -27q0 -24 -17.5 -41t-40.5 -17q-17 0 -28.5 11t-11.5 28zM589 664q0 23 17 40.5t41 17.5q17 0 28.5 -11
t11.5 -28q0 -21 -18 -39t-40 -18q-19 0 -29.5 10.5t-10.5 27.5z" />
    <glyph glyph-name="uni1E9E" unicode="&#x1e9e;" horiz-adv-x="681" 
d="M171 0h-61l90 484q17 93 85.5 154.5t174.5 61.5h237l-13 -68l-238 -205l-2 -10h39q79 0 132 -48q53 -47 53 -120q0 -106 -73 -177.5t-177 -71.5h-144l10 58h137q73 0 129 53q55 54 55 125q0 54 -36 89t-92 35h-116l13 68l236 206l2 10h-162q-75 0 -125.5 -44t-63.5 -115z
" />
    <glyph glyph-name="Ygrave" unicode="&#x1ef2;" horiz-adv-x="623" 
d="M332 278l-176 422h65l148 -358h6l280 358h72l-333 -422l-52 -278h-62zM448 790l-63 133h76l35 -133h-48z" />
    <glyph glyph-name="ygrave" unicode="&#x1ef3;" horiz-adv-x="604" 
d="M66 -84h56q0 -106 130 -106q87 0 135.5 45.5t66.5 134.5l17 95h-6q-25 -42 -75 -70t-108 -28q-89 0 -131.5 57t-27.5 143l62 333h60l-61 -330q-12 -64 23 -107q35 -41 98 -41q69 0 122 46t67 115l59 317h60l-99 -530q-22 -118 -88.5 -175.5t-182.5 -57.5
q-90 0 -135.5 42.5t-41.5 116.5zM402 610l-63 133h76l35 -133h-48z" />
    <glyph glyph-name="uni2000" unicode="&#x2000;" horiz-adv-x="471" 
 />
    <glyph glyph-name="uni2001" unicode="&#x2001;" horiz-adv-x="943" 
 />
    <glyph glyph-name="uni2002" unicode="&#x2002;" horiz-adv-x="471" 
 />
    <glyph glyph-name="uni2003" unicode="&#x2003;" horiz-adv-x="943" 
 />
    <glyph glyph-name="uni2004" unicode="&#x2004;" horiz-adv-x="314" 
 />
    <glyph glyph-name="uni2005" unicode="&#x2005;" horiz-adv-x="235" 
 />
    <glyph glyph-name="uni2006" unicode="&#x2006;" horiz-adv-x="157" 
 />
    <glyph glyph-name="uni2007" unicode="&#x2007;" horiz-adv-x="157" 
 />
    <glyph glyph-name="uni2008" unicode="&#x2008;" horiz-adv-x="118" 
 />
    <glyph glyph-name="uni2009" unicode="&#x2009;" horiz-adv-x="188" 
 />
    <glyph glyph-name="uni200A" unicode="&#x200a;" horiz-adv-x="52" 
 />
    <glyph glyph-name="uni2010" unicode="&#x2010;" horiz-adv-x="395" 
d="M375 271h-255l11 56h255z" />
    <glyph glyph-name="uni2011" unicode="&#x2011;" horiz-adv-x="395" 
d="M375 271h-255l11 56h255z" />
    <glyph glyph-name="figuredash" unicode="&#x2012;" horiz-adv-x="395" 
d="M375 271h-255l11 56h255z" />
    <glyph glyph-name="endash" unicode="&#x2013;" horiz-adv-x="658" 
d="M633 273h-507l10 52h507z" />
    <glyph glyph-name="emdash" unicode="&#x2014;" horiz-adv-x="923" 
d="M898 273h-772l10 52h772z" />
    <glyph glyph-name="quoteleft" unicode="&#x2018;" horiz-adv-x="246" 
d="M242 493h-71l82 207h44z" />
    <glyph glyph-name="quoteright" unicode="&#x2019;" horiz-adv-x="246" 
d="M214 493h-45l56 207h71z" />
    <glyph glyph-name="quotesinglbase" unicode="&#x201a;" horiz-adv-x="260" 
d="M99 -131h-45l56 207h71z" />
    <glyph glyph-name="quotedblleft" unicode="&#x201c;" horiz-adv-x="386" 
d="M242 493h-71l82 207h44zM382 493h-71l82 207h45z" />
    <glyph glyph-name="quotedblright" unicode="&#x201d;" horiz-adv-x="386" 
d="M214 493h-45l56 207h71zM354 493h-45l56 207h71z" />
    <glyph glyph-name="quotedblbase" unicode="&#x201e;" horiz-adv-x="401" 
d="M99 -131h-45l56 207h71zM239 -131h-45l56 207h71z" />
    <glyph glyph-name="dagger" unicode="&#x2020;" horiz-adv-x="431" 
d="M272 467h-125l10 53h125l33 180h60l-33 -180h126l-10 -53h-126l-87 -467h-60z" />
    <glyph glyph-name="daggerdbl" unicode="&#x2021;" horiz-adv-x="431" 
d="M219 186h-124l10 54h124l41 220h-125l10 54h125l35 186h59l-35 -186h127l-10 -54h-127l-41 -220h128l-10 -54h-128l-34 -186h-59z" />
    <glyph glyph-name="bullet" unicode="&#x2022;" horiz-adv-x="464" 
d="M114 277q0 81 62 143q64 62 145 62q63 0 103 -39.5t40 -99.5q2 -79 -62.5 -143t-144.5 -62q-64 0 -103.5 39t-39.5 100z" />
    <glyph glyph-name="uni202F" unicode="&#x202f;" horiz-adv-x="188" 
 />
    <glyph glyph-name="perthousand" unicode="&#x2030;" horiz-adv-x="1137" 
d="M156 454l24 128q11 61 51.5 96t102.5 35q58 0 89 -37t20 -94l-24 -128q-12 -61 -52.5 -96t-100.5 -35q-57 0 -88.5 37t-21.5 94zM214 26l-40 32l549 616l40 -32zM232 581l-23 -126q-6 -35 12 -58t52 -23q36 0 62 22.5t33 58.5l23 126q6 34 -12.5 57.5t-52.5 23.5
q-36 0 -61.5 -22.5t-32.5 -58.5zM493 118l24 128q11 61 51.5 96t102.5 35q58 0 89 -37t20 -94l-24 -128q-12 -61 -52.5 -96t-100.5 -35q-57 0 -88.5 37t-21.5 94zM569 245l-23 -126q-6 -35 12 -58t52 -23q36 0 62 22.5t33 58.5l23 126q6 34 -12.5 57.5t-52.5 23.5
q-36 0 -61.5 -22.5t-32.5 -58.5zM823 118l24 128q11 61 51.5 96t102.5 35q58 0 89 -37t20 -94l-24 -128q-12 -61 -52.5 -96t-100.5 -35q-57 0 -88.5 37t-21.5 94zM899 245l-23 -126q-6 -35 12 -58t52 -23q36 0 62 22.5t33 58.5l23 126q6 34 -12.5 57.5t-52.5 23.5
q-36 0 -61.5 -22.5t-32.5 -58.5z" />
    <glyph glyph-name="guilsinglleft" unicode="&#x2039;" horiz-adv-x="327" 
d="M276 108l-155 163l8 42l215 163l-14 -71l-148 -116l-2 -6l106 -115z" />
    <glyph glyph-name="guilsinglright" unicode="&#x203a;" horiz-adv-x="327" 
d="M306 271l-215 -163l14 71l148 116l1 6l-106 115l11 60l155 -163z" />
    <glyph glyph-name="fraction" unicode="&#x2044;" horiz-adv-x="481" 
d="M66 -41h-58l534 782h58z" />
    <glyph glyph-name="uni205F" unicode="&#x205f;" horiz-adv-x="235" 
 />
    <glyph glyph-name="Euro" unicode="&#x20ac;" horiz-adv-x="626" 
d="M130 246h-59l9 47h59l19 105h-58l8 47h59l9 49q18 101 91.5 161t166.5 58q98 0 149 -64q51 -63 32 -162h-60q14 74 -22 120.5t-107 46.5q-73 0 -125 -46q-52 -45 -66 -119l-8 -44h209l-9 -47h-208l-19 -105h207l-8 -47h-209l-6 -35q-13 -74 23.5 -119.5t105.5 -45.5
q75 0 125.5 44.5t65.5 122.5h61q-20 -108 -89 -167t-171 -59q-90 0 -145.5 59.5t-37.5 159.5z" />
    <glyph glyph-name="uni2116" unicode="&#x2116;" horiz-adv-x="1179" 
d="M171 0h-61l130 700h61l280 -595h6l111 595h61l-130 -700h-63l-278 595h-6zM1122 240h-327l11 56h327zM833 500q-2 82 65 148.5t149 64.5q66 0 107 -40.5t41 -103.5q0 -84 -64.5 -148t-149.5 -64q-66 0 -107 40t-41 103zM886 508q0 -45 28 -72.5t76 -27.5q64 0 107 45
q45 45 45 107q0 45 -28.5 73.5t-75.5 28.5q-61 0 -107 -46q-45 -46 -45 -108z" />
    <glyph glyph-name="trademark" unicode="&#x2122;" horiz-adv-x="820" 
d="M284 657h-97l8 43h240l-8 -43h-97l-58 -317h-46zM483 340h-45l66 360h46l83 -301h6l194 301h50l-66 -360h-45l49 267h-3l-171 -267h-39l-73 267h-3z" />
    <glyph glyph-name="arrowleft" unicode="&#x2190;" horiz-adv-x="814" 
d="M478 -31l-294 295v53l294 294l43 -42l-244 -242v-6h621v-60h-621v-6l244 -243z" />
    <glyph glyph-name="arrowup" unicode="&#x2191;" horiz-adv-x="750" 
d="M153 377l-42 43l294 294h53l295 -294l-43 -43l-243 244h-6v-621h-60v621h-6z" />
    <glyph glyph-name="arrowright" unicode="&#x2192;" horiz-adv-x="814" 
d="M805 261h-621v60h621v6l-244 242l43 42l294 -294v-53l-294 -295l-43 43l244 243v6z" />
    <glyph glyph-name="arrowdown" unicode="&#x2193;" horiz-adv-x="750" 
d="M405 -14l-294 294l42 43l242 -244h6v621h60v-621h6l243 244l43 -43l-295 -294h-53z" />
    <glyph glyph-name="uni2196" unicode="&#x2196;" horiz-adv-x="655" 
d="M154 203h-60v416l38 37h416v-60l-344 1l-4 -4l439 -439l-42 -42l-439 439l-5 -5z" />
    <glyph glyph-name="uni2197" unicode="&#x2197;" horiz-adv-x="655" 
d="M220 112l-42 42l439 439l-4 4l-344 -1v60h416l38 -37v-416h-60l1 343l-5 5z" />
    <glyph glyph-name="uni2198" unicode="&#x2198;" horiz-adv-x="655" 
d="M580 66l-439 439l42 42l439 -438l4 4l-1 343h61l-1 -416l-37 -37h-416v60l343 -2z" />
    <glyph glyph-name="uni2199" unicode="&#x2199;" horiz-adv-x="655" 
d="M147 40l-1 416h61l-1 -343l4 -4l439 438l42 -42l-439 -439l5 -5l343 2v-60h-416z" />
    <glyph glyph-name="minus" unicode="&#x2212;" horiz-adv-x="480" 
d="M528 286h-470l10 51h470z" />
    <glyph glyph-name="uni25FC" unicode="&#x25fc;" horiz-adv-x="520" 
d="M520 0h-520v520h520v-520z" />
    <glyph glyph-name="_1" horiz-adv-x="0" 
 />
    <glyph glyph-name="CR" horiz-adv-x="333" 
 />
    <glyph glyph-name="i.loclTRK" horiz-adv-x="247" 
d="M115 87l79 433h60l-78 -423q-8 -44 32 -44h23l-10 -53h-34q-41 0 -60 23t-12 64zM203 666q0 23 17.5 40t40.5 17q18 0 29 -10.5t11 -27.5q0 -23 -17 -40.5t-41 -17.5q-18 0 -29 11t-11 28z" />
    <glyph glyph-name="zero.tf" horiz-adv-x="624" 
d="M129 206l53 288q19 103 91 161q73 58 168 58q90 0 145 -60t37 -159l-53 -288q-20 -103 -91 -161t-168 -58q-90 0 -145 60t-37 159zM242 489l-51 -278q-14 -74 22.5 -119.5t106.5 -45.5q74 0 125 44.5t65 120.5l52 278q13 73 -23.5 119t-105.5 46q-73 0 -125 -45t-66 -120
z" />
    <glyph glyph-name="one.tf" horiz-adv-x="624" 
d="M467 546h-168l10 50q102 0 140 21t50 83h58l-130 -700h-61z" />
    <glyph glyph-name="two.tf" horiz-adv-x="624" 
d="M527 0h-429l15 84q12 65 51.5 112t117.5 90l152 83q122 68 122 173q0 51 -33.5 82t-93.5 31q-71 0 -119.5 -41t-58.5 -103h-60q13 84 78 143t169 59q84 0 133 -48t49 -118q0 -137 -162 -226l-148 -83q-65 -37 -95.5 -71.5t-39.5 -82.5l-5 -28h368z" />
    <glyph glyph-name="three.tf" horiz-adv-x="624" 
d="M124 190h58q-10 -59 25.5 -101.5t107.5 -42.5q83 0 142 57q58 58 58 141q0 59 -40 94.5t-105 35.5h-61l10 56l226 208l1 6h-322l10 56h405l-12 -60l-228 -206l-1 -6q80 -1 131 -52q50 -50 50 -123q0 -112 -76.5 -188.5t-196.5 -76.5q-99 0 -147 63.5t-35 138.5z" />
    <glyph glyph-name="four.tf" horiz-adv-x="624" 
d="M429 177h-316l9 51l310 472h68l-304 -462l-1 -6h243l32 169h61l-32 -169h89l-10 -55h-89l-33 -177h-60z" />
    <glyph glyph-name="five.tf" horiz-adv-x="624" 
d="M119 179h58q-6 -63 32 -99t107 -36q79 -2 142.5 63.5t61.5 147.5q0 61 -40 99t-106 38q-62 0 -106 -31q-28 -21 -49 -44h-60l94 383h371l-10 -56h-316l-64 -255h6q9 9 26 20q53 39 127 39q85 0 138 -53q52 -52 52 -132q3 -109 -80.5 -193.5t-194.5 -82.5q-90 0 -145 53
q-53 53 -44 139z" />
    <glyph glyph-name="six.tf" horiz-adv-x="624" 
d="M115 177q0 89 64 174l260 349h70l-210 -275l3 -4q44 26 95 26q87 0 139 -51q54 -51 54 -132q0 -114 -81.5 -195.5t-197.5 -81.5q-85 0 -141 54q-55 54 -55 136zM178 182q0 -60 39 -98.5t102 -38.5q82 0 144 62q62 64 62 147q0 61 -38.5 99t-102.5 38q-80 2 -144 -62.5
t-62 -146.5z" />
    <glyph glyph-name="seven.tf" horiz-adv-x="624" 
d="M274 0h-68l369 638l1 6h-358l10 56h425l-10 -56z" />
    <glyph glyph-name="eight.tf" horiz-adv-x="624" 
d="M112 157q0 72 47 130.5t123 83.5l2 6q-33 15 -55.5 49t-22.5 75q0 88 68 150t170 62q76 0 123 -43q48 -44 48 -110q0 -60 -36.5 -110t-96.5 -73l-2 -6q40 -13 71 -50t31 -93q0 -101 -77 -172q-77 -69 -196 -69q-87 0 -143 47q-54 48 -54 123zM177 164q0 -54 38 -87.5
t104 -33.5q83 0 142 51q58 52 58 128q0 56 -39.5 88t-104.5 32q-83 0 -141 -52q-57 -51 -57 -126zM268 503q0 -47 33.5 -75.5t84.5 -28.5q69 0 117 45q48 46 48 109q0 46 -31.5 74.5t-85.5 28.5q-71 0 -119 -45q-47 -45 -47 -108z" />
    <glyph glyph-name="nine.tf" horiz-adv-x="624" 
d="M164 436q-3 111 81.5 195.5t197.5 81.5q86 0 141 -55q55 -54 55 -135q0 -89 -64 -174l-260 -349h-70l210 275l-3 4q-44 -26 -95 -26q-86 0 -140 51q-53 51 -53 132zM229 446q0 -61 38.5 -99t102.5 -38q82 0 144 63t62 146q0 61 -38.5 99t-102.5 38q-83 0 -145 -63
q-61 -61 -61 -146z" />
    <glyph glyph-name="caron.Slovak" horiz-adv-x="168" 
d="M195 519h-49l34 181h68z" />
    <glyph glyph-name="NULL" horiz-adv-x="0" 
 />
    </font>
</defs>
</svg>
