<?xml version="1.0" standalone="no"?>
<!DOCTYPE svg PUBLIC "-//W3C//DTD SVG 1.1//EN" "http://www.w3.org/Graphics/SVG/1.1/DTD/svg11.dtd" >
<svg xmlns="http://www.w3.org/2000/svg" xmlns:xlink="http://www.w3.org/1999/xlink" version="1.1">
<metadata>
Created by FontForge 20170731 at Fri Sep  7 20:33:48 2018
 By Aleksey,,,
Copyright (c) 2018 by atipo. All rights reserved. |DCNT
</metadata>
<defs>
<font id="Silka-Medium" horiz-adv-x="618" >
  <font-face 
    font-family="Silka Medium"
    font-weight="500"
    font-stretch="normal"
    units-per-em="1000"
    panose-1="0 0 6 0 0 0 0 0 0 0"
    ascent="750"
    descent="-250"
    x-height="523"
    cap-height="700"
    bbox="-156 -243 1100 944"
    underline-thickness="50"
    underline-position="-399"
    unicode-range="U+000D-25FC"
  />
<missing-glyph horiz-adv-x="568" 
d="M534 0h-500v700h500v-700zM84 605v-510l170 255zM284 305l-170 -255h340zM454 650h-340l170 -255zM484 605l-170 -255l170 -255v510z" />
    <glyph glyph-name="ellipsis" unicode="&#x2e;&#x2e;&#x2e;" horiz-adv-x="755" 
d="M137 118q29 0 47.5 -19t18.5 -47t-18.5 -46.5t-47.5 -18.5q-27 0 -47 18.5t-20 45.5q0 28 20 47.5t47 19.5zM377 118q28 0 47.5 -19t19.5 -47t-19 -46.5t-48 -18.5q-27 0 -46 18.5t-19 46.5t19 47t46 19zM552 52q0 28 19.5 47t46.5 19q28 0 47 -19t19 -47t-19 -46.5
t-47 -18.5q-27 0 -46.5 19t-19.5 46z" />
    <glyph glyph-name="degree.alt" unicode="&#xb0;C" horiz-adv-x="987" 
d="M205 713q65 0 106 -42q42 -42 42 -103t-41 -104q-40 -42 -107 -42q-65 0 -106 41q-41 43 -41 103q0 61 41 104q42 43 106 43zM131 567q0 -33 20.5 -54t53.5 -21t53.5 21.5t20.5 54.5t-20.5 54.5t-53.5 21.5t-53.5 -22t-20.5 -55zM433 213v274q-1 101 70 164.5t162 61.5
q102 0 167 -65q66 -64 66 -167h-106q0 58 -35 94t-92 36q-55 0 -90.5 -36.5t-35.5 -93.5v-262q0 -57 35.5 -93.5t90.5 -36.5q56 0 91.5 36.5t35.5 93.5h106q0 -104 -67 -168q-65 -64 -166 -64q-91 -2 -162 61.5t-70 164.5z" />
    <glyph glyph-name=".notdef" horiz-adv-x="568" 
d="M534 0h-500v700h500v-700zM84 605v-510l170 255zM284 305l-170 -255h340zM454 650h-340l170 -255zM484 605l-170 -255l170 -255v510z" />
    <glyph glyph-name=".null" horiz-adv-x="0" 
 />
    <glyph glyph-name="nonmarkingreturn" horiz-adv-x="333" 
 />
    <glyph glyph-name="CR.001" unicode="&#xd;" horiz-adv-x="0" 
 />
    <glyph glyph-name="space" unicode=" " horiz-adv-x="272" 
 />
    <glyph glyph-name="exclam" unicode="!" horiz-adv-x="309" 
d="M107 5q-19 19 -19 47t19 47q20 19 48 19t47 -19t19 -47t-19 -47q-19 -18 -47 -18t-48 18zM123 187l-23 242v271h109v-271l-23 -242h-63z" />
    <glyph glyph-name="quotedbl" unicode="&#x22;" horiz-adv-x="397" 
d="M82 489l-8 211h94l-8 -211h-78zM237 489l-8 211h94l-8 -211h-78z" />
    <glyph glyph-name="numbersign" unicode="#" horiz-adv-x="581" 
d="M131 202h-76v82h88l20 131h-78v82h90l31 203h88l-31 -203h99l31 203h88l-31 -203h75v-82h-87l-20 -131h77v-82h-89l-31 -202h-88l31 202h-99l-31 -202h-88zM251 415l-20 -131h99l20 131h-99z" />
    <glyph glyph-name="dollar" unicode="$" horiz-adv-x="595" 
d="M39 215h105q1 -48 31.5 -81.5t83.5 -43.5v226q-45 11 -73.5 22t-60.5 33t-48 58.5t-16 88.5q0 76 53.5 129.5t144.5 63.5v55h72v-55q86 -11 145 -63.5t59 -144.5h-109q0 91 -95 110v-206l45 -12q48 -10 85 -33q90 -52 90 -167q0 -85 -59 -141.5t-161 -65.5v-73h-72v74
q-97 11 -159 72q-61 61 -61 154zM168 520q0 -37 22 -58t69 -36v187q-44 -9 -67.5 -33.5t-23.5 -59.5zM331 297v-209q51 6 80 32t29 67q0 44 -27 69t-82 41z" />
    <glyph glyph-name="percent" unicode="%" horiz-adv-x="817" 
d="M68 455v126q0 59 38.5 95.5t97.5 36.5t97.5 -36.5t38.5 -95.5v-126q0 -59 -38.5 -95.5t-97.5 -36.5t-97.5 36.5t-38.5 95.5zM146 580v-124q0 -24 17 -41.5t41 -17.5q25 0 42 17.5t17 41.5v124q0 24 -17 41t-42 17q-24 0 -41 -17t-17 -41zM231 26l-69 49l424 601l68 -49z
M476 119v126q0 59 38.5 95.5t98.5 36.5q59 0 97.5 -36.5t38.5 -95.5v-126q0 -59 -38.5 -95.5t-97.5 -36.5q-60 0 -98.5 36.5t-38.5 95.5zM555 244v-124q0 -25 16 -42t42 -17q24 0 41 17.5t17 41.5v124q0 24 -17 41t-41 17q-25 0 -41.5 -17t-16.5 -41z" />
    <glyph glyph-name="ampersand" unicode="&#x26;" horiz-adv-x="685" 
d="M49 190q0 115 130 189q-72 80 -72 159q0 71 52 123t137 52v-91q-37 0 -62.5 -24.5t-25.5 -60.5q0 -51 58 -115l42 21q43 21 59 42t16 55q0 35 -24 58.5t-62 23.5v91q83 0 135 -50q51 -49 52 -121q0 -60 -32 -102.5t-97 -74.5l-24 -12l147 -159q54 92 32 201h96
q16 -72 0 -144.5t-59 -130.5l112 -120h-137l-45 50q-83 -63 -193 -63q-99 0 -167 55.5t-68 147.5zM152 190q0 -46 38 -78q40 -32 94 -32q70 0 128 41l-169 187l-6 -3q-85 -42 -85 -115z" />
    <glyph glyph-name="quotesingle" unicode="'" horiz-adv-x="242" 
d="M82 489l-8 211h94l-8 -211h-78z" />
    <glyph glyph-name="parenleft" unicode="(" horiz-adv-x="471" 
d="M325 768l61 -67q-106 -58 -172.5 -158t-66.5 -233t66.5 -233t172.5 -158l-61 -67q-124 67 -203 185.5t-79 272.5t79 272.5t203 185.5z" />
    <glyph glyph-name="parenright" unicode=")" horiz-adv-x="471" 
d="M146 -148l-61 67q106 58 172.5 158t66.5 233t-66.5 233t-172.5 158l61 67q125 -67 203.5 -185t78.5 -273t-78.5 -273t-203.5 -185z" />
    <glyph glyph-name="asterisk" unicode="*" horiz-adv-x="483" 
d="M189 509l-120 -10v58l119 -11l3 7l-92 76l41 41l76 -93l7 4l-11 119h58l-10 -119l7 -4l76 93l41 -41l-93 -76l3 -7l120 11v-58l-120 10l-3 -7l93 -76l-41 -41l-77 92l-7 -3l11 -119h-58l11 119l-6 3l-77 -92l-41 41l93 76z" />
    <glyph glyph-name="plus" unicode="+" horiz-adv-x="487" 
d="M199 269h-194v85h194v204h90v-204h193v-85h-193v-205h-90v205z" />
    <glyph glyph-name="comma" unicode="," horiz-adv-x="268" 
d="M150 -131h-76l17 237h109z" />
    <glyph glyph-name="hyphen" unicode="-" horiz-adv-x="391" 
d="M328 256h-265v93h265v-93z" />
    <glyph glyph-name="period" unicode="." horiz-adv-x="273" 
d="M137 118q29 0 47.5 -19t18.5 -47t-18.5 -46.5t-47.5 -18.5q-27 0 -47 18.5t-20 45.5q0 28 20 47.5t47 19.5z" />
    <glyph glyph-name="slash" unicode="/" horiz-adv-x="499" 
d="M147 -108h-99l304 858h99z" />
    <glyph glyph-name="zero" unicode="0" 
d="M77 213v274q-1 101 70 164.5t162 61.5q93 2 163 -61.5t70 -164.5v-274q0 -101 -70 -164.5t-163 -61.5q-91 -2 -162 61.5t-70 164.5zM183 481v-262q0 -57 35.5 -93.5t90.5 -36.5q56 0 91.5 36.5t35.5 93.5v262q0 56 -36 93t-91 37q-54 0 -90 -37t-36 -93z" />
    <glyph glyph-name="one" unicode="1" horiz-adv-x="456" 
d="M248 515h-168v83q95 0 135 23.5t40 78.5h100v-700h-107v515z" />
    <glyph glyph-name="two" unicode="2" horiz-adv-x="586" 
d="M173 500h-100q0 84 59 148.5t161 64.5q101 0 163.5 -61t62.5 -145q0 -122 -124 -199l-129 -79q-47 -31 -66 -58t-19 -62v-13h341v-96h-448v99q0 67 32.5 115.5t105.5 93.5l128 80q70 45 70 116q0 49 -32 79t-87 30q-51 0 -84.5 -32.5t-33.5 -80.5z" />
    <glyph glyph-name="three" unicode="3" horiz-adv-x="607" 
d="M75 201h100q1 -48 35.5 -80t87.5 -32q58 0 94 35t36 92q0 54 -37 89.5t-95 35.5h-87v86l170 170v6h-289v97h423v-96l-174 -170v-6q84 -8 141 -66t57 -145q0 -96 -64.5 -162.5t-173.5 -66.5q-104 0 -164 65.5t-60 147.5z" />
    <glyph glyph-name="four" unicode="4" horiz-adv-x="619" 
d="M366 158h-305v88l207 454h111l-197 -440v-6h184v153h107v-153h85v-96h-85v-158h-107v158z" />
    <glyph glyph-name="five" unicode="5" horiz-adv-x="602" 
d="M72 192h100q6 -48 41 -76.5t87 -28.5q55 0 93 38q38 40 38 97q0 58 -38 94.5t-99 36.5q-39 0 -67.5 -17t-42.5 -41h-100l25 405h387v-97h-294l-13 -196h6q52 41 120 41q96 0 160 -66.5t64 -159.5q0 -99 -68 -167t-169 -68q-96 0 -161 57q-65 59 -69 148z" />
    <glyph glyph-name="six" unicode="6" horiz-adv-x="623" 
d="M72 222q0 70 36 131l193 347h123l-154 -256l4 -4q26 9 53 9q92 0 158.5 -63t66.5 -164q2 -98 -70.5 -167.5t-170.5 -67.5q-100 0 -170 67q-69 68 -69 168zM180 222q0 -58 36 -96t95 -38t95.5 38t36.5 96q0 57 -37 95q-38 39 -95 39q-58 0 -95 -39q-36 -39 -36 -95z" />
    <glyph glyph-name="seven" unicode="7" horiz-adv-x="557" 
d="M387 603h-328v97h442v-91l-244 -609h-116l246 597v6z" />
    <glyph glyph-name="eight" unicode="8" horiz-adv-x="623" 
d="M70 197q0 66 34.5 110t78.5 64v6q-36 20 -60 59.5t-24 88.5q0 83 61 135q62 53 152 53t152 -53q61 -52 61 -135q0 -50 -24 -89t-61 -59v-6q45 -21 79 -64t34 -110q0 -95 -67 -153q-68 -57 -174 -57q-108 0 -175 57q-67 58 -67 153zM179 201q0 -51 36 -84.5t97 -33.5
q60 0 96 33.5t36 84.5q0 55 -37 87.5t-95 32.5q-59 0 -96 -32.5t-37 -87.5zM204 516q0 -43 30.5 -72.5t77.5 -29.5q45 0 76 30t31 72q0 45 -29.5 73t-77.5 28t-78 -28t-30 -73z" />
    <glyph glyph-name="nine" unicode="9" horiz-adv-x="623" 
d="M72 478q-2 98 70.5 167.5t170.5 67.5q101 0 169 -67q70 -66 70 -168q0 -66 -36 -131l-194 -347h-123l155 256l-4 4q-24 -9 -53 -9q-91 -2 -158.5 62.5t-66.5 164.5zM181 478q0 -57 37 -95.5t95 -38.5t94 39q37 38 37 95q0 58 -37 96t-94 38q-59 0 -95.5 -38t-36.5 -96z
" />
    <glyph glyph-name="colon" unicode=":" horiz-adv-x="273" 
d="M137 118q29 0 47.5 -19t18.5 -47t-18.5 -46.5t-47.5 -18.5q-27 0 -47 18.5t-20 45.5q0 28 20 47.5t47 19.5zM137 489q29 0 47.5 -18.5t18.5 -46.5t-18.5 -47t-47.5 -19q-27 0 -47 19t-20 46t20 46.5t47 19.5z" />
    <glyph glyph-name="semicolon" unicode=";" horiz-adv-x="274" 
d="M137 489q29 0 47.5 -18.5t18.5 -46.5t-18.5 -47t-47.5 -19q-27 0 -47 19t-20 46t20 46.5t47 19.5zM150 -131h-76l17 237h109z" />
    <glyph glyph-name="less" unicode="&#x3c;" horiz-adv-x="548" 
d="M480 90l-412 172v100l412 172v-93l-316 -125v-6l316 -128v-92z" />
    <glyph glyph-name="equal" unicode="=" horiz-adv-x="487" 
d="M482 176h-477v85h477v-85zM482 352h-477v85h477v-85z" />
    <glyph glyph-name="greater" unicode="&#x3e;" horiz-adv-x="548" 
d="M480 262l-412 -172v92l316 128v6l-316 125v93l412 -172v-100z" />
    <glyph glyph-name="question" unicode="?" horiz-adv-x="548" 
d="M161 510h-97q0 83 55 143t153 60q97 0 154 -54q58 -54 58 -137q0 -60 -31 -103q-26 -35 -64 -63l-53 -43q-36 -29 -36 -71v-48h-99v53q0 72 67 130l57 47q52 42 52 96q0 45 -28 72t-78 27q-49 0 -79.5 -31t-30.5 -78zM252 118q28 0 47 -19t19 -47t-19 -46.5t-47 -18.5
t-47.5 18.5t-19.5 46.5t19.5 47t47.5 19z" />
    <glyph glyph-name="at" unicode="@" horiz-adv-x="908" 
d="M46 263q0 176 116 294.5t294 118.5q177 0 291 -109.5t114 -265.5q0 -116 -44 -177.5t-122 -61.5q-88 0 -115 75h-6q-16 -32 -51.5 -53.5t-84.5 -21.5q-80 0 -133 54q-53 55 -53 142q0 88 51 143q53 56 130 55q78 0 117 -55h6v48h83v-247q0 -66 61 -66q83 0 83 164
q2 128 -92 215t-236 86q-142 0 -233.5 -96.5t-91.5 -240.5q-2 -147 93 -240.5t246 -92.5h172v-76h-172q-180 -3 -303 115.5t-120 292.5zM339 259q0 -54 31 -87t79 -33q49 0 79.5 32.5t30.5 88.5q0 52 -30.5 85t-80.5 33q-48 0 -78.5 -33t-30.5 -86z" />
    <glyph glyph-name="A" unicode="A" horiz-adv-x="685" 
d="M129 0h-111l259 700h131l260 -700h-114l-55 152h-315zM338 579l-120 -330h247l-120 330h-7z" />
    <glyph glyph-name="B" unicode="B" horiz-adv-x="613" 
d="M352 0h-263v700h243q99 0 156 -51q57 -49 57 -130q0 -101 -85 -148v-6q42 -16 75.5 -58t33.5 -106q0 -91 -63 -146t-154 -55zM194 321v-229h135q59 0 93.5 30t34.5 86q0 57 -38.5 85t-96.5 28h-128zM194 608v-203h129q52 0 83.5 28.5t31.5 75.5q0 44 -31.5 71.5
t-81.5 27.5h-131z" />
    <glyph glyph-name="C" unicode="C" horiz-adv-x="794" 
d="M46 350q0 155 103 259t260 104q127 0 215 -69q89 -67 121 -180h-116q-23 69 -82.5 108t-137.5 39q-104 2 -178.5 -75t-72.5 -186q0 -114 72 -187q72 -74 179 -74q78 0 137 38.5t83 107.5h118q-30 -113 -121 -180q-92 -68 -217 -68q-157 0 -260 103t-103 260z" />
    <glyph glyph-name="D" unicode="D" horiz-adv-x="712" 
d="M311 0h-222v700h222q162 1 259 -97t95 -252q0 -164 -94 -258q-93 -93 -260 -93zM197 605v-511h112q113 0 179.5 67.5t66.5 189.5q0 119 -66.5 186.5t-179.5 67.5h-112z" />
    <glyph glyph-name="E" unicode="E" horiz-adv-x="561" 
d="M514 0h-425v700h415v-95h-307v-203h263v-94h-263v-214h317v-94z" />
    <glyph glyph-name="F" unicode="F" horiz-adv-x="550" 
d="M197 0h-108v700h415v-95h-307v-213h283v-94h-283v-298z" />
    <glyph glyph-name="G" unicode="G" horiz-adv-x="812" 
d="M46 350q-3 153 103 259t261 104q124 0 213 -66q91 -66 122 -171h-119q-27 63 -83 99t-133 36q-111 0 -182 -74q-70 -73 -70 -187q0 -115 70 -188q71 -74 183 -74q96 0 162 54q66 56 72 140h-252v91h372v-9q0 -85 -26 -157q-39 -106 -126 -163t-203 -57q-157 0 -260.5 103
t-103.5 260z" />
    <glyph glyph-name="H" unicode="H" horiz-adv-x="734" 
d="M197 0h-108v700h108v-295h340v295h107v-700h-107v305h-340v-305z" />
    <glyph glyph-name="I" unicode="I" horiz-adv-x="286" 
d="M197 0h-108v700h108v-700z" />
    <glyph glyph-name="J" unicode="J" horiz-adv-x="585" 
d="M36 200h105q2 -52 36.5 -83t91.5 -31q64 0 96 40t32 97v381h-254v96h362v-478q0 -101 -62 -168t-176 -67q-98 0 -164 57q-66 58 -67 156z" />
    <glyph glyph-name="K" unicode="K" horiz-adv-x="634" 
d="M197 0h-108v700h108v-323h6l268 323h133l-247 -289l257 -411h-129l-200 326l-88 -103v-223z" />
    <glyph glyph-name="L" unicode="L" horiz-adv-x="534" 
d="M489 0h-400v700h108v-604h292v-96z" />
    <glyph glyph-name="M" unicode="M" horiz-adv-x="900" 
d="M193 0h-104v700h126l243 -564h6l222 564h125v-700h-104v479h-6l-190 -479h-104l-208 484h-6v-484z" />
    <glyph glyph-name="N" unicode="N" horiz-adv-x="737" 
d="M195 0h-106v700h115l332 -518h6v518h105v-700h-116l-330 518h-6v-518z" />
    <glyph glyph-name="O" unicode="O" horiz-adv-x="824" 
d="M46 350q0 154 104.5 258.5t261.5 104.5q154 2 261 -105t104 -258q0 -155 -104 -259t-262 -104q-157 0 -261 103t-104 260zM158 350q0 -114 72 -187q72 -74 182 -74t182 74q72 73 72 187q0 111 -72.5 186t-181.5 75t-181.5 -75t-72.5 -186z" />
    <glyph glyph-name="P" unicode="P" horiz-adv-x="607" 
d="M197 0h-108v700h258q99 0 161 -60q63 -60 63 -158t-64 -159q-65 -62 -160 -62h-150v-261zM197 607v-253h140q56 0 90.5 35.5t34.5 92.5q0 55 -34.5 90t-90.5 35h-140z" />
    <glyph glyph-name="Q" unicode="Q" horiz-adv-x="824" 
d="M46 350q0 154 104.5 258.5t261.5 104.5q154 2 261 -105t104 -258q0 -146 -92 -246l84 -104h-119l-37 45q-89 -58 -202 -58q-157 0 -261 103t-104 260zM157 350q0 -113 72 -188t183 -75q76 0 135 39l-148 182h120l97 -119q51 67 51 161q0 113 -73 187q-72 75 -182 75
t-183 -75q-72 -75 -72 -187z" />
    <glyph glyph-name="R" unicode="R" horiz-adv-x="634" 
d="M197 0h-108v700h250q105 0 170 -60q65 -59 65 -155q0 -71 -38.5 -126t-100.5 -77l159 -282h-122l-143 266h-132v-266zM197 607v-247h137q59 0 94 32.5t35 92.5q0 54 -35.5 88t-97.5 34h-133z" />
    <glyph glyph-name="S" unicode="S" horiz-adv-x="595" 
d="M39 215h105q1 -57 44 -93t113 -36q63 0 101 27t38 74q0 38 -21 62.5t-54.5 36.5t-73.5 21.5t-80.5 22t-74 32.5t-54.5 59.5t-21 96.5q0 84 63 139q64 56 171 56q97 0 168.5 -54t71.5 -156h-109q0 52 -35 82.5t-97 30.5q-59 0 -92.5 -27t-33.5 -69q0 -34 21 -56t55 -33
t75 -20t81.5 -23t74.5 -34.5t55 -61t21 -97.5q0 -91 -68 -150q-67 -58 -186 -58q-113 0 -186 63q-72 64 -72 165z" />
    <glyph glyph-name="T" unicode="T" horiz-adv-x="581" 
d="M237 604h-208v96h523v-96h-208v-604h-107v604z" />
    <glyph glyph-name="U" unicode="U" horiz-adv-x="699" 
d="M80 256v444h108v-443q0 -81 42 -125.5t120 -44.5t120 45t42 126v442h107v-443q0 -123 -73 -196q-72 -74 -196 -74q-126 0 -198 73q-72 74 -72 196z" />
    <glyph glyph-name="V" unicode="V" horiz-adv-x="675" 
d="M276 0l-258 700h117l197 -568h6l200 568h120l-263 -700h-119z" />
    <glyph glyph-name="W" unicode="W" horiz-adv-x="951" 
d="M198 0l-180 700h116l129 -551h7l139 551h133l140 -551h6l129 551h117l-180 -700h-133l-142 551h-7l-142 -551h-132z" />
    <glyph glyph-name="X" unicode="X" 
d="M135 0h-125l229 356l-217 344h122l160 -258h6l161 258h123l-218 -344l228 -356h-125l-170 272h-6z" />
    <glyph glyph-name="Y" unicode="Y" horiz-adv-x="644" 
d="M269 270l-251 430h117l183 -321h7l181 321h121l-250 -430v-270h-108v270z" />
    <glyph glyph-name="Z" unicode="Z" horiz-adv-x="621" 
d="M573 0h-525v100l392 499v7h-380v94h511v-100l-393 -499v-7h395v-94z" />
    <glyph glyph-name="bracketleft" unicode="[" horiz-adv-x="425" 
d="M312 -145h-227v908h227v-88h-124v-732h124v-88z" />
    <glyph glyph-name="backslash" unicode="\" horiz-adv-x="499" 
d="M352 -108l-304 858h99l304 -858h-99z" />
    <glyph glyph-name="bracketright" unicode="]" horiz-adv-x="425" 
d="M104 -145v88h125v732h-125v88h228v-908h-228z" />
    <glyph glyph-name="asciicircum" unicode="^" horiz-adv-x="587" 
d="M160 311h-93l179 389h95l180 -389h-93l-132 293h-6z" />
    <glyph glyph-name="underscore" unicode="_" horiz-adv-x="664" 
d="M61 -115v86h542v-86h-542z" />
    <glyph glyph-name="grave" unicode="`" horiz-adv-x="263" 
d="M138 608l-90 139h111l56 -139h-77z" />
    <glyph glyph-name="a" unicode="a" horiz-adv-x="646" 
d="M294 536q46 0 85 -18t56.5 -35.5t29.5 -35.5h7v76h105v-523h-103v74h-6q-62 -87 -169 -87q-113 0 -184 75q-70 76 -70 197q0 123 70 199q71 78 179 78zM152 261q0 -81 44.5 -130t117.5 -49q74 0 117 51q44 53 44 128q0 82 -45 130.5t-117 48.5q-71 0 -116 -50t-45 -129z
" />
    <glyph glyph-name="b" unicode="b" horiz-adv-x="658" 
d="M184 0h-102v750h105v-303h6q12 19 30 36t57 35t85 18q109 0 178 -78q70 -76 70 -199q0 -120 -71 -197q-70 -75 -183 -75q-107 0 -168 87h-7v-74zM184 261q0 -76 43 -128q43 -51 117 -51q73 0 117.5 49t44.5 130q0 79 -45 129q-44 50 -115 50q-72 0 -117 -48.5t-45 -130.5
z" />
    <glyph glyph-name="c" unicode="c" horiz-adv-x="615" 
d="M45 261q-2 115 76.5 195.5t194.5 79.5q94 0 164 -54q71 -53 89 -142h-108q-14 45 -53.5 72.5t-90.5 27.5q-73 0 -119 -51q-45 -51 -45 -128q0 -78 46 -128q47 -51 120 -51q50 0 89.5 27.5t53.5 71.5h107q-16 -88 -88 -141q-71 -53 -164 -53q-120 0 -196 78.5t-76 195.5z
" />
    <glyph glyph-name="d" unicode="d" horiz-adv-x="646" 
d="M294 536q46 0 85 -18t56.5 -35.5t29.5 -35.5h7v303h105v-750h-103v74h-6q-62 -87 -169 -87q-113 0 -184 75q-70 76 -70 197q0 123 70 199q71 78 179 78zM152 261q0 -81 44.5 -130t117.5 -49q74 0 117 51q44 53 44 128q0 82 -45 130.5t-117 48.5q-71 0 -116 -50t-45 -129z
" />
    <glyph glyph-name="e" unicode="e" horiz-adv-x="607" 
d="M45 260q-1 121 74.5 199.5t186.5 76.5q118 0 187 -76.5t69 -192.5v-39h-412q3 -69 46.5 -111t114.5 -42q50 0 89 22.5t55 60.5h102q-20 -78 -87 -124q-68 -47 -162 -47q-116 0 -190 77q-73 76 -73 196zM152 309h306q-5 64 -47 101.5t-105 37.5q-60 0 -104 -39
q-44 -40 -50 -100z" />
    <glyph glyph-name="f" unicode="f" horiz-adv-x="416" 
d="M123 437h-94v86h95v52q0 80 51 127.5t135 47.5h59v-89h-53q-44 0 -66.5 -24t-22.5 -65v-49h146v-86h-145v-437h-105v437z" />
    <glyph glyph-name="g" unicode="g" horiz-adv-x="648" 
d="M293 536q66 0 110 -29t62 -60h7v76h105v-521q0 -114 -69.5 -179.5t-191.5 -65.5q-102 0 -163 49q-60 49 -71 124h97q9 -40 45 -62.5t92 -22.5q78 0 118 40.5t40 116.5v75h-7q-64 -89 -169 -88q-112 0 -182 76q-71 77 -71 197q0 122 70 198t178 76zM152 262
q0 -81 44.5 -129.5t117.5 -48.5q74 0 117 51q44 52 44 127q0 82 -45 130t-117 48q-71 0 -116 -50t-45 -128z" />
    <glyph glyph-name="h" unicode="h" horiz-adv-x="609" 
d="M187 0h-105v750h104v-297h7q19 37 60 60t94 23q87 0 140 -57q53 -58 53 -143v-336h-105v316q0 53 -34 87.5t-85 34.5q-55 0 -92 -37q-37 -36 -37 -91v-310z" />
    <glyph glyph-name="i" unicode="i" horiz-adv-x="256" 
d="M66 672q0 29 19.5 47.5t49.5 18.5q31 0 50.5 -18.5t19.5 -47.5q0 -30 -19.5 -48.5t-50.5 -18.5t-50 18.5t-19 48.5zM187 0h-105v523h105v-523z" />
    <glyph glyph-name="j" unicode="j" horiz-adv-x="319" 
d="M4 -230v94h37q42 0 66 24.5t24 64.5v570h105v-571q0 -84 -50.5 -133t-134.5 -49h-47zM114 672q0 28 19.5 47t49.5 19q31 0 50.5 -18.5t19.5 -47.5q0 -30 -19.5 -48.5t-50.5 -18.5q-30 0 -49.5 18.5t-19.5 48.5z" />
    <glyph glyph-name="k" unicode="k" horiz-adv-x="552" 
d="M187 0h-105v750h105v-450h6l198 223h131l-182 -198l195 -325h-119l-148 247l-81 -89v-158z" />
    <glyph glyph-name="l" unicode="l" horiz-adv-x="302" 
d="M82 130v620h105v-614q0 -43 40 -43h22v-93h-43q-59 0 -91.5 34t-32.5 96z" />
    <glyph glyph-name="m" unicode="m" horiz-adv-x="926" 
d="M187 0h-105v523h102v-69h7q19 37 57 59.5t90 22.5q110 0 160 -88h7q49 88 161 88q86 0 138 -54q53 -55 53 -139v-343h-105v307q0 63 -29 97t-81 34t-85.5 -36.5t-33.5 -96.5v-305h-105v319q0 54 -31.5 86.5t-81.5 32.5q-51 0 -84.5 -36.5t-33.5 -93.5v-308z" />
    <glyph glyph-name="n" unicode="n" horiz-adv-x="605" 
d="M187 0h-105v523h102v-70h7q18 37 59 60t94 23q88 0 140 -57q52 -55 52 -143v-336h-105v316q0 54 -33 88t-84 34q-55 0 -91 -38t-36 -95v-305z" />
    <glyph glyph-name="o" unicode="o" horiz-adv-x="642" 
d="M45 261q0 78 35.5 141t98.5 98q65 36 143 36q79 0 142 -36t98 -99t35 -140q0 -117 -79 -195.5t-197 -78.5q-120 0 -198 78t-78 196zM152 261q0 -77 47 -129q48 -50 122 -50q75 0 121 51q48 51 48 128q0 79 -48 128q-46 51 -121 51q-74 0 -122 -51q-47 -50 -47 -128z" />
    <glyph glyph-name="p" unicode="p" horiz-adv-x="658" 
d="M187 -230h-105v753h102v-75h7q12 19 35 40q56 48 133 48q113 0 183 -76q71 -76 71 -197q0 -122 -70 -199q-69 -77 -178 -77q-66 0 -109.5 29t-62.5 60h-6v-306zM184 262q0 -82 45 -131q46 -49 117 -49t115 50q45 51 45 130q0 81 -44.5 130t-117.5 49q-74 0 -117 -51
q-43 -50 -43 -128z" />
    <glyph glyph-name="q" unicode="q" horiz-adv-x="648" 
d="M299 536q110 0 169 -88h6v75h103v-753h-105v306h-7q-11 -18 -29 -35.5t-57 -35.5t-85 -18q-108 0 -179 77q-70 77 -70 199q0 123 70 197q70 76 184 76zM152 262q0 -79 45 -130q45 -50 116 -50t116 49q46 49 46 131q0 76 -44 128q-43 51 -117 51q-73 0 -117.5 -49
t-44.5 -130z" />
    <glyph glyph-name="r" unicode="r" horiz-adv-x="415" 
d="M187 0h-105v523h101v-91h7q15 38 53 65t87 27h46v-102h-49q-65 0 -102.5 -44.5t-37.5 -119.5v-258z" />
    <glyph glyph-name="s" unicode="s" horiz-adv-x="530" 
d="M52 155h99q10 -82 114 -82q51 0 79 20.5t28 56.5q0 35 -31.5 52.5t-76.5 24.5t-90 18t-76.5 45t-31.5 93q0 67 54 110q55 43 144 43q82 0 135.5 -42.5t59.5 -114.5h-96q-5 34 -31.5 53.5t-71.5 19.5q-44 0 -70 -18.5t-26 -48.5q0 -27 23 -42.5t57.5 -20t74.5 -13.5
t74.5 -21.5t57.5 -46.5t23 -86q0 -75 -58 -121.5t-154 -46.5t-150.5 44.5t-59.5 123.5z" />
    <glyph glyph-name="t" unicode="t" horiz-adv-x="433" 
d="M133 437h-94v85h69q14 0 22.5 9.5t8.5 24.5v115h99v-148h152v-86h-152v-268q0 -80 76 -80h71v-89h-87q-79 0 -122 43t-43 123v271z" />
    <glyph glyph-name="u" unicode="u" horiz-adv-x="600" 
d="M74 187v336h105v-317q0 -54 33 -88t84 -34q55 0 91 37.5t36 94.5v307h105v-523h-102v70h-7q-18 -37 -59 -60t-94 -23q-87 0 -140 56q-52 56 -52 144z" />
    <glyph glyph-name="v" unicode="v" horiz-adv-x="562" 
d="M224 0l-199 523h111l141 -396h7l140 396h113l-199 -523h-114z" />
    <glyph glyph-name="w" unicode="w" horiz-adv-x="867" 
d="M182 0l-154 523h111l107 -399h7l125 399h111l124 -399h7l107 399h112l-155 -523h-126l-122 388h-6l-123 -388h-125z" />
    <glyph glyph-name="x" unicode="x" horiz-adv-x="547" 
d="M140 0h-119l185 272l-171 251h119l117 -181h6l116 181h119l-171 -254l185 -269h-119l-130 194h-9z" />
    <glyph glyph-name="y" unicode="y" horiz-adv-x="575" 
d="M236 -22l-211 545h114l145 -404h7l144 404h115l-240 -627q-24 -64 -64.5 -95t-107.5 -31h-59v94h46q67 0 92 64z" />
    <glyph glyph-name="z" unicode="z" horiz-adv-x="520" 
d="M464 0h-409v91l272 337v7h-263v88h395v-88l-272 -339v-7h277v-89z" />
    <glyph glyph-name="braceleft" unicode="{" horiz-adv-x="500" 
d="M117 265h-32v88h32q43 0 43 45v211q0 76 43.5 115t122.5 39h61v-88h-53q-38 0 -55 -17.5t-17 -56.5v-209q0 -71 -49 -80v-6q49 -9 49 -80v-209q0 -39 17 -56.5t55 -17.5h53v-88h-61q-79 0 -122.5 39t-43.5 115v211q0 45 -43 45z" />
    <glyph glyph-name="bar" unicode="|" horiz-adv-x="322" 
d="M211 -206h-101v989h101v-989z" />
    <glyph glyph-name="braceright" unicode="}" horiz-adv-x="500" 
d="M113 -145v88h53q37 0 54 17.5t17 56.5v209q0 72 50 80v6q-50 8 -50 80v209q0 74 -71 74h-53v88h61q79 0 122.5 -39t43.5 -115v-211q0 -45 42 -45h32v-88h-32q-42 0 -42 -45v-211q0 -76 -43.5 -115t-122.5 -39h-61z" />
    <glyph glyph-name="asciitilde" unicode="~" horiz-adv-x="521" 
d="M111 229h-77q0 68 34.5 109.5t95.5 41.5q40 0 101 -32t85 -32q28 0 43.5 17.5t16.5 45.5h77q0 -67 -34 -108.5t-95 -41.5q-39 0 -96.5 32t-89.5 32q-28 0 -44 -17.5t-17 -46.5z" />
    <glyph glyph-name="uni00A0" unicode="&#xa0;" horiz-adv-x="272" 
 />
    <glyph glyph-name="exclamdown" unicode="&#xa1;" horiz-adv-x="309" 
d="M154 560q29 0 48 -18.5t19 -46.5t-19.5 -47t-47.5 -19t-47 19t-19 47t19 46.5t47 18.5zM100 -153v271l23 242h63l23 -242v-271h-109z" />
    <glyph glyph-name="cent" unicode="&#xa2;" horiz-adv-x="616" 
d="M45 347q0 108 65 184q66 76 171 88v82h82v-83q79 -13 134.5 -64.5t71.5 -127.5h-108q-14 45 -53.5 72.5t-90.5 27.5q-73 0 -119 -51q-45 -51 -45 -128q0 -78 46 -128q47 -51 120 -51q50 0 89.5 27t53.5 71h108q-16 -76 -72 -126.5t-135 -62.5v-77h-82v75q-107 12 -171 88
q-65 77 -65 184z" />
    <glyph glyph-name="sterling" unicode="&#xa3;" horiz-adv-x="628" 
d="M557 0h-492v99h65v203h-56v88h56v112q0 93 62 152q64 59 156 59q94 0 151 -56t59 -131h-106q-2 36 -31 61t-72 25q-51 0 -81.5 -31t-30.5 -84v-107h168v-88h-168v-203h320v-99z" />
    <glyph glyph-name="yen" unicode="&#xa5;" horiz-adv-x="644" 
d="M223 348l-205 352h117l183 -321h7l181 321h121l-205 -352h118v-81h-163v-72h163v-80h-163v-115h-108v115h-162v80h162v72h-162v81h116z" />
    <glyph glyph-name="section" unicode="&#xa7;" horiz-adv-x="536" 
d="M55 284q0 44 24 78t63 52v7q-69 58 -69 140q0 78 55 124q56 48 145 48q85 0 144.5 -49t59.5 -134h-101q-1 37 -27.5 63.5t-75.5 26.5q-42 0 -68 -22t-26 -59q0 -53 71 -97l119 -69q56 -34 83.5 -71t27.5 -87q0 -91 -87 -130v-7q70 -60 70 -141q0 -76 -56 -123t-145 -47
q-85 0 -144.5 49t-59.5 134h100q2 -36 26.5 -63.5t77.5 -27.5q42 0 68 22.5t27 58.5q0 58 -72 96l-141 85q-44 28 -66.5 61.5t-22.5 81.5zM154 287q0 -44 41 -70l111 -63q32 1 54 23.5t22 53.5q0 48 -65 86l-87 47q-33 -1 -54.5 -23t-21.5 -54z" />
    <glyph glyph-name="dieresis" unicode="&#xa8;" horiz-adv-x="382" 
d="M41 675q0 25 17.5 43t43.5 18q27 0 44 -17.5t17 -43.5q0 -27 -17 -44t-44 -17q-26 0 -43.5 17t-17.5 44zM280 736q26 0 44 -18t18 -43q0 -26 -18 -43.5t-44 -17.5q-38 -3 -53.5 29t0 64t53.5 29z" />
    <glyph glyph-name="copyright" unicode="&#xa9;" horiz-adv-x="819" 
d="M46 348q0 153 104.5 259t256.5 106q158 0 262 -105t104 -260q3 -151 -102.5 -257.5t-261.5 -104.5q-154 -2 -260 104.5t-103 257.5zM409 54q125 -2 208 83.5t81 211.5q0 127 -81.5 211t-209.5 84q-121 2 -205 -85t-81 -211q-2 -125 81 -210.5t207 -83.5zM221 348
q0 82 54 137q54 56 136 56q66 0 113.5 -37t61.5 -98h-76q-10 30 -36 47t-62 17q-52 0 -83 -34t-31 -88q0 -55 31 -88.5t84 -33.5q74 0 102 64h73q-15 -63 -62 -99t-114 -36q-83 0 -137 55q-54 56 -54 138z" />
    <glyph glyph-name="ordfeminine" unicode="&#xaa;" horiz-adv-x="526" 
d="M56 505q0 92 52 150t135 58q49 0 81.5 -22t44.5 -45h7v57h83v-394h-83v56h-7q-10 -23 -41 -44.5t-82 -21.5q-83 0 -137 57q-53 59 -53 149zM140 505q0 -59 33.5 -95t86.5 -36t85.5 37t32.5 94q0 61 -33.5 97t-85.5 36t-85.5 -37t-33.5 -96z" />
    <glyph glyph-name="guillemotleft" unicode="&#xab;" horiz-adv-x="530" 
d="M263 101l-198 162v58l198 162v-102l-104 -86v-6l104 -86v-102zM465 101l-198 162v58l198 162v-102l-104 -86v-6l104 -86v-102z" />
    <glyph glyph-name="uni00AD" unicode="&#xad;" horiz-adv-x="391" 
d="M328 256h-265v93h265v-93z" />
    <glyph glyph-name="registered" unicode="&#xae;" horiz-adv-x="523" 
d="M48 536q0 89 59 150t152 61q97 0 156 -60q60 -60 60 -150q0 -89 -59 -151q-58 -61 -155 -61q-95 0 -154 60q-59 61 -59 151zM101 536q0 -71 44 -116t116 -45q74 0 117 44.5t43 117.5t-43.5 116.5t-118.5 43.5q-72 0 -115 -44.5t-43 -116.5zM237 426h-52v219h92
q34 0 55 -20.5t21 -51.5q0 -21 -10 -39t-24 -24l41 -84h-56l-31 73h-36v-73zM237 600v-56h33q18 0 25 14t-0.5 28t-24.5 14h-33z" />
    <glyph glyph-name="overscore" unicode="&#xaf;" horiz-adv-x="350" 
d="M303 629h-255v82h255v-82z" />
    <glyph glyph-name="degree" unicode="&#xb0;" horiz-adv-x="410" 
d="M205 713q65 0 106 -42q42 -42 42 -103t-41 -104q-40 -42 -107 -42q-65 0 -106 41q-41 43 -41 103q0 61 41 104q42 43 106 43zM131 567q0 -33 20.5 -54t53.5 -21t53.5 21.5t20.5 54.5t-20.5 54.5t-53.5 21.5t-53.5 -22t-20.5 -55z" />
    <glyph glyph-name="uni00B2" unicode="&#xb2;" horiz-adv-x="377" 
d="M125 584h-70q0 48 35 86q36 38 94 38q60 0 97 -35t37 -85q0 -72 -69 -113l-77 -46q-22 -13 -30 -24.5t-8 -30.5v-7h188v-67h-264v66q0 41 17.5 68t59.5 52l68 42q38 24 38 60q0 21 -16 36t-42 15t-42 -16.5t-16 -38.5z" />
    <glyph glyph-name="uni00B3" unicode="&#xb3;" horiz-adv-x="383" 
d="M55 416h70q7 -54 61 -54q29 0 46.5 15.5t17.5 43.5q0 26 -18 42t-47 16h-53v58l91 92v4h-153v67h246v-64l-97 -96v-3q45 -3 76.5 -36.5t31.5 -79.5q0 -55 -39.5 -92t-101.5 -37q-59 0 -95 37t-36 87z" />
    <glyph glyph-name="acute" unicode="&#xb4;" horiz-adv-x="263" 
d="M125 608h-77l56 139h111z" />
    <glyph glyph-name="paragraph" unicode="&#xb6;" horiz-adv-x="576" 
d="M288 700h225v-745h-81v662h-60v-662h-80v291q-96 1 -162.5 68t-66.5 160q0 94 65.5 160t159.5 66z" />
    <glyph glyph-name="middot" unicode="&#xb7;" horiz-adv-x="273" 
d="M136 380q29 0 48 -19t19 -47t-19 -47t-48 -19q-27 0 -46.5 19t-19.5 47t19.5 47t46.5 19z" />
    <glyph glyph-name="cedilla" unicode="&#xb8;" horiz-adv-x="264" 
d="M43 -130h59q5 -22 29 -22q14 0 23 8.5t9 23.5q0 14 -9 22.5t-23 8.5q-19 0 -26 -15l-57 1l22 123h61l-18 -72h6q11 9 30 9q33 0 54 -22.5t21 -55.5q0 -36 -26 -60t-67 -24q-37 0 -62.5 21t-25.5 54z" />
    <glyph glyph-name="uni00B9" unicode="&#xb9;" horiz-adv-x="288" 
d="M157 582h-102v54q67 0 87.5 14t20.5 50h69v-400h-75v282z" />
    <glyph glyph-name="ordmasculine" unicode="&#xba;" horiz-adv-x="529" 
d="M56 505q0 90 59 149t151 59q89 0 148 -59t59 -148t-59 -148t-149 -59q-92 0 -150 58q-59 59 -59 148zM389 506q0 57 -35 94t-89 37q-55 0 -90 -37.5t-35 -94.5t35 -94t90 -37t89.5 37t34.5 95z" />
    <glyph glyph-name="guillemotright" unicode="&#xbb;" horiz-adv-x="538" 
d="M263 263l-198 -162v102l104 86v6l-104 86v102l198 -162v-58zM465 263l-198 -162v102l104 86v6l-104 86v102l198 -162v-58z" />
    <glyph glyph-name="onequarter" unicode="&#xbc;" horiz-adv-x="859" 
d="M157 582h-102v54q67 0 87.5 14t20.5 50h69v-400h-75v282zM266 -41h-89l390 782h89zM679 77h-183v61l115 262h75l-110 -252v-4h103v98h75v-98h49v-67h-49v-77h-75v77z" />
    <glyph glyph-name="onehalf" unicode="&#xbd;" horiz-adv-x="880" 
d="M157 582h-102v54q67 0 87.5 14t20.5 50h69v-400h-75v282zM266 -41h-89l390 782h89zM627 284h-69q0 48 35 86q34 37 93 37q61 0 97.5 -34.5t36.5 -84.5q0 -72 -68 -113l-78 -47q-22 -13 -30 -24.5t-8 -30.5v-7h188v-66h-263v65q0 41 17.5 68t58.5 52l69 42q38 24 38 60
q0 22 -16.5 36.5t-42.5 14.5q-27 0 -42.5 -16t-15.5 -38z" />
    <glyph glyph-name="threequarters" unicode="&#xbe;" horiz-adv-x="876" 
d="M55 416h70q7 -54 61 -54q29 0 46.5 15.5t17.5 43.5q0 26 -18 42t-47 16h-53v58l91 92v4h-153v67h246v-64l-97 -96v-3q45 -3 76.5 -36.5t31.5 -79.5q0 -55 -39.5 -92t-101.5 -37q-59 0 -95 37t-36 87zM303 -41h-89l390 782h89zM697 77h-183v61l115 262h75l-110 -252v-4
h103v98h75v-98h49v-67h-49v-77h-75v77z" />
    <glyph glyph-name="questiondown" unicode="&#xbf;" horiz-adv-x="548" 
d="M64 25q0 60 31 102q27 37 64 64l52 43q37 28 37 71v48h99v-53q0 -72 -67 -130l-57 -47q-52 -42 -52 -96q0 -45 28 -72t78 -27q49 0 79.5 31t30.5 78h97q0 -83 -55 -143t-153 -60q-97 0 -155 54q-57 54 -57 137zM296 560q28 0 47.5 -18.5t19.5 -46.5t-19.5 -47t-47.5 -19
t-47 19t-19 47t19 46.5t47 18.5z" />
    <glyph glyph-name="Agrave" unicode="&#xc0;" horiz-adv-x="685" 
d="M129 0h-111l259 700h131l260 -700h-114l-55 152h-315zM338 579l-120 -330h247l-120 330h-7zM322 787l-90 139h111l56 -139h-77z" />
    <glyph glyph-name="Aacute" unicode="&#xc1;" horiz-adv-x="685" 
d="M129 0h-111l259 700h131l260 -700h-114l-55 152h-315zM338 579l-120 -330h247l-120 330h-7zM375 787h-77l56 139h111z" />
    <glyph glyph-name="Acircumflex" unicode="&#xc2;" horiz-adv-x="685" 
d="M129 0h-111l259 700h131l260 -700h-114l-55 152h-315zM283 787h-85l98 137h100l98 -137h-84l-61 58h-7zM338 579l-120 -330h247l-120 330h-7z" />
    <glyph glyph-name="Atilde" unicode="&#xc3;" horiz-adv-x="685" 
d="M129 0h-111l259 700h131l260 -700h-114l-55 152h-315zM249 789h-72q0 60 28 93.5t75 33.5q25 0 68.5 -25t54.5 -25q35 0 37 50h71q0 -60 -27.5 -94t-73.5 -34q-25 0 -67.5 25t-56.5 25q-36 0 -37 -49zM338 579l-120 -330h247l-120 330h-7z" />
    <glyph glyph-name="Adieresis" unicode="&#xc4;" horiz-adv-x="685" 
d="M129 0h-111l259 700h131l260 -700h-114l-55 152h-315zM194 854q0 26 17.5 43.5t43.5 17.5q27 0 44 -17.5t17 -43.5q0 -27 -17 -44t-44 -17q-26 0 -43.5 17.5t-17.5 43.5zM338 579l-120 -330h247l-120 330h-7zM433 915q26 0 44 -18t18 -43q0 -26 -18 -43.5t-44 -17.5
q-27 0 -44 17t-17 44t17 44t44 17z" />
    <glyph glyph-name="Aring" unicode="&#xc5;" horiz-adv-x="685" 
d="M129 0h-111l259 700h131l260 -700h-114l-55 152h-315zM338 579l-120 -330h247l-120 330h-7zM250 851q0 41 27 67t69 26q43 0 70 -26t27 -66t-27 -66.5t-69 -26.5t-69.5 26t-27.5 66zM308 851q0 -18 11 -28.5t28 -10.5t27.5 11t10.5 29q0 17 -10.5 27.5t-28.5 10.5
q-17 0 -27.5 -10.5t-10.5 -28.5z" />
    <glyph glyph-name="AE" unicode="&#xc6;" horiz-adv-x="909" 
d="M131 0h-113l361 700h473v-95h-307v-203h255v-94h-255v-214h317v-94h-425v152h-228zM430 594l-174 -345h181v345h-7z" />
    <glyph glyph-name="Ccedilla" unicode="&#xc7;" horiz-adv-x="794" 
d="M46 350q0 155 103 259t260 104q127 0 215 -69q89 -67 121 -180h-116q-23 69 -82.5 108t-137.5 39q-104 2 -178.5 -75t-72.5 -186q0 -114 72 -187q72 -74 179 -74q78 0 137 38.5t83 107.5h118q-30 -112 -120 -179q-89 -68 -213 -69l-10 -39h6q10 9 30 9q33 0 54 -22.5
t21 -55.5q0 -36 -26 -60t-67 -24q-37 0 -62.5 21t-25.5 54h59q5 -22 29 -22q14 0 23 8.5t9 23.5q0 14 -9 22.5t-23 8.5q-18 0 -26 -15l-57 1l17 93q-139 18 -224 118q-86 101 -86 242z" />
    <glyph glyph-name="Egrave" unicode="&#xc8;" horiz-adv-x="561" 
d="M514 0h-425v700h415v-95h-307v-203h263v-94h-263v-214h317v-94zM282 787l-90 139h111l56 -139h-77z" />
    <glyph glyph-name="Eacute" unicode="&#xc9;" horiz-adv-x="561" 
d="M514 0h-425v700h415v-95h-307v-203h263v-94h-263v-214h317v-94zM335 787h-77l56 139h111z" />
    <glyph glyph-name="Ecircumflex" unicode="&#xca;" horiz-adv-x="561" 
d="M514 0h-425v700h415v-95h-307v-203h263v-94h-263v-214h317v-94zM243 787h-85l98 137h100l98 -137h-84l-61 58h-7z" />
    <glyph glyph-name="Edieresis" unicode="&#xcb;" horiz-adv-x="561" 
d="M514 0h-425v700h415v-95h-307v-203h263v-94h-263v-214h317v-94zM154 854q0 26 17.5 43.5t43.5 17.5q27 0 44 -17.5t17 -43.5q0 -27 -17 -44t-44 -17q-26 0 -43.5 17.5t-17.5 43.5zM393 915q26 0 44 -18t18 -43q0 -26 -18 -43.5t-44 -17.5q-27 0 -44 17t-17 44t17 44
t44 17z" />
    <glyph glyph-name="Igrave" unicode="&#xcc;" horiz-adv-x="286" 
d="M121 787l-90 139h111l56 -139h-77zM197 0h-108v700h108v-700z" />
    <glyph glyph-name="Iacute" unicode="&#xcd;" horiz-adv-x="286" 
d="M197 0h-108v700h108v-700zM174 787h-77l56 139h111z" />
    <glyph glyph-name="Icircumflex" unicode="&#xce;" horiz-adv-x="286" 
d="M81 787h-85l98 137h100l98 -137h-84l-61 58h-7zM197 0h-108v700h108v-700z" />
    <glyph glyph-name="Idieresis" unicode="&#xcf;" horiz-adv-x="286" 
d="M-8 854q0 26 17.5 43.5t43.5 17.5q27 0 44 -17t17 -44t-16.5 -44t-44.5 -17q-26 0 -43.5 17.5t-17.5 43.5zM197 0h-108v700h108v-700zM231 915q26 0 44 -18t18 -43q0 -26 -18 -43.5t-44 -17.5q-27 0 -44 17t-17 44t17 44t44 17z" />
    <glyph glyph-name="Eth" unicode="&#xd0;" horiz-adv-x="741" 
d="M133 309h-59v86h59v305h211q164 0 257 -96.5t93 -252.5q0 -163 -92 -258q-92 -93 -258 -93h-211v309zM241 309v-215h101q112 0 176.5 67.5t64.5 189.5q0 120 -64.5 187t-176.5 67h-101v-210h137v-86h-137z" />
    <glyph glyph-name="Ntilde" unicode="&#xd1;" horiz-adv-x="737" 
d="M195 0h-106v700h115l332 -518h6v518h105v-700h-116l-330 518h-6v-518zM284 789h-72q0 60 28.5 93.5t74.5 33.5q25 0 68.5 -25t54.5 -25q35 0 37 50h71q0 -60 -27.5 -94t-73.5 -34q-25 0 -68.5 25t-55.5 25q-36 0 -37 -49z" />
    <glyph glyph-name="Ograve" unicode="&#xd2;" horiz-adv-x="824" 
d="M46 350q0 154 104.5 258.5t261.5 104.5q154 2 261 -105t104 -258q0 -155 -104 -259t-262 -104q-157 0 -261 103t-104 260zM158 350q0 -114 72 -187q72 -74 182 -74t182 74q72 73 72 187q0 111 -72.5 186t-181.5 75t-181.5 -75t-72.5 -186zM387 787l-90 139h111l56 -139
h-77z" />
    <glyph glyph-name="Oacute" unicode="&#xd3;" horiz-adv-x="824" 
d="M46 350q0 154 104.5 258.5t261.5 104.5q154 2 261 -105t104 -258q0 -155 -104 -259t-262 -104q-157 0 -261 103t-104 260zM158 350q0 -114 72 -187q72 -74 182 -74t182 74q72 73 72 187q0 111 -72.5 186t-181.5 75t-181.5 -75t-72.5 -186zM440 787h-77l56 139h111z" />
    <glyph glyph-name="Ocircumflex" unicode="&#xd4;" horiz-adv-x="824" 
d="M46 350q0 154 104.5 258.5t261.5 104.5q154 2 261 -105t104 -258q0 -155 -104 -259t-262 -104q-157 0 -261 103t-104 260zM158 350q0 -114 72 -187q72 -74 182 -74t182 74q72 73 72 187q0 111 -72.5 186t-181.5 75t-181.5 -75t-72.5 -186zM348 787h-85l98 137h100
l98 -137h-84l-61 58h-7z" />
    <glyph glyph-name="Otilde" unicode="&#xd5;" horiz-adv-x="824" 
d="M46 350q0 154 104.5 258.5t261.5 104.5q154 2 261 -105t104 -258q0 -155 -104 -259t-262 -104q-157 0 -261 103t-104 260zM158 350q0 -114 72 -187q72 -74 182 -74t182 74q72 73 72 187q0 111 -72.5 186t-181.5 75t-181.5 -75t-72.5 -186zM313 789h-72q0 60 28.5 93.5
t74.5 33.5q25 0 68.5 -25t54.5 -25q35 0 37 50h71q0 -60 -27.5 -94t-73.5 -34q-25 0 -67.5 25t-56.5 25q-36 0 -37 -49z" />
    <glyph glyph-name="Odieresis" unicode="&#xd6;" horiz-adv-x="824" 
d="M46 350q0 154 104.5 258.5t261.5 104.5q154 2 261 -105t104 -258q0 -155 -104 -259t-262 -104q-157 0 -261 103t-104 260zM158 350q0 -114 72 -187q72 -74 182 -74t182 74q72 73 72 187q0 111 -72.5 186t-181.5 75t-181.5 -75t-72.5 -186zM259 854q0 26 17.5 43.5
t43.5 17.5q27 0 44 -17.5t17 -43.5q0 -27 -17 -44t-44 -17q-26 0 -43.5 17.5t-17.5 43.5zM498 915q26 0 44 -18t18 -43q0 -26 -18 -43.5t-44 -17.5q-27 0 -44 17t-17 44t17 44t44 17z" />
    <glyph glyph-name="multiply" unicode="&#xd7;" horiz-adv-x="461" 
d="M66 71l-61 60l165 177l-165 178l61 62l164 -176l164 176l61 -61l-166 -178l167 -179l-62 -60l-164 177z" />
    <glyph glyph-name="Oslash" unicode="&#xd8;" horiz-adv-x="821" 
d="M46 350q0 156 104.5 259.5t261.5 103.5q92 0 170 -39l44 65h103l-76 -112q59 -51 91.5 -123t32.5 -154q0 -155 -104 -259t-262 -104q-89 0 -166 36l-49 -73h-104l81 119q-127 106 -127 281zM158 350q0 -118 76 -191l289 428q-53 24 -111 24q-109 0 -181.5 -75t-72.5 -186
zM593 537l-288 -426q48 -22 107 -22q110 0 182 74q72 73 72 187q0 111 -73 187z" />
    <glyph glyph-name="Ugrave" unicode="&#xd9;" horiz-adv-x="699" 
d="M80 256v444h108v-443q0 -81 42 -125.5t120 -44.5t120 45t42 126v442h107v-443q0 -123 -73 -196q-72 -74 -196 -74q-126 0 -198 73q-72 74 -72 196zM323 787l-90 139h111l56 -139h-77z" />
    <glyph glyph-name="Uacute" unicode="&#xda;" horiz-adv-x="699" 
d="M80 256v444h108v-443q0 -81 42 -125.5t120 -44.5t120 45t42 126v442h107v-443q0 -123 -73 -196q-72 -74 -196 -74q-126 0 -198 73q-72 74 -72 196zM376 787h-77l56 139h111z" />
    <glyph glyph-name="Ucircumflex" unicode="&#xdb;" horiz-adv-x="699" 
d="M80 256v444h108v-443q0 -81 42 -125.5t120 -44.5t120 45t42 126v442h107v-443q0 -123 -73 -196q-72 -74 -196 -74q-126 0 -198 73q-72 74 -72 196zM284 787h-85l98 137h100l98 -137h-84l-61 58h-7z" />
    <glyph glyph-name="Udieresis" unicode="&#xdc;" horiz-adv-x="699" 
d="M80 256v444h108v-443q0 -81 42 -125.5t120 -44.5t120 45t42 126v442h107v-443q0 -123 -73 -196q-72 -74 -196 -74q-126 0 -198 73q-72 74 -72 196zM195 854q0 26 17.5 43.5t43.5 17.5q27 0 44 -17.5t17 -43.5q0 -27 -17 -44t-44 -17q-26 0 -43.5 17.5t-17.5 43.5z
M434 915q26 0 44 -18t18 -43q0 -26 -18 -43.5t-44 -17.5q-27 0 -44 17t-17 44t17 44t44 17z" />
    <glyph glyph-name="Yacute" unicode="&#xdd;" horiz-adv-x="644" 
d="M269 270l-251 430h117l183 -321h7l181 321h121l-250 -430v-270h-108v270zM352 787h-77l56 139h111z" />
    <glyph glyph-name="Thorn" unicode="&#xde;" horiz-adv-x="591" 
d="M197 0h-108v700h108v-125h135q100 0 161 -61q63 -60 63 -157t-64 -160q-65 -62 -160 -62h-135v-135zM197 481v-252h125q56 0 90 35.5t34 92.5q0 55 -34 89.5t-90 34.5h-125z" />
    <glyph glyph-name="germandbls" unicode="&#xdf;" horiz-adv-x="613" 
d="M187 0h-105v532q0 100 60 159q61 59 157 59q95 0 157 -56q63 -56 62 -138q0 -101 -88 -144v-6q61 -18 99.5 -69t38.5 -119q0 -108 -64 -169.5t-176 -61.5q-43 0 -83 13v97q41 -12 75 -12q61 0 100 37t39 97t-43.5 92.5t-102.5 32.5h-35v95h9q54 0 86.5 31t32.5 80
q0 46 -29.5 75.5t-79.5 29.5q-53 0 -81.5 -32t-28.5 -90v-533z" />
    <glyph glyph-name="agrave" unicode="&#xe0;" horiz-adv-x="646" 
d="M294 536q46 0 85 -18t56.5 -35.5t29.5 -35.5h7v76h105v-523h-103v74h-6q-62 -87 -169 -87q-113 0 -184 75q-70 76 -70 197q0 123 70 199q71 78 179 78zM152 261q0 -81 44.5 -130t117.5 -49q74 0 117 51q44 53 44 128q0 82 -45 130.5t-117 48.5q-71 0 -116 -50t-45 -129z
M300 608l-90 139h111l56 -139h-77z" />
    <glyph glyph-name="aacute" unicode="&#xe1;" horiz-adv-x="646" 
d="M294 536q46 0 85 -18t56.5 -35.5t29.5 -35.5h7v76h105v-523h-103v74h-6q-62 -87 -169 -87q-113 0 -184 75q-70 76 -70 197q0 123 70 199q71 78 179 78zM152 261q0 -81 44.5 -130t117.5 -49q74 0 117 51q44 53 44 128q0 82 -45 130.5t-117 48.5q-71 0 -116 -50t-45 -129z
M353 608h-77l56 139h111z" />
    <glyph glyph-name="acircumflex" unicode="&#xe2;" horiz-adv-x="646" 
d="M294 536q46 0 85 -18t56.5 -35.5t29.5 -35.5h7v76h105v-523h-103v74h-6q-62 -87 -169 -87q-113 0 -184 75q-70 76 -70 197q0 123 70 199q71 78 179 78zM152 261q0 -81 44.5 -130t117.5 -49q74 0 117 51q44 53 44 128q0 82 -45 130.5t-117 48.5q-71 0 -116 -50t-45 -129z
M260 608h-85l98 137h100l98 -137h-84l-61 58h-7z" />
    <glyph glyph-name="atilde" unicode="&#xe3;" horiz-adv-x="646" 
d="M294 536q46 0 85 -18t56.5 -35.5t29.5 -35.5h7v76h105v-523h-103v74h-6q-62 -87 -169 -87q-113 0 -184 75q-70 76 -70 197q0 123 70 199q71 78 179 78zM152 261q0 -81 44.5 -130t117.5 -49q74 0 117 51q44 53 44 128q0 82 -45 130.5t-117 48.5q-71 0 -116 -50t-45 -129z
M226 610h-72q0 60 28 93.5t75 33.5q25 0 68.5 -25t54.5 -25q35 0 37 50h71q0 -60 -27.5 -94t-73.5 -34q-29 0 -67.5 25t-56.5 25q-36 0 -37 -49z" />
    <glyph glyph-name="adieresis" unicode="&#xe4;" horiz-adv-x="646" 
d="M294 536q46 0 85 -18t56.5 -35.5t29.5 -35.5h7v76h105v-523h-103v74h-6q-62 -87 -169 -87q-113 0 -184 75q-70 76 -70 197q0 123 70 199q71 78 179 78zM152 261q0 -81 44.5 -130t117.5 -49q74 0 117 51q44 53 44 128q0 82 -45 130.5t-117 48.5q-71 0 -116 -50t-45 -129z
M171 675q0 25 17.5 43t43.5 18q27 0 44 -17.5t17 -43.5q0 -27 -17 -44t-44 -17q-26 0 -43.5 17t-17.5 44zM410 736q26 0 44 -18t18 -43q0 -26 -18 -43.5t-44 -17.5q-27 0 -44 17t-17 44t17 44t44 17z" />
    <glyph glyph-name="aring" unicode="&#xe5;" horiz-adv-x="646" 
d="M294 536q46 0 85 -18t56.5 -35.5t29.5 -35.5h7v76h105v-523h-103v74h-6q-62 -87 -169 -87q-113 0 -184 75q-70 76 -70 197q0 123 70 199q71 78 179 78zM152 261q0 -81 44.5 -130t117.5 -49q74 0 117 51q44 53 44 128q0 82 -45 130.5t-117 48.5q-71 0 -116 -50t-45 -129z
M227 672q0 40 27.5 66.5t68.5 26.5q43 0 70 -26t27 -66q0 -41 -27 -67t-69 -26t-69.5 26t-27.5 66zM285 672q0 -18 11 -28.5t28 -10.5t27.5 11t10.5 29q0 17 -10.5 27.5t-28.5 10.5q-17 0 -27.5 -10.5t-10.5 -28.5z" />
    <glyph glyph-name="ae" unicode="&#xe6;" horiz-adv-x="972" 
d="M45 153q0 72 51.5 114t141.5 42h171v32q0 48 -36 76.5t-96 28.5q-52 0 -83.5 -24t-35.5 -58h-96q4 75 63 123q58 49 150 49q140 0 194 -93h7q68 93 194 93q119 0 187.5 -76t68.5 -193v-36h-413q2 -72 46 -115t118 -43q50 0 88.5 23t53.5 62h102q-21 -78 -87 -124.5
t-160 -46.5q-69 0 -125 29t-87 80h-6q-27 -50 -80 -79.5t-124 -29.5q-94 0 -150.5 45.5t-56.5 120.5zM144 153q0 -35 31 -57t81 -22q71 0 112 41t41 96v19h-164q-48 0 -74.5 -20.5t-26.5 -56.5zM515 309h311q-3 65 -47.5 103t-109.5 38q-61 0 -105 -39q-45 -40 -49 -102z
" />
    <glyph glyph-name="ccedilla" unicode="&#xe7;" horiz-adv-x="615" 
d="M45 261q-2 115 76.5 195.5t194.5 79.5q94 0 164 -54q71 -53 89 -142h-108q-14 45 -53.5 72.5t-90.5 27.5q-73 0 -119 -51q-45 -51 -45 -128q0 -78 46 -128q47 -51 120 -51q50 0 89.5 27.5t53.5 71.5h107q-17 -83 -80 -135q-64 -52 -151 -58l-10 -40h6q10 9 29 9
q33 0 54 -22.5t21 -55.5q0 -37 -25.5 -60.5t-67.5 -23.5q-36 0 -61.5 21t-25.5 54h58q1 -10 9.5 -16t20.5 -6q13 0 22 8.5t9 23.5q0 14 -9 22.5t-23 8.5q-19 0 -26 -15l-56 1l16 92q-106 12 -170 88t-64 184z" />
    <glyph glyph-name="egrave" unicode="&#xe8;" horiz-adv-x="607" 
d="M45 260q-1 121 74.5 199.5t186.5 76.5q118 0 187 -76.5t69 -192.5v-39h-412q3 -69 46.5 -111t114.5 -42q50 0 89 22.5t55 60.5h102q-20 -78 -87 -124q-68 -47 -162 -47q-116 0 -190 77q-73 76 -73 196zM152 309h306q-5 64 -47 101.5t-105 37.5q-60 0 -104 -39
q-44 -40 -50 -100zM280 608l-90 139h111l56 -139h-77z" />
    <glyph glyph-name="eacute" unicode="&#xe9;" horiz-adv-x="607" 
d="M45 260q-1 121 74.5 199.5t186.5 76.5q118 0 187 -76.5t69 -192.5v-39h-412q3 -69 46.5 -111t114.5 -42q50 0 89 22.5t55 60.5h102q-20 -78 -87 -124q-68 -47 -162 -47q-116 0 -190 77q-73 76 -73 196zM152 309h306q-5 64 -47 101.5t-105 37.5q-60 0 -104 -39
q-44 -40 -50 -100zM333 608h-77l56 139h111z" />
    <glyph glyph-name="ecircumflex" unicode="&#xea;" horiz-adv-x="607" 
d="M45 260q-1 121 74.5 199.5t186.5 76.5q118 0 187 -76.5t69 -192.5v-39h-412q3 -69 46.5 -111t114.5 -42q50 0 89 22.5t55 60.5h102q-20 -78 -87 -124q-68 -47 -162 -47q-116 0 -190 77q-73 76 -73 196zM152 309h306q-5 64 -47 101.5t-105 37.5q-60 0 -104 -39
q-44 -40 -50 -100zM241 608h-85l98 137h100l98 -137h-84l-61 58h-7z" />
    <glyph glyph-name="edieresis" unicode="&#xeb;" horiz-adv-x="607" 
d="M45 260q-1 121 74.5 199.5t186.5 76.5q118 0 187 -76.5t69 -192.5v-39h-412q3 -69 46.5 -111t114.5 -42q50 0 89 22.5t55 60.5h102q-20 -78 -87 -124q-68 -47 -162 -47q-116 0 -190 77q-73 76 -73 196zM151 675q0 25 18 43t43 18q27 0 44 -17.5t17 -43.5q0 -27 -17 -44
t-44 -17q-26 0 -43.5 17t-17.5 44zM152 309h306q-5 64 -47 101.5t-105 37.5q-60 0 -104 -39q-44 -40 -50 -100zM390 736q26 0 44 -18t18 -43q0 -26 -18 -43.5t-44 -17.5q-27 0 -44 17t-17 44t17 44t44 17z" />
    <glyph glyph-name="igrave" unicode="&#xec;" horiz-adv-x="256" 
d="M109 608l-90 139h111l56 -139h-77zM187 0h-105v523h105v-523z" />
    <glyph glyph-name="iacute" unicode="&#xed;" horiz-adv-x="256" 
d="M187 0h-105v523h105v-523zM162 608h-77l56 139h111z" />
    <glyph glyph-name="icircumflex" unicode="&#xee;" horiz-adv-x="256" 
d="M70 608h-85l98 137h100l98 -137h-84l-61 58h-7zM187 0h-105v523h105v-523z" />
    <glyph glyph-name="idieresis" unicode="&#xef;" horiz-adv-x="256" 
d="M-19 675q0 25 18 43t43 18q27 0 44 -17.5t17 -43.5q0 -27 -17 -44t-44 -17q-26 0 -43.5 17t-17.5 44zM187 0h-105v523h105v-523zM220 736q26 0 44 -18t18 -43q0 -26 -18 -43.5t-44 -17.5q-27 0 -44 17t-17 44t17 44t44 17z" />
    <glyph glyph-name="eth" unicode="&#xf0;" horiz-adv-x="617" 
d="M45 248q0 111 71 182t176 71q68 0 111 -34h6q-20 31 -51 62q-33 35 -57 53l-161 -62v68l102 41q-63 43 -107 64l63 43q77 -33 135 -74l139 53v-69l-81 -31q181 -150 181 -349q0 -122 -70.5 -200.5t-195.5 -78.5q-115 -1 -189 75t-72 186zM152 248q0 -72 43 -118
q44 -47 112 -47q73 0 115.5 48.5t42.5 126.5q0 65 -44 109q-43 45 -110 45q-72 0 -116 -47q-43 -46 -43 -117z" />
    <glyph glyph-name="ntilde" unicode="&#xf1;" horiz-adv-x="605" 
d="M187 0h-105v523h102v-70h7q18 37 59 60t94 23q88 0 140 -57q52 -55 52 -143v-336h-105v316q0 54 -33 88t-84 34q-55 0 -91 -38t-36 -95v-305zM225 610h-72q0 60 28 93.5t75 33.5q25 0 68.5 -25t54.5 -25q35 0 37 50h71q0 -60 -27.5 -94t-73.5 -34q-29 0 -67.5 25
t-56.5 25q-36 0 -37 -49z" />
    <glyph glyph-name="ograve" unicode="&#xf2;" horiz-adv-x="642" 
d="M45 261q0 78 35.5 141t98.5 98q65 36 143 36q79 0 142 -36t98 -99t35 -140q0 -117 -79 -195.5t-197 -78.5q-120 0 -198 78t-78 196zM152 261q0 -77 47 -129q48 -50 122 -50q75 0 121 51q48 51 48 128q0 79 -48 128q-46 51 -121 51q-74 0 -122 -51q-47 -50 -47 -128z
M298 608l-90 139h111l56 -139h-77z" />
    <glyph glyph-name="oacute" unicode="&#xf3;" horiz-adv-x="642" 
d="M45 261q0 78 35.5 141t98.5 98q65 36 143 36q79 0 142 -36t98 -99t35 -140q0 -117 -79 -195.5t-197 -78.5q-120 0 -198 78t-78 196zM152 261q0 -77 47 -129q48 -50 122 -50q75 0 121 51q48 51 48 128q0 79 -48 128q-46 51 -121 51q-74 0 -122 -51q-47 -50 -47 -128z
M351 608h-77l56 139h111z" />
    <glyph glyph-name="ocircumflex" unicode="&#xf4;" horiz-adv-x="642" 
d="M45 261q0 78 35.5 141t98.5 98q65 36 143 36q79 0 142 -36t98 -99t35 -140q0 -117 -79 -195.5t-197 -78.5q-120 0 -198 78t-78 196zM152 261q0 -77 47 -129q48 -50 122 -50q75 0 121 51q48 51 48 128q0 79 -48 128q-46 51 -121 51q-74 0 -122 -51q-47 -50 -47 -128z
M258 608h-85l98 137h100l98 -137h-84l-61 58h-7z" />
    <glyph glyph-name="otilde" unicode="&#xf5;" horiz-adv-x="642" 
d="M45 261q0 78 35.5 141t98.5 98q65 36 143 36q79 0 142 -36t98 -99t35 -140q0 -117 -79 -195.5t-197 -78.5q-120 0 -198 78t-78 196zM152 261q0 -77 47 -129q48 -50 122 -50q75 0 121 51q48 51 48 128q0 79 -48 128q-46 51 -121 51q-74 0 -122 -51q-47 -50 -47 -128z
M224 610h-72q0 60 28 93.5t75 33.5q25 0 68.5 -25t54.5 -25q35 0 37 50h71q0 -60 -27.5 -94t-73.5 -34q-29 0 -67.5 25t-56.5 25q-36 0 -37 -49z" />
    <glyph glyph-name="odieresis" unicode="&#xf6;" horiz-adv-x="642" 
d="M45 261q0 78 35.5 141t98.5 98q65 36 143 36q79 0 142 -36t98 -99t35 -140q0 -117 -79 -195.5t-197 -78.5q-120 0 -198 78t-78 196zM152 261q0 -77 47 -129q48 -50 122 -50q75 0 121 51q48 51 48 128q0 79 -48 128q-46 51 -121 51q-74 0 -122 -51q-47 -50 -47 -128z
M169 675q0 25 17.5 43t43.5 18q27 0 44 -17.5t17 -43.5q0 -27 -17 -44t-44 -17q-26 0 -43.5 17t-17.5 44zM408 736q26 0 44 -18t18 -43q0 -26 -18 -43.5t-44 -17.5q-27 0 -44 17t-17 44t17 44t44 17z" />
    <glyph glyph-name="divide" unicode="&#xf7;" horiz-adv-x="487" 
d="M482 269h-477v85h477v-85zM244 193q23 0 39.5 -17t16.5 -40t-16.5 -39.5t-39.5 -16.5q-24 0 -40.5 16.5t-16.5 39.5q0 24 16.5 40.5t40.5 16.5zM187 488q0 23 16.5 40t40.5 17q23 0 39.5 -17t16.5 -40t-16.5 -39.5t-39.5 -16.5q-24 0 -40.5 16.5t-16.5 39.5z" />
    <glyph glyph-name="oslash" unicode="&#xf8;" horiz-adv-x="642" 
d="M45 261q-2 117 78.5 197t198.5 78q62 0 118 -24l36 58h83l-59 -95q97 -81 97 -214q0 -117 -79 -195.5t-197 -78.5q-61 0 -112 21l-38 -62h-82l60 96q-49 37 -76.5 94t-27.5 125zM152 261q0 -81 51 -132l185 298q-30 13 -67 13q-74 0 -122 -51q-47 -50 -47 -128zM445 387
l-183 -295q24 -10 59 -10q75 0 121 51q48 51 48 128q0 73 -45 126z" />
    <glyph glyph-name="ugrave" unicode="&#xf9;" horiz-adv-x="600" 
d="M74 187v336h105v-317q0 -54 33 -88t84 -34q55 0 91 37.5t36 94.5v307h105v-523h-102v70h-7q-18 -37 -59 -60t-94 -23q-87 0 -140 56q-52 56 -52 144zM277 608l-90 139h111l56 -139h-77z" />
    <glyph glyph-name="uacute" unicode="&#xfa;" horiz-adv-x="600" 
d="M74 187v336h105v-317q0 -54 33 -88t84 -34q55 0 91 37.5t36 94.5v307h105v-523h-102v70h-7q-18 -37 -59 -60t-94 -23q-87 0 -140 56q-52 56 -52 144zM330 608h-77l56 139h111z" />
    <glyph glyph-name="ucircumflex" unicode="&#xfb;" horiz-adv-x="600" 
d="M74 187v336h105v-317q0 -54 33 -88t84 -34q55 0 91 37.5t36 94.5v307h105v-523h-102v70h-7q-18 -37 -59 -60t-94 -23q-87 0 -140 56q-52 56 -52 144zM237 608h-85l98 137h100l98 -137h-84l-61 58h-7z" />
    <glyph glyph-name="udieresis" unicode="&#xfc;" horiz-adv-x="600" 
d="M74 187v336h105v-317q0 -54 33 -88t84 -34q55 0 91 37.5t36 94.5v307h105v-523h-102v70h-7q-18 -37 -59 -60t-94 -23q-87 0 -140 56q-52 56 -52 144zM148 675q0 25 18 43t43 18q27 0 44 -17.5t17 -43.5q0 -27 -17 -44t-44 -17q-26 0 -43.5 17t-17.5 44zM387 736
q26 0 44 -18t18 -43q0 -26 -18 -43.5t-44 -17.5q-27 0 -44 17t-17 44t17 44t44 17z" />
    <glyph glyph-name="yacute" unicode="&#xfd;" horiz-adv-x="575" 
d="M236 -22l-211 545h114l145 -404h7l144 404h115l-240 -627q-24 -64 -64.5 -95t-107.5 -31h-59v94h46q67 0 92 64zM321 608h-77l56 139h111z" />
    <glyph glyph-name="thorn" unicode="&#xfe;" horiz-adv-x="659" 
d="M187 -227h-105v977h104l1 -302h6q14 25 49 52q46 36 118 36q113 0 183 -76q71 -76 71 -197q0 -122 -70 -199q-69 -77 -179 -77q-65 0 -108.5 29t-62.5 60h-7v-303zM184 262q0 -82 45 -131q46 -49 117 -49t116 50q45 51 45 130q0 81 -44.5 130t-117.5 49t-117 -51
q-44 -52 -44 -128z" />
    <glyph glyph-name="ydieresis" unicode="&#xff;" horiz-adv-x="575" 
d="M236 -22l-211 545h114l145 -404h7l144 404h115l-240 -627q-24 -64 -64.5 -95t-107.5 -31h-59v94h46q67 0 92 64zM139 675q0 25 18 43t43 18q27 0 44 -17t17 -44t-16.5 -44t-44.5 -17q-26 0 -43.5 17t-17.5 44zM378 736q26 0 44 -18t18 -43q0 -26 -18 -43.5t-44 -17.5
q-27 0 -44 17t-17 44t17 44t44 17z" />
    <glyph glyph-name="Amacron" unicode="&#x100;" horiz-adv-x="685" 
d="M129 0h-111l259 700h131l260 -700h-114l-55 152h-315zM338 579l-120 -330h247l-120 330h-7zM476 808h-255v82h255v-82z" />
    <glyph glyph-name="amacron" unicode="&#x101;" horiz-adv-x="646" 
d="M294 536q46 0 85 -18t56.5 -35.5t29.5 -35.5h7v76h105v-523h-103v74h-6q-62 -87 -169 -87q-113 0 -184 75q-70 76 -70 197q0 123 70 199q71 78 179 78zM152 261q0 -81 44.5 -130t117.5 -49q74 0 117 51q44 53 44 128q0 82 -45 130.5t-117 48.5q-71 0 -116 -50t-45 -129z
M454 629h-255v82h255v-82z" />
    <glyph glyph-name="Abreve" unicode="&#x102;" horiz-adv-x="685" 
d="M129 0h-111l259 700h131l260 -700h-114l-55 152h-315zM213 919h73q0 -66 60 -66q29 0 44.5 17.5t15.5 48.5h73q0 -62 -35 -98t-98 -36q-62 0 -97.5 36.5t-35.5 97.5zM338 579l-120 -330h247l-120 330h-7z" />
    <glyph glyph-name="abreve" unicode="&#x103;" horiz-adv-x="646" 
d="M294 536q46 0 85 -18t56.5 -35.5t29.5 -35.5h7v76h105v-523h-103v74h-6q-62 -87 -169 -87q-113 0 -184 75q-70 76 -70 197q0 123 70 199q71 78 179 78zM152 261q0 -81 44.5 -130t117.5 -49q74 0 117 51q44 53 44 128q0 82 -45 130.5t-117 48.5q-71 0 -116 -50t-45 -129z
M190 740h73q0 -66 60 -66q29 0 44.5 17.5t15.5 48.5h73q0 -61 -35 -97.5t-98 -36.5q-62 0 -97.5 36.5t-35.5 97.5z" />
    <glyph glyph-name="Aogonek" unicode="&#x104;" horiz-adv-x="685" 
d="M129 0h-111l259 700h131l260 -700l-47 -56q-18 -20 -18 -37q0 -13 9.5 -20.5t24.5 -7.5h31v-73h-60q-40 0 -66.5 22t-26.5 59t33 74l32 39h-26l-55 152h-315zM338 579l-120 -330h247l-120 330h-7z" />
    <glyph glyph-name="aogonek" unicode="&#x105;" horiz-adv-x="646" 
d="M294 536q46 0 85 -18t56.5 -35.5t29.5 -35.5h7v76h105v-523l-47 -56q-18 -20 -18 -37q0 -13 9.5 -20.5t24.5 -7.5h31v-73h-59q-40 0 -67 22t-27 59t33 74l32 39h-15v74h-6q-62 -87 -169 -87q-113 0 -184 75q-70 76 -70 197q0 123 70 199q71 78 179 78zM152 261
q0 -81 44.5 -130t117.5 -49q74 0 117 51q44 53 44 128q0 82 -45 130.5t-117 48.5q-71 0 -116 -50t-45 -129z" />
    <glyph glyph-name="Cacute" unicode="&#x106;" horiz-adv-x="794" 
d="M46 350q0 155 103 259t260 104q127 0 215 -69q89 -67 121 -180h-116q-23 69 -82.5 108t-137.5 39q-104 2 -178.5 -75t-72.5 -186q0 -114 72 -187q72 -74 179 -74q78 0 137 38.5t83 107.5h118q-30 -113 -121 -180q-92 -68 -217 -68q-157 0 -260 103t-103 260zM436 787h-77
l56 139h111z" />
    <glyph glyph-name="cacute" unicode="&#x107;" horiz-adv-x="615" 
d="M45 261q-2 115 76.5 195.5t194.5 79.5q94 0 164 -54q71 -53 89 -142h-108q-14 45 -53.5 72.5t-90.5 27.5q-73 0 -119 -51q-45 -51 -45 -128q0 -78 46 -128q47 -51 120 -51q50 0 89.5 27.5t53.5 71.5h107q-16 -88 -88 -141q-71 -53 -164 -53q-120 0 -196 78.5t-76 195.5z
M345 608h-77l56 139h111z" />
    <glyph glyph-name="Cdotaccent" unicode="&#x10a;" horiz-adv-x="794" 
d="M46 350q0 155 103 259t260 104q127 0 215 -69q89 -67 121 -180h-116q-23 69 -82.5 108t-137.5 39q-104 2 -178.5 -75t-72.5 -186q0 -114 72 -187q72 -74 179 -74q78 0 137 38.5t83 107.5h118q-30 -113 -121 -180q-92 -68 -217 -68q-157 0 -260 103t-103 260zM342 851
q0 28 18.5 47t48.5 19t49.5 -19t19.5 -47q0 -29 -19 -48t-50 -19q-30 0 -48.5 19t-18.5 48z" />
    <glyph glyph-name="cdotaccent" unicode="&#x10b;" horiz-adv-x="615" 
d="M45 261q-2 115 76.5 195.5t194.5 79.5q94 0 164 -54q71 -53 89 -142h-108q-14 45 -53.5 72.5t-90.5 27.5q-73 0 -119 -51q-45 -51 -45 -128q0 -78 46 -128q47 -51 120 -51q50 0 89.5 27.5t53.5 71.5h107q-16 -88 -88 -141q-71 -53 -164 -53q-120 0 -196 78.5t-76 195.5z
M251 672q0 28 18.5 47t48.5 19t49.5 -19t19.5 -47q0 -29 -19 -48t-50 -19q-30 0 -48.5 19t-18.5 48z" />
    <glyph glyph-name="Ccaron" unicode="&#x10c;" horiz-adv-x="794" 
d="M46 350q0 155 103 259t260 104q127 0 215 -69q89 -67 121 -180h-116q-23 69 -82.5 108t-137.5 39q-104 2 -178.5 -75t-72.5 -186q0 -114 72 -187q72 -74 179 -74q78 0 137 38.5t83 107.5h118q-30 -113 -121 -180q-92 -68 -217 -68q-157 0 -260 103t-103 260zM357 787
l-98 137h85l59 -59h7l61 59h84l-98 -137h-100z" />
    <glyph glyph-name="ccaron" unicode="&#x10d;" horiz-adv-x="615" 
d="M45 261q-2 115 76.5 195.5t194.5 79.5q94 0 164 -54q71 -53 89 -142h-108q-14 45 -53.5 72.5t-90.5 27.5q-73 0 -119 -51q-45 -51 -45 -128q0 -78 46 -128q47 -51 120 -51q50 0 89.5 27.5t53.5 71.5h107q-16 -88 -88 -141q-71 -53 -164 -53q-120 0 -196 78.5t-76 195.5z
M266 608l-98 137h85l59 -59h7l61 59h84l-98 -137h-100z" />
    <glyph glyph-name="Dcaron" unicode="&#x10e;" horiz-adv-x="712" 
d="M311 0h-222v700h222q162 1 259 -97t95 -252q0 -164 -94 -258q-93 -93 -260 -93zM266 788l-98 137h85l59 -59h7l61 59h84l-98 -137h-100zM197 605v-511h112q113 0 179.5 67.5t66.5 189.5q0 119 -66.5 186.5t-179.5 67.5h-112z" />
    <glyph glyph-name="dcaron" unicode="&#x10f;" horiz-adv-x="738" 
d="M294 536q46 0 85 -18t56.5 -35.5t29.5 -35.5h7v303h105v-750h-103v74h-6q-62 -87 -169 -87q-113 0 -184 75q-70 76 -70 197q0 123 70 199q71 78 179 78zM152 261q0 -81 44.5 -130t117.5 -49q74 0 117 51q44 53 44 128q0 82 -45 130.5t-117 48.5q-71 0 -116 -50t-45 -129z
M721 561h-79v189h103z" />
    <glyph glyph-name="Dcroat" unicode="&#x110;" horiz-adv-x="741" 
d="M133 309h-59v86h59v305h211q164 0 257 -96.5t93 -252.5q0 -163 -92 -258q-92 -93 -258 -93h-211v309zM241 309v-215h101q112 0 176.5 67.5t64.5 189.5q0 120 -64.5 187t-176.5 67h-101v-210h137v-86h-137z" />
    <glyph glyph-name="dslash" unicode="&#x111;" horiz-adv-x="640" 
d="M294 536q46 0 85 -18t56.5 -35.5t29.5 -35.5h7v142h-155v79h155v82h105v-82h57v-79h-57v-589h-103v74h-6q-62 -87 -169 -87q-113 0 -184 75q-70 76 -70 197q0 123 70 199q71 78 179 78zM152 261q0 -81 44.5 -130t117.5 -49q74 0 117 51q44 53 44 128q0 82 -45 130.5
t-117 48.5q-71 0 -116 -50t-45 -129z" />
    <glyph glyph-name="Emacron" unicode="&#x112;" horiz-adv-x="561" 
d="M514 0h-425v700h415v-95h-307v-203h263v-94h-263v-214h317v-94zM436 808h-255v82h255v-82z" />
    <glyph glyph-name="emacron" unicode="&#x113;" horiz-adv-x="607" 
d="M45 260q-1 121 74.5 199.5t186.5 76.5q118 0 187 -76.5t69 -192.5v-39h-412q3 -69 46.5 -111t114.5 -42q50 0 89 22.5t55 60.5h102q-20 -78 -87 -124q-68 -47 -162 -47q-116 0 -190 77q-73 76 -73 196zM152 309h306q-5 64 -47 101.5t-105 37.5q-60 0 -104 -39
q-44 -40 -50 -100zM434 629h-255v82h255v-82z" />
    <glyph glyph-name="Edotaccent" unicode="&#x116;" horiz-adv-x="561" 
d="M514 0h-425v700h415v-95h-307v-203h263v-94h-263v-214h317v-94zM241 851q0 28 18.5 47t48.5 19t49.5 -19t19.5 -47q0 -29 -19 -48t-50 -19q-30 0 -48.5 19t-18.5 48z" />
    <glyph glyph-name="edotaccent" unicode="&#x117;" horiz-adv-x="607" 
d="M45 260q-1 121 74.5 199.5t186.5 76.5q118 0 187 -76.5t69 -192.5v-39h-412q3 -69 46.5 -111t114.5 -42q50 0 89 22.5t55 60.5h102q-20 -78 -87 -124q-68 -47 -162 -47q-116 0 -190 77q-73 76 -73 196zM152 309h306q-5 64 -47 101.5t-105 37.5q-60 0 -104 -39
q-44 -40 -50 -100zM239 672q0 28 18.5 47t48.5 19t49.5 -19t19.5 -47q0 -29 -19 -48t-50 -19q-30 0 -48.5 19t-18.5 48z" />
    <glyph glyph-name="Eogonek" unicode="&#x118;" horiz-adv-x="561" 
d="M427 0h-338v700h415v-95h-307v-203h263v-94h-263v-214h317v-94h1l-47 -56q-18 -20 -18 -37q0 -13 9.5 -20.5t24.5 -7.5h31v-73h-60q-40 0 -66.5 22t-26.5 59t33 74z" />
    <glyph glyph-name="eogonek" unicode="&#x119;" horiz-adv-x="607" 
d="M45 260q-1 121 74.5 199.5t186.5 76.5q118 0 187 -76.5t69 -192.5v-39h-412q3 -69 46.5 -111t114.5 -42q50 0 89 22.5t55 60.5h102q-17 -65 -68 -109t-125 -57l-40 -48q-18 -19 -18 -37q0 -13 9.5 -20.5t24.5 -7.5h31v-73h-60q-40 0 -66.5 22t-26.5 59t33 74l23 28
q-102 10 -166 86q-63 75 -63 185zM152 309h306q-5 64 -47 101.5t-105 37.5q-60 0 -104 -39q-44 -40 -50 -100z" />
    <glyph glyph-name="Ecaron" unicode="&#x11a;" horiz-adv-x="561" 
d="M514 0h-425v700h415v-95h-307v-203h263v-94h-263v-214h317v-94zM256 787l-98 137h85l59 -59h7l61 59h84l-98 -137h-100z" />
    <glyph glyph-name="ecaron" unicode="&#x11b;" horiz-adv-x="607" 
d="M45 260q-1 121 74.5 199.5t186.5 76.5q118 0 187 -76.5t69 -192.5v-39h-412q3 -69 46.5 -111t114.5 -42q50 0 89 22.5t55 60.5h102q-20 -78 -87 -124q-68 -47 -162 -47q-116 0 -190 77q-73 76 -73 196zM152 309h306q-5 64 -47 101.5t-105 37.5q-60 0 -104 -39
q-44 -40 -50 -100zM254 608l-98 137h85l59 -59h7l61 59h84l-98 -137h-100z" />
    <glyph glyph-name="Gbreve" unicode="&#x11e;" horiz-adv-x="812" 
d="M46 350q-3 153 103 259t261 104q124 0 213 -66q91 -66 122 -171h-119q-27 63 -83 99t-133 36q-111 0 -182 -74q-70 -73 -70 -187q0 -115 70 -188q71 -74 183 -74q96 0 162 54q66 56 72 140h-252v91h372q2 -92 -25 -166t-75.5 -121.5t-113.5 -73t-141 -25.5
q-157 0 -260.5 103t-103.5 260zM279 919h73q0 -66 60 -66q29 0 44.5 17.5t15.5 48.5h73q0 -62 -35 -98t-98 -36q-62 0 -97.5 36.5t-35.5 97.5z" />
    <glyph glyph-name="gbreve" unicode="&#x11f;" horiz-adv-x="648" 
d="M293 536q66 0 110 -29t62 -60h7v76h105v-521q0 -114 -69.5 -179.5t-191.5 -65.5q-102 0 -163 49q-60 49 -71 124h97q9 -40 45 -62.5t92 -22.5q78 0 118 40.5t40 116.5v75h-7q-64 -89 -169 -88q-112 0 -182 76q-71 77 -71 197q0 122 70 198t178 76zM152 262
q0 -81 44.5 -129.5t117.5 -48.5q74 0 117 51q44 52 44 127q0 82 -45 130t-117 48q-71 0 -116 -50t-45 -128zM189 740h73q0 -66 60 -66q29 0 44.5 17.5t15.5 48.5h73q0 -61 -35.5 -97.5t-98.5 -36.5q-62 0 -97 36.5t-35 97.5z" />
    <glyph glyph-name="Gdotaccent" unicode="&#x120;" horiz-adv-x="812" 
d="M46 350q-3 153 103 259t261 104q124 0 213 -66q91 -66 122 -171h-119q-27 63 -83 99t-133 36q-111 0 -182 -74q-70 -73 -70 -187q0 -115 70 -188q71 -74 183 -74q96 0 162 54q66 56 72 140h-252v91h372q2 -92 -25 -166t-75.5 -121.5t-113.5 -73t-141 -25.5
q-157 0 -260.5 103t-103.5 260zM348 851q0 28 18.5 47t48.5 19t49.5 -19t19.5 -47q0 -29 -19 -48t-50 -19q-30 0 -48.5 19t-18.5 48z" />
    <glyph glyph-name="gdotaccent" unicode="&#x121;" horiz-adv-x="648" 
d="M293 536q66 0 110 -29t62 -60h7v76h105v-521q0 -114 -69.5 -179.5t-191.5 -65.5q-102 0 -163 49q-60 49 -71 124h97q9 -40 45 -62.5t92 -22.5q78 0 118 40.5t40 116.5v75h-7q-64 -89 -169 -88q-112 0 -182 76q-71 77 -71 197q0 122 70 198t178 76zM152 262
q0 -81 44.5 -129.5t117.5 -48.5q74 0 117 51q44 52 44 127q0 82 -45 130t-117 48q-71 0 -116 -50t-45 -128zM257 672q0 28 18.5 47t48.5 19t49.5 -19t19.5 -47q0 -29 -19 -48t-50 -19q-30 0 -48.5 19t-18.5 48z" />
    <glyph glyph-name="uni0122" unicode="&#x122;" horiz-adv-x="812" 
d="M46 350q-3 153 103 259t261 104q124 0 213 -66q91 -66 122 -171h-119q-27 63 -83 99t-133 36q-111 0 -182 -74q-70 -73 -70 -187q0 -115 70 -188q71 -74 183 -74q96 0 162 54q66 56 72 140h-252v91h372q2 -92 -25 -166t-75.5 -121.5t-113.5 -73t-141 -25.5
q-157 0 -260.5 103t-103.5 260zM421 -229h-72l16 171h95z" />
    <glyph glyph-name="uni0123" unicode="&#x123;" horiz-adv-x="648" 
d="M293 536q66 0 110 -29t62 -60h7v76h105v-521q0 -114 -69.5 -179.5t-191.5 -65.5q-102 0 -163 49q-60 49 -71 124h97q9 -40 45 -62.5t92 -22.5q78 0 118 40.5t40 116.5v75h-7q-64 -89 -169 -88q-112 0 -182 76q-71 77 -71 197q0 122 70 198t178 76zM152 262
q0 -81 44.5 -129.5t117.5 -48.5q74 0 117 51q44 52 44 127q0 82 -45 130t-117 48q-71 0 -116 -50t-45 -128zM353 609h-94l38 171h72z" />
    <glyph glyph-name="Hcircumflex" unicode="&#x124;" horiz-adv-x="734" 
d="M197 0h-108v700h108v-295h340v295h107v-700h-107v305h-340v-305zM307 787h-85l98 137h100l98 -137h-84l-61 58h-7z" />
    <glyph glyph-name="hcircumflex" unicode="&#x125;" horiz-adv-x="609" 
d="M72 789h-85l98 137h100l98 -137h-84l-61 58h-7zM187 0h-105v750h104v-297h7q19 37 60 60t94 23q87 0 140 -57q53 -58 53 -143v-336h-105v316q0 53 -34 87.5t-85 34.5q-55 0 -92 -37q-37 -36 -37 -91v-310z" />
    <glyph glyph-name="Hbar" unicode="&#x126;" horiz-adv-x="840" 
d="M143 519h-54v86h54v95h107v-95h340v95h108v-95h52v-86h-52v-519h-108v305h-340v-305h-107v519zM250 519v-114h340v114h-340z" />
    <glyph glyph-name="hbar" unicode="&#x127;" horiz-adv-x="609" 
d="M82 589h-64v79h64v82h104v-82h149v-79h-149v-136h7q19 37 60 60t94 23q87 0 140 -57q53 -58 53 -143v-336h-105v316q0 53 -34 87.5t-85 34.5q-55 0 -92 -37q-37 -36 -37 -91v-310h-105v589z" />
    <glyph glyph-name="Imacron" unicode="&#x12a;" horiz-adv-x="286" 
d="M275 808h-255v82h255v-82zM197 0h-108v700h108v-700z" />
    <glyph glyph-name="imacron" unicode="&#x12b;" horiz-adv-x="256" 
d="M263 629h-255v82h255v-82zM187 0h-105v523h105v-523z" />
    <glyph glyph-name="Iogonek" unicode="&#x12e;" horiz-adv-x="286" 
d="M44 -113q0 37 33 74l32 39h-20v700h108v-700l-47 -56q-18 -21 -18 -37q0 -13 9.5 -20.5t24.5 -7.5h31v-73h-59q-40 0 -67 22t-27 59z" />
    <glyph glyph-name="iogonek" unicode="&#x12f;" horiz-adv-x="254" 
d="M32 -113q0 35 33 74l32 39h-17v523h105v-523l-47 -56q-18 -21 -18 -37q0 -13 10 -20.5t25 -7.5h30v-73h-59q-40 0 -67 22t-27 59zM66 672q0 28 19 47t49 19t49 -19t19 -47q0 -30 -19 -48.5t-49 -18.5t-49 19t-19 48z" />
    <glyph glyph-name="Idot" unicode="&#x130;" horiz-adv-x="286" 
d="M80 851q0 28 18.5 47t48.5 19t49.5 -19t19.5 -47q0 -29 -19 -48t-50 -19q-30 0 -48.5 19t-18.5 48zM197 0h-108v700h108v-700z" />
    <glyph glyph-name="dotlessi" unicode="&#x131;" horiz-adv-x="256" 
d="M187 0h-105v523h105v-523z" />
    <glyph glyph-name="Jcircumflex" unicode="&#x134;" horiz-adv-x="585" 
d="M36 200h105q2 -52 36.5 -83t91.5 -31q64 0 96 40t32 97v381h-254v96h362v-478q0 -101 -62 -168t-176 -67q-98 0 -164 57q-66 58 -67 156zM258 787h-85l98 137h100l98 -137h-84l-61 58h-7z" />
    <glyph glyph-name="jcircumflex" unicode="&#x135;" horiz-adv-x="305" 
d="M4 -230v94h37q42 0 66 24.5t24 64.5v570h105v-571q0 -84 -50.5 -133t-134.5 -49h-47zM118 608h-85l98 137h100l98 -137h-84l-61 58h-7z" />
    <glyph glyph-name="uni0136" unicode="&#x136;" horiz-adv-x="634" 
d="M197 0h-108v700h108v-323h6l268 323h133l-247 -289l257 -411h-129l-200 326l-88 -103v-223zM339 -229h-72l16 171h95z" />
    <glyph glyph-name="uni0137" unicode="&#x137;" horiz-adv-x="552" 
d="M187 0h-105v750h105v-450h6l198 223h131l-182 -198l195 -325h-119l-148 247l-81 -89v-158zM302 -229h-72l16 171h95z" />
    <glyph glyph-name="kgreenlandic" unicode="&#x138;" horiz-adv-x="552" 
d="M187 0h-105v523h105v-223h6l201 223h129l-183 -198l195 -325h-119l-148 246l-81 -88v-158z" />
    <glyph glyph-name="Lacute" unicode="&#x139;" horiz-adv-x="534" 
d="M489 0h-400v700h108v-604h292v-96zM175 787h-77l56 139h111z" />
    <glyph glyph-name="lacute" unicode="&#x13a;" horiz-adv-x="302" 
d="M82 130v620h105v-614q0 -43 40 -43h22v-93h-43q-59 0 -91.5 34t-32.5 96zM164 789h-77l56 139h111z" />
    <glyph glyph-name="uni013B" unicode="&#x13b;" horiz-adv-x="534" 
d="M489 0h-400v700h108v-604h292v-96zM298 -229h-72l16 171h95z" />
    <glyph glyph-name="uni013C" unicode="&#x13c;" horiz-adv-x="302" 
d="M82 130v620h105v-614q0 -43 40 -43h22v-93h-43q-59 0 -91.5 34t-32.5 96zM182 -229h-72l16 171h95z" />
    <glyph glyph-name="Lcaron" unicode="&#x13d;" horiz-adv-x="533" 
d="M489 0h-400v700h108v-604h292v-96zM421 511h-79v189h103z" />
    <glyph glyph-name="lcaron" unicode="&#x13e;" horiz-adv-x="358" 
d="M82 130v620h105v-614q0 -43 40 -43h22v-93h-43q-59 0 -91.5 34t-32.5 96zM332 561h-79v189h103z" />
    <glyph glyph-name="Ldot" unicode="&#x13f;" horiz-adv-x="600" 
d="M489 0h-400v700h108v-604h292v-96zM367 450q29 0 48 -19t19 -47t-19 -47t-48 -19q-27 0 -46.5 19t-19.5 47t19.5 47t46.5 19z" />
    <glyph glyph-name="ldot" unicode="&#x140;" horiz-adv-x="426" 
d="M82 130v620h105v-614q0 -43 40 -43h22v-93h-43q-59 0 -91.5 34t-32.5 96zM253 386q0 28 19 46.5t47 18.5t47 -18.5t19 -46.5t-19 -47t-47 -19t-47 19t-19 47z" />
    <glyph glyph-name="Lslash" unicode="&#x141;" horiz-adv-x="545" 
d="M102 248l-71 -37v98l71 37v354h107v-298l174 90v-98l-174 -90v-208h293v-96h-400v248z" />
    <glyph glyph-name="lslash" unicode="&#x142;" horiz-adv-x="376" 
d="M102 309l-70 -38v98l70 38v343h105v-287l96 52v-98l-96 -52v-229q0 -43 41 -43h22v-93h-43q-59 0 -92 34t-33 96v179z" />
    <glyph glyph-name="Nacute" unicode="&#x143;" horiz-adv-x="737" 
d="M195 0h-106v700h115l332 -518h6v518h105v-700h-116l-330 518h-6v-518zM410 787h-77l56 139h111z" />
    <glyph glyph-name="nacute" unicode="&#x144;" horiz-adv-x="605" 
d="M187 0h-105v523h102v-70h7q18 37 59 60t94 23q88 0 140 -57q52 -55 52 -143v-336h-105v316q0 54 -33 88t-84 34q-55 0 -91 -38t-36 -95v-305zM352 608h-77l56 139h111z" />
    <glyph glyph-name="uni0145" unicode="&#x145;" horiz-adv-x="737" 
d="M195 0h-106v700h115l332 -518h6v518h105v-700h-116l-330 518h-6v-518zM367 -229h-72l16 171h95z" />
    <glyph glyph-name="uni0146" unicode="&#x146;" horiz-adv-x="605" 
d="M187 0h-105v523h102v-70h7q18 37 59 60t94 23q88 0 140 -57q52 -55 52 -143v-336h-105v316q0 54 -33 88t-84 34q-55 0 -91 -38t-36 -95v-305zM321 -229h-72l16 171h95z" />
    <glyph glyph-name="Ncaron" unicode="&#x147;" horiz-adv-x="737" 
d="M195 0h-106v700h115l332 -518h6v518h105v-700h-116l-330 518h-6v-518zM331 787l-98 137h85l59 -59h7l61 59h84l-98 -137h-100z" />
    <glyph glyph-name="ncaron" unicode="&#x148;" horiz-adv-x="605" 
d="M187 0h-105v523h102v-70h7q18 37 59 60t94 23q88 0 140 -57q52 -55 52 -143v-336h-105v316q0 54 -33 88t-84 34q-55 0 -91 -38t-36 -95v-305zM273 608l-98 137h85l59 -59h7l61 59h84l-98 -137h-100z" />
    <glyph glyph-name="Eng" unicode="&#x14a;" horiz-adv-x="737" 
d="M195 0h-106v700h110l337 -505h6v505h105v-739q0 -88 -58 -139q-56 -52 -142 -52l1 95q45 0 69 26.5t24 69.5v51l-340 508h-6v-520z" />
    <glyph glyph-name="eng" unicode="&#x14b;" horiz-adv-x="605" 
d="M187 0h-105v523h102v-70h7q18 37 59 60t94 23q88 0 140 -57q52 -55 52 -143v-384q0 -84 -50.5 -133t-134.5 -49h-60v94h50q43 0 66.5 24t23.5 65v363q0 54 -33 88t-84 34q-55 0 -91 -38t-36 -95v-305z" />
    <glyph glyph-name="Omacron" unicode="&#x14c;" horiz-adv-x="824" 
d="M46 350q0 154 104.5 258.5t261.5 104.5q154 2 261 -105t104 -258q0 -155 -104 -259t-262 -104q-157 0 -261 103t-104 260zM158 350q0 -114 72 -187q72 -74 182 -74t182 74q72 73 72 187q0 111 -72.5 186t-181.5 75t-181.5 -75t-72.5 -186zM541 808h-255v82h255v-82z" />
    <glyph glyph-name="omacron" unicode="&#x14d;" horiz-adv-x="642" 
d="M45 261q0 78 35.5 141t98.5 98q65 36 143 36q79 0 142 -36t98 -99t35 -140q0 -117 -79 -195.5t-197 -78.5q-120 0 -198 78t-78 196zM152 261q0 -77 47 -129q48 -50 122 -50q75 0 121 51q48 51 48 128q0 79 -48 128q-46 51 -121 51q-74 0 -122 -51q-47 -50 -47 -128z
M452 629h-255v82h255v-82z" />
    <glyph glyph-name="Ohungarumlaut" unicode="&#x150;" horiz-adv-x="824" 
d="M46 350q0 154 104.5 258.5t261.5 104.5q154 2 261 -105t104 -258q0 -155 -104 -259t-262 -104q-157 0 -261 103t-104 260zM158 350q0 -114 72 -187q72 -74 182 -74t182 74q72 73 72 187q0 111 -72.5 186t-181.5 75t-181.5 -75t-72.5 -186zM362 787h-76l53 146h111z
M519 787h-76l53 146h110z" />
    <glyph glyph-name="ohungarumlaut" unicode="&#x151;" horiz-adv-x="642" 
d="M45 261q0 78 35.5 141t98.5 98q65 36 143 36q79 0 142 -36t98 -99t35 -140q0 -117 -79 -195.5t-197 -78.5q-120 0 -198 78t-78 196zM152 261q0 -77 47 -129q48 -50 122 -50q75 0 121 51q48 51 48 128q0 79 -48 128q-46 51 -121 51q-74 0 -122 -51q-47 -50 -47 -128z
M273 608h-76l53 146h111zM430 608h-76l53 146h110z" />
    <glyph glyph-name="OE" unicode="&#x152;" horiz-adv-x="1099" 
d="M46 350q0 154 104.5 258.5t261.5 104.5q51 0 99 -13h531v-95h-373q88 -85 100 -203h239v-94h-237q-12 -129 -103 -214h385v-94h-542q-52 -13 -100 -13q-157 0 -261 103t-104 260zM158 350q0 -114 72 -187q72 -74 182 -74q108 0 179 74q71 76 71 187t-72 186
q-70 75 -178 75q-109 0 -181.5 -75t-72.5 -186z" />
    <glyph glyph-name="oe" unicode="&#x153;" horiz-adv-x="1055" 
d="M45 261q-2 117 78.5 197t198.5 78q141 0 220 -105q74 105 211 105q118 0 187 -76.5t69 -192.5v-39h-412q3 -69 46.5 -111t114.5 -42q51 0 90 22.5t54 60.5h102q-21 -78 -88 -124.5t-161 -46.5q-139 0 -213 105q-77 -105 -221 -105q-120 0 -198 78t-78 196zM152 261
q0 -77 47 -129q48 -50 122 -50q75 0 121 51q48 51 48 128q0 79 -48 128q-46 51 -121 51q-74 0 -122 -51q-47 -50 -47 -128zM599 309h307q-5 64 -47.5 101.5t-106.5 37.5q-60 0 -104 -39q-43 -39 -49 -100z" />
    <glyph glyph-name="Racute" unicode="&#x154;" horiz-adv-x="634" 
d="M197 0h-108v700h250q105 0 170 -60q65 -59 65 -155q0 -71 -38.5 -126t-100.5 -77l159 -282h-122l-143 266h-132v-266zM197 607v-247h137q59 0 94 32.5t35 92.5q0 54 -35.5 88t-97.5 34h-133zM334 787h-77l56 139h111z" />
    <glyph glyph-name="racute" unicode="&#x155;" horiz-adv-x="415" 
d="M187 0h-105v523h101v-91h7q15 38 53 65t87 27h46v-102h-49q-65 0 -102.5 -44.5t-37.5 -119.5v-258zM270 608h-77l56 139h111z" />
    <glyph glyph-name="uni0156" unicode="&#x156;" horiz-adv-x="634" 
d="M197 0h-108v700h250q105 0 170 -60q65 -59 65 -155q0 -71 -38.5 -126t-100.5 -77l159 -282h-122l-143 266h-132v-266zM197 607v-247h137q59 0 94 32.5t35 92.5q0 54 -35.5 88t-97.5 34h-133zM334 -229h-72l16 171h95z" />
    <glyph glyph-name="uni0157" unicode="&#x157;" horiz-adv-x="415" 
d="M187 0h-105v523h101v-91h7q15 38 53 65t87 27h46v-102h-49q-65 0 -102.5 -44.5t-37.5 -119.5v-258zM218 -229h-72l16 171h95z" />
    <glyph glyph-name="Rcaron" unicode="&#x158;" horiz-adv-x="634" 
d="M197 0h-108v700h250q105 0 170 -60q65 -59 65 -155q0 -71 -38.5 -126t-100.5 -77l159 -282h-122l-143 266h-132v-266zM255 787l-98 137h85l59 -59h7l61 59h84l-98 -137h-100zM197 607v-247h137q59 0 94 32.5t35 92.5q0 54 -35.5 88t-97.5 34h-133z" />
    <glyph glyph-name="rcaron" unicode="&#x159;" horiz-adv-x="415" 
d="M187 0h-105v523h101v-91h7q15 38 53 65t87 27h46v-102h-49q-65 0 -102.5 -44.5t-37.5 -119.5v-258zM191 608l-98 137h85l59 -59h7l61 59h84l-98 -137h-100z" />
    <glyph glyph-name="Sacute" unicode="&#x15a;" horiz-adv-x="595" 
d="M39 215h105q1 -57 44 -93t113 -36q63 0 101 27t38 74q0 38 -21 62.5t-54.5 36.5t-73.5 21.5t-80.5 22t-74 32.5t-54.5 59.5t-21 96.5q0 84 63 139q64 56 171 56q97 0 168.5 -54t71.5 -156h-109q0 52 -35 82.5t-97 30.5q-59 0 -92.5 -27t-33.5 -69q0 -34 21 -56t55 -33
t75 -20t81.5 -23t74.5 -34.5t55 -61t21 -97.5q0 -91 -68 -150q-67 -58 -186 -58q-113 0 -186 63q-72 64 -72 165zM324 787h-77l56 139h111z" />
    <glyph glyph-name="sacute" unicode="&#x15b;" horiz-adv-x="530" 
d="M52 155h99q10 -82 114 -82q51 0 79 20.5t28 56.5q0 35 -31.5 52.5t-76.5 24.5t-90 18t-76.5 45t-31.5 93q0 67 54 110q55 43 144 43q82 0 135.5 -42.5t59.5 -114.5h-96q-5 34 -31.5 53.5t-71.5 19.5q-44 0 -70 -18.5t-26 -48.5q0 -27 23 -42.5t57.5 -20t74.5 -13.5
t74.5 -21.5t57.5 -46.5t23 -86q0 -75 -58 -121.5t-154 -46.5t-150.5 44.5t-59.5 123.5zM291 608h-77l56 139h111z" />
    <glyph glyph-name="Scedilla" unicode="&#x15e;" horiz-adv-x="595" 
d="M39 215h105q1 -57 44 -93t113 -36q63 0 101 27t38 74q0 38 -21 62.5t-54.5 36.5t-73.5 21.5t-80.5 22t-74 32.5t-54.5 59.5t-21 96.5q0 84 63 139q64 56 171 56q97 0 168.5 -54t71.5 -156h-109q0 52 -35 82.5t-97 30.5q-59 0 -92.5 -27t-33.5 -69q0 -34 21 -56t55 -33
t75 -20t81.5 -23t74.5 -34.5t55 -61t21 -97.5q0 -89 -66 -147q-64 -58 -177 -61l-10 -39h6q10 9 30 9q33 0 54 -22.5t21 -55.5q0 -36 -26 -60t-67 -24q-37 0 -62 21t-26 54h59q5 -22 29 -22q14 0 23 8.5t9 23.5q0 14 -9.5 22.5t-22.5 8.5q-18 0 -26 -15l-57 1l17 93
q-94 13 -153 74q-58 61 -58 151z" />
    <glyph glyph-name="scedilla" unicode="&#x15f;" horiz-adv-x="530" 
d="M52 155h99q10 -82 114 -82q51 0 79 20.5t28 56.5q0 35 -31.5 52.5t-76.5 24.5t-90 18t-76.5 45t-31.5 93q0 67 54 110q55 43 144 43q82 0 135.5 -42.5t59.5 -114.5h-96q-5 34 -31.5 53.5t-71.5 19.5q-44 0 -70 -18.5t-26 -48.5q0 -27 23 -42.5t57.5 -20t74.5 -13.5
t74.5 -21.5t57.5 -46.5t23 -86q0 -75 -55 -120.5t-148 -47.5l-10 -39h6q11 9 30 9q32 0 53 -22.5t21 -55.5q0 -37 -25.5 -60.5t-67.5 -23.5q-36 0 -61.5 21t-25.5 54h59q0 -9 8.5 -15.5t20.5 -6.5q13 0 22 8.5t9 23.5q0 14 -9 22.5t-23 8.5q-18 0 -25 -15l-57 1l17 93
q-75 11 -116 53.5t-45 111.5z" />
    <glyph glyph-name="Scaron" unicode="&#x160;" horiz-adv-x="595" 
d="M39 215h105q1 -57 44 -93t113 -36q63 0 101 27t38 74q0 38 -21 62.5t-54.5 36.5t-73.5 21.5t-80.5 22t-74 32.5t-54.5 59.5t-21 96.5q0 84 63 139q64 56 171 56q97 0 168.5 -54t71.5 -156h-109q0 52 -35 82.5t-97 30.5q-59 0 -92.5 -27t-33.5 -69q0 -34 21 -56t55 -33
t75 -20t81.5 -23t74.5 -34.5t55 -61t21 -97.5q0 -91 -68 -150q-67 -58 -186 -58q-113 0 -186 63q-72 64 -72 165zM246 787l-98 137h85l59 -59h7l61 59h84l-98 -137h-100z" />
    <glyph glyph-name="scaron" unicode="&#x161;" horiz-adv-x="530" 
d="M52 155h99q10 -82 114 -82q51 0 79 20.5t28 56.5q0 35 -31.5 52.5t-76.5 24.5t-90 18t-76.5 45t-31.5 93q0 67 54 110q55 43 144 43q82 0 135.5 -42.5t59.5 -114.5h-96q-5 34 -31.5 53.5t-71.5 19.5q-44 0 -70 -18.5t-26 -48.5q0 -27 23 -42.5t57.5 -20t74.5 -13.5
t74.5 -21.5t57.5 -46.5t23 -86q0 -75 -58 -121.5t-154 -46.5t-150.5 44.5t-59.5 123.5zM212 608l-98 137h85l59 -59h7l61 59h84l-98 -137h-100z" />
    <glyph glyph-name="uni0162" unicode="&#x162;" horiz-adv-x="581" 
d="M237 604h-208v96h523v-96h-208v-604h-107v604zM298 -229h-72l16 171h95z" />
    <glyph glyph-name="uni0163" unicode="&#x163;" horiz-adv-x="433" 
d="M133 437h-94v85h69q14 0 22.5 9.5t8.5 24.5v115h99v-148h152v-86h-152v-268q0 -80 76 -80h71v-89h-87q-79 0 -122 43t-43 123v271zM283 -229h-72l16 171h95z" />
    <glyph glyph-name="Tcaron" unicode="&#x164;" horiz-adv-x="581" 
d="M237 604h-208v96h523v-96h-208v-604h-107v604zM246 787l-98 137h85l59 -59h7l61 59h84l-98 -137h-100z" />
    <glyph glyph-name="tcaron" unicode="&#x165;" horiz-adv-x="433" 
d="M133 437h-94v85h69q14 0 22.5 9.5t8.5 24.5v115h99v-148h152v-86h-152v-268q0 -80 76 -80h71v-89h-87q-79 0 -122 43t-43 123v271zM420 569h-79v188h103z" />
    <glyph glyph-name="Tbar" unicode="&#x166;" horiz-adv-x="554" 
d="M237 604h-208v96h523v-96h-208v-190h130v-85h-130v-329h-107v329h-157v85h157v190z" />
    <glyph glyph-name="tbar" unicode="&#x167;" horiz-adv-x="433" 
d="M133 437h-94v85h69q14 0 22.5 9.5t8.5 24.5v115h99v-148h152v-86h-152v-88h138v-79h-138v-101q0 -80 76 -80h71v-89h-87q-79 0 -122 43t-43 123v104h-90v79h90v88z" />
    <glyph glyph-name="Umacron" unicode="&#x16a;" horiz-adv-x="699" 
d="M80 256v444h108v-443q0 -81 42 -125.5t120 -44.5t120 45t42 126v442h107v-443q0 -123 -73 -196q-72 -74 -196 -74q-126 0 -198 73q-72 74 -72 196zM477 808h-255v82h255v-82z" />
    <glyph glyph-name="umacron" unicode="&#x16b;" horiz-adv-x="600" 
d="M74 187v336h105v-317q0 -54 33 -88t84 -34q55 0 91 37.5t36 94.5v307h105v-523h-102v70h-7q-18 -37 -59 -60t-94 -23q-87 0 -140 56q-52 56 -52 144zM431 629h-255v82h255v-82z" />
    <glyph glyph-name="Uring" unicode="&#x16e;" horiz-adv-x="699" 
d="M80 256v444h108v-443q0 -81 42 -125.5t120 -44.5t120 45t42 126v442h107v-443q0 -123 -73 -196q-72 -74 -196 -74q-126 0 -198 73q-72 74 -72 196zM251 851q0 41 27 67t69 26q43 0 70 -26t27 -66t-27 -66.5t-69 -26.5t-69.5 26t-27.5 66zM309 851q0 -18 11 -28.5
t28 -10.5t27.5 11t10.5 29q0 17 -10.5 27.5t-28.5 10.5q-17 0 -27.5 -10.5t-10.5 -28.5z" />
    <glyph glyph-name="uring" unicode="&#x16f;" horiz-adv-x="600" 
d="M74 187v336h105v-317q0 -54 33 -88t84 -34q55 0 91 37.5t36 94.5v307h105v-523h-102v70h-7q-18 -37 -59 -60t-94 -23q-87 0 -140 56q-52 56 -52 144zM204 672q0 40 27 66.5t69 26.5t69.5 -26t27.5 -66q0 -41 -27 -67t-69 -26t-69.5 26t-27.5 66zM262 672
q0 -18 10.5 -28.5t28.5 -10.5q17 0 27.5 11t10.5 29q0 17 -10.5 27.5t-28.5 10.5q-17 0 -27.5 -10.5t-10.5 -28.5z" />
    <glyph glyph-name="Uhungarumlaut" unicode="&#x170;" horiz-adv-x="699" 
d="M80 256v444h108v-443q0 -81 42 -125.5t120 -44.5t120 45t42 126v442h107v-443q0 -123 -73 -196q-72 -74 -196 -74q-126 0 -198 73q-72 74 -72 196zM299 787h-76l53 146h111zM456 787h-76l53 146h110z" />
    <glyph glyph-name="uhungarumlaut" unicode="&#x171;" horiz-adv-x="600" 
d="M74 187v336h105v-317q0 -54 33 -88t84 -34q55 0 91 37.5t36 94.5v307h105v-523h-102v70h-7q-18 -37 -59 -60t-94 -23q-87 0 -140 56q-52 56 -52 144zM252 608h-76l53 146h111zM409 608h-76l53 146h110z" />
    <glyph glyph-name="Uogonek" unicode="&#x172;" horiz-adv-x="699" 
d="M80 256v444h108v-443q0 -81 42 -125.5t120 -44.5t120 45t42 126v442h107v-443q0 -103 -52.5 -173t-145.5 -90l-42 -50q-18 -21 -18 -37q0 -13 10 -20.5t25 -7.5h30v-73h-59q-40 0 -67 22t-27 59q0 33 33 74l22 27q-116 6 -182 78t-66 190z" />
    <glyph glyph-name="uogonek" unicode="&#x173;" horiz-adv-x="600" 
d="M74 187v336h105v-317q0 -54 33 -88t84 -34q55 0 91 37.5t36 94.5v307h105v-523l-47 -56q-18 -21 -18 -37q0 -13 10 -20.5t25 -7.5h30v-73h-59q-40 0 -67 22t-27 59q0 33 33 74l32 39h-14v70h-7q-18 -37 -59 -60t-94 -23q-87 0 -140 56q-52 56 -52 144z" />
    <glyph glyph-name="Wcircumflex" unicode="&#x174;" horiz-adv-x="951" 
d="M198 0l-180 700h116l129 -551h7l139 551h133l140 -551h6l129 551h117l-180 -700h-133l-142 551h-7l-142 -551h-132zM415 787h-85l98 137h100l98 -137h-84l-61 58h-7z" />
    <glyph glyph-name="wcircumflex" unicode="&#x175;" horiz-adv-x="867" 
d="M182 0l-154 523h111l107 -399h7l125 399h111l124 -399h7l107 399h112l-155 -523h-126l-122 388h-6l-123 -388h-125zM372 608h-85l98 137h100l98 -137h-84l-61 58h-7z" />
    <glyph glyph-name="Ycircumflex" unicode="&#x176;" horiz-adv-x="644" 
d="M269 270l-251 430h117l183 -321h7l181 321h121l-250 -430v-270h-108v270zM259 787h-85l98 137h100l98 -137h-84l-61 58h-7z" />
    <glyph glyph-name="ycircumflex" unicode="&#x177;" horiz-adv-x="575" 
d="M236 -22l-211 545h114l145 -404h7l144 404h115l-240 -627q-24 -64 -64.5 -95t-107.5 -31h-59v94h46q67 0 92 64zM228 608h-85l98 137h100l98 -137h-84l-61 58h-7z" />
    <glyph glyph-name="Ydieresis" unicode="&#x178;" horiz-adv-x="644" 
d="M269 270l-251 430h117l183 -321h7l181 321h121l-250 -430v-270h-108v270zM170 854q0 26 17.5 43.5t43.5 17.5q27 0 44 -17.5t17 -43.5q0 -27 -17 -44t-44 -17q-26 0 -43.5 17.5t-17.5 43.5zM409 915q26 0 44 -18t18 -43q0 -26 -18 -43.5t-44 -17.5q-27 0 -44 17t-17 44
t17 44t44 17z" />
    <glyph glyph-name="Zacute" unicode="&#x179;" horiz-adv-x="621" 
d="M573 0h-525v100l392 499v7h-380v94h511v-100l-393 -499v-7h395v-94zM336 787h-77l56 139h111z" />
    <glyph glyph-name="zacute" unicode="&#x17a;" horiz-adv-x="520" 
d="M464 0h-409v91l272 337v7h-263v88h395v-88l-272 -339v-7h277v-89zM287 608h-77l56 139h111z" />
    <glyph glyph-name="Zdotaccent" unicode="&#x17b;" horiz-adv-x="621" 
d="M573 0h-525v100l392 499v7h-380v94h511v-100l-393 -499v-7h395v-94zM242 851q0 28 18.5 47t48.5 19t49.5 -19t19.5 -47q0 -29 -19 -48t-50 -19q-30 0 -48.5 19t-18.5 48z" />
    <glyph glyph-name="zdotaccent" unicode="&#x17c;" horiz-adv-x="520" 
d="M464 0h-409v91l272 337v7h-263v88h395v-88l-272 -339v-7h277v-89zM193 672q0 28 18.5 47t48.5 19t49.5 -19t19.5 -47q0 -29 -19 -48t-50 -19q-30 0 -48.5 19t-18.5 48z" />
    <glyph glyph-name="Zcaron" unicode="&#x17d;" horiz-adv-x="621" 
d="M573 0h-525v100l392 499v7h-380v94h511v-100l-393 -499v-7h395v-94zM257 787l-98 137h85l59 -59h7l61 59h84l-98 -137h-100z" />
    <glyph glyph-name="zcaron" unicode="&#x17e;" horiz-adv-x="520" 
d="M464 0h-409v91l272 337v7h-263v88h395v-88l-272 -339v-7h277v-89zM209 608l-98 137h85l59 -59h7l61 59h84l-98 -137h-100z" />
    <glyph glyph-name="florin" unicode="&#x192;" horiz-adv-x="518" 
d="M174 361h-110v85h126l28 152q12 74 62.5 113t124.5 39h66l-11 -90h-45q-80 0 -97 -83l-24 -131h132v-85h-149l-103 -554h-102z" />
    <glyph glyph-name="uni0218" unicode="&#x218;" horiz-adv-x="595" 
d="M39 215h105q1 -57 44 -93t113 -36q63 0 101 27t38 74q0 38 -21 62.5t-54.5 36.5t-73.5 21.5t-80.5 22t-74 32.5t-54.5 59.5t-21 96.5q0 84 63 139q64 56 171 56q97 0 168.5 -54t71.5 -156h-109q0 52 -35 82.5t-97 30.5q-59 0 -92.5 -27t-33.5 -69q0 -34 21 -56t55 -33
t75 -20t81.5 -23t74.5 -34.5t55 -61t21 -97.5q0 -91 -68 -150q-67 -58 -186 -58q-113 0 -186 63q-72 64 -72 165zM312 -229h-72l16 171h95z" />
    <glyph glyph-name="uni0219" unicode="&#x219;" horiz-adv-x="530" 
d="M52 155h99q10 -82 114 -82q51 0 79 20.5t28 56.5q0 35 -31.5 52.5t-76.5 24.5t-90 18t-76.5 45t-31.5 93q0 67 54 110q55 43 144 43q82 0 135.5 -42.5t59.5 -114.5h-96q-5 34 -31.5 53.5t-71.5 19.5q-44 0 -70 -18.5t-26 -48.5q0 -27 23 -42.5t57.5 -20t74.5 -13.5
t74.5 -21.5t57.5 -46.5t23 -86q0 -75 -58 -121.5t-154 -46.5t-150.5 44.5t-59.5 123.5zM275 -229h-72l16 171h95z" />
    <glyph glyph-name="uni021A" unicode="&#x21a;" horiz-adv-x="581" 
d="M237 604h-208v96h523v-96h-208v-604h-30l-13 -52h6q11 9 30 9q32 0 53 -22.5t21 -55.5q0 -36 -26 -60t-67 -24q-36 0 -61.5 21t-25.5 54h58q5 -22 30 -22q13 0 22 8.5t9 23.5q0 14 -9 22.5t-23 8.5q-18 0 -26 -15l-56 1l18 103h-17v604z" />
    <glyph glyph-name="uni021B" unicode="&#x21b;" horiz-adv-x="433" 
d="M133 437h-94v85h69q14 0 22.5 9.5t8.5 24.5v115h99v-148h152v-86h-152v-268q0 -80 76 -80h71v-89h-86l-13 -52h6q10 9 30 9q32 0 53.5 -22.5t21.5 -55.5q0 -37 -25.5 -60.5t-67.5 -23.5q-37 0 -62.5 21t-25.5 54h59q2 -22 29 -22q14 0 23 8.5t9 23.5q0 14 -9 22.5
t-23 8.5q-18 0 -26 -15l-57 1l20 110q-108 30 -108 159v271z" />
    <glyph glyph-name="uni0237" unicode="&#x237;" horiz-adv-x="305" 
d="M4 -230v94h37q42 0 66 24.5t24 64.5v570h105v-571q0 -84 -50.5 -133t-134.5 -49h-47z" />
    <glyph glyph-name="circumflex" unicode="&#x2c6;" horiz-adv-x="386" 
d="M130 608h-85l98 137h100l98 -137h-84l-61 58h-7z" />
    <glyph glyph-name="caron" unicode="&#x2c7;" horiz-adv-x="386" 
d="M143 608l-98 137h85l59 -59h7l61 59h84l-98 -137h-100z" />
    <glyph glyph-name="breve" unicode="&#x2d8;" horiz-adv-x="362" 
d="M48 740h73q0 -66 60 -66q29 0 44.5 17.5t15.5 48.5h73q0 -61 -35 -97.5t-98 -36.5q-62 0 -97.5 36.5t-35.5 97.5z" />
    <glyph glyph-name="dotaccent" unicode="&#x2d9;" horiz-adv-x="233" 
d="M49 672q0 28 18.5 47t48.5 19t49.5 -19t19.5 -47q0 -29 -19 -48t-50 -19q-30 0 -48.5 19t-18.5 48z" />
    <glyph glyph-name="ring" unicode="&#x2da;" horiz-adv-x="285" 
d="M46 672q0 40 27.5 66.5t68.5 26.5q43 0 70 -26t27 -66q0 -41 -27 -67t-69 -26t-69.5 26t-27.5 66zM104 672q0 -18 10.5 -28.5t28.5 -10.5q17 0 27.5 11t10.5 29q0 17 -10.5 27.5t-28.5 10.5q-17 0 -27.5 -10.5t-10.5 -28.5z" />
    <glyph glyph-name="ogonek" unicode="&#x2db;" horiz-adv-x="248" 
d="M48 -113q0 37 33 74l32 39h88l-47 -56q-18 -19 -18 -37q0 -13 9.5 -20.5t24.5 -7.5h31v-73h-60q-40 0 -66.5 22t-26.5 59z" />
    <glyph glyph-name="tilde" unicode="&#x2dc;" horiz-adv-x="426" 
d="M118 610h-72q0 60 28.5 93.5t74.5 33.5q25 0 68.5 -25t54.5 -25q35 0 37 50h71q0 -60 -27.5 -94t-73.5 -34q-28 0 -67.5 25t-56.5 25q-36 0 -37 -49z" />
    <glyph glyph-name="hungarumlaut" unicode="&#x2dd;" horiz-adv-x="415" 
d="M124 608h-76l53 146h111zM281 608h-76l53 146h110z" />
    <glyph glyph-name="uni0326" unicode="&#x326;" horiz-adv-x="0" 
d="M-84 -229h-72l16 171h95z" />
    <glyph glyph-name="Wgrave" unicode="&#x1e80;" horiz-adv-x="951" 
d="M198 0l-180 700h116l129 -551h7l139 551h133l140 -551h6l129 551h117l-180 -700h-133l-142 551h-7l-142 -551h-132zM454 787l-90 139h111l56 -139h-77z" />
    <glyph glyph-name="wgrave" unicode="&#x1e81;" horiz-adv-x="867" 
d="M182 0l-154 523h111l107 -399h7l125 399h111l124 -399h7l107 399h112l-155 -523h-126l-122 388h-6l-123 -388h-125zM411 608l-90 139h111l56 -139h-77z" />
    <glyph glyph-name="Wacute" unicode="&#x1e82;" horiz-adv-x="951" 
d="M198 0l-180 700h116l129 -551h7l139 551h133l140 -551h6l129 551h117l-180 -700h-133l-142 551h-7l-142 -551h-132zM507 787h-77l56 139h111z" />
    <glyph glyph-name="wacute" unicode="&#x1e83;" horiz-adv-x="867" 
d="M182 0l-154 523h111l107 -399h7l125 399h111l124 -399h7l107 399h112l-155 -523h-126l-122 388h-6l-123 -388h-125zM464 608h-77l56 139h111z" />
    <glyph glyph-name="Wdieresis" unicode="&#x1e84;" horiz-adv-x="951" 
d="M198 0l-180 700h116l129 -551h7l139 551h133l140 -551h6l129 551h117l-180 -700h-133l-142 551h-7l-142 -551h-132zM326 854q0 26 17.5 43.5t43.5 17.5q27 0 44 -17t17 -44t-16.5 -44t-44.5 -17q-26 0 -43.5 17.5t-17.5 43.5zM565 915q26 0 44 -18t18 -43
q0 -26 -18 -43.5t-44 -17.5q-27 0 -44 17t-17 44t17 44t44 17z" />
    <glyph glyph-name="wdieresis" unicode="&#x1e85;" horiz-adv-x="867" 
d="M182 0l-154 523h111l107 -399h7l125 399h111l124 -399h7l107 399h112l-155 -523h-126l-122 388h-6l-123 -388h-125zM283 675q0 25 17.5 43t43.5 18q27 0 44 -17t17 -44t-16.5 -44t-44.5 -17q-26 0 -43.5 17t-17.5 44zM522 736q26 0 44 -18t18 -43q0 -26 -18 -43.5
t-44 -17.5q-27 0 -44 17t-17 44t17 44t44 17z" />
    <glyph glyph-name="uni1E9E" unicode="&#x1e9e;" horiz-adv-x="687" 
d="M197 0h-108v484q0 93 59.5 154.5t170.5 61.5h259v-105l-163 -170v-10l24 -1q88 -2 145 -59q59 -57 59 -147q2 -81 -62.5 -145t-152.5 -63h-156v97h147q48 0 81 32t33 79t-33 80t-81 33h-126v106l157 168v10h-124q-61 0 -95 -34.5t-34 -90.5v-480z" />
    <glyph glyph-name="Ygrave" unicode="&#x1ef2;" horiz-adv-x="644" 
d="M269 270l-251 430h117l183 -321h7l181 321h121l-250 -430v-270h-108v270zM299 787l-90 139h111l56 -139h-77z" />
    <glyph glyph-name="ygrave" unicode="&#x1ef3;" horiz-adv-x="575" 
d="M236 -22l-211 545h114l145 -404h7l144 404h115l-240 -627q-24 -64 -64.5 -95t-107.5 -31h-59v94h46q67 0 92 64zM267 608l-90 139h111l56 -139h-77z" />
    <glyph glyph-name="uni2000" unicode="&#x2000;" horiz-adv-x="472" 
 />
    <glyph glyph-name="uni2001" unicode="&#x2001;" horiz-adv-x="944" 
 />
    <glyph glyph-name="uni2002" unicode="&#x2002;" horiz-adv-x="472" 
 />
    <glyph glyph-name="uni2003" unicode="&#x2003;" horiz-adv-x="944" 
 />
    <glyph glyph-name="uni2004" unicode="&#x2004;" horiz-adv-x="314" 
 />
    <glyph glyph-name="uni2005" unicode="&#x2005;" horiz-adv-x="236" 
 />
    <glyph glyph-name="uni2006" unicode="&#x2006;" horiz-adv-x="157" 
 />
    <glyph glyph-name="uni2007" unicode="&#x2007;" horiz-adv-x="157" 
 />
    <glyph glyph-name="uni2008" unicode="&#x2008;" horiz-adv-x="118" 
 />
    <glyph glyph-name="uni2009" unicode="&#x2009;" horiz-adv-x="188" 
 />
    <glyph glyph-name="uni200A" unicode="&#x200a;" horiz-adv-x="52" 
 />
    <glyph glyph-name="uni2010" unicode="&#x2010;" horiz-adv-x="391" 
d="M328 256h-265v93h265v-93z" />
    <glyph glyph-name="uni2011" unicode="&#x2011;" horiz-adv-x="391" 
d="M328 256h-265v93h265v-93z" />
    <glyph glyph-name="figuredash" unicode="&#x2012;" horiz-adv-x="391" 
d="M328 256h-265v93h265v-93z" />
    <glyph glyph-name="endash" unicode="&#x2013;" horiz-adv-x="655" 
d="M592 258h-529v89h529v-89z" />
    <glyph glyph-name="emdash" unicode="&#x2014;" horiz-adv-x="915" 
d="M853 258h-790v89h790v-89z" />
    <glyph glyph-name="quoteleft" unicode="&#x2018;" horiz-adv-x="256" 
d="M175 463h-109l50 237h76z" />
    <glyph glyph-name="quoteright" unicode="&#x2019;" horiz-adv-x="256" 
d="M140 463h-76l18 237h108z" />
    <glyph glyph-name="quotesinglbase" unicode="&#x201a;" horiz-adv-x="268" 
d="M138 -131h-76l17 237h109z" />
    <glyph glyph-name="quotedblleft" unicode="&#x201c;" horiz-adv-x="423" 
d="M175 463h-109l50 237h74zM341 463h-109l51 237h76z" />
    <glyph glyph-name="quotedblright" unicode="&#x201d;" horiz-adv-x="423" 
d="M140 463h-76l18 237h108zM307 463h-74l15 237h109z" />
    <glyph glyph-name="quotedblbase" unicode="&#x201e;" horiz-adv-x="438" 
d="M140 -131h-76l18 237h108zM307 -131h-74l15 237h109z" />
    <glyph glyph-name="dagger" unicode="&#x2020;" horiz-adv-x="443" 
d="M171 437h-118v89h118v174h99v-174h120v-89h-120v-437h-99v437z" />
    <glyph glyph-name="daggerdbl" unicode="&#x2021;" horiz-adv-x="443" 
d="M171 172h-118v89h118v178h-118v89h118v172h98v-172h121v-89h-121v-178h121v-89h-121v-172h-98v172z" />
    <glyph glyph-name="bullet" unicode="&#x2022;" horiz-adv-x="464" 
d="M109 188q-49 49 -49 122t49 122q50 50 123 50t123 -50q49 -49 49 -122t-49 -122q-50 -50 -123 -50t-123 50z" />
    <glyph glyph-name="uni202F" unicode="&#x202f;" horiz-adv-x="188" 
 />
    <glyph glyph-name="perthousand" unicode="&#x2030;" horiz-adv-x="1149" 
d="M68 455v126q0 59 38.5 95.5t97.5 36.5t97.5 -36.5t38.5 -95.5v-126q0 -59 -38.5 -95.5t-97.5 -36.5t-97.5 36.5t-38.5 95.5zM146 580v-124q0 -24 17 -41.5t41 -17.5q25 0 42 17.5t17 41.5v124q0 24 -17 41t-42 17q-24 0 -41 -17t-17 -41zM231 26l-69 49l424 601l68 -49z
M476 119v126q0 59 38.5 95.5t98.5 36.5q59 0 97.5 -36.5t38.5 -95.5v-126q0 -59 -38.5 -95.5t-97.5 -36.5q-60 0 -98.5 36.5t-38.5 95.5zM555 244v-124q0 -25 16 -42t42 -17q24 0 41 17.5t17 41.5v124q0 24 -17 41t-41 17q-25 0 -41.5 -17t-16.5 -41zM809 119v126
q0 59 38.5 95.5t97.5 36.5t97 -37q40 -36 40 -95v-126q0 -59 -38.5 -95.5t-98.5 -36.5q-59 0 -97.5 36.5t-38.5 95.5zM888 244v-124q0 -24 16.5 -41.5t40.5 -17.5q25 0 42 17.5t17 41.5v124q0 24 -17 41t-42 17q-24 0 -40.5 -17t-16.5 -41z" />
    <glyph glyph-name="guilsinglleft" unicode="&#x2039;" horiz-adv-x="323" 
d="M261 101l-198 162v58l198 162v-102l-105 -86v-6l105 -86v-102z" />
    <glyph glyph-name="guilsinglright" unicode="&#x203a;" horiz-adv-x="323" 
d="M261 263l-198 -162v102l104 86v6l-104 86v102l198 -162v-58z" />
    <glyph glyph-name="fraction" unicode="&#x2044;" horiz-adv-x="493" 
d="M98 -41h-93l390 782h93z" />
    <glyph glyph-name="uni205F" unicode="&#x205f;" horiz-adv-x="236" 
 />
    <glyph glyph-name="Euro" unicode="&#x20ac;" horiz-adv-x="627" 
d="M72 243h-52v69h52v73h-52v69h52v33q0 102 69.5 164t163.5 62q104 0 168 -64t64 -168h-106q0 58 -34.5 94t-91.5 36q-55 0 -91 -36.5t-36 -93.5v-27h174v-69h-174v-73h174v-69h-174v-24q0 -58 35.5 -94t91.5 -36q55 0 90.5 36.5t35.5 93.5h106q0 -103 -66 -168
q-65 -64 -166 -64q-94 0 -163.5 61.5t-69.5 164.5v30z" />
    <glyph glyph-name="uni2116" unicode="&#x2116;" horiz-adv-x="1172" 
d="M195 0h-106v700h113l334 -509h6v509h105v-700h-112l-334 515h-6v-515zM740 534q0 74 51 126q51 53 129 53t129 -53q51 -52 51 -126q0 -75 -51 -126q-49 -51 -129 -51q-78 0 -129 51t-51 126zM1085 212h-331v92h331v-92zM825 534q0 -40 26.5 -67.5t68.5 -27.5
q41 0 68 27.5t27 67.5t-27 68.5t-68 28.5q-42 0 -68.5 -27.5t-26.5 -69.5z" />
    <glyph glyph-name="trademark" unicode="&#x2122;" horiz-adv-x="832" 
d="M148 631h-92v69h261v-69h-92v-291h-77v291zM448 340h-74v360h78l120 -254h6l119 254h78v-360h-74v213h-3l-99 -213h-48l-100 213h-3v-213z" />
    <glyph glyph-name="arrowleft" unicode="&#x2190;" horiz-adv-x="814" 
d="M338 13l-297 297v77l297 297l70 -70l-206 -205v-6h562v-108h-562v-6l206 -206z" />
    <glyph glyph-name="arrowup" unicode="&#x2191;" horiz-adv-x="760" 
d="M115 356l-70 70l297 297h77l296 -297l-70 -70l-205 206h-6v-562h-109v562h-6z" />
    <glyph glyph-name="arrowright" unicode="&#x2192;" horiz-adv-x="814" 
d="M612 295h-562v108h562v6l-206 205l70 70l297 -297v-77l-297 -297l-70 70l206 206v6z" />
    <glyph glyph-name="arrowdown" unicode="&#x2193;" horiz-adv-x="760" 
d="M342 -23l-297 297l70 70l204 -206h6v562h109v-562h6l205 206l70 -70l-296 -297h-77z" />
    <glyph glyph-name="uni2196" unicode="&#x2196;" horiz-adv-x="660" 
d="M138 233h-99v419l54 54h420v-98l-290 1l-4 -5l397 -397l-77 -77l-397 397l-5 -4z" />
    <glyph glyph-name="uni2197" unicode="&#x2197;" horiz-adv-x="660" 
d="M122 130l-77 77l397 397l-4 5l-290 -1v98h419l55 -54v-419h-99v290l-4 4z" />
    <glyph glyph-name="uni2198" unicode="&#x2198;" horiz-adv-x="660" 
d="M438 89l-397 397l77 77l397 -397l4 4v291h98v-420l-55 -55l-419 1v99l291 -1z" />
    <glyph glyph-name="uni2199" unicode="&#x2199;" horiz-adv-x="660" 
d="M98 -14l-55 55v420h99l-1 -291l4 -4l398 397l77 -77l-398 -397l5 -4l290 1v-99z" />
    <glyph glyph-name="minus" unicode="&#x2212;" horiz-adv-x="487" 
d="M482 269h-477v85h477v-85z" />
    <glyph glyph-name="uni25FC" unicode="&#x25fc;" horiz-adv-x="525" 
d="M525 0h-525v525h525v-525z" />
    <glyph glyph-name="_1" horiz-adv-x="0" 
 />
    <glyph glyph-name="CR" horiz-adv-x="333" 
 />
    <glyph glyph-name="i.loclTRK" horiz-adv-x="256" 
d="M68 672q0 28 18.5 47t48.5 19t49 -19t19 -47q0 -30 -18.5 -48.5t-49.5 -18.5q-30 0 -48.5 19t-18.5 48zM187 0h-105v523h105v-523z" />
    <glyph glyph-name="zero.tf" 
d="M76 213v274q-1 101 70 164.5t162 61.5q93 2 163 -61.5t70 -164.5v-274q0 -101 -70 -164.5t-163 -61.5q-91 -2 -162 61.5t-70 164.5zM182 481v-262q0 -57 35.5 -93.5t90.5 -36.5q56 0 91.5 36.5t35.5 93.5v262q0 56 -36 93t-91 37q-54 0 -90 -37t-36 -93z" />
    <glyph glyph-name="one.tf" 
d="M345 515h-168v83q95 0 135 23.5t40 78.5h100v-700h-107v515z" />
    <glyph glyph-name="two.tf" 
d="M184 500h-100q0 84 59.5 148.5t160.5 64.5t163.5 -61t62.5 -145q0 -121 -124 -199l-129 -79q-47 -30 -66 -57t-19 -63v-13h341v-96h-448v99q0 67 32.5 115.5t105.5 93.5l128 80q70 45 70 116q0 49 -32.5 79t-86.5 30q-51 0 -84.5 -32.5t-33.5 -80.5z" />
    <glyph glyph-name="three.tf" 
d="M79 201h100q2 -49 35.5 -80.5t86.5 -31.5q58 0 94 35t36 92q0 54 -37 89.5t-95 35.5h-87v86l170 170v6h-289v97h423v-96l-173 -170v-6q83 -8 140 -66t57 -145q0 -96 -64.5 -162.5t-173.5 -66.5q-104 0 -163.5 65.5t-59.5 147.5z" />
    <glyph glyph-name="four.tf" 
d="M366 158h-305v88l207 454h111l-197 -440v-6h184v153h107v-153h84v-96h-84v-158h-107v158z" />
    <glyph glyph-name="five.tf" 
d="M75 192h100q7 -48 42 -76.5t86 -28.5q57 0 94.5 38.5t37.5 96.5t-38 94.5t-100 36.5q-70 0 -110 -58h-99l25 405h386v-97h-293l-13 -196h6q52 41 119 41q95 1 161 -67t64 -159q0 -99 -68 -167t-169 -68q-96 0 -161 57q-64 58 -70 148z" />
    <glyph glyph-name="six.tf" 
d="M69 222q0 66 36 131l194 347h123l-155 -256l4 -4q25 9 53 9q91 2 158.5 -62.5t66.5 -164.5q1 -98 -70.5 -167.5t-170.5 -67.5q-100 0 -170 67q-69 68 -69 168zM177 222q0 -57 37 -95.5t94 -38.5q59 0 95.5 38t36.5 96q0 57 -37 95q-37 39 -95 39t-95 -39q-36 -39 -36 -95
z" />
    <glyph glyph-name="seven.tf" 
d="M416 603h-328v97h442v-91l-244 -609h-116l246 597v6z" />
    <glyph glyph-name="eight.tf" 
d="M68 197q0 118 112 174v6q-36 20 -60 59.5t-24 88.5q0 83 61 135q62 53 152 53t152 -53q61 -52 61 -135q0 -49 -24 -88.5t-60 -59.5v-6q44 -20 78.5 -64t34.5 -110q0 -95 -67 -153q-68 -57 -175 -57t-175 57q-66 58 -66 153zM177 201q0 -51 36 -84.5t96 -33.5
q61 0 97 33.5t36 84.5q0 54 -37.5 87t-95.5 33t-95 -33t-37 -87zM202 516q0 -43 30 -72.5t77 -29.5t77.5 29.5t30.5 72.5t-30.5 72t-77.5 29q-48 0 -77.5 -28t-29.5 -73z" />
    <glyph glyph-name="nine.tf" 
d="M69 478q-2 98 70.5 167.5t170.5 67.5q101 0 169 -67q70 -66 70 -168q0 -66 -36 -131l-193 -347h-123l154 256l-4 4q-24 -9 -53 -9q-91 -2 -158.5 62.5t-66.5 164.5zM178 478q0 -57 37 -95q37 -39 95 -39t94 39q37 38 37 95q0 58 -37 96t-94 38q-59 0 -95.5 -38t-36.5 -96
z" />
    <glyph glyph-name="caron.Slovak" horiz-adv-x="203" 
d="M129 511h-79v189h103z" />
    <glyph glyph-name="NULL" horiz-adv-x="0" 
 />
    </font>
</defs>
</svg>
