<?xml version="1.0" standalone="no"?>
<!DOCTYPE svg PUBLIC "-//W3C//DTD SVG 1.1//EN" "http://www.w3.org/Graphics/SVG/1.1/DTD/svg11.dtd" >
<svg xmlns="http://www.w3.org/2000/svg" xmlns:xlink="http://www.w3.org/1999/xlink" version="1.1">
<metadata>
Created by FontForge 20170731 at Fri Sep  7 20:34:41 2018
 By Aleksey,,,
Copyright (c) 2018 by atipo. All rights reserved. |DCNT
</metadata>
<defs>
<font id="Silka-MediumItalic" horiz-adv-x="600" >
  <font-face 
    font-family="Silka Medium"
    font-weight="500"
    font-style="italic"
    font-stretch="normal"
    units-per-em="1000"
    panose-1="0 0 6 0 0 0 0 0 0 0"
    ascent="750"
    descent="-250"
    x-height="523"
    cap-height="700"
    bbox="-198 -243 1202 944"
    underline-thickness="50"
    underline-position="-399"
    unicode-range="U+000D-25FC"
  />
<missing-glyph horiz-adv-x="568" 
d="M534 0h-500l130 700h500zM196 605l-94 -510l217 255zM341 305l-218 -255h340zM574 650h-340l123 -255zM596 605l-217 -255l123 -255z" />
    <glyph glyph-name="ellipsis" unicode="&#x2e;&#x2e;&#x2e;" horiz-adv-x="755" 
d="M79 40q0 30 24 54t55 24q26 0 41 -15t15 -39q0 -30 -24 -53.5t-55 -23.5q-25 0 -40.5 15t-15.5 38zM320 40q0 30 24 54t55 24q25 0 40.5 -15.5t15.5 -38.5q0 -30 -24.5 -53.5t-55.5 -23.5q-24 0 -39.5 15t-15.5 38zM560 40q0 30 24.5 54t55.5 24q24 0 39.5 -15t15.5 -39
q0 -30 -24 -53.5t-55 -23.5q-24 0 -40 15t-16 38z" />
    <glyph glyph-name="degree.alt" unicode="&#xb0;C" horiz-adv-x="978" 
d="M160 538q0 72 51 123q51 52 127 52q56 0 90 -32.5t34 -84.5q0 -72 -51 -123t-128 -51q-56 0 -89.5 32t-33.5 84zM235 551q0 -27 16 -43t45 -16q37 0 63.5 27t26.5 65q0 27 -16 43.5t-45 16.5q-36 0 -63 -28t-27 -65zM473 213l50 274q20 106 95 165q76 61 177 61
q100 0 156 -65t36 -167h-106q11 56 -18.5 93t-83.5 37q-58 0 -99 -35.5t-52 -94.5l-48 -262q-11 -56 18.5 -93t83.5 -37q59 0 99.5 35.5t51.5 94.5h106q-19 -109 -94 -171q-73 -61 -179 -61q-94 0 -153 61.5t-40 164.5z" />
    <glyph glyph-name=".notdef" horiz-adv-x="568" 
d="M534 0h-500l130 700h500zM196 605l-94 -510l217 255zM341 305l-218 -255h340zM574 650h-340l123 -255zM596 605l-217 -255l123 -255z" />
    <glyph glyph-name=".null" horiz-adv-x="0" 
 />
    <glyph glyph-name="nonmarkingreturn" horiz-adv-x="333" 
 />
    <glyph glyph-name="CR.001" unicode="&#xd;" horiz-adv-x="0" 
 />
    <glyph glyph-name="space" unicode=" " horiz-adv-x="272" 
 />
    <glyph glyph-name="exclam" unicode="!" horiz-adv-x="309" 
d="M97 40q0 30 24 54t55 24q25 0 40.5 -15.5t15.5 -38.5q0 -30 -24.5 -53.5t-55.5 -23.5q-24 0 -39.5 15t-15.5 38zM221 187h-63l22 242l50 271h109l-50 -271z" />
    <glyph glyph-name="quotedbl" unicode="&#x22;" horiz-adv-x="397" 
d="M250 489h-77l31 211h94zM405 489h-78l32 211h94z" />
    <glyph glyph-name="numbersign" unicode="#" horiz-adv-x="581" 
d="M168 202h-75l15 82h87l44 131h-77l15 82h90l68 203h88l-68 -203h99l68 203h88l-68 -203h75l-15 -82h-88l-44 -131h78l-15 -82h-90l-68 -202h-88l68 202h-99l-68 -202h-88zM327 415l-44 -131h99l44 131h-99z" />
    <glyph glyph-name="dollar" unicode="$" horiz-adv-x="595" 
d="M79 215h105q-8 -51 16 -84t76 -42l42 228q-60 19 -93 38q-73 46 -73 130q0 95 66 156q65 61 173 70l10 55h72l-10 -55q85 -11 133.5 -63.5t32.5 -144.5h-109q8 43 -11.5 72t-63.5 38l-39 -208q62 -17 103 -39q78 -39 83 -135q0 -108 -70 -172t-193 -71l-13 -73h-72l14 74
q-96 10 -146 73q-50 62 -33 153zM263 501q0 -49 75 -76l35 188q-50 -9 -80 -39.5t-30 -72.5zM386 297l-38 -209q60 7 95 39t35 83q0 32 -22.5 51.5t-69.5 35.5z" />
    <glyph glyph-name="percent" unicode="%" horiz-adv-x="817" 
d="M152 455l23 126q11 61 53.5 96.5t105.5 35.5q60 0 92 -37t21 -95l-23 -126q-11 -61 -53 -96.5t-105 -35.5q-59 0 -92 37t-22 95zM235 26l-59 49l535 601l59 -49zM253 580l-22 -124q-5 -24 8 -41.5t38 -17.5q27 0 46.5 17t23.5 42l23 124q5 24 -9.5 41t-38.5 17
q-27 0 -45.5 -16t-23.5 -42zM498 119l23 126q11 60 53.5 96t105.5 36q61 0 93 -37t21 -95l-23 -126q-12 -61 -54 -96.5t-104 -35.5q-59 0 -92 37t-23 95zM600 244l-23 -124q-4 -24 9.5 -41.5t37.5 -17.5q26 0 45 16.5t24 42.5l23 124q5 24 -9 41t-39 17q-26 0 -44.5 -16
t-23.5 -42z" />
    <glyph glyph-name="ampersand" unicode="&#x26;" horiz-adv-x="688" 
d="M80 169q0 130 167 208l3 1q-46 64 -46 131q0 87 61 145q62 59 158 59q72 0 118 -40.5t46 -101.5q0 -77 -42.5 -123t-110.5 -77l-37 -18l122 -159q71 93 67 201h96q4 -73 -23.5 -146t-80.5 -132q23 -26 53 -26h31l-17 -91h-48q-33 0 -54.5 11.5t-42.5 38.5
q-94 -63 -210 -63q-89 0 -150 50q-60 49 -60 132zM186 177q0 -42 31.5 -69.5t81.5 -27.5q77 0 144 45l-140 184l-10 -5q-107 -50 -107 -127zM305 516q0 -39 40 -94l45 21q49 23 72 49t23 64q0 28 -20.5 47t-53.5 19q-44 0 -75 -30.5t-31 -75.5z" />
    <glyph glyph-name="quotesingle" unicode="'" horiz-adv-x="242" 
d="M250 489h-77l31 211h94z" />
    <glyph glyph-name="parenleft" unicode="(" horiz-adv-x="471" 
d="M91 216q0 175 97 320q97 147 269 232l58 -67q-145 -76 -232 -204q-87 -127 -87 -271q0 -98 46 -176.5t128 -130.5l-70 -67q-93 55 -152 150q-57 95 -57 214z" />
    <glyph glyph-name="parenright" unicode=")" horiz-adv-x="471" 
d="M129 -148l-59 67q146 77 232 203q88 127 88 272q0 98 -46 176.5t-128 130.5l70 67q96 -58 152.5 -153t56.5 -211q0 -175 -97 -321q-98 -146 -269 -231z" />
    <glyph glyph-name="asterisk" unicode="*" horiz-adv-x="483" 
d="M283 509l-122 -10l11 58l117 -11l5 7l-79 76l49 41l59 -93l7 4l11 119h58l-32 -119l7 -4l92 93l34 -41l-106 -76l1 -7l121 11l-10 -58l-118 10l-5 -7l80 -76l-49 -41l-60 92l-7 -3l-11 -119h-58l33 119l-6 3l-94 -92l-33 41l106 76z" />
    <glyph glyph-name="plus" unicode="+" horiz-adv-x="487" 
d="M249 269h-194l16 85h193l38 204h91l-38 -204h193l-16 -85h-193l-38 -205h-91z" />
    <glyph glyph-name="comma" unicode="," horiz-adv-x="268" 
d="M126 -131h-76l62 237h109z" />
    <glyph glyph-name="hyphen" unicode="-" horiz-adv-x="391" 
d="M376 256h-266l18 93h265z" />
    <glyph glyph-name="period" unicode="." horiz-adv-x="273" 
d="M79 40q0 30 24 54t55 24q26 0 41 -15t15 -39q0 -30 -24 -53.5t-55 -23.5q-25 0 -40.5 15t-15.5 38z" />
    <glyph glyph-name="slash" unicode="/" horiz-adv-x="499" 
d="M127 -108h-102l463 858h102z" />
    <glyph glyph-name="zero" unicode="0" horiz-adv-x="618" 
d="M116 213l51 274q20 105 94 165q76 61 177 61q93 0 153.5 -62t40.5 -164l-51 -274q-20 -107 -95 -166q-75 -60 -175 -60q-94 0 -153.5 62t-41.5 164zM272 481l-48 -262q-11 -57 18 -93.5t84 -36.5q59 0 99 35.5t51 94.5l49 262q11 56 -18.5 93t-83.5 37q-59 0 -99.5 -35.5
t-51.5 -94.5z" />
    <glyph glyph-name="one" unicode="1" horiz-adv-x="456" 
d="M343 515h-167l15 83q95 0 139.5 24t54.5 78h100l-130 -700h-107z" />
    <glyph glyph-name="two" unicode="2" horiz-adv-x="586" 
d="M522 0h-448l18 101q12 66 53.5 116t122.5 94l143 80q95 52 95 135q0 40 -26.5 63.5t-74.5 23.5q-55 0 -92.5 -32t-44.5 -81h-103q13 89 81 151t177 62q88 0 141 -50q52 -49 52 -123q0 -140 -164 -232l-142 -79q-53 -31 -77 -58t-30 -62l-3 -13h340z" />
    <glyph glyph-name="three" unicode="3" horiz-adv-x="607" 
d="M113 201h100q-8 -49 20 -80.5t84 -31.5q65 0 109 44t44 108q0 45 -30 72.5t-80 27.5h-87l15 86l196 170l2 6h-284l18 97h423l-18 -96l-202 -170l-1 -6q72 -6 115.5 -53.5t43.5 -116.5q0 -119 -79 -195q-78 -75 -202 -75q-104 1 -153.5 66t-33.5 147z" />
    <glyph glyph-name="four" unicode="4" horiz-adv-x="619" 
d="M396 158h-305l16 88l290 454h115l-281 -440l-1 -6h183l29 153h106l-28 -153h84l-17 -96h-85l-29 -158h-107z" />
    <glyph glyph-name="five" unicode="5" horiz-adv-x="602" 
d="M108 192h99q-4 -49 24.5 -77t84.5 -28q63 0 111 49q48 50 48 113q0 48 -30.5 76t-84.5 28q-73 0 -121 -58h-100l100 405h387l-18 -97h-293l-50 -196h6l3 2q61 39 123 39q84 0 135 -53q52 -52 52 -130q2 -112 -81.5 -196t-200.5 -82q-97 0 -152 58q-54 59 -42 147z" />
    <glyph glyph-name="six" unicode="6" horiz-adv-x="623" 
d="M108 183q0 86 64 174l259 343h123l-203 -256l4 -4q27 9 55 9q81 0 133 -49q54 -50 54 -131q0 -119 -82 -200.5t-205 -81.5q-86 0 -145 56q-57 55 -57 140zM218 193q0 -46 29.5 -75.5t79.5 -29.5q65 0 112 48q47 49 47 113q0 48 -29.5 77.5t-79.5 29.5q-64 0 -112 -49
q-47 -49 -47 -114z" />
    <glyph glyph-name="seven" unicode="7" horiz-adv-x="557" 
d="M257 0h-120l357 597l1 6h-324l18 97h442l-17 -91z" />
    <glyph glyph-name="eight" unicode="8" horiz-adv-x="623" 
d="M103 163q0 66 40.5 122t109.5 86l2 6q-27 19 -44.5 50.5t-17.5 68.5q0 91 71 154q70 63 179 63q78 0 131 -44q52 -43 52 -114q0 -56 -31 -104t-84 -74l-2 -6q84 -45 84 -137q0 -106 -79 -176.5t-205 -70.5q-91 0 -149 49q-57 50 -57 127zM214 179q0 -43 30 -69.5
t83 -26.5q65 0 111 41q46 40 46 101q0 44 -31 70t-82 26q-65 0 -111 -42q-46 -40 -46 -100zM298 497q0 -36 24.5 -59.5t65.5 -23.5q54 0 91 36q38 38 38 86q0 36 -25 58.5t-66 22.5q-54 0 -92 -35q-36 -34 -36 -85z" />
    <glyph glyph-name="nine" unicode="9" horiz-adv-x="623" 
d="M156 431q0 118 82 200t205 82q86 0 144 -56q58 -55 58 -140q0 -89 -64 -174l-258 -343h-124l203 256l-3 4q-27 -9 -56 -9q-81 0 -134 49q-53 50 -53 131zM267 451q0 -48 30 -77.5t80 -29.5q63 0 110 48q48 50 48 115q0 47 -29.5 76t-79.5 29q-66 0 -112 -48
q-47 -47 -47 -113z" />
    <glyph glyph-name="colon" unicode=":" horiz-adv-x="273" 
d="M79 40q0 30 24 54t55 24q26 0 41 -15t15 -39q0 -30 -24 -53.5t-55 -23.5q-25 0 -40.5 15t-15.5 38zM148 412q0 30 24 53.5t55 23.5q25 0 40.5 -15t15.5 -38q0 -31 -24 -54.5t-56 -23.5q-24 0 -39.5 15.5t-15.5 38.5z" />
    <glyph glyph-name="semicolon" unicode=";" horiz-adv-x="274" 
d="M126 -131h-76l62 237h109zM148 412q0 30 24.5 53.5t55.5 23.5q25 0 40 -15t15 -38q0 -31 -24 -54.5t-55 -23.5q-25 0 -40.5 15.5t-15.5 38.5z" />
    <glyph glyph-name="less" unicode="&#x3c;" horiz-adv-x="548" 
d="M497 90l-380 172l18 100l444 172l-17 -94l-339 -125l-1 -6l292 -127z" />
    <glyph glyph-name="equal" unicode="=" horiz-adv-x="487" 
d="M515 176h-478l16 85h477zM547 352h-477l16 85h477z" />
    <glyph glyph-name="greater" unicode="&#x3e;" horiz-adv-x="548" 
d="M529 262l-444 -172l17 93l340 128l1 6l-293 125l17 92l380 -172z" />
    <glyph glyph-name="question" unicode="?" horiz-adv-x="548" 
d="M255 510h-97q13 84 76.5 143.5t166.5 59.5q84 0 133 -46q50 -47 50 -114q0 -53 -30 -104q-11 -18 -32 -39q-31 -31 -67 -54l-61 -43q-41 -30 -50 -71l-8 -48h-99l10 53q9 44 29 72.5t62 58.5l65 47q29 23 47 43q26 31 26 73q0 36 -24.5 57t-66.5 21q-51 0 -87.5 -31.5
t-42.5 -77.5zM194 40q0 31 24 54.5t56 23.5q24 0 39 -15.5t15 -38.5q0 -31 -23.5 -54t-55.5 -23q-24 0 -39.5 15t-15.5 38z" />
    <glyph glyph-name="at" unicode="@" horiz-adv-x="915" 
d="M104 182q0 98 39 189t105 158t157.5 107t192.5 40q155 0 248.5 -87.5t93.5 -219.5q2 -126 -62.5 -217.5t-154.5 -89.5q-43 0 -69.5 20.5t-30.5 54.5h-6q-22 -32 -62 -53.5t-89 -21.5q-69 0 -111 41.5t-42 110.5q0 97 65 170q64 74 156 72q78 0 107 -55h6l9 48h83
l-46 -247q-6 -31 7 -48.5t43 -17.5q47 0 82.5 66.5t35.5 154.5q0 108 -74 176t-203 68q-78 0 -151 -32.5t-127 -89.5q-54 -56 -85.5 -132t-31.5 -156q0 -119 75 -190q74 -70 209 -70h172l-14 -76h-172q-161 0 -258 91q-97 90 -97 236zM402 230q0 -42 24.5 -66.5t65.5 -24.5
q56 0 95 43q39 44 39 106q0 42 -24 66t-67 24q-55 0 -94 -44t-39 -104z" />
    <glyph glyph-name="A" unicode="A" horiz-adv-x="685" 
d="M136 0h-118l387 700h133l130 -700h-113l-27 152h-310zM446 579l-180 -330h246l-59 330h-7z" />
    <glyph glyph-name="B" unicode="B" horiz-adv-x="613" 
d="M356 0h-267l130 700h243q85 0 134 -41t49 -108q0 -57 -31 -105.5t-85 -74.5l-2 -6q36 -14 59.5 -47.5t23.5 -79.5q0 -99 -72 -168.5t-182 -69.5zM253 321l-42 -229h135q67 0 109 39t42 101q0 44 -31.5 66.5t-84.5 22.5h-128zM306 608l-37 -203h129q56 0 96 35
q40 36 40 88q0 36 -26.5 58t-70.5 22h-131z" />
    <glyph glyph-name="C" unicode="C" horiz-adv-x="805" 
d="M104 278q0 178 126 306.5t311 128.5q127 0 203 -69q76 -68 87 -180h-116q-10 68 -62 107.5t-130 39.5q-120 3 -214 -94.5t-91 -220.5q0 -93 57 -150t151 -57q82 0 148 39t99 107h118q-45 -117 -144 -182.5t-240 -65.5q-137 0 -220 81t-83 210z" />
    <glyph glyph-name="D" unicode="D" horiz-adv-x="713" 
d="M319 0h-230l130 700h222q140 0 219 -74q78 -74 78 -198q0 -187 -115.5 -307.5t-303.5 -120.5zM309 605l-95 -511h112q131 0 215.5 91t84.5 230q0 90 -54.5 140t-150.5 50h-112z" />
    <glyph glyph-name="E" unicode="E" horiz-adv-x="561" 
d="M514 0h-425l130 700h415l-18 -95h-307l-38 -203h264l-18 -94h-263l-39 -214h317z" />
    <glyph glyph-name="F" unicode="F" horiz-adv-x="550" 
d="M197 0h-108l130 700h415l-18 -95h-307l-39 -213h283l-18 -94h-283z" />
    <glyph glyph-name="G" unicode="G" horiz-adv-x="812" 
d="M104 276q0 180 126 308.5t312 128.5q123 0 201 -66t90 -171h-119q-13 63 -63.5 99t-127.5 36q-124 3 -216 -93.5t-89 -224.5q0 -91 56 -149q58 -56 154 -56t171 54q76 55 98 140h-252l17 91h372q-22 -185 -141 -285.5t-283 -100.5q-137 0 -222 80q-84 81 -84 209z" />
    <glyph glyph-name="H" unicode="H" horiz-adv-x="734" 
d="M197 0h-108l130 700h108l-55 -295h340l55 295h107l-130 -700h-107l56 305h-340z" />
    <glyph glyph-name="I" unicode="I" horiz-adv-x="286" 
d="M197 0h-108l130 700h108z" />
    <glyph glyph-name="J" unicode="J" horiz-adv-x="583" 
d="M74 200h100q-2 -18 -2 -24q0 -37 21 -59q28 -31 89 -31q67 0 105 39t49 98l71 381h-254l18 96h361l-89 -478q-19 -105 -88.5 -170t-189.5 -65q-71 0 -122 31.5t-67 90.5q-6 23 -6 48q0 23 4 43z" />
    <glyph glyph-name="K" unicode="K" horiz-adv-x="636" 
d="M197 0h-108l130 700h108l-61 -323h6l328 323h137l-299 -289l113 -271q18 -45 58 -45h30l-17 -95h-50q-77 0 -111 79l-107 251l-117 -113z" />
    <glyph glyph-name="L" unicode="L" horiz-adv-x="534" 
d="M489 0h-400l130 700h108l-112 -604h292z" />
    <glyph glyph-name="M" unicode="M" horiz-adv-x="900" 
d="M193 0h-104l130 700h120l135 -564h6l329 564h132l-130 -700h-104l89 479h-6l-281 -479h-104l-116 484h-6z" />
    <glyph glyph-name="N" unicode="N" horiz-adv-x="737" 
d="M195 0h-106l130 700h108l243 -518h6l96 518h105l-130 -700h-108l-242 518h-6z" />
    <glyph glyph-name="O" unicode="O" horiz-adv-x="824" 
d="M104 277q0 117 58 217.5t159.5 159.5t222.5 59q136 1 221.5 -82t83.5 -210q0 -87 -33.5 -167t-93.5 -140q-59 -59 -141.5 -93t-171.5 -34q-137 0 -222 80q-83 81 -83 210zM218 295q0 -92 57 -149q59 -57 154 -57q121 -4 215.5 93t91.5 222q0 91 -58 149q-57 58 -153 58
q-124 0 -215.5 -94t-91.5 -222z" />
    <glyph glyph-name="P" unicode="P" horiz-adv-x="607" 
d="M197 0h-108l130 700h254q86 0 138 -49q54 -50 54 -127q0 -115 -77.5 -189t-190.5 -74h-152zM309 607l-46 -253h140q63 0 107 44q44 46 44 111q0 45 -28.5 71.5t-76.5 26.5h-140z" />
    <glyph glyph-name="Q" unicode="Q" horiz-adv-x="824" 
d="M104 277q0 117 58 217.5t159.5 159.5t222.5 59q136 1 221.5 -82t83.5 -210q0 -90 -35.5 -172t-99.5 -142q19 -14 47 -14h47l-17 -93h-51q-65 0 -103 49q-104 -62 -228 -62q-137 0 -222 80q-83 81 -83 210zM218 295q0 -92 57 -149q59 -57 154 -57q81 0 151 42l-120 177
h116l77 -117q83 94 83 213q0 91 -58 149q-57 58 -153 58q-124 0 -215.5 -94t-91.5 -222z" />
    <glyph glyph-name="R" unicode="R" horiz-adv-x="634" 
d="M197 0h-108l130 700h250q91 0 145 -50.5t54 -132.5q0 -84 -49 -146t-131 -89l51 -145q9 -24 21.5 -33t33.5 -9h35l-17 -95h-58q-83 0 -107 79l-62 187h-139zM309 607l-45 -247h137q67 0 111 41t44 109q0 43 -30 70t-83 27h-134z" />
    <glyph glyph-name="S" unicode="S" horiz-adv-x="595" 
d="M79 215h105q-2 -18 -2 -25q0 -43 27 -70q34 -34 107 -34t117.5 33.5t44.5 90.5q0 37 -33.5 59.5t-81.5 35t-96 29t-81.5 54t-33.5 97.5q0 103 77 165q77 63 197 63q76 0 133 -33.5t70 -98.5q7 -32 0 -78h-109q2 18 2 25q0 36 -21 58q-28 30 -92 30q-63 0 -104.5 -32.5
t-41.5 -82.5q0 -35 34 -56t82 -33.5t96.5 -29t82.5 -54.5t34 -97q0 -114 -79.5 -179t-215.5 -65q-114 0 -175 64q-47 50 -47 119q0 24 4 45z" />
    <glyph glyph-name="T" unicode="T" horiz-adv-x="581" 
d="M349 604h-208l18 96h523l-18 -96h-208l-112 -604h-107z" />
    <glyph glyph-name="U" unicode="U" horiz-adv-x="699" 
d="M128 256l82 444h108l-82 -443q-5 -28 -5 -46q0 -47 23 -79q33 -45 112 -45q78 0 128.5 45t65.5 126l82 442h107l-82 -443q-24 -130 -104 -200t-211 -70q-123 0 -185 74q-45 55 -45 134q0 29 6 61z" />
    <glyph glyph-name="V" unicode="V" horiz-adv-x="675" 
d="M276 0l-128 700h116l92 -568h6l305 568h121l-393 -700h-119z" />
    <glyph glyph-name="W" unicode="W" horiz-adv-x="951" 
d="M198 0l-50 700h114l27 -551h7l241 551h134l37 -551h7l231 551h118l-310 -700h-133l-40 551h-6l-245 -551h-132z" />
    <glyph glyph-name="X" unicode="X" horiz-adv-x="618" 
d="M138 0h-128l295 356l-153 344h119l112 -258h6l208 258h127l-282 -344l162 -356h-121l-120 272h-6z" />
    <glyph glyph-name="Y" unicode="Y" horiz-adv-x="644" 
d="M319 270l-171 430h114l123 -321h7l241 321h124l-330 -430l-50 -270h-108z" />
    <glyph glyph-name="Z" unicode="Z" horiz-adv-x="621" 
d="M573 0h-525l18 100l478 499l2 7h-373l17 94h511l-18 -100l-479 -499l-1 -7h388z" />
    <glyph glyph-name="bracketleft" unicode="[" horiz-adv-x="425" 
d="M285 -145h-227l168 908h227l-16 -88h-124l-136 -732h125z" />
    <glyph glyph-name="backslash" unicode="\" horiz-adv-x="499" 
d="M335 -108l-145 858h96l145 -858h-96z" />
    <glyph glyph-name="bracketright" unicode="]" horiz-adv-x="425" 
d="M304 -145h-227l17 88h124l136 732h-125l16 88h228z" />
    <glyph glyph-name="asciicircum" unicode="^" horiz-adv-x="587" 
d="M220 311h-96l252 389h95l107 -389h-91l-78 293h-6z" />
    <glyph glyph-name="underscore" unicode="_" horiz-adv-x="664" 
d="M581 -115h-541l16 86h541z" />
    <glyph glyph-name="grave" unicode="`" horiz-adv-x="263" 
d="M250 608l-67 139h115l30 -139h-78z" />
    <glyph glyph-name="a" unicode="a" horiz-adv-x="676" 
d="M88 199q-3 137 90 238.5t216 98.5q35 0 64 -9.5t47 -25t28 -28.5t16 -26h7l14 76h103l-72 -390q-1 -5 -1 -11q0 -14 6 -21q8 -11 27 -11h24l-17 -90h-57q-41 0 -62 21q-20 18 -20 47q0 5 1 7v5h-6q-18 -22 -45 -43q-63 -50 -151 -50q-98 0 -155 57.5t-57 154.5zM197 218
q0 -63 36 -99.5t98 -36.5q83 -2 141.5 65t56.5 157q0 63 -36.5 99.5t-97.5 36.5q-81 0 -140 -66q-58 -64 -58 -156z" />
    <glyph glyph-name="b" unicode="b" horiz-adv-x="659" 
d="M184 0h-102l139 750h105l-56 -303h6q16 18 37 35.5t63.5 35.5t87.5 18q93 0 148.5 -58t55.5 -154q3 -138 -88 -238.5t-221 -98.5q-105 0 -155 87h-6zM228 220q0 -62 35 -100t97 -38q82 0 140 64q59 65 59 156q0 63 -36 100.5t-96 37.5q-83 0 -141 -64t-58 -156z" />
    <glyph glyph-name="c" unicode="c" horiz-adv-x="624" 
d="M88 209q-3 135 94 232t233 95q95 0 156 -54q61 -52 61 -142h-108q-5 45 -39.5 72.5t-85.5 27.5q-82 2 -142.5 -64.5t-58.5 -153.5q0 -63 36.5 -101.5t99.5 -38.5q53 0 98 27.5t63 71.5h108q-27 -90 -104.5 -142t-183.5 -52q-104 0 -166 62q-61 62 -61 160z" />
    <glyph glyph-name="d" unicode="d" horiz-adv-x="680" 
d="M88 199q0 138 90.5 237.5t215.5 99.5q35 0 64 -9.5t47 -25t28 -28.5t16 -26h7l56 303h105l-114 -616q-1 -5 -1 -13q0 -12 4 -19q8 -11 28 -11h24l-17 -91h-58q-41 0 -64 20q-19 18 -19 46v7l1 6h-7q-77 -92 -194 -92q-98 0 -155 57.5t-57 154.5zM197 218q0 -63 36 -99.5
t98 -36.5q83 -2 141.5 65t56.5 157q0 63 -36.5 99.5t-97.5 36.5q-81 0 -140 -66q-58 -64 -58 -156z" />
    <glyph glyph-name="e" unicode="e" horiz-adv-x="610" 
d="M88 206q-3 137 87 234t227 96q79 0 133 -35t73 -97q11 -36 11 -74q0 -30 -6 -63l-7 -39h-411q-1 -8 -1 -23q-1 -54 28 -90q34 -42 104 -42q50 0 93 23t65 62h103q-29 -79 -104 -124q-77 -47 -175 -47q-103 0 -161 61q-59 62 -59 158zM212 309h304q1 5 1 14q0 56 -31 88
q-34 37 -96 37t-112 -38.5t-66 -100.5z" />
    <glyph glyph-name="f" unicode="f" horiz-adv-x="416" 
d="M186 -230h-105l123 667h-94l16 86h95l10 52q16 82 73.5 128.5t144.5 46.5h59l-17 -89h-51q-43 0 -71 -24.5t-35 -64.5l-10 -49h145l-15 -86h-145z" />
    <glyph glyph-name="g" unicode="g" horiz-adv-x="648" 
d="M69 -70h97q1 -40 33.5 -62.5t87.5 -22.5q78 0 126 40.5t61 116.5l14 75h-7q-20 -22 -43 -40q-61 -48 -141 -48q-96 0 -153 57q-56 59 -56 153q0 138 90 237.5t215 99.5q65 0 103 -29t52 -60h7l14 76h104l-96 -521q-21 -117 -98 -181t-207 -64q-102 0 -154 49
q-50 47 -50 114q0 7 1 10zM196 219q0 -63 36 -99t98 -36q80 0 138.5 65.5t58.5 156.5q0 62 -36 98t-97 36q-80 0 -139 -66t-59 -155z" />
    <glyph glyph-name="h" unicode="h" horiz-adv-x="609" 
d="M187 0h-105l139 750h104l-55 -297h7q25 37 70.5 60t98.5 23q57 0 98 -26q39 -29 54 -73q8 -27 8 -55q0 -25 -4 -46l-62 -336h-105l59 317q3 13 3 27q0 37 -21 61q-30 33 -79 34q-55 0 -98 -37q-44 -36 -54 -91z" />
    <glyph glyph-name="i" unicode="i" horiz-adv-x="295" 
d="M106 120l74 403h105l-73 -388q-1 -4 -1 -11q0 -14 6 -21q9 -12 27 -12h24l-17 -91h-48q-56 0 -82 32q-18 22 -18 57q0 15 3 31zM191 658q0 33 24.5 56.5t58.5 23.5q26 0 42 -15t16 -38q0 -33 -24.5 -56.5t-58.5 -23.5q-26 0 -42 14.5t-16 38.5z" />
    <glyph glyph-name="j" unicode="j" horiz-adv-x="319" 
d="M9 -230h-48l17 94h38q43 0 70.5 24t34.5 65l106 570h105l-106 -571q-16 -87 -73.5 -134.5t-143.5 -47.5zM237 658q0 33 24.5 56.5t58.5 23.5q26 0 42 -14.5t16 -38.5q0 -33 -24.5 -56.5t-59.5 -23.5q-26 0 -41.5 14.5t-15.5 38.5z" />
    <glyph glyph-name="k" unicode="k" horiz-adv-x="552" 
d="M187 0h-105l139 750h105l-84 -450h6l236 223h135l-220 -204l68 -183q18 -46 57 -46h30l-17 -90h-46q-79 0 -108 79l-63 167l-104 -96z" />
    <glyph glyph-name="l" unicode="l" horiz-adv-x="291" 
d="M105 130l115 620h105l-114 -614q-1 -4 -1 -11q0 -12 6 -21q9 -11 27 -11h22l-16 -93h-44q-60 0 -85 34q-18 24 -18 62q0 14 3 34z" />
    <glyph glyph-name="m" unicode="m" horiz-adv-x="927" 
d="M187 0h-105l96 523h103l-14 -69h7q60 82 163 82q110 0 144 -88h7q66 88 177 88q85 0 129 -54q29 -38 31 -95q0 -19 -5 -44l-63 -343h-105l58 309q4 19 4 38q0 36 -16 58q-22 34 -75 34q-52 0 -92 -36t-52 -97l-56 -306h-105l59 320q3 15 3 28q0 36 -19 58q-26 32 -75 32
q-50 2 -91 -36q-41 -36 -51 -93z" />
    <glyph glyph-name="n" unicode="n" horiz-adv-x="605" 
d="M187 0h-105l96 523h103l-14 -70h7q25 37 70.5 60t98.5 23q87 0 129 -57q31 -40 31 -97q0 -19 -5 -46l-62 -336h-105l59 317q3 15 3 28q0 35 -20 60q-28 32 -78 34q-54 0 -98 -38q-43 -37 -54 -95z" />
    <glyph glyph-name="o" unicode="o" horiz-adv-x="642" 
d="M88 207q-3 133 94.5 232.5t234.5 96.5q104 0 169 -62t65 -158q0 -136 -94.5 -232.5t-233.5 -96.5q-106 0 -170 61q-65 62 -65 159zM197 223q0 -64 37.5 -102.5t101.5 -38.5q85 0 145 63q61 62 61 154q0 63 -38 102t-101 39q-86 0 -146 -63t-60 -154z" />
    <glyph glyph-name="p" unicode="p" horiz-adv-x="660" 
d="M144 -230h-105l140 753h102l-13 -75h7q50 56 115 78q30 10 66 10h3q96 0 153 -59t57 -151q3 -138 -87 -239.5t-217 -99.5q-66 0 -105.5 29t-51.5 60h-7zM228 218q0 -63 36.5 -99.5t97.5 -36.5q80 0 139 65q59 67 59 158q0 63 -36 99.5t-98 36.5q-79 2 -139.5 -66
t-58.5 -157z" />
    <glyph glyph-name="q" unicode="q" horiz-adv-x="649" 
d="M88 199q-3 138 88.5 238.5t222.5 98.5q36 0 65 -10t46.5 -26t26.5 -28t14 -24h7l14 75h102l-139 -753h-105l56 306h-6q-17 -22 -64 -54q-52 -35 -124 -35q-94 0 -149 58t-55 154zM197 221q0 -63 35.5 -101t95.5 -38q82 0 141 65t59 156q0 62 -35.5 100t-96.5 38
q-82 0 -141 -65q-58 -64 -58 -155z" />
    <glyph glyph-name="r" unicode="r" horiz-adv-x="415" 
d="M187 0h-105l96 523h102l-17 -91h6q23 39 66 65.5t92 26.5h46l-19 -102h-49q-65 0 -111 -45.5t-59 -118.5z" />
    <glyph glyph-name="s" unicode="s" horiz-adv-x="530" 
d="M80 155h99v-6q1 -37 24 -57q26 -20 75 -20q55 0 89 24t34 66q0 28 -27.5 43t-66.5 21.5t-78.5 16t-67 37.5t-27.5 75q0 79 62 130t165 51q83 0 129 -42q40 -36 40 -94q0 -14 -1 -21h-96v4q0 31 -21 51q-22 19 -68 19q-47 0 -78.5 -22.5t-31.5 -55.5q0 -25 28 -38.5
t68 -20t80 -16.5t68 -38.5t28 -77.5q0 -91 -63.5 -144t-179.5 -53q-97 0 -144 45q-40 37 -40 99q0 16 1 24z" />
    <glyph glyph-name="t" unicode="t" horiz-adv-x="435" 
d="M214 437h-94l16 85h60q38 0 46 38l21 111h99l-28 -148h153l-16 -86h-152l-50 -268q-2 -18 -2 -23q0 -57 64 -57h70l-16 -89h-89q-78 0 -112 42q-25 28 -25 79q0 24 4 45z" />
    <glyph glyph-name="u" unicode="u" 
d="M109 187l62 336h105l-59 -319q-3 -16 -3 -31q0 -36 19 -59q29 -32 79 -32q53 0 97 38q43 37 54 95l57 308h105l-97 -523h-102l13 70h-7q-55 -83 -168 -83q-87 0 -129 57q-31 40 -31 97q0 19 5 46z" />
    <glyph glyph-name="v" unicode="v" horiz-adv-x="562" 
d="M224 0l-102 523h108l68 -396h7l213 396h116l-296 -523h-114z" />
    <glyph glyph-name="w" unicode="w" horiz-adv-x="867" 
d="M182 0l-58 523h111l32 -399h7l199 399h112l50 -399h7l182 399h112l-252 -523h-126l-50 388h-6l-195 -388h-125z" />
    <glyph glyph-name="x" unicode="x" horiz-adv-x="547" 
d="M146 0h-126l236 272l-124 251h113l83 -181h6l150 181h124l-217 -254l135 -269h-114l-94 194h-9z" />
    <glyph glyph-name="y" unicode="y" 
d="M49 -70h95v-4q0 -36 26 -59q28 -22 83 -22q76 0 117.5 39t56.5 118l12 70h-6q-24 -36 -69.5 -59.5t-98.5 -23.5q-88 0 -130 57q-31 40 -31 99q0 18 5 45l62 333h105l-59 -316q-3 -13 -3 -27q0 -35 20 -61q28 -34 78 -34q53 0 97 38q43 37 54 94l57 306h105l-96 -521
q-47 -245 -291 -245q-100 0 -148 49q-42 44 -42 106q0 12 1 18z" />
    <glyph glyph-name="z" unicode="z" horiz-adv-x="520" 
d="M464 0h-409l17 91l333 337l1 7h-261l16 88h395l-16 -88l-333 -339l-2 -7h276z" />
    <glyph glyph-name="braceleft" unicode="{" horiz-adv-x="500" 
d="M167 265h-32l16 88h32q43 0 51 45l39 211q28 154 195 154h61l-17 -88h-53q-74 0 -85 -74l-39 -209q-14 -71 -64 -80l-1 -6q47 -11 34 -80l-38 -209q-7 -39 7 -56.5t51 -17.5h53l-17 -88h-61q-79 0 -116 39t-22 115l39 211q8 45 -33 45z" />
    <glyph glyph-name="bar" unicode="|" horiz-adv-x="322" 
d="M173 -206h-101l183 989h101z" />
    <glyph glyph-name="braceright" unicode="}" horiz-adv-x="500" 
d="M147 -145h-61l16 88h53q73 0 85 74l39 209q14 71 64 80l1 6q-48 11 -35 80l39 209q7 39 -6 56.5t-52 17.5h-52l16 88h61q80 0 116 -38.5t21 -115.5l-39 -211q-4 -21 5.5 -33t29.5 -12h31l-16 -88h-32q-43 0 -51 -45l-39 -211q-28 -154 -194 -154z" />
    <glyph glyph-name="asciitilde" unicode="~" horiz-adv-x="521" 
d="M154 229h-77q12 68 54 109.5t103 41.5q48 0 96 -32t79 -32q27 0 46.5 17.5t24.5 45.5h78q-10 -66 -53 -108t-104 -42q-45 0 -91 32q-42 32 -84 32q-27 0 -46.5 -18t-25.5 -46z" />
    <glyph glyph-name="uni00A0" unicode="&#xa0;" horiz-adv-x="272" 
 />
    <glyph glyph-name="exclamdown" unicode="&#xa1;" horiz-adv-x="309" 
d="M181 -153h-109l50 271l68 242h63l-22 -242zM179 483q0 30 24 53.5t55 23.5q25 0 40.5 -15t15.5 -38q0 -31 -24 -54.5t-56 -23.5q-24 0 -39.5 15t-15.5 39z" />
    <glyph glyph-name="cent" unicode="&#xa2;" horiz-adv-x="624" 
d="M88 295q0 128 83 220t209 104l16 82h82l-17 -83q78 -12 124.5 -63.5t46.5 -128.5h-108q-5 45 -39.5 72.5t-85.5 27.5q-83 0 -142 -65t-59 -153q0 -63 36.5 -101.5t99.5 -38.5q54 0 98.5 27t62.5 71h108q-24 -79 -88 -129t-154 -61l-14 -76h-82l14 76q-88 10 -139.5 70
t-51.5 149z" />
    <glyph glyph-name="sterling" unicode="&#xa3;" horiz-adv-x="628" 
d="M557 0h-492l18 99h65l38 203h-56l17 88h56l20 112q19 98 87 154.5t167 56.5q94 0 141.5 -56.5t36.5 -130.5h-105q4 37 -20.5 61.5t-67.5 24.5q-51 0 -86.5 -30.5t-46.5 -84.5l-19 -107h167l-17 -88h-167l-38 -203h320z" />
    <glyph glyph-name="yen" unicode="&#xa5;" horiz-adv-x="644" 
d="M290 115h-162l15 80h162l13 72h-162l15 81h117l-140 352h114l124 -321h6l242 321h123l-270 -352h118l-15 -81h-164l-13 -72h164l-16 -80h-163l-21 -115h-108z" />
    <glyph glyph-name="section" unicode="&#xa7;" horiz-adv-x="536" 
d="M54 -29h100q-7 -34 13.5 -62t72.5 -28q50 0 81 27.5t31 69.5q0 47 -55 81l-107 69q-85 55 -85 132q0 52 31 92.5t84 61.5v7q-46 46 -46 110q0 89 63 145q65 57 168 57q86 0 138 -49t36 -134h-101q6 34 -14 61.5t-72 28.5q-49 0 -80 -27.5t-31 -69.5q0 -45 55 -81l106 -69
q85 -55 85 -131q0 -53 -30.5 -94t-84.5 -61v-7q46 -46 46 -110q0 -90 -64 -145q-63 -57 -167 -57q-86 0 -137.5 49t-35.5 134zM206 275q0 -39 50 -70l78 -48q37 1 64.5 26.5t27.5 61.5q0 40 -50 72l-78 47q-39 -1 -65.5 -27t-26.5 -62z" />
    <glyph glyph-name="dieresis" unicode="&#xa8;" horiz-adv-x="382" 
d="M165 663q0 28 22 50.5t51 22.5q24 0 38 -14t14 -35q0 -30 -22 -51.5t-52 -21.5q-23 0 -37 14t-14 35zM343 662q0 30 21.5 52t52.5 22q22 0 36.5 -14.5t14.5 -35.5q0 -28 -22.5 -50t-51.5 -22q-24 0 -37.5 13.5t-13.5 34.5z" />
    <glyph glyph-name="copyright" unicode="&#xa9;" horiz-adv-x="819" 
d="M104 280q0 114 57.5 213.5t158.5 159.5t219 60q139 0 222.5 -83t83.5 -214q0 -177 -127 -303.5t-311 -126.5q-136 0 -219.5 82.5t-83.5 211.5zM180 287q0 -101 65 -168q67 -65 174 -65q143 0 246.5 106t103.5 251q0 101 -66 167q-64 66 -176 66q-139 0 -243 -107
t-104 -250zM283 312q-2 92 67 161t163 68q66 0 106.5 -36.5t43.5 -98.5h-76q-5 30 -27.5 47t-58.5 17q-59 0 -100 -44q-40 -43 -40 -107q0 -43 25.5 -68t70.5 -25q74 0 111 64h75q-21 -63 -76.5 -99t-124.5 -36q-72 0 -115.5 44t-43.5 113z" />
    <glyph glyph-name="ordfeminine" unicode="&#xaa;" horiz-adv-x="526" 
d="M145 459q-2 102 67.5 179.5t161.5 74.5q26 0 47.5 -7.5t34.5 -19t20.5 -21t11.5 -19.5h7l11 57h82l-55 -294q-6 -33 24 -33h19l-14 -68h-43q-57 0 -60 57l-1 4h-5q-57 -67 -150 -70q-72 0 -115 44t-43 116zM230 474q0 -46 27 -73t72 -27q60 0 102 48q43 49 43 116
q0 47 -26 73.5t-71 26.5q-61 0 -104 -49q-43 -47 -43 -115z" />
    <glyph glyph-name="guillemotleft" unicode="&#xab;" horiz-adv-x="530" 
d="M282 101l-168 162l10 58l229 162l-23 -109l-120 -86l-1 -6l89 -86zM484 101l-169 162l11 58l229 162l-23 -109l-120 -86l-1 -6l89 -86z" />
    <glyph glyph-name="uni00AD" unicode="&#xad;" horiz-adv-x="391" 
d="M376 256h-266l18 93h265z" />
    <glyph glyph-name="registered" unicode="&#xae;" horiz-adv-x="523" 
d="M143 492q0 108 73 181q74 74 182 74q83 0 132 -46t49 -121q0 -106 -75 -181q-74 -74 -183 -74q-81 0 -129.5 46t-48.5 121zM198 501q0 -58 35.5 -92t97.5 -34q83 0 138 57q56 58 56 141q0 58 -35.5 91t-100.5 33q-81 0 -136 -57q-55 -56 -55 -139zM316 426h-52l40 219h89
q30 0 48.5 -17.5t18.5 -42.5q0 -23 -13.5 -45.5t-32.5 -29.5l25 -84h-54l-19 73h-36zM348 600l-10 -56h33q13 0 23 10t10 24q0 22 -23 22h-33z" />
    <glyph glyph-name="overscore" unicode="&#xaf;" horiz-adv-x="350" 
d="M420 629h-255l15 82h255z" />
    <glyph glyph-name="degree" unicode="&#xb0;" horiz-adv-x="410" 
d="M160 538q0 72 51 123q51 52 127 52q56 0 90 -32.5t34 -84.5q0 -72 -52 -123q-51 -51 -127 -51q-56 0 -89.5 32t-33.5 84zM235 551q0 -27 16 -43t45 -16q37 0 63.5 27t26.5 65q0 27 -16 43.5t-45 16.5q-36 0 -63 -28t-27 -65z" />
    <glyph glyph-name="uni00B2" unicode="&#xb2;" horiz-adv-x="377" 
d="M377 300h-263l12 64q7 41 29 68t69 54l77 42q50 29 50 69q0 19 -13.5 30.5t-36.5 11.5q-27 0 -45.5 -16t-22.5 -39h-69q6 54 46 89t102 35q53 0 84.5 -28t31.5 -70q0 -87 -91 -135l-86 -46q-21 -11 -31.5 -22.5t-16.5 -32.5l-1 -7h187z" />
    <glyph glyph-name="uni00B3" unicode="&#xb3;" horiz-adv-x="383" 
d="M132 416h71q-2 -24 11.5 -39t38.5 -15q32 0 54 20t22 50q0 21 -15 34t-40 13h-53l10 58l107 92v4h-151l13 67h246l-12 -64l-114 -96l-1 -3q38 -2 63 -29t25 -66q0 -64 -45 -107q-43 -43 -118 -43q-58 0 -90 38q-31 37 -22 86z" />
    <glyph glyph-name="acute" unicode="&#xb4;" horiz-adv-x="263" 
d="M237 608h-77l79 139h115z" />
    <glyph glyph-name="paragraph" unicode="&#xb6;" horiz-adv-x="576" 
d="M146 432q-2 104 80.5 187.5t190.5 80.5h225l-138 -745h-81l123 662h-60l-123 -662h-80l54 291q-85 2 -138 54q-53 53 -53 132z" />
    <glyph glyph-name="middot" unicode="&#xb7;" horiz-adv-x="273" 
d="M127 302q0 30 24 54t55 24q25 0 40.5 -15t15.5 -39q0 -31 -24 -54.5t-56 -23.5q-24 0 -39.5 15.5t-15.5 38.5z" />
    <glyph glyph-name="cedilla" unicode="&#xb8;" horiz-adv-x="264" 
d="M20 -130h58q0 -10 7.5 -16t18.5 -6q15 0 26.5 11.5t11.5 26.5q0 25 -28 25q-19 0 -28 -15h-57l45 124h61l-31 -72h6q12 9 31 9q28 0 45 -17.5t17 -44.5q0 -42 -30.5 -71t-75.5 -29q-36 0 -59 21t-18 54z" />
    <glyph glyph-name="uni00B9" unicode="&#xb9;" horiz-adv-x="288" 
d="M265 582h-101l9 54q67 0 90 13.5t30 50.5h69l-73 -400h-76z" />
    <glyph glyph-name="ordmasculine" unicode="&#xba;" horiz-adv-x="529" 
d="M146 463q0 101 75 175.5t177 74.5q78 0 125.5 -46t47.5 -119q2 -98 -75 -174.5t-175 -74.5q-80 0 -127.5 45.5t-47.5 118.5zM231 477q0 -46 28 -74.5t76 -28.5q61 0 106 47q45 48 45 113q0 46 -28 74.5t-75 28.5q-62 0 -107 -48q-45 -47 -45 -112z" />
    <glyph glyph-name="guillemotright" unicode="&#xbb;" horiz-adv-x="538" 
d="M312 263l-228 -162l22 109l120 86l1 6l-89 86l16 95l169 -162zM514 263l-229 -162l23 109l120 86l1 6l-89 86l16 95l169 -162z" />
    <glyph glyph-name="onequarter" unicode="&#xbc;" horiz-adv-x="859" 
d="M265 582h-102l10 54q67 0 90 13.5t30 50.5h69l-74 -400h-75zM258 -41h-90l535 782h91zM693 77h-182l11 61l163 262h79l-157 -252l-1 -4h100l18 98h76l-19 -98h49l-12 -67h-49l-15 -77h-75z" />
    <glyph glyph-name="onehalf" unicode="&#xbd;" horiz-adv-x="880" 
d="M265 582h-102l10 54q67 0 90 13.5t30 50.5h69l-74 -400h-75zM258 -41h-90l535 782h91zM825 0h-264l12 64q9 42 31 69.5t68 51.5l76 42q50 29 50 69q0 18 -13.5 30t-36.5 12q-26 0 -44.5 -15.5t-22.5 -38.5h-70q7 54 46.5 88.5t101.5 34.5q54 0 85.5 -27.5t31.5 -70.5
q0 -85 -91 -134l-86 -47q-16 -10 -23 -15t-14 -14.5t-11 -24.5l-2 -8h188z" />
    <glyph glyph-name="threequarters" unicode="&#xbe;" horiz-adv-x="876" 
d="M132 416h71q-2 -24 11.5 -39t38.5 -15q33 0 54.5 19.5t21.5 50.5q0 21 -15 34t-40 13h-53l10 58l107 92v4h-151l13 67h246l-12 -64l-114 -96l-1 -3q38 -2 63 -29t25 -66q0 -64 -45 -107q-43 -43 -118 -43q-58 0 -90 38q-31 37 -22 86zM295 -41h-89l535 782h89zM711 77
h-183l11 61l163 262h79l-157 -252l-1 -4h100l19 98h75l-19 -98h49l-12 -67h-49l-14 -77h-76z" />
    <glyph glyph-name="questiondown" unicode="&#xbf;" horiz-adv-x="548" 
d="M65 -6q0 53 30 104q13 21 31 39q37 34 68 54l61 43q43 32 50 71l8 48h99l-10 -53q-9 -44 -29 -72.5t-62 -58.5l-65 -47q-29 -22 -48 -44q-25 -30 -25 -72q0 -36 24.5 -57t66.5 -21q51 0 87.5 31.5t42.5 77.5h97q-13 -85 -76 -144t-167 -59q-84 0 -133 46q-50 47 -50 114z
M321 483q0 31 23.5 54t55.5 23q24 0 39.5 -15t15.5 -38q0 -31 -24 -54.5t-56 -23.5q-24 0 -39 15t-15 39z" />
    <glyph glyph-name="Agrave" unicode="&#xc0;" horiz-adv-x="685" 
d="M136 0h-118l387 700h133l130 -700h-113l-27 152h-310zM446 579l-180 -330h246l-59 330h-7zM467 787l-67 139h115l30 -139h-78z" />
    <glyph glyph-name="Aacute" unicode="&#xc1;" horiz-adv-x="685" 
d="M136 0h-118l387 700h133l130 -700h-113l-27 152h-310zM446 579l-180 -330h246l-59 330h-7zM521 787h-77l79 139h115z" />
    <glyph glyph-name="Acircumflex" unicode="&#xc2;" horiz-adv-x="685" 
d="M136 0h-118l387 700h133l130 -700h-113l-27 152h-310zM446 579l-180 -330h246l-59 330h-7zM435 787h-90l123 137h100l72 -137h-79l-50 58h-7z" />
    <glyph glyph-name="Atilde" unicode="&#xc3;" horiz-adv-x="685" 
d="M136 0h-118l387 700h133l130 -700h-113l-27 152h-310zM446 579l-180 -330h246l-59 330h-7zM395 789h-72q9 61 40.5 94t78.5 33q33 0 69 -25t53 -25q16 0 29.5 14.5t16.5 35.5h70q-8 -60 -39.5 -94t-77.5 -34q-33 0 -68 25t-54 25q-18 0 -31 -13t-15 -36z" />
    <glyph glyph-name="Adieresis" unicode="&#xc4;" horiz-adv-x="685" 
d="M136 0h-118l387 700h133l130 -700h-113l-27 152h-310zM446 579l-180 -330h246l-59 330h-7zM351 842q0 29 22.5 51t50.5 22q24 0 38 -13.5t14 -35.5q0 -30 -22 -51.5t-52 -21.5q-23 0 -37 13.5t-14 35.5zM529 841q0 30 21.5 52t52.5 22q22 0 36.5 -14.5t14.5 -35.5
q0 -28 -22.5 -50t-51.5 -22q-24 0 -37.5 13t-13.5 35z" />
    <glyph glyph-name="Aring" unicode="&#xc5;" horiz-adv-x="685" 
d="M136 0h-118l387 700h133l130 -700h-113l-27 152h-310zM446 579l-180 -330h246l-59 330h-7zM406 834q0 45 33 77.5t81 32.5q38 0 60.5 -20t22.5 -53q0 -49 -31.5 -80.5t-84.5 -31.5q-36 0 -58.5 21t-22.5 54zM465 842q0 -30 32 -30q20 0 33.5 14t13.5 35q0 29 -34 29
q-19 0 -32 -14t-13 -34z" />
    <glyph glyph-name="AE" unicode="&#xc6;" horiz-adv-x="909" 
d="M131 0h-113l491 700h473l-18 -95h-307l-38 -203h256l-18 -94h-255l-39 -214h317l-18 -94h-425l29 152h-229zM540 594l-238 -345h181l64 345h-7z" />
    <glyph glyph-name="Ccedilla" unicode="&#xc7;" horiz-adv-x="794" 
d="M104 278q0 178 126 306.5t311 128.5q127 0 203 -69q76 -68 87 -180h-116q-10 68 -62 107.5t-130 39.5q-120 3 -214 -94.5t-91 -220.5q0 -93 57 -150t151 -57q82 0 148 39t99 107h118q-45 -116 -142.5 -181.5t-236.5 -66.5l-17 -39h6q12 9 32 9q27 0 44 -17.5t17 -44.5
q0 -42 -32 -71t-78 -29q-36 0 -57.5 21t-15.5 54h58q0 -10 7.5 -16t18.5 -6q15 0 26.5 11.5t11.5 26.5q0 11 -8 18t-20 7q-19 0 -28 -15l-57 1l34 93q-116 17 -183 94q-67 79 -67 194z" />
    <glyph glyph-name="Egrave" unicode="&#xc8;" horiz-adv-x="561" 
d="M514 0h-425l130 700h415l-18 -95h-307l-38 -203h264l-18 -94h-263l-39 -214h317zM427 787l-67 139h115l30 -139h-78z" />
    <glyph glyph-name="Eacute" unicode="&#xc9;" horiz-adv-x="561" 
d="M514 0h-425l130 700h415l-18 -95h-307l-38 -203h264l-18 -94h-263l-39 -214h317zM481 787h-77l79 139h115z" />
    <glyph glyph-name="Ecircumflex" unicode="&#xca;" horiz-adv-x="561" 
d="M514 0h-425l130 700h415l-18 -95h-307l-38 -203h264l-18 -94h-263l-39 -214h317zM395 787h-90l123 137h100l72 -137h-79l-50 58h-7z" />
    <glyph glyph-name="Edieresis" unicode="&#xcb;" horiz-adv-x="561" 
d="M514 0h-425l130 700h415l-18 -95h-307l-38 -203h264l-18 -94h-263l-39 -214h317zM312 842q0 29 22 51t51 22q24 0 38 -13.5t14 -35.5q0 -30 -22 -51.5t-52 -21.5q-23 0 -37 13.5t-14 35.5zM490 841q0 30 21.5 52t52.5 22q22 0 36.5 -14.5t14.5 -35.5q0 -28 -22.5 -50
t-51.5 -22q-24 0 -37.5 13t-13.5 35z" />
    <glyph glyph-name="Igrave" unicode="&#xcc;" horiz-adv-x="286" 
d="M197 0h-108l130 700h108zM266 787l-67 139h115l30 -139h-78z" />
    <glyph glyph-name="Iacute" unicode="&#xcd;" horiz-adv-x="286" 
d="M197 0h-108l130 700h108zM319 787h-77l79 139h115z" />
    <glyph glyph-name="Icircumflex" unicode="&#xce;" horiz-adv-x="286" 
d="M197 0h-108l130 700h108zM233 787h-90l123 137h100l72 -137h-79l-50 58h-7z" />
    <glyph glyph-name="Idieresis" unicode="&#xcf;" horiz-adv-x="286" 
d="M197 0h-108l130 700h108zM150 842q0 28 22 50.5t51 22.5q24 0 38 -13.5t14 -35.5q0 -30 -22 -51.5t-52 -21.5q-22 0 -36.5 13.5t-14.5 35.5zM328 841q0 30 21.5 52t52.5 22q22 0 36.5 -14.5t14.5 -35.5q0 -28 -22.5 -50t-51.5 -22q-24 0 -37.5 13t-13.5 35z" />
    <glyph glyph-name="Eth" unicode="&#xd0;" horiz-adv-x="757" 
d="M206 309h-59l15 86h60l57 305h211q139 0 216 -72t77 -196q3 -185 -119.5 -310t-303.5 -122h-211zM314 309l-40 -215h101q128 0 212 91.5t84 230.5q0 90 -53 139.5t-149 49.5h-100l-39 -210h137l-16 -86h-137z" />
    <glyph glyph-name="Ntilde" unicode="&#xd1;" horiz-adv-x="737" 
d="M195 0h-106l130 700h108l243 -518h6l96 518h105l-130 -700h-108l-242 518h-6zM430 789h-72q9 61 40.5 94t78.5 33q34 0 69.5 -25t52.5 -25q16 0 29.5 14.5t16.5 35.5h70q-8 -60 -39.5 -94t-77.5 -34q-32 0 -67.5 25t-54.5 25q-18 0 -31 -13t-15 -36z" />
    <glyph glyph-name="Ograve" unicode="&#xd2;" horiz-adv-x="824" 
d="M104 277q0 117 58 217.5t159.5 159.5t222.5 59q136 1 221.5 -82t83.5 -210q0 -87 -33.5 -167t-93.5 -140q-59 -59 -141.5 -93t-171.5 -34q-137 0 -222 80q-83 81 -83 210zM218 295q0 -92 57 -149q59 -57 154 -57q121 -4 215.5 93t91.5 222q0 91 -58 149q-57 58 -153 58
q-124 0 -215.5 -94t-91.5 -222zM532 787l-67 139h115l30 -139h-78z" />
    <glyph glyph-name="Oacute" unicode="&#xd3;" horiz-adv-x="824" 
d="M104 277q0 117 58 217.5t159.5 159.5t222.5 59q136 1 221.5 -82t83.5 -210q0 -87 -33.5 -167t-93.5 -140q-59 -59 -141.5 -93t-171.5 -34q-137 0 -222 80q-83 81 -83 210zM218 295q0 -92 57 -149q59 -57 154 -57q121 -4 215.5 93t91.5 222q0 91 -58 149q-57 58 -153 58
q-124 0 -215.5 -94t-91.5 -222zM586 787h-77l79 139h115z" />
    <glyph glyph-name="Ocircumflex" unicode="&#xd4;" horiz-adv-x="824" 
d="M104 277q0 117 58 217.5t159.5 159.5t222.5 59q136 1 221.5 -82t83.5 -210q0 -87 -33.5 -167t-93.5 -140q-59 -59 -141.5 -93t-171.5 -34q-137 0 -222 80q-83 81 -83 210zM218 295q0 -92 57 -149q59 -57 154 -57q121 -4 215.5 93t91.5 222q0 91 -58 149q-57 58 -153 58
q-124 0 -215.5 -94t-91.5 -222zM500 787h-90l123 137h100l72 -137h-79l-50 58h-7z" />
    <glyph glyph-name="Otilde" unicode="&#xd5;" horiz-adv-x="824" 
d="M104 277q0 117 58 217.5t159.5 159.5t222.5 59q136 1 221.5 -82t83.5 -210q0 -87 -33.5 -167t-93.5 -140q-59 -59 -141.5 -93t-171.5 -34q-137 0 -222 80q-83 81 -83 210zM218 295q0 -92 57 -149q59 -57 154 -57q121 -4 215.5 93t91.5 222q0 91 -58 149q-57 58 -153 58
q-124 0 -215.5 -94t-91.5 -222zM460 789h-72q9 61 40.5 94t78.5 33q33 0 69 -25t53 -25q16 0 29.5 14.5t16.5 35.5h70q-8 -60 -39.5 -94t-77.5 -34q-33 0 -68 25t-54 25q-18 0 -31 -13t-15 -36z" />
    <glyph glyph-name="Odieresis" unicode="&#xd6;" horiz-adv-x="824" 
d="M104 277q0 117 58 217.5t159.5 159.5t222.5 59q136 1 221.5 -82t83.5 -210q0 -87 -33.5 -167t-93.5 -140q-59 -59 -141.5 -93t-171.5 -34q-137 0 -222 80q-83 81 -83 210zM218 295q0 -92 57 -149q59 -57 154 -57q121 -4 215.5 93t91.5 222q0 91 -58 149q-57 58 -153 58
q-124 0 -215.5 -94t-91.5 -222zM416 842q0 29 22 51t51 22q24 0 38 -13.5t14 -35.5q0 -30 -22 -51.5t-52 -21.5q-23 0 -37 13.5t-14 35.5zM594 841q0 30 21.5 52t52.5 22q22 0 36.5 -14.5t14.5 -35.5q0 -28 -22.5 -50t-51.5 -22q-24 0 -37.5 13t-13.5 35z" />
    <glyph glyph-name="multiply" unicode="&#xd7;" horiz-adv-x="461" 
d="M80 71l-54 65l202 179l-132 176l72 57l128 -173l195 173l53 -66l-196 -175l135 -180l-70 -57l-133 177z" />
    <glyph glyph-name="Oslash" unicode="&#xd8;" horiz-adv-x="821" 
d="M187 -50h-104l103 119q-82 79 -82 208q0 116 59.5 216.5t161 160t219.5 59.5q89 0 163 -38l55 64h105l-97 -112q79 -80 79 -206q0 -85 -34.5 -165t-94.5 -140q-86 -90 -224.5 -119t-245.5 26zM218 295q0 -79 45 -135l368 427q-45 24 -106 24q-124 0 -215.5 -94
t-91.5 -222zM693 537l-367 -426q44 -22 103 -22q121 -4 215.5 93t91.5 222q0 80 -43 133z" />
    <glyph glyph-name="Ugrave" unicode="&#xd9;" horiz-adv-x="699" 
d="M128 256l82 444h108l-82 -443q-15 -80 18.5 -125t111.5 -45t128.5 45t65.5 126l82 442h107l-82 -443q-24 -130 -104 -200t-211 -70q-123 0 -185 74q-61 73 -39 195zM468 787l-67 139h115l30 -139h-78z" />
    <glyph glyph-name="Uacute" unicode="&#xda;" horiz-adv-x="699" 
d="M128 256l82 444h108l-82 -443q-15 -80 18.5 -125t111.5 -45t128.5 45t65.5 126l82 442h107l-82 -443q-24 -130 -104 -200t-211 -70q-123 0 -185 74q-61 73 -39 195zM522 787h-77l79 139h115z" />
    <glyph glyph-name="Ucircumflex" unicode="&#xdb;" horiz-adv-x="699" 
d="M128 256l82 444h108l-82 -443q-15 -80 18.5 -125t111.5 -45t128.5 45t65.5 126l82 442h107l-82 -443q-24 -130 -104 -200t-211 -70q-123 0 -185 74q-61 73 -39 195zM436 787h-90l123 137h100l72 -137h-79l-50 58h-7z" />
    <glyph glyph-name="Udieresis" unicode="&#xdc;" horiz-adv-x="699" 
d="M128 256l82 444h108l-82 -443q-15 -80 18.5 -125t111.5 -45t128.5 45t65.5 126l82 442h107l-82 -443q-24 -130 -104 -200t-211 -70q-123 0 -185 74q-61 73 -39 195zM353 842q0 29 22 51t51 22q24 0 38 -13.5t14 -35.5q0 -30 -22 -51.5t-52 -21.5q-23 0 -37 13.5t-14 35.5
zM531 841q0 30 21.5 52t52.5 22q22 0 36.5 -14.5t14.5 -35.5q0 -28 -22.5 -50t-51.5 -22q-24 0 -37.5 13t-13.5 35z" />
    <glyph glyph-name="Yacute" unicode="&#xdd;" horiz-adv-x="644" 
d="M319 270l-171 430h114l123 -321h7l241 321h124l-330 -430l-50 -270h-108zM496 787h-77l79 139h115z" />
    <glyph glyph-name="Thorn" unicode="&#xde;" horiz-adv-x="591" 
d="M197 0h-108l130 700h108l-24 -125h131q86 0 139 -49q54 -48 54 -127q0 -114 -76 -189t-188 -75h-141zM286 481l-47 -252h125q62 0 106 45q45 46 45 110q0 44 -28 70.5t-76 26.5h-125z" />
    <glyph glyph-name="germandbls" unicode="&#xdf;" horiz-adv-x="613" 
d="M144 -230h-105l141 762q20 101 89 159q71 59 167 59q94 0 146 -54q53 -53 39 -134q-8 -52 -39.5 -91.5t-75.5 -58.5l-1 -6q49 -16 78 -55.5t29 -93.5q2 -112 -82.5 -192t-203.5 -78q-43 0 -81 13l19 97q38 -12 71 -12q69 0 118 46t49 112q0 47 -35.5 74t-89.5 27h-35
l18 95h8q60 0 101 38q41 39 41 95q0 38 -24 60.5t-67 22.5q-54 0 -88.5 -32t-45.5 -90z" />
    <glyph glyph-name="agrave" unicode="&#xe0;" horiz-adv-x="676" 
d="M88 199q-3 137 90 238.5t216 98.5q35 0 64 -9.5t47 -25t28 -28.5t16 -26h7l14 76h103l-72 -390q-6 -43 32 -43h24l-17 -90h-57q-40 0 -61.5 20.5t-19.5 54.5v5h-6q-18 -22 -45 -43q-63 -50 -151 -50q-98 0 -155 57.5t-57 154.5zM197 218q0 -63 36 -99.5t98 -36.5
q83 -2 141.5 65t56.5 157q0 63 -36.5 99.5t-97.5 36.5q-81 0 -140 -66q-58 -64 -58 -156zM412 608l-67 139h115l30 -139h-78z" />
    <glyph glyph-name="aacute" unicode="&#xe1;" horiz-adv-x="676" 
d="M88 199q-3 137 90 238.5t216 98.5q35 0 64 -9.5t47 -25t28 -28.5t16 -26h7l14 76h103l-72 -390q-6 -43 32 -43h24l-17 -90h-57q-40 0 -61.5 20.5t-19.5 54.5v5h-6q-18 -22 -45 -43q-63 -50 -151 -50q-98 0 -155 57.5t-57 154.5zM197 218q0 -63 36 -99.5t98 -36.5
q83 -2 141.5 65t56.5 157q0 63 -36.5 99.5t-97.5 36.5q-81 0 -140 -66q-58 -64 -58 -156zM466 608h-77l79 139h115z" />
    <glyph glyph-name="acircumflex" unicode="&#xe2;" horiz-adv-x="676" 
d="M88 199q-3 137 90 238.5t216 98.5q35 0 64 -9.5t47 -25t28 -28.5t16 -26h7l14 76h103l-72 -390q-6 -43 32 -43h24l-17 -90h-57q-40 0 -61.5 20.5t-19.5 54.5v5h-6q-18 -22 -45 -43q-63 -50 -151 -50q-98 0 -155 57.5t-57 154.5zM197 218q0 -63 36 -99.5t98 -36.5
q83 -2 141.5 65t56.5 157q0 63 -36.5 99.5t-97.5 36.5q-81 0 -140 -66q-58 -64 -58 -156zM380 608h-90l123 137h100l72 -137h-79l-50 58h-7z" />
    <glyph glyph-name="atilde" unicode="&#xe3;" horiz-adv-x="676" 
d="M88 199q-3 137 90 238.5t216 98.5q35 0 64 -9.5t47 -25t28 -28.5t16 -26h7l14 76h103l-72 -390q-6 -43 32 -43h24l-17 -90h-57q-40 0 -61.5 20.5t-19.5 54.5v5h-6q-18 -22 -45 -43q-63 -50 -151 -50q-98 0 -155 57.5t-57 154.5zM197 218q0 -63 36 -99.5t98 -36.5
q83 -2 141.5 65t56.5 157q0 63 -36.5 99.5t-97.5 36.5q-81 0 -140 -66q-58 -64 -58 -156zM341 610h-72q9 60 41 93.5t78 33.5q34 0 69.5 -25t52.5 -25q15 0 29 14.5t17 35.5h70q-8 -60 -39.5 -94t-77.5 -34q-33 0 -68 25t-54 25q-18 0 -31 -13t-15 -36z" />
    <glyph glyph-name="adieresis" unicode="&#xe4;" horiz-adv-x="676" 
d="M88 199q-3 137 90 238.5t216 98.5q35 0 64 -9.5t47 -25t28 -28.5t16 -26h7l14 76h103l-72 -390q-6 -43 32 -43h24l-17 -90h-57q-40 0 -61.5 20.5t-19.5 54.5v5h-6q-18 -22 -45 -43q-63 -50 -151 -50q-98 0 -155 57.5t-57 154.5zM197 218q0 -63 36 -99.5t98 -36.5
q83 -2 141.5 65t56.5 157q0 63 -36.5 99.5t-97.5 36.5q-81 0 -140 -66q-58 -64 -58 -156zM297 663q0 28 22 50.5t51 22.5q24 0 38 -13.5t14 -35.5q0 -30 -22 -51.5t-52 -21.5q-22 0 -36.5 14t-14.5 35zM475 662q0 30 21.5 52t52.5 22q22 0 36.5 -14.5t14.5 -35.5
q0 -28 -22.5 -50t-51.5 -22q-24 0 -37.5 13.5t-13.5 34.5z" />
    <glyph glyph-name="aring" unicode="&#xe5;" horiz-adv-x="676" 
d="M88 199q-3 137 90 238.5t216 98.5q35 0 64 -9.5t47 -25t28 -28.5t16 -26h7l14 76h103l-72 -390q-6 -43 32 -43h24l-17 -90h-57q-40 0 -61.5 20.5t-19.5 54.5v5h-6q-18 -22 -45 -43q-63 -50 -151 -50q-98 0 -155 57.5t-57 154.5zM197 218q0 -63 36 -99.5t98 -36.5
q83 -2 141.5 65t56.5 157q0 63 -36.5 99.5t-97.5 36.5q-81 0 -140 -66q-58 -64 -58 -156zM352 655q0 45 33 77.5t81 32.5q37 0 60 -20t23 -53q0 -49 -31.5 -80.5t-84.5 -31.5q-36 0 -58.5 21t-22.5 54zM411 663q0 -30 32 -30q19 0 33 14.5t14 34.5q0 29 -34 29
q-19 0 -32 -14t-13 -34z" />
    <glyph glyph-name="ae" unicode="&#xe6;" horiz-adv-x="992" 
d="M88 130q0 81 62 129q62 49 163 49h172l5 30q8 49 -22.5 78.5t-90.5 29.5q-52 0 -86 -23.5t-43 -58.5h-100q13 73 80 123q67 49 162 49q136 0 174 -93h7q36 44 93 68.5t123 24.5q120 0 175 -76t32 -193l-7 -36h-413q-12 -72 24.5 -115t109.5 -43q52 0 95 23.5t63 61.5h103
q-34 -78 -108 -124q-74 -47 -170 -47q-69 0 -120 29.5t-71 79.5h-7q-79 -107 -225 -109q-81 -2 -131 39q-49 40 -49 104zM190 140q0 -30 26.5 -48t71.5 -18q71 0 120 41q50 41 57 96l3 19h-163q-51 0 -83 -24.5t-32 -65.5zM590 308h310q9 65 -28 103.5t-102 38.5
q-62 0 -114 -39q-51 -39 -66 -103z" />
    <glyph glyph-name="ccedilla" unicode="&#xe7;" horiz-adv-x="624" 
d="M88 209q-3 135 94 232t233 95q95 0 156 -54q61 -52 61 -142h-108q-5 45 -39.5 72.5t-85.5 27.5q-82 2 -142.5 -64.5t-58.5 -153.5q0 -63 36.5 -101.5t99.5 -38.5q53 0 98 27.5t63 71.5h108q-26 -87 -99 -138.5t-174 -55.5l-17 -39h6q12 9 32 9q27 0 44 -17.5t17 -44.5
q0 -42 -30.5 -71t-75.5 -29q-36 0 -59 21t-18 54h58q0 -10 7.5 -16t18.5 -6q15 0 26.5 11.5t11.5 26.5q0 25 -28 25q-19 0 -28 -15h-57l34 94q-86 14 -135 73t-49 146z" />
    <glyph glyph-name="egrave" unicode="&#xe8;" horiz-adv-x="610" 
d="M88 206q-3 137 87 234t227 96q120 0 176.5 -75.5t34.5 -193.5l-7 -39h-411q-7 -72 27.5 -113.5t103.5 -41.5q50 0 93 23t65 62h103q-29 -79 -104 -124q-77 -47 -175 -47q-103 0 -161 61q-59 62 -59 158zM212 309h304q5 64 -29.5 101.5t-96.5 37.5t-112 -38.5t-66 -100.5z
M392 608l-67 139h115l30 -139h-78z" />
    <glyph glyph-name="eacute" unicode="&#xe9;" horiz-adv-x="610" 
d="M88 206q-3 137 87 234t227 96q120 0 176.5 -75.5t34.5 -193.5l-7 -39h-411q-7 -72 27.5 -113.5t103.5 -41.5q50 0 93 23t65 62h103q-29 -79 -104 -124q-77 -47 -175 -47q-103 0 -161 61q-59 62 -59 158zM212 309h304q5 64 -29.5 101.5t-96.5 37.5t-112 -38.5t-66 -100.5z
M446 608h-77l79 139h115z" />
    <glyph glyph-name="ecircumflex" unicode="&#xea;" horiz-adv-x="610" 
d="M88 206q-3 137 87 234t227 96q120 0 176.5 -75.5t34.5 -193.5l-7 -39h-411q-7 -72 27.5 -113.5t103.5 -41.5q50 0 93 23t65 62h103q-29 -79 -104 -124q-77 -47 -175 -47q-103 0 -161 61q-59 62 -59 158zM212 309h304q5 64 -29.5 101.5t-96.5 37.5t-112 -38.5t-66 -100.5z
M360 608h-90l123 137h100l72 -137h-79l-50 58h-7z" />
    <glyph glyph-name="edieresis" unicode="&#xeb;" horiz-adv-x="610" 
d="M88 206q-3 137 87 234t227 96q120 0 176.5 -75.5t34.5 -193.5l-7 -39h-411q-7 -72 27.5 -113.5t103.5 -41.5q50 0 93 23t65 62h103q-29 -79 -104 -124q-77 -47 -175 -47q-103 0 -161 61q-59 62 -59 158zM212 309h304q5 64 -29.5 101.5t-96.5 37.5t-112 -38.5t-66 -100.5z
M276 663q0 28 22 50.5t51 22.5q24 0 38 -13.5t14 -35.5q0 -30 -22 -51.5t-52 -21.5q-22 0 -36.5 14t-14.5 35zM454 662q0 30 21.5 52t52.5 22q22 0 36.5 -14.5t14.5 -35.5q0 -28 -22.5 -50t-51.5 -22q-24 0 -37.5 13.5t-13.5 34.5z" />
    <glyph glyph-name="igrave" unicode="&#xec;" horiz-adv-x="295" 
d="M106 120l74 403h105l-73 -388q-4 -21 5 -32.5t27 -11.5h24l-17 -91h-48q-57 0 -82.5 32t-14.5 88zM223 608l-67 139h115l30 -139h-78z" />
    <glyph glyph-name="iacute" unicode="&#xed;" horiz-adv-x="295" 
d="M106 120l74 403h105l-73 -388q-4 -21 5 -32.5t27 -11.5h24l-17 -91h-48q-57 0 -82.5 32t-14.5 88zM277 608h-77l79 139h115z" />
    <glyph glyph-name="icircumflex" unicode="&#xee;" horiz-adv-x="295" 
d="M190 608h-90l123 137h100l72 -137h-79l-50 58h-7zM106 120l74 403h105l-73 -388q-4 -21 5 -32.5t27 -11.5h24l-17 -91h-48q-57 0 -82.5 32t-14.5 88z" />
    <glyph glyph-name="idieresis" unicode="&#xef;" horiz-adv-x="295" 
d="M106 120l74 403h105l-73 -388q-4 -21 5 -32.5t27 -11.5h24l-17 -91h-48q-57 0 -82.5 32t-14.5 88zM107 663q0 28 22 50.5t51 22.5q24 0 38 -13.5t14 -35.5q0 -30 -22 -51.5t-52 -21.5q-22 0 -36.5 14t-14.5 35zM285 662q0 30 21.5 52t52.5 22q22 0 36.5 -14.5t14.5 -35.5
q0 -28 -22.5 -50t-51.5 -22q-24 0 -37.5 13.5t-13.5 34.5z" />
    <glyph glyph-name="eth" unicode="&#xf0;" horiz-adv-x="620" 
d="M88 194q0 125 86.5 216t211.5 91q69 0 107 -34h6q-32 67 -89 115l-172 -62l12 68l110 41q-45 37 -95 64l71 43q67 -33 122 -74l148 53l-13 -69l-86 -31q123 -121 123 -275q2 -150 -92 -252.5t-233 -100.5q-101 0 -159 57q-58 58 -58 150zM196 212q0 -58 34.5 -94
t93.5 -36q77 0 136 62q58 61 58 144q0 55 -35.5 90t-92.5 35q-80 0 -137 -59q-57 -58 -57 -142z" />
    <glyph glyph-name="ntilde" unicode="&#xf1;" horiz-adv-x="605" 
d="M187 0h-105l96 523h103l-14 -70h7q25 37 70.5 60t98.5 23q87 0 129 -57q42 -58 26 -143l-62 -336h-105l59 317q10 54 -17.5 88t-77.5 34q-54 0 -98 -38q-43 -37 -54 -95zM338 610h-72q9 60 41 93.5t78 33.5q33 0 69 -25t53 -25q15 0 29 14.5t17 35.5h70q-8 -60 -39.5 -94
t-77.5 -34q-33 0 -68 25t-54 25q-18 0 -31 -13t-15 -36z" />
    <glyph glyph-name="ograve" unicode="&#xf2;" horiz-adv-x="642" 
d="M88 207q-3 133 94.5 232.5t234.5 96.5q104 0 169 -62t65 -158q0 -136 -94.5 -232.5t-233.5 -96.5q-106 0 -170 61q-65 62 -65 159zM197 223q0 -64 37.5 -102.5t101.5 -38.5q85 0 145 63q61 62 61 154q0 63 -38 102t-101 39q-86 0 -146 -63t-60 -154zM410 608l-67 139h115
l30 -139h-78z" />
    <glyph glyph-name="oacute" unicode="&#xf3;" horiz-adv-x="642" 
d="M88 207q-3 133 94.5 232.5t234.5 96.5q104 0 169 -62t65 -158q0 -136 -94.5 -232.5t-233.5 -96.5q-106 0 -170 61q-65 62 -65 159zM197 223q0 -64 37.5 -102.5t101.5 -38.5q85 0 145 63q61 62 61 154q0 63 -38 102t-101 39q-86 0 -146 -63t-60 -154zM464 608h-77l79 139
h115z" />
    <glyph glyph-name="ocircumflex" unicode="&#xf4;" horiz-adv-x="642" 
d="M88 207q-3 133 94.5 232.5t234.5 96.5q104 0 169 -62t65 -158q0 -136 -94.5 -232.5t-233.5 -96.5q-106 0 -170 61q-65 62 -65 159zM197 223q0 -64 37.5 -102.5t101.5 -38.5q85 0 145 63q61 62 61 154q0 63 -38 102t-101 39q-86 0 -146 -63t-60 -154zM377 608h-90l123 137
h100l72 -137h-79l-50 58h-7z" />
    <glyph glyph-name="otilde" unicode="&#xf5;" horiz-adv-x="642" 
d="M88 207q-3 133 94.5 232.5t234.5 96.5q104 0 169 -62t65 -158q0 -136 -94.5 -232.5t-233.5 -96.5q-106 0 -170 61q-65 62 -65 159zM197 223q0 -64 37.5 -102.5t101.5 -38.5q85 0 145 63q61 62 61 154q0 63 -38 102t-101 39q-86 0 -146 -63t-60 -154zM338 610h-72
q9 60 41 93.5t78 33.5q33 0 69 -25t53 -25q15 0 29 14.5t17 35.5h70q-8 -60 -39.5 -94t-77.5 -34q-33 0 -68 25t-54 25q-18 0 -31 -13t-15 -36z" />
    <glyph glyph-name="odieresis" unicode="&#xf6;" horiz-adv-x="642" 
d="M88 207q-3 133 94.5 232.5t234.5 96.5q104 0 169 -62t65 -158q0 -136 -94.5 -232.5t-233.5 -96.5q-106 0 -170 61q-65 62 -65 159zM197 223q0 -64 37.5 -102.5t101.5 -38.5q85 0 145 63q61 62 61 154q0 63 -38 102t-101 39q-86 0 -146 -63t-60 -154zM294 663
q0 28 22 50.5t51 22.5q24 0 38 -13.5t14 -35.5q0 -30 -22 -51.5t-52 -21.5q-22 0 -36.5 14t-14.5 35zM472 662q0 30 21.5 52t52.5 22q22 0 36.5 -14.5t14.5 -35.5q0 -28 -22.5 -50t-51.5 -22q-23 0 -37 13.5t-14 34.5z" />
    <glyph glyph-name="divide" unicode="&#xf7;" horiz-adv-x="487" 
d="M532 269h-477l16 85h477zM211 126q0 26 20.5 46.5t47.5 20.5q20 0 33.5 -13t13.5 -33q0 -26 -20.5 -46.5t-46.5 -20.5q-21 0 -34.5 13t-13.5 33zM277 478q0 26 21 46.5t47 20.5q20 0 33 -13t13 -33q0 -27 -20 -47t-47 -20q-20 0 -33.5 13t-13.5 33z" />
    <glyph glyph-name="oslash" unicode="&#xf8;" horiz-adv-x="642" 
d="M161 -54h-82l79 98q-70 61 -70 163q-3 133 94.5 232.5t234.5 96.5q65 0 117 -26l48 60h83l-78 -97q64 -61 64 -157q0 -136 -94.5 -232.5t-233.5 -96.5q-63 0 -111 22zM197 223q0 -57 30 -94l240 298q-30 13 -64 13q-86 0 -146 -63t-60 -154zM516 386l-237 -294
q23 -10 57 -10q85 0 145 63q61 62 61 154q0 52 -26 87z" />
    <glyph glyph-name="ugrave" unicode="&#xf9;" 
d="M109 187l62 336h105l-59 -319q-11 -57 15.5 -89.5t79.5 -32.5t97 38q43 37 54 95l57 308h105l-97 -523h-102l13 70h-7q-55 -83 -168 -83q-87 0 -129 57q-42 58 -26 143zM389 608l-67 139h115l30 -139h-78z" />
    <glyph glyph-name="uacute" unicode="&#xfa;" 
d="M109 187l62 336h105l-59 -319q-11 -57 15.5 -89.5t79.5 -32.5t97 38q43 37 54 95l57 308h105l-97 -523h-102l13 70h-7q-55 -83 -168 -83q-87 0 -129 57q-42 58 -26 143zM443 608h-77l79 139h115z" />
    <glyph glyph-name="ucircumflex" unicode="&#xfb;" 
d="M109 187l62 336h105l-59 -319q-11 -57 15.5 -89.5t79.5 -32.5t97 38q43 37 54 95l57 308h105l-97 -523h-102l13 70h-7q-55 -83 -168 -83q-87 0 -129 57q-42 58 -26 143zM356 608h-90l123 137h100l72 -137h-79l-50 58h-7z" />
    <glyph glyph-name="udieresis" unicode="&#xfc;" 
d="M109 187l62 336h105l-59 -319q-11 -57 15.5 -89.5t79.5 -32.5t97 38q43 37 54 95l57 308h105l-97 -523h-102l13 70h-7q-55 -83 -168 -83q-87 0 -129 57q-42 58 -26 143zM273 663q0 28 22 50.5t51 22.5q24 0 38 -13.5t14 -35.5q0 -30 -22 -51.5t-52 -21.5q-22 0 -36.5 14
t-14.5 35zM451 662q0 30 21.5 52t52.5 22q22 0 36.5 -14.5t14.5 -35.5q0 -28 -22.5 -50t-51.5 -22q-23 0 -37 13.5t-14 34.5z" />
    <glyph glyph-name="yacute" unicode="&#xfd;" 
d="M49 -70h95q-1 -40 27 -62.5t82 -22.5q76 0 117.5 39t56.5 118l12 70h-6q-24 -36 -69.5 -59.5t-98.5 -23.5q-88 0 -130 57q-42 58 -26 144l62 333h105l-59 -316q-10 -54 17 -88t78 -34q53 0 97 38q43 37 54 94l57 306h105l-96 -521q-47 -245 -291 -245q-97 0 -146.5 47.5
t-42.5 125.5zM443 608h-77l79 139h115z" />
    <glyph glyph-name="thorn" unicode="&#xfe;" horiz-adv-x="660" 
d="M145 -227h-105l181 977h104l-55 -302h7q18 23 57 52q53 36 125 36q97 0 153.5 -57t56.5 -153q3 -133 -91 -237.5t-215 -101.5q-65 0 -103 29t-52 60h-7zM228 218q0 -63 36.5 -99.5t97.5 -36.5q80 0 139 66.5t59 156.5q0 63 -36 99.5t-98 36.5q-79 2 -139.5 -66
t-58.5 -157z" />
    <glyph glyph-name="ydieresis" unicode="&#xff;" 
d="M49 -70h95q-1 -40 27 -62.5t82 -22.5q76 0 117.5 39t56.5 118l12 70h-6q-24 -36 -69.5 -59.5t-98.5 -23.5q-88 0 -130 57q-42 58 -26 144l62 333h105l-59 -316q-10 -54 17 -88t78 -34q53 0 97 38q43 37 54 94l57 306h105l-96 -521q-47 -245 -291 -245q-97 0 -146.5 47.5
t-42.5 125.5zM274 663q0 28 22 50.5t51 22.5q24 0 38 -13.5t14 -35.5q0 -30 -22 -51.5t-52 -21.5q-22 0 -36.5 14t-14.5 35zM452 662q0 30 21.5 52t52.5 22q22 0 36.5 -14.5t14.5 -35.5q0 -28 -22.5 -50t-51.5 -22q-24 0 -37.5 13.5t-13.5 34.5z" />
    <glyph glyph-name="Amacron" unicode="&#x100;" horiz-adv-x="685" 
d="M136 0h-118l387 700h133l130 -700h-113l-27 152h-310zM446 579l-180 -330h246l-59 330h-7zM626 808h-255l15 82h255z" />
    <glyph glyph-name="amacron" unicode="&#x101;" horiz-adv-x="676" 
d="M88 199q-3 137 90 238.5t216 98.5q35 0 64 -9.5t47 -25t28 -28.5t16 -26h7l14 76h103l-72 -390q-6 -43 32 -43h24l-17 -90h-57q-40 0 -61.5 20.5t-19.5 54.5v5h-6q-18 -22 -45 -43q-63 -50 -151 -50q-98 0 -155 57.5t-57 154.5zM197 218q0 -63 36 -99.5t98 -36.5
q83 -2 141.5 65t56.5 157q0 63 -36.5 99.5t-97.5 36.5q-81 0 -140 -66q-58 -64 -58 -156zM571 629h-255l15 82h255z" />
    <glyph glyph-name="Abreve" unicode="&#x102;" horiz-adv-x="685" 
d="M136 0h-118l387 700h133l130 -700h-113l-27 152h-310zM446 579l-180 -330h246l-59 330h-7zM383 919h68q-12 -66 49 -66q58 0 72 66h77q-7 -61 -49.5 -97.5t-107.5 -36.5t-95.5 37.5t-13.5 96.5z" />
    <glyph glyph-name="abreve" unicode="&#x103;" horiz-adv-x="676" 
d="M88 199q-3 137 90 238.5t216 98.5q35 0 64 -9.5t47 -25t28 -28.5t16 -26h7l14 76h103l-72 -390q-6 -43 32 -43h24l-17 -90h-57q-40 0 -61.5 20.5t-19.5 54.5v5h-6q-18 -22 -45 -43q-63 -50 -151 -50q-98 0 -155 57.5t-57 154.5zM197 218q0 -63 36 -99.5t98 -36.5
q83 -2 141.5 65t56.5 157q0 63 -36.5 99.5t-97.5 36.5q-81 0 -140 -66q-58 -64 -58 -156zM329 740h68q-12 -66 49 -66q29 0 48 18t24 48h77q-7 -60 -49.5 -97t-107.5 -37t-95.5 37.5t-13.5 96.5z" />
    <glyph glyph-name="Aogonek" unicode="&#x104;" horiz-adv-x="685" 
d="M136 0h-118l387 700h133l130 -700l-54 -56q-8 -7 -11 -9.5t-7.5 -8t-6 -11t-1.5 -12.5q0 -24 31 -24h27l-13 -73h-60q-35 0 -57.5 18t-22.5 49q0 20 10 39q12 23 38 49l38 39h-24l-27 152h-310zM446 579l-180 -330h246l-59 330h-7z" />
    <glyph glyph-name="aogonek" unicode="&#x105;" horiz-adv-x="676" 
d="M88 199q-3 137 90 238.5t216 98.5q35 0 64 -9.5t47 -25t28 -28.5t16 -26h7l14 76h103l-72 -390q-6 -43 32 -43h24l-17 -90l-55 -56q-22 -22 -25 -41q0 -24 30 -24h28l-14 -73h-59q-35 0 -58 18t-23 49q0 29 19 54l30 34l41 42q-27 6 -40.5 25.5t-11.5 46.5v5h-6
q-18 -22 -45 -43q-63 -50 -151 -50q-98 0 -155 57.5t-57 154.5zM197 218q0 -63 36 -99.5t98 -36.5q83 -2 141.5 65t56.5 157q0 63 -36.5 99.5t-97.5 36.5q-81 0 -140 -66q-58 -64 -58 -156z" />
    <glyph glyph-name="Cacute" unicode="&#x106;" horiz-adv-x="805" 
d="M104 278q0 178 126 306.5t311 128.5q127 0 203 -69q76 -68 87 -180h-116q-10 68 -62 107.5t-130 39.5q-120 3 -214 -94.5t-91 -220.5q0 -93 57 -150t151 -57q82 0 148 39t99 107h118q-45 -117 -144 -182.5t-240 -65.5q-137 0 -220 81t-83 210zM582 787h-77l79 139h115z
" />
    <glyph glyph-name="cacute" unicode="&#x107;" horiz-adv-x="624" 
d="M88 209q-3 135 94 232t233 95q95 0 156 -54q61 -52 61 -142h-108q-5 45 -39.5 72.5t-85.5 27.5q-82 2 -142.5 -64.5t-58.5 -153.5q0 -63 36.5 -101.5t99.5 -38.5q53 0 98 27.5t63 71.5h108q-27 -90 -104.5 -142t-183.5 -52q-104 0 -166 62q-61 62 -61 160zM457 608h-77
l79 139h115z" />
    <glyph glyph-name="Cdotaccent" unicode="&#x10a;" horiz-adv-x="805" 
d="M104 278q0 178 126 306.5t311 128.5q127 0 203 -69q76 -68 87 -180h-116q-10 68 -62 107.5t-130 39.5q-120 3 -214 -94.5t-91 -220.5q0 -93 57 -150t151 -57q82 0 148 39t99 107h118q-45 -117 -144 -182.5t-240 -65.5q-137 0 -220 81t-83 210zM499 837q0 32 24 56t57 24
q26 0 41.5 -14.5t15.5 -38.5q0 -33 -24 -56.5t-58 -23.5q-26 0 -41 14.5t-15 38.5z" />
    <glyph glyph-name="cdotaccent" unicode="&#x10b;" horiz-adv-x="624" 
d="M88 209q-3 135 94 232t233 95q95 0 156 -54q61 -52 61 -142h-108q-5 45 -39.5 72.5t-85.5 27.5q-82 2 -142.5 -64.5t-58.5 -153.5q0 -63 36.5 -101.5t99.5 -38.5q53 0 98 27.5t63 71.5h108q-27 -90 -104.5 -142t-183.5 -52q-104 0 -166 62q-61 62 -61 160zM374 658
q0 32 24 56t57 24q26 0 41.5 -14.5t15.5 -38.5q0 -33 -24 -56.5t-58 -23.5q-26 0 -41 14.5t-15 38.5z" />
    <glyph glyph-name="Ccaron" unicode="&#x10c;" horiz-adv-x="805" 
d="M104 278q0 178 126 306.5t311 128.5q127 0 203 -69q76 -68 87 -180h-116q-10 68 -62 107.5t-130 39.5q-120 3 -214 -94.5t-91 -220.5q0 -93 57 -150t151 -57q82 0 148 39t99 107h118q-45 -117 -144 -182.5t-240 -65.5q-137 0 -220 81t-83 210zM504 787l-73 137h79l49 -59
h7l71 59h90l-124 -137h-99z" />
    <glyph glyph-name="ccaron" unicode="&#x10d;" horiz-adv-x="624" 
d="M88 209q-3 135 94 232t233 95q95 0 156 -54q61 -52 61 -142h-108q-5 45 -39.5 72.5t-85.5 27.5q-82 2 -142.5 -64.5t-58.5 -153.5q0 -63 36.5 -101.5t99.5 -38.5q53 0 98 27.5t63 71.5h108q-27 -90 -104.5 -142t-183.5 -52q-104 0 -166 62q-61 62 -61 160zM379 608
l-73 137h79l49 -59h7l71 59h90l-124 -137h-99z" />
    <glyph glyph-name="Dcaron" unicode="&#x10e;" horiz-adv-x="713" 
d="M319 0h-230l130 700h222q140 0 219 -74q78 -74 78 -198q0 -187 -115.5 -307.5t-303.5 -120.5zM309 605l-95 -511h112q131 0 215.5 91t84.5 230q0 90 -54.5 140t-150.5 50h-112zM413 788l-73 137h79l49 -59h7l71 59h90l-124 -137h-99z" />
    <glyph glyph-name="dcaron" unicode="&#x10f;" horiz-adv-x="738" 
d="M88 199q0 138 90.5 237.5t215.5 99.5q35 0 64 -9.5t47 -25t28 -28.5t16 -26h7l56 303h105l-114 -616q-8 -43 31 -43h24l-17 -91h-58q-41 0 -63 20t-20 53l1 6h-7q-77 -92 -194 -92q-98 0 -155 57.5t-57 154.5zM197 218q0 -63 36 -99.5t98 -36.5q83 -2 141.5 65t56.5 157
q0 63 -36.5 99.5t-97.5 36.5q-81 0 -140 -66q-58 -64 -58 -156zM825 561h-79l35 189h103z" />
    <glyph glyph-name="Dcroat" unicode="&#x110;" horiz-adv-x="757" 
d="M206 309h-59l15 86h60l57 305h211q139 0 216 -72t77 -196q3 -185 -119.5 -310t-303.5 -122h-211zM314 309l-40 -215h101q128 0 212 91.5t84 230.5q0 90 -53 139.5t-149 49.5h-100l-39 -210h137l-16 -86h-137z" />
    <glyph glyph-name="dslash" unicode="&#x111;" horiz-adv-x="680" 
d="M88 199q0 138 90.5 237.5t215.5 99.5q35 0 64 -9.5t47 -25t28 -28.5t16 -26h7l26 142h-156l15 79h156l15 82h105l-15 -82h56l-15 -79h-56l-84 -455q-8 -43 31 -43h24l-17 -91h-58q-41 0 -63 20t-20 53l1 6h-7q-77 -92 -194 -92q-98 0 -155 57.5t-57 154.5zM197 218
q0 -63 36 -99.5t98 -36.5q83 -2 141.5 65t56.5 157q0 63 -36.5 99.5t-97.5 36.5q-81 0 -140 -66q-58 -64 -58 -156z" />
    <glyph glyph-name="Emacron" unicode="&#x112;" horiz-adv-x="561" 
d="M514 0h-425l130 700h415l-18 -95h-307l-38 -203h264l-18 -94h-263l-39 -214h317zM586 808h-255l15 82h255z" />
    <glyph glyph-name="emacron" unicode="&#x113;" horiz-adv-x="610" 
d="M88 206q-3 137 87 234t227 96q120 0 176.5 -75.5t34.5 -193.5l-7 -39h-411q-7 -72 27.5 -113.5t103.5 -41.5q50 0 93 23t65 62h103q-29 -79 -104 -124q-77 -47 -175 -47q-103 0 -161 61q-59 62 -59 158zM212 309h304q5 64 -29.5 101.5t-96.5 37.5t-112 -38.5t-66 -100.5z
M551 629h-255l15 82h255z" />
    <glyph glyph-name="Edotaccent" unicode="&#x116;" horiz-adv-x="561" 
d="M514 0h-425l130 700h415l-18 -95h-307l-38 -203h264l-18 -94h-263l-39 -214h317zM398 837q0 32 24 56t57 24q26 0 41.5 -14.5t15.5 -38.5q0 -33 -24 -56.5t-58 -23.5q-26 0 -41 14.5t-15 38.5z" />
    <glyph glyph-name="edotaccent" unicode="&#x117;" horiz-adv-x="610" 
d="M88 206q-3 137 87 234t227 96q120 0 176.5 -75.5t34.5 -193.5l-7 -39h-411q-7 -72 27.5 -113.5t103.5 -41.5q50 0 93 23t65 62h103q-29 -79 -104 -124q-77 -47 -175 -47q-103 0 -161 61q-59 62 -59 158zM212 309h304q5 64 -29.5 101.5t-96.5 37.5t-112 -38.5t-66 -100.5z
M363 658q0 32 24 56t57 24q26 0 41.5 -14.5t15.5 -38.5q0 -33 -24 -56.5t-58 -23.5q-26 0 -41 14.5t-15 38.5z" />
    <glyph glyph-name="Eogonek" unicode="&#x118;" horiz-adv-x="561" 
d="M426 0h-337l130 700h415l-18 -95h-307l-38 -203h264l-18 -94h-263l-39 -214h317l-18 -94h1l-55 -56q-22 -22 -25 -41q0 -24 30 -24h28l-14 -73h-59q-35 0 -58 18t-23 49q0 29 19 54q6 6 11 12.5t8.5 10.5t10.5 11z" />
    <glyph glyph-name="eogonek" unicode="&#x119;" horiz-adv-x="610" 
d="M88 206q-3 137 87 234t227 96q120 0 176.5 -75.5t34.5 -193.5l-7 -39h-411q-7 -72 27.5 -113.5t103.5 -41.5q50 0 93 23t65 62h103q-25 -66 -84.5 -110.5t-139.5 -56.5l-46 -47q-22 -22 -25 -41q0 -24 30 -24h28l-14 -73h-59q-35 0 -58 18t-23 49q0 29 19 54l30 34l28 28
q-86 11 -135.5 70t-49.5 147zM212 309h304q5 64 -29.5 101.5t-96.5 37.5t-112 -38.5t-66 -100.5z" />
    <glyph glyph-name="Ecaron" unicode="&#x11a;" horiz-adv-x="561" 
d="M514 0h-425l130 700h415l-18 -95h-307l-38 -203h264l-18 -94h-263l-39 -214h317zM403 787l-73 137h79l49 -59h7l71 59h90l-124 -137h-99z" />
    <glyph glyph-name="ecaron" unicode="&#x11b;" horiz-adv-x="610" 
d="M88 206q-3 137 87 234t227 96q120 0 176.5 -75.5t34.5 -193.5l-7 -39h-411q-7 -72 27.5 -113.5t103.5 -41.5q50 0 93 23t65 62h103q-29 -79 -104 -124q-77 -47 -175 -47q-103 0 -161 61q-59 62 -59 158zM212 309h304q5 64 -29.5 101.5t-96.5 37.5t-112 -38.5t-66 -100.5z
M368 608l-73 137h79l49 -59h7l71 59h90l-124 -137h-99z" />
    <glyph glyph-name="Gbreve" unicode="&#x11e;" horiz-adv-x="812" 
d="M104 276q0 180 126 308.5t312 128.5q123 0 201 -66t90 -171h-119q-13 63 -63.5 99t-127.5 36q-124 3 -216 -93.5t-89 -224.5q0 -91 56 -149q58 -56 154 -56t171 54q76 55 98 140h-252l17 91h372q-22 -185 -141 -285.5t-283 -100.5q-137 0 -222 80q-84 81 -84 209z
M450 919h68q-12 -66 49 -66q29 0 48 18t24 48h77q-8 -61 -50 -97.5t-107 -36.5t-95 37t-14 97z" />
    <glyph glyph-name="gbreve" unicode="&#x11f;" horiz-adv-x="648" 
d="M69 -70h97q1 -40 33.5 -62.5t87.5 -22.5q78 0 126 40.5t61 116.5l14 75h-7q-20 -22 -43 -40q-61 -48 -141 -48q-96 0 -153 57q-56 59 -56 153q0 138 90 237.5t215 99.5q65 0 103 -29t52 -60h7l14 76h104l-96 -521q-21 -117 -98 -181t-207 -64q-99 0 -153 48t-50 125z
M196 219q0 -63 36 -99t98 -36q80 0 138.5 65.5t58.5 156.5q0 62 -36 98t-97 36q-80 0 -139 -66t-59 -155zM326 740h68q-12 -66 49 -66q29 0 48 18t24 48h77q-8 -61 -50.5 -97.5t-106.5 -36.5q-65 0 -95 37t-14 97z" />
    <glyph glyph-name="Gdotaccent" unicode="&#x120;" horiz-adv-x="812" 
d="M104 276q0 180 126 308.5t312 128.5q123 0 201 -66t90 -171h-119q-13 63 -63.5 99t-127.5 36q-124 3 -216 -93.5t-89 -224.5q0 -91 56 -149q58 -56 154 -56t171 54q76 55 98 140h-252l17 91h372q-22 -185 -141 -285.5t-283 -100.5q-137 0 -222 80q-84 81 -84 209z
M505 837q0 32 24 56t57 24q26 0 41.5 -14.5t15.5 -38.5q0 -33 -24 -56.5t-58 -23.5q-26 0 -41 14.5t-15 38.5z" />
    <glyph glyph-name="gdotaccent" unicode="&#x121;" horiz-adv-x="648" 
d="M69 -70h97q1 -40 33.5 -62.5t87.5 -22.5q78 0 126 40.5t61 116.5l14 75h-7q-20 -22 -43 -40q-61 -48 -141 -48q-96 0 -153 57q-56 59 -56 153q0 138 90 237.5t215 99.5q65 0 103 -29t52 -60h7l14 76h104l-96 -521q-21 -117 -98 -181t-207 -64q-99 0 -153 48t-50 125z
M196 219q0 -63 36 -99t98 -36q80 0 138.5 65.5t58.5 156.5q0 62 -36 98t-97 36q-80 0 -139 -66t-59 -155zM380 658q0 32 24 56t57 24q26 0 41.5 -14.5t15.5 -38.5q0 -33 -24 -56.5t-58 -23.5q-26 0 -41 14.5t-15 38.5z" />
    <glyph glyph-name="uni0122" unicode="&#x122;" horiz-adv-x="812" 
d="M104 276q0 180 126 308.5t312 128.5q123 0 201 -66t90 -171h-119q-13 63 -63.5 99t-127.5 36q-124 3 -216 -93.5t-89 -224.5q0 -91 56 -149q58 -56 154 -56t171 54q76 55 98 140h-252l17 91h372q-22 -185 -141 -285.5t-283 -100.5q-137 0 -222 80q-84 81 -84 209z
M379 -229h-72l48 171h94z" />
    <glyph glyph-name="uni0123" unicode="&#x123;" horiz-adv-x="648" 
d="M69 -70h97q1 -40 33.5 -62.5t87.5 -22.5q78 0 126 40.5t61 116.5l14 75h-7q-20 -22 -43 -40q-61 -48 -141 -48q-96 0 -153 57q-56 59 -56 153q0 138 90 237.5t215 99.5q65 0 103 -29t52 -60h7l14 76h104l-96 -521q-21 -117 -98 -181t-207 -64q-99 0 -153 48t-50 125z
M196 219q0 -63 36 -99t98 -36q80 0 138.5 65.5t58.5 156.5q0 62 -36 98t-97 36q-80 0 -139 -66t-59 -155zM455 609h-94l70 171h72z" />
    <glyph glyph-name="Hcircumflex" unicode="&#x124;" horiz-adv-x="734" 
d="M197 0h-108l130 700h108l-55 -295h340l55 295h107l-130 -700h-107l56 305h-340zM458 787h-90l123 137h100l72 -137h-79l-50 58h-7z" />
    <glyph glyph-name="hcircumflex" unicode="&#x125;" horiz-adv-x="609" 
d="M187 0h-105l139 750h104l-55 -297h7q25 37 70.5 60t98.5 23q87 0 130 -57t26 -143l-62 -336h-105l59 317q10 54 -18.5 88t-78.5 34q-55 0 -98 -37q-44 -36 -54 -91zM224 789h-90l123 137h100l72 -137h-79l-50 58h-7z" />
    <glyph glyph-name="Hbar" unicode="&#x126;" horiz-adv-x="840" 
d="M250 0h-107l96 519h-54l16 86h54l18 95h107l-18 -95h340l18 95h108l-18 -95h52l-15 -86h-53l-96 -519h-108l57 305h-341zM346 519l-21 -114h340l21 114h-340z" />
    <glyph glyph-name="hbar" unicode="&#x127;" horiz-adv-x="609" 
d="M187 0h-105l109 589h-64l15 79h64l15 82h104l-15 -82h149l-15 -79h-149l-25 -136h7q25 37 70.5 60t98.5 23q87 0 130 -57t26 -143l-62 -336h-105l59 317q10 54 -18.5 88t-78.5 34q-55 0 -98 -37q-44 -36 -54 -91z" />
    <glyph glyph-name="Imacron" unicode="&#x12a;" horiz-adv-x="286" 
d="M197 0h-108l130 700h108zM425 808h-255l15 82h255z" />
    <glyph glyph-name="imacron" unicode="&#x12b;" horiz-adv-x="295" 
d="M106 120l74 403h105l-73 -388q-4 -21 5 -32.5t27 -11.5h24l-17 -91h-48q-57 0 -82.5 32t-14.5 88zM382 629h-255l15 82h255z" />
    <glyph glyph-name="Iogonek" unicode="&#x12e;" horiz-adv-x="286" 
d="M22 -127q0 20 10 39q12 23 38 49l38 39h-19l130 700h108l-130 -700l-54 -56q-8 -7 -11 -9.5t-7.5 -8t-6 -11t-1.5 -12.5q0 -24 31 -24h27l-13 -73h-60q-35 0 -57.5 18t-22.5 49z" />
    <glyph glyph-name="iogonek" unicode="&#x12f;" horiz-adv-x="327" 
d="M76 -127q0 37 48 88l42 43q-38 10 -53.5 40.5t-6.5 75.5l74 403h105l-73 -388q-4 -21 5 -32.5t27 -11.5h24l-17 -91l-54 -56q-26 -26 -26 -41q0 -24 31 -24h27l-13 -73h-59q-35 0 -58 18t-23 49zM193 658q0 32 24 56t58 24q26 0 41.5 -14.5t15.5 -38.5q0 -33 -24 -56.5
t-58 -23.5q-26 0 -41.5 14.5t-15.5 38.5z" />
    <glyph glyph-name="Idot" unicode="&#x130;" horiz-adv-x="286" 
d="M197 0h-108l130 700h108zM236 837q0 32 24 56t57 24q26 0 41.5 -14.5t15.5 -38.5q0 -33 -24 -56.5t-58 -23.5q-26 0 -41 14.5t-15 38.5z" />
    <glyph glyph-name="dotlessi" unicode="&#x131;" horiz-adv-x="295" 
d="M106 120l74 403h105l-73 -388q-4 -21 5 -32.5t27 -11.5h24l-17 -91h-48q-57 0 -82.5 32t-14.5 88z" />
    <glyph glyph-name="Jcircumflex" unicode="&#x134;" horiz-adv-x="583" 
d="M74 200h100q-9 -54 19.5 -84t88.5 -30q67 0 105 39t49 98l71 381h-254l18 96h361l-89 -478q-19 -105 -88.5 -170t-189.5 -65q-97 0 -153 57t-38 156zM407 787h-90l123 137h100l72 -137h-79l-50 58h-7z" />
    <glyph glyph-name="jcircumflex" unicode="&#x135;" horiz-adv-x="305" 
d="M9 -230h-48l17 94h38q43 0 70.5 24t34.5 65l106 570h105l-106 -571q-16 -87 -73.5 -134.5t-143.5 -47.5zM236 608h-90l123 137h100l72 -137h-79l-50 58h-7z" />
    <glyph glyph-name="uni0136" unicode="&#x136;" horiz-adv-x="636" 
d="M197 0h-108l130 700h108l-61 -323h6l328 323h137l-299 -289l113 -271q18 -45 58 -45h30l-17 -95h-50q-77 0 -111 79l-107 251l-117 -113zM309 -229h-72l48 171h94z" />
    <glyph glyph-name="uni0137" unicode="&#x137;" horiz-adv-x="552" 
d="M187 0h-105l139 750h105l-84 -450h6l236 223h135l-220 -204l68 -183q18 -46 57 -46h30l-17 -90h-46q-79 0 -108 79l-63 167l-104 -96zM260 -229h-72l48 171h94z" />
    <glyph glyph-name="kgreenlandic" unicode="&#x138;" horiz-adv-x="552" 
d="M187 0h-105l96 523h105l-41 -223h6l237 223h134l-221 -203l69 -184q18 -46 57 -46h30l-17 -90h-46q-79 0 -108 79l-63 168l-105 -96z" />
    <glyph glyph-name="Lacute" unicode="&#x139;" horiz-adv-x="534" 
d="M489 0h-400l130 700h108l-112 -604h292zM321 787h-77l79 139h115z" />
    <glyph glyph-name="lacute" unicode="&#x13a;" horiz-adv-x="291" 
d="M105 130l115 620h105l-114 -614q-6 -43 32 -43h22l-16 -93h-44q-59 0 -85 34t-15 96zM289 789h-77l79 139h115z" />
    <glyph glyph-name="uni013B" unicode="&#x13b;" horiz-adv-x="534" 
d="M489 0h-400l130 700h108l-112 -604h292zM256 -229h-72l48 171h94z" />
    <glyph glyph-name="uni013C" unicode="&#x13c;" horiz-adv-x="291" 
d="M119 -229h-72l48 171h94zM105 130l115 620h105l-114 -614q-6 -43 32 -43h22l-16 -93h-44q-59 0 -85 34t-15 96z" />
    <glyph glyph-name="Lcaron" unicode="&#x13d;" horiz-adv-x="533" 
d="M489 0h-400l130 700h108l-112 -604h292zM516 511h-80l35 189h104z" />
    <glyph glyph-name="lcaron" unicode="&#x13e;" horiz-adv-x="386" 
d="M105 130l115 620h105l-114 -614q-6 -43 32 -43h22l-16 -93h-44q-59 0 -85 34t-15 96zM436 561h-79l35 189h103z" />
    <glyph glyph-name="Ldot" unicode="&#x13f;" 
d="M489 0h-400l130 700h108l-112 -604h292zM365 372q0 30 24 54t55 24q25 0 40.5 -15.5t15.5 -38.5q0 -31 -24 -54.5t-56 -23.5q-24 0 -39.5 15.5t-15.5 38.5z" />
    <glyph glyph-name="ldot" unicode="&#x140;" horiz-adv-x="426" 
d="M105 130l115 620h105l-114 -614q-6 -43 32 -43h22l-16 -93h-44q-59 0 -85 34t-15 96zM312 374q0 30 24 53.5t55 23.5q25 0 40.5 -15t15.5 -38q0 -31 -24.5 -54.5t-55.5 -23.5q-24 0 -39.5 15.5t-15.5 38.5z" />
    <glyph glyph-name="Lslash" unicode="&#x141;" horiz-adv-x="545" 
d="M148 248l-78 -37l18 98l78 37l66 354h107l-55 -298l189 90l-17 -98l-190 -90l-39 -208h293l-18 -96h-400z" />
    <glyph glyph-name="lslash" unicode="&#x142;" horiz-adv-x="376" 
d="M159 310l-81 -39l18 98l82 39l63 342h105l-53 -286l105 51l-18 -98l-105 -51l-43 -230q-6 -43 32 -43h22l-16 -93h-44q-59 0 -85 34t-15 96z" />
    <glyph glyph-name="Nacute" unicode="&#x143;" horiz-adv-x="737" 
d="M195 0h-106l130 700h108l243 -518h6l96 518h105l-130 -700h-108l-242 518h-6zM556 787h-77l79 139h115z" />
    <glyph glyph-name="nacute" unicode="&#x144;" horiz-adv-x="605" 
d="M187 0h-105l96 523h103l-14 -70h7q25 37 70.5 60t98.5 23q87 0 129 -57q42 -58 26 -143l-62 -336h-105l59 317q10 54 -17.5 88t-77.5 34q-54 0 -98 -38q-43 -37 -54 -95zM464 608h-77l79 139h115z" />
    <glyph glyph-name="uni0145" unicode="&#x145;" horiz-adv-x="737" 
d="M195 0h-106l130 700h108l243 -518h6l96 518h105l-130 -700h-108l-242 518h-6zM325 -229h-72l48 171h94z" />
    <glyph glyph-name="uni0146" unicode="&#x146;" horiz-adv-x="605" 
d="M187 0h-105l96 523h103l-14 -70h7q25 37 70.5 60t98.5 23q87 0 129 -57q42 -58 26 -143l-62 -336h-105l59 317q10 54 -17.5 88t-77.5 34q-54 0 -98 -38q-43 -37 -54 -95zM279 -229h-72l48 171h94z" />
    <glyph glyph-name="Ncaron" unicode="&#x147;" horiz-adv-x="737" 
d="M195 0h-106l130 700h108l243 -518h6l96 518h105l-130 -700h-108l-242 518h-6zM478 787l-73 137h79l49 -59h7l71 59h90l-124 -137h-99z" />
    <glyph glyph-name="ncaron" unicode="&#x148;" horiz-adv-x="605" 
d="M187 0h-105l96 523h103l-14 -70h7q25 37 70.5 60t98.5 23q87 0 129 -57q42 -58 26 -143l-62 -336h-105l59 317q10 54 -17.5 88t-77.5 34q-54 0 -98 -38q-43 -37 -54 -95zM386 608l-73 137h79l49 -59h7l71 59h90l-124 -137h-99z" />
    <glyph glyph-name="Eng" unicode="&#x14a;" horiz-adv-x="737" 
d="M195 0h-106l130 700h110l244 -505h6l93 505h105l-137 -739q-17 -87 -83 -139q-67 -52 -153 -52l19 95q45 0 74 26.5t38 69.5l9 51l-247 508h-6z" />
    <glyph glyph-name="eng" unicode="&#x14b;" horiz-adv-x="605" 
d="M187 0h-105l96 523h103l-14 -70h7q25 37 70.5 60t98.5 23q87 0 129 -57q42 -58 26 -143l-62 -336h-1l-9 -48q-15 -85 -73 -133.5t-145 -48.5h-60l17 94h51q42 0 70 24.5t35 64.5l14 70l55 294q10 54 -17.5 88t-77.5 34q-54 0 -98 -38q-43 -37 -54 -95z" />
    <glyph glyph-name="Omacron" unicode="&#x14c;" horiz-adv-x="824" 
d="M104 277q0 117 58 217.5t159.5 159.5t222.5 59q136 1 221.5 -82t83.5 -210q0 -87 -33.5 -167t-93.5 -140q-59 -59 -141.5 -93t-171.5 -34q-137 0 -222 80q-83 81 -83 210zM218 295q0 -92 57 -149q59 -57 154 -57q121 -4 215.5 93t91.5 222q0 91 -58 149q-57 58 -153 58
q-124 0 -215.5 -94t-91.5 -222zM691 808h-255l15 82h255z" />
    <glyph glyph-name="omacron" unicode="&#x14d;" horiz-adv-x="642" 
d="M88 207q-3 133 94.5 232.5t234.5 96.5q104 0 169 -62t65 -158q0 -136 -94.5 -232.5t-233.5 -96.5q-106 0 -170 61q-65 62 -65 159zM197 223q0 -64 37.5 -102.5t101.5 -38.5q85 0 145 63q61 62 61 154q0 63 -38 102t-101 39q-86 0 -146 -63t-60 -154zM569 629h-255l15 82
h255z" />
    <glyph glyph-name="Ohungarumlaut" unicode="&#x150;" horiz-adv-x="824" 
d="M104 277q0 117 58 217.5t159.5 159.5t222.5 59q136 1 221.5 -82t83.5 -210q0 -87 -33.5 -167t-93.5 -140q-59 -59 -141.5 -93t-171.5 -34q-137 0 -222 80q-83 81 -83 210zM218 295q0 -92 57 -149q59 -57 154 -57q121 -4 215.5 93t91.5 222q0 91 -58 149q-57 58 -153 58
q-124 0 -215.5 -94t-91.5 -222zM509 787h-76l77 146h113zM665 787h-76l77 146h113z" />
    <glyph glyph-name="ohungarumlaut" unicode="&#x151;" horiz-adv-x="642" 
d="M88 207q-3 133 94.5 232.5t234.5 96.5q104 0 169 -62t65 -158q0 -136 -94.5 -232.5t-233.5 -96.5q-106 0 -170 61q-65 62 -65 159zM197 223q0 -64 37.5 -102.5t101.5 -38.5q85 0 145 63q61 62 61 154q0 63 -38 102t-101 39q-86 0 -146 -63t-60 -154zM387 608h-76l77 146
h113zM543 608h-76l77 146h113z" />
    <glyph glyph-name="OE" unicode="&#x152;" horiz-adv-x="1099" 
d="M104 277q0 85 35 165t96 141q61 60 142 95t167 35q51 0 97 -13h531l-18 -95h-373q71 -84 63 -203h238l-17 -94h-237q-37 -129 -142 -214h385l-18 -94h-542q-53 -13 -102 -13q-137 0 -222 80q-83 81 -83 210zM218 295q0 -92 57 -149q59 -57 154 -57q119 -4 212.5 93.5
t90.5 221.5q0 90 -57 149q-57 58 -150 58q-124 0 -215.5 -94.5t-91.5 -221.5z" />
    <glyph glyph-name="oe" unicode="&#x153;" horiz-adv-x="1058" 
d="M88 206q1 134 99 232.5t234 97.5q68 0 120.5 -27.5t80.5 -76.5q90 104 229 104q121 0 176.5 -76t33.5 -193l-6 -40h-411q-7 -71 27 -112.5t104 -41.5q51 0 94 23t64 62h103q-29 -78 -105 -124q-77 -47 -175 -47q-141 0 -192 110q-104 -110 -245 -110q-105 0 -168 60
q-63 61 -63 159zM197 223q0 -64 37.5 -102.5t101.5 -38.5q83 0 144.5 64.5t61.5 152.5q0 63 -38 102t-101 39q-84 0 -145 -64t-61 -153zM660 309h305q4 65 -31 102t-96 37q-62 0 -112 -38.5t-66 -100.5z" />
    <glyph glyph-name="Racute" unicode="&#x154;" horiz-adv-x="634" 
d="M197 0h-108l130 700h250q91 0 145 -50.5t54 -132.5q0 -84 -49 -146t-131 -89l51 -145q9 -24 21.5 -33t33.5 -9h35l-17 -95h-58q-83 0 -107 79l-62 187h-139zM309 607l-45 -247h137q67 0 111 41t44 109q0 43 -30 70t-83 27h-134zM480 787h-77l79 139h115z" />
    <glyph glyph-name="racute" unicode="&#x155;" horiz-adv-x="415" 
d="M187 0h-105l96 523h102l-17 -91h6q23 39 66 65.5t92 26.5h46l-19 -102h-49q-65 0 -111 -45.5t-59 -118.5zM382 608h-77l79 139h115z" />
    <glyph glyph-name="uni0156" unicode="&#x156;" horiz-adv-x="634" 
d="M197 0h-108l130 700h250q91 0 145 -50.5t54 -132.5q0 -84 -49 -146t-131 -89l51 -145q9 -24 21.5 -33t33.5 -9h35l-17 -95h-58q-83 0 -107 79l-62 187h-139zM297 -229h-72l48 171h94zM309 607l-45 -247h137q67 0 111 41t44 109q0 43 -30 70t-83 27h-134z" />
    <glyph glyph-name="uni0157" unicode="&#x157;" horiz-adv-x="415" 
d="M187 0h-105l96 523h102l-17 -91h6q23 39 66 65.5t92 26.5h46l-19 -102h-49q-65 0 -111 -45.5t-59 -118.5zM176 -229h-72l48 171h94z" />
    <glyph glyph-name="Rcaron" unicode="&#x158;" horiz-adv-x="634" 
d="M197 0h-108l130 700h250q91 0 145 -50.5t54 -132.5q0 -84 -49 -146t-131 -89l51 -145q9 -24 21.5 -33t33.5 -9h35l-17 -95h-58q-83 0 -107 79l-62 187h-139zM309 607l-45 -247h137q67 0 111 41t44 109q0 43 -30 70t-83 27h-134zM402 787l-73 137h79l49 -59h7l71 59h90
l-124 -137h-99z" />
    <glyph glyph-name="rcaron" unicode="&#x159;" horiz-adv-x="415" 
d="M187 0h-105l96 523h102l-17 -91h6q23 39 66 65.5t92 26.5h46l-19 -102h-49q-65 0 -111 -45.5t-59 -118.5zM304 608l-73 137h79l49 -59h7l71 59h90l-124 -137h-99z" />
    <glyph glyph-name="Sacute" unicode="&#x15a;" horiz-adv-x="595" 
d="M79 215h105q-10 -60 25 -94.5t107 -34.5q73 0 117.5 33.5t44.5 90.5q0 37 -33.5 59.5t-81.5 35t-96 29t-81.5 54t-33.5 97.5q0 103 77 165q77 63 197 63q99 0 159.5 -53.5t43.5 -156.5h-109q10 52 -19.5 82.5t-91.5 30.5q-63 0 -104.5 -32.5t-41.5 -82.5q0 -35 34 -56
t82 -33.5t96.5 -29t82.5 -54.5t34 -97q0 -114 -79.5 -179t-215.5 -65q-113 0 -175 63q-61 64 -43 165zM470 787h-77l79 139h115z" />
    <glyph glyph-name="sacute" unicode="&#x15b;" horiz-adv-x="530" 
d="M80 155h99q-2 -41 23.5 -62t75.5 -21q55 0 89 24t34 66q0 28 -27.5 43t-66.5 21.5t-78.5 16t-67 37.5t-27.5 75q0 79 62 130t165 51q83 0 129.5 -42.5t38.5 -114.5h-96q2 35 -21 54.5t-68 19.5q-47 0 -78.5 -22.5t-31.5 -55.5q0 -25 28 -38.5t68 -20t80 -16.5t68 -38.5
t28 -77.5q0 -91 -63.5 -144t-179.5 -53q-96 0 -144 45t-39 123zM409 608h-77l79 139h115z" />
    <glyph glyph-name="Scedilla" unicode="&#x15e;" horiz-adv-x="595" 
d="M79 215h105q-10 -60 25 -94.5t107 -34.5q73 0 117.5 33.5t44.5 90.5q0 37 -33.5 59.5t-81.5 35t-96 29t-81.5 54t-33.5 97.5q0 103 77 165q77 63 197 63q99 0 159.5 -53.5t43.5 -156.5h-109q10 52 -19.5 82.5t-91.5 30.5q-63 0 -104.5 -32.5t-41.5 -82.5q0 -35 34 -56
t82 -33.5t96.5 -29t82.5 -54.5t34 -97q0 -113 -76.5 -177.5t-210.5 -66.5l-17 -39h6q12 9 32 9q28 0 45 -17.5t17 -44.5q0 -42 -32 -71t-78 -29q-36 0 -58 21t-16 54h59q0 -10 7.5 -16t18.5 -6q15 0 26.5 11.5t11.5 26.5q0 11 -8 18t-20 7q-19 0 -28 -15l-57 1l34 94
q-93 14 -139 74.5t-30 149.5z" />
    <glyph glyph-name="scedilla" unicode="&#x15f;" horiz-adv-x="530" 
d="M80 155h99q-2 -41 23.5 -62t75.5 -21q55 0 89 24t34 66q0 28 -27.5 43t-66.5 21.5t-78.5 16t-67 37.5t-27.5 75q0 79 62 130t165 51q83 0 129.5 -42.5t38.5 -114.5h-96q2 35 -21 54.5t-68 19.5q-47 0 -78.5 -22.5t-31.5 -55.5q0 -25 28 -38.5t68 -20t80 -16.5t68 -38.5
t28 -77.5q0 -90 -62.5 -143t-175.5 -54l-17 -39h6q12 9 32 9q28 0 45 -17.5t17 -44.5q0 -42 -32.5 -71t-78.5 -29q-35 0 -57 21t-16 54h59q0 -22 25 -22q15 0 26.5 11.5t11.5 26.5q0 11 -7.5 18t-19.5 7q-17 0 -29 -15l-56 1l34 94q-71 12 -104.5 54.5t-26.5 109.5z" />
    <glyph glyph-name="Scaron" unicode="&#x160;" horiz-adv-x="595" 
d="M79 215h105q-10 -60 25 -94.5t107 -34.5q73 0 117.5 33.5t44.5 90.5q0 37 -33.5 59.5t-81.5 35t-96 29t-81.5 54t-33.5 97.5q0 103 77 165q77 63 197 63q99 0 159.5 -53.5t43.5 -156.5h-109q10 52 -19.5 82.5t-91.5 30.5q-63 0 -104.5 -32.5t-41.5 -82.5q0 -35 34 -56
t82 -33.5t96.5 -29t82.5 -54.5t34 -97q0 -114 -79.5 -179t-215.5 -65q-113 0 -175 63q-61 64 -43 165zM392 787l-73 137h79l49 -59h7l71 59h90l-124 -137h-99z" />
    <glyph glyph-name="scaron" unicode="&#x161;" horiz-adv-x="530" 
d="M80 155h99q-2 -41 23.5 -62t75.5 -21q55 0 89 24t34 66q0 28 -27.5 43t-66.5 21.5t-78.5 16t-67 37.5t-27.5 75q0 79 62 130t165 51q83 0 129.5 -42.5t38.5 -114.5h-96q2 35 -21 54.5t-68 19.5q-47 0 -78.5 -22.5t-31.5 -55.5q0 -25 28 -38.5t68 -20t80 -16.5t68 -38.5
t28 -77.5q0 -91 -63.5 -144t-179.5 -53q-96 0 -144 45t-39 123zM331 608l-73 137h79l49 -59h7l71 59h90l-124 -137h-99z" />
    <glyph glyph-name="uni0162" unicode="&#x162;" horiz-adv-x="581" 
d="M349 604h-208l18 96h523l-18 -96h-208l-112 -604h-107zM259 -229h-72l48 171h94z" />
    <glyph glyph-name="uni0163" unicode="&#x163;" horiz-adv-x="435" 
d="M214 437h-94l16 85h60q38 0 46 38l21 111h99l-28 -148h153l-16 -86h-152l-50 -268q-15 -80 62 -80h70l-16 -89h-89q-78 0 -113 42.5t-20 123.5zM241 -229h-72l48 171h94z" />
    <glyph glyph-name="Tcaron" unicode="&#x164;" horiz-adv-x="581" 
d="M349 604h-208l18 96h523l-18 -96h-208l-112 -604h-107zM391 787l-73 137h79l49 -59h7l71 59h90l-124 -137h-99z" />
    <glyph glyph-name="tcaron" unicode="&#x165;" horiz-adv-x="433" 
d="M214 437h-94l16 85h60q38 0 46 38l21 111h99l-28 -148h153l-16 -86h-152l-50 -268q-15 -80 62 -80h70l-16 -89h-89q-78 0 -113 42.5t-20 123.5zM525 569h-79l35 188h103z" />
    <glyph glyph-name="Tbar" unicode="&#x166;" horiz-adv-x="566" 
d="M349 604h-208l18 96h523l-18 -96h-208l-35 -190h147l-16 -85h-147l-61 -329h-107l61 329h-140l16 85h140z" />
    <glyph glyph-name="tbar" unicode="&#x167;" horiz-adv-x="433" 
d="M183 270h-89l15 79h88l17 88h-94l16 85h60q38 0 46 38l21 111h99l-28 -148h153l-16 -86h-152l-16 -88h138l-15 -79h-138l-19 -101q-15 -80 62 -80h70l-16 -89h-89q-78 0 -113 42.5t-20 123.5z" />
    <glyph glyph-name="Umacron" unicode="&#x16a;" horiz-adv-x="699" 
d="M128 256l82 444h108l-82 -443q-15 -80 18.5 -125t111.5 -45t128.5 45t65.5 126l82 442h107l-82 -443q-24 -130 -104 -200t-211 -70q-123 0 -185 74q-61 73 -39 195zM627 808h-255l15 82h255z" />
    <glyph glyph-name="umacron" unicode="&#x16b;" 
d="M109 187l62 336h105l-59 -319q-11 -57 15.5 -89.5t79.5 -32.5t97 38q43 37 54 95l57 308h105l-97 -523h-102l13 70h-7q-55 -83 -168 -83q-87 0 -129 57q-42 58 -26 143zM548 629h-255l15 82h255z" />
    <glyph glyph-name="Uring" unicode="&#x16e;" horiz-adv-x="699" 
d="M128 256l82 444h108l-82 -443q-15 -80 18.5 -125t111.5 -45t128.5 45t65.5 126l82 442h107l-82 -443q-24 -130 -104 -200t-211 -70q-123 0 -185 74q-61 73 -39 195zM408 834q0 45 33 77.5t81 32.5q38 0 60.5 -20t22.5 -53q0 -49 -31.5 -80.5t-84.5 -31.5q-36 0 -58.5 21
t-22.5 54zM467 842q0 -30 32 -30q20 0 33.5 14t13.5 35q0 29 -34 29q-18 0 -31.5 -14t-13.5 -34z" />
    <glyph glyph-name="uring" unicode="&#x16f;" 
d="M109 187l62 336h105l-59 -319q-11 -57 15.5 -89.5t79.5 -32.5t97 38q43 37 54 95l57 308h105l-97 -523h-102l13 70h-7q-55 -83 -168 -83q-87 0 -129 57q-42 58 -26 143zM328 655q0 45 33 77.5t81 32.5q37 0 60 -20t23 -53q0 -49 -31.5 -80.5t-84.5 -31.5q-36 0 -58.5 21
t-22.5 54zM387 663q0 -30 32 -30q19 0 33 14t14 35q0 29 -34 29q-18 0 -31.5 -14t-13.5 -34z" />
    <glyph glyph-name="Uhungarumlaut" unicode="&#x170;" horiz-adv-x="699" 
d="M128 256l82 444h108l-82 -443q-15 -80 18.5 -125t111.5 -45t128.5 45t65.5 126l82 442h107l-82 -443q-24 -130 -104 -200t-211 -70q-123 0 -185 74q-61 73 -39 195zM445 787h-76l77 146h113zM601 787h-76l77 146h113z" />
    <glyph glyph-name="uhungarumlaut" unicode="&#x171;" 
d="M109 187l62 336h105l-59 -319q-11 -57 15.5 -89.5t79.5 -32.5t97 38q43 37 54 95l57 308h105l-97 -523h-102l13 70h-7q-55 -83 -168 -83q-87 0 -129 57q-42 58 -26 143zM366 608h-76l77 146h113zM522 608h-76l77 146h113z" />
    <glyph glyph-name="Uogonek" unicode="&#x172;" horiz-adv-x="699" 
d="M128 256l82 444h108l-82 -443q-15 -80 18.5 -125t111.5 -45t128.5 45t65.5 126l82 442h107l-82 -443q-21 -112 -84 -180t-165 -85l-46 -48q-22 -22 -25 -41q0 -24 30 -24h28l-14 -73h-59q-35 0 -58 18t-23 49q0 30 19 55q13 16 30 33l26 27q-112 8 -165 81
q-52 73 -33 187z" />
    <glyph glyph-name="uogonek" unicode="&#x173;" 
d="M109 187l62 336h105l-59 -319q-11 -57 15.5 -89.5t79.5 -32.5t97 38q43 37 54 95l57 308h105l-97 -523l-57 -56q-26 -26 -26 -42q0 -23 31 -23h30l-13 -73h-59q-35 0 -58 17.5t-23 47.5q0 41 45 87l3 3l39 39h-14l13 70h-7q-55 -83 -168 -83q-87 0 -129 57
q-42 58 -26 143z" />
    <glyph glyph-name="Wcircumflex" unicode="&#x174;" horiz-adv-x="951" 
d="M198 0l-50 700h114l27 -551h7l241 551h134l37 -551h7l231 551h118l-310 -700h-133l-40 551h-6l-245 -551h-132zM566 787h-90l123 137h100l72 -137h-79l-50 58h-7z" />
    <glyph glyph-name="wcircumflex" unicode="&#x175;" horiz-adv-x="867" 
d="M182 0l-58 523h111l32 -399h7l199 399h112l50 -399h7l182 399h112l-252 -523h-126l-50 388h-6l-195 -388h-125zM490 608h-90l123 137h100l72 -137h-79l-50 58h-7z" />
    <glyph glyph-name="Ycircumflex" unicode="&#x176;" horiz-adv-x="644" 
d="M319 270l-171 430h114l123 -321h7l241 321h124l-330 -430l-50 -270h-108zM410 787h-90l123 137h100l72 -137h-79l-50 58h-7z" />
    <glyph glyph-name="ycircumflex" unicode="&#x177;" 
d="M49 -70h95q-1 -40 27 -62.5t82 -22.5q76 0 117.5 39t56.5 118l12 70h-6q-24 -36 -69.5 -59.5t-98.5 -23.5q-88 0 -130 57q-42 58 -26 144l62 333h105l-59 -316q-10 -54 17 -88t78 -34q53 0 97 38q43 37 54 94l57 306h105l-96 -521q-47 -245 -291 -245q-97 0 -146.5 47.5
t-42.5 125.5zM357 608h-90l123 137h100l72 -137h-79l-50 58h-7z" />
    <glyph glyph-name="Ydieresis" unicode="&#x178;" horiz-adv-x="644" 
d="M319 270l-171 430h114l123 -321h7l241 321h124l-330 -430l-50 -270h-108zM327 842q0 29 22.5 51t50.5 22q24 0 38 -13.5t14 -35.5q0 -30 -22 -51.5t-52 -21.5q-23 0 -37 13.5t-14 35.5zM505 841q0 30 21.5 52t52.5 22q22 0 36.5 -14.5t14.5 -35.5q0 -28 -22.5 -50
t-51.5 -22q-24 0 -37.5 13t-13.5 35z" />
    <glyph glyph-name="Zacute" unicode="&#x179;" horiz-adv-x="621" 
d="M573 0h-525l18 100l478 499l2 7h-373l17 94h511l-18 -100l-479 -499l-1 -7h388zM481 787h-77l79 139h115z" />
    <glyph glyph-name="zacute" unicode="&#x17a;" horiz-adv-x="520" 
d="M464 0h-409l17 91l333 337l1 7h-261l16 88h395l-16 -88l-333 -339l-2 -7h276zM399 608h-77l79 139h115z" />
    <glyph glyph-name="Zdotaccent" unicode="&#x17b;" horiz-adv-x="621" 
d="M573 0h-525l18 100l478 499l2 7h-373l17 94h511l-18 -100l-479 -499l-1 -7h388zM398 837q0 32 24 56t57 24q26 0 41.5 -14.5t15.5 -38.5q0 -33 -24 -56.5t-58 -23.5q-26 0 -41 14.5t-15 38.5z" />
    <glyph glyph-name="zdotaccent" unicode="&#x17c;" horiz-adv-x="520" 
d="M464 0h-409l17 91l333 337l1 7h-261l16 88h395l-16 -88l-333 -339l-2 -7h276zM316 658q0 32 24 56t57 24q26 0 41.5 -14.5t15.5 -38.5q0 -33 -24 -56.5t-58 -23.5q-26 0 -41 14.5t-15 38.5z" />
    <glyph glyph-name="Zcaron" unicode="&#x17d;" horiz-adv-x="621" 
d="M573 0h-525l18 100l478 499l2 7h-373l17 94h511l-18 -100l-479 -499l-1 -7h388zM404 787l-73 137h79l49 -59h7l71 59h90l-124 -137h-99z" />
    <glyph glyph-name="zcaron" unicode="&#x17e;" horiz-adv-x="520" 
d="M464 0h-409l17 91l333 337l1 7h-261l16 88h395l-16 -88l-333 -339l-2 -7h276zM322 608l-73 137h79l49 -59h7l71 59h90l-124 -137h-99z" />
    <glyph glyph-name="florin" unicode="&#x192;" horiz-adv-x="518" 
d="M234 361h-110v85h126l28 152q14 74 63.5 113t123.5 39h72l-17 -90h-45q-80 0 -97 -83l-24 -131h132v-85h-149l-103 -554h-102z" />
    <glyph glyph-name="uni0218" unicode="&#x218;" horiz-adv-x="595" 
d="M79 215h105q-10 -60 25 -94.5t107 -34.5q73 0 117.5 33.5t44.5 90.5q0 37 -33.5 59.5t-81.5 35t-96 29t-81.5 54t-33.5 97.5q0 103 77 165q77 63 197 63q99 0 159.5 -53.5t43.5 -156.5h-109q10 52 -19.5 82.5t-91.5 30.5q-63 0 -104.5 -32.5t-41.5 -82.5q0 -35 34 -56
t82 -33.5t96.5 -29t82.5 -54.5t34 -97q0 -114 -79.5 -179t-215.5 -65q-113 0 -175 63q-61 64 -43 165zM270 -229h-72l48 171h94z" />
    <glyph glyph-name="uni0219" unicode="&#x219;" horiz-adv-x="530" 
d="M80 155h99q-2 -41 23.5 -62t75.5 -21q55 0 89 24t34 66q0 28 -27.5 43t-66.5 21.5t-78.5 16t-67 37.5t-27.5 75q0 79 62 130t165 51q83 0 129.5 -42.5t38.5 -114.5h-96q2 35 -21 54.5t-68 19.5q-47 0 -78.5 -22.5t-31.5 -55.5q0 -25 28 -38.5t68 -20t80 -16.5t68 -38.5
t28 -77.5q0 -91 -63.5 -144t-179.5 -53q-96 0 -144 45t-39 123zM233 -229h-72l48 171h94z" />
    <glyph glyph-name="uni021A" unicode="&#x21a;" horiz-adv-x="581" 
d="M349 604h-208l18 96h523l-18 -96h-208l-112 -604h-33l-22 -52h6q12 9 32 9q27 0 44 -17.5t17 -44.5q0 -42 -30.5 -71t-75.5 -29q-36 0 -59 21t-18 54h58q0 -10 7.5 -16t18.5 -6q15 0 26.5 11.5t11.5 26.5q0 25 -28 25q-19 0 -28 -15h-57l38 104h-15z" />
    <glyph glyph-name="uni021B" unicode="&#x21b;" horiz-adv-x="435" 
d="M214 437h-94l16 85h60q38 0 46 38l21 111h99l-28 -148h153l-16 -86h-152l-50 -268q-15 -80 62 -80h70l-16 -89h-89h-2l-22 -52h6q12 9 31 9q28 0 45 -17.5t17 -44.5q0 -42 -30.5 -71t-75.5 -29q-36 0 -59 21t-18 54h58q0 -10 7.5 -16t18.5 -6q15 0 26.5 11.5t11.5 26.5
q0 25 -28 25q-19 0 -28 -15h-57l41 112q-48 13 -67.5 54t-7.5 104z" />
    <glyph glyph-name="uni0237" unicode="&#x237;" horiz-adv-x="305" 
d="M9 -230h-48l17 94h38q43 0 70.5 24t34.5 65l106 570h105l-106 -571q-16 -87 -73.5 -134.5t-143.5 -47.5z" />
    <glyph glyph-name="circumflex" unicode="&#x2c6;" horiz-adv-x="386" 
d="M248 608h-90l123 137h100l72 -137h-79l-50 58h-7z" />
    <glyph glyph-name="caron" unicode="&#x2c7;" horiz-adv-x="386" 
d="M256 608l-73 137h79l49 -59h7l71 59h90l-124 -137h-99z" />
    <glyph glyph-name="breve" unicode="&#x2d8;" horiz-adv-x="362" 
d="M185 740h68q-12 -66 49 -66q29 0 48 18t24 48h77q-7 -60 -49.5 -97t-107.5 -37t-95.5 37.5t-13.5 96.5z" />
    <glyph glyph-name="dotaccent" unicode="&#x2d9;" horiz-adv-x="233" 
d="M172 658q0 32 24 56t57 24q26 0 41.5 -14.5t15.5 -38.5q0 -33 -24 -56.5t-58 -23.5q-26 0 -41 14.5t-15 38.5z" />
    <glyph glyph-name="ring" unicode="&#x2da;" horiz-adv-x="285" 
d="M169 655q0 45 33 77.5t81 32.5q38 0 60.5 -20t22.5 -53q0 -49 -31.5 -80.5t-84.5 -31.5q-36 0 -58.5 21t-22.5 54zM228 663q0 -30 32 -30q19 0 33 14.5t14 34.5q0 29 -34 29q-19 0 -32 -14t-13 -34z" />
    <glyph glyph-name="ogonek" unicode="&#x2db;" horiz-adv-x="248" 
d="M25 -127q0 29 19 54q6 6 11 12.5t8.5 10.5t10.5 11l59 60l68 -21l-55 -56q-22 -22 -25 -41q0 -24 30 -24h28l-14 -73h-59q-35 0 -58 18t-23 49z" />
    <glyph glyph-name="tilde" unicode="&#x2dc;" horiz-adv-x="426" 
d="M231 610h-72q9 60 41 93.5t78 33.5q33 0 69 -25t53 -25q16 0 29.5 14.5t16.5 35.5h70q-8 -60 -39.5 -94t-77.5 -34q-33 0 -68 25t-54 25q-18 0 -31 -13t-15 -36z" />
    <glyph glyph-name="hungarumlaut" unicode="&#x2dd;" horiz-adv-x="415" 
d="M237 608h-76l77 146h113zM393 608h-76l77 146h113z" />
    <glyph glyph-name="uni0326" unicode="&#x326;" horiz-adv-x="0" 
d="M-126 -229h-72l48 171h94z" />
    <glyph glyph-name="Wgrave" unicode="&#x1e80;" horiz-adv-x="951" 
d="M198 0l-50 700h114l27 -551h7l241 551h134l37 -551h7l231 551h118l-310 -700h-133l-40 551h-6l-245 -551h-132zM599 787l-67 139h115l30 -139h-78z" />
    <glyph glyph-name="wgrave" unicode="&#x1e81;" horiz-adv-x="867" 
d="M182 0l-58 523h111l32 -399h7l199 399h112l50 -399h7l182 399h112l-252 -523h-126l-50 388h-6l-195 -388h-125zM523 608l-67 139h115l30 -139h-78z" />
    <glyph glyph-name="Wacute" unicode="&#x1e82;" horiz-adv-x="951" 
d="M198 0l-50 700h114l27 -551h7l241 551h134l37 -551h7l231 551h118l-310 -700h-133l-40 551h-6l-245 -551h-132zM653 787h-77l79 139h115z" />
    <glyph glyph-name="wacute" unicode="&#x1e83;" horiz-adv-x="867" 
d="M182 0l-58 523h111l32 -399h7l199 399h112l50 -399h7l182 399h112l-252 -523h-126l-50 388h-6l-195 -388h-125zM577 608h-77l79 139h115z" />
    <glyph glyph-name="Wdieresis" unicode="&#x1e84;" horiz-adv-x="951" 
d="M198 0l-50 700h114l27 -551h7l241 551h134l37 -551h7l231 551h118l-310 -700h-133l-40 551h-6l-245 -551h-132zM483 842q0 28 22 50.5t51 22.5q24 0 38 -13.5t14 -35.5q0 -30 -22 -51.5t-52 -21.5q-22 0 -36.5 13.5t-14.5 35.5zM661 841q0 30 21.5 52t52.5 22
q22 0 36.5 -14.5t14.5 -35.5q0 -28 -22.5 -50t-51.5 -22q-24 0 -37.5 13t-13.5 35z" />
    <glyph glyph-name="wdieresis" unicode="&#x1e85;" horiz-adv-x="867" 
d="M182 0l-58 523h111l32 -399h7l199 399h112l50 -399h7l182 399h112l-252 -523h-126l-50 388h-6l-195 -388h-125zM407 663q0 28 22 50.5t51 22.5q24 0 38 -14t14 -35q0 -30 -22 -51.5t-52 -21.5q-22 0 -36.5 14t-14.5 35zM585 662q0 30 21.5 52t52.5 22q22 0 36.5 -14.5
t14.5 -35.5q0 -28 -22 -50t-52 -22q-24 0 -37.5 13.5t-13.5 34.5z" />
    <glyph glyph-name="uni1E9E" unicode="&#x1e9e;" horiz-adv-x="687" 
d="M197 0h-108l90 484q17 92 88.5 154t181.5 62h259l-19 -105l-195 -170l-2 -10l19 -1q76 -2 124 -47q51 -47 51 -117q2 -105 -71.5 -178.5t-179.5 -71.5h-163l17 97h147q56 0 96 40q42 41 42 92q0 40 -27 66t-69 26h-126l20 106l188 168l2 10h-124q-61 0 -101.5 -34.5
t-50.5 -90.5z" />
    <glyph glyph-name="Ygrave" unicode="&#x1ef2;" horiz-adv-x="644" 
d="M319 270l-171 430h114l123 -321h7l241 321h124l-330 -430l-50 -270h-108zM443 787l-67 139h115l30 -139h-78z" />
    <glyph glyph-name="ygrave" unicode="&#x1ef3;" 
d="M49 -70h95q-1 -40 27 -62.5t82 -22.5q76 0 117.5 39t56.5 118l12 70h-6q-24 -36 -69.5 -59.5t-98.5 -23.5q-88 0 -130 57q-42 58 -26 144l62 333h105l-59 -316q-10 -54 17 -88t78 -34q53 0 97 38q43 37 54 94l57 306h105l-96 -521q-47 -245 -291 -245q-97 0 -146.5 47.5
t-42.5 125.5zM389 608l-67 139h115l30 -139h-78z" />
    <glyph glyph-name="uni2000" unicode="&#x2000;" horiz-adv-x="472" 
 />
    <glyph glyph-name="uni2001" unicode="&#x2001;" horiz-adv-x="944" 
 />
    <glyph glyph-name="uni2002" unicode="&#x2002;" horiz-adv-x="472" 
 />
    <glyph glyph-name="uni2003" unicode="&#x2003;" horiz-adv-x="944" 
 />
    <glyph glyph-name="uni2004" unicode="&#x2004;" horiz-adv-x="314" 
 />
    <glyph glyph-name="uni2005" unicode="&#x2005;" horiz-adv-x="236" 
 />
    <glyph glyph-name="uni2006" unicode="&#x2006;" horiz-adv-x="157" 
 />
    <glyph glyph-name="uni2007" unicode="&#x2007;" horiz-adv-x="157" 
 />
    <glyph glyph-name="uni2008" unicode="&#x2008;" horiz-adv-x="118" 
 />
    <glyph glyph-name="uni2009" unicode="&#x2009;" horiz-adv-x="188" 
 />
    <glyph glyph-name="uni200A" unicode="&#x200a;" horiz-adv-x="52" 
 />
    <glyph glyph-name="uni2010" unicode="&#x2010;" horiz-adv-x="391" 
d="M376 256h-266l18 93h265z" />
    <glyph glyph-name="uni2011" unicode="&#x2011;" horiz-adv-x="391" 
d="M376 256h-266l18 93h265z" />
    <glyph glyph-name="figuredash" unicode="&#x2012;" horiz-adv-x="391" 
d="M376 256h-266l18 93h265z" />
    <glyph glyph-name="endash" unicode="&#x2013;" horiz-adv-x="655" 
d="M640 258h-530l17 89h529z" />
    <glyph glyph-name="emdash" unicode="&#x2014;" horiz-adv-x="915" 
d="M900 258h-790l17 89h790z" />
    <glyph glyph-name="quoteleft" unicode="&#x2018;" horiz-adv-x="256" 
d="M260 463h-109l95 237h76z" />
    <glyph glyph-name="quoteright" unicode="&#x2019;" horiz-adv-x="256" 
d="M226 463h-76l62 237h108z" />
    <glyph glyph-name="quotesinglbase" unicode="&#x201a;" horiz-adv-x="268" 
d="M114 -131h-76l62 237h108z" />
    <glyph glyph-name="quotedblleft" unicode="&#x201c;" horiz-adv-x="423" 
d="M260 463h-109l95 237h74zM427 463h-109l95 237h76z" />
    <glyph glyph-name="quotedblright" unicode="&#x201d;" horiz-adv-x="423" 
d="M226 463h-76l62 237h108zM393 463h-74l59 237h109z" />
    <glyph glyph-name="quotedblbase" unicode="&#x201e;" horiz-adv-x="438" 
d="M116 -131h-76l62 237h109zM283 -131h-74l60 237h109z" />
    <glyph glyph-name="dagger" unicode="&#x2020;" horiz-adv-x="443" 
d="M252 437h-118l17 89h118l32 174h99l-32 -174h120l-16 -89h-120l-82 -437h-99z" />
    <glyph glyph-name="daggerdbl" unicode="&#x2021;" horiz-adv-x="443" 
d="M203 172h-118l16 89h118l33 178h-118l17 89h118l32 172h98l-31 -172h120l-16 -89h-121l-33 -178h121l-17 -89h-121l-32 -172h-98z" />
    <glyph glyph-name="bullet" unicode="&#x2022;" horiz-adv-x="464" 
d="M114 277q0 81 62 143q64 62 145 62q63 0 103 -39.5t40 -99.5q2 -79 -62.5 -143t-144.5 -62q-64 0 -103.5 39t-39.5 100z" />
    <glyph glyph-name="uni202F" unicode="&#x202f;" horiz-adv-x="188" 
 />
    <glyph glyph-name="perthousand" unicode="&#x2030;" horiz-adv-x="1149" 
d="M152 455l23 126q11 61 53.5 96.5t105.5 35.5q60 0 92 -37t21 -95l-23 -126q-11 -61 -53 -96.5t-105 -35.5q-59 0 -92 37t-22 95zM235 26l-59 49l535 601l59 -49zM253 580l-22 -124q-5 -24 8 -41.5t38 -17.5q27 0 46.5 17t23.5 42l23 124q5 24 -9.5 41t-38.5 17
q-27 0 -45.5 -16t-23.5 -42zM498 119l23 126q11 60 53.5 96t105.5 36q61 0 93 -37t21 -95l-23 -126q-12 -61 -54 -96.5t-104 -35.5q-59 0 -92 37t-23 95zM600 244l-23 -124q-4 -24 9.5 -41.5t37.5 -17.5q26 0 45 16.5t24 42.5l23 124q5 24 -9 41t-39 17q-26 0 -44.5 -16
t-23.5 -42zM831 119l23 126q11 61 53.5 96.5t105.5 35.5q60 0 92.5 -37t21.5 -95l-23 -126q-12 -61 -54 -96.5t-105 -35.5q-59 0 -92 37.5t-22 94.5zM933 244l-23 -124q-5 -24 8.5 -41.5t38.5 -17.5q26 0 45 16.5t24 42.5l23 124q4 24 -10 41t-38 17q-26 0 -44.5 -16
t-23.5 -42z" />
    <glyph glyph-name="guilsinglleft" unicode="&#x2039;" horiz-adv-x="323" 
d="M279 101l-168 162l11 58l228 162l-22 -109l-120 -86l-2 -6l89 -86z" />
    <glyph glyph-name="guilsinglright" unicode="&#x203a;" horiz-adv-x="323" 
d="M309 263l-228 -162l22 109l120 86l2 6l-89 86l16 95l168 -162z" />
    <glyph glyph-name="fraction" unicode="&#x2044;" horiz-adv-x="493" 
d="M90 -41h-95l535 782h95z" />
    <glyph glyph-name="uni205F" unicode="&#x205f;" horiz-adv-x="236" 
 />
    <glyph glyph-name="Euro" unicode="&#x20ac;" horiz-adv-x="617" 
d="M117 243h-52l13 69h53l13 73h-52l12 69h52l6 33q20 106 95 165q76 61 177 61q100 0 156 -65t36 -167h-106q11 56 -18.5 93t-83.5 37q-58 0 -98.5 -35.5t-51.5 -94.5l-4 -27h172l-12 -69h-174l-13 -73h173l-13 -69h-175l-4 -24q-11 -56 19 -93t84 -37q59 0 99.5 35
t51.5 95h106q-20 -110 -92.5 -171t-180.5 -61q-93 0 -152 62t-41 164z" />
    <glyph glyph-name="uni2116" unicode="&#x2116;" horiz-adv-x="1172" 
d="M195 0h-106l130 700h108l243 -518h6l96 518h105l-130 -700h-108l-242 518h-6zM1124 212h-331l17 92h331zM836 500q-2 83 64.5 149t151.5 64q67 0 108.5 -40.5t41.5 -103.5q0 -86 -64 -149t-152 -63q-68 0 -109 40t-41 103zM922 514q0 -33 21.5 -54t57.5 -21q47 0 81 34
t34 80q0 34 -21.5 56t-57.5 22q-46 0 -81 -35q-34 -34 -34 -82z" />
    <glyph glyph-name="trademark" unicode="&#x2122;" horiz-adv-x="832" 
d="M265 631h-92l13 69h260l-13 -69h-91l-54 -291h-77zM511 340h-74l66 360h75l73 -254h6l166 254h82l-67 -360h-74l39 213h-4l-137 -213h-48l-61 213h-4z" />
    <glyph glyph-name="arrowleft" unicode="&#x2190;" horiz-adv-x="814" 
d="M473 -66l-296 297v77l296 297l70 -70l-206 -204v-6h562v-109h-562v-6l206 -205z" />
    <glyph glyph-name="arrowup" unicode="&#x2191;" horiz-adv-x="760" 
d="M194 356l-70 70l297 297h77l296 -297l-70 -70l-205 206h-6v-562h-109v562h-6z" />
    <glyph glyph-name="arrowright" unicode="&#x2192;" horiz-adv-x="814" 
d="M747 216h-562v109h562v6l-206 204l70 70l297 -297v-77l-297 -297l-70 71l206 205v6z" />
    <glyph glyph-name="arrowdown" unicode="&#x2193;" horiz-adv-x="760" 
d="M421 -23l-297 297l70 70l204 -206h6v562h109v-562h6l205 206l70 -70l-296 -297h-77z" />
    <glyph glyph-name="uni2196" unicode="&#x2196;" horiz-adv-x="660" 
d="M163 177h-99v419l54 55h420v-99l-290 1l-5 -4l398 -398l-77 -77l-397 398l-5 -5z" />
    <glyph glyph-name="uni2197" unicode="&#x2197;" horiz-adv-x="660" 
d="M258 74l-77 77l398 398l-5 4l-290 -1v99h420l54 -55v-419h-99l1 290l-5 5z" />
    <glyph glyph-name="uni2198" unicode="&#x2198;" horiz-adv-x="660" 
d="M523 89l-398 398l77 77l398 -398l4 5l-1 290h99v-420l-55 -54h-419v99l290 -1z" />
    <glyph glyph-name="uni2199" unicode="&#x2199;" horiz-adv-x="660" 
d="M133 41l-1 420h100l-1 -290l4 -5l397 398l77 -77l-397 -398l4 -4l291 1v-99h-419z" />
    <glyph glyph-name="minus" unicode="&#x2212;" horiz-adv-x="487" 
d="M532 269h-477l16 85h477z" />
    <glyph glyph-name="uni25FC" unicode="&#x25fc;" horiz-adv-x="525" 
d="M525 0h-525v525h525v-525z" />
    <glyph glyph-name="_1" horiz-adv-x="0" 
 />
    <glyph glyph-name="CR" horiz-adv-x="333" 
 />
    <glyph glyph-name="i.loclTRK" horiz-adv-x="256" 
d="M106 120l74 403h105l-73 -388q-4 -21 5 -32.5t27 -11.5h24l-17 -91h-48q-57 0 -82.5 32t-14.5 88zM190 658q0 32 24 56t58 24q26 0 41.5 -14.5t15.5 -38.5q0 -33 -24.5 -56.5t-58.5 -23.5q-25 0 -40.5 15t-15.5 38z" />
    <glyph glyph-name="zero.tf" horiz-adv-x="618" 
d="M116 213l50 274q19 105 95 165.5t176 60.5q94 0 154 -62t40 -164l-50 -274q-19 -105 -95 -165.5t-176 -60.5q-94 0 -154 62t-40 164zM271 481l-48 -262q-11 -56 18.5 -93t83.5 -37q59 0 99.5 35.5t51.5 94.5l48 262q11 56 -18.5 93t-83.5 37q-58 0 -98.5 -35.5
t-52.5 -94.5z" />
    <glyph glyph-name="one.tf" horiz-adv-x="618" 
d="M440 515h-167l15 83q95 0 139.5 24t54.5 78h100l-130 -700h-107z" />
    <glyph glyph-name="two.tf" horiz-adv-x="618" 
d="M533 0h-448l18 101q13 67 54.5 116.5t121.5 93.5l143 80q95 53 95 135q0 40 -26.5 63.5t-74.5 23.5q-55 0 -92.5 -32t-45.5 -81h-102q13 89 81 151t177 62q88 0 141 -50q52 -49 52 -123q0 -140 -164 -232l-142 -79q-53 -31 -77 -58t-30 -62l-3 -13h340z" />
    <glyph glyph-name="three.tf" horiz-adv-x="618" 
d="M116 201h100q-7 -49 21 -80.5t83 -31.5q65 0 109 44q45 43 45 108q0 45 -30.5 72.5t-80.5 27.5h-87l15 86l197 170l1 6h-284l18 97h423l-18 -96l-202 -170l-1 -6q72 -6 115.5 -53t43.5 -117q0 -118 -78 -195q-78 -75 -203 -75q-102 0 -152 65.5t-35 147.5z" />
    <glyph glyph-name="four.tf" horiz-adv-x="618" 
d="M396 158h-305l16 88l290 454h115l-281 -440l-1 -6h183l29 153h106l-28 -153h84l-17 -96h-85l-29 -158h-107z" />
    <glyph glyph-name="five.tf" horiz-adv-x="618" 
d="M111 192h100q-4 -49 24.5 -77t84.5 -28q63 0 111 49q48 50 48 113q0 48 -31 76t-85 28q-71 0 -120 -58h-100l100 405h386l-18 -97h-292l-50 -196h5l6 4q51 37 121 37q84 0 135 -53q52 -52 52 -130q3 -112 -80.5 -196t-202.5 -82q-97 0 -151 58t-43 147z" />
    <glyph glyph-name="six.tf" horiz-adv-x="618" 
d="M106 183q0 89 64 174l258 343h124l-203 -256l3 -4q28 9 56 9q80 0 133 -49q54 -50 54 -131q0 -118 -82.5 -200t-204.5 -82q-86 0 -145 56q-57 55 -57 140zM215 193q0 -46 30 -75.5t80 -29.5q65 0 111 48q48 48 48 113q0 48 -30 77.5t-80 29.5q-64 0 -112 -49
q-47 -49 -47 -114z" />
    <glyph glyph-name="seven.tf" horiz-adv-x="618" 
d="M286 0h-120l357 597l1 6h-324l18 97h442l-17 -91z" />
    <glyph glyph-name="eight.tf" horiz-adv-x="618" 
d="M100 163q0 66 41 122t110 86l2 6q-27 19 -45 50.5t-18 68.5q0 91 71 154q72 63 179 63q80 0 132 -44q51 -43 51 -114q0 -56 -31 -104t-84 -74l-2 -6q85 -45 85 -137q0 -107 -79 -177t-206 -70q-91 0 -149 49q-57 50 -57 127zM212 179q0 -43 30 -69.5t82 -26.5
q65 0 111 41q46 40 46 101q0 44 -31 70t-82 26q-64 0 -111 -42q-45 -41 -45 -100zM296 497q0 -36 24.5 -59.5t65.5 -23.5q52 0 90 36q38 38 38 86q0 36 -24 58.5t-66 22.5q-54 0 -92 -35q-36 -34 -36 -85z" />
    <glyph glyph-name="nine.tf" horiz-adv-x="618" 
d="M153 431q0 118 82.5 200t205.5 82q85 0 143 -56q58 -55 58 -140q0 -89 -64 -174l-258 -343h-123l202 256l-3 4q-27 -9 -55 -9q-81 0 -134 49q-54 50 -54 131zM265 451q0 -48 29.5 -77.5t79.5 -29.5q64 0 111 48q48 50 48 115q0 46 -29.5 75.5t-79.5 29.5q-66 0 -112 -48
q-47 -47 -47 -113z" />
    <glyph glyph-name="caron.Slovak" horiz-adv-x="203" 
d="M224 511h-79l35 189h103z" />
    <glyph glyph-name="NULL" horiz-adv-x="0" 
 />
    </font>
</defs>
</svg>
