<?xml version="1.0" standalone="no"?>
<!DOCTYPE svg PUBLIC "-//W3C//DTD SVG 1.1//EN" "http://www.w3.org/Graphics/SVG/1.1/DTD/svg11.dtd" >
<svg xmlns="http://www.w3.org/2000/svg" xmlns:xlink="http://www.w3.org/1999/xlink" version="1.1">
<metadata>
Created by FontForge 20170731 at Fri Sep  7 20:18:44 2018
 By Aleksey,,,
Copyright (c) 2018 by atipo. All rights reserved. |DCNT
</metadata>
<defs>
<font id="Silka-RegularItalic" horiz-adv-x="598" >
  <font-face 
    font-family="Silka"
    font-weight="400"
    font-style="italic"
    font-stretch="normal"
    units-per-em="1000"
    panose-1="0 0 5 0 0 0 0 0 0 0"
    ascent="750"
    descent="-250"
    x-height="520"
    cap-height="700"
    bbox="-187 -243 1195 943"
    underline-thickness="50"
    underline-position="-399"
    unicode-range="U+000D-25FC"
  />
<missing-glyph horiz-adv-x="568" 
d="M534 0h-500l130 700h500zM196 605l-94 -510l217 255zM341 305l-218 -255h340zM574 650h-340l123 -255zM596 605l-217 -255l123 -255z" />
    <glyph glyph-name="ellipsis" unicode="&#x2e;&#x2e;&#x2e;" horiz-adv-x="736" 
d="M87 33q0 26 20.5 46t47.5 20q20 0 33.5 -13t13.5 -33q0 -25 -20.5 -45.5t-46.5 -20.5q-21 0 -34.5 13.5t-13.5 32.5zM319 33q0 26 20.5 46t46.5 20q21 0 34.5 -13t13.5 -33q0 -25 -21 -45.5t-47 -20.5q-20 0 -33.5 13.5t-13.5 32.5zM550 33q0 26 21 46t47 20q21 0 34 -13
t13 -33q0 -25 -20.5 -45.5t-46.5 -20.5q-20 0 -34 13.5t-14 32.5z" />
    <glyph glyph-name="degree.alt" unicode="&#xb0;C" horiz-adv-x="992" 
d="M163 539q0 70 50 122q51 52 126 52q56 0 89.5 -32.5t33.5 -83.5q0 -72 -51 -123q-50 -50 -126 -50q-56 0 -89 32t-33 83zM227 550q0 -30 18.5 -48.5t50.5 -18.5q41 0 71 30q30 31 30 74q0 30 -18.5 48.5t-50.5 18.5q-41 0 -71 -31t-30 -73zM479 209l52 282q19 103 93 162
q74 60 171 60t151 -65q54 -64 36 -162h-80q12 64 -22 107t-96 43q-68 0 -114.5 -41.5t-59.5 -108.5l-50 -272q-12 -65 21.5 -107.5t96.5 -42.5q69 0 115 41t59 109h80q-18 -107 -89.5 -167t-175.5 -60q-90 0 -148 61.5t-40 160.5z" />
    <glyph glyph-name=".notdef" horiz-adv-x="568" 
d="M534 0h-500l130 700h500zM196 605l-94 -510l217 255zM341 305l-218 -255h340zM574 650h-340l123 -255zM596 605l-217 -255l123 -255z" />
    <glyph glyph-name=".null" horiz-adv-x="0" 
 />
    <glyph glyph-name="nonmarkingreturn" horiz-adv-x="333" 
 />
    <glyph glyph-name="CR.001" unicode="&#xd;" horiz-adv-x="0" 
 />
    <glyph glyph-name="space" unicode=" " horiz-adv-x="280" 
 />
    <glyph glyph-name="exclam" unicode="!" horiz-adv-x="313" 
d="M107 33q0 26 20.5 46t47.5 20q20 0 33.5 -13t13.5 -33q0 -25 -20.5 -45.5t-46.5 -20.5q-21 0 -34.5 13.5t-13.5 32.5zM214 176h-49l29 248l51 276h83l-51 -276z" />
    <glyph glyph-name="quotedbl" unicode="&#x22;" horiz-adv-x="362" 
d="M237 502h-58l31 198h70zM369 502h-59l32 198h70z" />
    <glyph glyph-name="numbersign" unicode="#" horiz-adv-x="571" 
d="M178 212h-79l12 65h89l49 145h-81l12 65h90l72 213h71l-72 -213h109l72 213h71l-72 -213h80l-12 -65h-89l-49 -145h81l-12 -65h-91l-71 -212h-71l71 212h-109l-71 -212h-71zM320 422l-49 -145h109l49 145h-109z" />
    <glyph glyph-name="dollar" unicode="$" horiz-adv-x="588" 
d="M84 208h81q-10 -59 18 -96.5t89 -46.5l49 268q-75 24 -110 51q-49 45 -49 112q0 90 64 148t165 67l10 55h67l-10 -55q81 -8 129 -59t31 -142h-83q10 52 -14 85.5t-77 41.5l-45 -244q70 -22 107 -44q71 -46 71 -128q0 -103 -68 -164.5t-185 -68.5l-13 -73h-67l14 74
q-91 10 -141 71q-49 60 -33 148zM246 504q0 -32 22.5 -53.5t67.5 -37.5l41 224q-59 -9 -95 -45.5t-36 -87.5zM384 313l-46 -250q72 7 113.5 45t41.5 100q0 40 -26 63t-83 42z" />
    <glyph glyph-name="percent" unicode="%" horiz-adv-x="807" 
d="M154 455l23 126q10 60 52 96t104 36q60 0 91.5 -37t20.5 -95l-23 -126q-12 -61 -52.5 -96.5t-102.5 -35.5q-57 0 -91 37q-32 37 -22 95zM224 26l-52 42l540 606l52 -42zM245 580l-23 -124q-5 -28 10.5 -47.5t43.5 -19.5q30 0 52 18.5t27 48.5l23 124q5 27 -11 46.5
t-44 19.5q-30 0 -51.5 -18.5t-26.5 -47.5zM491 119l23 126q11 61 52.5 96.5t103.5 35.5q59 0 91 -37t21 -95l-23 -126q-12 -61 -52.5 -96.5t-102.5 -35.5q-57 0 -91 37q-32 37 -22 95zM582 244l-23 -124q-5 -28 10.5 -47.5t43.5 -19.5q30 0 52 18.5t27 48.5l23 124
q5 27 -11.5 46.5t-43.5 19.5q-30 0 -51.5 -18.5t-26.5 -47.5z" />
    <glyph glyph-name="ampersand" unicode="&#x26;" horiz-adv-x="678" 
d="M86 169q0 128 169 204l9 4q-51 69 -51 137q0 85 57 142t154 57q72 0 115 -40q44 -39 44 -97q0 -78 -48 -128q-41 -41 -105 -70l-50 -23l137 -184q81 97 75 224h76q4 -76 -24 -151t-82 -135q16 -22 28 -30t29 -8h34l-13 -71h-42q-33 0 -53 12.5t-41 44.5q-97 -70 -218 -70
q-86 0 -144 50q-56 50 -56 132zM167 169q0 -48 36 -79t92 -31q91 0 165 57l-154 205l-17 -8q-122 -56 -122 -144zM293 518q0 -44 45 -108l59 27q55 25 80.5 54.5t25.5 73.5q0 34 -23.5 56t-62.5 22q-52 0 -88 -36t-36 -89z" />
    <glyph glyph-name="quotesingle" unicode="'" horiz-adv-x="230" 
d="M237 502h-58l31 198h70z" />
    <glyph glyph-name="parenleft" unicode="(" horiz-adv-x="453" 
d="M93 214q0 172 96 318q98 148 269 231l35 -60q-143 -73 -232 -204q-88 -128 -88 -275q0 -100 46 -179t128 -128l-47 -60q-97 58 -152 149.5t-55 207.5z" />
    <glyph glyph-name="parenright" unicode=")" horiz-adv-x="453" 
d="M110 -143l-35 60q143 73 232 203q88 130 88 276q0 100 -46 179t-128 128l47 60q96 -56 151.5 -148.5t55.5 -208.5q0 -173 -97 -319q-97 -147 -268 -230z" />
    <glyph glyph-name="asterisk" unicode="*" horiz-adv-x="492" 
d="M294 514l-126 -10l9 50l122 -10l6 8l-81 80l42 36l63 -96l8 4l13 124h50l-33 -124l8 -4l97 96l30 -36l-111 -80l2 -8l126 10l-9 -50l-122 10l-6 -8l82 -80l-43 -36l-62 96l-9 -4l-13 -124h-50l33 124l-7 4l-98 -96l-29 36l110 80z" />
    <glyph glyph-name="plus" unicode="+" horiz-adv-x="480" 
d="M256 278h-199l12 67h199l40 213h72l-40 -213h199l-12 -67h-199l-40 -214h-72z" />
    <glyph glyph-name="comma" unicode="," horiz-adv-x="266" 
d="M120 -131h-58l59 224h87z" />
    <glyph glyph-name="hyphen" unicode="-" horiz-adv-x="395" 
d="M374 264h-255l14 74h255z" />
    <glyph glyph-name="period" unicode="." horiz-adv-x="273" 
d="M87 33q0 26 20.5 46t47.5 20q20 0 33.5 -13t13.5 -33q0 -25 -20.5 -45.5t-46.5 -20.5q-21 0 -34.5 13.5t-13.5 32.5z" />
    <glyph glyph-name="slash" unicode="/" horiz-adv-x="486" 
d="M108 -108h-77l462 858h77z" />
    <glyph glyph-name="zero" unicode="0" horiz-adv-x="622" 
d="M124 209l52 282q20 103 93 162q73 60 171 60q90 0 148 -61t40 -161l-52 -282q-20 -105 -93 -163q-74 -59 -171 -59q-90 0 -148 61.5t-40 160.5zM255 486l-50 -272q-12 -65 21.5 -107.5t96.5 -42.5q69 0 115 41t59 109l50 272q12 64 -22 107t-96 43q-68 0 -114.5 -41.5
t-59.5 -108.5z" />
    <glyph glyph-name="one" unicode="1" horiz-adv-x="451" 
d="M359 535h-170l12 65q95 0 139 23t55 77h76l-130 -700h-81z" />
    <glyph glyph-name="two" unicode="2" horiz-adv-x="586" 
d="M516 0h-435l16 89q13 66 55 115.5t123 94.5l142 80q107 61 107 157q0 47 -30 74t-85 27q-63 0 -105 -36t-51 -93h-79q13 86 77.5 145.5t170.5 59.5q85 0 135 -50q51 -49 51 -120q0 -139 -160 -228l-137 -78q-65 -38 -94.5 -71t-37.5 -76l-3 -16h354z" />
    <glyph glyph-name="three" unicode="3" horiz-adv-x="610" 
d="M116 193h76q-9 -56 23.5 -92.5t95.5 -36.5q76 0 127 51q51 53 51 127q0 53 -35 84.5t-92 31.5h-81l12 69l216 193l1 6h-298l14 74h407l-14 -75l-219 -191l-1 -6q81 -3 127 -52q48 -50 48 -121q0 -114 -76 -190.5t-200 -76.5q-100 -1 -147.5 63.5t-34.5 141.5z" />
    <glyph glyph-name="four" unicode="4" horiz-adv-x="607" 
d="M403 177h-305l12 64l308 459h89l-299 -445l-1 -6h209l30 158h80l-30 -158h92l-13 -72h-92l-33 -177h-80z" />
    <glyph glyph-name="five" unicode="5" horiz-adv-x="608" 
d="M109 182h76q-5 -57 28.5 -88.5t97.5 -31.5q73 0 129 57q55 58 55 134q0 55 -36 88t-98 33q-55 0 -96 -29q-23 -16 -45 -40h-74l97 395h376l-14 -74h-304l-57 -225h6q6 5 17 13t46.5 21t73.5 13q85 0 138 -53t53 -132q3 -110 -80.5 -194t-197.5 -82q-92 0 -147 54
q-54 54 -44 141z" />
    <glyph glyph-name="six" unicode="6" horiz-adv-x="628" 
d="M116 179q0 89 64 173l263 348h92l-205 -261l3 -4q31 12 67 12q86 0 139 -51q54 -51 54 -132q2 -113 -80.5 -196t-199.5 -81q-87 0 -142 55t-55 137zM199 185q0 -54 34.5 -88t91.5 -34q74 0 128 55q55 55 55 132q0 55 -34.5 89.5t-91.5 34.5q-73 0 -129 -56
q-54 -56 -54 -133z" />
    <glyph glyph-name="seven" unicode="7" horiz-adv-x="555" 
d="M248 0h-90l364 620l1 6h-342l14 74h430l-13 -69z" />
    <glyph glyph-name="eight" unicode="8" horiz-adv-x="628" 
d="M112 160q0 68 43 125.5t114 85.5l2 6q-27 15 -47 49t-20 73q0 89 69 151q71 63 173 63q74 0 124 -44q49 -43 49 -113q0 -56 -32.5 -105t-86.5 -74l-2 -6q39 -17 64.5 -52.5t25.5 -86.5q0 -104 -78 -174.5t-199 -70.5q-88 0 -143 48q-56 48 -56 125zM197 170q0 -49 34 -79
t94 -30q74 0 127 47q52 46 52 116q0 50 -35.5 79.5t-93.5 29.5q-73 0 -126 -48q-52 -46 -52 -115zM287 501q0 -41 28 -67.5t74 -26.5q61 0 104 41q42 40 42 98q0 41 -28 66.5t-75 25.5q-64 0 -104 -40q-41 -41 -41 -97z" />
    <glyph glyph-name="nine" unicode="9" horiz-adv-x="628" 
d="M165 436q0 115 80.5 196t199.5 81q86 0 141 -55q56 -56 56 -137q0 -88 -64 -173l-263 -348h-92l205 261l-3 4q-31 -12 -67 -12q-87 0 -140 51t-53 132zM250 450q0 -55 34 -89.5t92 -34.5q74 0 128 56q55 56 55 133q0 55 -34 88.5t-92 33.5q-73 0 -129 -56
q-54 -55 -54 -131z" />
    <glyph glyph-name="colon" unicode=":" horiz-adv-x="273" 
d="M87 33q0 26 20.5 46t47.5 20q20 0 33.5 -13t13.5 -33q0 -25 -20.5 -45.5t-46.5 -20.5q-21 0 -34.5 13.5t-13.5 32.5zM159 421q0 25 21 45.5t47 20.5q21 0 34 -13.5t13 -32.5q0 -26 -21 -46.5t-47 -20.5q-20 0 -33.5 13.5t-13.5 33.5z" />
    <glyph glyph-name="semicolon" unicode=";" horiz-adv-x="273" 
d="M120 -131h-58l59 224h87zM159 421q0 25 21.5 45.5t47.5 20.5q20 0 33 -13.5t13 -32.5q0 -26 -21 -46.5t-46 -20.5q-20 0 -34 13.5t-14 33.5z" />
    <glyph glyph-name="less" unicode="&#x3c;" horiz-adv-x="556" 
d="M499 95l-373 179l14 76l439 179l-13 -74l-358 -139l-1 -6l305 -142z" />
    <glyph glyph-name="equal" unicode="=" horiz-adv-x="480" 
d="M510 191h-470l12 67h470zM541 357h-470l12 66h470z" />
    <glyph glyph-name="greater" unicode="&#x3e;" horiz-adv-x="557" 
d="M532 274l-439 -179l14 73l358 142l1 6l-306 139l13 74l373 -179z" />
    <glyph glyph-name="question" unicode="?" horiz-adv-x="542" 
d="M239 515h-74q11 81 72.5 139.5t162.5 58.5q79 0 125 -46q48 -45 48 -110q0 -35 -11 -65t-32 -54t-35.5 -36.5t-36.5 -28.5l-5 -4l-63 -47q-45 -36 -52 -77l-11 -59h-78l11 59q8 42 26 68t58 57l66 51q26 19 51 48q29 33 29 83q0 40 -27 64.5t-75 24.5q-60 0 -101.5 -36
t-47.5 -90zM206 33q0 26 20.5 46t47.5 20q20 0 33 -13t13 -33q0 -26 -20 -46t-47 -20q-20 0 -33.5 13.5t-13.5 32.5z" />
    <glyph glyph-name="at" unicode="@" horiz-adv-x="922" 
d="M108 182q0 98 39 189t105 158t157.5 107t192.5 40q153 0 247.5 -87.5t94.5 -219.5q2 -124 -62.5 -216.5t-150.5 -90.5q-43 0 -68 20.5t-29 55.5h-6q-22 -32 -62.5 -54t-89.5 -22q-70 0 -113.5 42.5t-43.5 111.5q-3 94 65.5 168t159.5 72q82 0 114 -58h6l9 52h67l-47 -255
q-12 -73 55 -73q52 0 91.5 71t39.5 166q0 114 -77 185q-77 72 -212 72q-80 0 -156 -34.5t-134 -93.5q-56 -58 -89 -137t-33 -161q0 -124 78 -199q80 -75 218 -75h167l-11 -61h-167q-161 0 -258 91q-97 90 -97 236zM392 227q0 -47 28 -75t73 -28q64 0 107 49q44 50 44 119
q0 46 -27.5 73.5t-74.5 27.5q-63 0 -106 -49q-44 -50 -44 -117z" />
    <glyph glyph-name="A" unicode="A" horiz-adv-x="674" 
d="M112 0h-92l398 700h97l139 -700h-85l-32 166h-334zM446 606l-204 -366h280l-70 366h-6z" />
    <glyph glyph-name="B" unicode="B" horiz-adv-x="612" 
d="M351 0h-251l130 700h226q85 0 133.5 -41t48.5 -108q0 -59 -32.5 -107.5t-87.5 -73.5l-2 -6q38 -14 62 -47t24 -81q0 -101 -70 -168q-71 -68 -181 -68zM241 329l-48 -258h152q75 0 124 44q49 43 49 113q0 49 -37 75t-97 26h-143zM296 628l-42 -231h143q66 0 110 40
q46 40 46 100q0 42 -30.5 66.5t-80.5 24.5h-146z" />
    <glyph glyph-name="C" unicode="C" horiz-adv-x="805" 
d="M108 278q0 116 56.5 215.5t156.5 159.5t221 60q118 0 194 -65q76 -64 91 -172h-87q-12 76 -69.5 118.5t-142.5 42.5q-134 0 -234.5 -104t-100.5 -242q0 -101 63 -165q64 -63 166 -63q90 0 161.5 42t107.5 119h90q-49 -114 -143.5 -175.5t-230.5 -61.5q-135 0 -217 81
q-82 82 -82 210z" />
    <glyph glyph-name="D" unicode="D" horiz-adv-x="710" 
d="M312 0h-212l130 700h208q140 0 217 -72.5t77 -197.5q4 -186 -114.5 -309t-305.5 -121zM297 627l-103 -555h127q140 -3 234.5 98t92.5 249q0 97 -58.5 152.5t-165.5 55.5h-127z" />
    <glyph glyph-name="E" unicode="E" horiz-adv-x="560" 
d="M510 0h-410l130 700h399l-14 -74h-318l-43 -233h274l-14 -73h-274l-45 -247h329z" />
    <glyph glyph-name="F" unicode="F" horiz-adv-x="549" 
d="M181 0h-81l130 700h399l-14 -74h-318l-44 -240h297l-14 -73h-297z" />
    <glyph glyph-name="G" unicode="G" horiz-adv-x="813" 
d="M108 276q0 180 126 308.5t308 128.5q118 0 194 -63t93 -164h-90q-16 71 -71 111t-140 40q-136 3 -237 -102t-98 -247q0 -101 62 -163t169 -62q108 0 194 65t109 169h-284l13 71h375q-12 -95 -52 -169.5t-98.5 -120t-127 -68.5t-142.5 -23q-135 0 -220 80q-83 81 -83 209z
" />
    <glyph glyph-name="H" unicode="H" horiz-adv-x="734" 
d="M181 0h-81l130 700h81l-57 -307h372l57 307h81l-130 -700h-81l59 319h-372z" />
    <glyph glyph-name="I" unicode="I" horiz-adv-x="281" 
d="M181 0h-81l130 700h81z" />
    <glyph glyph-name="J" unicode="J" horiz-adv-x="577" 
d="M75 187h77q-2 -18 -2 -25q0 -42 24 -67q32 -33 99 -33q76 0 117.5 43t54.5 109l77 412h-270l14 74h351l-90 -484q-18 -99 -84.5 -164t-184.5 -65q-65 0 -114.5 28.5t-64.5 83.5q-7 21 -7 49q0 20 3 39z" />
    <glyph glyph-name="K" unicode="K" horiz-adv-x="618" 
d="M181 0h-81l130 700h81l-66 -353h6l360 353h105l-308 -297l124 -284q11 -25 24 -35.5t34 -10.5h32l-13 -73h-38q-71 0 -105 75l-119 269l-125 -121z" />
    <glyph glyph-name="L" unicode="L" horiz-adv-x="533" 
d="M483 0h-383l130 700h81l-116 -627h302z" />
    <glyph glyph-name="M" unicode="M" horiz-adv-x="906" 
d="M178 0h-78l130 700h84l154 -611h6l367 611h95l-130 -700h-79l97 522h-6l-312 -522h-92l-133 522h-6z" />
    <glyph glyph-name="N" unicode="N" horiz-adv-x="735" 
d="M181 0h-81l130 700h77l268 -559h6l104 559h80l-130 -700h-78l-266 559h-6z" />
    <glyph glyph-name="O" unicode="O" horiz-adv-x="824" 
d="M108 276q0 179 127.5 308t308.5 129q137 0 219 -82q83 -83 83 -209q0 -180 -128 -307.5t-309 -127.5q-136 0 -219 80q-82 81 -82 209zM193 290q0 -101 63 -164t168 -63q136 0 236.5 103.5t100.5 242.5q0 101 -64 164q-63 64 -167 64q-66 0 -128.5 -27.5t-108.5 -75.5
t-73 -112.5t-27 -131.5z" />
    <glyph glyph-name="P" unicode="P" horiz-adv-x="605" 
d="M181 0h-81l130 700h246q82 0 133 -48t51 -122q1 -110 -75 -182.5t-183 -70.5h-170zM297 628l-51 -279h163q70 0 118 48q49 49 49 123q0 49 -31 78.5t-85 29.5h-163z" />
    <glyph glyph-name="Q" unicode="Q" horiz-adv-x="824" 
d="M108 276q0 179 127.5 308t308.5 129q137 0 219 -82q83 -83 83 -209q0 -93 -38 -178t-107 -146q20 -25 53 -25h42l-13 -73h-42q-34 0 -56.5 12t-43.5 41q-107 -66 -232 -66q-136 0 -219 80q-82 81 -82 209zM193 290q0 -101 63 -164t168 -63q93 0 176 53l-117 182h91
l84 -134q103 103 103 245q0 101 -64 164q-63 64 -167 64q-66 0 -128.5 -27.5t-108.5 -75.5t-73 -112.5t-27 -131.5z" />
    <glyph glyph-name="R" unicode="R" horiz-adv-x="628" 
d="M181 0h-81l130 700h237q89 0 141.5 -49.5t52.5 -129.5q0 -88 -51 -148t-137 -82l61 -176q10 -24 21.5 -33t32.5 -9h35l-13 -73h-45q-39 0 -62.5 17.5t-37.5 57.5l-71 208h-161zM297 628l-50 -273h156q76 0 124 45.5t48 120.5q0 47 -33.5 77t-93.5 30h-151z" />
    <glyph glyph-name="S" unicode="S" horiz-adv-x="588" 
d="M84 208h81q-2 -22 -2 -29q0 -47 29 -78q38 -39 118 -39q83 0 133 39t50 107q0 43 -34 69t-82.5 39.5t-97.5 30t-83 53.5t-34 96q0 97 75 157t189 60q65 0 118 -28t71 -82q8 -24 8 -51q0 -17 -5 -42h-83q3 15 3 29q0 39 -24 65q-33 35 -103 35q-73 0 -119 -39
q-46 -37 -46 -96q0 -33 24.5 -56t61.5 -34t79.5 -25.5t79.5 -31t61.5 -51.5t24.5 -85q0 -111 -78 -173q-76 -61 -206 -61q-106 0 -166 62q-47 50 -47 118q0 22 4 41z" />
    <glyph glyph-name="T" unicode="T" horiz-adv-x="569" 
d="M360 626h-214l14 74h509l-14 -74h-214l-116 -626h-81z" />
    <glyph glyph-name="U" unicode="U" horiz-adv-x="702" 
d="M137 251l83 449h81l-83 -448q-5 -30 -5 -50q0 -55 25 -89q36 -51 125 -51q86 0 142.5 50.5t73.5 140.5l83 447h80l-83 -448q-22 -126 -100.5 -195.5t-205.5 -69.5q-123 0 -180 73q-42 52 -42 129q0 29 6 62z" />
    <glyph glyph-name="V" unicode="V" horiz-adv-x="659" 
d="M279 0l-129 700h85l103 -611h6l332 611h93l-395 -700h-95z" />
    <glyph glyph-name="W" unicode="W" horiz-adv-x="928" 
d="M199 0l-49 700h85l32 -601h6l268 601h102l46 -601h6l254 601h89l-309 -700h-105l-47 591h-6l-267 -591h-105z" />
    <glyph glyph-name="X" unicode="X" horiz-adv-x="596" 
d="M110 0h-100l302 355l-160 345h89l127 -280h6l232 280h100l-290 -345l170 -355h-91l-137 291h-6z" />
    <glyph glyph-name="Y" unicode="Y" horiz-adv-x="632" 
d="M325 269l-175 431h86l139 -348h6l267 348h94l-335 -431l-50 -269h-82z" />
    <glyph glyph-name="Z" unicode="Z" horiz-adv-x="619" 
d="M569 0h-519l15 80l514 541l1 6h-401l14 73h504l-15 -80l-514 -541l-1 -6h416z" />
    <glyph glyph-name="bracketleft" unicode="[" horiz-adv-x="427" 
d="M280 -143h-212l168 906h212l-13 -69h-133l-142 -768h133z" />
    <glyph glyph-name="backslash" unicode="\" horiz-adv-x="486" 
d="M341 -108l-144 858h70l144 -858h-70z" />
    <glyph glyph-name="bracketright" unicode="]" horiz-adv-x="427" 
d="M305 -143h-212l13 69h133l142 768h-133l13 69h212z" />
    <glyph glyph-name="asciicircum" unicode="^" horiz-adv-x="584" 
d="M208 318h-74l250 382h76l108 -382h-73l-85 308h-6z" />
    <glyph glyph-name="underscore" unicode="_" horiz-adv-x="670" 
d="M587 -95h-540l12 66h540z" />
    <glyph glyph-name="grave" unicode="`" horiz-adv-x="252" 
d="M252 610l-68 133h96l35 -133h-63z" />
    <glyph glyph-name="a" unicode="a" horiz-adv-x="676" 
d="M93 199q0 138 91.5 236t218.5 98q70 0 111 -32t54 -65h6l15 84h77l-76 -413q-1 -4 -1 -11q0 -11 5 -19q8 -11 26 -11h26l-13 -66h-48q-40 0 -59 22q-15 18 -15 42q0 9 1 14l1 6h-7q-30 -35 -52 -50q-65 -47 -147 -47q-98 0 -156 58t-58 154zM175 210q0 -70 40.5 -111
t110.5 -41q95 -2 160 73t63 178q0 71 -41 111.5t-110 40.5q-89 2 -157 -74.5t-66 -176.5z" />
    <glyph glyph-name="b" unicode="b" horiz-adv-x="661" 
d="M166 0h-76l139 750h79l-58 -314h6q20 26 66 58q59 39 135 39q95 0 151 -59q57 -58 57 -154q0 -139 -89 -236t-224 -97q-63 0 -104 27q-48 34 -61 68h-6zM210 213q0 -69 39.5 -112t108.5 -43q91 -2 159 73t66 175q0 70 -40.5 112.5t-108.5 42.5q-92 0 -158 -73
q-66 -74 -66 -175z" />
    <glyph glyph-name="c" unicode="c" horiz-adv-x="623" 
d="M93 209q-3 133 93 230t229 94q86 0 148 -50q61 -49 64 -134h-82q-6 51 -45 81.5t-96 30.5q-93 2 -162 -73t-66 -172q0 -71 42.5 -114t112.5 -43q61 0 111 30.5t71 81.5h82q-29 -87 -103.5 -135.5t-176.5 -48.5q-100 0 -162 62q-60 63 -60 160z" />
    <glyph glyph-name="d" unicode="d" horiz-adv-x="681" 
d="M93 199q-3 133 91.5 235t218.5 99q70 0 111 -32t54 -65h6l58 314h79l-119 -641q-1 -4 -1 -11q0 -11 5 -19q8 -11 26 -11h26l-13 -68h-50q-41 0 -61 21q-15 18 -15 41q0 9 1 14l1 6h-7l-16 -19l-25 -22q-20 -17 -40 -28q-52 -26 -116 -26q-98 0 -156 58t-58 154zM175 210
q0 -70 40.5 -111t110.5 -41q95 -2 160 73t63 178q0 71 -41 111.5t-110 40.5q-89 2 -157 -74.5t-66 -176.5z" />
    <glyph glyph-name="e" unicode="e" horiz-adv-x="609" 
d="M93 204q0 139 86 234t222 95q89 0 142 -42.5t67 -116.5q4 -19 4 -44q0 -32 -7 -63l-6 -35h-422q-1 -11 -1 -30q0 -60 30 -98q38 -47 116 -47q54 0 102 25.5t72 70.5h83q-28 -74 -102 -121q-73 -45 -169 -45q-101 0 -159 59.5t-58 157.5zM194 302h337q1 7 1 19
q0 63 -34 98q-39 42 -106 42q-69 0 -125 -43q-57 -45 -73 -116z" />
    <glyph glyph-name="f" unicode="f" horiz-adv-x="404" 
d="M164 -230h-79l127 683h-98l12 67h98l12 62q15 79 70 123.5t139 44.5h49l-13 -69h-48q-47 0 -78 -27.5t-40 -72.5l-12 -61h152l-12 -67h-152z" />
    <glyph glyph-name="g" unicode="g" horiz-adv-x="650" 
d="M77 -81h75q2 -44 38 -68.5t96 -24.5q88 0 141 45.5t68 128.5l15 82h-6q-13 -17 -45 -42q-67 -53 -152 -53q-99 0 -157 58t-58 154q-3 133 91.5 235t218.5 99q70 0 111 -32t54 -65h6l15 84h79l-96 -520q-45 -243 -297 -243q-92 0 -144.5 44.5t-52.5 117.5zM174 210
q0 -70 40.5 -111t110.5 -41q89 -2 157 74.5t66 176.5q0 71 -41 111.5t-110 40.5q-89 2 -157 -74.5t-66 -176.5z" />
    <glyph glyph-name="h" unicode="h" horiz-adv-x="612" 
d="M169 0h-79l139 750h79l-57 -306h6q26 38 74 63.5t104 25.5q59 0 99 -27q40 -26 55 -74q9 -28 8 -58q0 -24 -4 -47l-61 -327h-79l60 322q3 15 3 30q0 43 -25 69q-35 38 -89 38q-60 0 -112 -41q-50 -41 -62 -102z" />
    <glyph glyph-name="i" unicode="i" horiz-adv-x="280" 
d="M109 98l77 422h79l-76 -409q-1 -4 -1 -11q0 -11 5 -19q8 -11 26 -11h26l-13 -70h-40q-47 0 -70 26q-16 19 -16 48q0 10 3 24zM196 660q0 28 20.5 48.5t48.5 20.5q22 0 35.5 -13t13.5 -33q0 -28 -21 -48.5t-49 -20.5q-21 0 -34.5 13.5t-13.5 32.5z" />
    <glyph glyph-name="j" unicode="j" horiz-adv-x="318" 
d="M1 -230h-39l13 72h39q46 0 75.5 25.5t38.5 71.5l109 581h79l-108 -582q-16 -81 -70 -124.5t-137 -43.5zM246 660q0 28 20.5 48.5t48.5 20.5q21 0 34.5 -12.5t13.5 -33.5q0 -28 -21 -48.5t-49 -20.5q-21 0 -34 13t-13 33z" />
    <glyph glyph-name="k" unicode="k" horiz-adv-x="531" 
d="M169 0h-79l139 750h79l-88 -475h6l263 245h105l-225 -207l74 -200q16 -46 55 -46h29l-13 -67h-35q-72 0 -101 75l-68 184l-110 -100z" />
    <glyph glyph-name="l" unicode="l" horiz-adv-x="277" 
d="M110 111l118 639h79l-118 -639q-1 -4 -1 -11q0 -11 5 -19q8 -11 26 -11h24l-13 -70h-38q-47 0 -70 29q-15 20 -15 52q0 13 3 30z" />
    <glyph glyph-name="m" unicode="m" horiz-adv-x="935" 
d="M169 0h-79l96 520h79l-14 -75h6q63 88 169 88q56 0 94 -25t52 -70h7q68 95 183 95q86 0 128 -54q30 -41 30 -97q0 -24 -4 -45l-62 -337h-79l58 311q4 21 4 44q0 41 -18 66q-26 38 -85 38t-106 -40.5t-59 -108.5l-57 -310h-79l60 326q3 16 3 32q0 38 -21 65q-30 36 -86 36
t-103 -41t-59 -105z" />
    <glyph glyph-name="n" unicode="n" horiz-adv-x="608" 
d="M169 0h-79l96 520h79l-14 -76h6q26 40 73 64.5t103 24.5q88 0 130 -58q31 -43 30 -100q0 -25 -4 -48l-61 -327h-79l60 322q3 17 3 31q0 43 -25 69q-33 37 -87 37q-63 0 -112 -43q-50 -43 -62 -106z" />
    <glyph glyph-name="o" unicode="o" horiz-adv-x="643" 
d="M93 206q-3 131 92.5 230t230.5 97q102 0 167 -62q64 -61 64 -157q3 -132 -92.5 -230.5t-230.5 -96.5q-103 0 -167 61t-64 158zM175 216q0 -70 43 -113.5t114 -43.5q97 0 164.5 71.5t67.5 172.5q0 70 -43 114t-114 44q-97 0 -164 -72q-68 -71 -68 -173z" />
    <glyph glyph-name="p" unicode="p" horiz-adv-x="662" 
d="M127 -230h-79l139 750h76l-15 -82h6q12 16 43 41q41 32 92 46q30 8 59 8h3q97 0 156 -60q59 -59 59 -152q0 -140 -87 -237t-220 -97q-71 0 -113 32.5t-55 64.5h-6zM210 211q0 -71 41 -111.5t110 -40.5q89 -2 157 74t66 177q0 70 -41 111t-110 41q-88 2 -156.5 -75
t-66.5 -176z" />
    <glyph glyph-name="q" unicode="q" horiz-adv-x="651" 
d="M93 200q-4 136 89 235.5t226 97.5q64 0 103 -28q20 -13 31 -26q16 -17 29 -41h6l15 82h76l-139 -750h-79l58 314h-6q-19 -24 -67 -58q-56 -39 -134 -39q-95 0 -152 58q-56 59 -56 155zM175 214q0 -70 40 -112.5t108 -42.5q91 -3 159 72t66 176q0 69 -39.5 112t-108.5 43
q-92 3 -159.5 -72t-65.5 -176z" />
    <glyph glyph-name="r" unicode="r" horiz-adv-x="400" 
d="M169 0h-79l96 520h78l-18 -97h6q19 37 63 67t97 30h44l-14 -79h-43q-68 0 -117 -48t-63 -125z" />
    <glyph glyph-name="s" unicode="s" horiz-adv-x="529" 
d="M88 151h77v-6q0 -43 27 -65q30 -22 84 -24q64 0 102 28.5t38 78.5q0 32 -28 49t-68 24.5t-79.5 17t-67.5 37t-28 73.5q0 75 58 121q59 48 157 48q77 0 120 -40q40 -36 40 -94q0 -11 -1 -16h-76v4q0 35 -23 56q-23 22 -75 22t-87 -26t-35 -64q0 -28 28 -43.5t68 -23
t80 -18t68 -39t28 -76.5q0 -88 -59.5 -138t-171.5 -50q-90 0 -137 45q-40 39 -40 100q0 12 1 19z" />
    <glyph glyph-name="t" unicode="t" horiz-adv-x="427" 
d="M222 453h-98l12 67h70q32 0 38 32l23 119h74l-28 -151h160l-12 -67h-160l-55 -295q-3 -16 -2 -28q0 -24 9 -38q15 -23 58 -23h72l-13 -69h-79q-72 0 -105 39q-24 28 -23 74q0 23 4 44z" />
    <glyph glyph-name="u" unicode="u" 
d="M116 193l61 327h79l-60 -324q-4 -17 -4 -35q0 -41 23 -67q32 -35 89 -35q62 0 112 42q50 44 62 107l58 312h79l-97 -520h-79l14 76h-6q-56 -89 -175 -89q-88 0 -130 58q-31 43 -30 101q0 24 4 47z" />
    <glyph glyph-name="v" unicode="v" horiz-adv-x="551" 
d="M234 0l-108 520h83l79 -423h6l234 423h89l-301 -520h-82z" />
    <glyph glyph-name="w" unicode="w" horiz-adv-x="862" 
d="M192 0l-66 520h84l46 -430h6l218 430h92l57 -430h6l207 430h86l-259 -520h-102l-55 422h-6l-212 -422h-102z" />
    <glyph glyph-name="x" unicode="x" horiz-adv-x="532" 
d="M123 0h-98l238 271l-128 249h87l95 -196h6l167 196h99l-221 -253l139 -267h-88l-106 211h-9z" />
    <glyph glyph-name="y" unicode="y" 
d="M56 -93v12h73q-1 -45 30 -69t89 -24q84 0 129.5 43.5t61.5 130.5l14 76h-6q-25 -38 -72.5 -63.5t-102.5 -25.5q-88 0 -130 58q-30 43 -30 101q0 24 4 47l61 327h79l-60 -324q-3 -16 -3 -30q0 -40 23 -69q32 -38 88 -38q62 0 112 42q50 44 62 107l58 312h79l-97 -520
q-23 -124 -91.5 -183.5t-190.5 -59.5q-92 0 -138 45q-42 40 -42 105z" />
    <glyph glyph-name="z" unicode="z" horiz-adv-x="516" 
d="M456 0h-396l12 67l364 380l1 6h-284l12 67h382l-12 -67l-363 -380l-2 -6h298z" />
    <glyph glyph-name="braceleft" unicode="{" horiz-adv-x="500" 
d="M177 274h-31l13 72h31q44 0 51 46l41 222q27 149 186 149h54l-13 -70h-55q-41 0 -63.5 -19t-29.5 -61l-41 -220q-15 -73 -64 -80l-1 -6q48 -8 34 -80l-40 -220q-7 -43 7.5 -61.5t55.5 -18.5h55l-13 -70h-54q-76 0 -110.5 37.5t-20.5 111.5l41 222q7 46 -33 46z" />
    <glyph glyph-name="bar" unicode="|" horiz-adv-x="316" 
d="M158 -206h-76l183 989h76z" />
    <glyph glyph-name="braceright" unicode="}" horiz-adv-x="500" 
d="M147 -143h-54l13 70h55q41 0 63.5 19t29.5 61l41 220q13 72 63 80l2 6q-49 8 -35 80l41 220q8 42 -6.5 61t-56.5 19h-55l13 70h54q155 0 130 -149l-41 -222q-7 -46 34 -46h31l-14 -72h-31q-43 0 -50 -46l-41 -222q-14 -77 -59.5 -113t-126.5 -36z" />
    <glyph glyph-name="asciitilde" unicode="~" horiz-adv-x="516" 
d="M144 235h-65q12 62 53.5 101t99.5 39q43 0 98 -34.5t79 -34.5q29 0 49.5 19.5t26.5 49.5h66q-10 -57 -52 -99q-41 -41 -100 -41q-40 0 -91 34.5t-87 34.5q-30 0 -50 -19t-27 -50z" />
    <glyph glyph-name="uni00A0" unicode="&#xa0;" horiz-adv-x="280" 
 />
    <glyph glyph-name="exclamdown" unicode="&#xa1;" horiz-adv-x="313" 
d="M170 -153h-83l51 276l63 248h49l-29 -248zM193 494q0 26 20 46t47 20q20 0 34 -13t14 -33q0 -25 -21.5 -45.5t-47.5 -20.5q-20 0 -33 13.5t-13 32.5z" />
    <glyph glyph-name="cent" unicode="&#xa2;" horiz-adv-x="623" 
d="M93 296q-3 127 85.5 223t214.5 100l15 81h62l-16 -83q75 -10 122.5 -58.5t50.5 -122.5h-82q-6 51 -45 81.5t-96 30.5q-93 2 -162 -73t-66 -172q0 -71 42.5 -114t112.5 -43q61 0 111 30.5t71 81.5h82q-26 -78 -90 -125.5t-152 -56.5l-13 -76h-62l13 75q-91 7 -145 69
q-53 62 -53 152z" />
    <glyph glyph-name="sterling" unicode="&#xa3;" horiz-adv-x="615" 
d="M539 0h-469l13 72h67l45 243h-58l13 67h58l24 129q18 93 82.5 147.5t159.5 54.5q88 0 132 -53t35 -114h-79q3 37 -24.5 64t-74.5 27q-59 0 -99.5 -35t-51.5 -95l-23 -125h168l-13 -67h-168l-45 -243h321z" />
    <glyph glyph-name="yen" unicode="&#xa5;" horiz-adv-x="632" 
d="M297 120h-166l13 69h166l15 80h-166l12 69h126l-147 362h86l139 -348h6l267 348h94l-281 -362h128l-12 -69h-170l-15 -80h170l-13 -69h-170l-22 -120h-82z" />
    <glyph glyph-name="section" unicode="&#xa7;" horiz-adv-x="536" 
d="M60 -33h77q-7 -105 100 -105q57 0 93.5 32t36.5 81q0 54 -64 94l-99 65q-88 57 -88 134q0 53 32 92.5t87 58.5v6q-51 46 -51 113q0 86 60 140q61 55 160 55q83 0 133 -49t36 -129h-77q6 40 -17 72.5t-83 32.5q-57 0 -93.5 -32t-36.5 -81q0 -54 64 -94l99 -65
q88 -57 88 -133q0 -53 -32 -93t-87 -59v-6q51 -48 51 -113q0 -86 -61 -140q-59 -55 -159 -55q-83 0 -134 48.5t-35 129.5zM193 277q0 -46 58 -82l84 -52q43 2 74 32t31 70q0 46 -58 82l-84 52q-46 -2 -75.5 -31.5t-29.5 -70.5z" />
    <glyph glyph-name="dieresis" unicode="&#xa8;" horiz-adv-x="366" 
d="M168 664q0 25 20 45t46 20q21 0 33.5 -12.5t12.5 -31.5q0 -27 -20 -46.5t-46 -19.5q-20 0 -33 13t-13 32zM336 663q0 26 19.5 46t46.5 20q20 0 33 -13t13 -32q0 -25 -20.5 -45t-45.5 -20q-21 0 -33.5 12.5t-12.5 31.5z" />
    <glyph glyph-name="copyright" unicode="&#xa9;" horiz-adv-x="817" 
d="M108 281q0 174 125.5 303t304.5 129q136 0 218 -84q83 -83 83 -214q0 -115 -56.5 -213.5t-156.5 -157t-220 -58.5q-136 0 -217 82t-81 213zM173 284q0 -106 66 -173q68 -68 177 -68q145 0 251.5 110t106.5 261q0 103 -67 172t-179 69q-91 2 -175 -50t-133 -139t-47 -182z
M283 313q-3 91 66 160.5t162 67.5q64 0 103.5 -34.5t43.5 -95.5h-65q-14 68 -92 68q-62 0 -106 -47q-43 -46 -43 -115q0 -46 27 -73t75 -27q76 0 117 68h64q-23 -62 -75.5 -96t-119.5 -34q-70 0 -114 45q-43 44 -43 113z" />
    <glyph glyph-name="ordfeminine" unicode="&#xaa;" horiz-adv-x="526" 
d="M149 460q-2 100 69 177.5t164 75.5q88 0 121 -73h7l12 63h64l-58 -312q-6 -32 23 -32h20l-10 -50h-37q-55 0 -55 60v4h-5q-61 -70 -155 -73q-73 0 -116.5 44t-43.5 116zM215 470q0 -51 31 -81.5t80 -30.5q68 0 116 54t48 131q0 52 -30 82t-80 30q-68 0 -117 -55
q-48 -56 -48 -130z" />
    <glyph glyph-name="guillemotleft" unicode="&#xab;" horiz-adv-x="511" 
d="M276 108l-162 157l10 54l220 157l-19 -92l-131 -96l-2 -6l97 -96zM466 108l-162 157l10 54l220 157l-19 -92l-131 -96l-2 -6l97 -96z" />
    <glyph glyph-name="uni00AD" unicode="&#xad;" horiz-adv-x="395" 
d="M374 264h-255l14 74h255z" />
    <glyph glyph-name="registered" unicode="&#xae;" horiz-adv-x="512" 
d="M146 496q0 103 71 174q71 72 175 72q80 0 127 -44.5t47 -116.5q2 -101 -71.5 -174.5t-176.5 -71.5q-79 0 -125.5 44.5t-46.5 116.5zM193 503q0 -58 35.5 -92t97.5 -34q82 0 138 57q56 58 56 141q0 58 -35.5 91t-100.5 33q-80 0 -136 -57q-55 -56 -55 -139zM310 430h-47
l40 216h82q30 0 48.5 -17t18.5 -42q0 -22 -13.5 -43.5t-31.5 -28.5l25 -85h-49l-19 74h-40zM342 605l-11 -60h35q15 0 25.5 10.5t10.5 25.5q0 24 -25 24h-35z" />
    <glyph glyph-name="overscore" unicode="&#xaf;" horiz-adv-x="342" 
d="M410 634h-242l12 67h242z" />
    <glyph glyph-name="degree" unicode="&#xb0;" horiz-adv-x="413" 
d="M163 539q0 70 50 122q51 52 126 52q56 0 89.5 -32.5t33.5 -83.5q0 -72 -51 -123q-50 -50 -126 -50q-56 0 -89 32t-33 83zM227 550q0 -30 18.5 -48.5t50.5 -18.5q41 0 71 30q30 31 30 74q0 30 -18.5 48.5t-50.5 18.5q-41 0 -71 -31t-30 -73z" />
    <glyph glyph-name="uni00B2" unicode="&#xb2;" horiz-adv-x="379" 
d="M375 304h-255l10 56q7 41 29 68t70 54l74 42q55 31 55 78q0 21 -14.5 34t-40.5 13q-30 0 -50.5 -17.5t-24.5 -42.5h-59q6 52 44.5 85.5t98.5 33.5q52 0 82 -27t30 -68q0 -84 -87 -132l-83 -47q-23 -13 -36 -25q-16 -14 -22 -41l-2 -8h191z" />
    <glyph glyph-name="uni00B3" unicode="&#xb3;" horiz-adv-x="386" 
d="M137 415h60q-3 -27 12.5 -44t43.5 -17q37 0 61.5 23t24.5 57q0 24 -17 38t-45 14h-50l9 50l114 103v4h-153l11 57h235l-10 -54l-122 -107l-1 -3q42 0 69 -27.5t27 -67.5q0 -62 -44 -104q-44 -41 -116 -41q-57 0 -88 37q-30 37 -21 82z" />
    <glyph glyph-name="acute" unicode="&#xb4;" horiz-adv-x="252" 
d="M226 610h-63l81 133h96z" />
    <glyph glyph-name="paragraph" unicode="&#xb6;" horiz-adv-x="559" 
d="M149 434q-3 103 78.5 185.5t189.5 80.5h206l-138 -745h-69l126 676h-65l-126 -676h-68l55 296q-85 0 -137 52t-52 131z" />
    <glyph glyph-name="middot" unicode="&#xb7;" horiz-adv-x="273" 
d="M137 304q0 26 20.5 46t46.5 20q21 0 34.5 -13t13.5 -33q0 -26 -21.5 -46.5t-47.5 -20.5q-20 0 -33 14t-13 33z" />
    <glyph glyph-name="cedilla" unicode="&#xb8;" horiz-adv-x="265" 
d="M25 -131h51q0 -24 28 -24q16 0 28.5 12.5t12.5 28.5q0 27 -30 27q-19 0 -31 -16h-49l45 123h56l-32 -74h6q14 9 31 9q26 0 42 -17.5t16 -44.5q0 -40 -29 -69t-71 -29q-34 0 -56.5 21t-17.5 53z" />
    <glyph glyph-name="uni00B9" unicode="&#xb9;" horiz-adv-x="288" 
d="M274 591h-104l8 45q72 2 92.5 13.5t28.5 50.5h59l-73 -396h-64z" />
    <glyph glyph-name="ordmasculine" unicode="&#xba;" horiz-adv-x="531" 
d="M150 463q-2 98 74.5 175.5t174.5 74.5q77 0 123.5 -45.5t46.5 -118.5q2 -98 -74 -174.5t-173 -74.5q-78 0 -125 45t-47 118zM216 473q0 -52 31.5 -84t85.5 -32q68 0 119 54t51 127q0 52 -31.5 84t-83.5 32q-70 0 -121 -54t-51 -127z" />
    <glyph glyph-name="guillemotright" unicode="&#xbb;" horiz-adv-x="521" 
d="M305 265l-220 -157l19 92l131 96l2 6l-97 96l13 78l162 -157zM495 265l-220 -157l19 92l131 96l2 6l-97 96l13 78l162 -157z" />
    <glyph glyph-name="onequarter" unicode="&#xbc;" horiz-adv-x="854" 
d="M274 591h-104l8 45q72 2 92.5 13.5t28.5 50.5h59l-73 -396h-64zM251 -41h-75l534 782h75zM693 83h-184l9 50l171 263h68l-165 -252l-1 -4h112l20 103h64l-20 -103h53l-10 -57h-53l-16 -83h-64z" />
    <glyph glyph-name="onehalf" unicode="&#xbd;" horiz-adv-x="879" 
d="M274 591h-104l8 45q72 2 92.5 13.5t28.5 50.5h59l-73 -396h-64zM251 -41h-75l534 782h75zM820 0h-255l10 56q8 41 30 68t69 54l74 42q55 31 55 78q0 21 -14.5 34t-40.5 13q-30 0 -50.5 -17.5t-24.5 -42.5h-59q6 52 44.5 85.5t98.5 33.5q52 0 82 -27t30 -68
q0 -84 -87 -132l-83 -47q-27 -16 -37 -27t-21 -39l-2 -8h191z" />
    <glyph glyph-name="threequarters" unicode="&#xbe;" horiz-adv-x="865" 
d="M137 415h60q-3 -27 12.5 -44t43.5 -17q37 0 61.5 22t24.5 58q0 24 -17 38t-45 14h-50l9 50l114 103v4h-153l11 57h235l-10 -54l-122 -107l-1 -3q42 0 69 -27.5t27 -67.5q0 -62 -44 -104q-44 -41 -116 -41q-57 0 -88 37q-30 37 -21 82zM285 -41h-73l534 782h73zM703 83
h-184l9 50l171 263h68l-165 -252l-1 -4h112l20 103h64l-20 -103h53l-10 -57h-53l-16 -83h-64z" />
    <glyph glyph-name="questiondown" unicode="&#xbf;" horiz-adv-x="542" 
d="M70 -10q0 92 89 164q5 5 31 24l63 47q45 36 52 77l11 59h78l-11 -59q-8 -41 -26 -67.5t-58 -57.5l-66 -51q-26 -19 -51 -48q-29 -33 -29 -83q0 -40 27.5 -64.5t74.5 -24.5q59 0 101 36t48 90h74q-11 -80 -72.5 -139t-162.5 -59q-78 0 -125 46q-48 45 -48 110zM323 494
q0 26 20 46t47 20q20 0 33.5 -13t13.5 -33q0 -26 -20.5 -46t-47.5 -20q-20 0 -33 13.5t-13 32.5z" />
    <glyph glyph-name="Agrave" unicode="&#xc0;" horiz-adv-x="674" 
d="M112 0h-92l398 700h97l139 -700h-85l-32 166h-334zM446 606l-204 -366h280l-70 366h-6zM472 790l-68 133h96l35 -133h-63z" />
    <glyph glyph-name="Aacute" unicode="&#xc1;" horiz-adv-x="674" 
d="M112 0h-92l398 700h97l139 -700h-85l-32 166h-334zM446 606l-204 -366h280l-70 366h-6zM511 790h-63l81 133h96z" />
    <glyph glyph-name="Acircumflex" unicode="&#xc2;" horiz-adv-x="674" 
d="M112 0h-92l398 700h97l139 -700h-85l-32 166h-334zM446 606l-204 -366h280l-70 366h-6zM432 790h-80l118 130h84l70 -130h-69l-48 62h-6z" />
    <glyph glyph-name="Atilde" unicode="&#xc3;" horiz-adv-x="674" 
d="M112 0h-92l398 700h97l139 -700h-85l-32 166h-334zM446 606l-204 -366h280l-70 366h-6zM389 795h-60q7 55 36.5 86.5t72.5 31.5q33 0 70.5 -27t54.5 -27q18 0 32 15.5t16 38.5h59q-7 -55 -36 -87t-71 -32q-33 0 -70 27.5t-56 27.5q-18 0 -32 -15t-16 -39z" />
    <glyph glyph-name="Adieresis" unicode="&#xc4;" horiz-adv-x="674" 
d="M112 0h-92l398 700h97l139 -700h-85l-32 166h-334zM446 606l-204 -366h280l-70 366h-6zM358 844q0 25 20 45t46 20q21 0 33.5 -12.5t12.5 -31.5q0 -27 -20 -46.5t-46 -19.5q-20 0 -33 13t-13 32zM526 843q0 26 19.5 46t46.5 20q20 0 33 -13t13 -32q0 -25 -20.5 -45
t-45.5 -20q-21 0 -33.5 12.5t-12.5 31.5z" />
    <glyph glyph-name="Aring" unicode="&#xc5;" horiz-adv-x="674" 
d="M112 0h-92l398 700h97l139 -700h-85l-32 166h-334zM446 606l-204 -366h280l-70 366h-6zM407 837q0 43 32 74.5t77 31.5q36 0 57.5 -19.5t21.5 -50.5q0 -47 -29.5 -77.5t-81.5 -30.5q-35 0 -56 20t-21 52zM460 844q0 -14 9 -22.5t24 -8.5q21 0 35 14.5t14 36.5
q0 14 -9.5 22.5t-25.5 8.5q-20 0 -33.5 -14.5t-13.5 -36.5z" />
    <glyph glyph-name="AE" unicode="&#xc6;" horiz-adv-x="898" 
d="M108 0h-88l503 700h444l-14 -74h-318l-43 -233h264l-14 -73h-264l-45 -247h329l-14 -73h-410l31 166h-243zM548 626l-271 -386h205l72 386h-6z" />
    <glyph glyph-name="Ccedilla" unicode="&#xc7;" horiz-adv-x="789" 
d="M108 278q0 116 56.5 215.5t156.5 159.5t221 60q118 0 194 -65q76 -64 91 -172h-87q-12 76 -69.5 118.5t-142.5 42.5q-134 0 -234.5 -104t-100.5 -242q0 -101 63 -165q64 -63 166 -63q90 0 161.5 42t107.5 119h90q-48 -113 -141 -174.5t-226 -62.5l-18 -41h6q14 9 31 9
q26 0 42 -17.5t16 -44.5q0 -40 -31.5 -69t-74.5 -29q-33 0 -53 20.5t-15 53.5h51q0 -24 28 -24q16 0 28.5 12.5t12.5 28.5q0 12 -8.5 19.5t-21.5 7.5q-19 0 -31 -16l-49 1l34 92q-116 14 -185 93q-68 80 -68 195z" />
    <glyph glyph-name="Egrave" unicode="&#xc8;" horiz-adv-x="560" 
d="M510 0h-410l130 700h399l-14 -74h-318l-43 -233h274l-14 -73h-274l-45 -247h329zM439 790l-68 133h96l35 -133h-63z" />
    <glyph glyph-name="Eacute" unicode="&#xc9;" horiz-adv-x="560" 
d="M510 0h-410l130 700h399l-14 -74h-318l-43 -233h274l-14 -73h-274l-45 -247h329zM478 790h-63l81 133h96z" />
    <glyph glyph-name="Ecircumflex" unicode="&#xca;" horiz-adv-x="560" 
d="M510 0h-410l130 700h399l-14 -74h-318l-43 -233h274l-14 -73h-274l-45 -247h329zM399 790h-80l118 130h84l70 -130h-69l-48 62h-6z" />
    <glyph glyph-name="Edieresis" unicode="&#xcb;" horiz-adv-x="560" 
d="M510 0h-410l130 700h399l-14 -74h-318l-43 -233h274l-14 -73h-274l-45 -247h329zM325 844q0 25 20.5 45t45.5 20q21 0 33.5 -12.5t12.5 -31.5q0 -27 -20 -46.5t-46 -19.5q-19 0 -32.5 13t-13.5 32zM493 843q0 26 19.5 46t46.5 20q20 0 33 -13t13 -32q0 -25 -20.5 -45
t-45.5 -20q-21 0 -33.5 12.5t-12.5 31.5z" />
    <glyph glyph-name="Igrave" unicode="&#xcc;" horiz-adv-x="281" 
d="M181 0h-81l130 700h81zM274 790l-68 133h96l35 -133h-63z" />
    <glyph glyph-name="Iacute" unicode="&#xcd;" horiz-adv-x="281" 
d="M181 0h-81l130 700h81zM313 790h-63l81 133h96z" />
    <glyph glyph-name="Icircumflex" unicode="&#xce;" horiz-adv-x="281" 
d="M181 0h-81l130 700h81zM234 790h-80l118 130h84l70 -130h-69l-48 62h-6z" />
    <glyph glyph-name="Idieresis" unicode="&#xcf;" horiz-adv-x="281" 
d="M181 0h-81l130 700h81zM160 844q0 25 20.5 45t45.5 20q21 0 33.5 -12.5t12.5 -31.5q0 -27 -20 -46.5t-46 -19.5q-19 0 -32.5 13t-13.5 32zM328 843q0 26 19.5 46t46.5 20q20 0 33 -13t13 -32q0 -25 -20.5 -45t-45.5 -20q-21 0 -33.5 12.5t-12.5 31.5z" />
    <glyph glyph-name="Eth" unicode="&#xd0;" horiz-adv-x="747" 
d="M351 0h-193l59 318h-58l13 72h58l58 310h193q137 0 213 -71.5t76 -195.5q0 -190 -118 -311.5t-301 -121.5zM298 318l-46 -246h112q139 -3 231.5 98t90.5 251q0 97 -57 151.5t-162 54.5h-112l-44 -237h145l-13 -72h-145z" />
    <glyph glyph-name="Ntilde" unicode="&#xd1;" horiz-adv-x="735" 
d="M181 0h-81l130 700h77l268 -559h6l104 559h80l-130 -700h-78l-266 559h-6zM430 795h-60q7 55 36.5 86.5t72.5 31.5q34 0 71 -27t54 -27q18 0 32 15.5t16 38.5h59q-7 -56 -36 -87.5t-71 -31.5q-33 0 -70 27.5t-56 27.5q-18 0 -32 -15t-16 -39z" />
    <glyph glyph-name="Ograve" unicode="&#xd2;" horiz-adv-x="824" 
d="M108 276q0 179 127.5 308t308.5 129q137 0 219 -82q83 -83 83 -209q0 -180 -128 -307.5t-309 -127.5q-136 0 -219 80q-82 81 -82 209zM193 290q0 -101 63 -164t168 -63q136 0 236.5 103.5t100.5 242.5q0 101 -64 164q-63 64 -167 64q-66 0 -128.5 -27.5t-108.5 -75.5
t-73 -112.5t-27 -131.5zM541 790l-68 133h96l35 -133h-63z" />
    <glyph glyph-name="Oacute" unicode="&#xd3;" horiz-adv-x="824" 
d="M108 276q0 179 127.5 308t308.5 129q137 0 219 -82q83 -83 83 -209q0 -180 -128 -307.5t-309 -127.5q-136 0 -219 80q-82 81 -82 209zM193 290q0 -101 63 -164t168 -63q136 0 236.5 103.5t100.5 242.5q0 101 -64 164q-63 64 -167 64q-66 0 -128.5 -27.5t-108.5 -75.5
t-73 -112.5t-27 -131.5zM580 790h-63l81 133h96z" />
    <glyph glyph-name="Ocircumflex" unicode="&#xd4;" horiz-adv-x="824" 
d="M108 276q0 179 127.5 308t308.5 129q137 0 219 -82q83 -83 83 -209q0 -180 -128 -307.5t-309 -127.5q-136 0 -219 80q-82 81 -82 209zM193 290q0 -101 63 -164t168 -63q136 0 236.5 103.5t100.5 242.5q0 101 -64 164q-63 64 -167 64q-66 0 -128.5 -27.5t-108.5 -75.5
t-73 -112.5t-27 -131.5zM501 790h-80l118 130h84l70 -130h-69l-48 62h-6z" />
    <glyph glyph-name="Otilde" unicode="&#xd5;" horiz-adv-x="824" 
d="M108 276q0 179 127.5 308t308.5 129q137 0 219 -82q83 -83 83 -209q0 -180 -128 -307.5t-309 -127.5q-136 0 -219 80q-82 81 -82 209zM193 290q0 -101 63 -164t168 -63q136 0 236.5 103.5t100.5 242.5q0 101 -64 164q-63 64 -167 64q-66 0 -128.5 -27.5t-108.5 -75.5
t-73 -112.5t-27 -131.5zM458 795h-60q7 56 36.5 87t72.5 31q33 0 70 -27t55 -27q17 0 31.5 15.5t16.5 38.5h59q-8 -56 -36.5 -87.5t-70.5 -31.5q-34 0 -70.5 27.5t-55.5 27.5q-18 0 -32 -15t-16 -39z" />
    <glyph glyph-name="Odieresis" unicode="&#xd6;" horiz-adv-x="824" 
d="M108 276q0 179 127.5 308t308.5 129q137 0 219 -82q83 -83 83 -209q0 -180 -128 -307.5t-309 -127.5q-136 0 -219 80q-82 81 -82 209zM193 290q0 -101 63 -164t168 -63q136 0 236.5 103.5t100.5 242.5q0 101 -64 164q-63 64 -167 64q-66 0 -128.5 -27.5t-108.5 -75.5
t-73 -112.5t-27 -131.5zM427 844q0 25 20.5 45t45.5 20q21 0 33.5 -12.5t12.5 -31.5q0 -27 -19.5 -46.5t-46.5 -19.5q-19 0 -32.5 13t-13.5 32zM595 843q0 26 19.5 46t46.5 20q20 0 33 -13t13 -32q0 -25 -20 -45t-46 -20q-21 0 -33.5 12.5t-12.5 31.5z" />
    <glyph glyph-name="multiply" unicode="&#xd7;" horiz-adv-x="446" 
d="M67 77l-43 54l210 186l-136 182l54 42l133 -179l202 179l43 -53l-203 -181l141 -189l-53 -42l-139 186z" />
    <glyph glyph-name="Oslash" unicode="&#xd8;" horiz-adv-x="824" 
d="M179 -50h-91l102 118q-82 79 -82 208q0 85 35 166t95 141t140.5 95t165.5 35q96 0 169 -43l60 69h91l-97 -112q79 -79 79 -205q0 -114 -60 -215t-161 -160.5t-216 -59.5q-95 0 -163 40zM193 290q0 -94 55 -156l409 471q-55 32 -127 32q-66 0 -128.5 -27.5t-108.5 -75.5
t-73 -112.5t-27 -131.5zM709 561l-407 -469q53 -29 122 -29q136 0 236.5 103.5t100.5 242.5q0 93 -52 152z" />
    <glyph glyph-name="Ugrave" unicode="&#xd9;" horiz-adv-x="702" 
d="M137 251l83 449h81l-83 -448q-16 -89 20.5 -139.5t124.5 -50.5q86 0 142.5 50.5t73.5 140.5l83 447h80l-83 -448q-22 -126 -100.5 -195.5t-205.5 -69.5q-121 0 -180 72q-59 73 -36 192zM481 790l-68 133h96l35 -133h-63z" />
    <glyph glyph-name="Uacute" unicode="&#xda;" horiz-adv-x="702" 
d="M137 251l83 449h81l-83 -448q-16 -89 20.5 -139.5t124.5 -50.5q86 0 142.5 50.5t73.5 140.5l83 447h80l-83 -448q-22 -126 -100.5 -195.5t-205.5 -69.5q-121 0 -180 72q-59 73 -36 192zM520 790h-63l81 133h96z" />
    <glyph glyph-name="Ucircumflex" unicode="&#xdb;" horiz-adv-x="702" 
d="M137 251l83 449h81l-83 -448q-16 -89 20.5 -139.5t124.5 -50.5q86 0 142.5 50.5t73.5 140.5l83 447h80l-83 -448q-22 -126 -100.5 -195.5t-205.5 -69.5q-121 0 -180 72q-59 73 -36 192zM441 790h-80l118 130h84l70 -130h-69l-48 62h-6z" />
    <glyph glyph-name="Udieresis" unicode="&#xdc;" horiz-adv-x="702" 
d="M137 251l83 449h81l-83 -448q-16 -89 20.5 -139.5t124.5 -50.5q86 0 142.5 50.5t73.5 140.5l83 447h80l-83 -448q-22 -126 -100.5 -195.5t-205.5 -69.5q-121 0 -180 72q-59 73 -36 192zM367 844q0 25 20.5 45t45.5 20q21 0 33.5 -12.5t12.5 -31.5q0 -27 -20 -46.5
t-46 -19.5q-19 0 -32.5 13t-13.5 32zM535 843q0 26 19.5 46t46.5 20q20 0 33 -13t13 -32q0 -25 -20.5 -45t-45.5 -20q-21 0 -33.5 12.5t-12.5 31.5z" />
    <glyph glyph-name="Yacute" unicode="&#xdd;" horiz-adv-x="632" 
d="M325 269l-175 431h86l139 -348h6l267 348h94l-335 -431l-50 -269h-82zM485 790h-63l81 133h96z" />
    <glyph glyph-name="Thorn" unicode="&#xde;" horiz-adv-x="585" 
d="M181 0h-81l130 700h81l-26 -137h144q82 0 134 -47q52 -46 52 -122q0 -111 -72.5 -182.5t-179.5 -71.5h-156zM272 491l-52 -279h143q68 0 118 50q49 49 49 121q0 49 -30.5 78.5t-84.5 29.5h-143z" />
    <glyph glyph-name="germandbls" unicode="&#xdf;" horiz-adv-x="602" 
d="M126 -230h-79l143 772q18 96 85 151q67 57 159 57q88 0 136 -55q49 -54 32 -139q-9 -51 -41 -88t-76 -56l-1 -6q50 -15 81 -55.5t31 -95.5q2 -110 -82 -190t-200 -78q-44 0 -80 13l14 74q42 -13 76 -13q78 0 134 53q56 54 56 130q0 56 -41.5 86.5t-97.5 30.5h-34l13 71h9
q67 0 114 44q47 45 47 108q0 43 -27 68.5t-76 25.5q-62 0 -101 -35.5t-51 -101.5z" />
    <glyph glyph-name="agrave" unicode="&#xe0;" horiz-adv-x="676" 
d="M93 199q0 138 91.5 236t218.5 98q70 0 111 -32t54 -65h6l15 84h77l-76 -413q-8 -41 30 -41h26l-13 -66h-48q-39 0 -58.5 22t-14.5 56l1 6h-7q-30 -35 -52 -50q-65 -47 -147 -47q-98 0 -156 58t-58 154zM175 210q0 -70 40.5 -111t110.5 -41q95 -2 160 73t63 178
q0 71 -41 111.5t-110 40.5q-89 2 -157 -74.5t-66 -176.5zM419 610l-68 133h96l35 -133h-63z" />
    <glyph glyph-name="aacute" unicode="&#xe1;" horiz-adv-x="676" 
d="M93 199q0 138 91.5 236t218.5 98q70 0 111 -32t54 -65h6l15 84h77l-76 -413q-8 -41 30 -41h26l-13 -66h-48q-39 0 -58.5 22t-14.5 56l1 6h-7q-30 -35 -52 -50q-65 -47 -147 -47q-98 0 -156 58t-58 154zM175 210q0 -70 40.5 -111t110.5 -41q95 -2 160 73t63 178
q0 71 -41 111.5t-110 40.5q-89 2 -157 -74.5t-66 -176.5zM458 610h-63l81 133h96z" />
    <glyph glyph-name="acircumflex" unicode="&#xe2;" horiz-adv-x="676" 
d="M93 199q0 138 91.5 236t218.5 98q70 0 111 -32t54 -65h6l15 84h77l-76 -413q-8 -41 30 -41h26l-13 -66h-48q-39 0 -58.5 22t-14.5 56l1 6h-7q-30 -35 -52 -50q-65 -47 -147 -47q-98 0 -156 58t-58 154zM175 210q0 -70 40.5 -111t110.5 -41q95 -2 160 73t63 178
q0 71 -41 111.5t-110 40.5q-89 2 -157 -74.5t-66 -176.5zM379 610h-80l118 130h84l70 -130h-69l-48 62h-6z" />
    <glyph glyph-name="atilde" unicode="&#xe3;" horiz-adv-x="676" 
d="M93 199q0 138 91.5 236t218.5 98q70 0 111 -32t54 -65h6l15 84h77l-76 -413q-8 -41 30 -41h26l-13 -66h-48q-39 0 -58.5 22t-14.5 56l1 6h-7q-30 -35 -52 -50q-65 -47 -147 -47q-98 0 -156 58t-58 154zM175 210q0 -70 40.5 -111t110.5 -41q95 -2 160 73t63 178
q0 71 -41 111.5t-110 40.5q-89 2 -157 -74.5t-66 -176.5zM336 615h-60q7 56 36.5 87t72.5 31q32 0 69.5 -27t55.5 -27q17 0 31.5 15.5t16.5 38.5h59q-7 -55 -36 -87t-71 -32q-34 0 -70.5 27.5t-55.5 27.5q-18 0 -32 -14.5t-16 -39.5z" />
    <glyph glyph-name="adieresis" unicode="&#xe4;" horiz-adv-x="676" 
d="M93 199q0 138 91.5 236t218.5 98q70 0 111 -32t54 -65h6l15 84h77l-76 -413q-8 -41 30 -41h26l-13 -66h-48q-39 0 -58.5 22t-14.5 56l1 6h-7q-30 -35 -52 -50q-65 -47 -147 -47q-98 0 -156 58t-58 154zM175 210q0 -70 40.5 -111t110.5 -41q95 -2 160 73t63 178
q0 71 -41 111.5t-110 40.5q-89 2 -157 -74.5t-66 -176.5zM305 664q0 25 20.5 45t45.5 20q21 0 33.5 -12.5t12.5 -31.5q0 -27 -20 -46.5t-46 -19.5q-19 0 -32.5 13t-13.5 32zM473 663q0 26 19.5 46t46.5 20q20 0 33 -13t13 -32q0 -25 -20.5 -45t-45.5 -20q-21 0 -33.5 12.5
t-12.5 31.5z" />
    <glyph glyph-name="aring" unicode="&#xe5;" horiz-adv-x="676" 
d="M93 199q0 138 91.5 236t218.5 98q70 0 111 -32t54 -65h6l15 84h77l-76 -413q-8 -41 30 -41h26l-13 -66h-48q-39 0 -58.5 22t-14.5 56l1 6h-7q-30 -35 -52 -50q-65 -47 -147 -47q-98 0 -156 58t-58 154zM175 210q0 -70 40.5 -111t110.5 -41q95 -2 160 73t63 178
q0 71 -41 111.5t-110 40.5q-89 2 -157 -74.5t-66 -176.5zM354 657q0 44 31.5 75t77.5 31q36 0 57.5 -19.5t21.5 -50.5q0 -48 -29.5 -78t-81.5 -30q-35 0 -56 20t-21 52zM407 664q0 -31 33 -31q20 0 34.5 15t14.5 36q0 31 -35 31q-19 0 -33 -15t-14 -36z" />
    <glyph glyph-name="ae" unicode="&#xe6;" horiz-adv-x="992" 
d="M93 127q0 81 61 127q61 48 160 48h174l7 38q10 53 -22.5 86t-95.5 33q-55 0 -92.5 -26t-47.5 -65h-83q13 71 79 118q65 47 158 47q135 0 169 -99h6q36 47 94 73t126 26q118 0 172 -74q54 -73 31 -192l-6 -31h-426q-14 -82 26.5 -130.5t122.5 -48.5q57 0 104 26t70 70h83
q-35 -75 -107 -121q-72 -45 -164 -45q-72 0 -123.5 31t-69.5 85h-6q-82 -114 -225 -116q-79 -1 -127 38t-48 102zM176 134q0 -34 28 -54t78 -20q78 0 128 46q52 47 62 107l4 23h-167q-59 0 -96 -28t-37 -74zM571 302h345q11 77 -31 119q-40 43 -112 43q-69 0 -128 -45
q-57 -43 -74 -117z" />
    <glyph glyph-name="ccedilla" unicode="&#xe7;" horiz-adv-x="623" 
d="M93 209q-3 133 93 230t229 94q86 0 148 -50q61 -49 64 -134h-82q-6 51 -45 81.5t-96 30.5q-93 2 -162 -73t-66 -172q0 -71 42.5 -114t112.5 -43q61 0 111 30.5t71 81.5h82q-27 -81 -95.5 -129.5t-162.5 -53.5l-18 -42h6q13 9 31 9q26 0 42 -17.5t16 -44.5
q0 -39 -29 -68.5t-71 -29.5q-34 0 -56.5 21t-17.5 53h51q0 -24 28 -24q16 0 28.5 12.5t12.5 28.5q0 27 -30 27q-19 0 -31 -16h-49l34 92q-88 10 -140 71q-51 62 -51 149z" />
    <glyph glyph-name="egrave" unicode="&#xe8;" horiz-adv-x="609" 
d="M93 204q0 139 86 234t222 95q118 0 174 -74.5t32 -191.5l-6 -35h-422q-9 -82 29 -128.5t116 -46.5q54 0 102 25.5t72 70.5h83q-28 -74 -102 -121q-73 -45 -169 -45q-101 0 -159 59.5t-58 157.5zM194 302h337q6 74 -32.5 116.5t-106.5 42.5q-69 0 -125 -43
q-57 -45 -73 -116zM400 610l-68 133h96l35 -133h-63z" />
    <glyph glyph-name="eacute" unicode="&#xe9;" horiz-adv-x="609" 
d="M93 204q0 139 86 234t222 95q118 0 174 -74.5t32 -191.5l-6 -35h-422q-9 -82 29 -128.5t116 -46.5q54 0 102 25.5t72 70.5h83q-28 -74 -102 -121q-73 -45 -169 -45q-101 0 -159 59.5t-58 157.5zM194 302h337q6 74 -32.5 116.5t-106.5 42.5q-69 0 -125 -43
q-57 -45 -73 -116zM439 610h-63l81 133h96z" />
    <glyph glyph-name="ecircumflex" unicode="&#xea;" horiz-adv-x="609" 
d="M93 204q0 139 86 234t222 95q118 0 174 -74.5t32 -191.5l-6 -35h-422q-9 -82 29 -128.5t116 -46.5q54 0 102 25.5t72 70.5h83q-28 -74 -102 -121q-73 -45 -169 -45q-101 0 -159 59.5t-58 157.5zM194 302h337q6 74 -32.5 116.5t-106.5 42.5q-69 0 -125 -43
q-57 -45 -73 -116zM360 610h-80l118 130h84l70 -130h-69l-48 62h-6z" />
    <glyph glyph-name="edieresis" unicode="&#xeb;" horiz-adv-x="609" 
d="M93 204q0 139 86 234t222 95q118 0 174 -74.5t32 -191.5l-6 -35h-422q-9 -82 29 -128.5t116 -46.5q54 0 102 25.5t72 70.5h83q-28 -74 -102 -121q-73 -45 -169 -45q-101 0 -159 59.5t-58 157.5zM194 302h337q6 74 -32.5 116.5t-106.5 42.5q-69 0 -125 -43
q-57 -45 -73 -116zM286 664q0 25 20.5 45t45.5 20q21 0 33.5 -12.5t12.5 -31.5q0 -27 -20 -46.5t-46 -19.5q-20 0 -33 13t-13 32zM454 663q0 26 19.5 46t46.5 20q20 0 33 -13t13 -32q0 -25 -20.5 -45t-45.5 -20q-21 0 -33.5 12.5t-12.5 31.5z" />
    <glyph glyph-name="igrave" unicode="&#xec;" horiz-adv-x="280" 
d="M109 98l77 422h79l-76 -409q-6 -41 30 -41h26l-13 -70h-40q-48 0 -69.5 26t-13.5 72zM225 610l-68 133h96l35 -133h-63z" />
    <glyph glyph-name="iacute" unicode="&#xed;" horiz-adv-x="280" 
d="M109 98l77 422h79l-76 -409q-6 -41 30 -41h26l-13 -70h-40q-48 0 -69.5 26t-13.5 72zM264 610h-63l81 133h96z" />
    <glyph glyph-name="icircumflex" unicode="&#xee;" horiz-adv-x="280" 
d="M185 610h-80l118 130h84l70 -130h-69l-48 62h-6zM109 98l77 422h79l-76 -409q-6 -41 30 -41h26l-13 -70h-40q-48 0 -69.5 26t-13.5 72z" />
    <glyph glyph-name="idieresis" unicode="&#xef;" horiz-adv-x="280" 
d="M109 98l77 422h79l-76 -409q-6 -41 30 -41h26l-13 -70h-40q-48 0 -69.5 26t-13.5 72zM111 664q0 25 20 45t46 20q21 0 33.5 -12.5t12.5 -31.5q0 -27 -19.5 -46.5t-46.5 -19.5q-19 0 -32.5 13t-13.5 32zM279 663q0 26 19.5 46t46.5 20q20 0 33 -13t13 -32q0 -25 -20 -45
t-46 -20q-21 0 -33.5 12.5t-12.5 31.5z" />
    <glyph glyph-name="eth" unicode="&#xf0;" horiz-adv-x="621" 
d="M93 194q-4 123 86 216.5t215 91.5q73 0 111 -36h6q-14 30 -44 66q-27 33 -52 51l-172 -63l11 61l116 44q-43 35 -97 66l58 39q64 -31 122 -77l143 52l-12 -62l-88 -33q129 -121 129 -274q3 -146 -90.5 -249t-229.5 -100q-97 0 -155 58q-57 59 -57 149zM175 206
q0 -66 39 -107t105 -41q87 -2 155 70.5t66 165.5q0 62 -40 101.5t-105 39.5q-92 0 -156 -67t-64 -162z" />
    <glyph glyph-name="ntilde" unicode="&#xf1;" horiz-adv-x="608" 
d="M169 0h-79l96 520h79l-14 -76h6q26 40 73 64.5t103 24.5q88 0 130 -59t26 -147l-61 -327h-79l60 322q12 62 -21 99q-33 38 -88 38q-63 0 -112 -43q-50 -43 -62 -106zM337 615h-60q7 55 36.5 86.5t72.5 31.5q34 0 71 -27t54 -27q18 0 32 15.5t16 38.5h59q-7 -56 -36 -87.5
t-71 -31.5q-33 0 -70 27.5t-56 27.5q-18 0 -32 -14.5t-16 -39.5z" />
    <glyph glyph-name="ograve" unicode="&#xf2;" horiz-adv-x="643" 
d="M93 206q-3 131 92.5 230t230.5 97q102 0 167 -62q64 -61 64 -157q3 -132 -92.5 -230.5t-230.5 -96.5q-103 0 -167 61t-64 158zM175 216q0 -70 43 -113.5t114 -43.5q97 0 164.5 71.5t67.5 172.5q0 70 -43 114t-114 44q-97 0 -164 -72q-68 -71 -68 -173zM419 610l-68 133
h96l35 -133h-63z" />
    <glyph glyph-name="oacute" unicode="&#xf3;" horiz-adv-x="643" 
d="M93 206q-3 131 92.5 230t230.5 97q102 0 167 -62q64 -61 64 -157q3 -132 -92.5 -230.5t-230.5 -96.5q-103 0 -167 61t-64 158zM175 216q0 -70 43 -113.5t114 -43.5q97 0 164.5 71.5t67.5 172.5q0 70 -43 114t-114 44q-97 0 -164 -72q-68 -71 -68 -173zM458 610h-63
l81 133h96z" />
    <glyph glyph-name="ocircumflex" unicode="&#xf4;" horiz-adv-x="643" 
d="M93 206q-3 131 92.5 230t230.5 97q102 0 167 -62q64 -61 64 -157q3 -132 -92.5 -230.5t-230.5 -96.5q-103 0 -167 61t-64 158zM175 216q0 -70 43 -113.5t114 -43.5q97 0 164.5 71.5t67.5 172.5q0 70 -43 114t-114 44q-97 0 -164 -72q-68 -71 -68 -173zM379 610h-80
l118 130h84l70 -130h-69l-48 62h-6z" />
    <glyph glyph-name="otilde" unicode="&#xf5;" horiz-adv-x="643" 
d="M93 206q-3 131 92.5 230t230.5 97q102 0 167 -62q64 -61 64 -157q3 -132 -92.5 -230.5t-230.5 -96.5q-103 0 -167 61t-64 158zM175 216q0 -70 43 -113.5t114 -43.5q97 0 164.5 71.5t67.5 172.5q0 70 -43 114t-114 44q-97 0 -164 -72q-68 -71 -68 -173zM336 615h-60
q7 56 36.5 87t72.5 31q32 0 69.5 -27t55.5 -27q17 0 31.5 15.5t16.5 38.5h59q-7 -55 -36 -87t-71 -32q-34 0 -70.5 27.5t-55.5 27.5q-18 0 -32 -14.5t-16 -39.5z" />
    <glyph glyph-name="odieresis" unicode="&#xf6;" horiz-adv-x="643" 
d="M93 206q-3 131 92.5 230t230.5 97q102 0 167 -62q64 -61 64 -157q3 -132 -92.5 -230.5t-230.5 -96.5q-103 0 -167 61t-64 158zM175 216q0 -70 43 -113.5t114 -43.5q97 0 164.5 71.5t67.5 172.5q0 70 -43 114t-114 44q-97 0 -164 -72q-68 -71 -68 -173zM305 664
q0 25 20.5 45t45.5 20q21 0 33.5 -12.5t12.5 -31.5q0 -27 -20 -46.5t-46 -19.5q-19 0 -32.5 13t-13.5 32zM473 663q0 26 19.5 46t46.5 20q20 0 33 -13t13 -32q0 -25 -20.5 -45t-45.5 -20q-21 0 -33.5 12.5t-12.5 31.5z" />
    <glyph glyph-name="divide" unicode="&#xf7;" horiz-adv-x="480" 
d="M527 278h-470l12 67h470zM214 128q0 23 19 41.5t42 18.5q18 0 30 -11.5t12 -29.5q0 -23 -18.5 -41.5t-41.5 -18.5q-19 0 -31 11.5t-12 29.5zM279 476q0 23 19 41.5t42 18.5q17 0 29 -11.5t12 -29.5q0 -24 -18.5 -42t-41.5 -18q-19 0 -30.5 11.5t-11.5 29.5z" />
    <glyph glyph-name="oslash" unicode="&#xf8;" horiz-adv-x="643" 
d="M151 -54h-70l81 98q-69 62 -69 162q-3 131 92.5 230t230.5 97q68 0 123 -30l55 67h71l-82 -99q64 -61 64 -157q3 -132 -92.5 -230.5t-230.5 -96.5q-68 0 -117 27zM175 216q0 -65 38 -109l276 335q-35 19 -82 19q-97 0 -164 -72q-68 -71 -68 -173zM530 407l-273 -332
q35 -16 75 -16q97 0 164.5 71.5t67.5 172.5q0 63 -34 104z" />
    <glyph glyph-name="ugrave" unicode="&#xf9;" 
d="M116 193l61 327h79l-60 -324q-12 -65 18.5 -101t89.5 -36q62 0 112 42q50 44 62 107l58 312h79l-97 -520h-79l14 76h-6q-56 -89 -175 -89q-88 0 -130 58q-43 59 -26 148zM395 610l-68 133h96l35 -133h-63z" />
    <glyph glyph-name="uacute" unicode="&#xfa;" 
d="M116 193l61 327h79l-60 -324q-12 -65 18.5 -101t89.5 -36q62 0 112 42q50 44 62 107l58 312h79l-97 -520h-79l14 76h-6q-56 -89 -175 -89q-88 0 -130 58q-43 59 -26 148zM434 610h-63l81 133h96z" />
    <glyph glyph-name="ucircumflex" unicode="&#xfb;" 
d="M116 193l61 327h79l-60 -324q-12 -65 18.5 -101t89.5 -36q62 0 112 42q50 44 62 107l58 312h79l-97 -520h-79l14 76h-6q-56 -89 -175 -89q-88 0 -130 58q-43 59 -26 148zM355 610h-80l118 130h84l70 -130h-69l-48 62h-6z" />
    <glyph glyph-name="udieresis" unicode="&#xfc;" 
d="M116 193l61 327h79l-60 -324q-12 -65 18.5 -101t89.5 -36q62 0 112 42q50 44 62 107l58 312h79l-97 -520h-79l14 76h-6q-56 -89 -175 -89q-88 0 -130 58q-43 59 -26 148zM281 664q0 25 20.5 45t45.5 20q21 0 33.5 -12.5t12.5 -31.5q0 -27 -19.5 -46.5t-46.5 -19.5
q-19 0 -32.5 13t-13.5 32zM449 663q0 26 19.5 46t46.5 20q20 0 33 -13t13 -32q0 -25 -20 -45t-46 -20q-21 0 -33.5 12.5t-12.5 31.5z" />
    <glyph glyph-name="yacute" unicode="&#xfd;" 
d="M56 -81h73q-1 -45 30 -69t89 -24q84 0 129.5 43.5t61.5 130.5l14 76h-6q-25 -38 -72.5 -63.5t-102.5 -25.5q-88 0 -130 58q-43 59 -26 148l61 327h79l-60 -324q-11 -60 20 -98.5t88 -38.5q62 0 112 42q50 44 62 107l58 312h79l-97 -520q-23 -124 -91.5 -183.5
t-190.5 -59.5q-90 0 -137 44t-43 118zM435 610h-63l81 133h96z" />
    <glyph glyph-name="thorn" unicode="&#xfe;" horiz-adv-x="662" 
d="M127 -230h-79l181 980h78l-57 -312h6q21 26 61 55q55 40 134 40q99 0 157 -58t58 -154q4 -132 -91.5 -234.5t-218.5 -99.5q-70 0 -111 32t-54 65h-6zM210 211q0 -71 41 -111.5t110 -40.5q89 -2 157 74.5t66 176.5q0 70 -40.5 111t-110.5 41q-88 2 -156.5 -75t-66.5 -176z
" />
    <glyph glyph-name="ydieresis" unicode="&#xff;" 
d="M56 -81h73q-1 -45 30 -69t89 -24q84 0 129.5 43.5t61.5 130.5l14 76h-6q-25 -38 -72.5 -63.5t-102.5 -25.5q-88 0 -130 58q-43 59 -26 148l61 327h79l-60 -324q-11 -60 20 -98.5t88 -38.5q62 0 112 42q50 44 62 107l58 312h79l-97 -520q-23 -124 -91.5 -183.5
t-190.5 -59.5q-90 0 -137 44t-43 118zM282 664q0 25 20.5 45t45.5 20q21 0 33.5 -12.5t12.5 -31.5q0 -27 -20 -46.5t-46 -19.5q-19 0 -32.5 13t-13.5 32zM450 663q0 26 19.5 46t46.5 20q20 0 33 -13t13 -32q0 -25 -20.5 -45t-45.5 -20q-21 0 -33.5 12.5t-12.5 31.5z" />
    <glyph glyph-name="Amacron" unicode="&#x100;" horiz-adv-x="674" 
d="M112 0h-92l398 700h97l139 -700h-85l-32 166h-334zM446 606l-204 -366h280l-70 366h-6zM614 814h-242l12 67h242z" />
    <glyph glyph-name="amacron" unicode="&#x101;" horiz-adv-x="676" 
d="M93 199q0 138 91.5 236t218.5 98q70 0 111 -32t54 -65h6l15 84h77l-76 -413q-8 -41 30 -41h26l-13 -66h-48q-39 0 -58.5 22t-14.5 56l1 6h-7q-30 -35 -52 -50q-65 -47 -147 -47q-98 0 -156 58t-58 154zM175 210q0 -70 40.5 -111t110.5 -41q95 -2 160 73t63 178
q0 71 -41 111.5t-110 40.5q-89 2 -157 -74.5t-66 -176.5zM561 634h-242l12 67h242z" />
    <glyph glyph-name="Abreve" unicode="&#x102;" horiz-adv-x="674" 
d="M112 0h-92l398 700h97l139 -700h-85l-32 166h-334zM446 606l-204 -366h280l-70 366h-6zM385 915h59q-13 -71 51 -71q31 0 51 19.5t26 51.5h67q-9 -56 -49 -91t-101 -35q-62 0 -91 36t-13 90z" />
    <glyph glyph-name="abreve" unicode="&#x103;" horiz-adv-x="676" 
d="M93 199q0 138 91.5 236t218.5 98q70 0 111 -32t54 -65h6l15 84h77l-76 -413q-8 -41 30 -41h26l-13 -66h-48q-39 0 -58.5 22t-14.5 56l1 6h-7q-30 -35 -52 -50q-65 -47 -147 -47q-98 0 -156 58t-58 154zM175 210q0 -70 40.5 -111t110.5 -41q95 -2 160 73t63 178
q0 71 -41 111.5t-110 40.5q-89 2 -157 -74.5t-66 -176.5zM332 735h59q-12 -71 51 -71q31 0 51.5 19.5t25.5 51.5h67q-9 -56 -49 -91t-101 -35q-62 0 -91 36t-13 90z" />
    <glyph glyph-name="Aogonek" unicode="&#x104;" horiz-adv-x="674" 
d="M112 0h-92l398 700h97l139 -700l-58 -59q-27 -27 -27 -43q0 -12 9.5 -19t23.5 -7h29l-12 -64h-48q-35 0 -58 18.5t-23 48.5q0 18 10 37q12 22 37 47l40 41h-8l-32 166h-334zM446 606l-204 -366h280l-70 366h-6z" />
    <glyph glyph-name="aogonek" unicode="&#x105;" horiz-adv-x="676" 
d="M93 199q0 138 91.5 236t218.5 98q70 0 111 -32t54 -65h6l15 84h77l-76 -413q-8 -41 30 -41h26l-13 -66l-58 -59q-27 -27 -27 -43q0 -12 9.5 -19t23.5 -7h29l-12 -64h-48q-35 0 -58 18.5t-23 48.5q0 18 10 37q12 22 37 47l43 44q-26 6 -38.5 26.5t-8.5 48.5l1 6h-7
q-30 -35 -52 -50q-65 -47 -147 -47q-98 0 -156 58t-58 154zM175 210q0 -70 40.5 -111t110.5 -41q95 -2 160 73t63 178q0 71 -41 111.5t-110 40.5q-89 2 -157 -74.5t-66 -176.5z" />
    <glyph glyph-name="Cacute" unicode="&#x106;" horiz-adv-x="805" 
d="M108 278q0 116 56.5 215.5t156.5 159.5t221 60q118 0 194 -65q76 -64 91 -172h-87q-12 76 -69.5 118.5t-142.5 42.5q-134 0 -234.5 -104t-100.5 -242q0 -101 63 -165q64 -63 166 -63q90 0 161.5 42t107.5 119h90q-49 -114 -143.5 -175.5t-230.5 -61.5q-135 0 -217 81
q-82 82 -82 210zM578 790h-63l81 133h96z" />
    <glyph glyph-name="cacute" unicode="&#x107;" horiz-adv-x="623" 
d="M93 209q-3 133 93 230t229 94q86 0 148 -50q61 -49 64 -134h-82q-6 51 -45 81.5t-96 30.5q-93 2 -162 -73t-66 -172q0 -71 42.5 -114t112.5 -43q61 0 111 30.5t71 81.5h82q-29 -87 -103.5 -135.5t-176.5 -48.5q-100 0 -162 62q-60 63 -60 160zM451 609h-63l81 133h96z
" />
    <glyph glyph-name="Cdotaccent" unicode="&#x10a;" horiz-adv-x="805" 
d="M108 278q0 116 56.5 215.5t156.5 159.5t221 60q118 0 194 -65q76 -64 91 -172h-87q-12 76 -69.5 118.5t-142.5 42.5q-134 0 -234.5 -104t-100.5 -242q0 -101 63 -165q64 -63 166 -63q90 0 161.5 42t107.5 119h90q-49 -114 -143.5 -175.5t-230.5 -61.5q-135 0 -217 81
q-82 82 -82 210zM512 840q0 28 20.5 48.5t48.5 20.5q22 0 35 -13t13 -33q0 -28 -21 -48.5t-49 -20.5q-21 0 -34 13t-13 33z" />
    <glyph glyph-name="cdotaccent" unicode="&#x10b;" horiz-adv-x="623" 
d="M93 209q-3 133 93 230t229 94q86 0 148 -50q61 -49 64 -134h-82q-6 51 -45 81.5t-96 30.5q-93 2 -162 -73t-66 -172q0 -71 42.5 -114t112.5 -43q61 0 111 30.5t71 81.5h82q-29 -87 -103.5 -135.5t-176.5 -48.5q-100 0 -162 62q-60 63 -60 160zM385 659q0 28 20.5 48.5
t48.5 20.5q22 0 35 -12.5t13 -33.5q0 -28 -21 -48.5t-49 -20.5q-21 0 -34 13t-13 33z" />
    <glyph glyph-name="Ccaron" unicode="&#x10c;" horiz-adv-x="805" 
d="M108 278q0 116 56.5 215.5t156.5 159.5t221 60q118 0 194 -65q76 -64 91 -172h-87q-12 76 -69.5 118.5t-142.5 42.5q-134 0 -234.5 -104t-100.5 -242q0 -101 63 -165q64 -63 166 -63q90 0 161.5 42t107.5 119h90q-49 -114 -143.5 -175.5t-230.5 -61.5q-135 0 -217 81
q-82 82 -82 210zM514 790l-70 130h70l47 -62h6l70 62h79l-118 -130h-84z" />
    <glyph glyph-name="ccaron" unicode="&#x10d;" horiz-adv-x="623" 
d="M93 209q-3 133 93 230t229 94q86 0 148 -50q61 -49 64 -134h-82q-6 51 -45 81.5t-96 30.5q-93 2 -162 -73t-66 -172q0 -71 42.5 -114t112.5 -43q61 0 111 30.5t71 81.5h82q-29 -87 -103.5 -135.5t-176.5 -48.5q-100 0 -162 62q-60 63 -60 160zM387 609l-70 130h70l47 -62
h6l70 62h79l-118 -130h-84z" />
    <glyph glyph-name="Dcaron" unicode="&#x10e;" horiz-adv-x="710" 
d="M312 0h-212l130 700h208q140 0 217 -72.5t77 -197.5q4 -186 -114.5 -309t-305.5 -121zM297 627l-103 -555h127q140 -3 234.5 98t92.5 249q0 97 -58.5 152.5t-165.5 55.5h-127zM424 791l-70 130h70l47 -62h6l70 62h79l-118 -130h-84z" />
    <glyph glyph-name="dcaron" unicode="&#x10f;" horiz-adv-x="728" 
d="M93 199q-3 133 91.5 235t218.5 99q70 0 111 -32t54 -65h6l58 314h79l-119 -641q-8 -41 30 -41h26l-13 -68h-50q-41 0 -61 21t-14 55l1 6h-7l-16 -19l-25 -22q-20 -17 -40 -28q-52 -26 -116 -26q-98 0 -156 58t-58 154zM175 210q0 -70 40.5 -111t110.5 -41q95 -2 160 73
t63 178q0 71 -41 111.5t-110 40.5q-89 2 -157 -74.5t-66 -176.5zM809 569h-65l34 181h89z" />
    <glyph glyph-name="Dcroat" unicode="&#x110;" horiz-adv-x="747" 
d="M351 0h-193l59 318h-58l13 72h58l58 310h193q137 0 213 -71.5t76 -195.5q0 -190 -118 -311.5t-301 -121.5zM298 318l-46 -246h112q139 -3 231.5 98t90.5 251q0 97 -57 151.5t-162 54.5h-112l-44 -237h145l-13 -72h-145z" />
    <glyph glyph-name="dslash" unicode="&#x111;" horiz-adv-x="681" 
d="M93 199q-3 133 91.5 235t218.5 99q70 0 111 -32t54 -65h6l29 159h-168l12 64h168l17 91h79l-17 -91h57l-12 -64h-57l-90 -486q-8 -41 30 -41h26l-13 -68h-50q-41 0 -61 21t-14 55l1 6h-7l-16 -19l-25 -22q-20 -17 -40 -28q-52 -26 -116 -26q-98 0 -156 58t-58 154z
M175 210q0 -70 40.5 -111t110.5 -41q95 -2 160 73t63 178q0 71 -41 111.5t-110 40.5q-89 2 -157 -74.5t-66 -176.5z" />
    <glyph glyph-name="Emacron" unicode="&#x112;" horiz-adv-x="560" 
d="M510 0h-410l130 700h399l-14 -74h-318l-43 -233h274l-14 -73h-274l-45 -247h329zM581 814h-242l12 67h242z" />
    <glyph glyph-name="emacron" unicode="&#x113;" horiz-adv-x="609" 
d="M93 204q0 139 86 234t222 95q118 0 174 -74.5t32 -191.5l-6 -35h-422q-9 -82 29 -128.5t116 -46.5q54 0 102 25.5t72 70.5h83q-28 -74 -102 -121q-73 -45 -169 -45q-101 0 -159 59.5t-58 157.5zM194 302h337q6 74 -32.5 116.5t-106.5 42.5q-69 0 -125 -43
q-57 -45 -73 -116zM542 634h-242l12 67h242z" />
    <glyph glyph-name="Edotaccent" unicode="&#x116;" horiz-adv-x="560" 
d="M510 0h-410l130 700h399l-14 -74h-318l-43 -233h274l-14 -73h-274l-45 -247h329zM412 840q0 28 20.5 48.5t48.5 20.5q21 0 34.5 -13t13.5 -33q0 -28 -21 -48.5t-49 -20.5q-21 0 -34 13t-13 33z" />
    <glyph glyph-name="edotaccent" unicode="&#x117;" horiz-adv-x="609" 
d="M93 204q0 139 86 234t222 95q118 0 174 -74.5t32 -191.5l-6 -35h-422q-9 -82 29 -128.5t116 -46.5q54 0 102 25.5t72 70.5h83q-28 -74 -102 -121q-73 -45 -169 -45q-101 0 -159 59.5t-58 157.5zM194 302h337q6 74 -32.5 116.5t-106.5 42.5q-69 0 -125 -43
q-57 -45 -73 -116zM373 660q0 28 20.5 48.5t48.5 20.5q21 0 34.5 -13t13.5 -33q0 -28 -21 -48.5t-49 -20.5q-21 0 -34 13t-13 33z" />
    <glyph glyph-name="Eogonek" unicode="&#x118;" horiz-adv-x="560" 
d="M433 0h-333l130 700h399l-14 -74h-318l-43 -233h274l-14 -73h-274l-45 -247h329l-14 -73l-58 -59q-27 -27 -27 -43q0 -12 9.5 -19t23.5 -7h29l-12 -64h-48q-35 0 -58 18.5t-23 48.5q0 18 10 37q12 22 37 47z" />
    <glyph glyph-name="eogonek" unicode="&#x119;" horiz-adv-x="609" 
d="M93 204q0 139 86 234t222 95q118 0 174 -74.5t32 -191.5l-6 -35h-422q-9 -82 29 -128.5t116 -46.5q54 0 102 25.5t72 70.5h83q-24 -65 -84 -108.5t-141 -54.5l-48 -49q-27 -27 -27 -43q0 -12 9.5 -19t23.5 -7h29l-12 -64h-48q-34 0 -57.5 18.5t-23.5 48.5q0 18 10 37
q12 22 37 47l29 30q-88 10 -136.5 68t-48.5 147zM194 302h337q6 74 -32.5 116.5t-106.5 42.5q-69 0 -125 -43q-57 -45 -73 -116z" />
    <glyph glyph-name="Ecaron" unicode="&#x11a;" horiz-adv-x="560" 
d="M510 0h-410l130 700h399l-14 -74h-318l-43 -233h274l-14 -73h-274l-45 -247h329zM414 790l-70 130h70l47 -62h6l70 62h79l-118 -130h-84z" />
    <glyph glyph-name="ecaron" unicode="&#x11b;" horiz-adv-x="609" 
d="M93 204q0 139 86 234t222 95q118 0 174 -74.5t32 -191.5l-6 -35h-422q-9 -82 29 -128.5t116 -46.5q54 0 102 25.5t72 70.5h83q-28 -74 -102 -121q-73 -45 -169 -45q-101 0 -159 59.5t-58 157.5zM194 302h337q6 74 -32.5 116.5t-106.5 42.5q-69 0 -125 -43
q-57 -45 -73 -116zM375 610l-70 130h70l47 -62h6l70 62h79l-118 -130h-84z" />
    <glyph glyph-name="Gbreve" unicode="&#x11e;" horiz-adv-x="813" 
d="M108 276q0 180 126 308.5t308 128.5q118 0 194 -63t93 -164h-90q-16 71 -71 111t-140 40q-136 3 -237 -102t-98 -247q0 -101 62 -163t169 -62q108 0 194 65t109 169h-284l13 71h375q-12 -95 -52 -169.5t-98.5 -120t-127 -68.5t-142.5 -23q-135 0 -220 80q-83 81 -83 209z
M456 915h59q-12 -71 51 -71q31 0 51.5 19.5t25.5 51.5h67q-9 -56 -49 -91t-101 -35q-62 0 -91 36t-13 90z" />
    <glyph glyph-name="gbreve" unicode="&#x11f;" horiz-adv-x="650" 
d="M77 -81h75q2 -44 38 -68.5t96 -24.5q88 0 141 45.5t68 128.5l15 82h-6q-13 -17 -45 -42q-67 -53 -152 -53q-99 0 -157 58t-58 154q-3 133 91.5 235t218.5 99q70 0 111 -32t54 -65h6l15 84h79l-96 -520q-45 -243 -297 -243q-92 0 -144.5 44.5t-52.5 117.5zM174 210
q0 -70 40.5 -111t110.5 -41q89 -2 157 74.5t66 176.5q0 71 -41 111.5t-110 40.5q-89 2 -157 -74.5t-66 -176.5zM334 735h59q-12 -71 51 -71q31 0 51.5 19.5t25.5 51.5h67q-9 -56 -49 -91t-101 -35q-62 0 -91 36t-13 90z" />
    <glyph glyph-name="Gdotaccent" unicode="&#x120;" horiz-adv-x="813" 
d="M108 276q0 180 126 308.5t308 128.5q118 0 194 -63t93 -164h-90q-16 71 -71 111t-140 40q-136 3 -237 -102t-98 -247q0 -101 62 -163t169 -62q108 0 194 65t109 169h-284l13 71h375q-12 -95 -52 -169.5t-98.5 -120t-127 -68.5t-142.5 -23q-135 0 -220 80q-83 81 -83 209z
M516 840q0 28 20.5 48.5t48.5 20.5q21 0 34.5 -13t13.5 -33q0 -28 -21 -48.5t-49 -20.5q-21 0 -34 13t-13 33z" />
    <glyph glyph-name="gdotaccent" unicode="&#x121;" horiz-adv-x="650" 
d="M77 -81h75q2 -44 38 -68.5t96 -24.5q88 0 141 45.5t68 128.5l15 82h-6q-13 -17 -45 -42q-67 -53 -152 -53q-99 0 -157 58t-58 154q-3 133 91.5 235t218.5 99q70 0 111 -32t54 -65h6l15 84h79l-96 -520q-45 -243 -297 -243q-92 0 -144.5 44.5t-52.5 117.5zM174 210
q0 -70 40.5 -111t110.5 -41q89 -2 157 74.5t66 176.5q0 71 -41 111.5t-110 40.5q-89 2 -157 -74.5t-66 -176.5zM394 660q0 28 20.5 48.5t48.5 20.5q21 0 34.5 -13t13.5 -33q0 -28 -21 -48.5t-49 -20.5q-21 0 -34 13t-13 33z" />
    <glyph glyph-name="uni0122" unicode="&#x122;" horiz-adv-x="813" 
d="M108 276q0 180 126 308.5t308 128.5q118 0 194 -63t93 -164h-90q-16 71 -71 111t-140 40q-136 3 -237 -102t-98 -247q0 -101 62 -163t169 -62q108 0 194 65t109 169h-284l13 71h375q-12 -95 -52 -169.5t-98.5 -120t-127 -68.5t-142.5 -23q-135 0 -220 80q-83 81 -83 209z
M376 -229h-60l47 169h79z" />
    <glyph glyph-name="uni0123" unicode="&#x123;" horiz-adv-x="650" 
d="M77 -81h75q2 -44 38 -68.5t96 -24.5q88 0 141 45.5t68 128.5l15 82h-6q-13 -17 -45 -42q-67 -53 -152 -53q-99 0 -157 58t-58 154q-3 133 91.5 235t218.5 99q70 0 111 -32t54 -65h6l15 84h79l-96 -520q-45 -243 -297 -243q-92 0 -144.5 44.5t-52.5 117.5zM174 210
q0 -70 40.5 -111t110.5 -41q89 -2 157 74.5t66 176.5q0 71 -41 111.5t-110 40.5q-89 2 -157 -74.5t-66 -176.5zM451 611h-79l66 169h60z" />
    <glyph glyph-name="Hcircumflex" unicode="&#x124;" horiz-adv-x="734" 
d="M181 0h-81l130 700h81l-57 -307h372l57 307h81l-130 -700h-81l59 319h-372zM461 790h-80l118 130h84l70 -130h-69l-48 62h-6z" />
    <glyph glyph-name="hcircumflex" unicode="&#x125;" horiz-adv-x="612" 
d="M169 0h-79l139 750h79l-57 -306h6q26 38 74 63.5t104 25.5q88 0 131.5 -59t26.5 -147l-61 -327h-79l60 322q12 62 -22 99q-35 38 -89 38q-60 0 -112 -41q-50 -41 -62 -102zM226 790h-80l118 130h84l70 -130h-69l-48 62h-6z" />
    <glyph glyph-name="Hbar" unicode="&#x126;" horiz-adv-x="840" 
d="M234 0h-81l97 524h-53l13 72h54l19 104h81l-19 -104h372l19 104h81l-19 -104h52l-13 -72h-53l-97 -524h-81l59 319h-372zM331 524l-24 -131h372l24 131h-372z" />
    <glyph glyph-name="hbar" unicode="&#x127;" horiz-adv-x="612" 
d="M169 0h-79l110 595h-65l12 64h65l17 91h79l-17 -91h160l-12 -64h-160l-28 -151h6q26 38 74 63.5t104 25.5q88 0 131.5 -59t26.5 -147l-61 -327h-79l60 322q12 62 -22 99q-35 38 -89 38q-60 0 -112 -41q-50 -41 -62 -102z" />
    <glyph glyph-name="Imacron" unicode="&#x12a;" horiz-adv-x="281" 
d="M181 0h-81l130 700h81zM416 814h-242l12 67h242z" />
    <glyph glyph-name="imacron" unicode="&#x12b;" horiz-adv-x="280" 
d="M109 98l77 422h79l-76 -409q-6 -41 30 -41h26l-13 -70h-40q-48 0 -69.5 26t-13.5 72zM367 634h-242l12 67h242z" />
    <glyph glyph-name="Iogonek" unicode="&#x12e;" horiz-adv-x="281" 
d="M17 -125q0 18 10 37q12 22 37 47l40 41h-4l130 700h81l-130 -700l-58 -59q-27 -27 -27 -43q0 -12 9.5 -19t23.5 -7h29l-12 -64h-48q-35 0 -58 18.5t-23 48.5z" />
    <glyph glyph-name="iogonek" unicode="&#x12f;" horiz-adv-x="327" 
d="M68 -125q0 18 10 37q11 21 37 47l44 45q-64 17 -50 94l77 422h79l-76 -409q-6 -41 30 -41h26l-13 -70l-58 -59q-27 -27 -27 -43q0 -12 9.5 -19t23.5 -7h29l-12 -64h-48q-35 0 -58 18.5t-23 48.5zM198 660q0 28 20.5 48.5t48.5 20.5q22 0 35 -12.5t13 -33.5
q0 -28 -21 -48.5t-49 -20.5q-20 0 -33.5 13t-13.5 33z" />
    <glyph glyph-name="Idot" unicode="&#x130;" horiz-adv-x="281" 
d="M181 0h-81l130 700h81zM247 840q0 28 20.5 48.5t48.5 20.5q21 0 34.5 -13t13.5 -33q0 -28 -21 -48.5t-49 -20.5q-21 0 -34 13t-13 33z" />
    <glyph glyph-name="dotlessi" unicode="&#x131;" horiz-adv-x="280" 
d="M109 98l77 422h79l-76 -409q-6 -41 30 -41h26l-13 -70h-40q-48 0 -69.5 26t-13.5 72z" />
    <glyph glyph-name="Jcircumflex" unicode="&#x134;" horiz-adv-x="577" 
d="M75 187h77q-9 -60 22 -92.5t99 -32.5q76 0 117.5 43t54.5 109l77 412h-270l14 74h351l-90 -484q-18 -99 -84.5 -164t-184.5 -65q-89 0 -144 52t-39 148zM397 790h-80l118 130h84l70 -130h-69l-48 62h-6z" />
    <glyph glyph-name="jcircumflex" unicode="&#x135;" horiz-adv-x="300" 
d="M1 -230h-39l13 72h39q46 0 75.5 25.5t38.5 71.5l109 581h79l-108 -582q-16 -81 -70 -124.5t-137 -43.5zM237 610h-80l118 130h84l70 -130h-69l-48 62h-6z" />
    <glyph glyph-name="uni0136" unicode="&#x136;" horiz-adv-x="618" 
d="M181 0h-81l130 700h81l-66 -353h6l360 353h105l-308 -297l124 -284q11 -25 24 -35.5t34 -10.5h32l-13 -73h-38q-71 0 -105 75l-119 269l-125 -121zM295 -229h-60l47 169h79z" />
    <glyph glyph-name="uni0137" unicode="&#x137;" horiz-adv-x="531" 
d="M169 0h-79l139 750h79l-88 -475h6l263 245h105l-225 -207l74 -200q16 -46 55 -46h29l-13 -67h-35q-72 0 -101 75l-68 184l-110 -100zM249 -229h-60l47 169h79z" />
    <glyph glyph-name="kgreenlandic" unicode="&#x138;" horiz-adv-x="531" 
d="M169 0h-79l96 520h79l-45 -245h6l265 245h103l-226 -206l75 -201q16 -46 55 -46h29l-13 -67h-35q-72 0 -101 75l-69 185l-110 -100z" />
    <glyph glyph-name="Lacute" unicode="&#x139;" horiz-adv-x="533" 
d="M483 0h-383l130 700h81l-116 -627h302zM316 790h-63l81 133h96z" />
    <glyph glyph-name="lacute" unicode="&#x13a;" horiz-adv-x="277" 
d="M110 111l118 639h79l-118 -639q-6 -41 30 -41h24l-13 -70h-38q-48 0 -70 29t-12 82zM281 790h-63l81 133h96z" />
    <glyph glyph-name="uni013B" unicode="&#x13b;" horiz-adv-x="533" 
d="M483 0h-383l130 700h81l-116 -627h302zM255 -229h-60l47 169h79z" />
    <glyph glyph-name="uni013C" unicode="&#x13c;" horiz-adv-x="277" 
d="M108 -229h-60l47 169h79zM110 111l118 639h79l-118 -639q-6 -41 30 -41h24l-13 -70h-38q-48 0 -70 29t-12 82z" />
    <glyph glyph-name="Lcaron" unicode="&#x13d;" horiz-adv-x="533" 
d="M483 0h-383l130 700h81l-116 -627h302zM506 519h-65l34 181h89z" />
    <glyph glyph-name="lcaron" unicode="&#x13e;" horiz-adv-x="354" 
d="M110 111l118 639h79l-118 -639q-6 -41 30 -41h24l-13 -70h-38q-48 0 -70 29t-12 82zM405 569h-65l34 181h89z" />
    <glyph glyph-name="Ldot" unicode="&#x13f;" horiz-adv-x="600" 
d="M483 0h-383l130 700h81l-116 -627h302zM365 374q0 25 20.5 45.5t46.5 20.5q21 0 34.5 -13t13.5 -33q0 -25 -21.5 -46t-47.5 -21q-20 0 -33 13.5t-13 33.5z" />
    <glyph glyph-name="ldot" unicode="&#x140;" horiz-adv-x="417" 
d="M110 111l118 639h79l-118 -639q-6 -41 30 -41h24l-13 -70h-38q-48 0 -70 29t-12 82zM301 374q0 25 20.5 45.5t46.5 20.5q21 0 34.5 -13t13.5 -33q0 -25 -21 -46t-48 -21q-20 0 -33 13.5t-13 33.5z" />
    <glyph glyph-name="Lslash" unicode="&#x141;" horiz-adv-x="533" 
d="M148 256l-80 -39l15 83l80 39l67 361h81l-59 -317l205 100l-15 -83l-205 -100l-42 -227h302l-14 -73h-383z" />
    <glyph glyph-name="lslash" unicode="&#x142;" horiz-adv-x="367" 
d="M164 320l-79 -41l15 83l79 41l64 347h79l-56 -302l115 60l-15 -83l-115 -60l-47 -254q-8 -41 30 -41h24l-13 -70h-38q-48 0 -70 29t-12 82z" />
    <glyph glyph-name="Nacute" unicode="&#x143;" horiz-adv-x="735" 
d="M181 0h-81l130 700h77l268 -559h6l104 559h80l-130 -700h-78l-266 559h-6zM552 790h-63l81 133h96z" />
    <glyph glyph-name="nacute" unicode="&#x144;" horiz-adv-x="608" 
d="M169 0h-79l96 520h79l-14 -76h6q26 40 73 64.5t103 24.5q88 0 130 -59t26 -147l-61 -327h-79l60 322q12 62 -21 99q-33 38 -88 38q-63 0 -112 -43q-50 -43 -62 -106zM459 610h-63l81 133h96z" />
    <glyph glyph-name="uni0145" unicode="&#x145;" horiz-adv-x="735" 
d="M181 0h-81l130 700h77l268 -559h6l104 559h80l-130 -700h-78l-266 559h-6zM322 -229h-60l47 169h79z" />
    <glyph glyph-name="uni0146" unicode="&#x146;" horiz-adv-x="608" 
d="M169 0h-79l96 520h79l-14 -76h6q26 40 73 64.5t103 24.5q88 0 130 -59t26 -147l-61 -327h-79l60 322q12 62 -21 99q-33 38 -88 38q-63 0 -112 -43q-50 -43 -62 -106zM276 -229h-60l47 169h79z" />
    <glyph glyph-name="Ncaron" unicode="&#x147;" horiz-adv-x="735" 
d="M181 0h-81l130 700h77l268 -559h6l104 559h80l-130 -700h-78l-266 559h-6zM488 790l-70 130h70l47 -62h6l70 62h79l-118 -130h-84z" />
    <glyph glyph-name="ncaron" unicode="&#x148;" horiz-adv-x="608" 
d="M169 0h-79l96 520h79l-14 -76h6q26 40 73 64.5t103 24.5q88 0 130 -59t26 -147l-61 -327h-79l60 322q12 62 -21 99q-33 38 -88 38q-63 0 -112 -43q-50 -43 -62 -106zM395 610l-70 130h70l47 -62h6l70 62h79l-118 -130h-84z" />
    <glyph glyph-name="Eng" unicode="&#x14a;" horiz-adv-x="735" 
d="M181 0h-81l130 700h83l263 -556h6l103 556h80l-141 -762q-12 -74 -74.5 -122t-135.5 -46l14 70q47 0 78 27t39 72l11 61l-265 561h-6z" />
    <glyph glyph-name="eng" unicode="&#x14b;" horiz-adv-x="608" 
d="M169 0h-79l96 520h79l-14 -76h6q26 40 73 64.5t103 24.5q88 0 130 -59t26 -147l-61 -327h-1l-11 -62q-14 -79 -69 -123.5t-140 -44.5h-57l13 72h58q47 0 78 27t38 70l15 81h1l56 302q12 62 -21 99q-33 38 -88 38q-63 0 -112 -43q-50 -43 -62 -106z" />
    <glyph glyph-name="Omacron" unicode="&#x14c;" horiz-adv-x="824" 
d="M108 276q0 179 127.5 308t308.5 129q137 0 219 -82q83 -83 83 -209q0 -180 -128 -307.5t-309 -127.5q-136 0 -219 80q-82 81 -82 209zM193 290q0 -101 63 -164t168 -63q136 0 236.5 103.5t100.5 242.5q0 101 -64 164q-63 64 -167 64q-66 0 -128.5 -27.5t-108.5 -75.5
t-73 -112.5t-27 -131.5zM683 814h-242l12 67h242z" />
    <glyph glyph-name="omacron" unicode="&#x14d;" horiz-adv-x="643" 
d="M93 206q-3 131 92.5 230t230.5 97q102 0 167 -62q64 -61 64 -157q3 -132 -92.5 -230.5t-230.5 -96.5q-103 0 -167 61t-64 158zM175 216q0 -70 43 -113.5t114 -43.5q97 0 164.5 71.5t67.5 172.5q0 70 -43 114t-114 44q-97 0 -164 -72q-68 -71 -68 -173zM561 634h-242
l12 67h242z" />
    <glyph glyph-name="Ohungarumlaut" unicode="&#x150;" horiz-adv-x="824" 
d="M108 276q0 179 127.5 308t308.5 129q137 0 219 -82q83 -83 83 -209q0 -180 -128 -307.5t-309 -127.5q-136 0 -219 80q-82 81 -82 209zM193 290q0 -101 63 -164t168 -63q136 0 236.5 103.5t100.5 242.5q0 101 -64 164q-63 64 -167 64q-66 0 -128.5 -27.5t-108.5 -75.5
t-73 -112.5t-27 -131.5zM505 790h-63l82 142h96zM646 790h-63l82 142h96z" />
    <glyph glyph-name="ohungarumlaut" unicode="&#x151;" horiz-adv-x="643" 
d="M93 206q-3 131 92.5 230t230.5 97q102 0 167 -62q64 -61 64 -157q3 -132 -92.5 -230.5t-230.5 -96.5q-103 0 -167 61t-64 158zM175 216q0 -70 43 -113.5t114 -43.5q97 0 164.5 71.5t67.5 172.5q0 70 -43 114t-114 44q-97 0 -164 -72q-68 -71 -68 -173zM383 610h-63
l82 142h96zM524 610h-63l82 142h96z" />
    <glyph glyph-name="OE" unicode="&#x152;" horiz-adv-x="1095" 
d="M108 276q0 85 35 165.5t95 140.5q60 61 140.5 96t165.5 35q50 0 96 -13h524l-14 -74h-386q85 -91 75 -233h236l-14 -73h-234q-41 -153 -166 -247h398l-14 -73h-536q-52 -13 -100 -13q-136 0 -219 80q-82 81 -82 209zM193 290q0 -101 63 -164t168 -63q84 -2 162 46
t125 129.5t45 170.5q0 101 -63 164q-63 64 -163 64q-66 0 -128.5 -27.5t-108.5 -75.5t-73 -112.5t-27 -131.5z" />
    <glyph glyph-name="oe" unicode="&#x153;" horiz-adv-x="1072" 
d="M93 204q0 133 97.5 231t230.5 98q72 0 126 -31.5t80 -88.5q40 57 102 88.5t136 31.5q118 0 172 -74q54 -73 34 -192l-6 -35h-422q-9 -82 28.5 -128.5t116.5 -46.5q54 0 102 25.5t72 70.5h83q-28 -74 -102 -121q-73 -45 -169 -45q-153 0 -197 129q-46 -60 -115 -94.5
t-143 -34.5q-103 0 -164 60q-62 60 -62 157zM175 216q0 -70 43 -113.5t114 -43.5q92 -2 163 72.5t69 171.5q0 70 -43 114t-114 44q-94 0 -163 -73t-69 -172zM658 302h337q6 74 -32.5 116.5t-106.5 42.5q-69 0 -124 -43q-56 -44 -74 -116z" />
    <glyph glyph-name="Racute" unicode="&#x154;" horiz-adv-x="628" 
d="M181 0h-81l130 700h237q89 0 141.5 -49.5t52.5 -129.5q0 -88 -51 -148t-137 -82l61 -176q10 -24 21.5 -33t32.5 -9h35l-13 -73h-45q-39 0 -62.5 17.5t-37.5 57.5l-71 208h-161zM297 628l-50 -273h156q76 0 124 45.5t48 120.5q0 47 -33.5 77t-93.5 30h-151zM477 790h-63
l81 133h96z" />
    <glyph glyph-name="racute" unicode="&#x155;" horiz-adv-x="400" 
d="M169 0h-79l96 520h78l-18 -97h6q19 37 63 67t97 30h44l-14 -79h-43q-68 0 -117 -48t-63 -125zM369 610h-63l81 133h96z" />
    <glyph glyph-name="uni0156" unicode="&#x156;" horiz-adv-x="628" 
d="M181 0h-81l130 700h237q89 0 141.5 -49.5t52.5 -129.5q0 -88 -51 -148t-137 -82l61 -176q10 -24 21.5 -33t32.5 -9h35l-13 -73h-45q-39 0 -62.5 17.5t-37.5 57.5l-71 208h-161zM290 -229h-60l47 169h79zM297 628l-50 -273h156q76 0 124 45.5t48 120.5q0 47 -33.5 77
t-93.5 30h-151z" />
    <glyph glyph-name="uni0157" unicode="&#x157;" horiz-adv-x="400" 
d="M169 0h-79l96 520h78l-18 -97h6q19 37 63 67t97 30h44l-14 -79h-43q-68 0 -117 -48t-63 -125zM167 -229h-60l47 169h79z" />
    <glyph glyph-name="Rcaron" unicode="&#x158;" horiz-adv-x="628" 
d="M181 0h-81l130 700h237q89 0 141.5 -49.5t52.5 -129.5q0 -88 -51 -148t-137 -82l61 -176q10 -24 21.5 -33t32.5 -9h35l-13 -73h-45q-39 0 -62.5 17.5t-37.5 57.5l-71 208h-161zM297 628l-50 -273h156q76 0 124 45.5t48 120.5q0 47 -33.5 77t-93.5 30h-151zM413 790
l-70 130h70l47 -62h6l70 62h79l-118 -130h-84z" />
    <glyph glyph-name="rcaron" unicode="&#x159;" horiz-adv-x="400" 
d="M169 0h-79l96 520h78l-18 -97h6q19 37 63 67t97 30h44l-14 -79h-43q-68 0 -117 -48t-63 -125zM305 610l-70 130h70l47 -62h6l70 62h79l-118 -130h-84z" />
    <glyph glyph-name="Sacute" unicode="&#x15a;" horiz-adv-x="588" 
d="M84 208h81q-11 -69 27 -107.5t118 -38.5q83 0 133 39t50 107q0 43 -34 69t-82.5 39.5t-97.5 30t-83 53.5t-34 96q0 97 75 157t189 60q91 0 151 -51.5t41 -151.5h-83q11 60 -21.5 94.5t-102.5 34.5q-73 0 -119 -39q-46 -37 -46 -96q0 -33 24.5 -56t61.5 -34t79.5 -25.5
t79.5 -31t61.5 -51.5t24.5 -85q0 -111 -78 -173q-76 -61 -206 -61q-105 0 -167 62q-60 63 -42 159zM463 790h-63l81 133h96z" />
    <glyph glyph-name="sacute" unicode="&#x15b;" horiz-adv-x="529" 
d="M88 151h77q-2 -47 27 -71t84 -24q64 0 102 28.5t38 78.5q0 32 -28 49t-68 24.5t-79.5 17t-67.5 37t-28 73.5q0 75 58 121q59 48 157 48q77 0 121 -41t38 -109h-76q1 39 -23.5 60.5t-74.5 21.5q-52 0 -87 -26t-35 -64q0 -28 28 -43.5t68 -23t80 -18t68 -39t28 -76.5
q0 -88 -59.5 -138t-171.5 -50q-89 0 -136 44.5t-40 119.5zM399 610h-63l81 133h96z" />
    <glyph glyph-name="Scedilla" unicode="&#x15e;" horiz-adv-x="588" 
d="M84 208h81q-11 -69 27 -107.5t118 -38.5q83 0 133 39t50 107q0 43 -34 69t-82.5 39.5t-97.5 30t-83 53.5t-34 96q0 97 75 157t189 60q91 0 151 -51.5t41 -151.5h-83q11 60 -21.5 94.5t-102.5 34.5q-73 0 -119 -39q-46 -37 -46 -96q0 -33 24.5 -56t61.5 -34t79.5 -25.5
t79.5 -31t61.5 -51.5t24.5 -85q0 -108 -74 -170q-73 -61 -199 -64l-18 -41h6q14 9 31 9q26 0 42 -17.5t16 -44.5q0 -40 -31.5 -69t-74.5 -29q-33 0 -53 20.5t-15 53.5h51q-1 -11 7.5 -17.5t20.5 -6.5q16 0 28.5 12.5t12.5 28.5q0 12 -8.5 19.5t-21.5 7.5q-19 0 -31 -16
l-49 1l34 92q-88 12 -136 72q-47 61 -31 146z" />
    <glyph glyph-name="scedilla" unicode="&#x15f;" horiz-adv-x="529" 
d="M88 151h77q-2 -47 27 -71t84 -24q64 0 102 28.5t38 78.5q0 32 -28 49t-68 24.5t-79.5 17t-67.5 37t-28 73.5q0 75 58 121q59 48 157 48q77 0 121 -41t38 -109h-76q1 39 -23.5 60.5t-74.5 21.5q-52 0 -87 -26t-35 -64q0 -28 28 -43.5t68 -23t80 -18t68 -39t28 -76.5
q0 -86 -59.5 -137t-168.5 -51l-18 -41h6q13 9 31 9q26 0 42 -17.5t16 -44.5q0 -40 -31.5 -69t-74.5 -29q-33 0 -53 20.5t-15 53.5h51q0 -24 28 -24q16 0 28.5 12.5t12.5 28.5q0 12 -8.5 19.5t-21.5 7.5q-19 0 -31 -16l-49 1l34 93q-66 12 -99 54.5t-27 105.5z" />
    <glyph glyph-name="Scaron" unicode="&#x160;" horiz-adv-x="588" 
d="M84 208h81q-11 -69 27 -107.5t118 -38.5q83 0 133 39t50 107q0 43 -34 69t-82.5 39.5t-97.5 30t-83 53.5t-34 96q0 97 75 157t189 60q91 0 151 -51.5t41 -151.5h-83q11 60 -21.5 94.5t-102.5 34.5q-73 0 -119 -39q-46 -37 -46 -96q0 -33 24.5 -56t61.5 -34t79.5 -25.5
t79.5 -31t61.5 -51.5t24.5 -85q0 -111 -78 -173q-76 -61 -206 -61q-105 0 -167 62q-60 63 -42 159zM399 790l-70 130h70l47 -62h6l70 62h79l-118 -130h-84z" />
    <glyph glyph-name="scaron" unicode="&#x161;" horiz-adv-x="529" 
d="M88 151h77q-2 -47 27 -71t84 -24q64 0 102 28.5t38 78.5q0 32 -28 49t-68 24.5t-79.5 17t-67.5 37t-28 73.5q0 75 58 121q59 48 157 48q77 0 121 -41t38 -109h-76q1 39 -23.5 60.5t-74.5 21.5q-52 0 -87 -26t-35 -64q0 -28 28 -43.5t68 -23t80 -18t68 -39t28 -76.5
q0 -88 -59.5 -138t-171.5 -50q-89 0 -136 44.5t-40 119.5zM335 610l-70 130h70l47 -62h6l70 62h79l-118 -130h-84z" />
    <glyph glyph-name="uni0162" unicode="&#x162;" horiz-adv-x="569" 
d="M360 626h-214l14 74h509l-14 -74h-214l-116 -626h-81zM250 -229h-60l47 169h79z" />
    <glyph glyph-name="uni0163" unicode="&#x163;" horiz-adv-x="427" 
d="M222 453h-98l12 67h70q32 0 38 32l23 119h74l-28 -151h160l-12 -67h-160l-55 -295q-8 -45 7 -67t58 -22h72l-13 -69h-79q-73 0 -106 40t-18 117zM235 -229h-60l47 169h79z" />
    <glyph glyph-name="Tcaron" unicode="&#x164;" horiz-adv-x="569" 
d="M360 626h-214l14 74h509l-14 -74h-214l-116 -626h-81zM395 790l-70 130h70l47 -62h6l70 62h79l-118 -130h-84z" />
    <glyph glyph-name="tcaron" unicode="&#x165;" horiz-adv-x="432" 
d="M222 453h-98l12 67h70q32 0 38 32l23 119h74l-28 -151h160l-12 -67h-160l-55 -295q-8 -45 7 -67t58 -22h72l-13 -69h-79q-73 0 -106 40t-18 117zM510 569h-65l34 181h89z" />
    <glyph glyph-name="Tbar" unicode="&#x166;" horiz-adv-x="549" 
d="M360 626h-214l14 74h509l-14 -74h-214l-39 -211h155l-13 -70h-155l-64 -345h-81l64 345h-147l13 70h147z" />
    <glyph glyph-name="tbar" unicode="&#x167;" horiz-adv-x="432" 
d="M192 289h-94l12 64h93l19 100h-98l12 67h70q32 0 38 32l23 119h74l-28 -151h160l-12 -67h-160l-19 -100h147l-12 -64h-147l-24 -131q-8 -45 7 -67t58 -22h72l-13 -69h-79q-73 0 -106 40t-18 117z" />
    <glyph glyph-name="Umacron" unicode="&#x16a;" horiz-adv-x="702" 
d="M137 251l83 449h81l-83 -448q-16 -89 20.5 -139.5t124.5 -50.5q86 0 142.5 50.5t73.5 140.5l83 447h80l-83 -448q-22 -126 -100.5 -195.5t-205.5 -69.5q-121 0 -180 72q-59 73 -36 192zM623 814h-242l12 67h242z" />
    <glyph glyph-name="umacron" unicode="&#x16b;" 
d="M116 193l61 327h79l-60 -324q-12 -65 18.5 -101t89.5 -36q62 0 112 42q50 44 62 107l58 312h79l-97 -520h-79l14 76h-6q-56 -89 -175 -89q-88 0 -130 58q-43 59 -26 148zM537 634h-242l12 67h242z" />
    <glyph glyph-name="Uring" unicode="&#x16e;" horiz-adv-x="702" 
d="M137 251l83 449h81l-83 -448q-16 -89 20.5 -139.5t124.5 -50.5q86 0 142.5 50.5t73.5 140.5l83 447h80l-83 -448q-22 -126 -100.5 -195.5t-205.5 -69.5q-121 0 -180 72q-59 73 -36 192zM416 837q0 43 32 74.5t77 31.5q36 0 57.5 -19.5t21.5 -50.5q0 -47 -29.5 -77.5
t-81.5 -30.5q-35 0 -56 20t-21 52zM469 844q0 -31 33 -31q20 0 34.5 14.5t14.5 36.5q0 14 -9.5 22.5t-25.5 8.5q-19 0 -33 -15t-14 -36z" />
    <glyph glyph-name="uring" unicode="&#x16f;" 
d="M116 193l61 327h79l-60 -324q-12 -65 18.5 -101t89.5 -36q62 0 112 42q50 44 62 107l58 312h79l-97 -520h-79l14 76h-6q-56 -89 -175 -89q-88 0 -130 58q-43 59 -26 148zM330 657q0 44 31.5 75t77.5 31q36 0 57.5 -19.5t21.5 -50.5q0 -48 -29.5 -78t-81.5 -30
q-34 0 -55.5 20t-21.5 52zM383 664q0 -31 33 -31q20 0 34.5 15t14.5 36q0 31 -35 31q-19 0 -33 -15t-14 -36z" />
    <glyph glyph-name="Uhungarumlaut" unicode="&#x170;" horiz-adv-x="702" 
d="M137 251l83 449h81l-83 -448q-16 -89 20.5 -139.5t124.5 -50.5q86 0 142.5 50.5t73.5 140.5l83 447h80l-83 -448q-22 -126 -100.5 -195.5t-205.5 -69.5q-121 0 -180 72q-59 73 -36 192zM445 790h-63l82 142h96zM586 790h-63l82 142h96z" />
    <glyph glyph-name="uhungarumlaut" unicode="&#x171;" 
d="M116 193l61 327h79l-60 -324q-12 -65 18.5 -101t89.5 -36q62 0 112 42q50 44 62 107l58 312h79l-97 -520h-79l14 76h-6q-56 -89 -175 -89q-88 0 -130 58q-43 59 -26 148zM359 610h-63l82 142h96zM500 610h-63l82 142h96z" />
    <glyph glyph-name="Uogonek" unicode="&#x172;" horiz-adv-x="702" 
d="M137 251l83 449h81l-83 -448q-16 -89 20.5 -139.5t124.5 -50.5q86 0 142.5 50.5t73.5 140.5l83 447h80l-83 -448q-19 -109 -80.5 -176t-162.5 -84l-50 -51q-27 -27 -27 -43q0 -12 9.5 -19t23.5 -7h29l-12 -64h-48q-35 0 -58 18.5t-23 48.5q0 18 10 37q11 21 37 47l28 28
q-114 6 -166 78q-53 73 -32 186z" />
    <glyph glyph-name="uogonek" unicode="&#x173;" 
d="M116 193l61 327h79l-60 -324q-12 -65 18.5 -101t89.5 -36q62 0 112 42q50 44 62 107l58 312h79l-97 -520l-62 -59q-27 -25 -27 -45q0 -24 33 -24h33l-12 -64h-48q-35 0 -58 17.5t-23 47.5q0 17 9 37q12 23 38 49l41 41h-3l14 76h-6q-56 -89 -175 -89q-88 0 -130 58
q-43 59 -26 148z" />
    <glyph glyph-name="Wcircumflex" unicode="&#x174;" horiz-adv-x="928" 
d="M199 0l-49 700h85l32 -601h6l268 601h102l46 -601h6l254 601h89l-309 -700h-105l-47 591h-6l-267 -591h-105zM556 790h-80l118 130h84l70 -130h-69l-48 62h-6z" />
    <glyph glyph-name="wcircumflex" unicode="&#x175;" horiz-adv-x="862" 
d="M192 0l-66 520h84l46 -430h6l218 430h92l57 -430h6l207 430h86l-259 -520h-102l-55 422h-6l-212 -422h-102zM490 610h-80l118 130h84l70 -130h-69l-48 62h-6z" />
    <glyph glyph-name="Ycircumflex" unicode="&#x176;" horiz-adv-x="632" 
d="M325 269l-175 431h86l139 -348h6l267 348h94l-335 -431l-50 -269h-82zM406 790h-80l118 130h84l70 -130h-69l-48 62h-6z" />
    <glyph glyph-name="ycircumflex" unicode="&#x177;" 
d="M56 -81h73q-1 -45 30 -69t89 -24q84 0 129.5 43.5t61.5 130.5l14 76h-6q-25 -38 -72.5 -63.5t-102.5 -25.5q-88 0 -130 58q-43 59 -26 148l61 327h79l-60 -324q-11 -60 20 -98.5t88 -38.5q62 0 112 42q50 44 62 107l58 312h79l-97 -520q-23 -124 -91.5 -183.5
t-190.5 -59.5q-90 0 -137 44t-43 118zM356 610h-80l118 130h84l70 -130h-69l-48 62h-6z" />
    <glyph glyph-name="Ydieresis" unicode="&#x178;" horiz-adv-x="632" 
d="M325 269l-175 431h86l139 -348h6l267 348h94l-335 -431l-50 -269h-82zM332 844q0 25 20.5 45t45.5 20q21 0 33.5 -12.5t12.5 -31.5q0 -27 -20 -46.5t-46 -19.5q-20 0 -33 13t-13 32zM500 843q0 26 19.5 46t46.5 20q20 0 33 -13t13 -32q0 -25 -20.5 -45t-45.5 -20
q-21 0 -33.5 12.5t-12.5 31.5z" />
    <glyph glyph-name="Zacute" unicode="&#x179;" horiz-adv-x="619" 
d="M569 0h-519l15 80l514 541l1 6h-401l14 73h504l-15 -80l-514 -541l-1 -6h416zM475 790h-63l81 133h96z" />
    <glyph glyph-name="zacute" unicode="&#x17a;" horiz-adv-x="516" 
d="M456 0h-396l12 67l364 380l1 6h-284l12 67h382l-12 -67l-363 -380l-2 -6h298zM388 610h-63l81 133h96z" />
    <glyph glyph-name="Zdotaccent" unicode="&#x17b;" horiz-adv-x="619" 
d="M569 0h-519l15 80l514 541l1 6h-401l14 73h504l-15 -80l-514 -541l-1 -6h416zM409 840q0 28 20.5 48.5t48.5 20.5q22 0 35 -13t13 -33q0 -28 -21 -48.5t-49 -20.5q-21 0 -34 13t-13 33z" />
    <glyph glyph-name="zdotaccent" unicode="&#x17c;" horiz-adv-x="516" 
d="M456 0h-396l12 67l364 380l1 6h-284l12 67h382l-12 -67l-363 -380l-2 -6h298zM322 660q0 28 20.5 48.5t48.5 20.5q22 0 35 -12.5t13 -33.5q0 -28 -21 -48.5t-49 -20.5q-21 0 -34 13t-13 33z" />
    <glyph glyph-name="Zcaron" unicode="&#x17d;" horiz-adv-x="619" 
d="M569 0h-519l15 80l514 541l1 6h-401l14 73h504l-15 -80l-514 -541l-1 -6h416zM411 790l-70 130h70l47 -62h6l70 62h79l-118 -130h-84z" />
    <glyph glyph-name="zcaron" unicode="&#x17e;" horiz-adv-x="516" 
d="M456 0h-396l12 67l364 380l1 6h-284l12 67h382l-12 -67l-363 -380l-2 -6h298zM324 610l-70 130h70l47 -62h6l70 62h79l-118 -130h-84z" />
    <glyph glyph-name="florin" unicode="&#x192;" horiz-adv-x="507" 
d="M220 379h-115v67h127l30 161q14 71 60 107t113 36h61l-13 -69h-41q-87 0 -104 -89l-27 -146h138v-67h-151l-107 -572h-76z" />
    <glyph glyph-name="uni0218" unicode="&#x218;" horiz-adv-x="588" 
d="M84 208h81q-11 -69 27 -107.5t118 -38.5q83 0 133 39t50 107q0 43 -34 69t-82.5 39.5t-97.5 30t-83 53.5t-34 96q0 97 75 157t189 60q91 0 151 -51.5t41 -151.5h-83q11 60 -21.5 94.5t-102.5 34.5q-73 0 -119 -39q-46 -37 -46 -96q0 -33 24.5 -56t61.5 -34t79.5 -25.5
t79.5 -31t61.5 -51.5t24.5 -85q0 -111 -78 -173q-76 -61 -206 -61q-105 0 -167 62q-60 63 -42 159zM264 -229h-60l47 169h79z" />
    <glyph glyph-name="uni0219" unicode="&#x219;" horiz-adv-x="529" 
d="M88 151h77q-2 -47 27 -71t84 -24q64 0 102 28.5t38 78.5q0 32 -28 49t-68 24.5t-79.5 17t-67.5 37t-28 73.5q0 75 58 121q59 48 157 48q77 0 121 -41t38 -109h-76q1 39 -23.5 60.5t-74.5 21.5q-52 0 -87 -26t-35 -64q0 -28 28 -43.5t68 -23t80 -18t68 -39t28 -76.5
q0 -88 -59.5 -138t-171.5 -50q-89 0 -136 44.5t-40 119.5zM227 -229h-60l47 169h79z" />
    <glyph glyph-name="uni021A" unicode="&#x21a;" horiz-adv-x="569" 
d="M360 626h-214l14 74h509l-14 -74h-214l-116 -626h-15l-23 -54h6q13 9 31 9q26 0 42 -17.5t16 -44.5q0 -40 -29 -69t-71 -29q-34 0 -56.5 21t-17.5 53h51q0 -24 28 -24q16 0 28.5 12.5t12.5 28.5q0 27 -30 27q-19 0 -31 -16h-49l38 103h-12z" />
    <glyph glyph-name="uni021B" unicode="&#x21b;" horiz-adv-x="427" 
d="M222 453h-98l12 67h70q32 0 38 32l23 119h74l-28 -151h160l-12 -67h-160l-55 -295q-8 -45 7 -67t58 -22h72l-13 -69h-75l-23 -54h6q14 9 31 9q26 0 42 -17.5t16 -44.5q0 -40 -29 -69t-71 -29q-34 0 -57 21t-17 53h51q0 -24 28 -24q16 0 28.5 12.5t12.5 28.5q0 27 -30 27
q-19 0 -31 -16h-49l40 108q-99 25 -76 152z" />
    <glyph glyph-name="uni0237" unicode="&#x237;" horiz-adv-x="300" 
d="M1 -230h-39l13 72h39q46 0 75.5 25.5t38.5 71.5l109 581h79l-108 -582q-16 -81 -70 -124.5t-137 -43.5z" />
    <glyph glyph-name="circumflex" unicode="&#x2c6;" horiz-adv-x="372" 
d="M243 610h-80l118 130h84l70 -130h-69l-48 62h-6z" />
    <glyph glyph-name="caron" unicode="&#x2c7;" horiz-adv-x="372" 
d="M257 610l-70 130h70l47 -62h6l70 62h79l-118 -130h-84z" />
    <glyph glyph-name="breve" unicode="&#x2d8;" horiz-adv-x="354" 
d="M186 735h59q-12 -71 51 -71q31 0 51.5 19.5t25.5 51.5h67q-9 -56 -49 -91t-101 -35q-62 0 -91 36t-13 90z" />
    <glyph glyph-name="dotaccent" unicode="&#x2d9;" horiz-adv-x="215" 
d="M173 660q0 28 20.5 48.5t48.5 20.5q22 0 35 -12.5t13 -33.5q0 -28 -20.5 -48.5t-49.5 -20.5q-21 0 -34 13t-13 33z" />
    <glyph glyph-name="ring" unicode="&#x2da;" horiz-adv-x="280" 
d="M171 657q0 45 31 75.5t78 30.5q35 0 57 -19.5t22 -50.5q0 -48 -29.5 -78t-81.5 -30q-35 0 -56 20t-21 52zM224 664q0 -31 33 -31q20 0 34.5 15t14.5 36q0 31 -35 31q-20 0 -33.5 -14.5t-13.5 -36.5z" />
    <glyph glyph-name="ogonek" unicode="&#x2db;" horiz-adv-x="242" 
d="M28 -125q0 18 10 37q11 21 37 47l62 63l55 -22l-58 -59q-27 -27 -27 -43q0 -12 9.5 -19t23.5 -7h29l-12 -64h-48q-35 0 -58 18.5t-23 48.5z" />
    <glyph glyph-name="tilde" unicode="&#x2dc;" horiz-adv-x="419" 
d="M224 615h-60q7 56 36.5 87t72.5 31q33 0 70.5 -27t54.5 -27q18 0 32 15.5t16 38.5h59q-7 -55 -36 -87t-71 -32q-33 0 -70 27.5t-56 27.5q-18 0 -32 -14.5t-16 -39.5z" />
    <glyph glyph-name="hungarumlaut" unicode="&#x2dd;" horiz-adv-x="393" 
d="M226 610h-63l82 142h96zM367 610h-63l82 142h96z" />
    <glyph glyph-name="uni0326" unicode="&#x326;" horiz-adv-x="0" 
d="M-127 -229h-60l47 169h79z" />
    <glyph glyph-name="Wgrave" unicode="&#x1e80;" horiz-adv-x="928" 
d="M199 0l-49 700h85l32 -601h6l268 601h102l46 -601h6l254 601h89l-309 -700h-105l-47 591h-6l-267 -591h-105zM596 790l-68 133h96l35 -133h-63z" />
    <glyph glyph-name="wgrave" unicode="&#x1e81;" horiz-adv-x="862" 
d="M192 0l-66 520h84l46 -430h6l218 430h92l57 -430h6l207 430h86l-259 -520h-102l-55 422h-6l-212 -422h-102zM530 610l-68 133h96l35 -133h-63z" />
    <glyph glyph-name="Wacute" unicode="&#x1e82;" horiz-adv-x="928" 
d="M199 0l-49 700h85l32 -601h6l268 601h102l46 -601h6l254 601h89l-309 -700h-105l-47 591h-6l-267 -591h-105zM635 790h-63l81 133h96z" />
    <glyph glyph-name="wacute" unicode="&#x1e83;" horiz-adv-x="862" 
d="M192 0l-66 520h84l46 -430h6l218 430h92l57 -430h6l207 430h86l-259 -520h-102l-55 422h-6l-212 -422h-102zM569 610h-63l81 133h96z" />
    <glyph glyph-name="Wdieresis" unicode="&#x1e84;" horiz-adv-x="928" 
d="M199 0l-49 700h85l32 -601h6l268 601h102l46 -601h6l254 601h89l-309 -700h-105l-47 591h-6l-267 -591h-105zM482 844q0 25 20 45t46 20q21 0 33.5 -12.5t12.5 -31.5q0 -27 -20 -46.5t-46 -19.5q-20 0 -33 13t-13 32zM650 843q0 26 19.5 46t46.5 20q20 0 33 -13t13 -32
q0 -25 -20.5 -45t-45.5 -20q-21 0 -33.5 12.5t-12.5 31.5z" />
    <glyph glyph-name="wdieresis" unicode="&#x1e85;" horiz-adv-x="862" 
d="M192 0l-66 520h84l46 -430h6l218 430h92l57 -430h6l207 430h86l-259 -520h-102l-55 422h-6l-212 -422h-102zM416 664q0 25 20.5 45t45.5 20q21 0 33.5 -12.5t12.5 -31.5q0 -27 -20 -46.5t-46 -19.5q-20 0 -33 13t-13 32zM584 663q0 26 19.5 46t46.5 20q20 0 33 -13
t13 -32q0 -25 -20.5 -45t-45.5 -20q-21 0 -33.5 12.5t-12.5 31.5z" />
    <glyph glyph-name="uni1E9E" unicode="&#x1e9e;" horiz-adv-x="682" 
d="M181 0h-81l90 484q17 93 86 154.5t179 61.5h242l-16 -84l-217 -189l-2 -10h23q79 0 135 -47q55 -46 55 -120q0 -109 -73 -179q-73 -71 -178 -71h-156l14 76h146q64 0 114 47q49 48 49 110q0 47 -32 78t-82 31h-125l16 85l214 189l2 10h-143q-69 0 -113.5 -38.5
t-56.5 -101.5z" />
    <glyph glyph-name="Ygrave" unicode="&#x1ef2;" horiz-adv-x="632" 
d="M325 269l-175 431h86l139 -348h6l267 348h94l-335 -431l-50 -269h-82zM446 790l-68 133h96l35 -133h-63z" />
    <glyph glyph-name="ygrave" unicode="&#x1ef3;" 
d="M56 -81h73q-1 -45 30 -69t89 -24q84 0 129.5 43.5t61.5 130.5l14 76h-6q-25 -38 -72.5 -63.5t-102.5 -25.5q-88 0 -130 58q-43 59 -26 148l61 327h79l-60 -324q-11 -60 20 -98.5t88 -38.5q62 0 112 42q50 44 62 107l58 312h79l-97 -520q-23 -124 -91.5 -183.5
t-190.5 -59.5q-90 0 -137 44t-43 118zM396 610l-68 133h96l35 -133h-63z" />
    <glyph glyph-name="uni2000" unicode="&#x2000;" horiz-adv-x="471" 
 />
    <glyph glyph-name="uni2001" unicode="&#x2001;" horiz-adv-x="943" 
 />
    <glyph glyph-name="uni2002" unicode="&#x2002;" horiz-adv-x="471" 
 />
    <glyph glyph-name="uni2003" unicode="&#x2003;" horiz-adv-x="943" 
 />
    <glyph glyph-name="uni2004" unicode="&#x2004;" horiz-adv-x="314" 
 />
    <glyph glyph-name="uni2005" unicode="&#x2005;" horiz-adv-x="235" 
 />
    <glyph glyph-name="uni2006" unicode="&#x2006;" horiz-adv-x="157" 
 />
    <glyph glyph-name="uni2007" unicode="&#x2007;" horiz-adv-x="157" 
 />
    <glyph glyph-name="uni2008" unicode="&#x2008;" horiz-adv-x="118" 
 />
    <glyph glyph-name="uni2009" unicode="&#x2009;" horiz-adv-x="188" 
 />
    <glyph glyph-name="uni200A" unicode="&#x200a;" horiz-adv-x="52" 
 />
    <glyph glyph-name="uni2010" unicode="&#x2010;" horiz-adv-x="395" 
d="M374 264h-255l14 74h255z" />
    <glyph glyph-name="uni2011" unicode="&#x2011;" horiz-adv-x="395" 
d="M374 264h-255l14 74h255z" />
    <glyph glyph-name="figuredash" unicode="&#x2012;" horiz-adv-x="395" 
d="M374 264h-255l14 74h255z" />
    <glyph glyph-name="endash" unicode="&#x2013;" horiz-adv-x="658" 
d="M637 267h-518l13 68h518z" />
    <glyph glyph-name="emdash" unicode="&#x2014;" horiz-adv-x="923" 
d="M902 267h-783l13 68h783z" />
    <glyph glyph-name="quoteleft" unicode="&#x2018;" horiz-adv-x="246" 
d="M247 476h-87l88 224h58z" />
    <glyph glyph-name="quoteright" unicode="&#x2019;" horiz-adv-x="246" 
d="M216 476h-58l59 224h87z" />
    <glyph glyph-name="quotesinglbase" unicode="&#x201a;" horiz-adv-x="266" 
d="M104 -131h-58l59 224h87z" />
    <glyph glyph-name="quotedblleft" unicode="&#x201c;" horiz-adv-x="390" 
d="M247 476h-87l88 224h58zM391 476h-87l88 224h58z" />
    <glyph glyph-name="quotedblright" unicode="&#x201d;" horiz-adv-x="390" 
d="M216 476h-58l59 224h87zM360 476h-58l59 224h87z" />
    <glyph glyph-name="quotedblbase" unicode="&#x201e;" horiz-adv-x="410" 
d="M104 -131h-58l59 224h87zM248 -131h-58l59 224h87z" />
    <glyph glyph-name="dagger" unicode="&#x2020;" horiz-adv-x="431" 
d="M260 456h-115l13 70h115l32 174h79l-32 -174h117l-13 -70h-117l-85 -456h-79z" />
    <glyph glyph-name="daggerdbl" unicode="&#x2021;" horiz-adv-x="431" 
d="M209 183h-115l13 70h115l36 194h-115l13 70h115l34 183h78l-34 -183h118l-13 -70h-118l-36 -194h118l-13 -70h-118l-34 -183h-78z" />
    <glyph glyph-name="bullet" unicode="&#x2022;" horiz-adv-x="464" 
d="M114 277q0 81 62 143q64 62 145 62q63 0 103 -39.5t40 -99.5q2 -79 -62.5 -143t-144.5 -62q-64 0 -103.5 39t-39.5 100z" />
    <glyph glyph-name="uni202F" unicode="&#x202f;" horiz-adv-x="188" 
 />
    <glyph glyph-name="perthousand" unicode="&#x2030;" horiz-adv-x="1137" 
d="M154 455l23 126q10 60 52 96t104 36q60 0 91.5 -37t20.5 -95l-23 -126q-12 -61 -52.5 -96.5t-102.5 -35.5q-57 0 -91 37q-32 37 -22 95zM224 26l-52 42l540 606l52 -42zM245 580l-23 -124q-5 -28 10.5 -47.5t43.5 -19.5q30 0 52 18.5t27 48.5l23 124q5 27 -11 46.5
t-44 19.5q-30 0 -51.5 -18.5t-26.5 -47.5zM491 119l23 126q11 61 52.5 96.5t103.5 35.5q59 0 91 -37t21 -95l-23 -126q-12 -61 -52.5 -96.5t-102.5 -35.5q-57 0 -91 37q-32 37 -22 95zM582 244l-23 -124q-5 -28 10.5 -47.5t43.5 -19.5q30 0 52 18.5t27 48.5l23 124
q5 27 -11.5 46.5t-43.5 19.5q-30 0 -51.5 -18.5t-26.5 -47.5zM821 119l23 126q11 61 52.5 96.5t103.5 35.5q60 0 91.5 -37t20.5 -95l-23 -126q-12 -61 -52.5 -96.5t-102.5 -35.5q-57 0 -91 37q-32 37 -22 95zM912 244l-23 -124q-5 -28 10.5 -47.5t43.5 -19.5q30 0 52 18.5
t27 48.5l23 124q5 27 -11 46.5t-44 19.5q-30 0 -51.5 -18.5t-26.5 -47.5z" />
    <glyph glyph-name="guilsinglleft" unicode="&#x2039;" horiz-adv-x="321" 
d="M276 108l-162 157l10 54l220 157l-19 -92l-131 -96l-2 -6l97 -96z" />
    <glyph glyph-name="guilsinglright" unicode="&#x203a;" horiz-adv-x="321" 
d="M305 265l-220 -157l19 92l131 96l2 6l-97 96l13 78l162 -157z" />
    <glyph glyph-name="fraction" unicode="&#x2044;" horiz-adv-x="482" 
d="M75 -41h-76l534 782h76z" />
    <glyph glyph-name="uni205F" unicode="&#x205f;" horiz-adv-x="235" 
 />
    <glyph glyph-name="Euro" unicode="&#x20ac;" horiz-adv-x="628" 
d="M121 243h-56l11 61h57l16 88h-56l11 61h56l7 38q19 103 93 162q74 60 171 60t151 -65q56 -64 36 -162h-80q12 64 -22 107t-96 43q-67 0 -114 -41.5t-60 -108.5l-6 -33h200l-11 -61h-200l-16 -88h199l-11 -61h-200l-5 -29q-12 -65 21.5 -107.5t96.5 -42.5q68 0 114.5 41
t59.5 109h80q-19 -108 -91 -167.5t-174 -59.5q-90 0 -148 61.5t-40 160.5z" />
    <glyph glyph-name="uni2116" unicode="&#x2116;" horiz-adv-x="1173" 
d="M181 0h-81l130 700h77l268 -559h6l104 559h80l-130 -700h-78l-266 559h-6zM1120 228h-327l14 74h327zM833 500q-2 82 65 148.5t149 64.5q66 0 107 -40.5t41 -103.5q0 -84 -64.5 -148t-149.5 -64q-66 0 -107 40t-41 103zM902 511q0 -39 25 -63.5t66 -24.5q55 0 94 39
q39 41 39 95q0 40 -24.5 65t-66.5 25q-53 0 -94 -41q-39 -40 -39 -95z" />
    <glyph glyph-name="trademark" unicode="&#x2122;" horiz-adv-x="814" 
d="M272 644h-93l10 56h246l-10 -56h-93l-56 -304h-60zM485 340h-58l66 360h56l81 -283h6l185 283h62l-66 -360h-58l43 236h-3l-153 -236h-48l-67 236h-3z" />
    <glyph glyph-name="arrowleft" unicode="&#x2190;" horiz-adv-x="814" 
d="M477 -56l-293 294v63l293 293l56 -56l-225 -223v-6h590v-79h-590v-6l225 -224z" />
    <glyph glyph-name="arrowup" unicode="&#x2191;" horiz-adv-x="750" 
d="M184 365l-56 56l293 293h63l294 -293l-56 -56l-224 225h-6v-590h-79v590h-6z" />
    <glyph glyph-name="arrowright" unicode="&#x2192;" horiz-adv-x="814" 
d="M774 230h-590v79h590v6l-225 223l56 56l293 -293v-63l-293 -294l-56 56l225 224v6z" />
    <glyph glyph-name="arrowdown" unicode="&#x2193;" horiz-adv-x="750" 
d="M421 -14l-293 293l56 56l223 -225h6v590h79v-590h6l224 225l56 -56l-294 -293h-63z" />
    <glyph glyph-name="uni2196" unicode="&#x2196;" horiz-adv-x="655" 
d="M154 186h-79l1 415l44 44h415v-79l-317 1l-4 -4l417 -417l-56 -56l-417 417l-4 -4v-317z" />
    <glyph glyph-name="uni2197" unicode="&#x2197;" horiz-adv-x="655" 
d="M242 90l-56 56l417 417l-4 4l-317 -1v79h415l44 -44l1 -415h-79v317l-4 4z" />
    <glyph glyph-name="uni2198" unicode="&#x2198;" horiz-adv-x="655" 
d="M551 81l-417 417l56 56l417 -417l4 4l-1 317h80l-1 -415l-45 -44h-414v79l317 -2z" />
    <glyph glyph-name="uni2199" unicode="&#x2199;" horiz-adv-x="655" 
d="M142 43l-1 415h80l-1 -317l4 -4l417 417l56 -56l-417 -417l4 -5l317 2v-79h-414z" />
    <glyph glyph-name="minus" unicode="&#x2212;" horiz-adv-x="480" 
d="M527 278h-470l12 67h470z" />
    <glyph glyph-name="uni25FC" unicode="&#x25fc;" horiz-adv-x="520" 
d="M520 0h-520v520h520v-520z" />
    <glyph glyph-name="_1" horiz-adv-x="0" 
 />
    <glyph glyph-name="CR" horiz-adv-x="333" 
 />
    <glyph glyph-name="i.loclTRK" horiz-adv-x="249" 
d="M109 98l77 422h79l-76 -409q-6 -41 30 -41h26l-13 -70h-40q-48 0 -69.5 26t-13.5 72zM197 660q0 28 20.5 48.5t48.5 20.5q22 0 35 -12.5t13 -33.5q0 -28 -21 -48.5t-49 -20.5q-21 0 -34 13t-13 33z" />
    <glyph glyph-name="zero.tf" horiz-adv-x="624" 
d="M124 209l52 282q20 103 93 162q73 60 171 60q90 0 148 -61t40 -161l-52 -282q-20 -105 -93 -163q-74 -59 -171 -59q-90 0 -148 61.5t-40 160.5zM255 486l-50 -272q-12 -65 21.5 -107.5t96.5 -42.5q69 0 115 41t59 109l50 272q12 64 -22 107t-96 43q-68 0 -114.5 -41.5
t-59.5 -108.5z" />
    <glyph glyph-name="one.tf" horiz-adv-x="624" 
d="M456 535h-170l12 65q95 0 139 23t55 77h76l-130 -700h-81z" />
    <glyph glyph-name="two.tf" horiz-adv-x="624" 
d="M530 0h-435l16 89q12 66 54.5 115t123.5 95l142 80q107 61 107 157q0 47 -30 74t-85 27q-63 0 -105 -36t-51 -93h-79q13 86 78 145.5t170 59.5q85 0 135 -50q51 -49 51 -120q0 -139 -160 -228l-137 -78q-66 -38 -95.5 -71.5t-36.5 -75.5l-3 -16h354z" />
    <glyph glyph-name="three.tf" horiz-adv-x="624" 
d="M123 193h76q-9 -56 23 -92.5t96 -36.5q76 0 127 51q51 53 51 127q0 53 -35 84.5t-92 31.5h-81l12 69l216 193l1 6h-298l14 74h407l-14 -75l-219 -191l-1 -6q79 -3 127 -52q48 -50 48 -121q0 -114 -76 -190.5t-200 -76.5q-68 0 -113.5 32.5t-61.5 78.5t-7 94z" />
    <glyph glyph-name="four.tf" horiz-adv-x="624" 
d="M412 177h-305l12 64l308 459h89l-299 -445l-1 -6h209l30 158h80l-30 -158h92l-13 -72h-92l-33 -177h-80z" />
    <glyph glyph-name="five.tf" horiz-adv-x="624" 
d="M117 182h76q-5 -57 28.5 -88.5t97.5 -31.5q73 0 129 57q55 58 55 134q0 55 -36 88t-98 33q-55 0 -96 -29q-30 -20 -45 -40h-74l97 395h376l-14 -74h-304l-57 -225h6q6 5 17 13t46.5 21t73.5 13q85 0 138 -53t53 -132q0 -113 -80.5 -194.5t-197.5 -81.5q-92 0 -147 54
q-54 54 -44 141z" />
    <glyph glyph-name="six.tf" horiz-adv-x="624" 
d="M114 179q0 88 64 173l263 348h92l-205 -261l3 -4q31 12 67 12q86 0 139 -51q54 -51 54 -132q2 -113 -80.5 -196t-199.5 -81q-87 0 -142 55t-55 137zM197 185q0 -54 34.5 -88t91.5 -34q74 0 128 55q55 55 55 132q0 55 -34.5 89.5t-91.5 34.5q-74 0 -129 -57
q-54 -55 -54 -132z" />
    <glyph glyph-name="seven.tf" horiz-adv-x="624" 
d="M280 0h-90l364 620l1 6h-342l14 74h430l-13 -69z" />
    <glyph glyph-name="eight.tf" horiz-adv-x="624" 
d="M110 160q0 68 43 125.5t114 85.5l2 6q-27 15 -47 49t-20 73q0 89 69 151q71 63 173 63q74 0 124 -44q49 -43 49 -113q0 -56 -32.5 -105t-86.5 -74l-2 -6q39 -17 64.5 -52.5t25.5 -86.5q0 -104 -78 -174.5t-199 -70.5q-87 0 -143 48t-56 125zM195 170q0 -49 34 -79t94 -30
q74 0 127 47q52 46 52 116q0 50 -35.5 79.5t-93.5 29.5q-73 0 -126 -48q-52 -46 -52 -115zM285 501q0 -41 28 -67.5t74 -26.5q61 0 104 41q42 40 42 98q0 41 -28 66.5t-75 25.5q-64 0 -104 -40q-41 -41 -41 -97z" />
    <glyph glyph-name="nine.tf" horiz-adv-x="624" 
d="M163 436q0 115 80.5 196t199.5 81q86 0 141 -55q56 -56 56 -137q0 -90 -64 -173l-263 -348h-92l205 261l-3 4q-31 -12 -67 -12q-86 0 -140 51q-53 51 -53 132zM248 450q0 -55 34 -89.5t92 -34.5q74 0 128 56q55 56 55 133q0 55 -34 88.5t-92 33.5q-73 0 -129 -56
q-54 -55 -54 -131z" />
    <glyph glyph-name="caron.Slovak" horiz-adv-x="189" 
d="M211 519h-65l34 181h89z" />
    <glyph glyph-name="NULL" horiz-adv-x="0" 
 />
    </font>
</defs>
</svg>
