<?xml version="1.0" standalone="no"?>
<!DOCTYPE svg PUBLIC "-//W3C//DTD SVG 1.1//EN" "http://www.w3.org/Graphics/SVG/1.1/DTD/svg11.dtd" >
<svg xmlns="http://www.w3.org/2000/svg" xmlns:xlink="http://www.w3.org/1999/xlink" version="1.1">
<metadata>
Created by FontForge 20170731 at Fri Sep  7 20:21:49 2018
 By Aleksey,,,
Copyright (c) 2018 by atipo. All rights reserved. |DCNT
</metadata>
<defs>
<font id="Silka-BoldItalic" horiz-adv-x="604" >
  <font-face 
    font-family="Silka"
    font-weight="700"
    font-style="italic"
    font-stretch="normal"
    units-per-em="1000"
    panose-1="0 0 8 0 0 0 0 0 0 0"
    ascent="750"
    descent="-250"
    x-height="528"
    cap-height="700"
    bbox="-218 -243 1215 946"
    underline-thickness="50"
    underline-position="-399"
    unicode-range="U+000D-25FC"
  />
<missing-glyph horiz-adv-x="568" 
d="M534 0h-500l130 700h500zM196 605l-94 -510l217 255zM341 305l-218 -255h340zM574 650h-340l123 -255zM596 605l-217 -255l123 -255z" />
    <glyph glyph-name="ellipsis" unicode="&#x2e;&#x2e;&#x2e;" horiz-adv-x="791" 
d="M63 54q0 39 31 69q32 30 71 30q33 0 52.5 -18.5t19.5 -48.5q0 -41 -30.5 -70t-72.5 -29q-31 0 -51 18.5t-20 48.5zM322 54q0 39 30 69t71 30q33 0 52.5 -18.5t19.5 -48.5q0 -41 -30 -70t-73 -29q-31 0 -50.5 18.5t-19.5 48.5zM580 54q0 39 30 69q32 30 71 30
q33 0 53 -18.5t20 -48.5q0 -41 -30.5 -70t-72.5 -29q-31 0 -51 18.5t-20 48.5z" />
    <glyph glyph-name="degree.alt" unicode="&#xb0;C" horiz-adv-x="951" 
d="M155 536q0 72 51 125q51 52 129 52q57 0 91.5 -33t34.5 -85q0 -74 -52 -126q-51 -51 -129 -51q-58 0 -91.5 32.5t-33.5 85.5zM251 553q0 -19 12.5 -32t33.5 -13q28 0 48 21t20 50q0 19 -13 31.5t-34 12.5q-27 0 -47 -20.5t-20 -49.5zM460 220l48 260q20 110 99 171
q80 62 188 62q110 0 165 -67q56 -67 37 -176h-157q8 42 -12 68t-59 26q-40 0 -69 -25t-37 -69l-44 -240q-9 -42 11 -68t59 -26q40 0 69.5 25.5t37.5 67.5h156q-18 -113 -95 -177.5t-194 -64.5q-99 0 -160.5 63.5t-42.5 169.5z" />
    <glyph glyph-name=".notdef" horiz-adv-x="568" 
d="M534 0h-500l130 700h500zM196 605l-94 -510l217 255zM341 305l-218 -255h340zM574 650h-340l123 -255zM596 605l-217 -255l123 -255z" />
    <glyph glyph-name=".null" horiz-adv-x="0" 
 />
    <glyph glyph-name="nonmarkingreturn" horiz-adv-x="333" 
 />
    <glyph glyph-name="CR.001" unicode="&#xd;" horiz-adv-x="0" 
 />
    <glyph glyph-name="space" unicode=" " horiz-adv-x="258" 
 />
    <glyph glyph-name="exclam" unicode="!" horiz-adv-x="300" 
d="M76 54q0 39 31 69t71 30q33 0 52.5 -18.5t19.5 -48.5q0 -41 -30.5 -70t-72.5 -29q-31 0 -51 18.5t-20 48.5zM235 209h-91l9 229l48 262h158l-48 -262z" />
    <glyph glyph-name="quotedbl" unicode="&#x22;" horiz-adv-x="464" 
d="M275 463h-114l32 237h139zM476 463h-115l32 237h139z" />
    <glyph glyph-name="numbersign" unicode="#" horiz-adv-x="599" 
d="M148 184h-68l21 114h85l35 103h-70l21 114h88l62 185h120l-62 -185h81l62 185h120l-62 -185h67l-21 -114h-85l-35 -103h71l-21 -114h-88l-62 -184h-120l62 184h-81l-62 -184h-120zM341 401l-35 -103h81l35 103h-81z" />
    <glyph glyph-name="dollar" unicode="$" horiz-adv-x="608" 
d="M70 228h151q-6 -34 10.5 -58t52.5 -33l28 152q-63 17 -99 37q-75 38 -79 137q0 105 70 172q69 66 186 77l10 54h84l-10 -56q95 -12 142.5 -69.5t32.5 -150.5h-157q11 57 -45 76l-26 -139l40 -10q46 -12 77 -30q82 -45 82 -135q0 -115 -73.5 -185t-205.5 -79l-14 -73h-84
l14 75q-105 12 -155 76t-32 162zM297 496q0 -30 44 -47l22 118q-30 -7 -48 -26.5t-18 -44.5zM392 267l-24 -132q38 7 60 27.5t22 51.5q0 34 -58 53z" />
    <glyph glyph-name="percent" unicode="%" horiz-adv-x="836" 
d="M147 455l23 126q11 61 55 96.5t110 35.5q63 0 95.5 -37t21.5 -95l-23 -126q-11 -61 -55 -96.5t-109 -35.5q-62 0 -95.5 36.5t-22.5 95.5zM257 26l-74 62l526 593l74 -62zM269 579l-22 -122q-4 -19 5 -31.5t28 -12.5q20 0 33.5 12.5t17.5 31.5l23 122q3 19 -7 31t-28 12
q-20 0 -33 -12t-17 -31zM513 119l23 126q11 61 55 96.5t110 35.5q63 0 95.5 -36.5t21.5 -95.5l-23 -126q-12 -61 -56 -96.5t-109 -35.5q-63 0 -95.5 36.5t-21.5 95.5zM635 243l-23 -122q-4 -18 6 -31t28 -13q41 0 50 44l23 122q4 18 -6 30.5t-29 12.5q-40 0 -49 -43z" />
    <glyph glyph-name="ampersand" unicode="&#x26;" horiz-adv-x="706" 
d="M69 170q0 81 49 133q43 47 106 78q-37 53 -37 119q0 90 67 151q68 62 168 62q76 0 123 -43q49 -42 49 -108q0 -65 -35 -114q-41 -55 -116 -91l-10 -5l91 -114q52 73 49 157h135q2 -140 -94 -257q17 -10 40 -10h25l-25 -128h-59q-63 0 -101 38q-92 -51 -197 -51
q-96 0 -162 49.5t-66 133.5zM222 191q0 -30 24 -50.5t62 -20.5q49 0 100 24l-110 141q-76 -37 -76 -94zM329 511q0 -30 29 -65l19 10q38 18 55 36.5t17 46.5q0 19 -13 31.5t-36 12.5q-30 0 -50.5 -20.5t-20.5 -51.5z" />
    <glyph glyph-name="quotesingle" unicode="'" horiz-adv-x="264" 
d="M275 463h-114l32 237h139z" />
    <glyph glyph-name="parenleft" unicode="(" horiz-adv-x="505" 
d="M86 219q0 178 98 324q98 145 270 234l104 -81q-146 -80 -233 -203q-85 -121 -85 -263q0 -96 47 -174.5t128 -131.5l-116 -81q-92 56 -153 157q-60 100 -60 219z" />
    <glyph glyph-name="parenright" unicode=")" horiz-adv-x="505" 
d="M166 -157l-104 81q146 79 232 203t86 263q0 95 -47 173.5t-128 132.5l115 81q92 -56 153 -157q61 -100 61 -219q0 -178 -98 -324q-98 -145 -270 -234z" />
    <glyph glyph-name="asterisk" unicode="*" horiz-adv-x="465" 
d="M261 500l-113 -11l13 73l108 -13l3 6l-74 68l61 52l53 -88l5 3l8 110h73l-32 -110l5 -3l84 88l42 -52l-98 -68v-6l112 13l-14 -73l-108 11l-3 -7l75 -66l-62 -52l-53 86l-5 -3l-7 -108h-73l33 108l-5 3l-85 -86l-42 52l98 66z" />
    <glyph glyph-name="plus" unicode="+" horiz-adv-x="501" 
d="M234 251h-183l23 120h183l34 188h126l-34 -188h182l-23 -120h-182l-35 -188h-126z" />
    <glyph glyph-name="comma" unicode="," horiz-adv-x="273" 
d="M137 -131h-111l68 262h151z" />
    <glyph glyph-name="hyphen" unicode="-" horiz-adv-x="384" 
d="M379 240h-286l25 131h285z" />
    <glyph glyph-name="period" unicode="." horiz-adv-x="274" 
d="M63 54q0 39 31 69q32 30 71 30q33 0 52.5 -18.5t19.5 -48.5q0 -41 -30.5 -70t-72.5 -29q-31 0 -51 18.5t-20 48.5z" />
    <glyph glyph-name="slash" unicode="/" horiz-adv-x="523" 
d="M163 -108h-150l464 858h151z" />
    <glyph glyph-name="zero" unicode="0" horiz-adv-x="612" 
d="M102 220l48 260q20 109 97.5 171t185.5 62q99 0 162.5 -63.5t44.5 -169.5l-48 -260q-20 -110 -98 -172q-76 -61 -186 -61q-99 0 -162.5 63.5t-43.5 169.5zM305 470l-45 -240q-9 -42 11 -68t60 -26q42 0 70.5 25.5t35.5 68.5l44 240q9 42 -11 68t-60 26t-68.5 -25
t-36.5 -69z" />
    <glyph glyph-name="one" unicode="1" horiz-adv-x="464" 
d="M314 476h-163l21 117q96 0 140.5 25.5t54.5 81.5h145l-130 -700h-157z" />
    <glyph glyph-name="two" unicode="2" horiz-adv-x="587" 
d="M535 0h-475l23 125q13 69 52 117.5t119 90.5l145 80q72 41 72 94q0 28 -19.5 44.5t-54.5 16.5q-40 0 -68 -24t-33 -59h-147q14 96 88 162t187 66q96 0 152 -51q56 -50 56 -127q0 -145 -172 -240l-152 -82q-30 -18 -43 -32.5t-16 -34.5l-2 -9h314z" />
    <glyph glyph-name="three" unicode="3" horiz-adv-x="601" 
d="M107 216h146q-4 -35 16 -57t59 -22q45 0 76 29.5t31 71.5q0 30 -21.5 49.5t-58.5 19.5h-98l21 119l159 127l2 7h-256l26 141h453l-26 -137l-168 -131l-1 -6q59 -12 93.5 -56t34.5 -106q0 -127 -82 -202t-209 -75q-109 0 -162.5 68t-34.5 160z" />
    <glyph glyph-name="four" unicode="4" horiz-adv-x="642" 
d="M382 123h-305l25 132l256 445h163l-245 -431l-1 -6h133l27 144h157l-27 -144h71l-26 -140h-71l-23 -123h-156z" />
    <glyph glyph-name="five" unicode="5" horiz-adv-x="591" 
d="M105 213h146q-4 -34 16.5 -55.5t58.5 -21.5q45 0 77.5 31.5t32.5 74.5q0 32 -21 51.5t-58 19.5q-47 0 -82 -36h-149l107 424h406l-26 -141h-271l-36 -142h5q49 31 105 31q82 0 131 -52t49 -129q0 -120 -82 -200t-209 -80q-106 0 -160.5 64.5t-39.5 160.5z" />
    <glyph glyph-name="six" unicode="6" horiz-adv-x="614" 
d="M94 191q0 91 64 174l249 335h184l-198 -247l3 -4q17 5 33 5q42 0 80.5 -17t67.5 -59t29 -100q2 -122 -87 -208t-214 -83q-89 0 -150 57q-61 58 -61 147zM254 209q0 -32 21.5 -52.5t55.5 -20.5q45 0 79 33t34 78q0 33 -21.5 54t-56.5 21q-44 0 -78 -34t-34 -79z" />
    <glyph glyph-name="seven" unicode="7" horiz-adv-x="560" 
d="M275 0h-178l344 553l1 7h-291l27 141h466l-25 -135z" />
    <glyph glyph-name="eight" unicode="8" horiz-adv-x="615" 
d="M86 168q0 131 137 202l2 8q-54 40 -54 113q0 93 75 158q76 64 190 64q92 0 147 -45q56 -44 56 -115q0 -111 -108 -175l-2 -8q75 -48 75 -131q0 -111 -82 -181q-80 -70 -217 -70q-98 0 -159 50q-60 51 -60 130zM248 196q0 -31 22.5 -50t60.5 -19q46 0 80 29q34 30 34 72
q0 32 -23 51t-60 19q-48 0 -81 -29.5t-33 -72.5zM320 490q0 -27 18.5 -44t48.5 -17q39 0 66.5 26t27.5 62q0 26 -18 43t-48 17q-40 0 -67.5 -25.5t-27.5 -61.5z" />
    <glyph glyph-name="nine" unicode="9" horiz-adv-x="614" 
d="M139 422q-3 121 85.5 207t214.5 84q91 0 150 -58q61 -57 61 -146q0 -91 -64 -174l-249 -335h-184l198 247l-3 4q-17 -5 -33 -5q-67 0 -121.5 45.5t-54.5 130.5zM300 453q0 -33 21.5 -54t56.5 -21q44 0 78 34t34 79q0 32 -21.5 52.5t-55.5 20.5q-45 0 -79 -33t-34 -78z
" />
    <glyph glyph-name="colon" unicode=":" horiz-adv-x="274" 
d="M63 54q0 39 31 69q32 30 71 30q33 0 52.5 -18.5t19.5 -48.5q0 -41 -30.5 -70t-72.5 -29q-31 0 -51 18.5t-20 48.5zM126 395q0 39 31 69t71 30q33 0 52.5 -18.5t19.5 -48.5q0 -42 -30 -71t-72 -29q-31 0 -51.5 19t-20.5 49z" />
    <glyph glyph-name="semicolon" unicode=";" horiz-adv-x="277" 
d="M137 -131h-111l68 262h151zM127 395q0 39 30 69q31 30 72 30q32 0 51.5 -18.5t19.5 -48.5q0 -41 -30 -70.5t-72 -29.5q-31 0 -51 19t-20 49z" />
    <glyph glyph-name="less" unicode="&#x3c;" horiz-adv-x="532" 
d="M493 80l-394 160l26 144l453 160l-23 -132l-303 -100l-1 -6l266 -98z" />
    <glyph glyph-name="equal" unicode="=" horiz-adv-x="501" 
d="M523 147h-491l23 121h491zM560 344h-491l22 120h491z" />
    <glyph glyph-name="greater" unicode="&#x3e;" horiz-adv-x="532" 
d="M522 240l-453 -160l25 132l303 101l1 6l-267 97l25 128l393 -160z" />
    <glyph glyph-name="question" unicode="?" horiz-adv-x="559" 
d="M286 499h-141q14 92 82 153t176 61q92 0 146.5 -46t54.5 -120q0 -135 -145 -216l-58 -35q-39 -26 -44 -61l-5 -26h-139l9 42q10 50 34 83t70 60l62 39q60 37 60 88q0 25 -18 40t-50 15q-38 0 -63 -21.5t-31 -55.5zM170 54q0 40 30 69q32 30 73 30q32 0 51.5 -18.5
t19.5 -48.5q0 -41 -30.5 -70t-72.5 -29q-31 0 -51 18.5t-20 48.5z" />
    <glyph glyph-name="at" unicode="@" horiz-adv-x="902" 
d="M98 182q0 131 65.5 244.5t179.5 181.5t249 68q155 0 248.5 -87.5t93.5 -219.5q2 -127 -65 -218t-161 -89q-92 0 -107 72h-6q-51 -73 -148 -73q-66 0 -106 40.5t-40 108.5q0 100 63 174q65 74 151 73q70 0 94 -49h6l8 40h114l-43 -232q-5 -25 5.5 -38.5t33.5 -13.5
q37 0 65 57q28 56 28 132q0 102 -70 160q-69 60 -184 60q-95 2 -179.5 -50t-134.5 -141t-48 -188q0 -111 69.5 -173t192.5 -62h181l-20 -104h-180q-161 0 -258 91q-97 90 -97 236zM420 237q0 -32 19 -51t50 -19q43 0 73 33t30 81q0 31 -19 50.5t-51 18.5q-42 0 -72 -34
q-30 -33 -30 -79z" />
    <glyph glyph-name="A" unicode="A" horiz-adv-x="707" 
d="M182 0h-169l367 700h203l111 -700h-166l-18 124h-264zM445 526l-134 -261h181l-38 261h-9z" />
    <glyph glyph-name="B" unicode="B" horiz-adv-x="615" 
d="M366 0h-297l130 700h274q88 0 136.5 -41t48.5 -109q0 -55 -28.5 -103t-79.5 -75l-1 -6q33 -15 54 -47t21 -77q2 -96 -75.5 -170t-182.5 -72zM277 305l-32 -172h102q49 0 80 29.5t31 75.5q0 32 -22.5 49.5t-59.5 17.5h-99zM325 571l-27 -152h102q41 0 70 27t29 66
q0 27 -19 43t-52 16h-103z" />
    <glyph glyph-name="C" unicode="C" horiz-adv-x="806" 
d="M98 277q0 86 32.5 166t90.5 140q59 61 142 95.5t177 34.5q139 0 217.5 -76.5t80.5 -196.5h-172q-4 54 -46 87.5t-108 33.5q-98 3 -173.5 -75.5t-73.5 -181.5q0 -75 45.5 -120t123.5 -45q67 0 122 32.5t82 85.5h173q-35 -118 -144.5 -194t-260.5 -76q-142 0 -225 80.5
t-83 209.5z" />
    <glyph glyph-name="D" unicode="D" horiz-adv-x="719" 
d="M333 0h-264l130 700h249q144 0 223 -76q80 -75 80 -199q0 -186 -115.5 -305.5t-302.5 -119.5zM331 563l-78 -426h83q107 0 177 76q71 77 71 193q0 79 -48 118t-121 39h-84z" />
    <glyph glyph-name="E" unicode="E" horiz-adv-x="562" 
d="M523 0h-454l130 700h443l-25 -135h-285l-27 -145h243l-26 -135h-242l-28 -149h296z" />
    <glyph glyph-name="F" unicode="F" horiz-adv-x="552" 
d="M227 0h-158l130 700h443l-25 -135h-285l-30 -161h256l-25 -135h-256z" />
    <glyph glyph-name="G" unicode="G" horiz-adv-x="810" 
d="M98 276q0 182 126 309.5t317 127.5q134 0 213.5 -72t85.5 -185h-174q-10 48 -50.5 76.5t-102.5 28.5q-100 3 -175 -75.5t-73 -183.5q0 -76 45.5 -121.5t123.5 -45.5q73 0 129 34q58 34 76 83h-190l24 130h366q-16 -184 -134 -289.5t-296 -105.5q-140 0 -226 80
q-85 79 -85 209z" />
    <glyph glyph-name="H" unicode="H" horiz-adv-x="733" 
d="M227 0h-158l130 700h158l-51 -271h280l50 271h159l-130 -700h-159l52 277h-280z" />
    <glyph glyph-name="I" unicode="I" horiz-adv-x="296" 
d="M227 0h-158l130 700h158z" />
    <glyph glyph-name="J" unicode="J" horiz-adv-x="594" 
d="M72 225h144q-2 -14 -2 -20q0 -29 15 -48q21 -25 69 -25q49 0 80 30t40 78l59 323h-222l26 137h381l-87 -467q-21 -116 -97.5 -180.5t-198.5 -64.5q-115 0 -171 65q-41 49 -41 119q0 21 5 53z" />
    <glyph glyph-name="K" unicode="K" horiz-adv-x="670" 
d="M227 0h-158l130 700h158l-50 -267h6l265 267h198l-282 -274l94 -246q17 -43 58 -43h26l-25 -137h-74q-87 0 -122 85l-84 217l-100 -97z" />
    <glyph glyph-name="L" unicode="L" horiz-adv-x="537" 
d="M501 0h-432l130 700h158l-103 -559h274z" />
    <glyph glyph-name="M" unicode="M" horiz-adv-x="889" 
d="M221 0h-152l130 700h189l98 -475h6l256 475h203l-130 -700h-153l73 396h-6l-220 -396h-127l-85 412h-6z" />
    <glyph glyph-name="N" unicode="N" horiz-adv-x="740" 
d="M222 0h-153l130 700h166l195 -440h6l82 440h153l-130 -700h-166l-195 440h-6z" />
    <glyph glyph-name="O" unicode="O" horiz-adv-x="823" 
d="M98 279q0 180 128 307t318 127q141 0 226 -82q85 -81 85 -211q0 -180 -128.5 -306.5t-317.5 -126.5q-141 0 -227 81q-84 81 -84 211zM265 306q0 -75 47.5 -121t125.5 -46q99 -2 175.5 75t74.5 179q0 75 -47 121.5t-125 46.5q-100 2 -176.5 -75.5t-74.5 -179.5z" />
    <glyph glyph-name="P" unicode="P" horiz-adv-x="610" 
d="M227 0h-158l130 700h269q90 0 149 -53q58 -52 58 -136q0 -121 -82.5 -201t-206.5 -80h-116zM332 565l-37 -201h97q50 0 84 36q35 37 35 88q0 35 -22.5 56t-59.5 21h-97z" />
    <glyph glyph-name="Q" unicode="Q" horiz-adv-x="825" 
d="M98 279q0 180 128 307t318 127q141 0 226 -82q85 -81 85 -211q0 -164 -110 -287q13 -3 29 -3h58l-25 -130h-68q-67 0 -109 42q-100 -55 -221 -55q-141 0 -227 81q-84 81 -84 211zM265 306q0 -75 47.5 -121t125.5 -46q53 0 100 22l-123 165h164l61 -82q48 68 48 149
q0 75 -47 121.5t-125 46.5q-100 2 -176.5 -75.5t-74.5 -179.5z" />
    <glyph glyph-name="R" unicode="R" horiz-adv-x="647" 
d="M227 0h-158l130 700h274q93 0 151 -53q58 -52 58 -137q0 -78 -45.5 -144.5t-120.5 -100.5l31 -87q17 -41 58 -41h35l-25 -137h-81q-97 0 -121 85l-46 149h-97zM332 565l-36 -196h101q52 0 87 34t35 87q0 34 -23 54.5t-64 20.5h-100z" />
    <glyph glyph-name="S" unicode="S" horiz-adv-x="608" 
d="M70 228h151q-1 -6 -1 -17q0 -32 22 -53q29 -26 87 -26q55 0 88 22t33 60q0 23 -23.5 38t-58.5 22.5t-76 20t-76 29t-58.5 52.5t-23.5 87q0 113 80 181q81 69 212 69q156 0 207 -100q19 -35 19 -83q0 -19 -3 -40h-157q1 5 1 14q0 27 -18 45q-25 23 -71 23q-47 0 -77 -21
t-30 -55q0 -26 33.5 -41.5t80.5 -26t94.5 -26t81 -53.5t33.5 -97q0 -124 -83.5 -194.5t-233.5 -70.5q-125 0 -190 66q-48 51 -48 125q0 22 5 50z" />
    <glyph glyph-name="T" unicode="T" 
d="M327 563h-196l26 137h550l-26 -137h-196l-104 -563h-159z" />
    <glyph glyph-name="U" unicode="U" horiz-adv-x="694" 
d="M112 266l80 434h159l-81 -433q-3 -18 -3 -34q0 -38 18 -62q25 -33 88 -35q60 0 99 34.5t51 97.5l80 432h159l-81 -433q-25 -136 -108.5 -208t-222.5 -72q-130 -1 -195 77q-49 58 -49 142q0 28 6 60z" />
    <glyph glyph-name="V" unicode="V" horiz-adv-x="707" 
d="M271 0l-128 700h176l71 -486h8l252 486h174l-390 -700h-163z" />
    <glyph glyph-name="W" unicode="W" horiz-adv-x="996" 
d="M195 0l-52 700h172l18 -455h8l189 455h195l20 -455h8l186 455h174l-312 -700h-187l-24 473h-9l-200 -473h-186z" />
    <glyph glyph-name="X" unicode="X" horiz-adv-x="662" 
d="M193 0h-183l281 359l-140 341h176l84 -214h6l163 214h180l-268 -341l148 -359h-181l-86 235h-6z" />
    <glyph glyph-name="Y" unicode="Y" horiz-adv-x="668" 
d="M307 271l-164 429h168l93 -269h8l193 269h180l-319 -428l-51 -272h-159z" />
    <glyph glyph-name="Z" unicode="Z" horiz-adv-x="625" 
d="M582 0h-539l25 138l410 419l2 8h-320l25 135h525l-26 -137l-410 -419l-2 -8h335z" />
    <glyph glyph-name="bracketleft" unicode="[" horiz-adv-x="422" 
d="M295 -149h-256l169 912h256l-23 -123h-108l-123 -665h108z" />
    <glyph glyph-name="backslash" unicode="\" horiz-adv-x="523" 
d="M324 -108l-147 858h146l146 -858h-145z" />
    <glyph glyph-name="bracketright" unicode="]" horiz-adv-x="422" 
d="M303 -149h-256l23 124h108l123 665h-108l23 123h256z" />
    <glyph glyph-name="asciicircum" unicode="^" horiz-adv-x="594" 
d="M243 298h-137l256 402h130l107 -402h-126l-66 263h-6z" />
    <glyph glyph-name="underscore" unicode="_" horiz-adv-x="653" 
d="M570 -154h-544l23 125h544z" />
    <glyph glyph-name="grave" unicode="`" horiz-adv-x="283" 
d="M247 603l-66 152h151l20 -152h-105z" />
    <glyph glyph-name="a" unicode="a" horiz-adv-x="676" 
d="M80 200q0 143 87 242t209 99q52 0 88 -21.5t50 -51.5h8l11 60h154l-64 -346q-1 -5 -1 -14q0 -14 6 -21q9 -12 30 -12h19l-24 -135h-74q-89 0 -97 68v5h-7q-24 -28 -65 -54q-50 -32 -125 -32q-95 0 -150 58t-55 155zM241 232q0 -48 26.5 -76.5t73.5 -28.5q63 0 106 49
t43 120q0 48 -27 76.5t-73 28.5q-61 0 -105 -50t-44 -119z" />
    <glyph glyph-name="b" unicode="b" horiz-adv-x="655" 
d="M219 0h-153l139 750h155l-53 -282h8q27 31 70 52t93 21q90 0 142.5 -57t52.5 -153q0 -143 -87 -243.5t-214 -100.5q-57 0 -89.5 23t-44.5 50h-8zM264 233q0 -49 26 -77.5t73 -28.5q63 0 106 49q44 50 44 119q0 48 -27 77t-73 29q-61 0 -105 -50t-44 -118z" />
    <glyph glyph-name="c" unicode="c" horiz-adv-x="626" 
d="M80 209q-2 136 96 235t238 97q111 0 172 -61q57 -54 57 -138q0 -12 -1 -19h-157q-3 35 -28.5 56.5t-65.5 21.5q-62 0 -107 -50q-45 -49 -45 -118q0 -48 27 -77t74 -29q40 0 73 20t46 52h159q-23 -95 -104 -154q-80 -58 -198 -58q-108 0 -173 62q-63 61 -63 160z" />
    <glyph glyph-name="d" unicode="d" horiz-adv-x="678" 
d="M80 200q-2 139 87.5 241.5t208.5 99.5q52 0 88 -21.5t50 -51.5h8l51 282h155l-105 -567q-1 -5 -1 -13q0 -34 36 -34h20l-25 -136h-74q-90 0 -98 68v4h-6q-74 -85 -190 -85q-95 0 -150 58t-55 155zM241 232q0 -48 26.5 -76.5t73.5 -28.5q63 0 106 49t43 120q0 48 -27 76.5
t-73 28.5q-61 0 -105 -50t-44 -119z" />
    <glyph glyph-name="e" unicode="e" horiz-adv-x="612" 
d="M80 210q0 141 89.5 236t234.5 95q101 0 158.5 -52t66.5 -137v-22q0 -27 -5 -64l-8 -45h-389q-1 -5 -1 -15q0 -39 23 -68q27 -34 81 -34q44 0 78.5 18t49.5 47h142q-28 -84 -108 -133t-189 -49q-101 0 -162 63q-61 62 -61 160zM246 324h242v5q-2 41 -26 67q-27 27 -77 27
q-48 0 -87.5 -28.5t-51.5 -70.5z" />
    <glyph glyph-name="f" unicode="f" horiz-adv-x="440" 
d="M228 -230h-155l116 637h-87l23 121h90l6 34q17 87 81 137.5t156 50.5h76l-23 -128h-58q-33 0 -55.5 -18.5t-28.5 -48.5l-5 -27h133l-23 -121h-130z" />
    <glyph glyph-name="g" unicode="g" horiz-adv-x="644" 
d="M53 -48h141q0 -33 24.5 -51.5t71.5 -18.5q122 0 145 124l11 61h-8q-63 -73 -161 -73q-91 0 -144.5 55.5t-53.5 150.5q-2 137 87.5 240.5t208.5 100.5q53 0 89 -21.5t49 -51.5h8l11 60h154l-97 -522q-21 -111 -102 -180t-220 -69q-87 0 -140 33.5t-69 88.5q-7 21 -7 47
q0 8 2 26zM239 236q0 -48 26.5 -75t73.5 -27q61 0 105 48q44 49 44 117q0 46 -27 74t-73 28q-62 0 -105 -49q-44 -50 -44 -116z" />
    <glyph glyph-name="h" unicode="h" 
d="M221 0h-155l139 750h154l-52 -280h8q23 31 63.5 51t89.5 20q86 0 127 -53q30 -38 29 -93q0 -23 -4 -43l-65 -352h-155l57 307q2 16 2 23q0 24 -14 44q-19 24 -58 26q-40 0 -71.5 -28.5t-38.5 -70.5z" />
    <glyph glyph-name="i" unicode="i" horiz-adv-x="323" 
d="M99 162l68 366h155l-65 -348q-1 -5 -1 -13q0 -34 36 -34h20l-24 -133h-63q-77 0 -108 43q-22 29 -22 76q0 23 4 43zM181 653q0 43 31.5 72.5t77.5 29.5q36 0 57 -18t21 -48q0 -43 -31.5 -72.5t-77.5 -29.5q-35 0 -56.5 18t-21.5 48z" />
    <glyph glyph-name="j" unicode="j" horiz-adv-x="320" 
d="M25 -230h-66l25 137h37q72 0 85 72l102 549h155l-101 -550q-18 -97 -82 -152.5t-155 -55.5zM220 653q0 43 31.5 72.5t77.5 29.5q35 0 56 -18t21 -48q0 -43 -31.5 -72.5t-77.5 -29.5q-35 0 -56 17.5t-21 48.5z" />
    <glyph glyph-name="k" unicode="k" horiz-adv-x="594" 
d="M221 0h-155l139 750h155l-75 -402h6l183 180h192l-211 -197l58 -151q18 -45 60 -45h32l-25 -135h-65q-49 0 -75.5 19.5t-45.5 65.5l-53 137l-96 -89z" />
    <glyph glyph-name="l" unicode="l" horiz-adv-x="319" 
d="M96 166l108 584h155l-104 -566q-2 -10 -2 -15q0 -33 36 -33h20l-24 -136h-55q-78 0 -113 44q-25 31 -25 80q0 22 4 42z" />
    <glyph glyph-name="m" unicode="m" horiz-adv-x="912" 
d="M221 0h-155l98 528h146l-11 -57h8q58 70 152 70q104 0 138 -72h8q67 72 166 72q86 0 129 -52q33 -38 33 -94q0 -21 -4 -40l-66 -355h-155l57 304q3 16 3 30q0 25 -10 41q-16 25 -55 25q-38 0 -67 -28t-37 -72l-56 -300h-155l58 309q2 18 2 24q0 24 -12 42q-16 24 -55 24
q-38 1 -67.5 -27.5t-36.5 -71.5z" />
    <glyph glyph-name="n" unicode="n" horiz-adv-x="600" 
d="M221 0h-155l98 528h146l-11 -58h8q24 31 65.5 51t89.5 20q86 0 128 -53q32 -38 30 -93q0 -23 -4 -43l-65 -352h-155l57 307q3 13 3 24q0 25 -14 44q-19 25 -57 25q-39 0 -69.5 -28.5t-39.5 -71.5z" />
    <glyph glyph-name="o" unicode="o" horiz-adv-x="641" 
d="M80 209q0 138 98 235t241 97q110 0 175 -62t65 -160q0 -137 -98.5 -234.5t-240.5 -97.5q-110 0 -175 62t-65 160zM239 236q0 -51 29 -80t77 -29q63 0 108 48q46 49 46 118q0 48 -28.5 78t-76.5 30q-63 0 -109 -49q-46 -47 -46 -116z" />
    <glyph glyph-name="p" unicode="p" horiz-adv-x="656" 
d="M178 -230h-155l140 758h154l-11 -59h8q21 27 62 50q40 22 96 22h2q92 0 146 -56t54 -149q2 -140 -87.5 -246t-210.5 -103q-53 0 -88 21t-48 52h-8zM264 233q0 -49 27 -77.5t73 -28.5q62 0 105 49q44 50 44 120q0 48 -27 76.5t-73 28.5q-61 0 -105 -50t-44 -118z" />
    <glyph glyph-name="q" unicode="q" horiz-adv-x="645" 
d="M80 197q-2 141 87 244t214 100q57 0 89 -22.5t44 -49.5h8l11 59h154l-141 -758h-155l54 290h-9q-13 -16 -34 -32q-54 -41 -127 -41q-90 0 -142.5 57t-52.5 153zM240 234q0 -49 26.5 -78t72.5 -29q63 0 106 49q44 50 44 119q0 48 -26 77t-73 29q-61 0 -106 -49
q-44 -50 -44 -118z" />
    <glyph glyph-name="r" unicode="r" horiz-adv-x="443" 
d="M221 0h-155l98 528h146l-15 -80h8q23 36 64 60t88 24h51l-28 -146h-60q-58 0 -99 -39t-54 -107z" />
    <glyph glyph-name="s" unicode="s" horiz-adv-x="531" 
d="M66 162h139v-5q0 -27 19 -40q20 -15 58 -15q42 0 66.5 15.5t24.5 43.5q0 21 -27 31t-65.5 15t-76.5 14.5t-65 38.5t-27 77q0 89 69 146q68 58 181 58q94 0 146 -44q43 -37 43 -98q0 -8 -2 -26h-134v3q0 26 -18 39q-19 14 -54 14q-38 0 -62.5 -15.5t-24.5 -39.5
q0 -20 28 -28.5t68 -13t80 -14t68 -39t28 -79.5q0 -97 -71 -155t-196 -58q-109 0 -158 47q-40 37 -40 96q0 16 3 32z" />
    <glyph glyph-name="t" unicode="t" horiz-adv-x="450" 
d="M198 407h-86l23 120h43q48 0 59 49l18 95h147l-27 -143h138l-23 -121h-137l-41 -216q-1 -5 -1 -15q0 -21 10 -31q15 -17 48 -17h68l-24 -128h-107q-86 0 -126 48q-29 35 -29 89q0 18 5 46z" />
    <glyph glyph-name="u" unicode="u" 
d="M95 176l65 352h155l-57 -308q-3 -14 -3 -24q2 -27 14 -44q18 -25 57 -25t69.5 29t39.5 72l56 300h155l-98 -528h-147l11 58h-8q-55 -71 -155 -71q-86 0 -127 53q-31 37 -31 93q0 23 4 43z" />
    <glyph glyph-name="v" unicode="v" horiz-adv-x="584" 
d="M203 0l-89 528h156l47 -344h8l173 344h169l-285 -528h-179z" />
    <glyph glyph-name="w" unicode="w" horiz-adv-x="875" 
d="M163 0l-42 528h161l6 -339h8l164 339h151l37 -339h8l133 339h161l-238 -528h-170l-41 322h-6l-162 -322h-170z" />
    <glyph glyph-name="x" unicode="x" horiz-adv-x="576" 
d="M190 0h-179l232 274l-116 254h162l61 -150h6l117 150h172l-211 -255l127 -273h-164l-71 161h-7z" />
    <glyph glyph-name="y" unicode="y" 
d="M36 -48h138q-1 -3 -1 -10q0 -24 18 -41q22 -19 70 -19q120 0 142 124l10 59h-8q-25 -31 -66 -51t-89 -20q-86 0 -127 53q-31 37 -31 94q0 22 4 42l64 345h155l-56 -301q-2 -16 -2 -22q0 -28 13 -45q18 -26 57 -26q40 0 70.5 29t37.5 72l56 293h155l-97 -522
q-21 -115 -96 -182t-211 -67q-87 0 -138 33.5t-65 88.5q-5 22 -5 43q0 10 2 30z" />
    <glyph glyph-name="z" unicode="z" horiz-adv-x="526" 
d="M480 0h-434l25 137l275 255l2 8h-219l23 128h421l-23 -128l-276 -260l-2 -8h233z" />
    <glyph glyph-name="braceleft" unicode="{" horiz-adv-x="499" 
d="M146 248h-33l22 119h33q20 0 34 12.5t18 31.5l36 190q15 79 70.5 120.5t140.5 41.5h75l-24 -124h-49q-58 0 -70 -60l-35 -190q-13 -67 -65 -78l-1 -8q48 -12 36 -78l-35 -189q-6 -32 5.5 -46.5t42.5 -14.5h49l-24 -124h-75q-80 0 -123.5 41.5t-27.5 121.5l35 190
q4 20 -5.5 32t-29.5 12z" />
    <glyph glyph-name="bar" unicode="|" horiz-adv-x="333" 
d="M203 -206h-149l183 989h149z" />
    <glyph glyph-name="braceright" unicode="}" horiz-adv-x="499" 
d="M146 -149h-75l23 124h49q60 0 71 61l35 189q12 68 64 78l2 8q-48 11 -36 78l35 190q5 31 -5.5 45.5t-42.5 14.5h-49l23 124h75q84 0 124.5 -41.5t26.5 -120.5l-35 -190q-4 -19 6 -31.5t30 -12.5h33l-23 -119h-33q-19 0 -33 -12t-18 -32l-36 -190q-15 -80 -70.5 -121.5
t-140.5 -41.5z" />
    <glyph glyph-name="asciitilde" unicode="~" horiz-adv-x="531" 
d="M173 218h-101q11 79 55 124.5t112 45.5q36 0 91 -26t78 -26t40.5 14.5t22.5 36.5h101q-11 -79 -55.5 -125t-111.5 -46q-37 0 -89.5 28.5t-78.5 28.5q-24 0 -41.5 -15.5t-22.5 -39.5z" />
    <glyph glyph-name="uni00A0" unicode="&#xa0;" horiz-adv-x="258" 
 />
    <glyph glyph-name="exclamdown" unicode="&#xa1;" horiz-adv-x="300" 
d="M202 -153h-158l48 262l76 229h91l-9 -229zM153 461q0 41 30 69q30 30 71 30q32 0 52 -18t20 -48q0 -40 -31 -70q-30 -30 -72 -30q-31 0 -50.5 19t-19.5 48z" />
    <glyph glyph-name="cent" unicode="&#xa2;" horiz-adv-x="626" 
d="M80 293q0 124 77 216q76 91 199 111l16 83h120l-16 -84q82 -15 127 -72.5t39 -139.5h-157q-3 34 -29 56t-65 22q-62 0 -107 -51q-45 -50 -45 -118q0 -48 27 -76.5t74 -28.5q40 0 73 20t46 51h159q-20 -82 -85 -137.5t-158 -69.5l-13 -75h-121l14 77q-81 16 -128 74
t-47 142z" />
    <glyph glyph-name="sterling" unicode="&#xa3;" horiz-adv-x="653" 
d="M592 0h-536l28 151h60l24 126h-51l24 128h51l15 81q19 106 93 166q74 61 183 61q106 0 161 -64t39 -161h-157q5 34 -12.5 55t-52.5 21q-38 0 -64.5 -23t-34.5 -65l-13 -71h167l-24 -128h-167l-24 -126h319z" />
    <glyph glyph-name="yen" unicode="&#xa5;" horiz-adv-x="668" 
d="M276 104h-154l19 104h154l10 55h-154l20 105h99l-127 332h170l93 -269h8l194 269h177l-247 -332h96l-19 -105h-151l-10 -55h151l-20 -104h-150l-20 -104h-159z" />
    <glyph glyph-name="section" unicode="&#xa7;" horiz-adv-x="535" 
d="M41 -20h146q-4 -28 10 -46t48 -18t55.5 19t21.5 48q0 32 -38 56l-120 76q-79 52 -79 129q0 53 29.5 96t77.5 65v8q-38 47 -38 103q0 93 71 155q73 62 183 62q92 0 146 -49t36 -144h-146q4 27 -10.5 45t-47.5 18t-55 -19t-22 -47q0 -31 38 -57l119 -76q80 -51 80 -128
q0 -51 -29 -95t-78 -67l-1 -8q38 -44 38 -103q0 -94 -71 -156q-70 -61 -182 -61q-91 0 -145.5 49t-36.5 145zM232 272q0 -30 34 -49l67 -40q26 0 46 18.5t20 44.5q0 31 -34 50l-67 40q-28 0 -47 -19t-19 -45z" />
    <glyph glyph-name="dieresis" unicode="&#xa8;" horiz-adv-x="413" 
d="M158 662q0 35 27 62t62 27q28 0 44.5 -16.5t16.5 -42.5q0 -37 -26 -63t-63 -26q-27 0 -44 16.5t-17 42.5zM356 661q0 37 26 63.5t63 26.5q27 0 44 -17t17 -43q0 -35 -26.5 -61.5t-61.5 -26.5q-29 0 -45.5 15.5t-16.5 42.5z" />
    <glyph glyph-name="copyright" unicode="&#xa9;" horiz-adv-x="824" 
d="M541 713q140 2 228.5 -83t86.5 -213q0 -85 -35 -164.5t-96 -139.5q-60 -59 -143.5 -93t-172.5 -34q-140 0 -225.5 82t-85.5 211q0 83 35 163.5t95 140.5q61 60 143.5 95t169.5 35zM195 292q0 -96 63 -156t168 -60q137 0 235 96.5t98 232.5q0 96 -64 156q-62 61 -170 61
q-134 0 -232 -98.5t-98 -231.5zM282 310q-2 92 69 162.5t165 68.5q72 0 115 -40.5t42 -105.5h-97q-3 25 -23.5 41.5t-52.5 16.5q-51 0 -87 -38q-35 -38 -35 -92q0 -36 22.5 -58t61.5 -22q67 0 100 57h97q-23 -65 -82 -105q-58 -40 -132 -40t-118.5 43t-44.5 112z" />
    <glyph glyph-name="ordfeminine" unicode="&#xaa;" horiz-adv-x="527" 
d="M138 458q-2 103 64.5 180t155.5 75q39 0 65.5 -16t36.5 -39h7l8 45h116l-48 -260q-6 -35 26 -35h15l-19 -101h-54q-63 0 -73 52v3h-6q-52 -63 -142 -65q-70 0 -111 44t-41 117zM260 482q0 -35 20 -55.5t54 -20.5q46 0 77 36q33 38 33 87q0 35 -20 55t-54 20
q-45 0 -78 -37q-32 -37 -32 -85z" />
    <glyph glyph-name="guillemotleft" unicode="&#xab;" horiz-adv-x="567" 
d="M293 87l-180 171l12 68l244 171l-28 -141l-99 -68l-1 -6l74 -68zM518 87l-181 171l13 68l244 171l-28 -141l-99 -68l-1 -6l74 -68z" />
    <glyph glyph-name="uni00AD" unicode="&#xad;" horiz-adv-x="384" 
d="M379 240h-286l25 131h285z" />
    <glyph glyph-name="registered" unicode="&#xae;" horiz-adv-x="543" 
d="M137 485q-2 110 78.5 191.5t193.5 80.5q90 0 142 -49t52 -130q2 -111 -79 -192t-196 -80q-88 0 -139.5 49t-51.5 130zM206 496q0 -58 35.5 -92t98.5 -34q82 0 137 57q56 59 56 141q0 58 -35.5 91t-100.5 33q-81 0 -136 -57q-55 -56 -55 -139zM327 419h-62l42 224h102
q30 0 48.5 -18t18.5 -45q0 -24 -14.5 -48t-34.5 -32l25 -81h-63l-18 70h-30zM359 590l-8 -48h29q12 0 20 8.5t8 20.5q0 19 -19 19h-30z" />
    <glyph glyph-name="overscore" unicode="&#xaf;" horiz-adv-x="366" 
d="M439 620h-281l21 109h280z" />
    <glyph glyph-name="degree" unicode="&#xb0;" horiz-adv-x="405" 
d="M155 536q0 72 52 124q53 53 128 53q57 0 91.5 -33t34.5 -85q0 -73 -52 -125t-129 -52q-58 0 -91.5 32.5t-33.5 85.5zM251 553q0 -19 12.5 -32t33.5 -13q28 0 48 21t20 50q0 19 -13 31.5t-34 12.5q-27 0 -47 -20.5t-20 -49.5z" />
    <glyph glyph-name="uni00B2" unicode="&#xb2;" horiz-adv-x="374" 
d="M381 294h-279l15 79q9 43 31 69.5t68 50.5l81 41q39 22 39 53q0 13 -10.5 22t-28.5 9q-22 0 -36.5 -12.5t-17.5 -30.5h-90q9 59 50.5 96t107.5 37q56 0 90.5 -29.5t34.5 -75.5q0 -89 -98 -139l-92 -45q-23 -12 -28 -33l-2 -6h182z" />
    <glyph glyph-name="uni00B3" unicode="&#xb3;" horiz-adv-x="376" 
d="M124 419h90q-3 -19 7.5 -31t31.5 -12q23 0 40 15.5t17 36.5q0 16 -11 26t-31 10h-59l14 75l91 70v4h-145l17 87h265l-16 -83l-97 -74l-1 -5q33 -7 53 -33t20 -61q0 -68 -47 -113t-123 -45q-64 0 -95 39q-31 40 -21 94z" />
    <glyph glyph-name="acute" unicode="&#xb4;" horiz-adv-x="283" 
d="M259 603h-104l76 152h149z" />
    <glyph glyph-name="paragraph" unicode="&#xb6;" horiz-adv-x="609" 
d="M141 427q0 107 83.5 190t192.5 83h262l-138 -745h-104l118 634h-51l-117 -634h-104l52 282q-86 0 -140 55t-54 135z" />
    <glyph glyph-name="middot" unicode="&#xb7;" horiz-adv-x="274" 
d="M109 298q0 40 30 70q31 30 71 30q33 0 53 -18.5t20 -48.5q0 -40 -31 -70q-30 -30 -72 -30q-31 0 -51 18.5t-20 48.5z" />
    <glyph glyph-name="cedilla" unicode="&#xb8;" horiz-adv-x="262" 
d="M9 -127h73q0 -7 6 -13t15 -6q14 0 23 9.5t9 22.5q0 21 -22 21q-15 0 -24 -13l-71 1l45 125h70l-30 -67h6q12 9 33 9q30 0 49.5 -17.5t19.5 -46.5q0 -44 -33.5 -73.5t-83.5 -29.5q-42 0 -66.5 21.5t-18.5 56.5z" />
    <glyph glyph-name="uni00B9" unicode="&#xb9;" horiz-adv-x="287" 
d="M248 565h-97l13 71q60 0 85 14.5t32 49.5h90l-76 -406h-97z" />
    <glyph glyph-name="ordmasculine" unicode="&#xba;" horiz-adv-x="525" 
d="M140 464q-3 98 75.5 174.5t179.5 74.5q81 0 130 -46.5t49 -119.5q0 -102 -76 -175.5t-180 -73.5q-81 0 -129.5 45.5t-48.5 120.5zM260 484q0 -35 21.5 -56.5t56.5 -21.5q46 0 80 36q35 37 35 84q0 35 -21 56.5t-57 21.5q-47 0 -81 -36q-34 -34 -34 -84z" />
    <glyph glyph-name="guillemotright" unicode="&#xbb;" horiz-adv-x="570" 
d="M325 258l-244 -171l28 141l99 68l1 6l-74 68l22 127l180 -171zM549 258l-243 -171l28 141l99 68l1 6l-74 68l22 127l180 -171z" />
    <glyph glyph-name="onequarter" unicode="&#xbc;" horiz-adv-x="867" 
d="M248 565h-98l13 71q61 0 86 14.5t31 49.5h90l-75 -406h-98zM273 -41h-121l538 782h120zM694 66h-180l15 81l148 259h100l-141 -250v-3h75l16 87h98l-17 -87h41l-16 -87h-41l-12 -66h-97z" />
    <glyph glyph-name="onehalf" unicode="&#xbd;" horiz-adv-x="881" 
d="M248 565h-98l13 71q61 0 86 14.5t31 49.5h90l-75 -406h-98zM273 -41h-121l538 782h120zM834 -1h-279l15 79q9 43 31 70t67 51l81 41q40 22 40 52q0 14 -10.5 23t-29.5 9q-20 0 -35.5 -12.5t-18.5 -30.5h-89q9 59 50 96t108 37q56 0 90.5 -29.5t34.5 -75.5q0 -89 -99 -139
l-91 -46q-24 -11 -29 -32l-1 -6h181z" />
    <glyph glyph-name="threequarters" unicode="&#xbe;" horiz-adv-x="898" 
d="M124 419h90q-3 -19 7.5 -31t31.5 -12q23 0 40 15.5t17 36.5q0 16 -11 26t-31 10h-59l14 75l91 70v4h-145l17 87h265l-16 -83l-97 -74l-1 -5q33 -7 53 -33t20 -61q0 -68 -47 -113t-123 -45q-64 0 -95 39q-31 40 -21 94zM314 -41h-120l537 782h120zM726 66h-181l15 81
l148 259h100l-140 -250l-1 -3h75l16 87h98l-17 -87h41l-15 -87h-42l-12 -66h-98z" />
    <glyph glyph-name="questiondown" unicode="&#xbf;" horiz-adv-x="559" 
d="M56 0q4 135 146 216l57 35q39 25 45 61l4 26h139l-8 -42q-10 -49 -34.5 -82t-69.5 -61l-63 -39q-60 -39 -60 -88q0 -25 18 -40t50 -15q38 0 63.5 21.5t30.5 55.5h142q-13 -92 -82 -153q-67 -61 -177 -61q-92 0 -146.5 46t-54.5 120zM317 461q0 40 30 69.5t72 29.5
q31 0 51 -18.5t20 -48.5q0 -40 -31 -70q-31 -29 -71 -29q-33 0 -52 18.5t-19 48.5z" />
    <glyph glyph-name="Agrave" unicode="&#xc0;" horiz-adv-x="707" 
d="M182 0h-169l367 700h203l111 -700h-166l-18 124h-264zM445 526l-134 -261h181l-38 261h-9zM459 780l-66 152h151l20 -152h-105z" />
    <glyph glyph-name="Aacute" unicode="&#xc1;" horiz-adv-x="707" 
d="M182 0h-169l367 700h203l111 -700h-166l-18 124h-264zM445 526l-134 -261h181l-38 261h-9zM541 780h-104l76 152h149z" />
    <glyph glyph-name="Acircumflex" unicode="&#xc2;" horiz-adv-x="707" 
d="M182 0h-169l367 700h203l111 -700h-166l-18 124h-264zM445 526l-134 -261h181l-38 261h-9zM438 780h-108l133 151h130l77 -151h-98l-54 52h-8z" />
    <glyph glyph-name="Atilde" unicode="&#xc3;" horiz-adv-x="707" 
d="M182 0h-169l367 700h203l111 -700h-166l-18 124h-264zM445 526l-134 -261h181l-38 261h-9zM407 776h-93q10 71 46 108.5t91 37.5q34 0 67.5 -21t47.5 -21q15 0 27 12t15 30h93q-10 -70 -46.5 -108.5t-89.5 -38.5q-32 0 -65 21t-50 21q-16 0 -27.5 -11t-15.5 -30z" />
    <glyph glyph-name="Adieresis" unicode="&#xc4;" horiz-adv-x="707" 
d="M182 0h-169l367 700h203l111 -700h-166l-18 124h-264zM445 526l-134 -261h181l-38 261h-9zM338 839q0 35 27 62t62 27q28 0 44.5 -16t16.5 -43q0 -36 -26 -62.5t-63 -26.5q-27 0 -44 16.5t-17 42.5zM536 838q0 37 26 63.5t63 26.5q27 0 44 -17t17 -43q0 -35 -26.5 -61.5
t-61.5 -26.5q-29 0 -45.5 15.5t-16.5 42.5z" />
    <glyph glyph-name="Aring" unicode="&#xc5;" horiz-adv-x="707" 
d="M182 0h-169l367 700h203l111 -700h-166l-18 124h-264zM445 526l-134 -261h181l-38 261h-9zM405 827q0 49 35 84q37 35 89 35q41 0 65.5 -22t24.5 -57q0 -51 -35.5 -86t-90.5 -35q-39 0 -63.5 22.5t-24.5 58.5zM476 838q0 -27 29 -27q18 0 30.5 12.5t12.5 30.5
q0 12 -8.5 20t-22.5 8q-17 0 -29 -13t-12 -31z" />
    <glyph glyph-name="AE" unicode="&#xc6;" horiz-adv-x="929" 
d="M176 0h-163l470 700h527l-26 -135h-285l-27 -145h240l-25 -135h-240l-28 -149h296l-25 -136h-454l23 124h-201zM526 532l-177 -267h136l49 267h-8z" />
    <glyph glyph-name="Ccedilla" unicode="&#xc7;" horiz-adv-x="802" 
d="M98 277q0 86 32.5 166t90.5 140q59 61 142 95.5t177 34.5q139 0 217.5 -76.5t80.5 -196.5h-172q-4 54 -46 87.5t-108 33.5q-98 3 -173.5 -75.5t-73.5 -181.5q0 -75 45.5 -120t123.5 -45q67 0 122 32.5t82 85.5h173q-37 -119 -145 -195q-106 -75 -259 -75l-15 -34h6
q12 9 34 9q30 0 49 -17.5t19 -46.5q0 -44 -34 -73.5t-84 -29.5q-42 0 -66 21.5t-18 56.5h73q0 -19 22 -19q13 0 22 9.5t9 22.5q0 21 -22 21q-15 0 -24 -13l-71 1l35 97q-114 18 -179 95t-65 190z" />
    <glyph glyph-name="Egrave" unicode="&#xc8;" horiz-adv-x="562" 
d="M523 0h-454l130 700h443l-25 -135h-285l-27 -145h243l-26 -135h-242l-28 -149h296zM405 780l-66 152h151l20 -152h-105z" />
    <glyph glyph-name="Eacute" unicode="&#xc9;" horiz-adv-x="562" 
d="M523 0h-454l130 700h443l-25 -135h-285l-27 -145h243l-26 -135h-242l-28 -149h296zM488 780h-104l76 152h149z" />
    <glyph glyph-name="Ecircumflex" unicode="&#xca;" horiz-adv-x="562" 
d="M523 0h-454l130 700h443l-25 -135h-285l-27 -145h243l-26 -135h-242l-28 -149h296zM385 780h-108l133 151h130l77 -151h-98l-54 52h-8z" />
    <glyph glyph-name="Edieresis" unicode="&#xcb;" horiz-adv-x="562" 
d="M523 0h-454l130 700h443l-25 -135h-285l-27 -145h243l-26 -135h-242l-28 -149h296zM284 839q0 35 27 62t62 27q28 0 44.5 -16t16.5 -43q0 -36 -26 -62.5t-63 -26.5q-27 0 -44 16.5t-17 42.5zM482 838q0 37 26 63.5t63 26.5q27 0 44 -17t17 -43q0 -35 -26.5 -61.5
t-61.5 -26.5q-29 0 -45.5 15.5t-16.5 42.5z" />
    <glyph glyph-name="Igrave" unicode="&#xcc;" horiz-adv-x="296" 
d="M227 0h-158l130 700h158zM250 780l-66 152h151l20 -152h-105z" />
    <glyph glyph-name="Iacute" unicode="&#xcd;" horiz-adv-x="296" 
d="M227 0h-158l130 700h158zM333 780h-104l76 152h149z" />
    <glyph glyph-name="Icircumflex" unicode="&#xce;" horiz-adv-x="296" 
d="M227 0h-158l130 700h158zM230 780h-108l133 151h130l77 -151h-98l-54 52h-8z" />
    <glyph glyph-name="Idieresis" unicode="&#xcf;" horiz-adv-x="296" 
d="M227 0h-158l130 700h158zM129 839q0 35 27 62t62 27q28 0 44.5 -16t16.5 -43q0 -36 -26 -62.5t-63 -26.5q-27 0 -44 16.5t-17 42.5zM327 838q0 37 26 63.5t63 26.5q27 0 44 -17t17 -43q0 -35 -26.5 -61.5t-61.5 -26.5q-29 0 -45.5 15.5t-16.5 42.5z" />
    <glyph glyph-name="Eth" unicode="&#xd0;" horiz-adv-x="775" 
d="M186 292h-63l20 112h64l55 296h245q143 0 222 -73t79 -197q0 -186 -122 -308t-309 -122h-245zM345 292l-29 -155h79q105 0 176 77q70 76 70 193q0 79 -47 117.5t-120 38.5h-79l-29 -159h121l-20 -112h-122z" />
    <glyph glyph-name="Ntilde" unicode="&#xd1;" horiz-adv-x="740" 
d="M222 0h-153l130 700h166l195 -440h6l82 440h153l-130 -700h-166l-195 440h-6zM430 776h-93q10 71 46 108.5t91 37.5q34 0 67.5 -21t47.5 -21q15 0 27 12t15 30h93q-10 -70 -46.5 -108.5t-89.5 -38.5q-32 0 -65 21t-50 21q-16 0 -27.5 -11t-15.5 -30z" />
    <glyph glyph-name="Ograve" unicode="&#xd2;" horiz-adv-x="823" 
d="M98 279q0 180 128 307t318 127q141 0 226 -82q85 -81 85 -211q0 -180 -128.5 -306.5t-317.5 -126.5q-141 0 -227 81q-84 81 -84 211zM265 306q0 -75 47.5 -121t125.5 -46q99 -2 175.5 75t74.5 179q0 75 -47 121.5t-125 46.5q-100 2 -176.5 -75.5t-74.5 -179.5zM516 780
l-66 152h151l20 -152h-105z" />
    <glyph glyph-name="Oacute" unicode="&#xd3;" horiz-adv-x="823" 
d="M98 279q0 180 128 307t318 127q141 0 226 -82q85 -81 85 -211q0 -180 -128.5 -306.5t-317.5 -126.5q-141 0 -227 81q-84 81 -84 211zM265 306q0 -75 47.5 -121t125.5 -46q99 -2 175.5 75t74.5 179q0 75 -47 121.5t-125 46.5q-100 2 -176.5 -75.5t-74.5 -179.5zM598 780
h-104l76 152h149z" />
    <glyph glyph-name="Ocircumflex" unicode="&#xd4;" horiz-adv-x="823" 
d="M98 279q0 180 128 307t318 127q141 0 226 -82q85 -81 85 -211q0 -180 -128.5 -306.5t-317.5 -126.5q-141 0 -227 81q-84 81 -84 211zM265 306q0 -75 47.5 -121t125.5 -46q99 -2 175.5 75t74.5 179q0 75 -47 121.5t-125 46.5q-100 2 -176.5 -75.5t-74.5 -179.5zM495 780
h-108l133 151h130l77 -151h-98l-54 52h-8z" />
    <glyph glyph-name="Otilde" unicode="&#xd5;" horiz-adv-x="823" 
d="M98 279q0 180 128 307t318 127q141 0 226 -82q85 -81 85 -211q0 -180 -128.5 -306.5t-317.5 -126.5q-141 0 -227 81q-84 81 -84 211zM265 306q0 -75 47.5 -121t125.5 -46q99 -2 175.5 75t74.5 179q0 75 -47 121.5t-125 46.5q-100 2 -176.5 -75.5t-74.5 -179.5zM464 776
h-93q10 71 46 108.5t91 37.5q34 0 67.5 -21t47.5 -21q15 0 27 12t15 30h93q-10 -70 -46.5 -108.5t-89.5 -38.5q-32 0 -65 21t-50 21q-16 0 -28 -11t-15 -30z" />
    <glyph glyph-name="Odieresis" unicode="&#xd6;" horiz-adv-x="823" 
d="M98 279q0 180 128 307t318 127q141 0 226 -82q85 -81 85 -211q0 -180 -128.5 -306.5t-317.5 -126.5q-141 0 -227 81q-84 81 -84 211zM265 306q0 -75 47.5 -121t125.5 -46q99 -2 175.5 75t74.5 179q0 75 -47 121.5t-125 46.5q-100 2 -176.5 -75.5t-74.5 -179.5zM395 839
q0 35 27 62t62 27q28 0 44.5 -16t16.5 -43q0 -36 -26 -62.5t-63 -26.5q-27 0 -44 16.5t-17 42.5zM593 838q0 37 26.5 63.5t62.5 26.5q27 0 44 -17t17 -43q0 -35 -26.5 -61.5t-61.5 -26.5q-29 0 -45.5 15.5t-16.5 42.5z" />
    <glyph glyph-name="multiply" unicode="&#xd7;" horiz-adv-x="489" 
d="M105 58l-74 89l186 164l-124 164l104 86l121 -160l179 160l73 -90l-182 -163l124 -165l-103 -85l-122 161z" />
    <glyph glyph-name="Oslash" unicode="&#xd8;" horiz-adv-x="816" 
d="M203 -50h-131l105 123q-79 79 -79 206q0 179 129.5 306.5t316.5 127.5q82 0 149 -30l48 56h131l-96 -113q79 -80 79 -206q0 -177 -129.5 -305t-316.5 -128q-85 0 -150 30zM265 306q0 -57 27 -97l289 342q-31 10 -65 10q-100 2 -176.5 -75.5t-74.5 -179.5zM661 490
l-289 -341q31 -10 66 -10q99 -2 175.5 75t74.5 179q0 55 -27 97z" />
    <glyph glyph-name="Ugrave" unicode="&#xd9;" horiz-adv-x="694" 
d="M112 266l80 434h159l-81 -433q-11 -63 15 -97t88 -34q60 0 99 34.5t51 97.5l80 432h159l-81 -433q-25 -136 -108.5 -208t-222.5 -72q-130 0 -196 78q-64 78 -42 201zM445 780l-66 152h151l20 -152h-105z" />
    <glyph glyph-name="Uacute" unicode="&#xda;" horiz-adv-x="694" 
d="M112 266l80 434h159l-81 -433q-11 -63 15 -97t88 -34q60 0 99 34.5t51 97.5l80 432h159l-81 -433q-25 -136 -108.5 -208t-222.5 -72q-130 0 -196 78q-64 78 -42 201zM527 780h-104l76 152h149z" />
    <glyph glyph-name="Ucircumflex" unicode="&#xdb;" horiz-adv-x="694" 
d="M112 266l80 434h159l-81 -433q-11 -63 15 -97t88 -34q60 0 99 34.5t51 97.5l80 432h159l-81 -433q-25 -136 -108.5 -208t-222.5 -72q-130 0 -196 78q-64 78 -42 201zM424 780h-108l133 151h130l77 -151h-98l-54 52h-8z" />
    <glyph glyph-name="Udieresis" unicode="&#xdc;" horiz-adv-x="694" 
d="M112 266l80 434h159l-81 -433q-11 -63 15 -97t88 -34q60 0 99 34.5t51 97.5l80 432h159l-81 -433q-25 -136 -108.5 -208t-222.5 -72q-130 0 -196 78q-64 78 -42 201zM324 839q0 35 27 62t62 27q28 0 44.5 -16t16.5 -43q0 -36 -26.5 -62.5t-62.5 -26.5q-27 0 -44 16.5
t-17 42.5zM522 838q0 37 26 63.5t63 26.5q27 0 44 -17t17 -43q0 -35 -26.5 -61.5t-61.5 -26.5q-29 0 -45.5 15.5t-16.5 42.5z" />
    <glyph glyph-name="Yacute" unicode="&#xdd;" horiz-adv-x="668" 
d="M307 271l-164 429h168l93 -269h8l193 269h180l-319 -428l-51 -272h-159zM519 780h-104l76 152h149z" />
    <glyph glyph-name="Thorn" unicode="&#xde;" 
d="M227 0h-158l130 700h158l-19 -103h104q91 0 149 -52t58 -136q0 -121 -81.5 -201.5t-205.5 -80.5h-112zM312 462l-37 -200h91q50 0 84 36q35 37 35 87q0 35 -22.5 56t-59.5 21h-91z" />
    <glyph glyph-name="germandbls" unicode="&#xdf;" horiz-adv-x="635" 
d="M178 -230h-155l138 744q20 110 95 173q76 63 183 63q105 0 165 -51q60 -49 54 -126q-3 -53 -33 -96t-78 -65l-1 -6q47 -18 72.5 -55.5t25.5 -88.5q2 -117 -83.5 -197t-210.5 -78q-40 0 -83 13l27 142q33 -11 63 -11q52 0 86.5 31.5t34.5 78.5q0 33 -26.5 52t-69.5 19h-38
l27 141h7q44 0 74 27.5t30 69.5q0 27 -17.5 43.5t-49.5 16.5q-38 0 -64 -25t-35 -68z" />
    <glyph glyph-name="agrave" unicode="&#xe0;" horiz-adv-x="676" 
d="M80 200q0 143 87 242t209 99q52 0 88 -21.5t50 -51.5h8l11 60h154l-64 -346q-8 -47 35 -47h19l-24 -135h-74q-89 0 -97 68v5h-7q-24 -28 -65 -54q-50 -32 -125 -32q-95 0 -150 58t-55 155zM241 232q0 -48 26.5 -76.5t73.5 -28.5q63 0 106 49t43 120q0 48 -27 76.5
t-73 28.5q-61 0 -105 -50t-44 -119zM401 603l-66 152h151l20 -152h-105z" />
    <glyph glyph-name="aacute" unicode="&#xe1;" horiz-adv-x="676" 
d="M80 200q0 143 87 242t209 99q52 0 88 -21.5t50 -51.5h8l11 60h154l-64 -346q-8 -47 35 -47h19l-24 -135h-74q-89 0 -97 68v5h-7q-24 -28 -65 -54q-50 -32 -125 -32q-95 0 -150 58t-55 155zM241 232q0 -48 26.5 -76.5t73.5 -28.5q63 0 106 49t43 120q0 48 -27 76.5
t-73 28.5q-61 0 -105 -50t-44 -119zM483 603h-104l76 152h149z" />
    <glyph glyph-name="acircumflex" unicode="&#xe2;" horiz-adv-x="676" 
d="M80 200q0 143 87 242t209 99q52 0 88 -21.5t50 -51.5h8l11 60h154l-64 -346q-8 -47 35 -47h19l-24 -135h-74q-89 0 -97 68v5h-7q-24 -28 -65 -54q-50 -32 -125 -32q-95 0 -150 58t-55 155zM241 232q0 -48 26.5 -76.5t73.5 -28.5q63 0 106 49t43 120q0 48 -27 76.5
t-73 28.5q-61 0 -105 -50t-44 -119zM380 603h-108l133 151h130l77 -151h-98l-54 52h-8z" />
    <glyph glyph-name="atilde" unicode="&#xe3;" horiz-adv-x="676" 
d="M80 200q0 143 87 242t209 99q52 0 88 -21.5t50 -51.5h8l11 60h154l-64 -346q-8 -47 35 -47h19l-24 -135h-74q-89 0 -97 68v5h-7q-24 -28 -65 -54q-50 -32 -125 -32q-95 0 -150 58t-55 155zM241 232q0 -48 26.5 -76.5t73.5 -28.5q63 0 106 49t43 120q0 48 -27 76.5
t-73 28.5q-61 0 -105 -50t-44 -119zM349 599h-93q10 71 46 108.5t91 37.5q34 0 67.5 -21t47.5 -21t26.5 12t15.5 30h93q-10 -70 -46.5 -108.5t-89.5 -38.5q-32 0 -65 21t-50 21q-16 0 -27.5 -11t-15.5 -30z" />
    <glyph glyph-name="adieresis" unicode="&#xe4;" horiz-adv-x="676" 
d="M80 200q0 143 87 242t209 99q52 0 88 -21.5t50 -51.5h8l11 60h154l-64 -346q-8 -47 35 -47h19l-24 -135h-74q-89 0 -97 68v5h-7q-24 -28 -65 -54q-50 -32 -125 -32q-95 0 -150 58t-55 155zM241 232q0 -48 26.5 -76.5t73.5 -28.5q63 0 106 49t43 120q0 48 -27 76.5
t-73 28.5q-61 0 -105 -50t-44 -119zM280 662q0 35 27 62t62 27q28 0 44.5 -16.5t16.5 -42.5q0 -37 -26.5 -63t-62.5 -26q-27 0 -44 16.5t-17 42.5zM478 661q0 37 26 63.5t63 26.5q27 0 44 -17t17 -43q0 -35 -26.5 -61.5t-61.5 -26.5q-29 0 -45.5 15.5t-16.5 42.5z" />
    <glyph glyph-name="aring" unicode="&#xe5;" horiz-adv-x="676" 
d="M80 200q0 143 87 242t209 99q52 0 88 -21.5t50 -51.5h8l11 60h154l-64 -346q-8 -47 35 -47h19l-24 -135h-74q-89 0 -97 68v5h-7q-24 -28 -65 -54q-50 -32 -125 -32q-95 0 -150 58t-55 155zM241 232q0 -48 26.5 -76.5t73.5 -28.5q63 0 106 49t43 120q0 48 -27 76.5
t-73 28.5q-61 0 -105 -50t-44 -119zM347 650q0 49 35 84q37 35 89 35q42 0 66 -21.5t24 -57.5q0 -51 -35.5 -86t-90.5 -35q-40 0 -64 22.5t-24 58.5zM418 661q0 -27 29 -27q18 0 30.5 12.5t12.5 30.5q0 12 -8.5 20t-22.5 8q-17 0 -29 -13t-12 -31z" />
    <glyph glyph-name="ae" unicode="&#xe6;" horiz-adv-x="991" 
d="M80 137q0 84 64 133q65 50 167 50h169l2 14q3 42 -24.5 65t-81.5 23q-43 0 -72 -18.5t-36 -46.5h-131q12 79 83 132q70 52 168 52q140 0 184 -81h7q81 81 210 81q125 -1 180.5 -79.5t33.5 -195.5l-8 -44h-388q-7 -52 21.5 -85t82.5 -33q87 0 129 65h140
q-34 -85 -110.5 -133.5t-180.5 -48.5q-63 0 -114 25.5t-74 68.5h-8q-81 -94 -224 -94q-83 0 -136 42t-53 108zM216 152q0 -24 23.5 -38t60.5 -14q62 0 105 31q44 32 47 76l1 12h-156q-35 0 -58 -19t-23 -48zM626 320h245q3 46 -26 75t-80 29q-47 0 -86 -29.5t-53 -74.5z" />
    <glyph glyph-name="ccedilla" unicode="&#xe7;" horiz-adv-x="626" 
d="M80 209q-2 136 96 235t238 97q111 0 172 -61q63 -60 56 -157h-157q-3 35 -28.5 56.5t-65.5 21.5q-62 0 -107 -50q-45 -49 -45 -118q0 -48 27 -77t74 -29q40 0 73 20t46 52h159q-23 -95 -104 -154q-80 -58 -198 -58l-16 -34h6q12 9 34 9q30 0 49 -17.5t19 -46.5
q0 -44 -33 -73.5t-83 -29.5q-43 0 -67 21.5t-18 56.5h73q0 -19 21 -19q13 0 22.5 9.5t9.5 22.5q0 21 -23 21q-15 0 -24 -13l-70 1l36 99q-80 17 -126 75t-46 140z" />
    <glyph glyph-name="egrave" unicode="&#xe8;" horiz-adv-x="612" 
d="M80 210q0 141 89.5 236t234.5 95q126 -1 183.5 -80t36.5 -195l-8 -45h-389q-5 -51 23 -84t80 -33q44 0 78.5 18t49.5 47h142q-28 -84 -108 -133t-189 -49q-101 0 -162 63q-61 62 -61 160zM246 324h242q1 45 -26.5 72t-76.5 27q-48 0 -87.5 -28.5t-51.5 -70.5zM378 603
l-66 152h151l20 -152h-105z" />
    <glyph glyph-name="eacute" unicode="&#xe9;" horiz-adv-x="612" 
d="M80 210q0 141 89.5 236t234.5 95q126 -1 183.5 -80t36.5 -195l-8 -45h-389q-5 -51 23 -84t80 -33q44 0 78.5 18t49.5 47h142q-28 -84 -108 -133t-189 -49q-101 0 -162 63q-61 62 -61 160zM246 324h242q1 45 -26.5 72t-76.5 27q-48 0 -87.5 -28.5t-51.5 -70.5zM460 603
h-104l76 152h149z" />
    <glyph glyph-name="ecircumflex" unicode="&#xea;" horiz-adv-x="612" 
d="M80 210q0 141 89.5 236t234.5 95q126 -1 183.5 -80t36.5 -195l-8 -45h-389q-5 -51 23 -84t80 -33q44 0 78.5 18t49.5 47h142q-28 -84 -108 -133t-189 -49q-101 0 -162 63q-61 62 -61 160zM246 324h242q1 45 -26.5 72t-76.5 27q-48 0 -87.5 -28.5t-51.5 -70.5zM357 603
h-108l133 151h130l77 -151h-98l-54 52h-8z" />
    <glyph glyph-name="edieresis" unicode="&#xeb;" horiz-adv-x="612" 
d="M80 210q0 141 89.5 236t234.5 95q126 -1 183.5 -80t36.5 -195l-8 -45h-389q-5 -51 23 -84t80 -33q44 0 78.5 18t49.5 47h142q-28 -84 -108 -133t-189 -49q-101 0 -162 63q-61 62 -61 160zM246 324h242q1 45 -26.5 72t-76.5 27q-48 0 -87.5 -28.5t-51.5 -70.5zM256 662
q0 35 27 62t62 27q28 0 44.5 -16.5t16.5 -42.5q0 -37 -26 -63t-63 -26q-27 0 -44 16.5t-17 42.5zM454 661q0 37 26 63.5t63 26.5q27 0 44 -17t17 -43q0 -35 -26.5 -61.5t-61.5 -26.5q-29 0 -45.5 15.5t-16.5 42.5z" />
    <glyph glyph-name="igrave" unicode="&#xec;" horiz-adv-x="323" 
d="M99 162l68 366h155l-65 -348q-8 -47 35 -47h20l-24 -133h-63q-77 0 -108.5 42t-17.5 120zM220 603l-66 152h151l20 -152h-105z" />
    <glyph glyph-name="iacute" unicode="&#xed;" horiz-adv-x="323" 
d="M99 162l68 366h155l-65 -348q-8 -47 35 -47h20l-24 -133h-63q-77 0 -108.5 42t-17.5 120zM303 603h-104l76 152h149z" />
    <glyph glyph-name="icircumflex" unicode="&#xee;" horiz-adv-x="323" 
d="M199 603h-108l133 151h130l77 -151h-98l-54 52h-8zM99 162l68 366h155l-65 -348q-8 -47 35 -47h20l-24 -133h-63q-77 0 -108.5 42t-17.5 120z" />
    <glyph glyph-name="idieresis" unicode="&#xef;" horiz-adv-x="323" 
d="M99 162l68 366h155l-65 -348q-8 -47 35 -47h20l-24 -133h-63q-77 0 -108.5 42t-17.5 120zM99 662q0 35 27 62t62 27q28 0 44.5 -16.5t16.5 -42.5q0 -37 -26 -63t-63 -26q-27 0 -44 16.5t-17 42.5zM297 661q0 37 26.5 63.5t62.5 26.5q27 0 44 -17t17 -43
q0 -35 -26.5 -61.5t-61.5 -26.5q-29 0 -45.5 15.5t-16.5 42.5z" />
    <glyph glyph-name="eth" unicode="&#xf0;" horiz-adv-x="619" 
d="M78 195q-3 121 85.5 214t207.5 90q66 0 98 -30h6q-23 59 -75 111l-172 -60l16 82l97 35q-53 41 -91 61l96 49q70 -30 120 -68l159 56l-16 -83l-82 -29q112 -116 112 -275q2 -156 -93.5 -259.5t-239.5 -101.5q-105 0 -166.5 57t-61.5 151zM237 223q0 -44 26.5 -69.5
t69.5 -26.5q59 0 99 46q42 47 42 104q0 43 -26.5 69t-68.5 25q-61 -2 -101 -43q-41 -43 -41 -105z" />
    <glyph glyph-name="ntilde" unicode="&#xf1;" horiz-adv-x="600" 
d="M221 0h-155l98 528h146l-11 -58h8q24 31 65.5 51t89.5 20q86 0 127.5 -52t26.5 -137l-65 -352h-155l57 307q8 42 -11 67.5t-57 25.5q-39 0 -69.5 -28.5t-39.5 -71.5zM339 599h-93q10 71 46 108.5t91 37.5q34 0 67.5 -21t47.5 -21q15 0 27 12t15 30h93
q-10 -70 -46.5 -108.5t-89.5 -38.5q-32 0 -65 21t-50 21q-16 0 -28 -11t-15 -30z" />
    <glyph glyph-name="ograve" unicode="&#xf2;" horiz-adv-x="641" 
d="M80 209q0 138 98 235t241 97q110 0 175 -62t65 -160q0 -137 -98.5 -234.5t-240.5 -97.5q-110 0 -175 62t-65 160zM239 236q0 -51 29 -80t77 -29q63 0 108 48q46 49 46 118q0 48 -28.5 78t-76.5 30q-63 0 -109 -49q-46 -47 -46 -116zM392 603l-66 152h151l20 -152h-105z
" />
    <glyph glyph-name="oacute" unicode="&#xf3;" horiz-adv-x="641" 
d="M80 209q0 138 98 235t241 97q110 0 175 -62t65 -160q0 -137 -98.5 -234.5t-240.5 -97.5q-110 0 -175 62t-65 160zM239 236q0 -51 29 -80t77 -29q63 0 108 48q46 49 46 118q0 48 -28.5 78t-76.5 30q-63 0 -109 -49q-46 -47 -46 -116zM475 603h-104l76 152h149z" />
    <glyph glyph-name="ocircumflex" unicode="&#xf4;" horiz-adv-x="641" 
d="M80 209q0 138 98 235t241 97q110 0 175 -62t65 -160q0 -137 -98.5 -234.5t-240.5 -97.5q-110 0 -175 62t-65 160zM239 236q0 -51 29 -80t77 -29q63 0 108 48q46 49 46 118q0 48 -28.5 78t-76.5 30q-63 0 -109 -49q-46 -47 -46 -116zM372 603h-108l133 151h130l77 -151
h-98l-54 52h-8z" />
    <glyph glyph-name="otilde" unicode="&#xf5;" horiz-adv-x="641" 
d="M80 209q0 138 98 235t241 97q110 0 175 -62t65 -160q0 -137 -98.5 -234.5t-240.5 -97.5q-110 0 -175 62t-65 160zM239 236q0 -51 29 -80t77 -29q63 0 108 48q46 49 46 118q0 48 -28.5 78t-76.5 30q-63 0 -109 -49q-46 -47 -46 -116zM341 599h-93q10 71 46 108.5t91 37.5
q34 0 67.5 -21t47.5 -21q15 0 27 12t15 30h93q-10 -70 -46.5 -108.5t-89.5 -38.5q-32 0 -65.5 21t-49.5 21t-28 -11t-15 -30z" />
    <glyph glyph-name="odieresis" unicode="&#xf6;" horiz-adv-x="641" 
d="M80 209q0 138 98 235t241 97q110 0 175 -62t65 -160q0 -137 -98.5 -234.5t-240.5 -97.5q-110 0 -175 62t-65 160zM239 236q0 -51 29 -80t77 -29q63 0 108 48q46 49 46 118q0 48 -28.5 78t-76.5 30q-63 0 -109 -49q-46 -47 -46 -116zM271 662q0 35 27 62t62 27
q28 0 44.5 -16.5t16.5 -42.5q0 -37 -26 -63t-63 -26q-27 0 -44 16.5t-17 42.5zM469 661q0 37 26 63.5t63 26.5q27 0 44 -17t17 -43q0 -35 -26.5 -61.5t-61.5 -26.5q-29 0 -45.5 15.5t-16.5 42.5z" />
    <glyph glyph-name="divide" unicode="&#xf7;" horiz-adv-x="501" 
d="M542 251h-491l23 120h491zM206 121q0 32 25 56.5t57 24.5q24 0 40 -16t16 -39q0 -32 -24.5 -56.5t-56.5 -24.5q-25 0 -41 16t-16 39zM273 482q0 31 25 55q25 25 57 25q24 0 39.5 -15.5t15.5 -38.5q0 -33 -24.5 -57t-56.5 -24q-25 0 -40.5 15.5t-15.5 39.5z" />
    <glyph glyph-name="oslash" unicode="&#xf8;" horiz-adv-x="641" 
d="M179 -54h-105l76 98q-70 61 -70 165q0 138 98 235t241 97q59 0 104 -18l36 47h106l-71 -91q65 -62 65 -160q0 -137 -98.5 -234.5t-240.5 -97.5q-52 0 -97 15zM239 236q0 -34 14 -60l172 221q-12 4 -31 4q-63 0 -109 -49q-46 -47 -46 -116zM489 344l-168 -215q20 -2 24 -2
q63 0 108 48q46 49 46 118q0 27 -10 51z" />
    <glyph glyph-name="ugrave" unicode="&#xf9;" 
d="M95 176l65 352h155l-57 -308q-8 -42 10.5 -67.5t57.5 -25.5t69.5 29t39.5 72l56 300h155l-98 -528h-147l11 58h-8q-55 -71 -155 -71q-86 0 -127.5 52t-26.5 137zM377 603l-66 152h151l20 -152h-105z" />
    <glyph glyph-name="uacute" unicode="&#xfa;" 
d="M95 176l65 352h155l-57 -308q-8 -42 10.5 -67.5t57.5 -25.5t69.5 29t39.5 72l56 300h155l-98 -528h-147l11 58h-8q-55 -71 -155 -71q-86 0 -127.5 52t-26.5 137zM460 603h-104l76 152h149z" />
    <glyph glyph-name="ucircumflex" unicode="&#xfb;" 
d="M95 176l65 352h155l-57 -308q-8 -42 10.5 -67.5t57.5 -25.5t69.5 29t39.5 72l56 300h155l-98 -528h-147l11 58h-8q-55 -71 -155 -71q-86 0 -127.5 52t-26.5 137zM357 603h-108l133 151h130l77 -151h-98l-54 52h-8z" />
    <glyph glyph-name="udieresis" unicode="&#xfc;" 
d="M95 176l65 352h155l-57 -308q-8 -42 10.5 -67.5t57.5 -25.5t69.5 29t39.5 72l56 300h155l-98 -528h-147l11 58h-8q-55 -71 -155 -71q-86 0 -127.5 52t-26.5 137zM256 662q0 35 27 62t62 27q28 0 44.5 -16.5t16.5 -42.5q0 -37 -26 -63t-63 -26q-27 0 -44 16.5t-17 42.5z
M454 661q0 37 26 63.5t63 26.5q27 0 44 -17t17 -43q0 -35 -26.5 -61.5t-61.5 -26.5q-29 0 -45.5 15.5t-16.5 42.5z" />
    <glyph glyph-name="yacute" unicode="&#xfd;" 
d="M36 -48h138q-5 -32 17.5 -51t69.5 -19q120 0 142 124l10 59h-8q-25 -31 -66 -51t-89 -20q-85 0 -127 52.5t-27 136.5l64 345h155l-56 -301q-8 -41 10.5 -67t57.5 -26q40 0 70.5 29t37.5 72l56 293h155l-97 -522q-21 -115 -96 -182t-211 -67q-115 0 -167 56.5t-39 138.5z
M460 603h-104l76 152h149z" />
    <glyph glyph-name="thorn" unicode="&#xfe;" horiz-adv-x="656" 
d="M180 -222h-155l180 971h154l-51 -280h8q60 72 158 72q93 0 146.5 -55t53.5 -150q2 -139 -88.5 -245.5t-209.5 -103.5q-100 0 -135 73h-9zM264 233q0 -49 27 -77.5t73 -28.5q61 0 105 50t44 119q0 48 -27 76.5t-73 28.5q-61 0 -105 -50t-44 -118z" />
    <glyph glyph-name="ydieresis" unicode="&#xff;" 
d="M36 -48h138q-5 -32 17.5 -51t69.5 -19q120 0 142 124l10 59h-8q-25 -31 -66 -51t-89 -20q-85 0 -127 52.5t-27 136.5l64 345h155l-56 -301q-8 -41 10.5 -67t57.5 -26q40 0 70.5 29t37.5 72l56 293h155l-97 -522q-21 -115 -96 -182t-211 -67q-115 0 -167 56.5t-39 138.5z
M257 662q0 35 27 62t62 27q28 0 44.5 -16.5t16.5 -42.5q0 -37 -26.5 -63t-62.5 -26q-27 0 -44 16.5t-17 42.5zM455 661q0 37 26 63.5t63 26.5q27 0 44 -17t17 -43q0 -35 -26.5 -61.5t-61.5 -26.5q-29 0 -45.5 15.5t-16.5 42.5z" />
    <glyph glyph-name="Amacron" unicode="&#x100;" horiz-adv-x="707" 
d="M182 0h-169l367 700h203l111 -700h-166l-18 124h-264zM445 526l-134 -261h181l-38 261h-9zM649 797h-281l21 109h280z" />
    <glyph glyph-name="amacron" unicode="&#x101;" horiz-adv-x="676" 
d="M80 200q0 143 87 242t209 99q52 0 88 -21.5t50 -51.5h8l11 60h154l-64 -346q-8 -47 35 -47h19l-24 -135h-74q-89 0 -97 68v5h-7q-24 -28 -65 -54q-50 -32 -125 -32q-95 0 -150 58t-55 155zM241 232q0 -48 26.5 -76.5t73.5 -28.5q63 0 106 49t43 120q0 48 -27 76.5
t-73 28.5q-61 0 -105 -50t-44 -119zM591 620h-281l21 109h280z" />
    <glyph glyph-name="Abreve" unicode="&#x102;" horiz-adv-x="707" 
d="M182 0h-169l367 700h203l111 -700h-166l-18 124h-264zM445 526l-134 -261h181l-38 261h-9zM379 925h87q-8 -54 44 -54q25 0 42 15t21 39h97q-7 -68 -53 -107.5t-117 -39.5q-72 0 -104.5 39t-16.5 108z" />
    <glyph glyph-name="abreve" unicode="&#x103;" horiz-adv-x="676" 
d="M80 200q0 143 87 242t209 99q52 0 88 -21.5t50 -51.5h8l11 60h154l-64 -346q-8 -47 35 -47h19l-24 -135h-74q-89 0 -97 68v5h-7q-24 -28 -65 -54q-50 -32 -125 -32q-95 0 -150 58t-55 155zM241 232q0 -48 26.5 -76.5t73.5 -28.5q63 0 106 49t43 120q0 48 -27 76.5
t-73 28.5q-61 0 -105 -50t-44 -119zM321 748h87q-8 -54 44 -54q24 0 41.5 15t21.5 39h97q-8 -69 -54 -108t-116 -39q-72 0 -104.5 39t-16.5 108z" />
    <glyph glyph-name="Aogonek" unicode="&#x104;" horiz-adv-x="707" 
d="M182 0h-169l367 700h203l111 -700l-46 -49q-23 -25 -23 -38q0 -20 26 -20h24l-16 -90h-81q-36 0 -58 18t-22 48q0 45 51 96l34 35h-55l-18 124h-264zM445 526l-134 -261h181l-38 261h-9z" />
    <glyph glyph-name="aogonek" unicode="&#x105;" horiz-adv-x="676" 
d="M80 200q0 143 87 242t209 99q52 0 88 -21.5t50 -51.5h8l11 60h154l-64 -346q-8 -47 35 -47h19l-24 -135h-1l-47 -49q-23 -23 -23 -38q0 -20 26 -20h25l-17 -90h-80q-36 0 -58.5 18t-22.5 48q0 47 52 96l37 39q-56 11 -62 64v5h-7q-24 -28 -65 -54q-50 -32 -125 -32
q-95 0 -150 58t-55 155zM241 232q0 -48 26.5 -76.5t73.5 -28.5q63 0 106 49t43 120q0 48 -27 76.5t-73 28.5q-61 0 -105 -50t-44 -119z" />
    <glyph glyph-name="Cacute" unicode="&#x106;" horiz-adv-x="806" 
d="M98 277q0 86 32.5 166t90.5 140q59 61 142 95.5t177 34.5q139 0 217.5 -76.5t80.5 -196.5h-172q-4 54 -46 87.5t-108 33.5q-98 3 -173.5 -75.5t-73.5 -181.5q0 -75 45.5 -120t123.5 -45q67 0 122 32.5t82 85.5h173q-35 -118 -144.5 -194t-260.5 -76q-142 0 -225 80.5
t-83 209.5zM591 780h-104l76 152h149z" />
    <glyph glyph-name="cacute" unicode="&#x107;" horiz-adv-x="626" 
d="M80 209q-2 136 96 235t238 97q111 0 172 -61q63 -60 56 -157h-157q-3 35 -28.5 56.5t-65.5 21.5q-62 0 -107 -50q-45 -49 -45 -118q0 -48 27 -77t74 -29q40 0 73 20t46 52h159q-23 -95 -104 -154q-80 -58 -198 -58q-108 0 -173 62q-63 61 -63 160zM469 604h-104l76 152
h149z" />
    <glyph glyph-name="Cdotaccent" unicode="&#x10a;" horiz-adv-x="806" 
d="M98 277q0 86 32.5 166t90.5 140q59 61 142 95.5t177 34.5q139 0 217.5 -76.5t80.5 -196.5h-172q-4 54 -46 87.5t-108 33.5q-98 3 -173.5 -75.5t-73.5 -181.5q0 -75 45.5 -120t123.5 -45q67 0 122 32.5t82 85.5h173q-35 -118 -144.5 -194t-260.5 -76q-142 0 -225 80.5
t-83 209.5zM473 831q0 43 30.5 72t74.5 29q34 0 54 -18t20 -48q0 -43 -31 -72.5t-75 -29.5q-33 0 -53 18.5t-20 48.5z" />
    <glyph glyph-name="cdotaccent" unicode="&#x10b;" horiz-adv-x="626" 
d="M80 209q-2 136 96 235t238 97q111 0 172 -61q63 -60 56 -157h-157q-3 35 -28.5 56.5t-65.5 21.5q-62 0 -107 -50q-45 -49 -45 -118q0 -48 27 -77t74 -29q40 0 73 20t46 52h159q-23 -95 -104 -154q-80 -58 -198 -58q-108 0 -173 62q-63 61 -63 160zM352 655
q0 42 30.5 71.5t74.5 29.5q34 0 54 -18.5t20 -47.5q0 -43 -31 -72.5t-75 -29.5q-33 0 -53 18.5t-20 48.5z" />
    <glyph glyph-name="Ccaron" unicode="&#x10c;" horiz-adv-x="806" 
d="M98 277q0 86 32.5 166t90.5 140q59 61 142 95.5t177 34.5q139 0 217.5 -76.5t80.5 -196.5h-172q-4 54 -46 87.5t-108 33.5q-98 3 -173.5 -75.5t-73.5 -181.5q0 -75 45.5 -120t123.5 -45q67 0 122 32.5t82 85.5h173q-35 -118 -144.5 -194t-260.5 -76q-142 0 -225 80.5
t-83 209.5zM484 780l-77 151h97l53 -52h8l72 52h110l-133 -151h-130z" />
    <glyph glyph-name="ccaron" unicode="&#x10d;" horiz-adv-x="626" 
d="M80 209q-2 136 96 235t238 97q111 0 172 -61q63 -60 56 -157h-157q-3 35 -28.5 56.5t-65.5 21.5q-62 0 -107 -50q-45 -49 -45 -118q0 -48 27 -77t74 -29q40 0 73 20t46 52h159q-23 -95 -104 -154q-80 -58 -198 -58q-108 0 -173 62q-63 61 -63 160zM363 604l-77 151h97
l53 -52h8l72 52h110l-133 -151h-130z" />
    <glyph glyph-name="Dcaron" unicode="&#x10e;" horiz-adv-x="719" 
d="M333 0h-264l130 700h249q144 0 223 -76q80 -75 80 -199q0 -186 -115.5 -305.5t-302.5 -119.5zM331 563l-78 -426h83q107 0 177 76q71 77 71 193q0 79 -48 118t-121 39h-84zM389 781l-77 151h97l53 -52h8l72 52h110l-133 -151h-130z" />
    <glyph glyph-name="dcaron" unicode="&#x10f;" horiz-adv-x="757" 
d="M80 200q-2 139 87.5 241.5t208.5 99.5q52 0 88 -21.5t50 -51.5h8l51 282h155l-105 -567q-8 -47 35 -47h20l-25 -136h-74q-90 0 -98 68v4h-6q-74 -85 -190 -85q-95 0 -150 58t-55 155zM241 232q0 -48 26.5 -76.5t73.5 -28.5q63 0 106 49t43 120q0 48 -27 76.5t-73 28.5
q-61 0 -105 -50t-44 -119zM856 547h-107l37 203h131z" />
    <glyph glyph-name="Dcroat" unicode="&#x110;" horiz-adv-x="775" 
d="M186 292h-63l20 112h64l55 296h245q143 0 222 -73t79 -197q0 -186 -122 -308t-309 -122h-245zM345 292l-29 -155h79q105 0 176 77q70 76 70 193q0 79 -47 117.5t-120 38.5h-79l-29 -159h121l-20 -112h-122z" />
    <glyph glyph-name="dslash" unicode="&#x111;" horiz-adv-x="678" 
d="M80 200q-2 139 87.5 241.5t208.5 99.5q52 0 88 -21.5t50 -51.5h8l20 110h-133l20 108h132l12 64h155l-12 -64h55l-21 -108h-54l-73 -395q-8 -47 35 -47h20l-25 -136h-74q-90 0 -98 68v4h-6q-74 -85 -190 -85q-95 0 -150 58t-55 155zM241 232q0 -48 26.5 -76.5t73.5 -28.5
q63 0 106 49t43 120q0 48 -27 76.5t-73 28.5q-61 0 -105 -50t-44 -119z" />
    <glyph glyph-name="Emacron" unicode="&#x112;" horiz-adv-x="562" 
d="M523 0h-454l130 700h443l-25 -135h-285l-27 -145h243l-26 -135h-242l-28 -149h296zM596 797h-281l21 109h280z" />
    <glyph glyph-name="emacron" unicode="&#x113;" horiz-adv-x="612" 
d="M80 210q0 141 89.5 236t234.5 95q126 -1 183.5 -80t36.5 -195l-8 -45h-389q-5 -51 23 -84t80 -33q44 0 78.5 18t49.5 47h142q-28 -84 -108 -133t-189 -49q-101 0 -162 63q-61 62 -61 160zM246 324h242q1 45 -26.5 72t-76.5 27q-48 0 -87.5 -28.5t-51.5 -70.5zM568 620
h-281l21 109h280z" />
    <glyph glyph-name="Edotaccent" unicode="&#x116;" horiz-adv-x="562" 
d="M523 0h-454l130 700h443l-25 -135h-285l-27 -145h243l-26 -135h-242l-28 -149h296zM370 831q0 43 30.5 72t74.5 29q34 0 54 -18t20 -48q0 -43 -31 -72.5t-75 -29.5q-33 0 -53 18.5t-20 48.5z" />
    <glyph glyph-name="edotaccent" unicode="&#x117;" horiz-adv-x="612" 
d="M80 210q0 141 89.5 236t234.5 95q126 -1 183.5 -80t36.5 -195l-8 -45h-389q-5 -51 23 -84t80 -33q44 0 78.5 18t49.5 47h142q-28 -84 -108 -133t-189 -49q-101 0 -162 63q-61 62 -61 160zM246 324h242q1 45 -26.5 72t-76.5 27q-48 0 -87.5 -28.5t-51.5 -70.5zM343 654
q0 42 30.5 71.5t74.5 29.5q34 0 54 -18.5t20 -47.5q0 -43 -31 -72.5t-75 -29.5q-33 0 -53 18.5t-20 48.5z" />
    <glyph glyph-name="Eogonek" unicode="&#x118;" horiz-adv-x="562" 
d="M410 0h-341l130 700h443l-25 -135h-285l-27 -145h243l-26 -135h-242l-28 -149h296l-25 -136h-1l-47 -49q-23 -23 -23 -38q0 -20 26 -20h25l-17 -90h-80q-36 0 -58.5 18t-22.5 48q0 47 52 96z" />
    <glyph glyph-name="eogonek" unicode="&#x119;" horiz-adv-x="612" 
d="M80 210q0 141 89.5 236t234.5 95q126 -1 183.5 -80t36.5 -195l-8 -45h-389q-5 -51 23 -84t80 -33q44 0 78.5 18t49.5 47h142q-22 -68 -81.5 -114.5t-141.5 -61.5l-41 -42q-23 -23 -23 -38q0 -20 26 -20h25l-17 -90h-80q-36 0 -58.5 18t-22.5 48q0 47 52 96l24 25
q-84 14 -133 73q-49 61 -49 147zM246 324h242q1 45 -26.5 72t-76.5 27q-48 0 -87.5 -28.5t-51.5 -70.5z" />
    <glyph glyph-name="Ecaron" unicode="&#x11a;" horiz-adv-x="562" 
d="M523 0h-454l130 700h443l-25 -135h-285l-27 -145h243l-26 -135h-242l-28 -149h296zM381 780l-77 151h97l53 -52h8l72 52h110l-133 -151h-130z" />
    <glyph glyph-name="ecaron" unicode="&#x11b;" horiz-adv-x="612" 
d="M80 210q0 141 89.5 236t234.5 95q126 -1 183.5 -80t36.5 -195l-8 -45h-389q-5 -51 23 -84t80 -33q44 0 78.5 18t49.5 47h142q-28 -84 -108 -133t-189 -49q-101 0 -162 63q-61 62 -61 160zM246 324h242q1 45 -26.5 72t-76.5 27q-48 0 -87.5 -28.5t-51.5 -70.5zM354 603
l-77 151h97l53 -52h8l72 52h110l-133 -151h-130z" />
    <glyph glyph-name="Gbreve" unicode="&#x11e;" horiz-adv-x="810" 
d="M98 276q0 182 126 309.5t317 127.5q134 0 213.5 -72t85.5 -185h-174q-10 48 -50.5 76.5t-102.5 28.5q-100 3 -175 -75.5t-73 -183.5q0 -76 45.5 -121.5t123.5 -45.5q73 0 129 34q58 34 76 83h-190l24 130h366q-16 -184 -134 -289.5t-296 -105.5q-140 0 -226 80
q-85 79 -85 209zM437 925h87q-8 -54 44 -54q24 0 41 14.5t22 39.5h97q-7 -68 -53 -107.5t-117 -39.5q-72 0 -104.5 39t-16.5 108z" />
    <glyph glyph-name="gbreve" unicode="&#x11f;" horiz-adv-x="644" 
d="M53 -48h141q0 -33 24.5 -51.5t71.5 -18.5q122 0 145 124l11 61h-8q-63 -73 -161 -73q-91 0 -144.5 55.5t-53.5 150.5q-2 137 87.5 240.5t208.5 100.5q53 0 89 -21.5t49 -51.5h8l11 60h154l-97 -522q-21 -111 -102 -180t-220 -69q-116 0 -170.5 56.5t-43.5 138.5zM239 236
q0 -48 26.5 -75t73.5 -27q61 0 105 48q44 49 44 117q0 46 -27 74t-73 28q-62 0 -105 -49q-44 -50 -44 -116zM308 748h87q-8 -54 44 -54q24 0 41.5 15t21.5 39h97q-7 -68 -53 -107.5t-117 -39.5q-72 0 -104.5 39t-16.5 108z" />
    <glyph glyph-name="Gdotaccent" unicode="&#x120;" horiz-adv-x="810" 
d="M98 276q0 182 126 309.5t317 127.5q134 0 213.5 -72t85.5 -185h-174q-10 48 -50.5 76.5t-102.5 28.5q-100 3 -175 -75.5t-73 -183.5q0 -76 45.5 -121.5t123.5 -45.5q73 0 129 34q58 34 76 83h-190l24 130h366q-16 -184 -134 -289.5t-296 -105.5q-140 0 -226 80
q-85 79 -85 209zM482 831q0 43 30.5 72t74.5 29q35 0 54.5 -18t19.5 -48q0 -43 -30.5 -72.5t-75.5 -29.5q-33 0 -53 18.5t-20 48.5z" />
    <glyph glyph-name="gdotaccent" unicode="&#x121;" horiz-adv-x="644" 
d="M53 -48h141q0 -33 24.5 -51.5t71.5 -18.5q122 0 145 124l11 61h-8q-63 -73 -161 -73q-91 0 -144.5 55.5t-53.5 150.5q-2 137 87.5 240.5t208.5 100.5q53 0 89 -21.5t49 -51.5h8l11 60h154l-97 -522q-21 -111 -102 -180t-220 -69q-116 0 -170.5 56.5t-43.5 138.5zM239 236
q0 -48 26.5 -75t73.5 -27q61 0 105 48q44 49 44 117q0 46 -27 74t-73 28q-62 0 -105 -49q-44 -50 -44 -116zM353 654q0 42 30.5 71.5t74.5 29.5q35 0 54.5 -18t19.5 -48q0 -43 -31 -72.5t-75 -29.5q-33 0 -53 18.5t-20 48.5z" />
    <glyph glyph-name="uni0122" unicode="&#x122;" horiz-adv-x="810" 
d="M98 276q0 182 126 309.5t317 127.5q134 0 213.5 -72t85.5 -185h-174q-10 48 -50.5 76.5t-102.5 28.5q-100 3 -175 -75.5t-73 -183.5q0 -76 45.5 -121.5t123.5 -45.5q73 0 129 34q58 34 76 83h-190l24 130h366q-16 -184 -134 -289.5t-296 -105.5q-140 0 -226 80
q-85 79 -85 209zM385 -229h-94l47 176h125z" />
    <glyph glyph-name="uni0123" unicode="&#x123;" horiz-adv-x="644" 
d="M53 -48h141q0 -33 24.5 -51.5t71.5 -18.5q122 0 145 124l11 61h-8q-63 -73 -161 -73q-91 0 -144.5 55.5t-53.5 150.5q-2 137 87.5 240.5t208.5 100.5q53 0 89 -21.5t49 -51.5h8l11 60h154l-97 -522q-21 -111 -102 -180t-220 -69q-116 0 -170.5 56.5t-43.5 138.5zM239 236
q0 -48 26.5 -75t73.5 -27q61 0 105 48q44 49 44 117q0 46 -27 74t-73 28q-62 0 -105 -49q-44 -50 -44 -116zM464 604h-125l78 176h94z" />
    <glyph glyph-name="Hcircumflex" unicode="&#x124;" horiz-adv-x="733" 
d="M227 0h-158l130 700h158l-51 -271h280l50 271h159l-130 -700h-159l52 277h-280zM452 780h-108l133 151h130l77 -151h-98l-54 52h-8z" />
    <glyph glyph-name="hcircumflex" unicode="&#x125;" 
d="M221 0h-155l139 750h154l-52 -280h8q23 31 63.5 51t89.5 20q85 0 126 -52t26 -137l-65 -352h-155l57 307q8 42 -11.5 67.5t-58.5 25.5q-40 0 -71.5 -28.5t-38.5 -70.5zM219 787h-108l133 151h130l77 -151h-98l-54 52h-8z" />
    <glyph glyph-name="Hbar" unicode="&#x126;" horiz-adv-x="839" 
d="M281 0h-159l95 509h-54l21 113h54l14 78h159l-15 -78h279l15 78h158l-14 -78h52l-21 -113h-52l-95 -509h-158l51 277h-279zM375 509l-15 -80h279l15 80h-279z" />
    <glyph glyph-name="hbar" unicode="&#x127;" 
d="M221 0h-155l107 578h-61l20 108h61l12 64h154l-12 -64h127l-20 -108h-127l-20 -108h8q23 31 63.5 51t89.5 20q85 0 126 -52t26 -137l-65 -352h-155l57 307q8 42 -11.5 67.5t-58.5 25.5q-40 0 -71.5 -28.5t-38.5 -70.5z" />
    <glyph glyph-name="Imacron" unicode="&#x12a;" horiz-adv-x="296" 
d="M227 0h-158l130 700h158zM441 797h-281l21 109h280z" />
    <glyph glyph-name="imacron" unicode="&#x12b;" horiz-adv-x="323" 
d="M99 162l68 366h155l-65 -348q-8 -47 35 -47h20l-24 -133h-63q-77 0 -108.5 42t-17.5 120zM411 620h-281l21 109h280z" />
    <glyph glyph-name="Iogonek" unicode="&#x12e;" horiz-adv-x="296" 
d="M30 -131q0 45 51 96l34 35h-46l130 700h158l-130 -700l-47 -49q-23 -25 -23 -38q0 -20 26 -20h25l-17 -90h-80q-36 0 -58.5 18t-22.5 48z" />
    <glyph glyph-name="iogonek" unicode="&#x12f;" horiz-adv-x="326" 
d="M91 -131q0 45 51 96l38 40q-106 25 -81 157l68 366h155l-65 -348q-8 -47 35 -47h20l-24 -133l-47 -49q-21 -21 -23 -38q0 -20 26 -20h24l-16 -90h-81q-36 0 -58 18t-22 48zM185 654q0 42 30.5 71.5t74.5 29.5q34 0 54 -18.5t20 -47.5q0 -43 -31 -72.5t-75 -29.5
q-33 0 -53 18.5t-20 48.5z" />
    <glyph glyph-name="Idot" unicode="&#x130;" horiz-adv-x="296" 
d="M227 0h-158l130 700h158zM215 831q0 43 30.5 72t74.5 29q34 0 54 -18t20 -48q0 -43 -30.5 -72.5t-75.5 -29.5q-33 0 -53 18.5t-20 48.5z" />
    <glyph glyph-name="dotlessi" unicode="&#x131;" horiz-adv-x="323" 
d="M99 162l68 366h155l-65 -348q-8 -47 35 -47h20l-24 -133h-63q-77 0 -108.5 42t-17.5 120z" />
    <glyph glyph-name="Jcircumflex" unicode="&#x134;" horiz-adv-x="594" 
d="M72 225h144q-7 -43 14 -68t68 -25q49 0 80 30t40 78l59 323h-222l26 137h381l-87 -467q-21 -116 -97.5 -180.5t-198.5 -64.5q-115 0 -171 65t-36 172zM425 780h-108l133 151h130l77 -151h-98l-54 52h-8z" />
    <glyph glyph-name="jcircumflex" unicode="&#x135;" horiz-adv-x="315" 
d="M25 -230h-66l25 137h37q72 0 85 72l102 549h155l-101 -550q-18 -97 -82 -152.5t-155 -55.5zM232 603h-108l133 151h130l77 -151h-98l-54 52h-8z" />
    <glyph glyph-name="uni0136" unicode="&#x136;" horiz-adv-x="670" 
d="M227 0h-158l130 700h158l-50 -267h6l265 267h198l-282 -274l94 -246q17 -43 58 -43h26l-25 -137h-74q-87 0 -122 85l-84 217l-100 -97zM336 -229h-94l47 176h125z" />
    <glyph glyph-name="uni0137" unicode="&#x137;" horiz-adv-x="594" 
d="M221 0h-155l139 750h155l-75 -402h6l183 180h192l-211 -197l58 -151q18 -45 60 -45h32l-25 -135h-65q-49 0 -75.5 19.5t-45.5 65.5l-53 137l-96 -89zM280 -229h-94l47 176h125z" />
    <glyph glyph-name="kgreenlandic" unicode="&#x138;" horiz-adv-x="594" 
d="M221 0h-155l96 528h155l-32 -180h6l183 180h192l-211 -197l58 -151q18 -45 60 -45h32l-25 -135h-65q-49 0 -75.5 19.5t-45.5 65.5l-54 137l-95 -88z" />
    <glyph glyph-name="Lacute" unicode="&#x139;" horiz-adv-x="537" 
d="M501 0h-432l130 700h158l-103 -559h274zM331 780h-104l76 152h149z" />
    <glyph glyph-name="lacute" unicode="&#x13a;" horiz-adv-x="319" 
d="M96 166l108 584h155l-104 -566q-9 -48 34 -48h20l-24 -136h-55q-78 0 -113 44t-21 122zM305 787h-104l76 152h149z" />
    <glyph glyph-name="uni013B" unicode="&#x13b;" horiz-adv-x="537" 
d="M501 0h-432l130 700h158l-103 -559h274zM259 -229h-94l47 176h125z" />
    <glyph glyph-name="uni013C" unicode="&#x13c;" horiz-adv-x="319" 
d="M140 -229h-94l47 176h125zM96 166l108 584h155l-104 -566q-9 -48 34 -48h20l-24 -136h-55q-78 0 -113 44t-21 122z" />
    <glyph glyph-name="Lcaron" unicode="&#x13d;" horiz-adv-x="533" 
d="M501 0h-432l130 700h158l-103 -559h274zM534 497h-107l38 203h130z" />
    <glyph glyph-name="lcaron" unicode="&#x13e;" horiz-adv-x="448" 
d="M96 166l108 584h155l-104 -566q-9 -48 34 -48h20l-24 -136h-55q-78 0 -113 44t-21 122zM496 547h-107l37 203h131z" />
    <glyph glyph-name="Ldot" unicode="&#x13f;" horiz-adv-x="600" 
d="M501 0h-432l130 700h158l-103 -559h274zM366 368q0 40 30 70t71 30q33 0 52.5 -18.5t19.5 -48.5q0 -41 -30 -70.5t-73 -29.5q-31 0 -50.5 18.5t-19.5 48.5z" />
    <glyph glyph-name="ldot" unicode="&#x140;" horiz-adv-x="443" 
d="M96 166l108 584h155l-104 -566q-9 -48 34 -48h20l-24 -136h-55q-78 0 -113 44t-21 122zM334 373q0 39 30 69q32 30 71 30q33 0 52.5 -18.5t19.5 -48.5q0 -41 -31 -71q-31 -29 -72 -29q-31 0 -50.5 19t-19.5 49z" />
    <glyph glyph-name="Lslash" unicode="&#x141;" horiz-adv-x="569" 
d="M148 232l-75 -34l23 128l76 34l63 340h158l-48 -263l160 72l-23 -128l-161 -72l-31 -168h274l-27 -141h-432z" />
    <glyph glyph-name="lslash" unicode="&#x142;" horiz-adv-x="393" 
d="M151 292l-87 -37l23 128l88 37l61 330h155l-48 -258l88 37l-23 -128l-89 -38l-33 -179q-8 -48 35 -48h19l-23 -136h-55q-77 0 -112.5 44t-21.5 122z" />
    <glyph glyph-name="Nacute" unicode="&#x143;" horiz-adv-x="740" 
d="M222 0h-153l130 700h166l195 -440h6l82 440h153l-130 -700h-166l-195 440h-6zM565 780h-104l76 152h149z" />
    <glyph glyph-name="nacute" unicode="&#x144;" horiz-adv-x="600" 
d="M221 0h-155l98 528h146l-11 -58h8q24 31 65.5 51t89.5 20q86 0 127.5 -52t26.5 -137l-65 -352h-155l57 307q8 42 -11 67.5t-57 25.5q-39 0 -69.5 -28.5t-39.5 -71.5zM473 603h-104l76 152h149z" />
    <glyph glyph-name="uni0145" unicode="&#x145;" horiz-adv-x="740" 
d="M222 0h-153l130 700h166l195 -440h6l82 440h153l-130 -700h-166l-195 440h-6zM333 -229h-94l47 176h125z" />
    <glyph glyph-name="uni0146" unicode="&#x146;" horiz-adv-x="600" 
d="M221 0h-155l98 528h146l-11 -58h8q24 31 65.5 51t89.5 20q86 0 127.5 -52t26.5 -137l-65 -352h-155l57 307q8 42 -11 67.5t-57 25.5q-39 0 -69.5 -28.5t-39.5 -71.5zM285 -229h-94l47 176h125z" />
    <glyph glyph-name="Ncaron" unicode="&#x147;" horiz-adv-x="740" 
d="M222 0h-153l130 700h166l195 -440h6l82 440h153l-130 -700h-166l-195 440h-6zM458 780l-77 151h97l53 -52h8l72 52h110l-133 -151h-130z" />
    <glyph glyph-name="ncaron" unicode="&#x148;" horiz-adv-x="600" 
d="M221 0h-155l98 528h146l-11 -58h8q24 31 65.5 51t89.5 20q86 0 127.5 -52t26.5 -137l-65 -352h-155l57 307q8 42 -11 67.5t-57 25.5q-39 0 -69.5 -28.5t-39.5 -71.5zM367 603l-77 151h97l53 -52h8l72 52h110l-133 -151h-130z" />
    <glyph glyph-name="Eng" unicode="&#x14a;" horiz-adv-x="740" 
d="M222 0h-153l130 700h159l208 -407h6l76 407h153l-129 -696q-21 -109 -101 -171q-79 -63 -186 -63l28 143q41 0 67.5 25.5t33.5 66.5l6 31l-210 405h-6z" />
    <glyph glyph-name="eng" unicode="&#x14b;" horiz-adv-x="600" 
d="M221 0h-155l98 528h146l-11 -58h8q24 31 65.5 51t89.5 20q86 0 127.5 -52t26.5 -137l-65 -352l-4 -22q-19 -97 -82.5 -152.5t-154.5 -55.5h-66l26 137h36q34 0 56.5 19t29.5 53l9 49l52 279q8 42 -11 67.5t-57 25.5q-39 0 -69.5 -28.5t-39.5 -71.5z" />
    <glyph glyph-name="Omacron" unicode="&#x14c;" horiz-adv-x="823" 
d="M98 279q0 180 128 307t318 127q141 0 226 -82q85 -81 85 -211q0 -180 -128.5 -306.5t-317.5 -126.5q-141 0 -227 81q-84 81 -84 211zM265 306q0 -75 47.5 -121t125.5 -46q99 -2 175.5 75t74.5 179q0 75 -47 121.5t-125 46.5q-100 2 -176.5 -75.5t-74.5 -179.5zM706 797
h-281l21 109h280z" />
    <glyph glyph-name="omacron" unicode="&#x14d;" horiz-adv-x="641" 
d="M80 209q0 138 98 235t241 97q110 0 175 -62t65 -160q0 -137 -98.5 -234.5t-240.5 -97.5q-110 0 -175 62t-65 160zM239 236q0 -51 29 -80t77 -29q63 0 108 48q46 49 46 118q0 48 -28.5 78t-76.5 30q-63 0 -109 -49q-46 -47 -46 -116zM583 620h-281l21 109h280z" />
    <glyph glyph-name="Ohungarumlaut" unicode="&#x150;" horiz-adv-x="823" 
d="M98 279q0 180 128 307t318 127q141 0 226 -82q85 -81 85 -211q0 -180 -128.5 -306.5t-317.5 -126.5q-141 0 -227 81q-84 81 -84 211zM265 306q0 -75 47.5 -121t125.5 -46q99 -2 175.5 75t74.5 179q0 75 -47 121.5t-125 46.5q-100 2 -176.5 -75.5t-74.5 -179.5zM517 780
h-101l67 155h146zM703 780h-102l68 155h146z" />
    <glyph glyph-name="ohungarumlaut" unicode="&#x151;" horiz-adv-x="641" 
d="M80 209q0 138 98 235t241 97q110 0 175 -62t65 -160q0 -137 -98.5 -234.5t-240.5 -97.5q-110 0 -175 62t-65 160zM239 236q0 -51 29 -80t77 -29q63 0 108 48q46 49 46 118q0 48 -28.5 78t-76.5 30q-63 0 -109 -49q-46 -47 -46 -116zM393 603h-101l67 155h146zM579 603
h-102l68 155h146z" />
    <glyph glyph-name="OE" unicode="&#x152;" horiz-adv-x="1108" 
d="M98 279q0 84 35.5 164.5t96.5 139.5q62 60 145 95t169 35q52 0 100 -13h544l-26 -135h-348q40 -63 39 -145h244l-26 -135h-242q-27 -84 -94 -149h358l-25 -136h-554q-55 -13 -105 -13q-141 0 -226 81t-85 211zM265 306q0 -75 47.5 -121t125.5 -46q97 -3 174 75.5
t74 178.5q0 75 -46.5 121.5t-123.5 46.5q-100 2 -176.5 -76t-74.5 -179z" />
    <glyph glyph-name="oe" unicode="&#x153;" horiz-adv-x="1030" 
d="M80 209q-4 132 100.5 233.5t240.5 98.5q123 0 190 -79q88 79 213 79t183 -79.5t36 -195.5l-8 -49h-389q-5 -51 23 -82t81 -31q43 0 77.5 18t50.5 47h141q-30 -85 -109 -133.5t-188 -48.5q-120 0 -180 84q-99 -84 -224 -84q-110 0 -174 61t-64 161zM239 236q0 -51 29 -80
t77 -29q63 0 108 49q46 49 46 117q0 48 -28.5 78t-76.5 30q-63 0 -109 -49t-46 -116zM665 324h242q3 45 -25 72t-78 27q-48 0 -87.5 -28.5t-51.5 -70.5z" />
    <glyph glyph-name="Racute" unicode="&#x154;" horiz-adv-x="647" 
d="M227 0h-158l130 700h274q93 0 151 -53q58 -52 58 -137q0 -78 -45.5 -144.5t-120.5 -100.5l31 -87q17 -41 58 -41h35l-25 -137h-81q-97 0 -121 85l-46 149h-97zM332 565l-36 -196h101q52 0 87 34t35 87q0 34 -23 54.5t-64 20.5h-100zM486 780h-104l76 152h149z" />
    <glyph glyph-name="racute" unicode="&#x155;" horiz-adv-x="443" 
d="M221 0h-155l98 528h146l-15 -80h8q23 36 64 60t88 24h51l-28 -146h-60q-58 0 -99 -39t-54 -107zM409 603h-104l76 152h149z" />
    <glyph glyph-name="uni0156" unicode="&#x156;" horiz-adv-x="647" 
d="M227 0h-158l130 700h274q93 0 151 -53q58 -52 58 -137q0 -78 -45.5 -144.5t-120.5 -100.5l31 -87q17 -41 58 -41h35l-25 -137h-81q-97 0 -121 85l-46 149h-97zM310 -229h-94l47 176h125zM332 565l-36 -196h101q52 0 87 34t35 87q0 34 -23 54.5t-64 20.5h-100z" />
    <glyph glyph-name="uni0157" unicode="&#x157;" horiz-adv-x="443" 
d="M221 0h-155l98 528h146l-15 -80h8q23 36 64 60t88 24h51l-28 -146h-60q-58 0 -99 -39t-54 -107zM194 -229h-94l47 176h125z" />
    <glyph glyph-name="Rcaron" unicode="&#x158;" horiz-adv-x="647" 
d="M227 0h-158l130 700h274q93 0 151 -53q58 -52 58 -137q0 -78 -45.5 -144.5t-120.5 -100.5l31 -87q17 -41 58 -41h35l-25 -137h-81q-97 0 -121 85l-46 149h-97zM332 565l-36 -196h101q52 0 87 34t35 87q0 34 -23 54.5t-64 20.5h-100zM380 780l-77 151h97l53 -52h8l72 52
h110l-133 -151h-130z" />
    <glyph glyph-name="rcaron" unicode="&#x159;" horiz-adv-x="443" 
d="M221 0h-155l98 528h146l-15 -80h8q23 36 64 60t88 24h51l-28 -146h-60q-58 0 -99 -39t-54 -107zM302 603l-77 151h97l53 -52h8l72 52h110l-133 -151h-130z" />
    <glyph glyph-name="Sacute" unicode="&#x15a;" horiz-adv-x="608" 
d="M70 228h151q-7 -44 22 -70t86 -26q55 0 88 22t33 60q0 23 -23.5 38t-58.5 22.5t-76 20t-76 29t-58.5 52.5t-23.5 87q0 113 80 181q81 69 212 69q114 0 177 -58t46 -165h-157q6 37 -17.5 59.5t-70.5 22.5t-77 -21t-30 -55q0 -26 33.5 -41.5t80.5 -26t94.5 -26t81 -53.5
t33.5 -97q0 -124 -83.5 -194.5t-233.5 -70.5q-125 0 -190 66q-63 67 -43 175zM485 780h-104l76 152h149z" />
    <glyph glyph-name="sacute" unicode="&#x15b;" horiz-adv-x="531" 
d="M66 162h139q-2 -30 18 -45t59 -15q42 0 66.5 15.5t24.5 43.5q0 21 -27 31t-65.5 15t-76.5 14.5t-65 38.5t-27 77q0 89 69 146q68 58 181 58q96 0 146.5 -44t40.5 -124h-134q1 27 -17.5 41.5t-54.5 14.5q-38 0 -62.5 -15.5t-24.5 -39.5q0 -20 28 -28.5t68 -13t80 -14
t68 -39t28 -79.5q0 -97 -71 -155t-196 -58q-109 0 -158.5 46.5t-36.5 128.5zM430 603h-104l76 152h149z" />
    <glyph glyph-name="Scedilla" unicode="&#x15e;" horiz-adv-x="608" 
d="M70 228h151q-7 -44 22 -70t86 -26q55 0 88 22t33 60q0 23 -23.5 38t-58.5 22.5t-76 20t-76 29t-58.5 52.5t-23.5 87q0 113 80 181q81 69 212 69q114 0 177 -58t46 -165h-157q6 37 -17.5 59.5t-70.5 22.5t-77 -21t-30 -55q0 -26 33.5 -41.5t80.5 -26t94.5 -26t81 -53.5
t33.5 -97q0 -123 -82 -193q-81 -71 -229 -72l-16 -34h6q12 9 34 9q30 0 49 -17.5t19 -46.5q0 -44 -34 -73.5t-84 -29.5q-42 0 -66 21.5t-18 56.5h74q-1 -7 5.5 -13t15.5 -6q13 0 22.5 9.5t9.5 22.5q0 21 -23 21q-15 0 -24 -13l-70 1l35 96q-98 16 -145 79.5t-29 157.5z" />
    <glyph glyph-name="scedilla" unicode="&#x15f;" horiz-adv-x="531" 
d="M66 162h139q-2 -30 18 -45t59 -15q42 0 66.5 15.5t24.5 43.5q0 21 -27 31t-65.5 15t-76.5 14.5t-65 38.5t-27 77q0 89 69 146q68 58 181 58q96 0 146.5 -44t40.5 -124h-134q1 27 -17.5 41.5t-54.5 14.5q-38 0 -62.5 -15.5t-24.5 -39.5q0 -20 28 -28.5t68 -13t80 -14
t68 -39t28 -79.5q0 -96 -68.5 -153.5t-188.5 -59.5l-16 -34h6q12 9 34 9q30 0 49.5 -17.5t19.5 -46.5q0 -44 -34.5 -73.5t-84.5 -29.5q-42 0 -65.5 21.5t-17.5 56.5h73q0 -19 21 -19q13 0 22.5 9.5t9.5 22.5q0 21 -22 21q-17 0 -24 -13l-71 1l34 96q-79 11 -114.5 55.5
t-24.5 115.5z" />
    <glyph glyph-name="Scaron" unicode="&#x160;" horiz-adv-x="608" 
d="M70 228h151q-7 -44 22 -70t86 -26q55 0 88 22t33 60q0 23 -23.5 38t-58.5 22.5t-76 20t-76 29t-58.5 52.5t-23.5 87q0 113 80 181q81 69 212 69q114 0 177 -58t46 -165h-157q6 37 -17.5 59.5t-70.5 22.5t-77 -21t-30 -55q0 -26 33.5 -41.5t80.5 -26t94.5 -26t81 -53.5
t33.5 -97q0 -124 -83.5 -194.5t-233.5 -70.5q-125 0 -190 66q-63 67 -43 175zM378 780l-77 151h97l53 -52h8l72 52h110l-133 -151h-130z" />
    <glyph glyph-name="scaron" unicode="&#x161;" horiz-adv-x="531" 
d="M66 162h139q-2 -30 18 -45t59 -15q42 0 66.5 15.5t24.5 43.5q0 21 -27 31t-65.5 15t-76.5 14.5t-65 38.5t-27 77q0 89 69 146q68 58 181 58q96 0 146.5 -44t40.5 -124h-134q1 27 -17.5 41.5t-54.5 14.5q-38 0 -62.5 -15.5t-24.5 -39.5q0 -20 28 -28.5t68 -13t80 -14
t68 -39t28 -79.5q0 -97 -71 -155t-196 -58q-109 0 -158.5 46.5t-36.5 128.5zM323 603l-77 151h97l53 -52h8l72 52h110l-133 -151h-130z" />
    <glyph glyph-name="uni0162" unicode="&#x162;" 
d="M327 563h-196l26 137h550l-26 -137h-196l-104 -563h-159zM276 -229h-94l47 176h125z" />
    <glyph glyph-name="uni0163" unicode="&#x163;" horiz-adv-x="450" 
d="M198 407h-86l23 120h43q48 0 59 49l18 95h147l-27 -143h138l-23 -121h-137l-41 -216q-11 -63 57 -63h68l-24 -128h-107q-85 0 -125.5 48.5t-24.5 134.5zM254 -229h-94l47 176h125z" />
    <glyph glyph-name="Tcaron" unicode="&#x164;" 
d="M327 563h-196l26 137h550l-26 -137h-196l-104 -563h-159zM383 780l-77 151h97l53 -52h8l72 52h110l-133 -151h-130z" />
    <glyph glyph-name="tcaron" unicode="&#x165;" horiz-adv-x="436" 
d="M198 407h-86l23 120h43q48 0 59 49l18 95h147l-27 -143h138l-23 -121h-137l-41 -216q-11 -63 57 -63h68l-24 -128h-107q-85 0 -125.5 48.5t-24.5 134.5zM555 568h-107l37 203h131z" />
    <glyph glyph-name="Tbar" unicode="&#x166;" horiz-adv-x="598" 
d="M327 563h-196l26 137h550l-26 -137h-196l-28 -151h131l-20 -112h-132l-55 -300h-159l56 300h-126l21 112h126z" />
    <glyph glyph-name="tbar" unicode="&#x167;" horiz-adv-x="436" 
d="M165 233h-80l21 108h80l12 66h-86l23 120h43q48 0 59 49l18 95h147l-27 -143h138l-23 -121h-137l-13 -66h125l-21 -108h-124l-8 -42q-11 -63 57 -63h68l-24 -128h-107q-85 0 -125.5 48.5t-24.5 134.5z" />
    <glyph glyph-name="Umacron" unicode="&#x16a;" horiz-adv-x="694" 
d="M112 266l80 434h159l-81 -433q-11 -63 15 -97t88 -34q60 0 99 34.5t51 97.5l80 432h159l-81 -433q-25 -136 -108.5 -208t-222.5 -72q-130 0 -196 78q-64 78 -42 201zM635 797h-281l21 109h280z" />
    <glyph glyph-name="umacron" unicode="&#x16b;" 
d="M95 176l65 352h155l-57 -308q-8 -42 10.5 -67.5t57.5 -25.5t69.5 29t39.5 72l56 300h155l-98 -528h-147l11 58h-8q-55 -71 -155 -71q-86 0 -127.5 52t-26.5 137zM568 620h-281l21 109h280z" />
    <glyph glyph-name="Uring" unicode="&#x16e;" horiz-adv-x="694" 
d="M112 266l80 434h159l-81 -433q-11 -63 15 -97t88 -34q60 0 99 34.5t51 97.5l80 432h159l-81 -433q-25 -136 -108.5 -208t-222.5 -72q-130 0 -196 78q-64 78 -42 201zM391 827q0 49 35 84q37 35 89 35q42 0 66 -21.5t24 -57.5q0 -51 -35.5 -86t-90.5 -35q-39 0 -63.5 22.5
t-24.5 58.5zM462 838q0 -27 29 -27q18 0 30.5 12.5t12.5 30.5q0 12 -8.5 20t-22.5 8q-17 0 -29 -13t-12 -31z" />
    <glyph glyph-name="uring" unicode="&#x16f;" 
d="M95 176l65 352h155l-57 -308q-8 -42 10.5 -67.5t57.5 -25.5t69.5 29t39.5 72l56 300h155l-98 -528h-147l11 58h-8q-55 -71 -155 -71q-86 0 -127.5 52t-26.5 137zM324 650q0 49 35 84q37 35 89 35q42 0 66 -21.5t24 -57.5q0 -51 -35.5 -86t-90.5 -35q-40 0 -64 22.5
t-24 58.5zM395 661q0 -27 29 -27q18 0 30.5 12.5t12.5 30.5q0 12 -8.5 20t-22.5 8q-17 0 -29 -13t-12 -31z" />
    <glyph glyph-name="Uhungarumlaut" unicode="&#x170;" horiz-adv-x="694" 
d="M112 266l80 434h159l-81 -433q-11 -63 15 -97t88 -34q60 0 99 34.5t51 97.5l80 432h159l-81 -433q-25 -136 -108.5 -208t-222.5 -72q-130 0 -196 78q-64 78 -42 201zM446 780h-101l67 155h146zM632 780h-102l68 155h146z" />
    <glyph glyph-name="uhungarumlaut" unicode="&#x171;" 
d="M95 176l65 352h155l-57 -308q-8 -42 10.5 -67.5t57.5 -25.5t69.5 29t39.5 72l56 300h155l-98 -528h-147l11 58h-8q-55 -71 -155 -71q-86 0 -127.5 52t-26.5 137zM378 603h-101l67 155h146zM564 603h-102l68 155h146z" />
    <glyph glyph-name="Uogonek" unicode="&#x172;" horiz-adv-x="694" 
d="M112 266l80 434h159l-81 -433q-11 -63 15 -97t88 -34q60 0 99 34.5t51 97.5l80 432h159l-81 -433q-44 -238 -257 -274l-40 -42q-23 -25 -23 -38q0 -20 26 -20h24l-16 -90h-80q-36 0 -58.5 18t-22.5 48q0 45 51 96l23 24q-110 12 -164 88q-53 77 -32 189z" />
    <glyph glyph-name="uogonek" unicode="&#x173;" 
d="M95 176l65 352h155l-57 -308q-8 -42 10.5 -67.5t57.5 -25.5t69.5 29t39.5 72l56 300h155l-98 -528l-48 -49l-5.5 -5.5t-4.5 -5t-3.5 -4t-3.5 -4t-2 -4t-1.5 -4.5t-1.5 -5t-1 -6q0 -20 26 -20h25l-16 -90h-80q-36 0 -58.5 17.5t-22.5 47.5q0 46 51 97l35 35h-36l11 58h-8
q-55 -71 -155 -71q-86 0 -127.5 52t-26.5 137z" />
    <glyph glyph-name="Wcircumflex" unicode="&#x174;" horiz-adv-x="996" 
d="M195 0l-52 700h172l18 -455h8l189 455h195l20 -455h8l186 455h174l-312 -700h-187l-24 473h-9l-200 -473h-186zM585 780h-108l133 151h130l77 -151h-98l-54 52h-8z" />
    <glyph glyph-name="wcircumflex" unicode="&#x175;" horiz-adv-x="875" 
d="M163 0l-42 528h161l6 -339h8l164 339h151l37 -339h8l133 339h161l-238 -528h-170l-41 322h-6l-162 -322h-170zM489 603h-108l133 151h130l77 -151h-98l-54 52h-8z" />
    <glyph glyph-name="Ycircumflex" unicode="&#x176;" horiz-adv-x="668" 
d="M307 271l-164 429h168l93 -269h8l193 269h180l-319 -428l-51 -272h-159zM416 780h-108l133 151h130l77 -151h-98l-54 52h-8z" />
    <glyph glyph-name="ycircumflex" unicode="&#x177;" 
d="M36 -48h138q-5 -32 17.5 -51t69.5 -19q120 0 142 124l10 59h-8q-25 -31 -66 -51t-89 -20q-85 0 -127 52.5t-27 136.5l64 345h155l-56 -301q-8 -41 10.5 -67t57.5 -26q40 0 70.5 29t37.5 72l56 293h155l-97 -522q-21 -115 -96 -182t-211 -67q-115 0 -167 56.5t-39 138.5z
M357 603h-108l133 151h130l77 -151h-98l-54 52h-8z" />
    <glyph glyph-name="Ydieresis" unicode="&#x178;" horiz-adv-x="668" 
d="M307 271l-164 429h168l93 -269h8l193 269h180l-319 -428l-51 -272h-159zM316 839q0 35 27 62t62 27q28 0 44.5 -16t16.5 -43q0 -36 -26 -62.5t-63 -26.5q-27 0 -44 16.5t-17 42.5zM514 838q0 37 26 63.5t63 26.5q27 0 44 -17t17 -43q0 -35 -26.5 -61.5t-61.5 -26.5
q-29 0 -45.5 15.5t-16.5 42.5z" />
    <glyph glyph-name="Zacute" unicode="&#x179;" horiz-adv-x="625" 
d="M582 0h-539l25 138l410 419l2 8h-320l25 135h525l-26 -137l-410 -419l-2 -8h335zM495 780h-104l76 152h149z" />
    <glyph glyph-name="zacute" unicode="&#x17a;" horiz-adv-x="526" 
d="M480 0h-434l25 137l275 255l2 8h-219l23 128h421l-23 -128l-276 -260l-2 -8h233zM422 603h-104l76 152h149z" />
    <glyph glyph-name="Zdotaccent" unicode="&#x17b;" horiz-adv-x="625" 
d="M582 0h-539l25 138l410 419l2 8h-320l25 135h525l-26 -137l-410 -419l-2 -8h335zM377 831q0 43 30.5 72t74.5 29q35 0 54.5 -18t19.5 -48q0 -43 -30.5 -72.5t-75.5 -29.5q-33 0 -53 18.5t-20 48.5z" />
    <glyph glyph-name="zdotaccent" unicode="&#x17c;" horiz-adv-x="526" 
d="M480 0h-434l25 137l275 255l2 8h-219l23 128h421l-23 -128l-276 -260l-2 -8h233zM305 654q0 42 30.5 71.5t74.5 29.5q34 0 54 -18.5t20 -47.5q0 -43 -31 -72.5t-75 -29.5q-33 0 -53 18.5t-20 48.5z" />
    <glyph glyph-name="Zcaron" unicode="&#x17d;" horiz-adv-x="625" 
d="M582 0h-539l25 138l410 419l2 8h-320l25 135h525l-26 -137l-410 -419l-2 -8h335zM388 780l-77 151h97l53 -52h8l72 52h110l-133 -151h-130z" />
    <glyph glyph-name="zcaron" unicode="&#x17e;" horiz-adv-x="526" 
d="M480 0h-434l25 137l275 255l2 8h-219l23 128h421l-23 -128l-276 -260l-2 -8h233zM316 603l-77 151h97l53 -52h8l72 52h110l-133 -151h-130z" />
    <glyph glyph-name="florin" unicode="&#x192;" horiz-adv-x="538" 
d="M261 325h-100v122h123l24 133q15 81 72 125.5t144 44.5h91l-24 -130h-51q-71 0 -85 -71l-19 -102h122v-122h-145l-97 -518h-150z" />
    <glyph glyph-name="uni0218" unicode="&#x218;" horiz-adv-x="608" 
d="M70 228h151q-7 -44 22 -70t86 -26q55 0 88 22t33 60q0 23 -23.5 38t-58.5 22.5t-76 20t-76 29t-58.5 52.5t-23.5 87q0 113 80 181q81 69 212 69q114 0 177 -58t46 -165h-157q6 37 -17.5 59.5t-70.5 22.5t-77 -21t-30 -55q0 -26 33.5 -41.5t80.5 -26t94.5 -26t81 -53.5
t33.5 -97q0 -124 -83.5 -194.5t-233.5 -70.5q-125 0 -190 66q-63 67 -43 175zM282 -229h-94l47 176h125z" />
    <glyph glyph-name="uni0219" unicode="&#x219;" horiz-adv-x="531" 
d="M66 162h139q-2 -30 18 -45t59 -15q42 0 66.5 15.5t24.5 43.5q0 21 -27 31t-65.5 15t-76.5 14.5t-65 38.5t-27 77q0 89 69 146q68 58 181 58q96 0 146.5 -44t40.5 -124h-134q1 27 -17.5 41.5t-54.5 14.5q-38 0 -62.5 -15.5t-24.5 -39.5q0 -20 28 -28.5t68 -13t80 -14
t68 -39t28 -79.5q0 -97 -71 -155t-196 -58q-109 0 -158.5 46.5t-36.5 128.5zM244 -229h-94l47 176h125z" />
    <glyph glyph-name="uni021A" unicode="&#x21a;" 
d="M327 563h-196l26 137h550l-26 -137h-196l-104 -563h-68l-21 -47h6q12 9 34 9q30 0 49 -17.5t19 -46.5q0 -44 -33.5 -73.5t-83.5 -29.5q-42 0 -66.5 21.5t-18.5 56.5h74q0 -19 21 -19q13 0 22.5 9.5t9.5 22.5q0 21 -23 21q-15 0 -24 -13l-70 1l38 105h-24z" />
    <glyph glyph-name="uni021B" unicode="&#x21b;" horiz-adv-x="450" 
d="M198 407h-86l23 120h43q48 0 59 49l18 95h147l-27 -143h138l-23 -121h-137l-41 -216q-11 -63 57 -63h68l-24 -128h-107h-15l-21 -47h6q12 9 33 9q30 0 49.5 -17.5t19.5 -46.5q0 -44 -33.5 -73.5t-83.5 -29.5q-42 0 -66.5 21.5t-18.5 56.5h73q0 -7 6 -13t15 -6
q14 0 23 9.5t9 22.5q0 21 -22 21q-15 0 -24 -13l-71 1l43 119q-46 19 -65 62.5t-7 106.5z" />
    <glyph glyph-name="uni0237" unicode="&#x237;" horiz-adv-x="315" 
d="M25 -230h-66l25 137h37q72 0 85 72l102 549h155l-101 -550q-18 -97 -82 -152.5t-155 -55.5z" />
    <glyph glyph-name="circumflex" unicode="&#x2c6;" horiz-adv-x="412" 
d="M256 603h-108l133 151h130l77 -151h-98l-54 52h-8z" />
    <glyph glyph-name="caron" unicode="&#x2c7;" horiz-adv-x="412" 
d="M253 603l-77 151h97l53 -52h8l72 52h110l-133 -151h-130z" />
    <glyph glyph-name="breve" unicode="&#x2d8;" horiz-adv-x="377" 
d="M182 748h87q-8 -54 44 -54q24 0 41.5 15t21.5 39h97q-7 -68 -53 -107.5t-117 -39.5q-72 0 -104.5 39t-16.5 108z" />
    <glyph glyph-name="dotaccent" unicode="&#x2d9;" horiz-adv-x="269" 
d="M169 654q0 42 30.5 71.5t74.5 29.5q35 0 54.5 -18t19.5 -48q0 -43 -30.5 -72.5t-75.5 -29.5q-33 0 -53 18.5t-20 48.5z" />
    <glyph glyph-name="ring" unicode="&#x2da;" horiz-adv-x="295" 
d="M165 650q0 49 35 84q37 35 89 35q42 0 66 -21.5t24 -57.5q0 -51 -35.5 -86t-90.5 -35q-40 0 -64 22.5t-24 58.5zM236 661q0 -27 29 -27q18 0 30.5 12.5t12.5 30.5q0 12 -8.5 20t-22.5 8q-17 0 -29 -13t-12 -31z" />
    <glyph glyph-name="ogonek" unicode="&#x2db;" horiz-adv-x="260" 
d="M20 -131q0 47 52 96l52 55l93 -20l-47 -49q-23 -23 -23 -38q0 -20 26 -20h25l-17 -90h-80q-36 0 -58.5 18t-22.5 48z" />
    <glyph glyph-name="tilde" unicode="&#x2dc;" horiz-adv-x="440" 
d="M244 599h-93q10 71 46 108.5t91 37.5q34 0 67.5 -21t47.5 -21t26.5 12t15.5 30h93q-10 -70 -46.5 -108.5t-89.5 -38.5q-32 0 -65 21t-50 21q-16 0 -27.5 -11t-15.5 -30z" />
    <glyph glyph-name="hungarumlaut" unicode="&#x2dd;" horiz-adv-x="459" 
d="M258 603h-101l67 155h146zM444 603h-102l68 155h146z" />
    <glyph glyph-name="uni0326" unicode="&#x326;" horiz-adv-x="0" 
d="M-124 -229h-94l47 176h125z" />
    <glyph glyph-name="Wgrave" unicode="&#x1e80;" horiz-adv-x="996" 
d="M195 0l-52 700h172l18 -455h8l189 455h195l20 -455h8l186 455h174l-312 -700h-187l-24 473h-9l-200 -473h-186zM606 780l-66 152h151l20 -152h-105z" />
    <glyph glyph-name="wgrave" unicode="&#x1e81;" horiz-adv-x="875" 
d="M163 0l-42 528h161l6 -339h8l164 339h151l37 -339h8l133 339h161l-238 -528h-170l-41 322h-6l-162 -322h-170zM510 603l-66 152h151l20 -152h-105z" />
    <glyph glyph-name="Wacute" unicode="&#x1e82;" horiz-adv-x="996" 
d="M195 0l-52 700h172l18 -455h8l189 455h195l20 -455h8l186 455h174l-312 -700h-187l-24 473h-9l-200 -473h-186zM688 780h-104l76 152h149z" />
    <glyph glyph-name="wacute" unicode="&#x1e83;" horiz-adv-x="875" 
d="M163 0l-42 528h161l6 -339h8l164 339h151l37 -339h8l133 339h161l-238 -528h-170l-41 322h-6l-162 -322h-170zM592 603h-104l76 152h149z" />
    <glyph glyph-name="Wdieresis" unicode="&#x1e84;" horiz-adv-x="996" 
d="M195 0l-52 700h172l18 -455h8l189 455h195l20 -455h8l186 455h174l-312 -700h-187l-24 473h-9l-200 -473h-186zM485 839q0 35 27 62t62 27q28 0 44.5 -16t16.5 -43q0 -36 -26 -62.5t-63 -26.5q-27 0 -44 16.5t-17 42.5zM683 838q0 37 26 63.5t63 26.5q27 0 44 -17t17 -43
q0 -35 -26.5 -61.5t-61.5 -26.5q-29 0 -45.5 15.5t-16.5 42.5z" />
    <glyph glyph-name="wdieresis" unicode="&#x1e85;" horiz-adv-x="875" 
d="M163 0l-42 528h161l6 -339h8l164 339h151l37 -339h8l133 339h161l-238 -528h-170l-41 322h-6l-162 -322h-170zM389 662q0 35 27 62t62 27q28 0 44.5 -16.5t16.5 -42.5q0 -37 -26 -63t-63 -26q-27 0 -44 16.5t-17 42.5zM587 661q0 37 26 63.5t63 26.5q27 0 44 -17t17 -43
q0 -35 -26.5 -61.5t-61.5 -26.5q-29 0 -45.5 15.5t-16.5 42.5z" />
    <glyph glyph-name="uni1E9E" unicode="&#x1e9e;" horiz-adv-x="698" 
d="M227 0h-158l90 484q18 92 92 154q76 62 187 62h292l-27 -145l-152 -135l-2 -10l13 -1q64 -4 105 -47t41 -111q2 -103 -70.5 -177.5t-180.5 -73.5h-179l26 137h148q34 0 62 26q27 25 27 60q0 26 -17 42.5t-45 16.5h-128l27 145l139 128l2 10h-86q-47 0 -79.5 -27
t-39.5 -70z" />
    <glyph glyph-name="Ygrave" unicode="&#x1ef2;" horiz-adv-x="668" 
d="M307 271l-164 429h168l93 -269h8l193 269h180l-319 -428l-51 -272h-159zM437 780l-66 152h151l20 -152h-105z" />
    <glyph glyph-name="ygrave" unicode="&#x1ef3;" 
d="M36 -48h138q-5 -32 17.5 -51t69.5 -19q120 0 142 124l10 59h-8q-25 -31 -66 -51t-89 -20q-85 0 -127 52.5t-27 136.5l64 345h155l-56 -301q-8 -41 10.5 -67t57.5 -26q40 0 70.5 29t37.5 72l56 293h155l-97 -522q-21 -115 -96 -182t-211 -67q-115 0 -167 56.5t-39 138.5z
M378 603l-66 152h151l20 -152h-105z" />
    <glyph glyph-name="uni2000" unicode="&#x2000;" horiz-adv-x="473" 
 />
    <glyph glyph-name="uni2001" unicode="&#x2001;" horiz-adv-x="946" 
 />
    <glyph glyph-name="uni2002" unicode="&#x2002;" horiz-adv-x="473" 
 />
    <glyph glyph-name="uni2003" unicode="&#x2003;" horiz-adv-x="946" 
 />
    <glyph glyph-name="uni2004" unicode="&#x2004;" horiz-adv-x="315" 
 />
    <glyph glyph-name="uni2005" unicode="&#x2005;" horiz-adv-x="236" 
 />
    <glyph glyph-name="uni2006" unicode="&#x2006;" horiz-adv-x="157" 
 />
    <glyph glyph-name="uni2007" unicode="&#x2007;" horiz-adv-x="157" 
 />
    <glyph glyph-name="uni2008" unicode="&#x2008;" horiz-adv-x="118" 
 />
    <glyph glyph-name="uni2009" unicode="&#x2009;" horiz-adv-x="189" 
 />
    <glyph glyph-name="uni200A" unicode="&#x200a;" horiz-adv-x="52" 
 />
    <glyph glyph-name="uni2010" unicode="&#x2010;" horiz-adv-x="384" 
d="M379 240h-286l25 131h285z" />
    <glyph glyph-name="uni2011" unicode="&#x2011;" horiz-adv-x="384" 
d="M379 240h-286l25 131h285z" />
    <glyph glyph-name="figuredash" unicode="&#x2012;" horiz-adv-x="384" 
d="M379 240h-286l25 131h285z" />
    <glyph glyph-name="endash" unicode="&#x2013;" horiz-adv-x="649" 
d="M645 241h-551l24 130h551z" />
    <glyph glyph-name="emdash" unicode="&#x2014;" horiz-adv-x="901" 
d="M896 241h-803l24 129h803z" />
    <glyph glyph-name="quoteleft" unicode="&#x2018;" horiz-adv-x="275" 
d="M285 438h-151l108 262h111z" />
    <glyph glyph-name="quoteright" unicode="&#x2019;" horiz-adv-x="275" 
d="M245 438h-111l67 262h151z" />
    <glyph glyph-name="quotesinglbase" unicode="&#x201a;" horiz-adv-x="273" 
d="M133 -131h-111l67 262h151z" />
    <glyph glyph-name="quotedblleft" unicode="&#x201c;" horiz-adv-x="486" 
d="M285 438h-151l108 262h104zM496 438h-151l108 262h111z" />
    <glyph glyph-name="quotedblright" unicode="&#x201d;" horiz-adv-x="486" 
d="M245 438h-111l67 262h151zM456 438h-104l60 262h151z" />
    <glyph glyph-name="quotedblbase" unicode="&#x201e;" horiz-adv-x="492" 
d="M140 -131h-111l67 262h151zM350 -131h-104l61 262h151z" />
    <glyph glyph-name="dagger" unicode="&#x2020;" horiz-adv-x="466" 
d="M237 400h-123l23 125h123l32 175h139l-32 -175h126l-24 -125h-125l-75 -400h-139z" />
    <glyph glyph-name="daggerdbl" unicode="&#x2021;" horiz-adv-x="466" 
d="M190 150h-123l23 125h124l27 150h-123l23 125h124l27 150h139l-28 -150h126l-23 -125h-126l-28 -150h126l-23 -125h-126l-28 -150h-139z" />
    <glyph glyph-name="bullet" unicode="&#x2022;" horiz-adv-x="464" 
d="M114 277q0 81 62 143q64 62 145 62q63 0 103 -39.5t40 -99.5q2 -79 -62.5 -143t-144.5 -62q-64 0 -103.5 39t-39.5 100z" />
    <glyph glyph-name="uni202F" unicode="&#x202f;" horiz-adv-x="189" 
 />
    <glyph glyph-name="perthousand" unicode="&#x2030;" horiz-adv-x="1173" 
d="M147 455l23 126q11 61 55 96.5t110 35.5q63 0 95.5 -37t21.5 -95l-23 -126q-11 -61 -55 -96.5t-109 -35.5q-62 0 -95.5 36.5t-22.5 95.5zM257 26l-74 62l526 593l74 -62zM269 579l-22 -122q-4 -19 5 -31.5t28 -12.5q20 0 33.5 12.5t17.5 31.5l23 122q3 19 -7 31t-28 12
q-20 0 -33 -12t-17 -31zM513 119l23 126q11 61 55 96.5t110 35.5q63 0 95.5 -36.5t21.5 -95.5l-23 -126q-12 -61 -56 -96.5t-109 -35.5q-63 0 -95.5 36.5t-21.5 95.5zM635 243l-23 -122q-4 -18 6 -31t28 -13q41 0 50 44l23 122q4 18 -6 30.5t-29 12.5q-40 0 -49 -43z
M850 119l23 126q11 61 55 96.5t110 35.5q63 0 95.5 -36.5t21.5 -95.5l-23 -126q-12 -61 -55.5 -96.5t-109.5 -35.5q-62 0 -95 37t-22 95zM972 243l-23 -122q-4 -18 5.5 -31t28.5 -13q41 0 50 44l23 122q4 18 -6 30.5t-29 12.5q-40 0 -49 -43z" />
    <glyph glyph-name="guilsinglleft" unicode="&#x2039;" horiz-adv-x="328" 
d="M286 87l-180 171l12 68l244 171l-28 -141l-99 -68l-1 -6l74 -68z" />
    <glyph glyph-name="guilsinglright" unicode="&#x203a;" horiz-adv-x="328" 
d="M318 258l-244 -171l28 141l99 68l1 6l-74 68l22 127l180 -171z" />
    <glyph glyph-name="fraction" unicode="&#x2044;" horiz-adv-x="515" 
d="M118 -41h-131l538 782h131z" />
    <glyph glyph-name="uni205F" unicode="&#x205f;" horiz-adv-x="236" 
 />
    <glyph glyph-name="Euro" unicode="&#x20ac;" horiz-adv-x="597" 
d="M110 242h-45l16 85h45l8 43h-45l16 85h45l4 25q16 109 97 171q82 62 190 62q109 0 164 -67q56 -67 37 -176h-156q7 43 -13 68.5t-59 25.5q-40 0 -68 -25t-34 -69l-3 -15h121l-16 -85h-124l-7 -43h123l-16 -85h-127l-2 -12q-8 -41 13 -67.5t61 -26.5t69 25t37 68h157
q-21 -114 -97 -178t-192 -64q-99 0 -160.5 63.5t-42.5 169.5z" />
    <glyph glyph-name="uni2116" unicode="&#x2116;" horiz-adv-x="1170" 
d="M222 0h-153l130 700h166l195 -440h6l82 440h153l-130 -700h-166l-195 440h-6zM1132 182h-340l24 127h340zM841 499q0 87 64.5 150.5t155.5 63.5q69 0 111.5 -40.5t42.5 -104.5q0 -87 -63.5 -149.5t-156.5 -62.5q-70 0 -112 40t-42 103zM960 521q0 -22 15.5 -37.5
t39.5 -15.5q33 0 57 23.5t24 55.5q0 23 -15 38t-41 15q-32 0 -56 -24t-24 -55z" />
    <glyph glyph-name="trademark" unicode="&#x2122;" horiz-adv-x="866" 
d="M251 606h-89l17 94h288l-18 -94h-89l-49 -266h-109zM560 340h-105l67 360h113l56 -197h6l129 197h120l-66 -360h-106l31 168h-5l-109 -168h-48l-47 168h-5z" />
    <glyph glyph-name="arrowleft" unicode="&#x2190;" horiz-adv-x="814" 
d="M466 -84l-304 302v104l304 303l97 -96l-169 -169v-6h507v-166h-507v-6l169 -169z" />
    <glyph glyph-name="arrowup" unicode="&#x2191;" horiz-adv-x="779" 
d="M213 339l-97 97l304 303h104l301 -303l-97 -97l-169 169h-6v-508h-166v508h-6z" />
    <glyph glyph-name="arrowright" unicode="&#x2192;" horiz-adv-x="814" 
d="M695 188h-508v166h508v6l-169 169l97 96l304 -303v-104l-304 -302l-97 97l169 169v6z" />
    <glyph glyph-name="arrowdown" unicode="&#x2193;" horiz-adv-x="779" 
d="M420 -39l-304 303l97 97l168 -169h6v508h166v-508h6l169 169l97 -97l-301 -303h-104z" />
    <glyph glyph-name="uni2196" unicode="&#x2196;" horiz-adv-x="671" 
d="M42 160l-2 427l74 74h429l1 -137l-239 1l-4 -5l359 -359l-118 -117l-359 359l-4 -4v-239h-137z" />
    <glyph glyph-name="uni2197" unicode="&#x2197;" horiz-adv-x="671" 
d="M289 44l-117 117l359 359l-4 5l-239 -1v137h430l73 -74l-1 -427h-137v239l-5 4z" />
    <glyph glyph-name="uni2198" unicode="&#x2198;" horiz-adv-x="670" 
d="M468 105l-359 360l117 117l359 -359l4 4v239h137v-430l-74 -73l-428 1v138l239 -1z" />
    <glyph glyph-name="uni2199" unicode="&#x2199;" horiz-adv-x="670" 
d="M190 -37l-74 73v430h137v-239l4 -4l359 359l117 -117l-359 -360l5 -4l239 1v-138z" />
    <glyph glyph-name="minus" unicode="&#x2212;" horiz-adv-x="501" 
d="M542 251h-491l23 120h491z" />
    <glyph glyph-name="uni25FC" unicode="&#x25fc;" horiz-adv-x="530" 
d="M530 0h-530v530h530v-530z" />
    <glyph glyph-name="_1" horiz-adv-x="0" 
 />
    <glyph glyph-name="CR" horiz-adv-x="333" 
 />
    <glyph glyph-name="i.loclTRK" horiz-adv-x="269" 
d="M99 162l68 366h155l-65 -348q-8 -47 35 -47h20l-24 -133h-63q-77 0 -108.5 42t-17.5 120zM177 654q0 42 31 71.5t75 29.5q34 0 54 -18.5t20 -47.5q0 -43 -31 -72.5t-75 -29.5q-34 0 -54 18.5t-20 48.5z" />
    <glyph glyph-name="zero.tf" horiz-adv-x="607" 
d="M100 220l47 260q19 109 98 171t186 62q99 0 162.5 -63.5t44.5 -169.5l-48 -260q-20 -109 -98 -171t-186 -62q-99 0 -162.5 63.5t-43.5 169.5zM302 470l-44 -240q-8 -42 12 -68t59 -26q42 0 70.5 25.5t35.5 68.5l44 240q8 42 -12 68t-59 26q-40 0 -68.5 -25t-37.5 -69z
" />
    <glyph glyph-name="one.tf" horiz-adv-x="607" 
d="M411 476h-163l21 117q96 0 140.5 25.5t54.5 81.5h145l-130 -700h-157z" />
    <glyph glyph-name="two.tf" horiz-adv-x="607" 
d="M540 0h-475l23 125q13 69 52 117.5t119 90.5l145 80q72 41 72 94q0 28 -19.5 44.5t-54.5 16.5q-40 0 -68 -24t-34 -59h-146q14 95 88 161.5t187 66.5q97 0 152 -51q56 -50 56 -127q0 -148 -172 -240l-153 -82q-53 -33 -58 -67l-2 -9h314z" />
    <glyph glyph-name="three.tf" horiz-adv-x="607" 
d="M103 216h146q-5 -34 15.5 -56.5t59.5 -22.5q45 0 75.5 29t30.5 72q0 30 -21 49.5t-58 19.5h-99l22 119l159 127l2 7h-256l26 141h452l-25 -137l-169 -131l-1 -6q59 -12 94 -56t35 -106q0 -127 -82 -202t-209 -75q-110 0 -162 67.5t-35 160.5z" />
    <glyph glyph-name="four.tf" horiz-adv-x="607" 
d="M365 123h-305l24 132l257 445h162l-245 -431l-1 -6h134l26 144h157l-26 -144h71l-27 -140h-71l-22 -123h-157z" />
    <glyph glyph-name="five.tf" horiz-adv-x="607" 
d="M100 213h146q-4 -35 16 -56t60 -21q46 0 77 31q33 31 33 75q0 32 -21 51.5t-59 19.5q-46 0 -81 -36h-150l107 424h406l-26 -141h-270l-36 -142h4q49 31 106 31q82 0 131 -52t49 -129q0 -119 -82.5 -199.5t-209.5 -80.5q-106 -1 -162 64.5t-38 160.5z" />
    <glyph glyph-name="six.tf" horiz-adv-x="607" 
d="M90 191q0 86 64 174l249 335h184l-198 -247l4 -4q15 5 33 5q67 0 121.5 -45t54.5 -131q2 -122 -87 -208t-214 -83q-89 0 -151 57q-60 58 -60 147zM251 209q0 -33 21 -53t56 -20q45 0 78 33q34 33 34 78q0 32 -21.5 53.5t-55.5 21.5q-45 0 -79 -34q-33 -34 -33 -79z" />
    <glyph glyph-name="seven.tf" horiz-adv-x="607" 
d="M298 0h-178l344 553l1 7h-291l27 141h466l-25 -135z" />
    <glyph glyph-name="eight.tf" horiz-adv-x="607" 
d="M82 168q0 65 36.5 116.5t101.5 85.5l2 8q-55 41 -55 113q0 93 76.5 157.5t189.5 64.5q91 0 146 -45q57 -44 57 -115q0 -53 -28.5 -99t-79.5 -76l-2 -8q75 -48 75 -131q0 -111 -82 -181t-218 -70q-98 0 -159 50q-60 51 -60 130zM245 196q0 -31 22 -50t60 -19
q48 0 81.5 29.5t33.5 71.5q0 32 -23 51t-60 19q-47 0 -81 -30q-33 -28 -33 -72zM316 490q0 -27 19 -44t49 -17q38 0 66 26.5t28 61.5q0 26 -18.5 43t-48.5 17q-39 0 -67 -25.5t-28 -61.5z" />
    <glyph glyph-name="nine.tf" horiz-adv-x="607" 
d="M135 422q-3 121 86 207t215 84q89 0 150 -58q61 -57 61 -146q0 -91 -64 -174l-249 -335h-184l198 247l-4 4q-15 -5 -33 -5q-68 0 -122 45t-54 131zM297 453q0 -33 21.5 -54t56.5 -21q44 0 78 34t34 79q0 32 -21.5 52.5t-56.5 20.5q-45 0 -79 -33q-33 -33 -33 -78z" />
    <glyph glyph-name="caron.Slovak" horiz-adv-x="231" 
d="M249 497h-107l37 203h131z" />
    <glyph glyph-name="NULL" horiz-adv-x="0" 
 />
    </font>
</defs>
</svg>
