<?xml version="1.0" standalone="no"?>
<!DOCTYPE svg PUBLIC "-//W3C//DTD SVG 1.1//EN" "http://www.w3.org/Graphics/SVG/1.1/DTD/svg11.dtd" >
<svg xmlns="http://www.w3.org/2000/svg" xmlns:xlink="http://www.w3.org/1999/xlink" version="1.1">
<metadata>
Created by FontForge 20170731 at Fri Sep  7 20:36:57 2018
 By Aleksey,,,
Copyright (c) 2018 by atipo. All rights reserved. |DCNT
</metadata>
<defs>
<font id="Silka-SemiBoldItalic" horiz-adv-x="602" >
  <font-face 
    font-family="Silka SemiBold"
    font-weight="600"
    font-style="italic"
    font-stretch="normal"
    units-per-em="1000"
    panose-1="0 0 7 0 0 0 0 0 0 0"
    ascent="750"
    descent="-250"
    x-height="526"
    cap-height="700"
    bbox="-208 -243 1208 945"
    underline-thickness="50"
    underline-position="-399"
    unicode-range="U+000D-25FC"
  />
<missing-glyph horiz-adv-x="568" 
d="M534 0h-500l130 700h500zM196 605l-94 -510l217 255zM341 305l-218 -255h340zM574 650h-340l123 -255zM596 605l-217 -255l123 -255z" />
    <glyph glyph-name="ellipsis" unicode="&#x2e;&#x2e;&#x2e;" horiz-adv-x="773" 
d="M71 47q0 35 27 61q28 27 64 27q29 0 46 -16.5t17 -43.5q0 -35 -27 -61.5t-63 -26.5q-28 0 -46 17t-18 43zM321 47q0 34 27 61q28 27 63 27q29 0 46.5 -16.5t17.5 -43.5q0 -35 -28 -62q-28 -26 -63 -26q-28 0 -45.5 17t-17.5 43zM570 47q0 35 27 61q29 27 64 27
q29 0 46 -16.5t17 -43.5q0 -35 -27 -61.5t-63 -26.5q-28 0 -46 17t-18 43z" />
    <glyph glyph-name="degree.alt" unicode="&#xb0;C" horiz-adv-x="964" 
d="M158 537q0 72 50 124q51 52 128 52q57 0 91 -32.5t34 -84.5q0 -72 -51 -125q-50 -51 -128 -51q-56 0 -90 32.5t-34 84.5zM243 552q0 -24 14 -38t40 -14q32 0 55 24t23 57q0 24 -14 38t-40 14q-32 0 -55 -24t-23 -57zM466 216l50 268q20 106 96 168q77 61 183 61t161 -67
q56 -66 36 -171h-132q10 50 -15 81.5t-71 31.5q-50 0 -84.5 -31t-43.5 -82l-47 -250q-9 -50 15.5 -81.5t70.5 -31.5q50 0 85 30.5t44 81.5h132q-20 -112 -95 -174.5t-187 -62.5q-96 0 -156.5 62.5t-41.5 166.5z" />
    <glyph glyph-name=".notdef" horiz-adv-x="568" 
d="M534 0h-500l130 700h500zM196 605l-94 -510l217 255zM341 305l-218 -255h340zM574 650h-340l123 -255zM596 605l-217 -255l123 -255z" />
    <glyph glyph-name=".null" horiz-adv-x="0" 
 />
    <glyph glyph-name="nonmarkingreturn" horiz-adv-x="333" 
 />
    <glyph glyph-name="CR.001" unicode="&#xd;" horiz-adv-x="0" 
 />
    <glyph glyph-name="space" unicode=" " horiz-adv-x="265" 
 />
    <glyph glyph-name="exclam" unicode="!" horiz-adv-x="305" 
d="M86 47q0 35 27 61q28 27 64 27q29 0 46.5 -16.5t17.5 -43.5q0 -35 -27 -61.5t-64 -26.5q-28 0 -46 17t-18 43zM228 198h-77l15 235l50 267h133l-49 -267z" />
    <glyph glyph-name="quotedbl" unicode="&#x22;" horiz-adv-x="431" 
d="M263 476h-96l31 224h117zM441 476h-97l32 224h116z" />
    <glyph glyph-name="numbersign" unicode="#" horiz-adv-x="590" 
d="M158 193h-72l18 98h87l39 117h-74l18 98h89l65 194h104l-65 -194h90l65 194h104l-65 -194h72l-18 -98h-87l-39 -117h74l-18 -98h-89l-65 -193h-104l65 193h-90l-65 -193h-104zM334 408l-39 -117h90l39 117h-90z" />
    <glyph glyph-name="dollar" unicode="$" 
d="M75 221h128q-7 -42 13 -70.5t65 -37.5l35 190q-54 15 -97 37q-76 42 -76 134q0 99 68 164q68 63 180 74l10 54h78l-10 -56q88 -10 137 -65.5t33 -147.5h-133q7 35 -9 59.5t-51 32.5l-32 -173l39 -11q46 -11 75 -30q78 -44 78 -133q0 -112 -71.5 -179t-199.5 -75l-13 -73
h-78l14 74q-102 12 -151 75q-50 63 -32 157zM280 499q0 -39 60 -62l29 153q-40 -8 -64.5 -33t-24.5 -58zM390 282l-32 -171q49 7 77.5 33.5t28.5 67.5q0 25 -18 41t-56 29z" />
    <glyph glyph-name="percent" unicode="%" horiz-adv-x="826" 
d="M149 455l23 126q11 61 54 96.5t108 35.5q62 0 94.5 -37t21.5 -95l-23 -126q-12 -62 -54.5 -97t-106.5 -35q-61 0 -94 36.5t-23 95.5zM246 26l-67 56l531 597l67 -56zM261 579l-22 -122q-5 -22 6.5 -37t33.5 -15q48 0 60 52l23 122q4 22 -8.5 36.5t-33.5 14.5
q-47 0 -59 -51zM506 119l23 126q11 61 54 96.5t108 35.5q61 0 93.5 -36.5t21.5 -95.5l-23 -126q-12 -62 -54.5 -97t-107.5 -35q-60 0 -93 37t-22 95zM618 243l-23 -122q-4 -22 7.5 -37t32.5 -15q48 0 60 52l23 122q4 21 -8.5 36t-33.5 15q-23 0 -38.5 -14t-19.5 -37z" />
    <glyph glyph-name="ampersand" unicode="&#x26;" horiz-adv-x="697" 
d="M75 169q0 135 162 210q-42 63 -42 126q0 87 64 147q64 61 164 61q73 0 120 -42q47 -41 47 -104q0 -134 -152 -203l-23 -11l106 -137q61 79 58 179h116q5 -148 -100 -268q21 -18 47 -18h28l-21 -109h-53q-60 0 -100 44q-92 -57 -203 -57q-92 0 -155 50t-63 132zM204 184
q0 -36 27.5 -60t71.5 -24q64 0 123 34l-126 163l-3 -2q-93 -43 -93 -111zM317 513q0 -35 34 -79l33 16q42 20 62.5 42.5t20.5 54.5q0 25 -16.5 40.5t-45.5 15.5q-37 0 -62.5 -26t-25.5 -64z" />
    <glyph glyph-name="quotesingle" unicode="'" horiz-adv-x="253" 
d="M263 476h-96l31 224h117z" />
    <glyph glyph-name="parenleft" unicode="(" horiz-adv-x="488" 
d="M88 217q0 178 97 323q99 147 270 232l82 -74q-147 -78 -233 -203t-86 -267q0 -97 46.5 -175.5t127.5 -130.5l-92 -74q-93 56 -153 153q-59 98 -59 216z" />
    <glyph glyph-name="parenright" unicode=")" horiz-adv-x="488" 
d="M147 -152l-81 74q147 79 232 203q87 125 87 267q0 97 -47 176.5t-128 129.5l93 74q94 -56 152 -153q59 -98 59 -216q0 -177 -98 -323q-99 -148 -269 -232z" />
    <glyph glyph-name="asterisk" unicode="*" horiz-adv-x="474" 
d="M272 505l-118 -11l12 65l113 -12l4 7l-77 72l55 47l56 -91l6 3l10 115h66l-33 -115l6 -3l88 91l39 -47l-103 -72l1 -7l116 12l-11 -65l-114 11l-3 -7l77 -71l-56 -47l-56 89l-6 -3l-9 -113h-66l33 113l-5 3l-89 -89l-38 47l102 71v7z" />
    <glyph glyph-name="plus" unicode="+" horiz-adv-x="494" 
d="M241 260h-188l19 103h189l36 195h108l-36 -195h187l-19 -103h-187l-37 -196h-108z" />
    <glyph glyph-name="comma" unicode="," horiz-adv-x="271" 
d="M132 -131h-94l65 249h130z" />
    <glyph glyph-name="hyphen" unicode="-" horiz-adv-x="388" 
d="M377 248h-275l21 112h275z" />
    <glyph glyph-name="period" unicode="." horiz-adv-x="274" 
d="M71 47q0 35 27 61q28 27 64 27q29 0 46 -16.5t17 -43.5q0 -35 -27 -61.5t-63 -26.5q-28 0 -46 17t-18 43z" />
    <glyph glyph-name="slash" unicode="/" horiz-adv-x="511" 
d="M145 -108h-126l463 858h127z" />
    <glyph glyph-name="zero" unicode="0" horiz-adv-x="615" 
d="M109 216l49 268q20 107 97 168t180 61q98 0 159.5 -62.5t41.5 -166.5l-49 -268q-19 -106 -97 -169q-76 -60 -181 -60q-96 0 -157.5 62.5t-42.5 166.5zM288 475l-46 -250q-10 -50 15 -81.5t71 -31.5q51 0 85.5 31t43.5 82l46 250q10 48 -15.5 80.5t-71.5 32.5
q-49 0 -83.5 -31t-44.5 -82z" />
    <glyph glyph-name="one" unicode="1" horiz-adv-x="460" 
d="M329 496h-166l19 99q94 0 139 25t55 80h123l-130 -700h-132z" />
    <glyph glyph-name="two" unicode="2" horiz-adv-x="586" 
d="M529 0h-462l21 113q13 68 53 116t120 93l144 80q83 47 83 115q0 34 -23 54t-64 20q-47 0 -79.5 -28t-39.5 -70h-125q14 92 84.5 156t181.5 64q92 0 147 -50q54 -49 54 -125q0 -144 -168 -236l-147 -81q-42 -24 -60.5 -45t-22.5 -48l-2 -11h327z" />
    <glyph glyph-name="three" unicode="3" horiz-adv-x="604" 
d="M110 208h123q-6 -41 18 -68t71 -27q56 0 93 36q38 38 38 90q0 37 -26 61t-70 24h-92l18 103l178 148l1 7h-269l22 118h437l-21 -116l-186 -151l-1 -6q66 -9 105 -54t39 -111q0 -123 -80.5 -198.5t-205.5 -75.5q-106 0 -157.5 66.5t-34.5 153.5z" />
    <glyph glyph-name="four" unicode="4" horiz-adv-x="630" 
d="M389 141h-305l20 109l274 450h138l-263 -436l-1 -6h159l28 149h131l-28 -149h78l-22 -117h-78l-26 -141h-131z" />
    <glyph glyph-name="five" unicode="5" horiz-adv-x="597" 
d="M106 203h123q-4 -42 20 -66.5t72 -24.5q54 0 94 40q41 41 41 94q0 39 -26.5 63t-71.5 24q-60 0 -101 -47h-125l104 414h396l-22 -118h-281l-43 -169h5q49 36 116 36q83 0 133 -53t50 -130q0 -117 -81.5 -198t-205.5 -81q-102 0 -156 61q-54 62 -41 155z" />
    <glyph glyph-name="six" unicode="6" horiz-adv-x="619" 
d="M101 187q0 89 64 174l254 339h153l-200 -252l4 -4q21 8 44 8q73 0 127 -47.5t54 -131.5q0 -121 -84 -203.5t-210 -82.5q-89 0 -147 57q-59 57 -59 143zM236 201q0 -39 25.5 -64t67.5 -25q55 0 95 40q41 41 41 96q0 40 -26 65.5t-68 25.5q-54 0 -95 -41q-40 -40 -40 -97z
" />
    <glyph glyph-name="seven" unicode="7" horiz-adv-x="558" 
d="M266 0h-149l351 575l1 7h-308l22 118h455l-21 -113z" />
    <glyph glyph-name="eight" unicode="8" horiz-adv-x="619" 
d="M94 166q0 65 38.5 118.5t105.5 86.5l2 7q-58 42 -58 115q0 93 73 156q73 64 184 64q85 0 139 -45q55 -43 55 -114q0 -54 -30 -101t-82 -75l-2 -7q80 -45 80 -134q0 -109 -81 -179q-80 -71 -211 -71q-95 0 -154 50t-59 129zM231 187q0 -37 26.5 -59.5t71.5 -22.5
q56 0 96 35q40 36 40 87q0 38 -27 60.5t-71 22.5q-57 0 -97 -36q-39 -36 -39 -87zM309 494q0 -31 22 -51.5t57 -20.5q46 0 78.5 31t32.5 74q0 31 -21.5 50.5t-57.5 19.5q-47 0 -79 -30t-32 -73z" />
    <glyph glyph-name="nine" unicode="9" horiz-adv-x="619" 
d="M147 427q0 121 84.5 203.5t209.5 82.5q89 0 147 -57q60 -56 60 -143q0 -86 -64 -174l-254 -339h-154l201 252l-4 4q-19 -8 -44 -8q-74 0 -128 47.5t-54 131.5zM284 452q0 -40 25.5 -65.5t67.5 -25.5q54 0 95 41t41 97q0 39 -26 64t-68 25q-54 0 -95 -41q-40 -40 -40 -95z
" />
    <glyph glyph-name="colon" unicode=":" horiz-adv-x="274" 
d="M71 47q0 35 27 61q28 27 64 27q29 0 46 -16.5t17 -43.5q0 -35 -27 -61.5t-63 -26.5q-28 0 -46 17t-18 43zM137 403q0 35 27 62q28 27 64 27q29 0 46 -16.5t17 -43.5q0 -36 -27 -62.5t-64 -26.5q-27 0 -45 16.5t-18 43.5z" />
    <glyph glyph-name="semicolon" unicode=";" horiz-adv-x="276" 
d="M132 -131h-94l65 249h130zM137 403q0 34 28 61q28 28 63 28q29 0 46.5 -16.5t17.5 -43.5q0 -36 -27 -62.5t-64 -26.5q-28 0 -46 16.5t-18 43.5z" />
    <glyph glyph-name="less" unicode="&#x3c;" horiz-adv-x="540" 
d="M495 85l-387 166l22 122l449 166l-20 -113l-322 -113l-1 -6l279 -112z" />
    <glyph glyph-name="equal" unicode="=" horiz-adv-x="494" 
d="M519 162h-484l19 103h484zM554 348h-484l19 103h484z" />
    <glyph glyph-name="greater" unicode="&#x3e;" horiz-adv-x="540" 
d="M525 251l-448 -166l21 112l321 115l1 6l-279 111l20 110l387 -166z" />
    <glyph glyph-name="question" unicode="?" horiz-adv-x="554" 
d="M271 504h-120q13 89 79 149t172 60q88 0 140 -46t52 -117q0 -121 -137 -207l-60 -39q-40 -28 -46 -66l-7 -37h-119l9 48q9 46 31.5 76.5t66.5 60.5l63 43q67 45 67 102q0 30 -21 48t-58 18q-45 0 -76 -26.5t-36 -66.5zM182 47q0 35 27 61q29 27 64 27q28 0 45.5 -16.5
t17.5 -43.5q0 -36 -27 -62t-64 -26q-27 0 -45 17t-18 43z" />
    <glyph glyph-name="at" unicode="@" horiz-adv-x="908" 
d="M101 182q0 98 39 189t105 158t157.5 107t192.5 40q155 0 248.5 -87.5t93.5 -219.5q2 -126 -64 -217.5t-157 -89.5q-45 0 -72 19.5t-32 53.5h-6q-22 -32 -61.5 -53t-87.5 -21q-67 0 -108.5 41t-41.5 110q0 101 64 172q65 74 153 72q78 0 101 -51h6l8 44h99l-44 -240
q-6 -27 5.5 -43t38.5 -16q41 0 73 62t32 143q0 105 -72 168q-70 64 -193 64q-154 0 -266 -116.5t-112 -277.5q0 -116 72.5 -182t200.5 -66h176l-17 -90h-176q-161 0 -258 91q-97 90 -97 236zM411 234q0 -37 22 -59t57 -22q49 0 84 38t35 94q0 36 -21.5 57.5t-58.5 21.5
q-49 0 -84 -39q-34 -37 -34 -91z" />
    <glyph glyph-name="A" unicode="A" horiz-adv-x="696" 
d="M159 0h-144l378 700h168l120 -700h-140l-22 138h-287zM446 552l-158 -295h214l-49 295h-7z" />
    <glyph glyph-name="B" unicode="B" horiz-adv-x="614" 
d="M361 0h-282l130 700h259q86 0 135 -41t49 -109q0 -56 -30 -104.5t-82 -74.5l-2 -6q34 -14 56.5 -46.5t22.5 -78.5q0 -99 -74 -170q-73 -70 -182 -70zM265 313l-37 -200h118q58 0 95 34.5t37 87.5q0 37 -27.5 57.5t-71.5 20.5h-114zM316 590l-33 -178h116q50 0 84 31.5
t34 76.5q0 32 -23 51t-61 19h-117z" />
    <glyph glyph-name="C" unicode="C" horiz-adv-x="806" 
d="M101 277q0 86 33 166t91 140q59 61 141.5 95.5t174.5 34.5q133 0 210 -73q78 -72 83 -188h-144q-7 61 -54 97.5t-119 36.5q-112 0 -194 -85.5t-82 -200.5q0 -84 51.5 -135t137.5 -51q74 0 134.5 35.5t90.5 96.5h146q-42 -118 -144 -189q-101 -70 -251 -70q-139 0 -222 80
q-83 81 -83 210z" />
    <glyph glyph-name="D" unicode="D" horiz-adv-x="716" 
d="M326 0h-247l130 700h236q141 0 220 -75q80 -74 80 -198q0 -187 -115.5 -307t-303.5 -120zM320 584l-87 -468h98q78 0 141 38t98 105q35 68 35 152q0 82 -51 127.5t-136 45.5h-98z" />
    <glyph glyph-name="E" unicode="E" horiz-adv-x="561" 
d="M518 0h-439l130 700h429l-22 -115h-296l-32 -174h253l-21 -114h-253l-34 -182h307z" />
    <glyph glyph-name="F" unicode="F" horiz-adv-x="551" 
d="M212 0h-133l130 700h429l-22 -115h-296l-34 -187h270l-22 -114h-270z" />
    <glyph glyph-name="G" unicode="G" horiz-adv-x="811" 
d="M101 276q0 86 33 166.5t91 140.5q59 61 141.5 95.5t174.5 34.5q127 0 207 -69q79 -69 88 -178h-146q-12 55 -57 87.5t-115 32.5q-112 3 -196 -84.5t-81 -204.5q0 -84 51.5 -135t138.5 -51q83 0 150 44q68 45 87 112h-221l20 110h370q-18 -185 -136.5 -287.5
t-290.5 -102.5q-139 0 -225 80q-84 81 -84 209z" />
    <glyph glyph-name="H" unicode="H" horiz-adv-x="734" 
d="M212 0h-133l130 700h133l-53 -283h310l53 283h133l-130 -700h-133l54 291h-310z" />
    <glyph glyph-name="I" unicode="I" horiz-adv-x="291" 
d="M212 0h-133l130 700h133z" />
    <glyph glyph-name="J" unicode="J" horiz-adv-x="588" 
d="M73 212h122q-2 -16 -2 -22q0 -32 18 -53q24 -28 79 -28q57 0 92 34t45 88l65 352h-238l22 117h371l-88 -472q-21 -113 -94 -177t-193 -64q-107 0 -162 61q-42 46 -42 115q0 21 5 49z" />
    <glyph glyph-name="K" unicode="K" horiz-adv-x="653" 
d="M212 0h-133l130 700h133l-55 -295h6l296 295h167l-291 -282l104 -258q18 -44 58 -44h28l-21 -116h-62q-85 0 -116 82l-95 234l-109 -105z" />
    <glyph glyph-name="L" unicode="L" horiz-adv-x="536" 
d="M495 0h-416l130 700h133l-108 -582h284z" />
    <glyph glyph-name="M" unicode="M" horiz-adv-x="895" 
d="M207 0h-128l130 700h155l116 -520h6l293 520h167l-130 -700h-129l81 437h-6l-250 -437h-115l-101 448h-6z" />
    <glyph glyph-name="N" unicode="N" horiz-adv-x="738" 
d="M209 0h-130l130 700h137l219 -479h6l89 479h129l-130 -700h-137l-218 479h-6z" />
    <glyph glyph-name="O" unicode="O" horiz-adv-x="824" 
d="M101 278q0 117 58 217t160.5 159t224.5 59q140 0 223 -82q85 -81 85 -210q0 -87 -33.5 -167t-93.5 -140q-59 -59 -142 -93t-174 -34q-139 0 -224 80q-84 81 -84 211zM241 301q0 -84 52.5 -135.5t139.5 -51.5q113 0 196 84.5t83 199.5q0 83 -52 135q-53 53 -139 53
q-113 0 -196.5 -85t-83.5 -200z" />
    <glyph glyph-name="P" unicode="P" horiz-adv-x="608" 
d="M212 0h-133l130 700h262q87 0 143 -51t56 -132q0 -118 -79.5 -195t-199.5 -77h-134zM320 586l-41 -227h118q57 0 96 40q39 41 39 99q0 41 -25 64.5t-68 23.5h-119z" />
    <glyph glyph-name="Q" unicode="Q" horiz-adv-x="824" 
d="M101 278q0 117 58 217t160.5 159t224.5 59q140 0 223 -82q85 -81 85 -210q0 -177 -123 -302q18 -8 39 -8h52l-21 -111h-59q-68 0 -107 45q-101 -58 -224 -58q-139 0 -224 80q-84 81 -84 211zM241 301q0 -84 52.5 -135.5t139.5 -51.5q64 0 126 32l-122 171h140l70 -99
q65 80 65 180q0 83 -52 135q-53 53 -139 53q-113 0 -196.5 -85t-83.5 -200z" />
    <glyph glyph-name="R" unicode="R" horiz-adv-x="641" 
d="M212 0h-133l130 700h262q93 0 148 -52q56 -51 56 -134q0 -81 -47 -145.5t-126 -95.5l41 -115q9 -24 21.5 -33t34.5 -9h35l-21 -116h-69q-89 0 -114 82l-54 168h-118zM320 586l-40 -222h119q60 0 99 38t39 98q0 39 -26.5 62.5t-73.5 23.5h-117z" />
    <glyph glyph-name="S" unicode="S" 
d="M75 221h128q-2 -16 -2 -22q0 -37 25 -59q31 -31 97 -31q64 0 102.5 27.5t38.5 75.5q0 32 -33 51t-80 31t-94.5 28t-80.5 54t-33 98q0 110 79 174q80 65 204 65q78 0 134.5 -31t74.5 -90q8 -27 8 -54q0 -21 -4 -41h-133q2 14 2 20q0 29 -20 51q-28 26 -82 26
q-55 0 -90.5 -26.5t-35.5 -68.5q0 -31 33.5 -49t81.5 -29.5t96 -27.5t81.5 -54t33.5 -97q0 -120 -81.5 -187.5t-224.5 -67.5q-120 0 -183 65q-47 50 -47 121q0 20 5 48z" />
    <glyph glyph-name="T" unicode="T" horiz-adv-x="592" 
d="M338 583h-202l22 117h537l-22 -117h-203l-108 -583h-133z" />
    <glyph glyph-name="U" unicode="U" horiz-adv-x="696" 
d="M120 261l81 439h133l-81 -438q-4 -19 -4 -40q0 -42 21 -70q28 -40 100 -40q68 0 113 39.5t59 111.5l81 437h132l-81 -438q-24 -132 -106.5 -203.5t-216.5 -71.5q-126 0 -190 76q-47 58 -47 138q0 29 6 60z" />
    <glyph glyph-name="V" unicode="V" horiz-adv-x="691" 
d="M274 0l-129 700h146l82 -527h7l278 527h148l-392 -700h-140z" />
    <glyph glyph-name="W" unicode="W" horiz-adv-x="973" 
d="M196 0l-51 700h144l22 -503h7l216 503h164l28 -503h8l208 503h146l-311 -700h-160l-32 512h-7l-222 -512h-160z" />
    <glyph glyph-name="X" unicode="X" horiz-adv-x="640" 
d="M166 0h-156l288 358l-147 342h148l98 -236h6l185 236h154l-275 -342l155 -358h-151l-103 253h-6z" />
    <glyph glyph-name="Y" unicode="Y" horiz-adv-x="656" 
d="M313 270l-168 430h142l108 -295h7l217 295h152l-325 -429l-50 -271h-134z" />
    <glyph glyph-name="Z" unicode="Z" horiz-adv-x="623" 
d="M577 0h-532l22 119l444 459l2 7h-347l22 115h517l-22 -118l-444 -459l-1 -8h361z" />
    <glyph glyph-name="bracketleft" unicode="[" horiz-adv-x="424" 
d="M290 -147h-241l168 910h242l-20 -105h-116l-129 -699h116z" />
    <glyph glyph-name="backslash" unicode="\" horiz-adv-x="511" 
d="M330 -108l-146 858h120l146 -858h-120z" />
    <glyph glyph-name="bracketright" unicode="]" horiz-adv-x="424" 
d="M304 -147h-242l20 106h116l129 699h-116l20 105h241z" />
    <glyph glyph-name="asciicircum" unicode="^" horiz-adv-x="591" 
d="M231 304h-116l254 396h113l107 -396h-109l-72 278h-6z" />
    <glyph glyph-name="underscore" unicode="_" horiz-adv-x="658" 
d="M575 -135h-542l19 106h543z" />
    <glyph glyph-name="grave" unicode="`" horiz-adv-x="273" 
d="M249 605l-67 146h133l25 -146h-91z" />
    <glyph glyph-name="a" unicode="a" horiz-adv-x="676" 
d="M84 199q0 142 88.5 241t212.5 99q60 0 96 -25.5t51 -55.5h7l12 68h129l-68 -368q-1 -4 -1 -12q0 -13 6 -22q9 -12 28 -12h22l-21 -112h-65q-41 0 -64.5 19t-24.5 52v6h-7q-75 -90 -193 -90q-98 0 -153 58t-55 154zM219 225q0 -56 31 -88.5t86 -32.5q74 0 123 57
q50 58 50 139q0 56 -31.5 88.5t-85.5 32.5q-71 0 -122 -58q-51 -59 -51 -138z" />
    <glyph glyph-name="b" unicode="b" horiz-adv-x="657" 
d="M202 0h-128l139 750h130l-55 -292h8q13 15 35 33q61 48 140 48q92 0 145.5 -57.5t53.5 -154.5q3 -139 -87 -240.5t-217 -99.5q-101 0 -145 80h-7zM246 227q0 -55 31 -89t84 -34q73 0 124 57t51 138q0 55 -31 88.5t-85 33.5q-70 0 -123 -57q-51 -57 -51 -137z" />
    <glyph glyph-name="c" unicode="c" horiz-adv-x="625" 
d="M84 209q-3 136 94.5 234t236.5 96q103 0 164 -58q58 -54 58 -139v-10h-132q-5 40 -35 64.5t-75 24.5q-73 0 -125 -58q-51 -57 -51 -136q0 -55 32 -88.5t86 -33.5q47 0 85.5 23.5t54.5 61.5h133q-26 -93 -105 -148t-190 -55q-105 0 -169 62q-62 64 -62 160z" />
    <glyph glyph-name="d" unicode="d" horiz-adv-x="679" 
d="M84 199q-3 137 88.5 240t212.5 100q60 0 96 -25.5t51 -55.5h7l54 292h130l-110 -591q-1 -4 -1 -12q0 -13 6 -22q9 -12 28 -12h22l-21 -113h-66q-42 0 -65.5 18.5t-24.5 51.5v5h-7q-76 -88 -192 -88q-98 0 -153 58t-55 154zM219 225q0 -56 31 -88.5t86 -32.5q74 0 123 57
q50 58 50 139q0 56 -31.5 88.5t-85.5 32.5q-71 0 -122 -58q-51 -59 -51 -138z" />
    <glyph glyph-name="e" unicode="e" horiz-adv-x="611" 
d="M84 208q-3 139 88 235.5t231 95.5q82 0 137 -37q53 -37 73 -99q10 -34 12 -74q0 -34 -7 -63l-7 -41h-400q-1 -7 -1 -18q0 -48 26 -80q32 -38 92 -38q47 0 86 20.5t57 54.5h123q-29 -81 -106 -129q-78 -48 -183 -48q-101 0 -161 62q-60 61 -60 159zM229 317h273v9
q0 49 -28 77q-32 32 -87 32q-56 0 -100 -34q-45 -34 -58 -84z" />
    <glyph glyph-name="f" unicode="f" horiz-adv-x="428" 
d="M207 -230h-130l120 652h-91l19 104h93l8 42q17 84 77.5 133t149.5 49h68l-20 -108h-54q-38 0 -63.5 -21t-32.5 -57l-7 -38h139l-19 -104h-137z" />
    <glyph glyph-name="g" unicode="g" horiz-adv-x="646" 
d="M61 -59h119q1 -36 29.5 -56.5t79.5 -20.5q141 0 166 140l12 68h-7q-14 -17 -33 -32.5t-58.5 -31.5t-81.5 -16q-93 0 -148 56t-55 151q-3 136 88 239.5t212 100.5q60 0 95.5 -25.5t51.5 -55.5h7l12 68h130l-97 -522q-22 -116 -102 -181.5t-212 -65.5q-81 0 -132 31t-68 83
q-9 25 -9 53q0 11 1 17zM218 227q0 -55 31 -86.5t85 -31.5q72 0 123 56q51 57 51 137q0 55 -32 87t-85 32q-71 0 -122 -58q-51 -57 -51 -136z" />
    <glyph glyph-name="h" unicode="h" horiz-adv-x="606" 
d="M204 0h-130l139 750h129l-54 -288h8q24 34 67.5 55.5t93.5 21.5q88 0 128 -55q30 -39 30 -94q0 -25 -4 -46l-64 -344h-130l59 312q3 14 3 24q0 32 -19 54q-24 30 -68 30q-46 0 -83.5 -32.5t-47.5 -81.5z" />
    <glyph glyph-name="i" unicode="i" horiz-adv-x="309" 
d="M102 141l71 385h130l-68 -369q-2 -9 -1 -13q-1 -12 5 -20q9 -12 29 -12h22l-21 -112h-55q-68 0 -96 37q-20 27 -19 67q0 18 3 37zM186 655q0 38 28 65t68 27q31 0 49.5 -16.5t18.5 -43.5q0 -38 -28 -64.5t-68 -26.5q-30 0 -49 16t-19 43z" />
    <glyph glyph-name="j" unicode="j" horiz-adv-x="319" 
d="M17 -230h-57l21 116h38q80 0 94 80l105 560h130l-104 -561q-17 -92 -78 -143.5t-149 -51.5zM229 655q0 38 28 65t67 27q31 0 49.5 -16t18.5 -44q0 -38 -28 -64.5t-68 -26.5q-30 0 -48.5 16t-18.5 43z" />
    <glyph glyph-name="k" unicode="k" horiz-adv-x="573" 
d="M204 0h-130l139 750h130l-79 -426h6l209 202h163l-215 -201l63 -167q18 -45 58 -45h31l-21 -113h-55q-45 0 -71.5 19.5t-42.5 62.5l-58 152l-101 -92z" />
    <glyph glyph-name="l" unicode="l" horiz-adv-x="305" 
d="M101 148l111 602h130l-109 -590q-1 -4 -1 -12q0 -13 6 -22q9 -12 28 -12h21l-20 -114h-49q-68 0 -100 39q-21 27 -21 69q0 21 4 40z" />
    <glyph glyph-name="m" unicode="m" horiz-adv-x="920" 
d="M204 0h-130l97 526h124l-12 -64h8q25 34 66.5 55.5t90.5 21.5q108 0 141 -80h7q68 80 172 80q86 0 128 -53q32 -40 32 -94q0 -23 -4 -43l-64 -349h-130l57 306q4 16 4 34q-2 32 -14 50q-19 30 -64 30t-79.5 -32t-44.5 -85l-56 -303h-130l58 314q3 15 3 27q0 29 -15 50
q-23 29 -66 29q-44 0 -79 -32.5t-44 -82.5z" />
    <glyph glyph-name="n" unicode="n" 
d="M204 0h-130l97 526h124l-12 -64h8q24 34 67.5 55.5t94.5 21.5q86 0 128 -55q30 -39 30 -94q0 -25 -4 -46l-64 -344h-130l59 312q3 13 3 25q0 30 -17 53q-24 30 -68 30q-47 0 -84 -33.5t-46 -83.5z" />
    <glyph glyph-name="o" unicode="o" horiz-adv-x="642" 
d="M84 208q0 136 96.5 233.5t237.5 97.5q108 0 172 -63q65 -62 65 -159q0 -136 -96.5 -233t-237.5 -97q-108 0 -173 62q-64 61 -64 159zM218 229q0 -58 33 -91t89 -33q75 0 127 55q53 56 53 136q0 56 -33 90.5t-88 34.5q-75 0 -128 -56t-53 -136z" />
    <glyph glyph-name="p" unicode="p" horiz-adv-x="658" 
d="M161 -230h-130l140 756h128l-12 -67h7q19 22 56 47q48 33 116 33q94 0 150 -57q55 -56 55 -151q3 -138 -87.5 -242.5t-213.5 -101.5q-61 0 -97.5 26t-48.5 55h-8zM246 226q0 -57 31.5 -89t85.5 -32q73 0 122 57q51 57 51 139q0 55 -31.5 87.5t-85.5 32.5q-70 0 -122 -58
q-51 -57 -51 -137z" />
    <glyph glyph-name="q" unicode="q" horiz-adv-x="647" 
d="M84 198q-3 139 88 241t218 100q43 0 76.5 -16.5t46.5 -32t20 -31.5h7l13 67h128l-140 -756h-130l54 298h-7q-25 -30 -70 -55.5t-105 -25.5q-92 0 -145.5 57.5t-53.5 153.5zM219 227q0 -57 30.5 -89.5t84.5 -32.5q72 0 123 56q51 57 51 138q0 55 -30.5 88.5t-84.5 33.5
q-72 0 -123 -57q-51 -56 -51 -137z" />
    <glyph glyph-name="r" unicode="r" horiz-adv-x="429" 
d="M204 0h-130l97 526h124l-16 -86h7q23 38 64.5 63t90.5 25h48l-23 -124h-54q-61 0 -105 -42t-57 -113z" />
    <glyph glyph-name="s" unicode="s" horiz-adv-x="530" 
d="M73 158h119v-5q0 -31 21 -48q22 -18 67 -18q49 0 78 20t29 55q0 24 -27 36.5t-66 18.5t-78 15.5t-66 37.5t-27 76q0 85 65 139t173 54q89 0 138 -43q42 -38 42 -98q0 -6 -2 -22h-115v4q0 28 -19 44q-20 17 -61 17q-42 0 -70.5 -19t-28.5 -47q0 -23 28 -34t68 -16.5
t80 -15t68 -39t28 -78.5q0 -95 -67 -150t-188 -55q-105 0 -152 46q-39 37 -39 97q0 10 2 28z" />
    <glyph glyph-name="t" unicode="t" horiz-adv-x="442" 
d="M206 422h-90l19 103h52q44 0 52 43l20 103h123l-27 -145h145l-19 -104h-145l-46 -242l-2 -18q0 -21 11 -35q13 -19 51 -19h69l-20 -108h-98q-81 0 -119 45q-27 31 -27 82q0 20 5 48z" />
    <glyph glyph-name="u" unicode="u" 
d="M102 182l64 344h130l-58 -314q-3 -15 -3 -28q0 -32 16 -51q22 -28 68 -28q47 0 84 33.5t46 83.5l57 304h130l-98 -526h-124l11 64h-7q-24 -35 -66 -56t-95 -21q-87 0 -129 55q-30 41 -30 95q0 24 4 45z" />
    <glyph glyph-name="v" unicode="v" horiz-adv-x="573" 
d="M213 0l-95 526h132l58 -371h7l193 371h142l-290 -526h-147z" />
    <glyph glyph-name="w" unicode="w" horiz-adv-x="871" 
d="M172 0l-49 526h135l20 -370h7l181 370h132l44 -370h7l157 370h137l-245 -526h-148l-45 355h-6l-179 -355h-148z" />
    <glyph glyph-name="x" unicode="x" horiz-adv-x="561" 
d="M168 0h-152l233 273l-120 253h138l72 -166h6l133 166h149l-215 -255l131 -271h-139l-82 178h-8z" />
    <glyph glyph-name="y" unicode="y" 
d="M43 -59h116v-7q0 -31 22 -50q26 -20 76 -20q131 0 158 140l11 65h-7q-24 -34 -67.5 -55.5t-94.5 -21.5q-88 0 -128 55q-30 39 -30 94q0 25 4 45l63 340h130l-58 -309q-3 -13 -3 -26q0 -31 16 -51q23 -30 68 -30q47 0 84 33t46 83l57 300h130l-97 -522q-46 -247 -299 -247
q-80 0 -129 31t-63 83q-6 21 -6 45q0 16 1 25z" />
    <glyph glyph-name="z" unicode="z" horiz-adv-x="523" 
d="M472 0h-421l21 114l304 296l1 7h-240l20 109h408l-20 -109l-305 -299l-1 -7h254z" />
    <glyph glyph-name="braceleft" unicode="{" horiz-adv-x="499" 
d="M156 256h-32l19 104h32q44 0 52 45l37 200q30 158 203 158h68l-20 -106h-51q-66 0 -77 -67l-38 -200q-13 -70 -64 -78l-1 -8q47 -11 35 -78l-37 -200q-6 -35 6.5 -51t46.5 -16h51l-20 -106h-68q-81 0 -120 40.5t-24 117.5l37 201q4 20 -5.5 32t-29.5 12z" />
    <glyph glyph-name="bar" unicode="|" horiz-adv-x="327" 
d="M188 -206h-125l183 989h125z" />
    <glyph glyph-name="braceright" unicode="}" horiz-adv-x="499" 
d="M147 -147h-69l20 106h51q67 0 78 67l37 200q13 70 64 78l2 8q-48 10 -36 78l37 200q6 34 -6 50.5t-47 16.5h-51l20 106h68q82 0 120.5 -40.5t23.5 -117.5l-37 -200q-4 -21 5.5 -33t29.5 -12h33l-20 -104h-32q-43 0 -51 -44l-38 -201q-30 -158 -202 -158z" />
    <glyph glyph-name="asciitilde" unicode="~" horiz-adv-x="526" 
d="M164 223h-90q12 74 55 117.5t108 43.5q38 0 93 -29t79 -29q26 0 44 16t23 41h89q-10 -72 -54 -116.5t-108 -44.5q-39 0 -91 30.5t-80 30.5q-26 0 -44.5 -16.5t-23.5 -43.5z" />
    <glyph glyph-name="uni00A0" unicode="&#xa0;" horiz-adv-x="265" 
 />
    <glyph glyph-name="exclamdown" unicode="&#xa1;" horiz-adv-x="305" 
d="M192 -153h-134l49 267l72 235h77l-15 -235zM166 472q0 35 27 61.5t63 26.5q28 0 46 -16.5t18 -42.5q0 -36 -27.5 -62.5t-64.5 -26.5q-27 0 -44.5 17t-17.5 43z" />
    <glyph glyph-name="cent" unicode="&#xa2;" horiz-adv-x="625" 
d="M84 294q0 126 80 218q81 92 204 107l16 83h101l-16 -84q80 -14 125.5 -68.5t42.5 -133.5h-132q-5 40 -35 64.5t-75 24.5q-73 0 -125 -57q-51 -57 -51 -136q0 -55 32 -88.5t86 -33.5q46 0 85 23.5t55 60.5h133q-22 -81 -86 -133.5t-156 -64.5l-13 -76h-102l14 76
q-84 13 -134 72q-49 59 -49 146z" />
    <glyph glyph-name="sterling" unicode="&#xa3;" horiz-adv-x="641" 
d="M575 0h-514l22 125h63l31 164h-54l21 108h53l18 97q18 101 89 160q73 59 176 59q100 0 151 -61q52 -59 38 -145h-131q4 36 -17 58.5t-59 22.5q-45 0 -76 -27t-40 -75l-17 -89h168l-21 -108h-167l-31 -164h319z" />
    <glyph glyph-name="yen" unicode="&#xa5;" horiz-adv-x="656" 
d="M283 109h-158l17 93h158l12 63h-158l17 93h108l-134 342h143l108 -295h7l218 295h150l-259 -342h107l-17 -93h-157l-12 -63h158l-18 -93h-157l-20 -109h-134z" />
    <glyph glyph-name="section" unicode="&#xa7;" horiz-adv-x="535" 
d="M47 -25h123q-5 -31 12 -54t61 -23q42 0 68 23t26 59q0 39 -47 69l-113 72q-82 52 -82 131q0 53 30 95t81 63v7q-42 47 -42 106q0 91 68 150q67 60 175 60q88 0 141.5 -49.5t35.5 -138.5h-123q4 34 -13 55.5t-59 21.5q-41 0 -67.5 -23.5t-26.5 -58.5q0 -39 46 -69l113 -72
q82 -54 82 -130q0 -52 -29.5 -94.5t-80.5 -64.5l-1 -7q42 -47 42 -106q0 -93 -67 -151q-68 -59 -175 -59q-88 0 -141 49t-37 139zM219 274q0 -34 42 -60l73 -44q31 1 54.5 23.5t23.5 52.5q0 36 -42 60l-72 44q-33 0 -56 -22.5t-23 -53.5z" />
    <glyph glyph-name="dieresis" unicode="&#xa8;" horiz-adv-x="398" 
d="M161 663q0 31 25 56t56 25q26 0 41.5 -15t15.5 -39q0 -34 -24.5 -58t-57.5 -24q-25 0 -40.5 15.5t-15.5 39.5zM350 662q0 33 24 57.5t57 24.5q25 0 40.5 -16t15.5 -39q0 -32 -24.5 -56.5t-56.5 -24.5q-26 0 -41 15t-15 39z" />
    <glyph glyph-name="copyright" unicode="&#xa9;" horiz-adv-x="822" 
d="M101 280q0 84 34.5 163.5t94.5 139.5t142 95t168 35q139 0 225 -83q85 -82 85 -214q0 -85 -34 -165t-94 -138q-59 -59 -142 -93t-172 -34q-139 0 -223 81.5t-84 212.5zM188 290q0 -100 64 -163q65 -62 171 -62q139 0 240 101.5t101 241.5q0 99 -65 162t-173 63
q-136 0 -237 -102.5t-101 -240.5zM282 311q-2 92 68 162t164 68q69 0 111 -39t43 -102h-87q-4 28 -25.5 45t-54.5 17q-56 0 -94 -41t-38 -100q0 -39 24 -63t66 -24q70 0 106 61h86q-23 -65 -79.5 -102.5t-128.5 -37.5q-73 0 -117 43.5t-44 112.5z" />
    <glyph glyph-name="ordfeminine" unicode="&#xaa;" horiz-adv-x="526" 
d="M142 459q-2 102 66 179.5t158 74.5q42 0 70 -18t38 -43h7l9 51h99l-51 -277q-6 -34 25 -34h17l-16 -84h-49q-58 0 -67 54v4h-6q-55 -66 -146 -68q-71 0 -112.5 44t-41.5 117zM245 478q0 -41 23.5 -64.5t62.5 -23.5q53 0 90 42q38 44 38 102q0 41 -23.5 64t-62.5 23
q-53 0 -90 -43q-38 -43 -38 -100z" />
    <glyph glyph-name="guillemotleft" unicode="&#xab;" horiz-adv-x="548" 
d="M287 94l-174 166l12 64l236 166l-25 -125l-110 -77l-1 -6l81 -77zM501 94l-175 166l12 64l236 166l-25 -125l-109 -77l-2 -6l82 -77z" />
    <glyph glyph-name="uni00AD" unicode="&#xad;" horiz-adv-x="388" 
d="M377 248h-275l21 112h275z" />
    <glyph glyph-name="registered" unicode="&#xae;" horiz-adv-x="533" 
d="M140 489q-3 107 75.5 186t188.5 77q87 0 137 -47.5t50 -125.5q3 -108 -76 -187t-190 -77q-85 0 -135 47.5t-50 126.5zM202 498q0 -58 35.5 -92t97.5 -34q83 0 138 57q56 59 56 141q0 58 -35.5 91t-100.5 33q-81 0 -136 -57q-55 -56 -55 -139zM322 423h-58l42 221h95
q30 0 48.5 -17.5t18.5 -44.5q0 -23 -14 -46t-34 -31l26 -82h-59l-18 71h-34zM354 595l-10 -52h31q13 0 22 9.5t9 21.5q0 21 -21 21h-31z" />
    <glyph glyph-name="overscore" unicode="&#xaf;" horiz-adv-x="358" 
d="M429 625h-268l18 95h268z" />
    <glyph glyph-name="degree" unicode="&#xb0;" horiz-adv-x="408" 
d="M158 537q0 71 51 124q51 52 127 52q57 0 91 -32.5t34 -84.5q0 -73 -52 -125q-51 -51 -127 -51q-56 0 -90 32.5t-34 84.5zM243 552q0 -24 14 -38t40 -14q32 0 55 24t23 57q0 24 -14 38t-40 14q-32 0 -55 -24t-23 -57z" />
    <glyph glyph-name="uni00B2" unicode="&#xb2;" horiz-adv-x="376" 
d="M379 297h-271l14 71q7 42 29 69t69 52l79 42q44 24 44 61q0 16 -12 26t-32 10q-25 0 -41.5 -14t-19.5 -34h-80q9 57 49 92.5t105 35.5q54 0 87 -29t33 -73q0 -88 -95 -136l-88 -46q-20 -12 -27.5 -20.5t-10.5 -23.5l-2 -6h184z" />
    <glyph glyph-name="uni00B3" unicode="&#xb3;" horiz-adv-x="379" 
d="M128 418h80q-2 -22 10 -35.5t35 -13.5q28 0 47.5 18t19.5 43q0 18 -13 29.5t-36 11.5h-56l12 67l99 81v4h-148l15 77h255l-14 -74l-105 -84l-1 -5q36 -4 58.5 -30.5t22.5 -63.5q0 -67 -46 -110q-47 -44 -121 -44q-61 0 -93 38q-31 39 -21 91z" />
    <glyph glyph-name="acute" unicode="&#xb4;" horiz-adv-x="273" 
d="M248 605h-91l78 146h132z" />
    <glyph glyph-name="paragraph" unicode="&#xb6;" horiz-adv-x="592" 
d="M143 429q0 107 82 189t192 82h244l-138 -745h-93l120 648h-55l-120 -648h-92l53 287q-86 1 -139.5 54.5t-53.5 132.5z" />
    <glyph glyph-name="middot" unicode="&#xb7;" horiz-adv-x="274" 
d="M118 300q0 34 27 61q28 28 63 28q29 0 47 -17t18 -43q0 -36 -27.5 -62.5t-64.5 -26.5q-28 0 -45.5 16.5t-17.5 43.5z" />
    <glyph glyph-name="cedilla" unicode="&#xb8;" horiz-adv-x="263" 
d="M14 -128h66q0 -21 24 -21q14 0 24 10.5t10 24.5q0 23 -24 23q-18 0 -27 -14l-63 1l45 124h65l-31 -69h6q12 9 33 9q29 0 47 -18t18 -46q0 -42 -31.5 -71.5t-79.5 -29.5q-39 0 -63.5 22t-18.5 55z" />
    <glyph glyph-name="uni00B9" unicode="&#xb9;" horiz-adv-x="287" 
d="M257 574h-100l12 62q62 0 86.5 14t31.5 50h79l-74 -403h-86z" />
    <glyph glyph-name="ordmasculine" unicode="&#xba;" horiz-adv-x="527" 
d="M143 463q-2 99 75.5 175.5t177.5 74.5q80 0 128 -45.5t48 -119.5q2 -99 -75.5 -175t-177.5 -74q-80 0 -128 45.5t-48 118.5zM245 480q0 -40 25 -65t66 -25q54 0 93 42q40 41 40 98q0 40 -24.5 65t-65.5 25q-53 0 -94 -42q-40 -40 -40 -98z" />
    <glyph glyph-name="guillemotright" unicode="&#xbb;" horiz-adv-x="554" 
d="M318 260l-236 -166l25 125l110 77l1 6l-81 77l19 111l174 -166zM531 260l-235 -166l25 125l109 77l2 6l-82 77l19 111l174 -166z" />
    <glyph glyph-name="onequarter" unicode="&#xbc;" horiz-adv-x="863" 
d="M256 574h-99l11 62q64 0 88 14.5t30 49.5h80l-74 -403h-87zM266 -41h-106l536 782h106zM694 71h-182l13 71l156 261h90l-150 -251v-4h87l18 93h86l-17 -93h45l-15 -77h-45l-13 -71h-86z" />
    <glyph glyph-name="onehalf" unicode="&#xbd;" horiz-adv-x="880" 
d="M256 574h-99l11 62q64 0 88 14.5t30 49.5h80l-74 -403h-87zM266 -41h-106l536 782h106zM829 0h-271l14 71q7 41 29 68.5t69 52.5l79 42q45 24 45 60q0 16 -12 26.5t-33 10.5q-24 0 -41 -14t-20 -35h-80q9 57 49 93t105 36q54 0 87 -29t33 -73q0 -88 -94 -137l-89 -46
q-19 -10 -26.5 -18.5t-11.5 -24.5l-2 -7h185z" />
    <glyph glyph-name="threequarters" unicode="&#xbe;" horiz-adv-x="887" 
d="M128 418h80q-2 -22 10 -35.5t35 -13.5q28 0 47.5 17.5t19.5 43.5q0 18 -13 29.5t-36 11.5h-56l12 67l99 81v4h-148l15 77h255l-14 -74l-105 -84l-1 -5q36 -4 58.5 -30.5t22.5 -63.5q0 -67 -46 -110q-47 -44 -121 -44q-61 0 -93 38q-31 39 -21 91zM304 -41h-104l536 782
h105zM718 71h-181l13 71l155 261h90l-149 -251l-1 -4h87l18 93h86l-17 -93h45l-14 -77h-45l-14 -71h-86z" />
    <glyph glyph-name="questiondown" unicode="&#xbf;" horiz-adv-x="554" 
d="M61 -3q0 121 137 207l59 39q39 26 47 66l7 37h119l-10 -48q-9 -47 -31 -77t-66 -60l-64 -43q-66 -46 -66 -102q0 -31 20.5 -48.5t58.5 -17.5q45 0 75.5 26t36.5 67h119q-13 -89 -78.5 -149t-172.5 -60q-88 0 -140 46q-51 46 -51 117zM319 472q0 36 27 62t64 26
q27 0 45 -17t18 -43q0 -35 -28 -62q-28 -26 -63 -26q-29 0 -46 16.5t-17 43.5z" />
    <glyph glyph-name="Agrave" unicode="&#xc0;" horiz-adv-x="696" 
d="M159 0h-144l378 700h168l120 -700h-140l-22 138h-287zM446 552l-158 -295h214l-49 295h-7zM463 783l-67 146h133l25 -146h-91z" />
    <glyph glyph-name="Aacute" unicode="&#xc1;" horiz-adv-x="696" 
d="M159 0h-144l378 700h168l120 -700h-140l-22 138h-287zM446 552l-158 -295h214l-49 295h-7zM531 783h-91l78 146h132z" />
    <glyph glyph-name="Acircumflex" unicode="&#xc2;" horiz-adv-x="696" 
d="M159 0h-144l378 700h168l120 -700h-140l-22 138h-287zM446 552l-158 -295h214l-49 295h-7zM436 783h-99l128 144h115l75 -144h-89l-52 56h-7z" />
    <glyph glyph-name="Atilde" unicode="&#xc3;" horiz-adv-x="696" 
d="M159 0h-144l378 700h168l120 -700h-140l-22 138h-287zM446 552l-158 -295h214l-49 295h-7zM402 782h-83q9 67 43 102t85 35q35 0 69 -23t49 -23q16 0 29 13t16 33h81q-9 -65 -43 -101.5t-83 -36.5q-34 0 -67.5 23t-51.5 23q-16 0 -28.5 -12t-15.5 -33z" />
    <glyph glyph-name="Adieresis" unicode="&#xc4;" horiz-adv-x="696" 
d="M159 0h-144l378 700h168l120 -700h-140l-22 138h-287zM446 552l-158 -295h214l-49 295h-7zM344 841q0 32 25 56q25 25 56 25q26 0 41.5 -15t15.5 -39q0 -34 -24 -58t-58 -24q-25 0 -40.5 15.5t-15.5 39.5zM533 840q0 33 24 57.5t57 24.5q24 0 40 -15.5t16 -39.5
q0 -32 -24.5 -56.5t-56.5 -24.5q-27 0 -41.5 15t-14.5 39z" />
    <glyph glyph-name="Aring" unicode="&#xc5;" horiz-adv-x="696" 
d="M159 0h-144l378 700h168l120 -700h-140l-22 138h-287zM446 552l-158 -295h214l-49 295h-7zM406 830q0 47 34 81t85 34q39 0 63 -21.5t24 -54.5q0 -50 -34 -83.5t-88 -33.5q-37 0 -60.5 22t-23.5 56zM471 840q0 -29 31 -29q18 0 31 13.5t13 32.5q0 13 -8.5 21t-23.5 8
q-17 0 -30 -13.5t-13 -32.5z" />
    <glyph glyph-name="AE" unicode="&#xc6;" horiz-adv-x="919" 
d="M153 0h-138l481 700h500l-22 -115h-296l-32 -174h247l-21 -114h-248l-33 -182h307l-22 -115h-439l25 138h-214zM533 563l-208 -306h159l57 306h-8z" />
    <glyph glyph-name="Ccedilla" unicode="&#xc7;" horiz-adv-x="798" 
d="M101 277q0 86 33 166t91 140q59 61 141.5 95.5t174.5 34.5q133 0 210 -73q78 -72 83 -188h-144q-7 61 -54 97.5t-119 36.5q-112 0 -194 -85.5t-82 -200.5q0 -84 51.5 -135t137.5 -51q74 0 134.5 35.5t90.5 96.5h146q-42 -117 -143.5 -188t-248.5 -71l-16 -36h6q12 9 33 9
q29 0 47 -18t18 -46q0 -43 -33 -72t-81 -29q-39 0 -62 22t-17 55h66q0 -9 7 -15t17 -6q14 0 24.5 10.5t10.5 24.5q0 10 -7 16.5t-18 6.5q-18 0 -27 -14l-63 1l34 95q-114 16 -181 94q-66 78 -66 192z" />
    <glyph glyph-name="Egrave" unicode="&#xc8;" horiz-adv-x="561" 
d="M518 0h-439l130 700h429l-22 -115h-296l-32 -174h253l-21 -114h-253l-34 -182h307zM417 783l-67 146h133l25 -146h-91z" />
    <glyph glyph-name="Eacute" unicode="&#xc9;" horiz-adv-x="561" 
d="M518 0h-439l130 700h429l-22 -115h-296l-32 -174h253l-21 -114h-253l-34 -182h307zM485 783h-91l78 146h132z" />
    <glyph glyph-name="Ecircumflex" unicode="&#xca;" horiz-adv-x="561" 
d="M518 0h-439l130 700h429l-22 -115h-296l-32 -174h253l-21 -114h-253l-34 -182h307zM390 783h-99l128 144h115l75 -144h-89l-52 56h-7z" />
    <glyph glyph-name="Edieresis" unicode="&#xcb;" horiz-adv-x="561" 
d="M518 0h-439l130 700h429l-22 -115h-296l-32 -174h253l-21 -114h-253l-34 -182h307zM297 841q0 31 25 56t56 25q26 0 41.5 -15t15.5 -39q0 -34 -24 -58t-58 -24q-24 0 -40 15.5t-16 39.5zM486 840q0 33 24 57.5t57 24.5q24 0 40 -15.5t16 -39.5q0 -32 -24.5 -56.5
t-56.5 -24.5q-26 0 -41 15t-15 39z" />
    <glyph glyph-name="Igrave" unicode="&#xcc;" horiz-adv-x="291" 
d="M212 0h-133l130 700h133zM258 783l-67 146h133l25 -146h-91z" />
    <glyph glyph-name="Iacute" unicode="&#xcd;" horiz-adv-x="291" 
d="M212 0h-133l130 700h133zM326 783h-91l78 146h132z" />
    <glyph glyph-name="Icircumflex" unicode="&#xce;" horiz-adv-x="291" 
d="M212 0h-133l130 700h133zM231 783h-99l128 144h115l75 -144h-89l-52 56h-7z" />
    <glyph glyph-name="Idieresis" unicode="&#xcf;" horiz-adv-x="291" 
d="M212 0h-133l130 700h133zM139 841q0 31 24 56q25 25 57 25q26 0 41.5 -15t15.5 -39q0 -34 -24 -58t-58 -24q-25 0 -40.5 15.5t-15.5 39.5zM328 840q0 33 24 57.5t57 24.5q25 0 40.5 -15.5t15.5 -39.5q0 -32 -24.5 -56.5t-56.5 -24.5q-26 0 -41 15t-15 39z" />
    <glyph glyph-name="Eth" unicode="&#xd0;" horiz-adv-x="766" 
d="M197 300h-62l18 99h62l56 301h227q143 0 220 -73q78 -73 78 -196q0 -187 -121.5 -309t-306.5 -122h-227zM329 300l-34 -184h90q117 0 194 84t77 212q0 83 -49.5 127.5t-134.5 44.5h-90l-34 -185h129l-18 -99h-130z" />
    <glyph glyph-name="Ntilde" unicode="&#xd1;" horiz-adv-x="738" 
d="M209 0h-130l130 700h137l219 -479h6l89 479h129l-130 -700h-137l-218 479h-6zM431 782h-83q9 66 43.5 101.5t84.5 35.5q34 0 69 -23t49 -23q16 0 29 13t16 33h81q-9 -65 -43 -101.5t-83 -36.5q-32 0 -66.5 23t-52.5 23q-16 0 -28.5 -12t-15.5 -33z" />
    <glyph glyph-name="Ograve" unicode="&#xd2;" horiz-adv-x="824" 
d="M101 278q0 117 58 217t160.5 159t224.5 59q140 0 223 -82q85 -81 85 -210q0 -87 -33.5 -167t-93.5 -140q-59 -59 -142 -93t-174 -34q-139 0 -224 80q-84 81 -84 211zM241 301q0 -84 52.5 -135.5t139.5 -51.5q113 0 196 84.5t83 199.5q0 83 -52 135q-53 53 -139 53
q-113 0 -196.5 -85t-83.5 -200zM524 783l-67 146h133l25 -146h-91z" />
    <glyph glyph-name="Oacute" unicode="&#xd3;" horiz-adv-x="824" 
d="M101 278q0 117 58 217t160.5 159t224.5 59q140 0 223 -82q85 -81 85 -210q0 -87 -33.5 -167t-93.5 -140q-59 -59 -142 -93t-174 -34q-139 0 -224 80q-84 81 -84 211zM241 301q0 -84 52.5 -135.5t139.5 -51.5q113 0 196 84.5t83 199.5q0 83 -52 135q-53 53 -139 53
q-113 0 -196.5 -85t-83.5 -200zM592 783h-91l78 146h132z" />
    <glyph glyph-name="Ocircumflex" unicode="&#xd4;" horiz-adv-x="824" 
d="M101 278q0 117 58 217t160.5 159t224.5 59q140 0 223 -82q85 -81 85 -210q0 -87 -33.5 -167t-93.5 -140q-59 -59 -142 -93t-174 -34q-139 0 -224 80q-84 81 -84 211zM241 301q0 -84 52.5 -135.5t139.5 -51.5q113 0 196 84.5t83 199.5q0 83 -52 135q-53 53 -139 53
q-113 0 -196.5 -85t-83.5 -200zM497 783h-99l128 144h115l75 -144h-89l-52 56h-7z" />
    <glyph glyph-name="Otilde" unicode="&#xd5;" horiz-adv-x="824" 
d="M101 278q0 117 58 217t160.5 159t224.5 59q140 0 223 -82q85 -81 85 -210q0 -87 -33.5 -167t-93.5 -140q-59 -59 -142 -93t-174 -34q-139 0 -224 80q-84 81 -84 211zM241 301q0 -84 52.5 -135.5t139.5 -51.5q113 0 196 84.5t83 199.5q0 83 -52 135q-53 53 -139 53
q-113 0 -196.5 -85t-83.5 -200zM463 782h-83q9 67 43 102t85 35q35 0 69 -23t49 -23q16 0 29 13t16 33h81q-9 -65 -43 -101.5t-83 -36.5q-34 0 -67.5 23t-51.5 23q-16 0 -28.5 -12t-15.5 -33z" />
    <glyph glyph-name="Odieresis" unicode="&#xd6;" horiz-adv-x="824" 
d="M101 278q0 117 58 217t160.5 159t224.5 59q140 0 223 -82q85 -81 85 -210q0 -87 -33.5 -167t-93.5 -140q-59 -59 -142 -93t-174 -34q-139 0 -224 80q-84 81 -84 211zM241 301q0 -84 52.5 -135.5t139.5 -51.5q113 0 196 84.5t83 199.5q0 83 -52 135q-53 53 -139 53
q-113 0 -196.5 -85t-83.5 -200zM405 841q0 31 24 56q25 25 57 25q26 0 41.5 -15t15.5 -39q0 -34 -24 -58t-58 -24q-24 0 -40 15.5t-16 39.5zM594 840q0 33 24 57.5t57 24.5q24 0 40 -15.5t16 -39.5q0 -32 -24.5 -56.5t-56.5 -24.5q-26 0 -41 15t-15 39z" />
    <glyph glyph-name="multiply" unicode="&#xd7;" horiz-adv-x="475" 
d="M92 64l-63 78l193 171l-127 170l87 71l125 -166l187 166l63 -77l-189 -169l129 -173l-86 -71l-128 169z" />
    <glyph glyph-name="Oslash" unicode="&#xd8;" horiz-adv-x="819" 
d="M195 -50h-118l104 122q-80 78 -80 206q0 116 58.5 216t161 159.5t223.5 59.5q88 0 156 -34l51 60h119l-97 -113q79 -80 79 -205q0 -86 -34 -166t-94 -140q-61 -59 -143.5 -93.5t-171.5 -34.5q-87 0 -154 33zM241 301q0 -69 36 -117l329 385q-39 17 -85 17
q-113 0 -196.5 -85t-83.5 -200zM677 513l-328 -383q33 -16 84 -16q113 0 196 84.5t83 199.5q0 68 -35 115z" />
    <glyph glyph-name="Ugrave" unicode="&#xd9;" horiz-adv-x="696" 
d="M120 261l81 439h133l-81 -438q-13 -71 17 -110.5t100 -39.5q68 0 113 39.5t59 111.5l81 437h132l-81 -438q-24 -132 -106.5 -203.5t-216.5 -71.5q-126 0 -190 76q-63 77 -41 198zM457 783l-67 146h133l25 -146h-91z" />
    <glyph glyph-name="Uacute" unicode="&#xda;" horiz-adv-x="696" 
d="M120 261l81 439h133l-81 -438q-13 -71 17 -110.5t100 -39.5q68 0 113 39.5t59 111.5l81 437h132l-81 -438q-24 -132 -106.5 -203.5t-216.5 -71.5q-126 0 -190 76q-63 77 -41 198zM525 783h-91l78 146h132z" />
    <glyph glyph-name="Ucircumflex" unicode="&#xdb;" horiz-adv-x="696" 
d="M120 261l81 439h133l-81 -438q-13 -71 17 -110.5t100 -39.5q68 0 113 39.5t59 111.5l81 437h132l-81 -438q-24 -132 -106.5 -203.5t-216.5 -71.5q-126 0 -190 76q-63 77 -41 198zM430 783h-99l128 144h115l75 -144h-89l-52 56h-7z" />
    <glyph glyph-name="Udieresis" unicode="&#xdc;" horiz-adv-x="696" 
d="M120 261l81 439h133l-81 -438q-13 -71 17 -110.5t100 -39.5q68 0 113 39.5t59 111.5l81 437h132l-81 -438q-24 -132 -106.5 -203.5t-216.5 -71.5q-126 0 -190 76q-63 77 -41 198zM338 841q0 31 25 56t56 25q26 0 41.5 -15t15.5 -39q0 -34 -24 -58t-58 -24q-24 0 -40 15.5
t-16 39.5zM527 840q0 33 24 57.5t57 24.5q24 0 40 -15.5t16 -39.5q0 -32 -24.5 -56.5t-56.5 -24.5q-26 0 -41 15t-15 39z" />
    <glyph glyph-name="Yacute" unicode="&#xdd;" horiz-adv-x="656" 
d="M313 270l-168 430h142l108 -295h7l217 295h152l-325 -429l-50 -271h-134zM508 783h-91l78 146h132z" />
    <glyph glyph-name="Thorn" unicode="&#xde;" horiz-adv-x="598" 
d="M212 0h-133l130 700h133l-21 -114h117q88 0 144 -51q56 -50 56 -131q0 -118 -79 -196q-79 -77 -196 -77h-127zM299 472l-42 -227h108q56 0 95 41q40 40 40 98q0 40 -25 64t-68 24h-108z" />
    <glyph glyph-name="germandbls" unicode="&#xdf;" horiz-adv-x="624" 
d="M161 -230h-130l139 753q19 104 92 166q73 61 175 61q101 0 156 -52q56 -53 46 -131q-5 -52 -35.5 -92.5t-76.5 -62.5l-1 -6q48 -17 75 -56t27 -90q0 -118 -83 -196q-83 -77 -207 -77q-46 0 -82 13l23 119q39 -11 67 -11q61 0 102 38q42 39 42 96q0 41 -30.5 63.5
t-79.5 22.5h-37l22 118h8q52 0 87.5 33t35.5 82q0 33 -20.5 52t-58.5 19q-46 0 -76.5 -28.5t-39.5 -78.5z" />
    <glyph glyph-name="agrave" unicode="&#xe0;" horiz-adv-x="676" 
d="M84 199q0 142 88.5 241t212.5 99q60 0 96 -25.5t51 -55.5h7l12 68h129l-68 -368q-8 -46 33 -46h22l-21 -112h-65q-41 0 -64.5 19t-24.5 52v6h-7q-75 -90 -193 -90q-98 0 -153 58t-55 154zM219 225q0 -56 31 -88.5t86 -32.5q74 0 123 57q50 58 50 139q0 56 -31.5 88.5
t-85.5 32.5q-71 0 -122 -58q-51 -59 -51 -138zM407 605l-67 146h133l25 -146h-91z" />
    <glyph glyph-name="aacute" unicode="&#xe1;" horiz-adv-x="676" 
d="M84 199q0 142 88.5 241t212.5 99q60 0 96 -25.5t51 -55.5h7l12 68h129l-68 -368q-8 -46 33 -46h22l-21 -112h-65q-41 0 -64.5 19t-24.5 52v6h-7q-75 -90 -193 -90q-98 0 -153 58t-55 154zM219 225q0 -56 31 -88.5t86 -32.5q74 0 123 57q50 58 50 139q0 56 -31.5 88.5
t-85.5 32.5q-71 0 -122 -58q-51 -59 -51 -138zM475 605h-91l78 146h132z" />
    <glyph glyph-name="acircumflex" unicode="&#xe2;" horiz-adv-x="676" 
d="M84 199q0 142 88.5 241t212.5 99q60 0 96 -25.5t51 -55.5h7l12 68h129l-68 -368q-8 -46 33 -46h22l-21 -112h-65q-41 0 -64.5 19t-24.5 52v6h-7q-75 -90 -193 -90q-98 0 -153 58t-55 154zM219 225q0 -56 31 -88.5t86 -32.5q74 0 123 57q50 58 50 139q0 56 -31.5 88.5
t-85.5 32.5q-71 0 -122 -58q-51 -59 -51 -138zM380 605h-99l128 144h115l75 -144h-89l-52 56h-7z" />
    <glyph glyph-name="atilde" unicode="&#xe3;" horiz-adv-x="676" 
d="M84 199q0 142 88.5 241t212.5 99q60 0 96 -25.5t51 -55.5h7l12 68h129l-68 -368q-8 -46 33 -46h22l-21 -112h-65q-41 0 -64.5 19t-24.5 52v6h-7q-75 -90 -193 -90q-98 0 -153 58t-55 154zM219 225q0 -56 31 -88.5t86 -32.5q74 0 123 57q50 58 50 139q0 56 -31.5 88.5
t-85.5 32.5q-71 0 -122 -58q-51 -59 -51 -138zM345 604h-83q10 67 44 102t84 35q34 0 68.5 -23t49.5 -23t28.5 13t16.5 33h81q-9 -65 -43 -101.5t-83 -36.5q-34 0 -67.5 23t-51.5 23q-16 0 -28.5 -12t-15.5 -33z" />
    <glyph glyph-name="adieresis" unicode="&#xe4;" horiz-adv-x="676" 
d="M84 199q0 142 88.5 241t212.5 99q60 0 96 -25.5t51 -55.5h7l12 68h129l-68 -368q-8 -46 33 -46h22l-21 -112h-65q-41 0 -64.5 19t-24.5 52v6h-7q-75 -90 -193 -90q-98 0 -153 58t-55 154zM219 225q0 -56 31 -88.5t86 -32.5q74 0 123 57q50 58 50 139q0 56 -31.5 88.5
t-85.5 32.5q-71 0 -122 -58q-51 -59 -51 -138zM288 663q0 31 25 56t56 25q26 0 41.5 -15t15.5 -39q0 -34 -24 -58t-58 -24q-24 0 -40 15.5t-16 39.5zM477 662q0 33 24 57.5t57 24.5q24 0 40 -16t16 -39q0 -32 -24.5 -56.5t-56.5 -24.5q-26 0 -41 15t-15 39z" />
    <glyph glyph-name="aring" unicode="&#xe5;" horiz-adv-x="676" 
d="M84 199q0 142 88.5 241t212.5 99q60 0 96 -25.5t51 -55.5h7l12 68h129l-68 -368q-8 -46 33 -46h22l-21 -112h-65q-41 0 -64.5 19t-24.5 52v6h-7q-75 -90 -193 -90q-98 0 -153 58t-55 154zM219 225q0 -56 31 -88.5t86 -32.5q74 0 123 57q50 58 50 139q0 56 -31.5 88.5
t-85.5 32.5q-71 0 -122 -58q-51 -59 -51 -138zM350 652q0 47 34 81t85 34q39 0 63 -21.5t24 -54.5q0 -50 -34 -83.5t-88 -33.5q-38 0 -61 22t-23 56zM415 662q0 -29 31 -29q18 0 31 14t13 32q0 13 -8.5 21t-23.5 8q-18 0 -30.5 -13.5t-12.5 -32.5z" />
    <glyph glyph-name="ae" unicode="&#xe6;" horiz-adv-x="992" 
d="M84 134q0 80 63 130q65 50 165 50h170l4 22q5 45 -23.5 71.5t-85.5 26.5q-47 0 -78.5 -21t-40.5 -52h-116q13 75 82 127q69 51 165 51q137 0 179 -87h7q76 87 213 87q121 0 178 -79t32 -194l-7 -39h-401q-9 -62 23.5 -100t95.5 -38q47 0 85 20.5t59 54.5h121
q-34 -82 -109 -129.5t-175 -47.5q-66 0 -117.5 27t-72.5 74h-7q-79 -100 -224 -101q-80 -1 -134 40q-51 42 -51 107zM203 146q0 -27 24.5 -43t66.5 -16q66 0 113 36q46 36 51 86l3 16h-160q-43 0 -70.5 -22t-27.5 -57zM608 314h278q6 56 -27 89.5t-91 33.5q-54 0 -101 -35
q-46 -35 -59 -88z" />
    <glyph glyph-name="ccedilla" unicode="&#xe7;" horiz-adv-x="625" 
d="M84 209q-3 136 94.5 234t236.5 96q103 0 164 -58q62 -58 58 -149h-132q-5 40 -35 64.5t-75 24.5q-73 0 -125 -58q-51 -57 -51 -136q0 -55 32 -88.5t86 -33.5q47 0 85.5 23.5t54.5 61.5h133q-25 -90 -102 -146q-76 -56 -186 -57l-16 -36h6q12 9 33 9q30 0 47.5 -17.5
t17.5 -46.5q0 -42 -32 -71.5t-79 -29.5q-39 0 -63 22t-18 55h66q0 -9 6.5 -15t16.5 -6q14 0 24.5 10.5t10.5 24.5q0 23 -25 23q-19 0 -26 -14l-64 1l35 96q-83 15 -130.5 73.5t-47.5 143.5z" />
    <glyph glyph-name="egrave" unicode="&#xe8;" horiz-adv-x="611" 
d="M84 208q-3 139 88 235.5t231 95.5q121 1 180.5 -79t34.5 -194l-7 -41h-400q-6 -61 25.5 -98.5t91.5 -37.5q47 0 86 20.5t57 54.5h123q-29 -81 -106 -129q-78 -48 -183 -48q-101 0 -161 62q-60 61 -60 159zM229 317h273q3 54 -28 86t-87 32t-100 -34q-45 -34 -58 -84z
M385 605l-67 146h133l25 -146h-91z" />
    <glyph glyph-name="eacute" unicode="&#xe9;" horiz-adv-x="611" 
d="M84 208q-3 139 88 235.5t231 95.5q121 1 180.5 -79t34.5 -194l-7 -41h-400q-6 -61 25.5 -98.5t91.5 -37.5q47 0 86 20.5t57 54.5h123q-29 -81 -106 -129q-78 -48 -183 -48q-101 0 -161 62q-60 61 -60 159zM229 317h273q3 54 -28 86t-87 32t-100 -34q-45 -34 -58 -84z
M453 605h-91l78 146h132z" />
    <glyph glyph-name="ecircumflex" unicode="&#xea;" horiz-adv-x="611" 
d="M84 208q-3 139 88 235.5t231 95.5q121 1 180.5 -79t34.5 -194l-7 -41h-400q-6 -61 25.5 -98.5t91.5 -37.5q47 0 86 20.5t57 54.5h123q-29 -81 -106 -129q-78 -48 -183 -48q-101 0 -161 62q-60 61 -60 159zM229 317h273q3 54 -28 86t-87 32t-100 -34q-45 -34 -58 -84z
M358 605h-99l128 144h115l75 -144h-89l-52 56h-7z" />
    <glyph glyph-name="edieresis" unicode="&#xeb;" horiz-adv-x="611" 
d="M84 208q-3 139 88 235.5t231 95.5q121 1 180.5 -79t34.5 -194l-7 -41h-400q-6 -61 25.5 -98.5t91.5 -37.5q47 0 86 20.5t57 54.5h123q-29 -81 -106 -129q-78 -48 -183 -48q-101 0 -161 62q-60 61 -60 159zM229 317h273q3 54 -28 86t-87 32t-100 -34q-45 -34 -58 -84z
M266 663q0 31 24 56q25 25 57 25q26 0 41.5 -15t15.5 -39q0 -34 -24.5 -58t-57.5 -24q-25 0 -40.5 15.5t-15.5 39.5zM455 662q0 33 24 57.5t57 24.5q24 0 40 -16t16 -39q0 -32 -24.5 -56.5t-56.5 -24.5q-26 0 -41 15t-15 39z" />
    <glyph glyph-name="igrave" unicode="&#xec;" horiz-adv-x="309" 
d="M102 141l71 385h130l-68 -369q-5 -21 4.5 -33t28.5 -12h22l-21 -112h-55q-66 0 -95 37t-17 104zM222 605l-67 146h133l25 -146h-91z" />
    <glyph glyph-name="iacute" unicode="&#xed;" horiz-adv-x="309" 
d="M102 141l71 385h130l-68 -369q-5 -21 4.5 -33t28.5 -12h22l-21 -112h-55q-66 0 -95 37t-17 104zM290 605h-91l78 146h132z" />
    <glyph glyph-name="icircumflex" unicode="&#xee;" horiz-adv-x="309" 
d="M195 605h-99l128 144h115l75 -144h-89l-52 56h-7zM102 141l71 385h130l-68 -369q-5 -21 4.5 -33t28.5 -12h22l-21 -112h-55q-66 0 -95 37t-17 104z" />
    <glyph glyph-name="idieresis" unicode="&#xef;" horiz-adv-x="309" 
d="M102 141l71 385h130l-68 -369q-5 -21 4.5 -33t28.5 -12h22l-21 -112h-55q-66 0 -95 37t-17 104zM103 663q0 31 24 56q25 25 57 25q26 0 41.5 -15t15.5 -39q0 -34 -24 -58t-58 -24q-24 0 -40 15.5t-16 39.5zM292 662q0 33 24 57.5t57 24.5q24 0 40 -16t16 -39
q0 -32 -24.5 -56.5t-56.5 -24.5q-26 0 -41 15t-15 39z" />
    <glyph glyph-name="eth" unicode="&#xf0;" horiz-adv-x="620" 
d="M83 194q-3 121 86.5 215t209.5 91q64 0 102 -32h6q-24 59 -82 113l-172 -61l14 75l104 38q-48 37 -93 63l83 46q62 -27 121 -71l154 54l-15 -76l-84 -30q117 -117 117 -275q0 -155 -92.5 -256t-236.5 -101q-102 0 -162 57q-60 58 -60 150zM217 218q0 -51 30 -82.5
t81 -31.5q68 0 118 54.5t50 123.5q0 50 -31 80t-81 30q-69 -1 -119 -51q-48 -49 -48 -123z" />
    <glyph glyph-name="ntilde" unicode="&#xf1;" 
d="M204 0h-130l97 526h124l-12 -64h8q24 34 67.5 55.5t94.5 21.5q88 0 128 -55q42 -55 26 -140l-64 -344h-130l59 312q9 48 -14 78t-68 30q-47 0 -84 -33.5t-46 -83.5zM339 604h-83q10 67 43.5 102t84.5 35q35 0 69 -23t49 -23q16 0 29 13t16 33h81q-9 -65 -43 -101.5
t-83 -36.5q-34 0 -67.5 23t-51.5 23q-16 0 -28.5 -12t-15.5 -33z" />
    <glyph glyph-name="ograve" unicode="&#xf2;" horiz-adv-x="642" 
d="M84 208q0 136 96.5 233.5t237.5 97.5q108 0 172 -63q65 -62 65 -159q0 -136 -96.5 -233t-237.5 -97q-108 0 -173 62q-64 61 -64 159zM218 229q0 -58 33 -91t89 -33q75 0 127 55q53 56 53 136q0 56 -33 90.5t-88 34.5q-75 0 -128 -56t-53 -136zM401 605l-67 146h133
l25 -146h-91z" />
    <glyph glyph-name="oacute" unicode="&#xf3;" horiz-adv-x="642" 
d="M84 208q0 136 96.5 233.5t237.5 97.5q108 0 172 -63q65 -62 65 -159q0 -136 -96.5 -233t-237.5 -97q-108 0 -173 62q-64 61 -64 159zM218 229q0 -58 33 -91t89 -33q75 0 127 55q53 56 53 136q0 56 -33 90.5t-88 34.5q-75 0 -128 -56t-53 -136zM469 605h-91l78 146h132z
" />
    <glyph glyph-name="ocircumflex" unicode="&#xf4;" horiz-adv-x="642" 
d="M84 208q0 136 96.5 233.5t237.5 97.5q108 0 172 -63q65 -62 65 -159q0 -136 -96.5 -233t-237.5 -97q-108 0 -173 62q-64 61 -64 159zM218 229q0 -58 33 -91t89 -33q75 0 127 55q53 56 53 136q0 56 -33 90.5t-88 34.5q-75 0 -128 -56t-53 -136zM374 605h-99l128 144h115
l75 -144h-89l-52 56h-7z" />
    <glyph glyph-name="otilde" unicode="&#xf5;" horiz-adv-x="642" 
d="M84 208q0 136 96.5 233.5t237.5 97.5q108 0 172 -63q65 -62 65 -159q0 -136 -96.5 -233t-237.5 -97q-108 0 -173 62q-64 61 -64 159zM218 229q0 -58 33 -91t89 -33q75 0 127 55q53 56 53 136q0 56 -33 90.5t-88 34.5q-75 0 -128 -56t-53 -136zM340 604h-83
q10 67 43.5 102t84.5 35q35 0 69 -23t49 -23q16 0 29 13t16 33h81q-9 -65 -43 -101.5t-83 -36.5q-34 0 -67.5 23t-51.5 23q-16 0 -28.5 -12t-15.5 -33z" />
    <glyph glyph-name="odieresis" unicode="&#xf6;" horiz-adv-x="642" 
d="M84 208q0 136 96.5 233.5t237.5 97.5q108 0 172 -63q65 -62 65 -159q0 -136 -96.5 -233t-237.5 -97q-108 0 -173 62q-64 61 -64 159zM218 229q0 -58 33 -91t89 -33q75 0 127 55q53 56 53 136q0 56 -33 90.5t-88 34.5q-75 0 -128 -56t-53 -136zM282 663q0 32 25 56
q25 25 56 25q26 0 41.5 -15t15.5 -39q0 -34 -24 -58t-58 -24q-25 0 -40.5 15.5t-15.5 39.5zM471 662q0 33 24 57.5t57 24.5q24 0 40 -16t16 -39q0 -32 -24.5 -56.5t-56.5 -24.5q-27 0 -41.5 15t-14.5 39z" />
    <glyph glyph-name="divide" unicode="&#xf7;" horiz-adv-x="494" 
d="M537 260h-484l19 103h484zM208 123q0 29 23 51.5t52 22.5q23 0 37.5 -14.5t14.5 -35.5q0 -29 -22 -51.5t-52 -22.5q-23 0 -38 14.5t-15 35.5zM275 480q0 29 23 51.5t52 22.5q22 0 36.5 -14.5t14.5 -36.5q0 -29 -22.5 -51.5t-51.5 -22.5q-23 0 -37.5 14.5t-14.5 36.5z" />
    <glyph glyph-name="oslash" unicode="&#xf8;" horiz-adv-x="642" 
d="M170 -54h-94l78 98q-70 61 -70 164q0 136 96.5 233.5t237.5 97.5q63 0 111 -22l42 53h94l-74 -94q64 -61 64 -159q0 -136 -96.5 -233t-237.5 -97q-57 0 -104 19zM218 229q0 -46 22 -77l206 261q-24 8 -47 8q-75 0 -128 -56t-53 -136zM503 365l-203 -255q22 -5 40 -5
q75 0 127 55q53 56 53 136q0 40 -17 69z" />
    <glyph glyph-name="ugrave" unicode="&#xf9;" 
d="M102 182l64 344h130l-58 -314q-10 -50 12.5 -78.5t68.5 -28.5q47 0 84 33.5t46 83.5l57 304h130l-98 -526h-124l11 64h-7q-24 -35 -66 -56t-95 -21q-87 0 -129 55q-42 56 -26 140zM384 605l-67 146h133l25 -146h-91z" />
    <glyph glyph-name="uacute" unicode="&#xfa;" 
d="M102 182l64 344h130l-58 -314q-10 -50 12.5 -78.5t68.5 -28.5q47 0 84 33.5t46 83.5l57 304h130l-98 -526h-124l11 64h-7q-24 -35 -66 -56t-95 -21q-87 0 -129 55q-42 56 -26 140zM451 605h-91l78 146h132z" />
    <glyph glyph-name="ucircumflex" unicode="&#xfb;" 
d="M102 182l64 344h130l-58 -314q-10 -50 12.5 -78.5t68.5 -28.5q47 0 84 33.5t46 83.5l57 304h130l-98 -526h-124l11 64h-7q-24 -35 -66 -56t-95 -21q-87 0 -129 55q-42 56 -26 140zM357 605h-99l128 144h115l75 -144h-89l-52 56h-7z" />
    <glyph glyph-name="udieresis" unicode="&#xfc;" 
d="M102 182l64 344h130l-58 -314q-10 -50 12.5 -78.5t68.5 -28.5q47 0 84 33.5t46 83.5l57 304h130l-98 -526h-124l11 64h-7q-24 -35 -66 -56t-95 -21q-87 0 -129 55q-42 56 -26 140zM264 663q0 31 24 56q25 25 57 25q26 0 41.5 -15t15.5 -39q0 -34 -24 -58t-58 -24
q-25 0 -40.5 15.5t-15.5 39.5zM453 662q0 33 24 57.5t57 24.5q24 0 40 -16t16 -39q0 -32 -24.5 -56.5t-56.5 -24.5q-27 0 -41.5 15t-14.5 39z" />
    <glyph glyph-name="yacute" unicode="&#xfd;" 
d="M43 -59h116q-3 -36 22.5 -56.5t75.5 -20.5q131 0 158 140l11 65h-7q-24 -34 -67.5 -55.5t-94.5 -21.5q-87 0 -129 55q-41 56 -25 139l63 340h130l-58 -309q-9 -48 13.5 -77.5t67.5 -29.5q47 0 84 33t46 83l57 300h130l-97 -522q-46 -247 -299 -247q-107 0 -157 52.5
t-40 131.5zM452 605h-91l78 146h132z" />
    <glyph glyph-name="thorn" unicode="&#xfe;" horiz-adv-x="658" 
d="M163 -224h-130l180 974h129l-53 -291h7q19 24 55 48q49 32 115 32q95 0 150 -56t55 -152q2 -90 -39.5 -170.5t-112.5 -128t-150 -45.5q-60 0 -96.5 26t-48.5 55h-7zM246 226q0 -57 31.5 -89t85.5 -32q71 0 122 57q51 58 51 139q0 55 -31.5 87.5t-85.5 32.5
q-70 0 -122 -58q-51 -57 -51 -137z" />
    <glyph glyph-name="ydieresis" unicode="&#xff;" 
d="M43 -59h116q-3 -36 22.5 -56.5t75.5 -20.5q131 0 158 140l11 65h-7q-24 -34 -67.5 -55.5t-94.5 -21.5q-87 0 -129 55q-41 56 -25 139l63 340h130l-58 -309q-9 -48 13.5 -77.5t67.5 -29.5q47 0 84 33t46 83l57 300h130l-97 -522q-46 -247 -299 -247q-107 0 -157 52.5
t-40 131.5zM265 663q0 31 24 56q25 25 57 25q26 0 41.5 -15t15.5 -39q0 -34 -24.5 -58t-57.5 -24q-25 0 -40.5 15.5t-15.5 39.5zM454 662q0 33 24 57.5t57 24.5q25 0 40.5 -16t15.5 -39q0 -32 -24.5 -56.5t-56.5 -24.5q-26 0 -41 15t-15 39z" />
    <glyph glyph-name="Amacron" unicode="&#x100;" horiz-adv-x="696" 
d="M159 0h-144l378 700h168l120 -700h-140l-22 138h-287zM446 552l-158 -295h214l-49 295h-7zM637 803h-268l18 95h268z" />
    <glyph glyph-name="amacron" unicode="&#x101;" horiz-adv-x="676" 
d="M84 199q0 142 88.5 241t212.5 99q60 0 96 -25.5t51 -55.5h7l12 68h129l-68 -368q-8 -46 33 -46h22l-21 -112h-65q-41 0 -64.5 19t-24.5 52v6h-7q-75 -90 -193 -90q-98 0 -153 58t-55 154zM219 225q0 -56 31 -88.5t86 -32.5q74 0 123 57q50 58 50 139q0 56 -31.5 88.5
t-85.5 32.5q-71 0 -122 -58q-51 -59 -51 -138zM581 625h-268l18 95h268z" />
    <glyph glyph-name="Abreve" unicode="&#x102;" horiz-adv-x="696" 
d="M159 0h-144l378 700h168l120 -700h-140l-22 138h-287zM446 552l-158 -295h214l-49 295h-7zM381 922h78q-5 -27 7 -43.5t39 -16.5t45.5 17t22.5 43h87q-7 -65 -51.5 -103t-112.5 -38q-67 0 -99 38t-16 103z" />
    <glyph glyph-name="abreve" unicode="&#x103;" horiz-adv-x="676" 
d="M84 199q0 142 88.5 241t212.5 99q60 0 96 -25.5t51 -55.5h7l12 68h129l-68 -368q-8 -46 33 -46h22l-21 -112h-65q-41 0 -64.5 19t-24.5 52v6h-7q-75 -90 -193 -90q-98 0 -153 58t-55 154zM219 225q0 -56 31 -88.5t86 -32.5q74 0 123 57q50 58 50 139q0 56 -31.5 88.5
t-85.5 32.5q-71 0 -122 -58q-51 -59 -51 -138zM324 744h78q-5 -27 7 -43.5t39 -16.5t45.5 16.5t22.5 43.5h87q-7 -64 -51.5 -102.5t-112.5 -38.5q-67 0 -98.5 38.5t-16.5 102.5z" />
    <glyph glyph-name="Aogonek" unicode="&#x104;" horiz-adv-x="696" 
d="M159 0h-144l378 700h168l120 -700l-50 -52l-5 -5l-5 -5t-4 -4.5t-4 -5l-3 -4.5t-2.5 -5t-1 -5t-0.5 -6q0 -22 29 -22h25l-14 -81h-70q-35 0 -58 18t-23 48q0 45 50 92l36 37h-40l-22 138h-287zM446 552l-158 -295h214l-49 295h-7z" />
    <glyph glyph-name="aogonek" unicode="&#x105;" horiz-adv-x="676" 
d="M84 199q0 142 88.5 241t212.5 99q60 0 96 -25.5t51 -55.5h7l12 68h129l-68 -368q-8 -46 33 -46h22l-21 -112l-51 -52l-15 -17q-9 -9 -9 -23q0 -22 28 -22h26l-15 -81h-70q-35 0 -57.5 18t-22.5 48q0 45 50 92l39 40q-55 12 -57 68v6h-7q-75 -90 -193 -90q-98 0 -153 58
t-55 154zM219 225q0 -56 31 -88.5t86 -32.5q74 0 123 57q50 58 50 139q0 56 -31.5 88.5t-85.5 32.5q-71 0 -122 -58q-51 -59 -51 -138z" />
    <glyph glyph-name="Cacute" unicode="&#x106;" horiz-adv-x="806" 
d="M101 277q0 86 33 166t91 140q59 61 141.5 95.5t174.5 34.5q133 0 210 -73q78 -72 83 -188h-144q-7 61 -54 97.5t-119 36.5q-112 0 -194 -85.5t-82 -200.5q0 -84 51.5 -135t137.5 -51q74 0 134.5 35.5t90.5 96.5h146q-42 -118 -144 -189q-101 -70 -251 -70q-139 0 -222 80
q-83 81 -83 210zM586 783h-91l78 146h132z" />
    <glyph glyph-name="cacute" unicode="&#x107;" horiz-adv-x="625" 
d="M84 209q-3 136 94.5 234t236.5 96q103 0 164 -58q62 -58 58 -149h-132q-5 40 -35 64.5t-75 24.5q-73 0 -125 -58q-51 -57 -51 -136q0 -55 32 -88.5t86 -33.5q47 0 85.5 23.5t54.5 61.5h133q-26 -93 -105 -148t-190 -55q-105 0 -169 62q-62 64 -62 160zM463 605h-91
l78 146h132z" />
    <glyph glyph-name="Cdotaccent" unicode="&#x10a;" horiz-adv-x="806" 
d="M101 277q0 86 33 166t91 140q59 61 141.5 95.5t174.5 34.5q133 0 210 -73q78 -72 83 -188h-144q-7 61 -54 97.5t-119 36.5q-112 0 -194 -85.5t-82 -200.5q0 -84 51.5 -135t137.5 -51q74 0 134.5 35.5t90.5 96.5h146q-42 -118 -144 -189q-101 -70 -251 -70q-139 0 -222 80
q-83 81 -83 210zM486 834q0 37 28 64t66 27q30 0 47.5 -16.5t17.5 -43.5q0 -37 -28 -64t-66 -27q-30 0 -47.5 16.5t-17.5 43.5z" />
    <glyph glyph-name="cdotaccent" unicode="&#x10b;" horiz-adv-x="625" 
d="M84 209q-3 136 94.5 234t236.5 96q103 0 164 -58q62 -58 58 -149h-132q-5 40 -35 64.5t-75 24.5q-73 0 -125 -58q-51 -57 -51 -136q0 -55 32 -88.5t86 -33.5q47 0 85.5 23.5t54.5 61.5h133q-26 -93 -105 -148t-190 -55q-105 0 -169 62q-62 64 -62 160zM362 656
q0 36 27.5 63.5t66.5 27.5q30 0 47.5 -16.5t17.5 -43.5q0 -38 -27.5 -64.5t-66.5 -26.5q-30 0 -47.5 16t-17.5 44z" />
    <glyph glyph-name="Ccaron" unicode="&#x10c;" horiz-adv-x="806" 
d="M101 277q0 86 33 166t91 140q59 61 141.5 95.5t174.5 34.5q133 0 210 -73q78 -72 83 -188h-144q-7 61 -54 97.5t-119 36.5q-112 0 -194 -85.5t-82 -200.5q0 -84 51.5 -135t137.5 -51q74 0 134.5 35.5t90.5 96.5h146q-42 -118 -144 -189q-101 -70 -251 -70q-139 0 -222 80
q-83 81 -83 210zM494 783l-74 144h88l51 -55h7l72 55h99l-128 -144h-115z" />
    <glyph glyph-name="ccaron" unicode="&#x10d;" horiz-adv-x="625" 
d="M84 209q-3 136 94.5 234t236.5 96q103 0 164 -58q62 -58 58 -149h-132q-5 40 -35 64.5t-75 24.5q-73 0 -125 -58q-51 -57 -51 -136q0 -55 32 -88.5t86 -33.5q47 0 85.5 23.5t54.5 61.5h133q-26 -93 -105 -148t-190 -55q-105 0 -169 62q-62 64 -62 160zM370 605l-74 144
h88l51 -55h7l72 55h99l-128 -144h-115z" />
    <glyph glyph-name="Dcaron" unicode="&#x10e;" horiz-adv-x="716" 
d="M326 0h-247l130 700h236q141 0 220 -75q80 -74 80 -198q0 -187 -115.5 -307t-303.5 -120zM320 584l-87 -468h98q78 0 141 38t98 105q35 68 35 152q0 82 -51 127.5t-136 45.5h-98zM400 784l-74 144h88l51 -55h7l72 55h99l-128 -144h-115z" />
    <glyph glyph-name="dcaron" unicode="&#x10f;" horiz-adv-x="747" 
d="M84 199q-3 137 88.5 240t212.5 100q60 0 96 -25.5t51 -55.5h7l54 292h130l-110 -591q-8 -46 33 -46h22l-21 -113h-66q-42 0 -65.5 18.5t-24.5 51.5v5h-7q-76 -88 -192 -88q-98 0 -153 58t-55 154zM219 225q0 -56 31 -88.5t86 -32.5q74 0 123 57q50 58 50 139
q0 56 -31.5 88.5t-85.5 32.5q-71 0 -122 -58q-51 -59 -51 -138zM840 554h-93l37 196h117z" />
    <glyph glyph-name="Dcroat" unicode="&#x110;" horiz-adv-x="766" 
d="M197 300h-62l18 99h62l56 301h227q143 0 220 -73q78 -73 78 -196q0 -187 -121.5 -309t-306.5 -122h-227zM329 300l-34 -184h90q117 0 194 84t77 212q0 83 -49.5 127.5t-134.5 44.5h-90l-34 -185h129l-18 -99h-130z" />
    <glyph glyph-name="dslash" unicode="&#x111;" horiz-adv-x="679" 
d="M84 199q-3 137 88.5 240t212.5 100q60 0 96 -25.5t51 -55.5h7l23 125h-145l18 94h145l13 73h130l-14 -73h55l-18 -94h-54l-79 -424q-8 -46 33 -46h22l-21 -113h-66q-42 0 -65.5 18.5t-24.5 51.5v5h-7q-76 -88 -192 -88q-98 0 -153 58t-55 154zM219 225q0 -56 31 -88.5
t86 -32.5q74 0 123 57q50 58 50 139q0 56 -31.5 88.5t-85.5 32.5q-71 0 -122 -58q-51 -59 -51 -138z" />
    <glyph glyph-name="Emacron" unicode="&#x112;" horiz-adv-x="561" 
d="M518 0h-439l130 700h429l-22 -115h-296l-32 -174h253l-21 -114h-253l-34 -182h307zM591 803h-268l18 95h268z" />
    <glyph glyph-name="emacron" unicode="&#x113;" horiz-adv-x="611" 
d="M84 208q-3 139 88 235.5t231 95.5q121 1 180.5 -79t34.5 -194l-7 -41h-400q-6 -61 25.5 -98.5t91.5 -37.5q47 0 86 20.5t57 54.5h123q-29 -81 -106 -129q-78 -48 -183 -48q-101 0 -161 62q-60 61 -60 159zM229 317h273q3 54 -28 86t-87 32t-100 -34q-45 -34 -58 -84z
M559 625h-268l18 95h268z" />
    <glyph glyph-name="Edotaccent" unicode="&#x116;" horiz-adv-x="561" 
d="M518 0h-439l130 700h429l-22 -115h-296l-32 -174h253l-21 -114h-253l-34 -182h307zM384 834q0 37 27.5 64t66.5 27q30 0 47.5 -16.5t17.5 -43.5q0 -37 -27.5 -64t-66.5 -27q-30 0 -47.5 16.5t-17.5 43.5z" />
    <glyph glyph-name="edotaccent" unicode="&#x117;" horiz-adv-x="611" 
d="M84 208q-3 139 88 235.5t231 95.5q121 1 180.5 -79t34.5 -194l-7 -41h-400q-6 -61 25.5 -98.5t91.5 -37.5q47 0 86 20.5t57 54.5h123q-29 -81 -106 -129q-78 -48 -183 -48q-101 0 -161 62q-60 61 -60 159zM229 317h273q3 54 -28 86t-87 32t-100 -34q-45 -34 -58 -84z
M352 656q0 37 27.5 64t66.5 27q30 0 47.5 -16.5t17.5 -43.5q0 -38 -27.5 -64.5t-66.5 -26.5q-30 0 -47.5 16t-17.5 44z" />
    <glyph glyph-name="Eogonek" unicode="&#x118;" horiz-adv-x="561" 
d="M419 0h-340l130 700h429l-22 -115h-296l-32 -174h253l-21 -114h-253l-34 -182h307l-22 -115h1l-51 -52l-2 -2q-19 -20 -22 -32v-6q0 -22 28 -22h26l-15 -81h-70q-35 0 -57.5 18t-22.5 48q0 45 50 92z" />
    <glyph glyph-name="eogonek" unicode="&#x119;" horiz-adv-x="611" 
d="M84 208q-3 139 88 235.5t231 95.5q121 1 180.5 -79t34.5 -194l-7 -41h-400q-6 -61 25.5 -98.5t91.5 -37.5q47 0 86 20.5t57 54.5h123q-23 -68 -82 -113t-142 -59l-43 -44l-2 -2q-19 -21 -21 -32q-1 -2 -1 -6q0 -10 8 -16t20 -6h26l-15 -81h-70q-35 0 -57.5 18t-22.5 48
q0 45 50 92l26 26q-85 10 -135 71q-49 61 -49 148zM229 317h273q3 54 -28 86t-87 32t-100 -34q-45 -34 -58 -84z" />
    <glyph glyph-name="Ecaron" unicode="&#x11a;" horiz-adv-x="561" 
d="M518 0h-439l130 700h429l-22 -115h-296l-32 -174h253l-21 -114h-253l-34 -182h307zM392 783l-74 144h88l51 -55h7l72 55h99l-128 -144h-115z" />
    <glyph glyph-name="ecaron" unicode="&#x11b;" horiz-adv-x="611" 
d="M84 208q-3 139 88 235.5t231 95.5q121 1 180.5 -79t34.5 -194l-7 -41h-400q-6 -61 25.5 -98.5t91.5 -37.5q47 0 86 20.5t57 54.5h123q-29 -81 -106 -129q-78 -48 -183 -48q-101 0 -161 62q-60 61 -60 159zM229 317h273q3 54 -28 86t-87 32t-100 -34q-45 -34 -58 -84z
M360 605l-74 144h88l51 -55h7l72 55h99l-128 -144h-115z" />
    <glyph glyph-name="Gbreve" unicode="&#x11e;" horiz-adv-x="811" 
d="M101 276q0 86 33 166.5t91 140.5q59 61 141.5 95.5t174.5 34.5q127 0 207 -69q79 -69 88 -178h-146q-12 55 -57 87.5t-115 32.5q-112 3 -196 -84.5t-81 -204.5q0 -84 51.5 -135t138.5 -51q83 0 150 44q68 45 87 112h-221l20 110h370q-18 -185 -136.5 -287.5
t-290.5 -102.5q-139 0 -225 80q-84 81 -84 209zM443 922h78q-5 -27 7 -43.5t39 -16.5q26 0 44.5 16.5t23.5 43.5h87q-7 -65 -51.5 -103t-112.5 -38q-67 0 -99 38t-16 103z" />
    <glyph glyph-name="gbreve" unicode="&#x11f;" horiz-adv-x="646" 
d="M61 -59h119q1 -36 29.5 -56.5t79.5 -20.5q141 0 166 140l12 68h-7q-14 -17 -33 -32.5t-58.5 -31.5t-81.5 -16q-93 0 -148 56t-55 151q-3 136 88 239.5t212 100.5q60 0 95.5 -25.5t51.5 -55.5h7l12 68h130l-97 -522q-22 -116 -102 -181.5t-212 -65.5q-108 0 -161 52.5
t-47 131.5zM218 227q0 -55 31 -86.5t85 -31.5q72 0 123 56q51 57 51 137q0 55 -32 87t-85 32q-71 0 -122 -58q-51 -57 -51 -136zM316 744h78q-5 -27 7 -43.5t39 -16.5q26 0 44.5 16.5t23.5 43.5h87q-7 -64 -51.5 -102.5t-112.5 -38.5q-67 0 -99 38.5t-16 102.5z" />
    <glyph glyph-name="Gdotaccent" unicode="&#x120;" horiz-adv-x="811" 
d="M101 276q0 86 33 166.5t91 140.5q59 61 141.5 95.5t174.5 34.5q127 0 207 -69q79 -69 88 -178h-146q-12 55 -57 87.5t-115 32.5q-112 3 -196 -84.5t-81 -204.5q0 -84 51.5 -135t138.5 -51q83 0 150 44q68 45 87 112h-221l20 110h370q-18 -185 -136.5 -287.5
t-290.5 -102.5q-139 0 -225 80q-84 81 -84 209zM493 834q0 37 27.5 64t66.5 27q30 0 47.5 -16.5t17.5 -43.5q0 -37 -27.5 -64t-66.5 -27q-30 0 -47.5 16.5t-17.5 43.5z" />
    <glyph glyph-name="gdotaccent" unicode="&#x121;" horiz-adv-x="646" 
d="M61 -59h119q1 -36 29.5 -56.5t79.5 -20.5q141 0 166 140l12 68h-7q-14 -17 -33 -32.5t-58.5 -31.5t-81.5 -16q-93 0 -148 56t-55 151q-3 136 88 239.5t212 100.5q60 0 95.5 -25.5t51.5 -55.5h7l12 68h130l-97 -522q-22 -116 -102 -181.5t-212 -65.5q-108 0 -161 52.5
t-47 131.5zM218 227q0 -55 31 -86.5t85 -31.5q72 0 123 56q51 57 51 137q0 55 -32 87t-85 32q-71 0 -122 -58q-51 -57 -51 -136zM366 656q0 37 27.5 64t66.5 27q30 0 47.5 -16.5t17.5 -43.5q0 -38 -27.5 -64.5t-66.5 -26.5q-30 0 -47.5 16t-17.5 44z" />
    <glyph glyph-name="uni0122" unicode="&#x122;" horiz-adv-x="811" 
d="M101 276q0 86 33 166.5t91 140.5q59 61 141.5 95.5t174.5 34.5q127 0 207 -69q79 -69 88 -178h-146q-12 55 -57 87.5t-115 32.5q-112 3 -196 -84.5t-81 -204.5q0 -84 51.5 -135t138.5 -51q83 0 150 44q68 45 87 112h-221l20 110h370q-18 -185 -136.5 -287.5
t-290.5 -102.5q-139 0 -225 80q-84 81 -84 209zM382 -229h-83l48 174h109z" />
    <glyph glyph-name="uni0123" unicode="&#x123;" horiz-adv-x="646" 
d="M61 -59h119q1 -36 29.5 -56.5t79.5 -20.5q141 0 166 140l12 68h-7q-14 -17 -33 -32.5t-58.5 -31.5t-81.5 -16q-93 0 -148 56t-55 151q-3 136 88 239.5t212 100.5q60 0 95.5 -25.5t51.5 -55.5h7l12 68h130l-97 -522q-22 -116 -102 -181.5t-212 -65.5q-108 0 -161 52.5
t-47 131.5zM218 227q0 -55 31 -86.5t85 -31.5q72 0 123 56q51 57 51 137q0 55 -32 87t-85 32q-71 0 -122 -58q-51 -57 -51 -136zM459 606h-109l74 174h83z" />
    <glyph glyph-name="Hcircumflex" unicode="&#x124;" horiz-adv-x="734" 
d="M212 0h-133l130 700h133l-53 -283h310l53 283h133l-130 -700h-133l54 291h-310zM455 783h-99l128 144h115l75 -144h-89l-52 56h-7z" />
    <glyph glyph-name="hcircumflex" unicode="&#x125;" horiz-adv-x="606" 
d="M204 0h-130l139 750h129l-54 -288h8q24 34 67.5 55.5t93.5 21.5q88 0 128 -55q42 -55 26 -140l-64 -344h-130l59 312q9 47 -15 77.5t-69 30.5q-46 0 -83.5 -32.5t-47.5 -81.5zM222 788h-99l128 144h115l75 -144h-89l-52 56h-7z" />
    <glyph glyph-name="Hbar" unicode="&#x126;" horiz-adv-x="840" 
d="M265 0h-133l95 514h-53l18 99h54l16 87h133l-16 -87h310l16 87h133l-16 -87h52l-18 -99h-53l-95 -514h-133l54 291h-310zM361 514l-18 -97h309l18 97h-309z" />
    <glyph glyph-name="hbar" unicode="&#x127;" horiz-adv-x="606" 
d="M204 0h-130l108 583h-62l17 94h62l14 73h129l-14 -73h138l-17 -94h-138l-23 -121h8q24 34 67.5 55.5t93.5 21.5q88 0 128 -55q42 -55 26 -140l-64 -344h-130l59 312q9 47 -15 77.5t-69 30.5q-46 0 -83.5 -32.5t-47.5 -81.5z" />
    <glyph glyph-name="Imacron" unicode="&#x12a;" horiz-adv-x="291" 
d="M212 0h-133l130 700h133zM432 803h-268l18 95h268z" />
    <glyph glyph-name="imacron" unicode="&#x12b;" horiz-adv-x="309" 
d="M102 141l71 385h130l-68 -369q-5 -21 4.5 -33t28.5 -12h22l-21 -112h-55q-66 0 -95 37t-17 104zM396 625h-268l18 95h268z" />
    <glyph glyph-name="Iogonek" unicode="&#x12e;" horiz-adv-x="291" 
d="M26 -129q0 45 50 92l36 37h-33l130 700h133l-130 -700l-51 -52q-19 -20 -22 -31q-2 -6 -2 -9q0 -10 8 -16t20 -6h26l-15 -81h-70q-35 0 -57.5 18t-22.5 48z" />
    <glyph glyph-name="iogonek" unicode="&#x12f;" horiz-adv-x="326" 
d="M83 -129q0 21 10 41q14 25 40 51l40 41q-91 23 -71 137l71 385h130l-68 -369q-5 -21 4.5 -33t28.5 -12h22l-21 -112l-50 -52q-25 -19 -24 -40t28 -22h26l-15 -81h-70q-36 0 -58.5 18t-22.5 48zM189 656q0 36 27.5 63.5t65.5 27.5q30 0 48 -16.5t18 -43.5
q0 -38 -27.5 -64.5t-66.5 -26.5q-30 0 -47.5 16t-17.5 44z" />
    <glyph glyph-name="Idot" unicode="&#x130;" horiz-adv-x="291" 
d="M212 0h-133l130 700h133zM225 834q0 37 27.5 64t66.5 27q30 0 47.5 -16.5t17.5 -43.5q0 -37 -27.5 -64t-66.5 -27q-30 0 -47.5 16.5t-17.5 43.5z" />
    <glyph glyph-name="dotlessi" unicode="&#x131;" horiz-adv-x="309" 
d="M102 141l71 385h130l-68 -369q-5 -21 4.5 -33t28.5 -12h22l-21 -112h-55q-66 0 -95 37t-17 104z" />
    <glyph glyph-name="Jcircumflex" unicode="&#x134;" horiz-adv-x="588" 
d="M73 212h122q-8 -48 16.5 -75.5t78.5 -27.5q57 0 92 34t45 88l65 352h-238l22 117h371l-88 -472q-21 -113 -94 -177t-193 -64q-107 0 -162 61t-37 164zM416 783h-99l128 144h115l75 -144h-89l-52 56h-7z" />
    <glyph glyph-name="jcircumflex" unicode="&#x135;" horiz-adv-x="310" 
d="M17 -230h-57l21 116h38q80 0 94 80l105 560h130l-104 -561q-17 -92 -78 -143.5t-149 -51.5zM234 605h-99l128 144h115l75 -144h-89l-52 56h-7z" />
    <glyph glyph-name="uni0136" unicode="&#x136;" horiz-adv-x="653" 
d="M212 0h-133l130 700h133l-55 -295h6l296 295h167l-291 -282l104 -258q18 -44 58 -44h28l-21 -116h-62q-85 0 -116 82l-95 234l-109 -105zM323 -229h-83l48 174h109z" />
    <glyph glyph-name="uni0137" unicode="&#x137;" horiz-adv-x="573" 
d="M204 0h-130l139 750h130l-79 -426h6l209 202h163l-215 -201l63 -167q18 -45 58 -45h31l-21 -113h-55q-45 0 -71.5 19.5t-42.5 62.5l-58 152l-101 -92zM270 -229h-83l48 174h109z" />
    <glyph glyph-name="kgreenlandic" unicode="&#x138;" horiz-adv-x="573" 
d="M204 0h-130l96 526h130l-36 -202h6l210 202h162l-216 -200l64 -168q18 -45 58 -45h31l-21 -113h-55q-45 0 -71.5 19.5t-42.5 62.5l-59 153l-100 -93z" />
    <glyph glyph-name="Lacute" unicode="&#x139;" horiz-adv-x="536" 
d="M495 0h-416l130 700h133l-108 -582h284zM326 783h-91l78 146h132z" />
    <glyph glyph-name="lacute" unicode="&#x13a;" horiz-adv-x="305" 
d="M101 148l111 602h130l-109 -590q-4 -22 5 -34t28 -12h21l-20 -114h-49q-69 0 -100 39.5t-17 108.5zM297 788h-91l78 146h132z" />
    <glyph glyph-name="uni013B" unicode="&#x13b;" horiz-adv-x="536" 
d="M495 0h-416l130 700h133l-108 -582h284zM258 -229h-83l48 174h109z" />
    <glyph glyph-name="uni013C" unicode="&#x13c;" horiz-adv-x="305" 
d="M129 -229h-83l48 174h109zM101 148l111 602h130l-109 -590q-4 -22 5 -34t28 -12h21l-20 -114h-49q-69 0 -100 39.5t-17 108.5z" />
    <glyph glyph-name="Lcaron" unicode="&#x13d;" horiz-adv-x="533" 
d="M495 0h-416l130 700h133l-108 -582h284zM525 504h-93l36 196h117z" />
    <glyph glyph-name="lcaron" unicode="&#x13e;" horiz-adv-x="417" 
d="M101 148l111 602h130l-109 -590q-4 -22 5 -34t28 -12h21l-20 -114h-49q-69 0 -100 39.5t-17 108.5zM466 554h-93l36 196h117z" />
    <glyph glyph-name="Ldot" unicode="&#x13f;" horiz-adv-x="600" 
d="M495 0h-416l130 700h133l-108 -582h284zM365 370q0 35 27 62q28 27 63 27q29 0 47 -17t18 -43q0 -36 -27.5 -62.5t-64.5 -26.5q-28 0 -45.5 17t-17.5 43z" />
    <glyph glyph-name="ldot" unicode="&#x140;" horiz-adv-x="434" 
d="M101 148l111 602h130l-109 -590q-4 -22 5 -34t28 -12h21l-20 -114h-49q-69 0 -100 39.5t-17 108.5zM323 373q0 35 27 62q28 27 63 27q29 0 46.5 -17t17.5 -44q0 -35 -28 -62q-27 -27 -64 -27q-27 0 -44.5 17.5t-17.5 43.5z" />
    <glyph glyph-name="Lslash" unicode="&#x141;" horiz-adv-x="557" 
d="M147 239l-76 -35l21 114l77 35l64 347h133l-51 -279l174 80l-20 -114l-175 -81l-35 -188h283l-23 -118h-416z" />
    <glyph glyph-name="lslash" unicode="&#x142;" horiz-adv-x="384" 
d="M155 301l-84 -38l21 113l84 38l62 336h130l-50 -272l97 44l-21 -113l-97 -44l-38 -205q-8 -46 33 -46h21l-20 -114h-49q-68 0 -99 39t-18 109z" />
    <glyph glyph-name="Nacute" unicode="&#x143;" horiz-adv-x="738" 
d="M209 0h-130l130 700h137l219 -479h6l89 479h129l-130 -700h-137l-218 479h-6zM560 783h-91l78 146h132z" />
    <glyph glyph-name="nacute" unicode="&#x144;" 
d="M204 0h-130l97 526h124l-12 -64h8q24 34 67.5 55.5t94.5 21.5q88 0 128 -55q42 -55 26 -140l-64 -344h-130l59 312q9 48 -14 78t-68 30q-47 0 -84 -33.5t-46 -83.5zM468 605h-91l78 146h132z" />
    <glyph glyph-name="uni0145" unicode="&#x145;" horiz-adv-x="738" 
d="M209 0h-130l130 700h137l219 -479h6l89 479h129l-130 -700h-137l-218 479h-6zM329 -229h-83l48 174h109z" />
    <glyph glyph-name="uni0146" unicode="&#x146;" 
d="M204 0h-130l97 526h124l-12 -64h8q24 34 67.5 55.5t94.5 21.5q88 0 128 -55q42 -55 26 -140l-64 -344h-130l59 312q9 48 -14 78t-68 30q-47 0 -84 -33.5t-46 -83.5zM282 -229h-83l48 174h109z" />
    <glyph glyph-name="Ncaron" unicode="&#x147;" horiz-adv-x="738" 
d="M209 0h-130l130 700h137l219 -479h6l89 479h129l-130 -700h-137l-218 479h-6zM468 783l-74 144h88l51 -55h7l72 55h99l-128 -144h-115z" />
    <glyph glyph-name="ncaron" unicode="&#x148;" 
d="M204 0h-130l97 526h124l-12 -64h8q24 34 67.5 55.5t94.5 21.5q88 0 128 -55q42 -55 26 -140l-64 -344h-130l59 312q9 48 -14 78t-68 30q-47 0 -84 -33.5t-46 -83.5zM376 605l-74 144h88l51 -55h7l72 55h99l-128 -144h-115z" />
    <glyph glyph-name="Eng" unicode="&#x14a;" horiz-adv-x="738" 
d="M209 0h-130l130 700h134l226 -456h6l85 456h129l-133 -718q-18 -98 -92 -155t-169 -57l23 119q43 0 71 26t35 68l8 41l-228 457h-6z" />
    <glyph glyph-name="eng" unicode="&#x14b;" 
d="M204 0h-130l97 526h124l-12 -64h8q24 34 67.5 55.5t94.5 21.5q88 0 128 -55q42 -55 26 -140l-59 -318l-11 -61q-17 -91 -78 -143t-150 -52h-63l22 116h43q39 0 64 21.5t32 58.5l6 34l59 312q9 48 -14 78t-68 30q-47 0 -84 -33.5t-46 -83.5z" />
    <glyph glyph-name="Omacron" unicode="&#x14c;" horiz-adv-x="824" 
d="M101 278q0 117 58 217t160.5 159t224.5 59q140 0 223 -82q85 -81 85 -210q0 -87 -33.5 -167t-93.5 -140q-59 -59 -142 -93t-174 -34q-139 0 -224 80q-84 81 -84 211zM241 301q0 -84 52.5 -135.5t139.5 -51.5q113 0 196 84.5t83 199.5q0 83 -52 135q-53 53 -139 53
q-113 0 -196.5 -85t-83.5 -200zM698 803h-268l18 95h268z" />
    <glyph glyph-name="omacron" unicode="&#x14d;" horiz-adv-x="642" 
d="M84 208q0 136 96.5 233.5t237.5 97.5q108 0 172 -63q65 -62 65 -159q0 -136 -96.5 -233t-237.5 -97q-108 0 -173 62q-64 61 -64 159zM218 229q0 -58 33 -91t89 -33q75 0 127 55q53 56 53 136q0 56 -33 90.5t-88 34.5q-75 0 -128 -56t-53 -136zM575 625h-268l18 95h268z
" />
    <glyph glyph-name="Ohungarumlaut" unicode="&#x150;" horiz-adv-x="824" 
d="M101 278q0 117 58 217t160.5 159t224.5 59q140 0 223 -82q85 -81 85 -210q0 -87 -33.5 -167t-93.5 -140q-59 -59 -142 -93t-174 -34q-139 0 -224 80q-84 81 -84 211zM241 301q0 -84 52.5 -135.5t139.5 -51.5q113 0 196 84.5t83 199.5q0 83 -52 135q-53 53 -139 53
q-113 0 -196.5 -85t-83.5 -200zM513 783h-89l72 151h130zM683 783h-88l72 151h130z" />
    <glyph glyph-name="ohungarumlaut" unicode="&#x151;" horiz-adv-x="642" 
d="M84 208q0 136 96.5 233.5t237.5 97.5q108 0 172 -63q65 -62 65 -159q0 -136 -96.5 -233t-237.5 -97q-108 0 -173 62q-64 61 -64 159zM218 229q0 -58 33 -91t89 -33q75 0 127 55q53 56 53 136q0 56 -33 90.5t-88 34.5q-75 0 -128 -56t-53 -136zM390 605h-89l72 151h130z
M560 605h-88l72 151h130z" />
    <glyph glyph-name="OE" unicode="&#x152;" horiz-adv-x="1103" 
d="M101 278q0 83 35.5 164t96.5 141t143 95t168 35q51 0 99 -13h537l-22 -115h-360q56 -74 50 -174h242l-22 -114h-240q-32 -109 -117 -182h371l-22 -115h-548q-53 -13 -103 -13q-139 0 -224 81q-84 81 -84 210zM241 301q0 -84 52.5 -135.5t139.5 -51.5q108 -3 193 84.5
t83 199.5q0 83 -52 135q-53 53 -136 53q-113 0 -196.5 -85.5t-83.5 -199.5z" />
    <glyph glyph-name="oe" unicode="&#x153;" horiz-adv-x="1044" 
d="M84 207q-4 131 99.5 233.5t237.5 98.5q130 0 195 -91q90 91 221 91q124 0 178.5 -77t36.5 -196l-7 -44h-400q-6 -60 25.5 -96.5t91.5 -36.5q48 0 86.5 20.5t56.5 54.5h123q-28 -81 -107 -129q-78 -48 -182 -48q-128 0 -187 96q-101 -96 -233 -96q-108 0 -172 61
q-63 62 -63 159zM218 229q0 -58 33 -91t89 -33q74 0 127 56q53 58 53 135q0 56 -33 90.5t-88 34.5q-74 0 -128 -57q-53 -58 -53 -135zM663 317h273q3 54 -28 86t-87 32q-55 0 -99.5 -33t-58.5 -85z" />
    <glyph glyph-name="Racute" unicode="&#x154;" horiz-adv-x="641" 
d="M212 0h-133l130 700h262q93 0 148 -52q56 -51 56 -134q0 -81 -47 -145.5t-126 -95.5l41 -115q9 -24 21.5 -33t34.5 -9h35l-21 -116h-69q-89 0 -114 82l-54 168h-118zM320 586l-40 -222h119q60 0 99 38t39 98q0 39 -26.5 62.5t-73.5 23.5h-117zM483 783h-91l78 146h132z
" />
    <glyph glyph-name="racute" unicode="&#x155;" horiz-adv-x="429" 
d="M204 0h-130l97 526h124l-16 -86h7q23 38 64.5 63t90.5 25h48l-23 -124h-54q-61 0 -105 -42t-57 -113zM396 605h-91l78 146h132z" />
    <glyph glyph-name="uni0156" unicode="&#x156;" horiz-adv-x="641" 
d="M212 0h-133l130 700h262q93 0 148 -52q56 -51 56 -134q0 -81 -47 -145.5t-126 -95.5l41 -115q9 -24 21.5 -33t34.5 -9h35l-21 -116h-69q-89 0 -114 82l-54 168h-118zM304 -229h-83l48 174h109zM320 586l-40 -222h119q60 0 99 38t39 98q0 39 -26.5 62.5t-73.5 23.5h-117z
" />
    <glyph glyph-name="uni0157" unicode="&#x157;" horiz-adv-x="429" 
d="M204 0h-130l97 526h124l-16 -86h7q23 38 64.5 63t90.5 25h48l-23 -124h-54q-61 0 -105 -42t-57 -113zM185 -229h-83l48 174h109z" />
    <glyph glyph-name="Rcaron" unicode="&#x158;" horiz-adv-x="641" 
d="M212 0h-133l130 700h262q93 0 148 -52q56 -51 56 -134q0 -81 -47 -145.5t-126 -95.5l41 -115q9 -24 21.5 -33t34.5 -9h35l-21 -116h-69q-89 0 -114 82l-54 168h-118zM320 586l-40 -222h119q60 0 99 38t39 98q0 39 -26.5 62.5t-73.5 23.5h-117zM390 783l-74 144h88l51 -55
h7l72 55h99l-128 -144h-115z" />
    <glyph glyph-name="rcaron" unicode="&#x159;" horiz-adv-x="429" 
d="M204 0h-130l97 526h124l-16 -86h7q23 38 64.5 63t90.5 25h48l-23 -124h-54q-61 0 -105 -42t-57 -113zM303 605l-74 144h88l51 -55h7l72 55h99l-128 -144h-115z" />
    <glyph glyph-name="Sacute" unicode="&#x15a;" 
d="M75 221h128q-9 -51 23 -81.5t97 -30.5q64 0 102.5 27.5t38.5 75.5q0 32 -33 51t-80 31t-94.5 28t-80.5 54t-33 98q0 110 79 174q80 65 204 65q107 0 169 -56t44 -160h-133q8 45 -18.5 71t-81.5 26t-90.5 -26.5t-35.5 -68.5q0 -31 33.5 -49t81.5 -29.5t96 -27.5t81.5 -54
t33.5 -97q0 -120 -81.5 -187.5t-224.5 -67.5q-120 0 -183 65q-62 65 -42 169zM478 783h-91l78 146h132z" />
    <glyph glyph-name="sacute" unicode="&#x15b;" horiz-adv-x="530" 
d="M73 158h119q-2 -35 20.5 -53t67.5 -18q49 0 78 20t29 55q0 24 -27 36.5t-66 18.5t-78 15.5t-66 37.5t-27 76q0 85 65 139t173 54q89 0 138 -43.5t40 -119.5h-115q1 31 -19 48t-61 17q-42 0 -70.5 -19t-28.5 -47q0 -23 28 -34t68 -16.5t80 -15t68 -39t28 -78.5
q0 -95 -67 -150t-188 -55q-103 0 -151.5 45.5t-37.5 125.5zM420 605h-91l78 146h132z" />
    <glyph glyph-name="Scedilla" unicode="&#x15e;" 
d="M75 221h128q-9 -51 23 -81.5t97 -30.5q64 0 102.5 27.5t38.5 75.5q0 32 -33 51t-80 31t-94.5 28t-80.5 54t-33 98q0 110 79 174q80 65 204 65q107 0 169 -56t44 -160h-133q8 45 -18.5 71t-81.5 26t-90.5 -26.5t-35.5 -68.5q0 -31 33.5 -49t81.5 -29.5t96 -27.5t81.5 -54
t33.5 -97q0 -118 -79.5 -186t-219.5 -69l-16 -36h6q12 9 33 9q29 0 47 -18t18 -46q0 -42 -33.5 -71.5t-81.5 -29.5q-39 0 -61.5 22t-16.5 55h66q0 -9 6.5 -15t16.5 -6q14 0 24.5 10.5t10.5 24.5q0 23 -25 23q-19 0 -26 -14l-64 1l34 95q-94 13 -141 76t-29 154z" />
    <glyph glyph-name="scedilla" unicode="&#x15f;" horiz-adv-x="530" 
d="M73 158h119q-2 -35 20.5 -53t67.5 -18q49 0 78 20t29 55q0 24 -27 36.5t-66 18.5t-78 15.5t-66 37.5t-27 76q0 85 65 139t173 54q89 0 138 -43.5t40 -119.5h-115q1 31 -19 48t-61 17q-42 0 -70.5 -19t-28.5 -47q0 -23 28 -34t68 -16.5t80 -15t68 -39t28 -78.5
q0 -94 -65 -149t-183 -56l-16 -36h6q12 9 33 9q29 0 47 -18t18 -46q0 -43 -33 -72t-81 -29q-39 0 -62 22t-17 55h66q0 -9 7 -15t17 -6q14 0 24.5 10.5t10.5 24.5q0 10 -7 16.5t-18 6.5q-18 0 -27 -14l-63 1l34 95q-75 11 -109.5 55t-25.5 112z" />
    <glyph glyph-name="Scaron" unicode="&#x160;" 
d="M75 221h128q-9 -51 23 -81.5t97 -30.5q64 0 102.5 27.5t38.5 75.5q0 32 -33 51t-80 31t-94.5 28t-80.5 54t-33 98q0 110 79 174q80 65 204 65q107 0 169 -56t44 -160h-133q8 45 -18.5 71t-81.5 26t-90.5 -26.5t-35.5 -68.5q0 -31 33.5 -49t81.5 -29.5t96 -27.5t81.5 -54
t33.5 -97q0 -120 -81.5 -187.5t-224.5 -67.5q-120 0 -183 65q-62 65 -42 169zM385 783l-74 144h88l51 -55h7l72 55h99l-128 -144h-115z" />
    <glyph glyph-name="scaron" unicode="&#x161;" horiz-adv-x="530" 
d="M73 158h119q-2 -35 20.5 -53t67.5 -18q49 0 78 20t29 55q0 24 -27 36.5t-66 18.5t-78 15.5t-66 37.5t-27 76q0 85 65 139t173 54q89 0 138 -43.5t40 -119.5h-115q1 31 -19 48t-61 17q-42 0 -70.5 -19t-28.5 -47q0 -23 28 -34t68 -16.5t80 -15t68 -39t28 -78.5
q0 -95 -67 -150t-188 -55q-103 0 -151.5 45.5t-37.5 125.5zM327 605l-74 144h88l51 -55h7l72 55h99l-128 -144h-115z" />
    <glyph glyph-name="uni0162" unicode="&#x162;" horiz-adv-x="592" 
d="M338 583h-202l22 117h537l-22 -117h-203l-108 -583h-133zM267 -229h-83l48 174h109z" />
    <glyph glyph-name="uni0163" unicode="&#x163;" horiz-adv-x="442" 
d="M206 422h-90l19 103h52q44 0 52 43l20 103h123l-27 -145h145l-19 -104h-145l-46 -242q-13 -72 60 -72h69l-20 -108h-98q-82 0 -119.5 45.5t-21.5 129.5zM248 -229h-83l48 174h109z" />
    <glyph glyph-name="Tcaron" unicode="&#x164;" horiz-adv-x="592" 
d="M338 583h-202l22 117h537l-22 -117h-203l-108 -583h-133zM387 783l-74 144h88l51 -55h7l72 55h99l-128 -144h-115z" />
    <glyph glyph-name="tcaron" unicode="&#x165;" horiz-adv-x="435" 
d="M206 422h-90l19 103h52q44 0 52 43l20 103h123l-27 -145h145l-19 -104h-145l-46 -242q-13 -72 60 -72h69l-20 -108h-98q-82 0 -119.5 45.5t-21.5 129.5zM540 568h-93l36 196h117z" />
    <glyph glyph-name="Tbar" unicode="&#x166;" horiz-adv-x="582" 
d="M338 583h-202l22 117h537l-22 -117h-203l-31 -170h139l-18 -98h-140l-58 -315h-133l59 315h-133l18 98h133z" />
    <glyph glyph-name="tbar" unicode="&#x167;" horiz-adv-x="435" 
d="M174 251h-84l17 94h85l14 77h-90l19 103h52q44 0 52 43l20 103h123l-27 -145h145l-19 -104h-145l-15 -77h132l-18 -94h-132l-13 -71q-13 -72 60 -72h69l-20 -108h-98q-82 0 -119.5 45.5t-21.5 129.5z" />
    <glyph glyph-name="Umacron" unicode="&#x16a;" horiz-adv-x="696" 
d="M120 261l81 439h133l-81 -438q-13 -71 17 -110.5t100 -39.5q68 0 113 39.5t59 111.5l81 437h132l-81 -438q-24 -132 -106.5 -203.5t-216.5 -71.5q-126 0 -190 76q-63 77 -41 198zM631 803h-268l18 95h268z" />
    <glyph glyph-name="umacron" unicode="&#x16b;" 
d="M102 182l64 344h130l-58 -314q-10 -50 12.5 -78.5t68.5 -28.5q47 0 84 33.5t46 83.5l57 304h130l-98 -526h-124l11 64h-7q-24 -35 -66 -56t-95 -21q-87 0 -129 55q-42 56 -26 140zM557 625h-268l18 95h268z" />
    <glyph glyph-name="Uring" unicode="&#x16e;" horiz-adv-x="696" 
d="M120 261l81 439h133l-81 -438q-13 -71 17 -110.5t100 -39.5q68 0 113 39.5t59 111.5l81 437h132l-81 -438q-24 -132 -106.5 -203.5t-216.5 -71.5q-126 0 -190 76q-63 77 -41 198zM399 830q0 47 34 81t85 34q39 0 63 -21.5t24 -54.5q0 -50 -34 -83.5t-88 -33.5
q-38 0 -61 22t-23 56zM464 840q0 -29 31 -29q18 0 31 13.5t13 32.5q0 13 -9 21t-23 8q-18 0 -30.5 -13.5t-12.5 -32.5z" />
    <glyph glyph-name="uring" unicode="&#x16f;" 
d="M102 182l64 344h130l-58 -314q-10 -50 12.5 -78.5t68.5 -28.5q47 0 84 33.5t46 83.5l57 304h130l-98 -526h-124l11 64h-7q-24 -35 -66 -56t-95 -21q-87 0 -129 55q-42 56 -26 140zM326 652q0 47 34 81t85 34q39 0 63 -21.5t24 -54.5q0 -50 -34 -83.5t-88 -33.5
q-37 0 -60.5 22t-23.5 56zM391 662q0 -29 31 -29q18 0 31 14t13 32q0 13 -8.5 21t-23.5 8q-17 0 -30 -13.5t-13 -32.5z" />
    <glyph glyph-name="Uhungarumlaut" unicode="&#x170;" horiz-adv-x="696" 
d="M120 261l81 439h133l-81 -438q-13 -71 17 -110.5t100 -39.5q68 0 113 39.5t59 111.5l81 437h132l-81 -438q-24 -132 -106.5 -203.5t-216.5 -71.5q-126 0 -190 76q-63 77 -41 198zM446 783h-89l72 151h130zM616 783h-88l72 151h130z" />
    <glyph glyph-name="uhungarumlaut" unicode="&#x171;" 
d="M102 182l64 344h130l-58 -314q-10 -50 12.5 -78.5t68.5 -28.5q47 0 84 33.5t46 83.5l57 304h130l-98 -526h-124l11 64h-7q-24 -35 -66 -56t-95 -21q-87 0 -129 55q-42 56 -26 140zM373 605h-89l72 151h130zM543 605h-88l72 151h130z" />
    <glyph glyph-name="Uogonek" unicode="&#x172;" horiz-adv-x="696" 
d="M120 261l81 439h133l-81 -438q-13 -71 17 -110.5t100 -39.5q68 0 113 39.5t59 111.5l81 437h132l-81 -438q-21 -113 -85 -182t-167 -87l-44 -45l-2 -2q-19 -20 -22 -32v-6q0 -10 8 -16t20 -6h26l-15 -81h-70q-35 0 -57.5 18t-22.5 48q0 43 49 92l25 26q-110 10 -165 85
q-53 74 -32 187z" />
    <glyph glyph-name="uogonek" unicode="&#x173;" 
d="M102 182l64 344h130l-58 -314q-10 -50 12.5 -78.5t68.5 -28.5q47 0 84 33.5t46 83.5l57 304h130l-98 -526l-53 -52q-24 -24 -24 -41q0 -21 29 -21h27l-14 -81h-70q-36 0 -58.5 17.5t-22.5 47.5q0 46 50 93l37 37h-25l11 64h-7q-24 -35 -66 -56t-95 -21q-87 0 -129 55
q-42 56 -26 140z" />
    <glyph glyph-name="Wcircumflex" unicode="&#x174;" horiz-adv-x="973" 
d="M196 0l-51 700h144l22 -503h7l216 503h164l28 -503h8l208 503h146l-311 -700h-160l-32 512h-7l-222 -512h-160zM576 783h-99l128 144h115l75 -144h-89l-52 56h-7z" />
    <glyph glyph-name="wcircumflex" unicode="&#x175;" horiz-adv-x="871" 
d="M172 0l-49 526h135l20 -370h7l181 370h132l44 -370h7l157 370h137l-245 -526h-148l-45 355h-6l-179 -355h-148zM490 605h-99l128 144h115l75 -144h-89l-52 56h-7z" />
    <glyph glyph-name="Ycircumflex" unicode="&#x176;" horiz-adv-x="656" 
d="M313 270l-168 430h142l108 -295h7l217 295h152l-325 -429l-50 -271h-134zM413 783h-99l128 144h115l75 -144h-89l-52 56h-7z" />
    <glyph glyph-name="ycircumflex" unicode="&#x177;" 
d="M43 -59h116q-3 -36 22.5 -56.5t75.5 -20.5q131 0 158 140l11 65h-7q-24 -34 -67.5 -55.5t-94.5 -21.5q-87 0 -129 55q-41 56 -25 139l63 340h130l-58 -309q-9 -48 13.5 -77.5t67.5 -29.5q47 0 84 33t46 83l57 300h130l-97 -522q-46 -247 -299 -247q-107 0 -157 52.5
t-40 131.5zM357 605h-99l128 144h115l75 -144h-89l-52 56h-7z" />
    <glyph glyph-name="Ydieresis" unicode="&#x178;" horiz-adv-x="656" 
d="M313 270l-168 430h142l108 -295h7l217 295h152l-325 -429l-50 -271h-134zM321 841q0 31 24 56q25 25 57 25q26 0 41.5 -15t15.5 -39q0 -34 -24 -58t-58 -24q-24 0 -40 15.5t-16 39.5zM510 840q0 33 24 57.5t57 24.5q24 0 40 -15.5t16 -39.5q0 -32 -24.5 -56.5
t-56.5 -24.5q-26 0 -41 15t-15 39z" />
    <glyph glyph-name="Zacute" unicode="&#x179;" horiz-adv-x="623" 
d="M577 0h-532l22 119l444 459l2 7h-347l22 115h517l-22 -118l-444 -459l-1 -8h361zM488 783h-91l78 146h132z" />
    <glyph glyph-name="zacute" unicode="&#x17a;" horiz-adv-x="523" 
d="M472 0h-421l21 114l304 296l1 7h-240l20 109h408l-20 -109l-305 -299l-1 -7h254zM411 605h-91l78 146h132z" />
    <glyph glyph-name="Zdotaccent" unicode="&#x17b;" horiz-adv-x="623" 
d="M577 0h-532l22 119l444 459l2 7h-347l22 115h517l-22 -118l-444 -459l-1 -8h361zM387 834q0 37 27.5 64t66.5 27q30 0 47.5 -16.5t17.5 -43.5q0 -37 -27.5 -64t-66.5 -27q-30 0 -47.5 16.5t-17.5 43.5z" />
    <glyph glyph-name="zdotaccent" unicode="&#x17c;" horiz-adv-x="523" 
d="M472 0h-421l21 114l304 296l1 7h-240l20 109h408l-20 -109l-305 -299l-1 -7h254zM310 656q0 37 27.5 64t66.5 27q30 0 47.5 -16.5t17.5 -43.5q0 -38 -27.5 -64.5t-66.5 -26.5q-30 0 -47.5 16t-17.5 44z" />
    <glyph glyph-name="Zcaron" unicode="&#x17d;" horiz-adv-x="623" 
d="M577 0h-532l22 119l444 459l2 7h-347l22 115h517l-22 -118l-444 -459l-1 -8h361zM395 783l-74 144h88l51 -55h7l72 55h99l-128 -144h-115z" />
    <glyph glyph-name="zcaron" unicode="&#x17e;" horiz-adv-x="523" 
d="M472 0h-421l21 114l304 296l1 7h-240l20 109h408l-20 -109l-305 -299l-1 -7h254zM318 605l-74 144h88l51 -55h7l72 55h99l-128 -144h-115z" />
    <glyph glyph-name="florin" unicode="&#x192;" horiz-adv-x="528" 
d="M248 343h-105v103h124l26 143q15 77 68.5 119t132.5 42h82l-20 -110h-48q-77 0 -91 -77l-22 -117h127v-103h-147l-100 -536h-126z" />
    <glyph glyph-name="uni0218" unicode="&#x218;" 
d="M75 221h128q-9 -51 23 -81.5t97 -30.5q64 0 102.5 27.5t38.5 75.5q0 32 -33 51t-80 31t-94.5 28t-80.5 54t-33 98q0 110 79 174q80 65 204 65q107 0 169 -56t44 -160h-133q8 45 -18.5 71t-81.5 26t-90.5 -26.5t-35.5 -68.5q0 -31 33.5 -49t81.5 -29.5t96 -27.5t81.5 -54
t33.5 -97q0 -120 -81.5 -187.5t-224.5 -67.5q-120 0 -183 65q-62 65 -42 169zM276 -229h-83l48 174h109z" />
    <glyph glyph-name="uni0219" unicode="&#x219;" horiz-adv-x="530" 
d="M73 158h119q-2 -35 20.5 -53t67.5 -18q49 0 78 20t29 55q0 24 -27 36.5t-66 18.5t-78 15.5t-66 37.5t-27 76q0 85 65 139t173 54q89 0 138 -43.5t40 -119.5h-115q1 31 -19 48t-61 17q-42 0 -70.5 -19t-28.5 -47q0 -23 28 -34t68 -16.5t80 -15t68 -39t28 -78.5
q0 -95 -67 -150t-188 -55q-103 0 -151.5 45.5t-37.5 125.5zM238 -229h-83l48 174h109z" />
    <glyph glyph-name="uni021A" unicode="&#x21a;" horiz-adv-x="592" 
d="M338 583h-202l22 117h537l-22 -117h-203l-108 -583h-50l-22 -49h6q12 9 33 9q29 0 47 -17.5t18 -46.5q0 -42 -31.5 -71.5t-79.5 -29.5q-39 0 -63.5 22t-18.5 55h66q0 -9 7 -15t17 -6q14 0 24.5 10.5t10.5 24.5q0 23 -25 23q-18 0 -27 -14l-63 1l38 104h-20z" />
    <glyph glyph-name="uni021B" unicode="&#x21b;" horiz-adv-x="442" 
d="M206 422h-90l19 103h52q44 0 52 43l20 103h123l-27 -145h145l-19 -104h-145l-46 -242q-13 -72 60 -72h69l-20 -108h-98h-8l-22 -49h6q12 9 33 9q29 0 47 -18t18 -46q0 -42 -31.5 -71.5t-79.5 -29.5q-39 0 -63.5 22t-18.5 55h66q0 -21 24 -21q14 0 24 10.5t10 24.5
q0 23 -24 23q-18 0 -27 -14l-63 1l41 114q-47 16 -66.5 59t-6.5 106z" />
    <glyph glyph-name="uni0237" unicode="&#x237;" horiz-adv-x="310" 
d="M17 -230h-57l21 116h38q80 0 94 80l105 560h130l-104 -561q-17 -92 -78 -143.5t-149 -51.5z" />
    <glyph glyph-name="circumflex" unicode="&#x2c6;" horiz-adv-x="399" 
d="M252 605h-99l128 144h115l75 -144h-89l-52 56h-7z" />
    <glyph glyph-name="caron" unicode="&#x2c7;" horiz-adv-x="399" 
d="M254 605l-74 144h88l51 -55h7l72 55h99l-128 -144h-115z" />
    <glyph glyph-name="breve" unicode="&#x2d8;" horiz-adv-x="369" 
d="M183 744h78q-5 -27 7 -43.5t39 -16.5t45.5 17t22.5 43h87q-7 -64 -51.5 -102.5t-112.5 -38.5t-99.5 38.5t-15.5 102.5z" />
    <glyph glyph-name="dotaccent" unicode="&#x2d9;" horiz-adv-x="251" 
d="M170 656q0 36 28 63q28 28 66 28q30 0 47.5 -16.5t17.5 -43.5q0 -38 -27.5 -64.5t-66.5 -26.5q-30 0 -47.5 16t-17.5 44z" />
    <glyph glyph-name="ring" unicode="&#x2da;" horiz-adv-x="290" 
d="M167 652q0 47 34 81t85 34q39 0 63 -21.5t24 -54.5q0 -50 -34 -83.5t-88 -33.5q-38 0 -61 22t-23 56zM232 662q0 -13 8.5 -21t22.5 -8q18 0 31 14t13 32q0 13 -8.5 21t-23.5 8q-18 0 -30.5 -13.5t-12.5 -32.5z" />
    <glyph glyph-name="ogonek" unicode="&#x2db;" horiz-adv-x="254" 
d="M23 -129q0 45 50 92l56 58l80 -21l-51 -52l-15 -17q-9 -9 -9 -23q0 -22 28 -22h26l-15 -81h-70q-35 0 -57.5 18t-22.5 48z" />
    <glyph glyph-name="tilde" unicode="&#x2dc;" horiz-adv-x="433" 
d="M238 604h-83q9 66 43.5 101.5t84.5 35.5q34 0 68.5 -23t49.5 -23q16 0 29 13t16 33h81q-9 -65 -43 -101.5t-83 -36.5q-34 0 -67.5 23t-51.5 23q-16 0 -28.5 -12t-15.5 -33z" />
    <glyph glyph-name="hungarumlaut" unicode="&#x2dd;" horiz-adv-x="437" 
d="M248 605h-89l72 151h130zM418 605h-88l72 151h130z" />
    <glyph glyph-name="uni0326" unicode="&#x326;" horiz-adv-x="0" 
d="M-125 -229h-83l48 174h109z" />
    <glyph glyph-name="Wgrave" unicode="&#x1e80;" horiz-adv-x="973" 
d="M196 0l-51 700h144l22 -503h7l216 503h164l28 -503h8l208 503h146l-311 -700h-160l-32 512h-7l-222 -512h-160zM603 783l-67 146h133l25 -146h-91z" />
    <glyph glyph-name="wgrave" unicode="&#x1e81;" horiz-adv-x="871" 
d="M172 0l-49 526h135l20 -370h7l181 370h132l44 -370h7l157 370h137l-245 -526h-148l-45 355h-6l-179 -355h-148zM517 605l-67 146h133l25 -146h-91z" />
    <glyph glyph-name="Wacute" unicode="&#x1e82;" horiz-adv-x="973" 
d="M196 0l-51 700h144l22 -503h7l216 503h164l28 -503h8l208 503h146l-311 -700h-160l-32 512h-7l-222 -512h-160zM671 783h-91l78 146h132z" />
    <glyph glyph-name="wacute" unicode="&#x1e83;" horiz-adv-x="871" 
d="M172 0l-49 526h135l20 -370h7l181 370h132l44 -370h7l157 370h137l-245 -526h-148l-45 355h-6l-179 -355h-148zM584 605h-91l78 146h132z" />
    <glyph glyph-name="Wdieresis" unicode="&#x1e84;" horiz-adv-x="973" 
d="M196 0l-51 700h144l22 -503h7l216 503h164l28 -503h8l208 503h146l-311 -700h-160l-32 512h-7l-222 -512h-160zM483 841q0 31 24 56q25 25 57 25q26 0 41.5 -15t15.5 -39q0 -34 -24 -58t-58 -24q-24 0 -40 15.5t-16 39.5zM672 840q0 33 24 57.5t57 24.5q24 0 40 -15.5
t16 -39.5q0 -32 -24.5 -56.5t-56.5 -24.5q-26 0 -41 15t-15 39z" />
    <glyph glyph-name="wdieresis" unicode="&#x1e85;" horiz-adv-x="871" 
d="M172 0l-49 526h135l20 -370h7l181 370h132l44 -370h7l157 370h137l-245 -526h-148l-45 355h-6l-179 -355h-148zM397 663q0 31 24 56q25 25 57 25q26 0 41.5 -15t15.5 -39q0 -34 -24 -58t-58 -24q-24 0 -40 15.5t-16 39.5zM586 662q0 33 24 57.5t57 24.5q24 0 40 -16
t16 -39q0 -32 -24.5 -56.5t-56.5 -24.5q-26 0 -41 15t-15 39z" />
    <glyph glyph-name="uni1E9E" unicode="&#x1e9e;" horiz-adv-x="693" 
d="M212 0h-133l90 484q17 92 90 154t184 62h276l-23 -125l-174 -153l-2 -10h16q67 -3 114 -47t47 -114q2 -104 -71 -178.5t-180 -72.5h-171l22 117h147q45 0 79 33q35 33 35 76q0 33 -22.5 54.5t-57.5 21.5h-126l23 125l163 148l2 10h-104q-55 0 -91 -30.5t-45 -80.5z" />
    <glyph glyph-name="Ygrave" unicode="&#x1ef2;" horiz-adv-x="656" 
d="M313 270l-168 430h142l108 -295h7l217 295h152l-325 -429l-50 -271h-134zM440 783l-67 146h133l25 -146h-91z" />
    <glyph glyph-name="ygrave" unicode="&#x1ef3;" 
d="M43 -59h116q-3 -36 22.5 -56.5t75.5 -20.5q131 0 158 140l11 65h-7q-24 -34 -67.5 -55.5t-94.5 -21.5q-87 0 -129 55q-41 56 -25 139l63 340h130l-58 -309q-9 -48 13.5 -77.5t67.5 -29.5q47 0 84 33t46 83l57 300h130l-97 -522q-46 -247 -299 -247q-107 0 -157 52.5
t-40 131.5zM384 605l-67 146h133l25 -146h-91z" />
    <glyph glyph-name="uni2000" unicode="&#x2000;" horiz-adv-x="472" 
 />
    <glyph glyph-name="uni2001" unicode="&#x2001;" horiz-adv-x="945" 
 />
    <glyph glyph-name="uni2002" unicode="&#x2002;" horiz-adv-x="472" 
 />
    <glyph glyph-name="uni2003" unicode="&#x2003;" horiz-adv-x="945" 
 />
    <glyph glyph-name="uni2004" unicode="&#x2004;" horiz-adv-x="315" 
 />
    <glyph glyph-name="uni2005" unicode="&#x2005;" horiz-adv-x="236" 
 />
    <glyph glyph-name="uni2006" unicode="&#x2006;" horiz-adv-x="157" 
 />
    <glyph glyph-name="uni2007" unicode="&#x2007;" horiz-adv-x="157" 
 />
    <glyph glyph-name="uni2008" unicode="&#x2008;" horiz-adv-x="118" 
 />
    <glyph glyph-name="uni2009" unicode="&#x2009;" horiz-adv-x="189" 
 />
    <glyph glyph-name="uni200A" unicode="&#x200a;" horiz-adv-x="52" 
 />
    <glyph glyph-name="uni2010" unicode="&#x2010;" horiz-adv-x="388" 
d="M377 248h-275l21 112h275z" />
    <glyph glyph-name="uni2011" unicode="&#x2011;" horiz-adv-x="388" 
d="M377 248h-275l21 112h275z" />
    <glyph glyph-name="figuredash" unicode="&#x2012;" horiz-adv-x="388" 
d="M377 248h-275l21 112h275z" />
    <glyph glyph-name="endash" unicode="&#x2013;" horiz-adv-x="652" 
d="M642 250h-540l21 109h540z" />
    <glyph glyph-name="emdash" unicode="&#x2014;" horiz-adv-x="908" 
d="M898 249h-796l20 109h796z" />
    <glyph glyph-name="quoteleft" unicode="&#x2018;" horiz-adv-x="266" 
d="M273 451h-130l101 249h93z" />
    <glyph glyph-name="quoteright" unicode="&#x2019;" horiz-adv-x="266" 
d="M235 451h-93l64 249h130z" />
    <glyph glyph-name="quotesinglbase" unicode="&#x201a;" horiz-adv-x="271" 
d="M123 -131h-93l64 249h130z" />
    <glyph glyph-name="quotedblleft" unicode="&#x201c;" horiz-adv-x="455" 
d="M273 451h-130l101 249h89zM462 451h-130l101 249h93z" />
    <glyph glyph-name="quotedblright" unicode="&#x201d;" horiz-adv-x="455" 
d="M235 451h-93l64 249h130zM424 451h-89l60 249h130z" />
    <glyph glyph-name="quotedblbase" unicode="&#x201e;" horiz-adv-x="465" 
d="M128 -131h-94l65 249h130zM317 -131h-89l60 249h130z" />
    <glyph glyph-name="dagger" unicode="&#x2020;" horiz-adv-x="454" 
d="M245 418h-121l20 108h121l32 174h119l-32 -174h122l-20 -108h-122l-78 -418h-119z" />
    <glyph glyph-name="daggerdbl" unicode="&#x2021;" horiz-adv-x="454" 
d="M196 161h-120l20 107h120l31 164h-121l20 107h121l30 161h118l-30 -161h124l-20 -107h-124l-30 -164h123l-20 -107h-123l-30 -161h-118z" />
    <glyph glyph-name="bullet" unicode="&#x2022;" horiz-adv-x="464" 
d="M114 277q0 81 62 143q64 62 145 62q63 0 103 -39.5t40 -99.5q2 -79 -62.5 -143t-144.5 -62q-64 0 -103.5 39t-39.5 100z" />
    <glyph glyph-name="uni202F" unicode="&#x202f;" horiz-adv-x="189" 
 />
    <glyph glyph-name="perthousand" unicode="&#x2030;" horiz-adv-x="1161" 
d="M149 455l23 126q11 61 54 96.5t108 35.5q62 0 94.5 -37t21.5 -95l-23 -126q-12 -62 -54.5 -97t-106.5 -35q-61 0 -94 36.5t-23 95.5zM246 26l-67 56l531 597l67 -56zM261 579l-22 -122q-5 -22 6.5 -37t33.5 -15q48 0 60 52l23 122q4 22 -8.5 36.5t-33.5 14.5
q-47 0 -59 -51zM506 119l23 126q11 61 54 96.5t108 35.5q61 0 93.5 -36.5t21.5 -95.5l-23 -126q-12 -62 -54.5 -97t-107.5 -35q-60 0 -93 37t-22 95zM618 243l-23 -122q-4 -22 7.5 -37t32.5 -15q48 0 60 52l23 122q4 21 -8.5 36t-33.5 15q-23 0 -38.5 -14t-19.5 -37z
M840 119l23 126q11 61 54 96.5t108 35.5q61 0 94 -36.5t22 -95.5l-23 -126q-12 -61 -54.5 -96.5t-107.5 -35.5q-60 0 -93 36.5t-23 95.5zM952 243l-23 -122q-4 -22 7.5 -37t33.5 -15q23 0 39 14.5t20 37.5l23 122q4 21 -8 36t-33 15q-47 0 -59 -51z" />
    <glyph glyph-name="guilsinglleft" unicode="&#x2039;" horiz-adv-x="326" 
d="M283 94l-175 166l12 64l236 166l-25 -125l-109 -77l-2 -6l82 -77z" />
    <glyph glyph-name="guilsinglright" unicode="&#x203a;" horiz-adv-x="326" 
d="M313 260l-235 -166l25 125l109 77l2 6l-82 77l19 111l174 -166z" />
    <glyph glyph-name="fraction" unicode="&#x2044;" horiz-adv-x="504" 
d="M104 -41h-113l536 782h113z" />
    <glyph glyph-name="uni205F" unicode="&#x205f;" horiz-adv-x="236" 
 />
    <glyph glyph-name="Euro" unicode="&#x20ac;" horiz-adv-x="607" 
d="M114 243h-49l14 76h49l11 58h-49l14 77h49l5 30q18 105 98 168t182 61q105 0 160 -67q56 -66 36 -171h-131q9 50 -15.5 81.5t-71.5 31.5q-49 0 -83 -31t-43 -82l-4 -21h147l-14 -77h-149l-10 -58h148l-14 -76h-151l-3 -18q-10 -50 15 -81.5t73 -31.5q49 0 84 30.5
t45 81.5h131q-21 -113 -95 -175t-186 -62q-96 0 -156.5 62.5t-41.5 166.5z" />
    <glyph glyph-name="uni2116" unicode="&#x2116;" horiz-adv-x="1171" 
d="M209 0h-130l130 700h137l219 -479h6l89 479h129l-130 -700h-137l-218 479h-6zM1128 197h-335l20 110h336zM839 500q-2 84 64 149t153 64q69 0 110.5 -40.5t41.5 -104.5q0 -86 -64 -149q-63 -63 -154 -63q-68 0 -109.5 40t-41.5 104zM941 518q0 -28 18.5 -46.5t48.5 -18.5
q40 0 69 29t29 68q0 29 -18.5 47.5t-49.5 18.5q-38 0 -68 -30q-29 -29 -29 -68z" />
    <glyph glyph-name="trademark" unicode="&#x2122;" horiz-adv-x="849" 
d="M258 618h-91l15 82h275l-16 -82h-90l-52 -278h-92zM536 340h-90l66 360h95l64 -225h6l147 225h102l-67 -360h-90l35 190h-5l-123 -190h-48l-53 190h-5z" />
    <glyph glyph-name="arrowleft" unicode="&#x2190;" horiz-adv-x="814" 
d="M470 -75l-301 299v91l301 300l83 -83l-187 -187v-6h534v-137h-534v-6l187 -187z" />
    <glyph glyph-name="arrowup" unicode="&#x2191;" horiz-adv-x="770" 
d="M203 347l-83 84l300 300h91l299 -300l-84 -84l-187 188h-6v-535h-137v535h-6z" />
    <glyph glyph-name="arrowright" unicode="&#x2192;" horiz-adv-x="814" 
d="M721 202h-535v137h535v6l-187 187l83 83l300 -300v-91l-300 -299l-83 84l187 187v6z" />
    <glyph glyph-name="arrowdown" unicode="&#x2193;" horiz-adv-x="770" 
d="M420 -31l-300 300l83 84l187 -188h6v535h137v-535h6l187 188l84 -84l-299 -300h-91z" />
    <glyph glyph-name="uni2196" unicode="&#x2196;" horiz-adv-x="666" 
d="M53 168l-1 424l64 64h424l1 -118l-265 1l-4 -5l378 -378l-97 -97l-378 378l-4 -4v-265h-118z" />
    <glyph glyph-name="uni2197" unicode="&#x2197;" horiz-adv-x="666" 
d="M274 59l-97 97l378 378l-4 5l-265 -1v118h425l64 -64l-1 -424h-118v265l-4 4z" />
    <glyph glyph-name="uni2198" unicode="&#x2198;" horiz-adv-x="665" 
d="M495 97l-378 379l97 97l378 -378l4 4v265l118 -1v-425l-64 -63l-424 1v118l265 -1z" />
    <glyph glyph-name="uni2199" unicode="&#x2199;" horiz-adv-x="665" 
d="M125 38l-1 425l119 1l-1 -265l4 -4l378 378l97 -97l-378 -379l5 -4l264 1v-118l-423 -1z" />
    <glyph glyph-name="minus" unicode="&#x2212;" horiz-adv-x="494" 
d="M537 260h-484l19 103h484z" />
    <glyph glyph-name="uni25FC" unicode="&#x25fc;" horiz-adv-x="525" 
d="M525 0h-525v525h525v-525z" />
    <glyph glyph-name="_1" horiz-adv-x="0" 
 />
    <glyph glyph-name="CR" horiz-adv-x="333" 
 />
    <glyph glyph-name="i.loclTRK" horiz-adv-x="263" 
d="M102 141l71 385h130l-68 -369q-5 -21 4.5 -33t28.5 -12h22l-21 -112h-55q-66 0 -95 37t-17 104zM184 656q0 36 27.5 63.5t65.5 27.5q30 0 48 -16.5t18 -43.5q0 -38 -27.5 -64.5t-66.5 -26.5q-30 0 -47.5 16t-17.5 44z" />
    <glyph glyph-name="zero.tf" horiz-adv-x="613" 
d="M108 216l49 268q19 106 96 168q76 61 181 61q96 0 157.5 -62.5t43.5 -166.5l-50 -268q-19 -106 -97 -169q-76 -60 -180 -60q-96 0 -157.5 62.5t-42.5 166.5zM287 475l-46 -250q-10 -50 15 -81.5t71 -31.5q50 0 84.5 31t43.5 82l47 250q9 50 -16 81.5t-71 31.5
q-49 0 -83.5 -31t-44.5 -82z" />
    <glyph glyph-name="one.tf" horiz-adv-x="613" 
d="M426 496h-166l19 99q94 0 139 25t55 80h123l-130 -700h-132z" />
    <glyph glyph-name="two.tf" horiz-adv-x="613" 
d="M537 0h-462l21 113q13 68 53 116.5t120 92.5l144 80q83 46 83 115q0 34 -23 54t-64 20q-47 0 -80 -28t-40 -70h-124q14 92 84.5 156t181.5 64q92 0 147 -50q54 -49 54 -125q0 -144 -168 -236l-147 -81q-42 -24 -60.5 -45t-22.5 -48l-2 -11h327z" />
    <glyph glyph-name="three.tf" horiz-adv-x="613" 
d="M109 208h123q-6 -41 18.5 -68t71.5 -27q54 0 92 36q38 38 38 90q0 37 -25.5 61t-69.5 24h-93l19 103l177 148l2 7h-270l22 118h438l-22 -116l-185 -151l-1 -6q66 -9 105 -54t39 -111q0 -123 -80.5 -198.5t-205.5 -75.5q-107 0 -157.5 66t-35.5 154z" />
    <glyph glyph-name="four.tf" horiz-adv-x="613" 
d="M380 141h-305l21 109l273 450h139l-263 -436l-1 -6h158l28 149h131l-27 -149h78l-22 -117h-78l-26 -141h-132z" />
    <glyph glyph-name="five.tf" horiz-adv-x="613" 
d="M106 203h123q-5 -41 19.5 -66t72.5 -25q54 0 94 40t40 94q0 39 -26 63t-71 24q-60 0 -101 -47h-125l104 414h396l-22 -118h-282l-43 -169h5q54 36 116 36q83 0 133 -53q51 -52 51 -130q3 -114 -81.5 -197.5t-205.5 -81.5q-102 0 -157 61q-54 61 -40 155z" />
    <glyph glyph-name="six.tf" horiz-adv-x="613" 
d="M98 187q0 89 64 174l254 339h153l-200 -252l4 -4q21 8 44 8q73 0 127 -47.5t54 -131.5q0 -121 -84 -203.5t-210 -82.5q-88 0 -147 57t-59 143zM233 201q0 -39 25.5 -64t67.5 -25q55 0 95 40q41 41 41 96q0 40 -26 65.5t-68 25.5q-54 0 -94 -42q-41 -41 -41 -96z" />
    <glyph glyph-name="seven.tf" horiz-adv-x="613" 
d="M292 0h-149l351 575l1 7h-308l22 118h455l-21 -113z" />
    <glyph glyph-name="eight.tf" horiz-adv-x="613" 
d="M91 166q0 65 38.5 118.5t105.5 86.5l2 7q-58 42 -58 115q0 93 74 156.5t184 63.5q84 0 138 -45q55 -43 55 -114q0 -54 -30 -101t-82 -75l-2 -7q80 -45 80 -134q0 -108 -80 -179t-212 -71q-95 0 -154 50t-59 129zM228 187q0 -37 26.5 -59.5t71.5 -22.5q56 0 96 35
q40 36 40 87q0 38 -27.5 60.5t-70.5 22.5q-56 0 -96 -36t-40 -87zM306 494q0 -31 22 -51.5t57 -20.5q46 0 78.5 31t32.5 74q0 31 -21.5 50.5t-57.5 19.5q-47 0 -79 -30t-32 -73z" />
    <glyph glyph-name="nine.tf" horiz-adv-x="613" 
d="M144 427q0 121 84.5 203.5t209.5 82.5q88 0 147 -57q60 -56 60 -143q0 -86 -64 -174l-254 -339h-154l201 252l-4 4q-19 -8 -44 -8q-73 0 -127.5 47.5t-54.5 131.5zM281 452q0 -40 25.5 -65.5t67.5 -25.5q54 0 95 41t41 97q0 39 -26 64t-68 25q-54 0 -95 -41
q-40 -40 -40 -95z" />
    <glyph glyph-name="caron.Slovak" horiz-adv-x="217" 
d="M236 504h-93l37 196h117z" />
    <glyph glyph-name="NULL" horiz-adv-x="0" 
 />
    </font>
</defs>
</svg>
