<?xml version="1.0" standalone="no"?>
<!DOCTYPE svg PUBLIC "-//W3C//DTD SVG 1.1//EN" "http://www.w3.org/Graphics/SVG/1.1/DTD/svg11.dtd" >
<svg xmlns="http://www.w3.org/2000/svg" xmlns:xlink="http://www.w3.org/1999/xlink" version="1.1">
<metadata>
Created by FontForge 20170731 at Fri Sep  7 20:26:16 2018
 By Aleksey,,,
Copyright (c) 2018 by atipo. All rights reserved. |DCNT
</metadata>
<defs>
<font id="Silka-Thin" horiz-adv-x="662" >
  <font-face 
    font-family="Silka Thin"
    font-weight="250"
    font-stretch="normal"
    units-per-em="1000"
    panose-1="0 0 5 0 0 0 0 0 0 0"
    ascent="750"
    descent="-250"
    x-height="520"
    cap-height="700"
    bbox="-119 -243 1093 943"
    underline-thickness="50"
    underline-position="-399"
    unicode-range="U+000D-25FC"
  />
<missing-glyph horiz-adv-x="568" 
d="M534 0h-500v700h500v-700zM84 605v-510l170 255zM284 305l-170 -255h340zM454 650h-340l170 -255zM484 605l-170 -255l170 -255v510z" />
    <glyph glyph-name="ellipsis" unicode="&#x2e;&#x2e;&#x2e;" horiz-adv-x="735" 
d="M110 12q0 11 7 18.5t18 7.5t18.5 -7.5t7.5 -18.5t-7.5 -18t-18.5 -7q-25 0 -25 25zM342 12q0 11 7 18.5t18 7.5t18.5 -7.5t7.5 -18.5t-7.5 -18t-18.5 -7q-25 0 -25 25zM574 12q0 11 7 18.5t18 7.5t18.5 -7.5t7.5 -18.5t-7.5 -18t-18.5 -7q-25 0 -25 25z" />
    <glyph glyph-name="degree.alt" unicode="&#xb0;C" horiz-adv-x="1008" 
d="M70 566q0 62 41 105q41 42 105 42q66 0 106 -42q41 -41 41 -104q0 -65 -41 -106t-107 -41q-65 0 -105 40.5t-40 105.5zM80 566q0 -60 38 -98t98 -38q61 0 99 38.5t38 98.5q0 59 -38.5 97.5t-98.5 38.5t-98 -38.5t-38 -98.5zM461 199v302q0 100 58.5 156t147.5 56
q96 0 151 -58.5t55 -163.5h-10q0 99 -52.5 155.5t-143.5 56.5q-85 0 -141 -54q-55 -52 -55 -153v-292q0 -100 55 -154q56 -53 141 -53q92 0 144 56t52 157h10q0 -105 -55 -164t-151 -59q-89 0 -148 56q-58 55 -58 156z" />
    <glyph glyph-name=".notdef" horiz-adv-x="568" 
d="M534 0h-500v700h500v-700zM84 605v-510l170 255zM284 305l-170 -255h340zM454 650h-340l170 -255zM484 605l-170 -255l170 -255v510z" />
    <glyph glyph-name=".null" horiz-adv-x="0" 
 />
    <glyph glyph-name="nonmarkingreturn" horiz-adv-x="333" 
 />
    <glyph glyph-name="CR.001" unicode="&#xd;" horiz-adv-x="0" 
 />
    <glyph glyph-name="space" unicode=" " horiz-adv-x="312" 
 />
    <glyph glyph-name="exclam" unicode="!" horiz-adv-x="311" 
d="M130 12q0 11 7 18.5t18 7.5t18.5 -7.5t7.5 -18.5t-7.5 -18t-18.5 -7q-25 0 -25 25zM152 156l-2 268v276h10v-276l-2 -268h-6z" />
    <glyph glyph-name="quotedbl" unicode="&#x22;" horiz-adv-x="342" 
d="M106 502l-6 198h22l-6 -198h-10zM226 502l-6 198h22l-6 -198h-10z" />
    <glyph glyph-name="numbersign" unicode="#" horiz-adv-x="571" 
d="M162 232h-92v10h94l32 215h-96v10h98l35 233h10l-35 -233h191l35 233h10l-35 -233h92v-10h-94l-32 -215h96v-10h-98l-35 -232h-10l35 232h-191l-35 -232h-10zM206 457l-32 -215h191l32 215h-191z" />
    <glyph glyph-name="dollar" unicode="$" horiz-adv-x="598" 
d="M65 198h10q0 -88 60 -144q62 -54 160 -57v365q-46 13 -68 20q-26 9 -61 27q-77 43 -77 134q0 73 56 121q56 47 150 49v53h10v-53q87 -2 147.5 -51.5t60.5 -141.5h-10q0 87 -58.5 134t-139.5 49v-333q58 -16 67 -19q26 -9 58 -24q38 -18 52 -35q46 -46 46 -119
q0 -78 -58.5 -132t-164.5 -54v-72h-10v72q-103 1 -167 59q-63 57 -63 152zM99 543q0 -67 46 -105q31 -25 67 -39q48 -17 83 -26v330q-89 0 -142 -46q-54 -45 -54 -114zM305 359v-362q102 2 157.5 51t55.5 125q0 72 -53 120q-14 13 -57 33q-12 6 -33 12q-46 15 -70 21z" />
    <glyph glyph-name="percent" unicode="%" horiz-adv-x="807" 
d="M80 450v136q0 57 34 92t90 35t90 -35t34 -92v-136q0 -57 -34 -92t-90 -35t-90 35t-34 92zM90 585v-134q0 -54 31.5 -86t82.5 -32t82.5 32t31.5 86v134q0 53 -31.5 85.5t-82.5 32.5t-82.5 -32.5t-31.5 -85.5zM183 26l-10 5l453 643l9 -5zM479 114v136q0 57 34 92t90 35
t90 -35t34 -92v-136q0 -57 -34 -92t-90 -35t-90 35t-34 92zM489 249v-134q0 -54 31.5 -86t82.5 -32t82.5 32t31.5 86v134q0 53 -31.5 85.5t-82.5 32.5t-82.5 -32.5t-31.5 -85.5z" />
    <glyph glyph-name="ampersand" unicode="&#x26;" horiz-adv-x="644" 
d="M65 171q0 62 36 107.5t114 80.5l6 3l-11 12q-38 46 -52 67q-32 55 -32 111q0 65 45.5 113t123.5 48q74 0 118.5 -42t45.5 -109q1 -47 -26.5 -87.5t-84.5 -66.5l-112 -51l244 -286q60 54 83 141q22 84 2 173h10q21 -90 -3 -177q-22 -85 -85 -145l54 -63h-14l-48 56
q-81 -69 -195 -69q-91 0 -155 49.5t-64 134.5zM75 171q0 -78 62 -126t147 -48q112 0 189 67l-246 289l-7 -3q-145 -66 -145 -179zM136 552q0 -56 28 -101q15 -24 24 -36l29 -35l12 -15l113 51q107 50 107 146q0 61 -42 101t-112 40q-74 0 -116.5 -45t-42.5 -106z" />
    <glyph glyph-name="quotesingle" unicode="'" horiz-adv-x="222" 
d="M106 502l-6 198h22l-6 -198h-10z" />
    <glyph glyph-name="parenleft" unicode="(" horiz-adv-x="452" 
d="M347 763l5 -9q-121 -62 -199 -178t-78 -266t78 -266t199 -178l-5 -9q-126 67 -204 182.5t-78 270.5t78 270.5t204 182.5z" />
    <glyph glyph-name="parenright" unicode=")" horiz-adv-x="452" 
d="M105 -143l-5 9q121 62 199 178t78 266t-78 266t-199 178l5 9q126 -67 204 -182.5t78 -270.5t-78 -270.5t-204 -182.5z" />
    <glyph glyph-name="asterisk" unicode="*" horiz-adv-x="522" 
d="M250 526l-160 -7v20l160 -7l1 3l-118 108l14 14l108 -118l3 1l-7 160h20l-7 -160l3 -1l108 118l14 -14l-118 -108l1 -3l160 7v-20l-160 7l-1 -3l118 -108l-14 -14l-108 118l-3 -1l7 -160h-20l7 160l-3 1l-108 -118l-14 14l118 108z" />
    <glyph glyph-name="plus" unicode="+" horiz-adv-x="480" 
d="M235 307h-230v10h230v241h10v-241h230v-10h-230v-243h-10v243z" />
    <glyph glyph-name="comma" unicode="," horiz-adv-x="266" 
d="M116 -131h-10l17 164h29z" />
    <glyph glyph-name="hyphen" unicode="-" horiz-adv-x="395" 
d="M325 288h-255v10h255v-10z" />
    <glyph glyph-name="period" unicode="." horiz-adv-x="273" 
d="M111 12q0 11 7 18.5t18 7.5t18.5 -7.5t7.5 -18.5t-7.5 -18t-18.5 -7q-25 0 -25 25z" />
    <glyph glyph-name="slash" unicode="/" horiz-adv-x="483" 
d="M95 -108h-10l303 858h10z" />
    <glyph glyph-name="zero" unicode="0" horiz-adv-x="622" 
d="M105 199v302q0 100 58.5 156t147.5 56t147.5 -56t58.5 -156v-302q0 -100 -59 -156t-147 -56q-89 0 -148 56q-58 55 -58 156zM115 496v-292q0 -100 55 -154q56 -53 141 -53t141 53q55 54 55 154v292q0 101 -55 153q-56 54 -141 54t-141 -54q-55 -52 -55 -153z" />
    <glyph glyph-name="one" unicode="1" horiz-adv-x="440" 
d="M260 575h-160v10q51 0 76 1q5 0 11.5 0.5t10.5 1t6 0.5q25 2 35 12q14 11 16 25q6 37 5 75h10v-700h-10v575z" />
    <glyph glyph-name="two" unicode="2" horiz-adv-x="586" 
d="M100 518h-10q0 79 55 137t153 58q90 0 146 -54t56 -133q0 -64 -30 -107.5t-98 -83.5l-160 -94q-58 -34 -84.5 -73t-26.5 -98v-60h405v-10h-415v70q0 64 27.5 104.5t86.5 74.5l159 94q68 39 97 81t29 102q0 75 -53 126t-139 51q-93 0 -145.5 -55.5t-52.5 -129.5z" />
    <glyph glyph-name="three" unicode="3" horiz-adv-x="610" 
d="M90 183h10q2 -68 59.5 -126.5t147.5 -58.5q103 0 158 61t55 151t-64 148q-65 59 -161 59h-10v21l208 246v6h-387v10h397v-21l-208 -246v-6q102 0 168 -63q67 -61 67 -154q0 -95 -58 -158.5t-165 -63.5q-94 0 -155.5 62.5t-61.5 132.5z" />
    <glyph glyph-name="four" unicode="4" horiz-adv-x="612" 
d="M420 177h-345v18l223 505h10l-223 -507v-6h335v200h10v-200h82v-10h-82v-177h-10v177z" />
    <glyph glyph-name="five" unicode="5" horiz-adv-x="608" 
d="M85 172h10q9 -79 66 -127t139 -48q90 0 152 65q61 64 61 159q2 85 -61.5 151.5t-154.5 65.5q-39 0 -72 -10.5t-54 -27t-32.5 -28.5t-18.5 -23h-19l22 351h356v-10h-347l-22 -331h6q14 18 27 31q62 58 154 58q97 1 162.5 -67.5t63.5 -159.5q0 -99 -63 -167
q-63 -67 -160 -67q-89 0 -148 50q-60 52 -67 135z" />
    <glyph glyph-name="six" unicode="6" horiz-adv-x="638" 
d="M90 218q0 62 36 131l187 351h11l-167 -313l5 -4q63 64 158 64q99 0 164 -65q64 -64 64 -164q0 -98 -66 -165q-64 -66 -164 -66t-164 66q-64 65 -64 165zM100 218q0 -95 63 -158q65 -63 155 -63q94 -1 158 66t62 155q0 95 -61 156q-60 63 -157 63q-89 2 -155.5 -65
t-64.5 -154z" />
    <glyph glyph-name="seven" unicode="7" horiz-adv-x="550" 
d="M470 690h-400v10h410v-18l-252 -682h-11l253 684v6z" />
    <glyph glyph-name="eight" unicode="8" horiz-adv-x="628" 
d="M90 182q0 81 48.5 128t117.5 60v6q-65 17 -100.5 60t-35.5 104q0 77 54 125q55 48 140 48q84 0 139 -48t55 -125q0 -61 -35.5 -104t-100.5 -60v-6q68 -13 117 -60.5t49 -127.5q0 -86 -61 -141q-61 -54 -163 -54t-163 54q-61 55 -61 141zM100 182q0 -81 59 -134
q60 -51 155 -51q96 0 154 51q60 52 60 134q0 83 -61 134q-60 51 -153 51q-92 0 -154 -51q-60 -51 -60 -134zM130 540q0 -42 18 -75t47 -51.5t59.5 -27.5t59.5 -9t59.5 9t59.5 27.5t47 51.5t18 75q0 72 -52 117q-52 46 -132 46t-132 -46q-52 -45 -52 -117z" />
    <glyph glyph-name="nine" unicode="9" horiz-adv-x="638" 
d="M90 482q0 97 65 164q66 67 164 67q99 0 164 -66q65 -67 65 -165q0 -64 -36 -131l-187 -351h-11l167 313l-5 4q-61 -64 -158 -64q-99 0 -164 65q-64 64 -64 164zM100 482q0 -96 60 -157q62 -62 158 -62q92 0 156 64t64 155q0 94 -64 157q-63 64 -154 64q-96 0 -158 -65.5
t-62 -155.5z" />
    <glyph glyph-name="colon" unicode=":" horiz-adv-x="273" 
d="M111 12q0 11 7 18.5t18 7.5t18.5 -7.5t7.5 -18.5t-7.5 -18t-18.5 -7q-25 0 -25 25zM111 461q0 11 7 18.5t18 7.5t18.5 -7.5t7.5 -18.5t-7.5 -18t-18.5 -7q-25 0 -25 25z" />
    <glyph glyph-name="semicolon" unicode=";" horiz-adv-x="273" 
d="M116 -131h-10l17 164h29zM111 461q0 11 7 18.5t18 7.5t18.5 -7.5t7.5 -18.5t-7.5 -18t-18.5 -7q-25 0 -25 25z" />
    <glyph glyph-name="less" unicode="&#x3c;" horiz-adv-x="546" 
d="M461 105l-376 199v17l376 198v-11l-366 -192v-6l366 -195v-10z" />
    <glyph glyph-name="equal" unicode="=" horiz-adv-x="480" 
d="M475 201h-470v10h470v-10zM475 403h-470v10h470v-10z" />
    <glyph glyph-name="greater" unicode="&#x3e;" horiz-adv-x="557" 
d="M461 304l-376 -199v10l366 195v6l-366 192v11l376 -198v-17z" />
    <glyph glyph-name="question" unicode="?" horiz-adv-x="547" 
d="M90 525h-10q0 78 50.5 133t144.5 55q89 0 140.5 -48.5t51.5 -128.5q0 -49 -27 -82q-17 -23 -56 -54l-75 -56q-30 -22 -42 -44t-12 -55v-89h-10v89q0 36 12.5 59.5t45.5 47.5l75 57q41 31 60 60t19 67q0 75 -49 121t-133 46q-90 0 -137.5 -52t-47.5 -126zM225 12
q0 11 7 18.5t18 7.5t18.5 -7.5t7.5 -18.5t-7.5 -18t-18.5 -7q-25 0 -25 25z" />
    <glyph glyph-name="at" unicode="@" horiz-adv-x="915" 
d="M60 263q0 177 112 295t288 118q175 0 285 -109t110 -266q0 -239 -128 -239q-49 0 -76.5 32.5t-27.5 92.5h-4q-15 -57 -59.5 -91.5t-107.5 -34.5q-83 1 -132 55.5t-49 144.5t49 144.5t132 54.5q64 0 108 -34t59 -92h4v116h10v-263q0 -115 94 -115q60 0 89 55t29 174
q0 151 -107 258t-278 107q-172 1 -281.5 -115.5t-108.5 -287.5q0 -173 113.5 -285.5t289.5 -112.5h167v-10h-167q-178 -2 -297 115.5t-116 292.5zM452 71q78 0 124 54q47 55 47 136q0 82 -47 135q-46 54 -124 54q-77 2 -124 -52q-47 -53 -47 -137q0 -85 47 -138
q46 -52 124 -52z" />
    <glyph glyph-name="A" unicode="A" horiz-adv-x="670" 
d="M52 0h-12l285 700h20l285 -700h-12l-84 203h-398zM332 690l-192 -477h390l-192 477h-6z" />
    <glyph glyph-name="B" unicode="B" horiz-adv-x="632" 
d="M356 0h-221v700h221q83 0 132.5 -49t49.5 -130q0 -50 -31.5 -93t-81.5 -61v-6q53 -14 95 -57t42 -114q0 -91 -58.5 -140.5t-147.5 -49.5zM145 358v-349h211q84 0 140 47q56 48 56 134q0 70 -51 119q-50 49 -128 49h-228zM145 690v-322h228q61 0 108 45q47 47 47 108
q0 76 -47 122.5t-125 46.5h-211z" />
    <glyph glyph-name="C" unicode="C" horiz-adv-x="801" 
d="M60 350q0 153 100 258t251 105q117 0 205 -66q89 -65 125 -171h-10q-36 102 -122 164q-85 63 -198 63q-145 2 -244.5 -101.5t-96.5 -251.5q-2 -150 96.5 -252.5t244.5 -100.5q111 0 197 62q86 61 123 165h10q-34 -105 -124 -172q-89 -65 -206 -65q-151 0 -251 104
t-100 259z" />
    <glyph glyph-name="D" unicode="D" horiz-adv-x="711" 
d="M300 0h-165v700h165q150 2 252 -99.5t99 -250.5q0 -153 -99 -251.5t-252 -98.5zM145 690v-680h155q149 0 245 95t96 245q3 145 -96 244t-245 96h-155z" />
    <glyph glyph-name="E" unicode="E" horiz-adv-x="572" 
d="M492 0h-357v700h357v-10h-347v-328h302v-10h-302v-342h347v-10z" />
    <glyph glyph-name="F" unicode="F" horiz-adv-x="562" 
d="M145 0h-10v700h357v-10h-347v-338h322v-10h-322v-342z" />
    <glyph glyph-name="G" unicode="G" horiz-adv-x="815" 
d="M60 350q0 153 100 258t251 105q117 0 205 -66q89 -65 125 -171h-10q-36 102 -122 164q-85 63 -198 63q-145 2 -244.5 -101.5t-96.5 -251.5q-2 -150 96.5 -252.5t244.5 -100.5q128 1 210.5 71.5t111.5 176.5q12 47 12 93v4h-343v10h353v-9q0 -99 -42 -178
q-43 -84 -123 -131t-179 -47q-151 0 -251 104t-100 259z" />
    <glyph glyph-name="H" unicode="H" horiz-adv-x="740" 
d="M145 0h-10v700h10v-337h450v337h10v-700h-10v353h-450v-353z" />
    <glyph glyph-name="I" unicode="I" horiz-adv-x="280" 
d="M145 0h-10v700h10v-700z" />
    <glyph glyph-name="J" unicode="J" horiz-adv-x="582" 
d="M60 167h10q7 -80 59 -125t134 -45q92 0 143 54.5t51 143.5v495h-295v10h305v-505q0 -95 -55 -151.5t-152 -56.5q-85 0 -139 48t-61 132z" />
    <glyph glyph-name="K" unicode="K" horiz-adv-x="595" 
d="M145 0h-10v700h10v-432h6l385 432h14l-262 -293l267 -407h-13l-261 398l-136 -152v-246z" />
    <glyph glyph-name="L" unicode="L" horiz-adv-x="530" 
d="M460 0h-325v700h10v-690h315v-10z" />
    <glyph glyph-name="M" unicode="M" horiz-adv-x="910" 
d="M145 0h-10v700h22l295 -690h6l295 690h22v-700h-10v690h-6l-295 -690h-18l-295 690h-6v-690z" />
    <glyph glyph-name="N" unicode="N" horiz-adv-x="740" 
d="M145 0h-10v700h22l432 -690h6v690h10v-700h-21l-433 690h-6v-690z" />
    <glyph glyph-name="O" unicode="O" horiz-adv-x="826" 
d="M60 350q0 153 101 258t252 105q152 0 252.5 -105.5t100.5 -257.5q0 -153 -100.5 -258t-252.5 -105t-252.5 104t-100.5 259zM70 350q-2 -150 97.5 -252.5t245.5 -100.5q146 -2 245.5 100.5t97.5 252.5q0 150 -97.5 251.5t-245.5 101.5q-145 3 -245.5 -101.5t-97.5 -251.5z
" />
    <glyph glyph-name="P" unicode="P" horiz-adv-x="628" 
d="M145 0h-10v700h214q94 0 151.5 -54.5t57.5 -146.5q0 -89 -59 -145t-150 -56h-204v-298zM145 690v-382h204q87 0 143 53q56 54 56 138q0 87 -55 139t-144 52h-204z" />
    <glyph glyph-name="Q" unicode="Q" horiz-adv-x="826" 
d="M60 350q0 153 101 258t252 105q152 0 252.5 -105.5t100.5 -257.5q0 -143 -93 -249l89 -101h-11l-84 94q-101 -107 -254 -107q-152 0 -252.5 104t-100.5 259zM70 350q-2 -150 97.5 -252.5t245.5 -100.5q151 0 249 104l-175 197h12l168 -191q89 101 89 243
q0 150 -97.5 251.5t-245.5 101.5q-145 3 -245.5 -101.5t-97.5 -251.5z" />
    <glyph glyph-name="R" unicode="R" horiz-adv-x="622" 
d="M145 0h-10v700h214q95 0 152 -51.5t57 -142.5q0 -80 -46.5 -132.5t-125.5 -63.5l189 -310h-13l-186 308h-231v-308zM145 690v-372h204q87 0 143 51q56 53 56 137q0 86 -54 135t-145 49h-204z" />
    <glyph glyph-name="S" unicode="S" horiz-adv-x="598" 
d="M65 198h10q0 -90 62 -146q62 -55 165 -55q100 0 158 49t58 127q0 51 -23.5 86.5t-61.5 54.5t-83.5 32.5t-91.5 26.5t-84 31.5t-61.5 53t-23.5 85.5q0 74 57 122q59 48 152 48q88 0 151.5 -49t63.5 -144h-10q0 90 -61.5 136.5t-144.5 46.5q-89 0 -144 -45
q-54 -45 -54 -115q0 -48 23.5 -81t61.5 -50.5t84 -30.5t91.5 -27t83.5 -33.5t61.5 -57t23.5 -90.5q0 -79 -59.5 -132.5t-166.5 -53.5q-108 0 -172 57q-65 59 -65 154z" />
    <glyph glyph-name="T" unicode="T" horiz-adv-x="560" 
d="M275 690h-225v10h460v-10h-225v-690h-10v690z" />
    <glyph glyph-name="U" unicode="U" horiz-adv-x="710" 
d="M125 212v488h10v-488q0 -102 60 -159q62 -56 156 -56q95 0 160 57q64 57 64 158v488h10v-488q0 -105 -67.5 -165t-166.5 -60q-101 0 -163 58q-63 59 -63 167z" />
    <glyph glyph-name="V" unicode="V" horiz-adv-x="650" 
d="M314 0l-274 700h12l270 -690h6l270 690h12l-274 -700h-22z" />
    <glyph glyph-name="W" unicode="W" horiz-adv-x="930" 
d="M230 0l-190 700h12l186 -690h6l210 690h22l210 -690h6l186 690h12l-190 -700h-22l-210 690h-6l-210 -690h-22z" />
    <glyph glyph-name="X" unicode="X" horiz-adv-x="596" 
d="M44 0h-14l252 356l-242 344h12l238 -339h6l238 339h12l-242 -344l252 -356h-14l-246 351h-6z" />
    <glyph glyph-name="Y" unicode="Y" horiz-adv-x="598" 
d="M294 300l-254 400h12l244 -386h6l244 386h12l-254 -400v-300h-10v300z" />
    <glyph glyph-name="Z" unicode="Z" horiz-adv-x="610" 
d="M540 0h-470v19l460 661v10h-450v10h460v-24l-460 -660v-6h460v-10z" />
    <glyph glyph-name="bracketleft" unicode="[" horiz-adv-x="383" 
d="M248 -143h-133v906h133v-10h-123v-886h123v-10z" />
    <glyph glyph-name="backslash" unicode="\" horiz-adv-x="483" 
d="M388 -108l-303 858h10l303 -858h-10z" />
    <glyph glyph-name="bracketright" unicode="]" horiz-adv-x="383" 
d="M135 -143v10h123v886h-123v10h133v-906h-133z" />
    <glyph glyph-name="asciicircum" unicode="^" horiz-adv-x="584" 
d="M105 318h-10l189 382h17l188 -382h-11l-182 372h-6z" />
    <glyph glyph-name="underscore" unicode="_" horiz-adv-x="670" 
d="M75 -59v10h520v-10h-520z" />
    <glyph glyph-name="grave" unicode="`" horiz-adv-x="252" 
d="M153 610l-73 133h23l60 -133h-10z" />
    <glyph glyph-name="a" unicode="a" 
d="M307 533q88 0 147.5 -47t81.5 -125h6v159h10v-520h-10v159h-6q-22 -78 -81.5 -125t-147.5 -47q-113 0 -180 75q-67 76 -67 198q0 123 67 197q67 76 180 76zM307 -3q109 0 172 74.5t63 188.5q2 111 -63 187.5t-172 75.5q-109 0 -173 -73t-64 -191q0 -117 64 -190
q64 -72 173 -72z" />
    <glyph glyph-name="b" unicode="b" horiz-adv-x="672" 
d="M130 0h-10v750h10v-389h6q22 78 82 125t147 47q114 0 180 -76q67 -74 67 -197q0 -122 -67 -198q-66 -75 -180 -75q-87 0 -147 47t-82 125h-6v-159zM365 -3q107 0 172 72q65 74 65 190q0 117 -65 191q-64 73 -172 73q-107 0 -171 -75t-64 -189q0 -112 64 -187t171 -75z
" />
    <glyph glyph-name="c" unicode="c" horiz-adv-x="632" 
d="M327 533q84 2 157 -50.5t88 -133.5h-10q-16 75 -84 125q-67 49 -151 49q-110 1 -185 -77.5t-72 -186.5q-3 -107 72 -185t185 -77q84 0 151 49q68 50 84 125h10q-15 -81 -88 -133.5t-157 -50.5q-114 0 -190.5 79t-76.5 194t76.5 194t190.5 79z" />
    <glyph glyph-name="d" unicode="d" 
d="M307 533q88 0 147.5 -47t81.5 -125h6v389h10v-750h-10v159h-6q-22 -78 -81.5 -125t-147.5 -47q-113 0 -180 75q-67 76 -67 198q0 123 67 197q67 76 180 76zM307 -3q109 0 172 74.5t63 188.5q2 111 -63 187.5t-172 75.5q-109 0 -173 -73t-64 -191q0 -117 64 -190
q64 -72 173 -72z" />
    <glyph glyph-name="e" unicode="e" horiz-adv-x="619" 
d="M60 260q0 122 72 197.5t178 75.5q116 0 182 -71q67 -70 67 -187v-21h-489q-1 -105 69 -181.5t175 -75.5q87 0 149 45q63 45 81 111h10q-21 -76 -86 -121t-155 -45q-108 -2 -181.5 78t-71.5 195zM70 264h479q0 120 -63.5 189.5t-175.5 69.5q-98 2 -169 -71.5t-71 -187.5z
" />
    <glyph glyph-name="f" unicode="f" horiz-adv-x="367" 
d="M140 510h-100v10h100v76q0 74 39 114t108 40h25v-10h-25q-64 0 -100.5 -38t-36.5 -107v-75h162v-10h-162v-510h-10v510z" />
    <glyph glyph-name="g" unicode="g" 
d="M307 533q88 0 147.5 -47t81.5 -125h6v159h10v-556q0 -97 -62 -152t-167 -55q-92 0 -145.5 39.5t-65.5 112.5h10q13 -69 65.5 -105.5t135.5 -36.5q100 0 159.5 52.5t59.5 144.5v195h-6q-22 -78 -81.5 -125t-147.5 -47q-113 0 -180 75q-67 76 -67 198q0 123 67 197
q67 76 180 76zM307 -3q109 0 172 74.5t63 188.5q2 111 -63 187.5t-172 75.5q-109 0 -173 -73t-64 -191q0 -117 64 -190q64 -72 173 -72z" />
    <glyph glyph-name="h" unicode="h" horiz-adv-x="636" 
d="M130 0h-10v750h10v-341h6q19 53 71 88.5t117 35.5q90 0 146 -53t56 -133v-347h-10v347q0 74 -53 125t-139 51q-85 0 -140 -58q-54 -57 -54 -134v-331z" />
    <glyph glyph-name="i" unicode="i" horiz-adv-x="240" 
d="M125 709q15 0 21.5 -11.5t0 -23t-21.5 -11.5q-14 0 -20 11.5t0 23t20 11.5zM130 0h-10v520h10v-520z" />
    <glyph glyph-name="j" unicode="j" horiz-adv-x="260" 
d="M0 -230v10h13q129 0 129 145v595h10v-595q0 -75 -35.5 -115t-104.5 -40h-12zM146 709q15 0 21.5 -11.5t0 -23t-21.5 -11.5q-22 0 -22 23t22 23z" />
    <glyph glyph-name="k" unicode="k" horiz-adv-x="523" 
d="M130 0h-10v750h10v-548h6l311 318h15l-205 -209l216 -311h-13l-210 303l-120 -122v-181z" />
    <glyph glyph-name="l" unicode="l" horiz-adv-x="268" 
d="M120 59v691h10v-691q0 -49 41 -49h17v-10h-18q-22 0 -36 16t-14 43z" />
    <glyph glyph-name="m" unicode="m" horiz-adv-x="976" 
d="M130 0h-10v520h10v-109h6q19 55 64.5 88.5t109.5 33.5q73 0 121 -36.5t63 -97.5h6q18 61 65 97.5t114 36.5q88 0 137 -52q50 -53 50 -131v-350h-10v350q0 74 -48 123q-47 50 -129 50q-81 0 -130 -57.5t-49 -134.5v-331h-10v350q0 73 -48 123t-132 50q-83 0 -131.5 -57.5
t-48.5 -134.5v-331z" />
    <glyph glyph-name="n" unicode="n" horiz-adv-x="630" 
d="M130 0h-10v520h10v-110h6q19 53 70 88t115 35q89 0 144 -53q55 -52 55 -133v-347h-10v347q0 74 -52 125t-137 51q-84 0 -138 -57q-53 -58 -53 -135v-331z" />
    <glyph glyph-name="o" unicode="o" horiz-adv-x="652" 
d="M326 533q110 2 189 -78.5t77 -194.5q0 -117 -76.5 -195t-189.5 -78q-110 -2 -189 78.5t-77 193.5q-2 115 76.5 195.5t189.5 78.5zM582 260q0 113 -73.5 188t-182.5 75q-71 0 -129.5 -34t-92.5 -95q-34 -59 -34 -134q0 -74 34 -135q34 -60 92.5 -94t129.5 -34
q107 -2 182.5 75t73.5 188z" />
    <glyph glyph-name="p" unicode="p" horiz-adv-x="672" 
d="M130 -230h-10v750h10v-159h6q22 78 82 125t147 47q114 0 180 -76q67 -74 67 -197q0 -122 -67 -198q-66 -75 -180 -75q-87 0 -147 47t-82 125h-6v-389zM365 -3q107 0 172 72q65 74 65 190q0 117 -65 191q-64 73 -172 73q-107 0 -171 -75t-64 -189q0 -112 64 -187t171 -75z
" />
    <glyph glyph-name="q" unicode="q" 
d="M307 533q88 0 147.5 -47t81.5 -125h6v159h10v-750h-10v389h-6q-22 -78 -81.5 -125t-147.5 -47q-113 0 -180 75q-67 76 -67 198q0 123 67 197q67 76 180 76zM70 260q0 -118 64 -191q64 -72 173 -72t172 74.5t63 188.5q2 111 -63 187.5t-172 75.5q-109 0 -173 -73t-64 -190
z" />
    <glyph glyph-name="r" unicode="r" horiz-adv-x="380" 
d="M130 0h-10v520h10v-122h6q18 54 61.5 88t104.5 34h28v-10h-28q-81 0 -126.5 -58.5t-45.5 -138.5v-313z" />
    <glyph glyph-name="s" unicode="s" horiz-adv-x="549" 
d="M80 134h10q3 -64 52.5 -100.5t126.5 -36.5q86 0 135.5 34t49.5 98q0 46 -26.5 75.5t-66.5 40t-86 21.5t-86 22t-66.5 40t-26.5 76q0 57 48.5 93t124.5 36q75 0 124 -37.5t55 -102.5h-10q-6 61 -53 95.5t-121 34.5q-69 0 -113.5 -33.5t-44.5 -85.5t37 -80.5t89.5 -39
t105 -22t89.5 -43.5t37 -90q0 -68 -52 -105t-143 -37q-84 0 -135 40t-54 107z" />
    <glyph glyph-name="t" unicode="t" horiz-adv-x="422" 
d="M170 510h-100v10h87q13 0 13 13v138h10v-151h162v-10h-162v-355q0 -69 37 -107t102 -38h23v-10h-23q-69 0 -109 41t-40 113v356z" />
    <glyph glyph-name="u" unicode="u" horiz-adv-x="620" 
d="M110 173v347h10v-347q0 -74 52 -125t137 -51t137 57q54 57 54 135v331h10v-520h-10v109h-6q-17 -50 -68 -86t-117 -36q-89 0 -145 53q-54 52 -54 133z" />
    <glyph glyph-name="v" unicode="v" horiz-adv-x="545" 
d="M263 0l-213 520h11l209 -510h6l208 510h11l-212 -520h-20z" />
    <glyph glyph-name="w" unicode="w" horiz-adv-x="859" 
d="M233 0l-183 520h11l179 -510h6l174 510h20l174 -510h6l178 510h11l-182 -520h-20l-174 510h-6l-174 -510h-20z" />
    <glyph glyph-name="x" unicode="x" horiz-adv-x="544" 
d="M83 0h-13l190 266l-180 254h13l176 -249h6l176 249h13l-180 -254l190 -266h-13l-186 261h-6z" />
    <glyph glyph-name="y" unicode="y" horiz-adv-x="565" 
d="M278 -9l-228 529h11l220 -510h6l217 510h11l-273 -642q-45 -108 -150 -108h-12v10h12q98 0 140 101z" />
    <glyph glyph-name="z" unicode="z" horiz-adv-x="528" 
d="M448 0h-368v20l358 484v6h-358v10h368v-20l-358 -484v-6h358v-10z" />
    <glyph glyph-name="braceleft" unicode="{" horiz-adv-x="468" 
d="M145 305h-25v10h25q45 0 45 57v292q0 99 89 99h44v-10h-45q-78 0 -78 -90v-291q0 -46 -28 -59v-6q28 -13 28 -60v-290q0 -90 78 -90h45v-10h-44q-89 0 -89 99v292q0 57 -45 57z" />
    <glyph glyph-name="bar" unicode="|" horiz-adv-x="290" 
d="M150 -206h-10v989h10v-989z" />
    <glyph glyph-name="braceright" unicode="}" horiz-adv-x="468" 
d="M145 -143v10h45q78 0 78 90v290q0 47 28 60v6q-28 13 -28 59v291q0 90 -78 90h-45v10h44q89 0 89 -99v-292q0 -57 45 -57h25v-10h-25q-45 0 -45 -57v-292q0 -99 -89 -99h-44z" />
    <glyph glyph-name="asciitilde" unicode="~" horiz-adv-x="451" 
d="M50 243h-10q0 38 26.5 65.5t65.5 27.5q41 0 94 -37t93 -37q35 0 58.5 25t23.5 58h10q0 -38 -26.5 -65.5t-65.5 -27.5q-41 0 -96 37t-90 37q-36 0 -59.5 -25t-23.5 -58z" />
    <glyph glyph-name="uni00A0" unicode="&#xa0;" horiz-adv-x="312" 
 />
    <glyph glyph-name="exclamdown" unicode="&#xa1;" horiz-adv-x="311" 
d="M130 535q0 25 25 25q11 0 18.5 -7t7.5 -18t-7.5 -18.5t-18.5 -7.5t-18 7.5t-7 18.5zM150 -153v276l2 268h6l2 -268v-276h-10z" />
    <glyph glyph-name="cent" unicode="&#xa2;" horiz-adv-x="632" 
d="M322 621v79h10v-79q83 1 154 -51.5t86 -132.5h-10q-16 75 -84 125q-67 49 -151 49q-110 1 -185 -77.5t-72 -185.5q-3 -107 72 -185.5t185 -77.5q84 0 151 49q68 50 84 125h10q-16 -80 -85.5 -131t-154.5 -53v-75h-10v75q-111 1 -187.5 80.5t-74.5 192.5
q-2 112 74.5 192.5t187.5 80.5z" />
    <glyph glyph-name="sterling" unicode="&#xa3;" horiz-adv-x="615" 
d="M529 0h-449v10h67v342h-58v10h58v149q0 91 54 146q54 56 143 56q87 0 134.5 -51.5t51.5 -115.5h-10q-3 58 -48.5 107.5t-127.5 49.5q-85 0 -136 -55q-51 -54 -51 -141v-145h229v-10h-229v-342h372v-10z" />
    <glyph glyph-name="yen" unicode="&#xa5;" horiz-adv-x="598" 
d="M285 314l-245 386h12l244 -386h6l244 386h12l-245 -386h175v-10h-181l-3 -4v-125h184v-10h-184v-165h-10v165h-184v10h184v125l-3 4h-181v10h175z" />
    <glyph glyph-name="section" unicode="&#xa7;" horiz-adv-x="536" 
d="M75 307q0 52 33 85.5t88 42.5v6q-30 17 -53 35q-51 46 -51 106q0 69 49 110t132 41q81 0 134 -47t53 -121h-10q0 71 -52 114q-52 44 -125 44q-78 0 -124.5 -38t-46.5 -103q0 -40 25 -73q9 -12 25 -26q24 -20 49 -34l156 -92q56 -34 80 -66.5t24 -79.5q0 -54 -33.5 -87.5
t-87.5 -38.5v-6q40 -24 52 -35q52 -40 52 -106q0 -69 -49 -110t-132 -41q-79 0 -134 47q-53 47 -53 121h10q0 -71 51 -114q53 -44 126 -44q78 0 124.5 38t46.5 103q0 76 -99 133l-156 92q-57 34 -80.5 65.5t-23.5 78.5zM85 307q0 -42 23.5 -73t76.5 -62l134 -79
q58 1 95 33.5t37 84.5q0 42 -24 74.5t-76 62.5l-134 79q-59 -4 -95.5 -37t-36.5 -83z" />
    <glyph glyph-name="dieresis" unicode="&#xa8;" horiz-adv-x="366" 
d="M80 674q0 12 9 21t21 9q13 0 21.5 -9t8.5 -21q0 -13 -8.5 -21.5t-21.5 -8.5q-12 0 -21 8.5t-9 21.5zM256 704q12 0 21 -9t9 -21q0 -13 -9 -21.5t-21 -8.5q-18 0 -26 15t0 30t26 15z" />
    <glyph glyph-name="copyright" unicode="&#xa9;" horiz-adv-x="832" 
d="M60 350q0 155 101.5 259t254.5 104t254.5 -104t101.5 -259q3 -151 -101.5 -258.5t-254.5 -104.5q-150 -3 -254.5 104.5t-101.5 258.5zM114 530q-44 -80 -44 -180q0 -99 44.5 -180t123.5 -127t178 -46q98 0 177.5 45.5t123.5 126.5q45 81 45 181t-44.5 180.5t-124.5 126.5
q-79 46 -177 46t-177.5 -46t-124.5 -127zM232 348q0 81 53 137q54 56 135 56q63 0 109.5 -35t61.5 -95h-10q-12 51 -57 86q-44 34 -104 34q-76 0 -127 -53q-51 -52 -51 -130t51 -131q51 -52 130 -52q61 0 103.5 32.5t55.5 87.5h10q-15 -62 -61 -96t-110 -34q-82 0 -136 55
q-53 56 -53 138z" />
    <glyph glyph-name="ordfeminine" unicode="&#xaa;" horiz-adv-x="523" 
d="M256 713q67 0 112 -34.5t61 -93.5h4v118h10l-2 -393h-8v118h-4q-18 -59 -62.5 -93.5t-110.5 -34.5q-86 0 -136 56.5t-50 150.5t50 150t136 56zM256 310q80 0 128 56q49 56 49 141q0 84 -49 139q-48 57 -128 57t-128 -55q-48 -54 -48 -142q0 -86 48 -142q48 -54 128 -54z
" />
    <glyph glyph-name="guillemotleft" unicode="&#xab;" horiz-adv-x="511" 
d="M256 108l-171 177v14l171 177v-14l-161 -167v-6l161 -167v-14zM446 108l-171 177v14l171 177v-14l-161 -167v-6l161 -167v-14z" />
    <glyph glyph-name="uni00AD" unicode="&#xad;" horiz-adv-x="395" 
d="M325 288h-255v10h255v-10z" />
    <glyph glyph-name="registered" unicode="&#xae;" horiz-adv-x="512" 
d="M50 538q0 86 56 145q57 59 148 59q94 0 151 -58t57 -145t-57 -146q-55 -58 -149 -58q-92 0 -149 58q-57 59 -57 145zM60 538q0 -81 53 -137q54 -56 143 -56t142 56q54 55 54 138q2 79 -54.5 136.5t-143.5 56.5q-87 0 -141 -57q-53 -58 -53 -137zM203 430h-10v216h68
q34 0 54 -17t20 -45q0 -52 -51 -65l56 -89h-12l-55 87h-70v-87zM203 636v-109h58q30 0 47 15.5t17 40.5q0 24 -17.5 38.5t-46.5 14.5h-58z" />
    <glyph glyph-name="overscore" unicode="&#xaf;" horiz-adv-x="342" 
d="M292 670h-242v11h242v-11z" />
    <glyph glyph-name="degree" unicode="&#xb0;" horiz-adv-x="433" 
d="M70 566q0 62 41 105q41 42 105 42q66 0 106 -42q41 -41 41 -104q0 -65 -41 -106t-107 -41q-65 0 -105 40.5t-40 105.5zM80 566q0 -60 38 -98t98 -38q61 0 99 38.5t38 98.5q0 59 -38.5 97.5t-98.5 38.5t-98 -38.5t-38 -98.5z" />
    <glyph glyph-name="uni00B2" unicode="&#xb2;" horiz-adv-x="379" 
d="M90 599h-10q0 46 32 77.5t84 31.5q54 0 85.5 -31t31.5 -79q0 -72 -67 -115l-90 -58q-62 -39 -62 -103v-8h225v-10h-235v10q0 42 15.5 69.5t50.5 49.5l90 58q63 41 63 107q0 43 -28.5 71.5t-78.5 28.5q-47 0 -76.5 -28t-29.5 -71z" />
    <glyph glyph-name="uni00B3" unicode="&#xb3;" horiz-adv-x="386" 
d="M80 415h10q0 -41 31 -75t80 -34q57 0 86 31t29 84q0 46 -32 75.5t-87 29.5h-13v10l115 150v4h-201v10h211v-17l-110 -144v-3q58 0 92.5 -32.5t34.5 -82.5q0 -56 -33 -90.5t-92 -34.5q-55 0 -88 37t-33 82z" />
    <glyph glyph-name="acute" unicode="&#xb4;" horiz-adv-x="252" 
d="M90 610h-10l60 133h23z" />
    <glyph glyph-name="paragraph" unicode="&#xb6;" horiz-adv-x="532" 
d="M90 476q-2 92 64.5 159t158.5 65h129v-745h-10v735h-105v-735h-10v296q-95 0 -161 66t-66 159z" />
    <glyph glyph-name="middot" unicode="&#xb7;" horiz-adv-x="271" 
d="M110 316q0 11 7 18.5t18 7.5t18.5 -7.5t7.5 -18.5t-7.5 -18t-18.5 -7q-25 0 -25 25z" />
    <glyph glyph-name="cedilla" unicode="&#xb8;" horiz-adv-x="276" 
d="M60 -131h10q1 -29 19.5 -46.5t45.5 -17.5q33 0 52 20t19 53q0 27 -19 47t-48 20q-31 0 -48 -24h-27l33 87h12l-30 -77h6q19 24 54 24q34 0 55.5 -22.5t21.5 -54.5q0 -36 -22.5 -59.5t-58.5 -23.5q-31 0 -52.5 20.5t-22.5 53.5z" />
    <glyph glyph-name="uni00B9" unicode="&#xb9;" horiz-adv-x="274" 
d="M184 621h-104v9q73 0 89.5 10.5t16.5 59.5h8v-396h-10v317z" />
    <glyph glyph-name="ordmasculine" unicode="&#xba;" horiz-adv-x="551" 
d="M70 505q0 91 58 149q59 59 149 59q87 0 146 -59q58 -58 58 -148q0 -89 -59 -148q-58 -58 -146 -58q-90 0 -148 58t-58 147zM276 310q84 0 139 55q56 56 56 141q0 86 -55 141q-56 56 -139 56q-85 0 -141 -56t-56 -142t55 -141q55 -54 141 -54z" />
    <glyph glyph-name="guillemotright" unicode="&#xbb;" horiz-adv-x="521" 
d="M256 285l-171 -177v14l161 167v6l-161 167v14l171 -177v-14zM446 285l-171 -177v14l161 167v6l-161 167v14l171 -177v-14z" />
    <glyph glyph-name="onequarter" unicode="&#xbc;" horiz-adv-x="829" 
d="M184 621h-104v9q73 0 89.5 10.5t16.5 59.5h8v-396h-10v317zM219 -41h-10l389 782h10zM686 93h-213v16l133 287h10l-133 -289v-4h203v140h10v-140h53v-10h-53v-93h-10v93z" />
    <glyph glyph-name="onehalf" unicode="&#xbd;" horiz-adv-x="889" 
d="M184 621h-104v9q73 0 89.5 10.5t16.5 59.5h8v-396h-10v317zM219 -41h-10l389 782h10zM580 295h-10q0 46 32 77.5t84 31.5q54 0 85.5 -31.5t31.5 -78.5q0 -69 -67 -115l-90 -58q-62 -39 -62 -103v-8h225v-10h-235v10q0 42 15 68.5t51 50.5l90 58q63 41 63 107
q0 43 -28.5 71.5t-78.5 28.5q-47 0 -76.5 -28.5t-29.5 -70.5z" />
    <glyph glyph-name="threequarters" unicode="&#xbe;" horiz-adv-x="879" 
d="M80 415h10q0 -41 31 -75t80 -34q57 0 86 31t29 84q0 46 -32 75.5t-87 29.5h-13v10l115 150v4h-201v10h211v-17l-110 -144v-3q58 0 92.5 -32.5t34.5 -82.5q0 -56 -33 -90.5t-92 -34.5q-55 0 -88 37t-33 82zM269 -41h-10l389 782h10zM736 93h-213v16l133 287h10l-133 -289
v-4h203v140h10v-140h53v-10h-53v-93h-10v93z" />
    <glyph glyph-name="questiondown" unicode="&#xbf;" horiz-adv-x="567" 
d="M90 11q0 49 26 81q17 23 57 55l75 56q30 22 42 44t12 55v89h10v-89q0 -36 -12.5 -59.5t-45.5 -47.5l-75 -57q-41 -31 -60 -60t-19 -67q0 -75 49 -121t133 -46q90 0 137.5 52t47.5 126h10q0 -79 -50 -133.5t-145 -54.5q-89 0 -140.5 49t-51.5 128zM281 535q0 11 7.5 18
t18.5 7q25 0 25 -25q0 -11 -7 -18.5t-18 -7.5t-18.5 7.5t-7.5 18.5z" />
    <glyph glyph-name="Agrave" unicode="&#xc0;" horiz-adv-x="670" 
d="M52 0h-12l285 700h20l285 -700h-12l-84 203h-398zM332 690l-192 -477h390l-192 477h-6zM334 790l-73 133h23l60 -133h-10z" />
    <glyph glyph-name="Aacute" unicode="&#xc1;" horiz-adv-x="670" 
d="M52 0h-12l285 700h20l285 -700h-12l-84 203h-398zM332 690l-192 -477h390l-192 477h-6zM335 790h-10l60 133h23z" />
    <glyph glyph-name="Acircumflex" unicode="&#xc2;" horiz-adv-x="670" 
d="M52 0h-12l285 700h20l285 -700h-12l-84 203h-398zM332 690l-192 -477h390l-192 477h-6zM234 790h-15l107 130h18l107 -130h-15l-98 120h-6z" />
    <glyph glyph-name="Atilde" unicode="&#xc3;" horiz-adv-x="670" 
d="M52 0h-12l285 700h20l285 -700h-12l-84 203h-398zM332 690l-192 -477h390l-192 477h-6zM195 805h-10q0 42 20 70t57 28q24 0 45 -14t34 -30.5t31 -30.5t37 -14q33 0 50 24.5t17 63.5h10q0 -42 -20 -70t-57 -28q-20 0 -39.5 14t-32.5 30.5t-33 30.5t-41 14
q-35 0 -51.5 -26t-16.5 -62z" />
    <glyph glyph-name="Adieresis" unicode="&#xc4;" horiz-adv-x="670" 
d="M52 0h-12l285 700h20l285 -700h-12l-84 203h-398zM332 690l-192 -477h390l-192 477h-6zM233 854q0 12 9 21t21 9q13 0 21.5 -9t8.5 -21q0 -13 -8.5 -21.5t-21.5 -8.5q-12 0 -21 8.5t-9 21.5zM409 884q12 0 21 -9t9 -21q0 -13 -9 -21.5t-21 -8.5q-18 0 -26 15t0 30t26 15z
" />
    <glyph glyph-name="Aring" unicode="&#xc5;" horiz-adv-x="670" 
d="M52 0h-12l285 700h20l285 -700h-12l-84 203h-398zM332 690l-192 -477h390l-192 477h-6zM270 787q-26 26 -26 65t26 65t65 26t65 -26t26 -65t-26 -65t-65 -26t-65 26zM277 910q-23 -23 -23 -58t23 -58t58 -23t58 23t23 58t-23 58t-58 23t-58 -23z" />
    <glyph glyph-name="AE" unicode="&#xc6;" horiz-adv-x="881" 
d="M53 0h-13l392 700h369v-10h-347v-328h292v-10h-292v-342h347v-10h-357v203h-277zM438 690l-266 -477h272v477h-6z" />
    <glyph glyph-name="Ccedilla" unicode="&#xc7;" horiz-adv-x="801" 
d="M60 350q0 153 100 258t251 105q117 0 205 -66q89 -65 125 -171h-10q-36 102 -122 164q-85 63 -198 63q-145 2 -244.5 -101.5t-96.5 -251.5q-2 -150 96.5 -252.5t244.5 -100.5q111 0 197 62q86 61 123 165h10q-34 -105 -124 -172q-89 -65 -206 -65h-6l-23 -56h6
q21 24 54 24q34 0 55.5 -22.5t21.5 -54.5q0 -36 -22.5 -59.5t-58.5 -23.5q-31 0 -53 21t-22 53h10q2 -29 20 -46.5t45 -17.5q33 0 52 20t19 53q0 27 -19 47t-48 20q-32 0 -48 -24h-27l26 66q-145 6 -239 110t-94 253z" />
    <glyph glyph-name="Egrave" unicode="&#xc8;" horiz-adv-x="572" 
d="M492 0h-357v700h357v-10h-347v-328h302v-10h-302v-342h347v-10zM317 790l-73 133h23l60 -133h-10z" />
    <glyph glyph-name="Eacute" unicode="&#xc9;" horiz-adv-x="572" 
d="M492 0h-357v700h357v-10h-347v-328h302v-10h-302v-342h347v-10zM318 790h-10l60 133h23z" />
    <glyph glyph-name="Ecircumflex" unicode="&#xca;" horiz-adv-x="572" 
d="M492 0h-357v700h357v-10h-347v-328h302v-10h-302v-342h347v-10zM217 790h-15l107 130h18l107 -130h-15l-98 120h-6z" />
    <glyph glyph-name="Edieresis" unicode="&#xcb;" horiz-adv-x="572" 
d="M492 0h-357v700h357v-10h-347v-328h302v-10h-302v-342h347v-10zM216 854q0 12 9 21t21 9q13 0 21.5 -9t8.5 -21q0 -13 -8.5 -21.5t-21.5 -8.5q-12 0 -21 8.5t-9 21.5zM392 884q12 0 21 -9t9 -21q0 -13 -9 -21.5t-21 -8.5q-18 0 -26 15t0 30t26 15z" />
    <glyph glyph-name="Igrave" unicode="&#xcc;" horiz-adv-x="280" 
d="M136 790l-73 133h23l60 -133h-10zM145 0h-10v700h10v-700z" />
    <glyph glyph-name="Iacute" unicode="&#xcd;" horiz-adv-x="280" 
d="M137 790h-10l60 133h23zM145 0h-10v700h10v-700z" />
    <glyph glyph-name="Icircumflex" unicode="&#xce;" horiz-adv-x="280" 
d="M36 790h-15l107 130h18l107 -130h-15l-98 120h-6zM145 0h-10v700h10v-700z" />
    <glyph glyph-name="Idieresis" unicode="&#xcf;" horiz-adv-x="280" 
d="M35 854q0 12 9 21t21 9q13 0 21.5 -9t8.5 -21q0 -13 -8.5 -21.5t-21.5 -8.5q-12 0 -21 8.5t-9 21.5zM145 0h-10v700h10v-700zM211 884q12 0 21 -9t9 -21q0 -13 -9 -21.5t-21 -8.5q-18 0 -26 15t0 30t26 15z" />
    <glyph glyph-name="Eth" unicode="&#xd0;" horiz-adv-x="772" 
d="M196 350h-61v10h61v340h165q150 2 252 -99.5t99 -250.5q0 -153 -99 -251.5t-252 -98.5h-165v350zM206 350v-340h155q149 0 245 94.5t96 245.5q2 147 -96.5 245t-244.5 95h-155v-330h213v-10h-213z" />
    <glyph glyph-name="Ntilde" unicode="&#xd1;" horiz-adv-x="740" 
d="M145 0h-10v700h22l432 -690h6v690h10v-700h-21l-433 690h-6v-690zM241 805h-10q0 42 20 70t57 28q24 0 45 -14t34 -30.5t31 -30.5t37 -14q33 0 50 24.5t17 63.5h10q0 -42 -20 -70t-57 -28q-20 0 -39.5 14t-32.5 30.5t-33 30.5t-41 14q-35 0 -51.5 -26t-16.5 -62z" />
    <glyph glyph-name="Ograve" unicode="&#xd2;" horiz-adv-x="826" 
d="M60 350q0 153 101 258t252 105q152 0 252.5 -105.5t100.5 -257.5q0 -153 -100.5 -258t-252.5 -105t-252.5 104t-100.5 259zM70 350q-2 -150 97.5 -252.5t245.5 -100.5q146 -2 245.5 100.5t97.5 252.5q0 150 -97.5 251.5t-245.5 101.5q-145 3 -245.5 -101.5t-97.5 -251.5z
M410 790l-73 133h23l60 -133h-10z" />
    <glyph glyph-name="Oacute" unicode="&#xd3;" horiz-adv-x="826" 
d="M60 350q0 153 101 258t252 105q152 0 252.5 -105.5t100.5 -257.5q0 -153 -100.5 -258t-252.5 -105t-252.5 104t-100.5 259zM70 350q-2 -150 97.5 -252.5t245.5 -100.5q146 -2 245.5 100.5t97.5 252.5q0 150 -97.5 251.5t-245.5 101.5q-145 3 -245.5 -101.5t-97.5 -251.5z
M411 790h-10l60 133h23z" />
    <glyph glyph-name="Ocircumflex" unicode="&#xd4;" horiz-adv-x="826" 
d="M60 350q0 153 101 258t252 105q152 0 252.5 -105.5t100.5 -257.5q0 -153 -100.5 -258t-252.5 -105t-252.5 104t-100.5 259zM70 350q-2 -150 97.5 -252.5t245.5 -100.5q146 -2 245.5 100.5t97.5 252.5q0 150 -97.5 251.5t-245.5 101.5q-145 3 -245.5 -101.5t-97.5 -251.5z
M310 790h-15l107 130h18l107 -130h-15l-98 120h-6z" />
    <glyph glyph-name="Otilde" unicode="&#xd5;" horiz-adv-x="826" 
d="M60 350q0 153 101 258t252 105q152 0 252.5 -105.5t100.5 -257.5q0 -153 -100.5 -258t-252.5 -105t-252.5 104t-100.5 259zM70 350q-2 -150 97.5 -252.5t245.5 -100.5q146 -2 245.5 100.5t97.5 252.5q0 150 -97.5 251.5t-245.5 101.5q-145 3 -245.5 -101.5t-97.5 -251.5z
M271 805h-10q0 42 20 70t57 28q30 0 55 -22.5t47.5 -44.5t44.5 -22q33 0 50 24.5t17 63.5h10q0 -42 -20 -70t-57 -28q-20 0 -39.5 14t-32.5 30.5t-33 30.5t-41 14q-36 0 -52 -26t-16 -62z" />
    <glyph glyph-name="Odieresis" unicode="&#xd6;" horiz-adv-x="826" 
d="M60 350q0 153 101 258t252 105q152 0 252.5 -105.5t100.5 -257.5q0 -153 -100.5 -258t-252.5 -105t-252.5 104t-100.5 259zM70 350q-2 -150 97.5 -252.5t245.5 -100.5q146 -2 245.5 100.5t97.5 252.5q0 150 -97.5 251.5t-245.5 101.5q-145 3 -245.5 -101.5t-97.5 -251.5z
M309 854q0 12 9 21t21 9q13 0 21.5 -9t8.5 -21q0 -13 -8 -21.5t-22 -8.5q-12 0 -21 8.5t-9 21.5zM485 884q12 0 21 -9t9 -21q0 -13 -9 -21.5t-21 -8.5q-18 0 -26 15t0 30t26 15z" />
    <glyph glyph-name="multiply" unicode="&#xd7;" horiz-adv-x="446" 
d="M31 98l-7 7l192 204l-192 204l7 7l192 -204l192 204l7 -7l-192 -204l192 -204l-7 -7l-192 204z" />
    <glyph glyph-name="Oslash" unicode="&#xd8;" horiz-adv-x="826" 
d="M60 350q0 153 101 258t252 105q121 0 212 -70l70 96h11l-74 -101q63 -51 98.5 -126.5t35.5 -161.5q0 -153 -100.5 -258t-252.5 -105q-116 0 -207 65l-75 -102h-11l78 108q-64 49 -101 126t-37 166zM70 350q0 -87 35.5 -161.5t98.5 -123.5l416 571q-91 67 -207 67
q-145 3 -245.5 -101.5t-97.5 -251.5zM627 630l-416 -570q89 -63 202 -63q146 -2 245.5 100.5t97.5 252.5q0 85 -34 158t-95 122z" />
    <glyph glyph-name="Ugrave" unicode="&#xd9;" horiz-adv-x="710" 
d="M125 212v488h10v-488q0 -102 60 -159q62 -56 156 -56q95 0 160 57q64 57 64 158v488h10v-488q0 -105 -67.5 -165t-166.5 -60q-101 0 -163 58q-63 59 -63 167zM349 790l-73 133h23l60 -133h-10z" />
    <glyph glyph-name="Uacute" unicode="&#xda;" horiz-adv-x="710" 
d="M125 212v488h10v-488q0 -102 60 -159q62 -56 156 -56q95 0 160 57q64 57 64 158v488h10v-488q0 -105 -67.5 -165t-166.5 -60q-101 0 -163 58q-63 59 -63 167zM350 790h-10l60 133h23z" />
    <glyph glyph-name="Ucircumflex" unicode="&#xdb;" horiz-adv-x="710" 
d="M125 212v488h10v-488q0 -102 60 -159q62 -56 156 -56q95 0 160 57q64 57 64 158v488h10v-488q0 -105 -67.5 -165t-166.5 -60q-101 0 -163 58q-63 59 -63 167zM249 790h-15l107 130h18l107 -130h-15l-98 120h-6z" />
    <glyph glyph-name="Udieresis" unicode="&#xdc;" horiz-adv-x="710" 
d="M125 212v488h10v-488q0 -102 60 -159q62 -56 156 -56q95 0 160 57q64 57 64 158v488h10v-488q0 -105 -67.5 -165t-166.5 -60q-101 0 -163 58q-63 59 -63 167zM248 854q0 12 9 21t21 9q13 0 21.5 -9t8.5 -21q0 -13 -8.5 -21.5t-21.5 -8.5q-12 0 -21 8.5t-9 21.5zM424 884
q12 0 21 -9t9 -21q0 -13 -9 -21.5t-21 -8.5q-18 0 -26 15t0 30t26 15z" />
    <glyph glyph-name="Yacute" unicode="&#xdd;" horiz-adv-x="598" 
d="M294 300l-254 400h12l244 -386h6l244 386h12l-254 -400v-300h-10v300zM308 790h-10l60 133h23z" />
    <glyph glyph-name="Thorn" unicode="&#xde;" horiz-adv-x="628" 
d="M145 0h-10v700h10v-142h204q94 0 151.5 -54.5t57.5 -146.5q0 -91 -58 -146t-151 -55h-204v-156zM145 548v-382h204q87 0 143 53t56 138q0 87 -55 139t-144 52h-204z" />
    <glyph glyph-name="germandbls" unicode="&#xdf;" horiz-adv-x="622" 
d="M130 0h-10v542q0 96 53 152t142 56q87 0 140 -51q54 -49 54 -133q-1 -59 -33.5 -102t-88.5 -58v-6q76 -10 125.5 -60t49.5 -134q0 -102 -61 -160.5t-166 -58.5q-40 0 -81 10v10q39 -10 81 -10q99 0 158 56.5t59 152.5q0 87 -60.5 138.5t-159.5 51.5h-38v10h29
q87 0 131.5 49.5t44.5 110.5q0 80 -52 126q-51 48 -132 48q-85 0 -135 -54t-50 -145v-541z" />
    <glyph glyph-name="agrave" unicode="&#xe0;" 
d="M307 533q88 0 147.5 -47t81.5 -125h6v159h10v-520h-10v159h-6q-22 -78 -81.5 -125t-147.5 -47q-113 0 -180 75q-67 76 -67 198q0 123 67 197q67 76 180 76zM307 -3q109 0 172 74.5t63 188.5q2 111 -63 187.5t-172 75.5q-109 0 -173 -73t-64 -191q0 -117 64 -190
q64 -72 173 -72zM313 610l-73 133h23l60 -133h-10z" />
    <glyph glyph-name="aacute" unicode="&#xe1;" 
d="M307 533q88 0 147.5 -47t81.5 -125h6v159h10v-520h-10v159h-6q-22 -78 -81.5 -125t-147.5 -47q-113 0 -180 75q-67 76 -67 198q0 123 67 197q67 76 180 76zM307 -3q109 0 172 74.5t63 188.5q2 111 -63 187.5t-172 75.5q-109 0 -173 -73t-64 -191q0 -117 64 -190
q64 -72 173 -72zM314 610h-10l60 133h23z" />
    <glyph glyph-name="acircumflex" unicode="&#xe2;" 
d="M307 533q88 0 147.5 -47t81.5 -125h6v159h10v-520h-10v159h-6q-22 -78 -81.5 -125t-147.5 -47q-113 0 -180 75q-67 76 -67 198q0 123 67 197q67 76 180 76zM307 -3q109 0 172 74.5t63 188.5q2 111 -63 187.5t-172 75.5q-109 0 -173 -73t-64 -191q0 -117 64 -190
q64 -72 173 -72zM213 610h-15l107 130h18l107 -130h-15l-98 120h-6z" />
    <glyph glyph-name="atilde" unicode="&#xe3;" 
d="M307 533q88 0 147.5 -47t81.5 -125h6v159h10v-520h-10v159h-6q-22 -78 -81.5 -125t-147.5 -47q-113 0 -180 75q-67 76 -67 198q0 123 67 197q67 76 180 76zM307 -3q109 0 172 74.5t63 188.5q2 111 -63 187.5t-172 75.5q-109 0 -173 -73t-64 -191q0 -117 64 -190
q64 -72 173 -72zM174 625h-10q0 42 20 70t57 28q24 0 45 -14t34 -30.5t31 -30.5t37 -14q33 0 50 25t17 63h10q0 -42 -20 -70t-57 -28q-31 0 -72 44.5t-74 44.5q-35 0 -51.5 -26t-16.5 -62z" />
    <glyph glyph-name="adieresis" unicode="&#xe4;" 
d="M307 533q88 0 147.5 -47t81.5 -125h6v159h10v-520h-10v159h-6q-22 -78 -81.5 -125t-147.5 -47q-113 0 -180 75q-67 76 -67 198q0 123 67 197q67 76 180 76zM307 -3q109 0 172 74.5t63 188.5q2 111 -63 187.5t-172 75.5q-109 0 -173 -73t-64 -191q0 -117 64 -190
q64 -72 173 -72zM212 674q0 12 9 21t21 9q13 0 21.5 -8.5t8.5 -21.5t-8.5 -21.5t-21.5 -8.5q-12 0 -21 8.5t-9 21.5zM358 674q0 13 8.5 21.5t21.5 8.5q12 0 21 -9t9 -21q0 -13 -9 -21.5t-21 -8.5q-13 0 -21.5 8.5t-8.5 21.5z" />
    <glyph glyph-name="aring" unicode="&#xe5;" 
d="M307 533q88 0 147.5 -47t81.5 -125h6v159h10v-520h-10v159h-6q-22 -78 -81.5 -125t-147.5 -47q-113 0 -180 75q-67 76 -67 198q0 123 67 197q67 76 180 76zM307 -3q109 0 172 74.5t63 188.5q2 111 -63 187.5t-172 75.5q-109 0 -173 -73t-64 -191q0 -117 64 -190
q64 -72 173 -72zM249 607q-26 26 -26 65t26 65t65 26t65 -26t26 -65t-26 -65t-65 -26t-65 26zM256 730q-23 -23 -23 -58t23 -58t58 -23t58 23t23 58t-23 58t-58 23t-58 -23z" />
    <glyph glyph-name="ae" unicode="&#xe6;" horiz-adv-x="1024" 
d="M60 130q0 63 46.5 98.5t130.5 35.5h228v86q0 69 -53 121t-136 52q-79 0 -130 -39t-59 -106h-10q6 71 60 113t139 42q84 0 142 -53q57 -52 57 -121h6q24 81 87 127.5t147 46.5q116 0 182 -71q67 -70 67 -187v-21h-489q3 -107 70.5 -182t173.5 -75q89 0 150 45
q62 45 80 111h10q-22 -76 -86.5 -121t-154.5 -45t-155 52q-64 52 -87 136h-6q-3 -21 -10.5 -43.5t-24.5 -49t-41 -47t-62.5 -34.5t-86.5 -14q-84 0 -134.5 39t-50.5 104zM70 130q0 -60 48.5 -97t126.5 -37q50 0 90 16t63.5 40t39.5 55t21.5 58t5.5 53v36h-228
q-79 0 -123 -33t-44 -91zM475 264h479q0 120 -63.5 189.5t-175.5 69.5q-103 0 -170 -72q-69 -72 -70 -187z" />
    <glyph glyph-name="ccedilla" unicode="&#xe7;" horiz-adv-x="632" 
d="M60 260q0 115 76.5 194t190.5 79q84 2 157 -50.5t88 -133.5h-10q-16 75 -84 125q-67 49 -151 49q-110 1 -185 -77.5t-72 -186.5q-3 -107 72 -185t185 -77q84 0 151 49q68 50 84 125h10q-15 -81 -88 -133.5t-157 -50.5h-10l-22 -56h6q19 24 54 24q34 0 55.5 -22.5
t21.5 -54.5q0 -36 -22.5 -59.5t-58.5 -23.5q-31 0 -53 21t-22 53h10q2 -29 20 -46.5t45 -17.5q33 0 52 20t19 53q0 27 -19 47t-48 20q-31 0 -48 -24h-27l25 67q-106 7 -175.5 84.5t-69.5 187.5z" />
    <glyph glyph-name="egrave" unicode="&#xe8;" horiz-adv-x="619" 
d="M60 260q0 122 72 197.5t178 75.5q116 0 182 -71q67 -70 67 -187v-21h-489q-1 -105 69 -181.5t175 -75.5q87 0 149 45q63 45 81 111h10q-21 -76 -86 -121t-155 -45q-108 -2 -181.5 78t-71.5 195zM70 264h479q0 120 -63.5 189.5t-175.5 69.5q-98 2 -169 -71.5t-71 -187.5z
M301 610l-73 133h23l60 -133h-10z" />
    <glyph glyph-name="eacute" unicode="&#xe9;" horiz-adv-x="619" 
d="M60 260q0 122 72 197.5t178 75.5q116 0 182 -71q67 -70 67 -187v-21h-489q-1 -105 69 -181.5t175 -75.5q87 0 149 45q63 45 81 111h10q-21 -76 -86 -121t-155 -45q-108 -2 -181.5 78t-71.5 195zM70 264h479q0 120 -63.5 189.5t-175.5 69.5q-98 2 -169 -71.5t-71 -187.5z
M302 610h-10l60 133h23z" />
    <glyph glyph-name="ecircumflex" unicode="&#xea;" horiz-adv-x="619" 
d="M60 260q0 122 72 197.5t178 75.5q116 0 182 -71q67 -70 67 -187v-21h-489q-1 -105 69 -181.5t175 -75.5q87 0 149 45q63 45 81 111h10q-21 -76 -86 -121t-155 -45q-108 -2 -181.5 78t-71.5 195zM70 264h479q0 120 -63.5 189.5t-175.5 69.5q-98 2 -169 -71.5t-71 -187.5z
M201 610h-15l107 130h18l107 -130h-15l-98 120h-6z" />
    <glyph glyph-name="edieresis" unicode="&#xeb;" horiz-adv-x="619" 
d="M60 260q0 122 72 197.5t178 75.5q116 0 182 -71q67 -70 67 -187v-21h-489q-1 -105 69 -181.5t175 -75.5q87 0 149 45q63 45 81 111h10q-21 -76 -86 -121t-155 -45q-108 -2 -181.5 78t-71.5 195zM70 264h479q0 120 -63.5 189.5t-175.5 69.5q-98 2 -169 -71.5t-71 -187.5z
M200 674q0 12 9 21t21 9q13 0 21.5 -8.5t8.5 -21.5t-8.5 -21.5t-21.5 -8.5q-12 0 -21 8.5t-9 21.5zM376 704q12 0 21 -9t9 -21q0 -13 -9 -21.5t-21 -8.5q-18 0 -26 15t0 30t26 15z" />
    <glyph glyph-name="igrave" unicode="&#xec;" horiz-adv-x="240" 
d="M124 610l-73 133h23l60 -133h-10zM130 0h-10v520h10v-520z" />
    <glyph glyph-name="iacute" unicode="&#xed;" horiz-adv-x="240" 
d="M125 610h-10l60 133h23zM130 0h-10v520h10v-520z" />
    <glyph glyph-name="icircumflex" unicode="&#xee;" horiz-adv-x="240" 
d="M24 610h-15l107 130h18l107 -130h-15l-98 120h-6zM130 0h-10v520h10v-520z" />
    <glyph glyph-name="idieresis" unicode="&#xef;" horiz-adv-x="240" 
d="M23 674q0 12 9 21t21 9q13 0 21.5 -8.5t8.5 -21.5t-8.5 -21.5t-21.5 -8.5q-12 0 -21 8.5t-9 21.5zM130 0h-10v520h10v-520zM169 674q0 13 8.5 21.5t21.5 8.5q12 0 21 -9t9 -21q0 -13 -9 -21.5t-21 -8.5q-13 0 -21.5 8.5t-8.5 21.5z" />
    <glyph glyph-name="eth" unicode="&#xf0;" horiz-adv-x="627" 
d="M60 248q0 112 72 182q72 72 181 72q72 0 129 -35q25 -15 43 -33q22 -20 47 -56h6q-39 157 -172 263l-183 -70v11l173 67q-70 54 -149 81h23q70 -26 137 -77l135 53v-12l-126 -48q89 -72 140 -174t51 -224q0 -108 -67 -184.5t-187 -76.5q-107 -1 -181 76t-72 185zM70 248
q0 -107 69 -179q71 -72 174 -72q105 -2 175.5 73t68.5 178q0 105 -74.5 174.5t-169.5 69.5q-103 0 -174 -69q-69 -69 -69 -175z" />
    <glyph glyph-name="ntilde" unicode="&#xf1;" horiz-adv-x="630" 
d="M130 0h-10v520h10v-110h6q19 53 70 88t115 35q89 0 144 -53q55 -52 55 -133v-347h-10v347q0 74 -52 125t-137 51q-84 0 -138 -57q-53 -58 -53 -135v-331zM183 625h-10q0 42 20 70t57 28q24 0 45 -14t34 -30.5t31 -30.5t37 -14q33 0 50 25t17 63h10q0 -42 -20 -70t-57 -28
q-20 0 -39.5 14t-32.5 30.5t-33 30.5t-41 14q-35 0 -51.5 -26t-16.5 -62z" />
    <glyph glyph-name="ograve" unicode="&#xf2;" horiz-adv-x="652" 
d="M326 533q110 2 189 -78.5t77 -194.5q0 -117 -76.5 -195t-189.5 -78q-110 -2 -189 78.5t-77 193.5q-2 115 76.5 195.5t189.5 78.5zM582 260q0 113 -73.5 188t-182.5 75q-71 0 -129.5 -34t-92.5 -95q-34 -59 -34 -134q0 -74 34 -135q34 -60 92.5 -94t129.5 -34
q107 -2 182.5 75t73.5 188zM325 610l-73 133h23l60 -133h-10z" />
    <glyph glyph-name="oacute" unicode="&#xf3;" horiz-adv-x="652" 
d="M326 533q110 2 189 -78.5t77 -194.5q0 -117 -76.5 -195t-189.5 -78q-110 -2 -189 78.5t-77 193.5q-2 115 76.5 195.5t189.5 78.5zM582 260q0 113 -73.5 188t-182.5 75q-71 0 -129.5 -34t-92.5 -95q-34 -59 -34 -134q0 -74 34 -135q34 -60 92.5 -94t129.5 -34
q107 -2 182.5 75t73.5 188zM326 610h-10l60 133h23z" />
    <glyph glyph-name="ocircumflex" unicode="&#xf4;" horiz-adv-x="652" 
d="M326 533q110 2 189 -78.5t77 -194.5q0 -117 -76.5 -195t-189.5 -78q-110 -2 -189 78.5t-77 193.5q-2 115 76.5 195.5t189.5 78.5zM582 260q0 113 -73.5 188t-182.5 75q-71 0 -129.5 -34t-92.5 -95q-34 -59 -34 -134q0 -74 34 -135q34 -60 92.5 -94t129.5 -34
q107 -2 182.5 75t73.5 188zM225 610h-15l107 130h18l107 -130h-15l-98 120h-6z" />
    <glyph glyph-name="otilde" unicode="&#xf5;" horiz-adv-x="652" 
d="M326 533q110 2 189 -78.5t77 -194.5q0 -117 -76.5 -195t-189.5 -78q-110 -2 -189 78.5t-77 193.5q-2 115 76.5 195.5t189.5 78.5zM582 260q0 113 -73.5 188t-182.5 75q-71 0 -129.5 -34t-92.5 -95q-34 -59 -34 -134q0 -74 34 -135q34 -60 92.5 -94t129.5 -34
q107 -2 182.5 75t73.5 188zM186 625h-10q0 42 20 70t57 28q30 0 55 -22.5t47.5 -44.5t44.5 -22q33 0 50 25t17 63h10q0 -42 -20 -70t-57 -28q-20 0 -39.5 14t-32.5 30.5t-33 30.5t-41 14q-36 0 -52 -26t-16 -62z" />
    <glyph glyph-name="odieresis" unicode="&#xf6;" horiz-adv-x="652" 
d="M326 533q110 2 189 -78.5t77 -194.5q0 -117 -76.5 -195t-189.5 -78q-110 -2 -189 78.5t-77 193.5q-2 115 76.5 195.5t189.5 78.5zM582 260q0 113 -73.5 188t-182.5 75q-71 0 -129.5 -34t-92.5 -95q-34 -59 -34 -134q0 -74 34 -135q34 -60 92.5 -94t129.5 -34
q107 -2 182.5 75t73.5 188zM224 674q0 12 9 21t21 9q13 0 21.5 -9t8.5 -21q0 -13 -8 -21.5t-22 -8.5q-12 0 -21 8.5t-9 21.5zM400 704q12 0 21 -9t9 -21q0 -13 -9 -21.5t-21 -8.5q-18 0 -26 15t0 30t26 15z" />
    <glyph glyph-name="divide" unicode="&#xf7;" horiz-adv-x="480" 
d="M475 307h-470v10h470v-10zM211 147q0 17 14.5 24.5t28.5 0t14 -24.5q0 -12 -8 -20t-20 -8t-20.5 8.5t-8.5 19.5zM219 455q-13 11 -7 27.5t20.5 20.5t27.5 -8q12 -12 7 -27.5t-19.5 -19.5t-28.5 7z" />
    <glyph glyph-name="oslash" unicode="&#xf8;" horiz-adv-x="652" 
d="M60 260q-2 114 77 194.5t189 78.5q78 0 141 -39l48 76h12l-51 -82q54 -37 85 -97t31 -131q0 -117 -76.5 -195t-189.5 -78q-77 0 -140 39l-50 -80h-11l53 85q-55 37 -86.5 97t-31.5 132zM70 260q0 -71 29.5 -128t83.5 -93l279 446q-62 38 -136 38q-106 2 -181.5 -75
t-74.5 -188zM470 480l-279 -446q59 -37 135 -37q107 -2 182.5 75t73.5 188q0 68 -30 126t-82 94z" />
    <glyph glyph-name="ugrave" unicode="&#xf9;" horiz-adv-x="620" 
d="M110 173v347h10v-347q0 -74 52 -125t137 -51t137 57q54 57 54 135v331h10v-520h-10v109h-6q-17 -50 -68 -86t-117 -36q-89 0 -145 53q-54 52 -54 133zM307 610l-73 133h23l60 -133h-10z" />
    <glyph glyph-name="uacute" unicode="&#xfa;" horiz-adv-x="620" 
d="M110 173v347h10v-347q0 -74 52 -125t137 -51t137 57q54 57 54 135v331h10v-520h-10v109h-6q-17 -50 -68 -86t-117 -36q-89 0 -145 53q-54 52 -54 133zM308 610h-10l60 133h23z" />
    <glyph glyph-name="ucircumflex" unicode="&#xfb;" horiz-adv-x="620" 
d="M110 173v347h10v-347q0 -74 52 -125t137 -51t137 57q54 57 54 135v331h10v-520h-10v109h-6q-17 -50 -68 -86t-117 -36q-89 0 -145 53q-54 52 -54 133zM207 610h-15l107 130h18l107 -130h-15l-98 120h-6z" />
    <glyph glyph-name="udieresis" unicode="&#xfc;" horiz-adv-x="620" 
d="M110 173v347h10v-347q0 -74 52 -125t137 -51t137 57q54 57 54 135v331h10v-520h-10v109h-6q-17 -50 -68 -86t-117 -36q-89 0 -145 53q-54 52 -54 133zM206 674q0 12 9 21t21 9q13 0 21.5 -9t8.5 -21q0 -13 -8.5 -21.5t-21.5 -8.5q-12 0 -21 8.5t-9 21.5zM382 704
q12 0 21 -9t9 -21q0 -13 -9 -21.5t-21 -8.5q-18 0 -26 15t0 30t26 15z" />
    <glyph glyph-name="yacute" unicode="&#xfd;" horiz-adv-x="565" 
d="M278 -9l-228 529h11l220 -510h6l217 510h11l-273 -642q-45 -108 -150 -108h-12v10h12q98 0 140 101zM283 610h-10l60 133h23z" />
    <glyph glyph-name="thorn" unicode="&#xfe;" horiz-adv-x="672" 
d="M130 -230h-10v980h10v-389h6q22 78 82 125t147 47q114 0 180 -76q67 -74 67 -197q0 -122 -67 -198q-66 -75 -180 -75q-87 0 -147 47t-82 125h-6v-389zM365 -3q107 0 172 72q65 74 65 190q0 117 -65 191q-64 73 -172 73q-107 0 -171 -75t-64 -189q0 -112 64 -187t171 -75z
" />
    <glyph glyph-name="ydieresis" unicode="&#xff;" horiz-adv-x="565" 
d="M278 -9l-228 529h11l220 -510h6l217 510h11l-273 -642q-45 -108 -150 -108h-12v10h12q98 0 140 101zM181 674q0 12 9 21t21 9q13 0 21.5 -9t8.5 -21q0 -13 -8 -21.5t-22 -8.5q-12 0 -21 8.5t-9 21.5zM357 704q12 0 21 -9t9 -21q0 -13 -9 -21.5t-21 -8.5q-18 0 -26 15
t0 30t26 15z" />
    <glyph glyph-name="Amacron" unicode="&#x100;" horiz-adv-x="670" 
d="M52 0h-12l285 700h20l285 -700h-12l-84 203h-398zM332 690l-192 -477h390l-192 477h-6zM457 850h-242v11h242v-11z" />
    <glyph glyph-name="amacron" unicode="&#x101;" 
d="M307 533q88 0 147.5 -47t81.5 -125h6v159h10v-520h-10v159h-6q-22 -78 -81.5 -125t-147.5 -47q-113 0 -180 75q-67 76 -67 198q0 123 67 197q67 76 180 76zM307 -3q109 0 172 74.5t63 188.5q2 111 -63 187.5t-172 75.5q-109 0 -173 -73t-64 -191q0 -117 64 -190
q64 -72 173 -72zM436 670h-242v11h242v-11z" />
    <glyph glyph-name="Abreve" unicode="&#x102;" horiz-adv-x="670" 
d="M52 0h-12l285 700h20l285 -700h-12l-84 203h-398zM332 690l-192 -477h390l-192 477h-6zM214 915h10q0 -52 29.5 -84t82.5 -32t82.5 32t29.5 84h10q0 -58 -31.5 -92t-90.5 -34t-90.5 34t-31.5 92z" />
    <glyph glyph-name="abreve" unicode="&#x103;" 
d="M307 533q88 0 147.5 -47t81.5 -125h6v159h10v-520h-10v159h-6q-22 -78 -81.5 -125t-147.5 -47q-113 0 -180 75q-67 76 -67 198q0 123 67 197q67 76 180 76zM307 -3q109 0 172 74.5t63 188.5q2 111 -63 187.5t-172 75.5q-109 0 -173 -73t-64 -191q0 -117 64 -190
q64 -72 173 -72zM193 735h10q0 -52 29.5 -84t82.5 -32t82.5 32t29.5 84h10q0 -58 -31.5 -92t-90.5 -34t-90.5 34t-31.5 92z" />
    <glyph glyph-name="Aogonek" unicode="&#x104;" horiz-adv-x="670" 
d="M52 0h-12l285 700h20l285 -700l-51 -59q-33 -39 -33 -70q0 -23 16.5 -38t40.5 -15h27v-10h-27q-28 0 -47.5 17.5t-19.5 45.5q0 36 33 73l49 56l-84 203h-398zM332 690l-192 -477h390l-192 477h-6z" />
    <glyph glyph-name="aogonek" unicode="&#x105;" 
d="M307 533q88 0 147.5 -47t81.5 -125h6v159h10v-520l-51 -59q-33 -39 -33 -70q0 -24 16.5 -38.5t40.5 -14.5h27v-10h-27q-28 0 -47.5 17.5t-19.5 45.5q0 33 35 74l49 58v156h-6q-22 -78 -81.5 -125t-147.5 -47q-113 0 -180 75q-67 76 -67 198q0 123 67 197q67 76 180 76z
M307 -3q109 0 172 74.5t63 188.5q2 111 -63 187.5t-172 75.5q-109 0 -173 -73t-64 -191q0 -117 64 -190q64 -72 173 -72z" />
    <glyph glyph-name="Cacute" unicode="&#x106;" horiz-adv-x="801" 
d="M60 350q0 153 100 258t251 105q117 0 205 -66q89 -65 125 -171h-10q-36 102 -122 164q-85 63 -198 63q-145 2 -244.5 -101.5t-96.5 -251.5q-2 -150 96.5 -252.5t244.5 -100.5q111 0 197 62q86 61 123 165h10q-34 -105 -124 -172q-89 -65 -206 -65q-151 0 -251 104
t-100 259zM403 790h-10l60 133h23z" />
    <glyph glyph-name="cacute" unicode="&#x107;" horiz-adv-x="632" 
d="M327 533q84 2 157 -50.5t88 -133.5h-10q-16 75 -84 125q-67 49 -151 49q-110 1 -185 -77.5t-72 -186.5q-3 -107 72 -185t185 -77q84 0 151 49q68 50 84 125h10q-15 -81 -88 -133.5t-157 -50.5q-114 0 -190.5 79t-76.5 194t76.5 194t190.5 79zM315 609h-10l60 133h23z" />
    <glyph glyph-name="Cdotaccent" unicode="&#x10a;" horiz-adv-x="801" 
d="M60 350q0 153 100 258t251 105q117 0 205 -66q89 -65 125 -171h-10q-36 102 -122 164q-85 63 -198 63q-145 2 -244.5 -101.5t-96.5 -251.5q-2 -150 96.5 -252.5t244.5 -100.5q111 0 197 62q86 61 123 165h10q-34 -105 -124 -172q-89 -65 -206 -65q-151 0 -251 104
t-100 259zM407 889q15 0 21.5 -11.5t0 -23t-21.5 -11.5q-14 0 -20 11.5t0 23t20 11.5z" />
    <glyph glyph-name="cdotaccent" unicode="&#x10b;" horiz-adv-x="632" 
d="M327 533q84 2 157 -50.5t88 -133.5h-10q-16 75 -84 125q-67 49 -151 49q-110 1 -185 -77.5t-72 -186.5q-3 -107 72 -185t185 -77q84 0 151 49q68 50 84 125h10q-15 -81 -88 -133.5t-157 -50.5q-114 0 -190.5 79t-76.5 194t76.5 194t190.5 79zM319 708q15 0 21.5 -11.5
t0 -23t-21.5 -11.5q-14 0 -20 11.5t0 23t20 11.5z" />
    <glyph glyph-name="Ccaron" unicode="&#x10c;" horiz-adv-x="801" 
d="M60 350q0 153 100 258t251 105q117 0 205 -66q89 -65 125 -171h-10q-36 102 -122 164q-85 63 -198 63q-145 2 -244.5 -101.5t-96.5 -251.5q-2 -150 96.5 -252.5t244.5 -100.5q111 0 197 62q86 61 123 165h10q-34 -105 -124 -172q-89 -65 -206 -65q-151 0 -251 104
t-100 259zM395 790l-107 130h15l98 -120h6l98 120h15l-107 -130h-18z" />
    <glyph glyph-name="ccaron" unicode="&#x10d;" horiz-adv-x="632" 
d="M327 533q84 2 157 -50.5t88 -133.5h-10q-16 75 -84 125q-67 49 -151 49q-110 1 -185 -77.5t-72 -186.5q-3 -107 72 -185t185 -77q84 0 151 49q68 50 84 125h10q-15 -81 -88 -133.5t-157 -50.5q-114 0 -190.5 79t-76.5 194t76.5 194t190.5 79zM307 609l-107 130h15
l98 -120h6l98 120h15l-107 -130h-18z" />
    <glyph glyph-name="Dcaron" unicode="&#x10e;" horiz-adv-x="711" 
d="M300 0h-165v700h165q150 2 252 -99.5t99 -250.5q0 -153 -99 -251.5t-252 -98.5zM145 690v-680h155q149 0 245 95t96 245q3 145 -96 244t-245 96h-155zM320 790l-107 130h15l98 -120h6l98 120h15l-107 -130h-18z" />
    <glyph glyph-name="dcaron" unicode="&#x10f;" horiz-adv-x="728" 
d="M307 533q88 0 147.5 -47t81.5 -125h6v389h10v-750h-10v159h-6q-22 -78 -81.5 -125t-147.5 -47q-113 0 -180 75q-67 76 -67 198q0 123 67 197q67 76 180 76zM307 -3q109 0 172 74.5t63 188.5q2 111 -63 187.5t-172 75.5q-109 0 -173 -73t-64 -191q0 -117 64 -190
q64 -72 173 -72zM646 569h-7v181h12z" />
    <glyph glyph-name="Dcroat" unicode="&#x110;" horiz-adv-x="772" 
d="M196 350h-61v10h61v340h165q150 2 252 -99.5t99 -250.5q0 -153 -99 -251.5t-252 -98.5h-165v350zM206 350v-340h155q149 0 245 94.5t96 245.5q2 147 -96.5 245t-244.5 95h-155v-330h213v-10h-213z" />
    <glyph glyph-name="dslash" unicode="&#x111;" horiz-adv-x="731" 
d="M307 533q88 0 147.5 -47t81.5 -125h6v288h-215v10h215v91h10v-91h69v-10h-69v-649h-10v159h-6q-22 -78 -81.5 -125t-147.5 -47q-113 0 -180 75q-67 76 -67 198q0 123 67 197q67 76 180 76zM307 -3q109 0 172 74.5t63 188.5q2 111 -63 187.5t-172 75.5q-109 0 -173 -73
t-64 -191q0 -117 64 -190q64 -72 173 -72z" />
    <glyph glyph-name="Emacron" unicode="&#x112;" horiz-adv-x="572" 
d="M492 0h-357v700h357v-10h-347v-328h302v-10h-302v-342h347v-10zM440 850h-242v11h242v-11z" />
    <glyph glyph-name="emacron" unicode="&#x113;" horiz-adv-x="619" 
d="M60 260q0 122 72 197.5t178 75.5q116 0 182 -71q67 -70 67 -187v-21h-489q-1 -105 69 -181.5t175 -75.5q87 0 149 45q63 45 81 111h10q-21 -76 -86 -121t-155 -45q-108 -2 -181.5 78t-71.5 195zM70 264h479q0 120 -63.5 189.5t-175.5 69.5q-98 2 -169 -71.5t-71 -187.5z
M424 670h-242v11h242v-11z" />
    <glyph glyph-name="Edotaccent" unicode="&#x116;" horiz-adv-x="572" 
d="M492 0h-357v700h357v-10h-347v-328h302v-10h-302v-342h347v-10zM322 889q15 0 21.5 -11.5t0 -23t-21.5 -11.5q-22 0 -22 23t22 23z" />
    <glyph glyph-name="edotaccent" unicode="&#x117;" horiz-adv-x="619" 
d="M60 260q0 122 72 197.5t178 75.5q116 0 182 -71q67 -70 67 -187v-21h-489q-1 -105 69 -181.5t175 -75.5q87 0 149 45q63 45 81 111h10q-21 -76 -86 -121t-155 -45q-108 -2 -181.5 78t-71.5 195zM70 264h479q0 120 -63.5 189.5t-175.5 69.5q-98 2 -169 -71.5t-71 -187.5z
M306 709q15 0 21.5 -11.5t0 -23t-21.5 -11.5q-22 0 -22 23t22 23z" />
    <glyph glyph-name="Eogonek" unicode="&#x118;" horiz-adv-x="572" 
d="M441 0h-306v700h357v-10h-347v-328h302v-10h-302v-342h347v-10h-39l-51 -59q-33 -39 -33 -70q0 -24 16.5 -38.5t40.5 -14.5h27v-10h-27q-29 0 -48 17t-19 46q0 34 33 73z" />
    <glyph glyph-name="eogonek" unicode="&#x119;" horiz-adv-x="619" 
d="M60 260q0 122 72 197.5t178 75.5q116 0 182 -71q67 -70 67 -187v-21h-489q-1 -105 69 -181.5t175 -75.5q87 0 149 45q63 45 81 111h10q-20 -70 -79 -115t-140 -50l-46 -53q-33 -39 -33 -70q0 -23 16.5 -38t40.5 -15h27v-10h-27q-28 0 -47.5 17.5t-19.5 45.5q0 36 33 73
l43 49h-9q-108 -2 -181.5 78t-71.5 195zM70 264h479q0 120 -63.5 189.5t-175.5 69.5q-98 2 -169 -71.5t-71 -187.5z" />
    <glyph glyph-name="Ecaron" unicode="&#x11a;" horiz-adv-x="572" 
d="M492 0h-357v700h357v-10h-347v-328h302v-10h-302v-342h347v-10zM310 790l-107 130h15l98 -120h6l98 120h15l-107 -130h-18z" />
    <glyph glyph-name="ecaron" unicode="&#x11b;" horiz-adv-x="619" 
d="M60 260q0 122 72 197.5t178 75.5q116 0 182 -71q67 -70 67 -187v-21h-489q-1 -105 69 -181.5t175 -75.5q87 0 149 45q63 45 81 111h10q-21 -76 -86 -121t-155 -45q-108 -2 -181.5 78t-71.5 195zM70 264h479q0 120 -63.5 189.5t-175.5 69.5q-98 2 -169 -71.5t-71 -187.5z
M294 610l-107 130h15l98 -120h6l98 120h15l-107 -130h-18z" />
    <glyph glyph-name="Gbreve" unicode="&#x11e;" horiz-adv-x="815" 
d="M60 350q0 153 100 258t251 105q117 0 205 -66q89 -65 125 -171h-10q-36 102 -122 164q-85 63 -198 63q-145 2 -244.5 -101.5t-96.5 -251.5q-2 -150 96.5 -252.5t244.5 -100.5q81 0 147.5 31.5t106 82t60.5 110.5t20 121h-343v10h353q6 -154 -94.5 -261t-249.5 -104
q-151 0 -251 104t-100 259zM286 915h10q0 -52 29.5 -84t82.5 -32t82.5 32t29.5 84h10q0 -58 -31.5 -92t-90.5 -34t-90.5 34t-31.5 92z" />
    <glyph glyph-name="gbreve" unicode="&#x11f;" 
d="M307 533q88 0 147.5 -47t81.5 -125h6v159h10v-556q0 -97 -62 -152t-167 -55q-92 0 -145.5 39.5t-65.5 112.5h10q13 -69 65.5 -105.5t135.5 -36.5q100 0 159.5 52.5t59.5 144.5v195h-6q-22 -78 -81.5 -125t-147.5 -47q-113 0 -180 75q-67 76 -67 198q0 123 67 197
q67 76 180 76zM307 -3q109 0 172 74.5t63 188.5q2 111 -63 187.5t-172 75.5q-109 0 -173 -73t-64 -191q0 -117 64 -190q64 -72 173 -72zM203 735h10q0 -52 29.5 -84t82.5 -32t82.5 32t29.5 84h10q0 -58 -31.5 -92t-90.5 -34t-90.5 34t-31.5 92z" />
    <glyph glyph-name="Gdotaccent" unicode="&#x120;" horiz-adv-x="815" 
d="M60 350q0 153 100 258t251 105q117 0 205 -66q89 -65 125 -171h-10q-36 102 -122 164q-85 63 -198 63q-145 2 -244.5 -101.5t-96.5 -251.5q-2 -150 96.5 -252.5t244.5 -100.5q81 0 147.5 31.5t106 82t60.5 110.5t20 121h-343v10h353q6 -154 -94.5 -261t-249.5 -104
q-151 0 -251 104t-100 259zM411 889q15 0 21.5 -11.5t0 -23t-21.5 -11.5q-14 0 -20 11.5t0 23t20 11.5z" />
    <glyph glyph-name="gdotaccent" unicode="&#x121;" 
d="M307 533q88 0 147.5 -47t81.5 -125h6v159h10v-556q0 -97 -62 -152t-167 -55q-92 0 -145.5 39.5t-65.5 112.5h10q13 -69 65.5 -105.5t135.5 -36.5q100 0 159.5 52.5t59.5 144.5v195h-6q-22 -78 -81.5 -125t-147.5 -47q-113 0 -180 75q-67 76 -67 198q0 123 67 197
q67 76 180 76zM307 -3q109 0 172 74.5t63 188.5q2 111 -63 187.5t-172 75.5q-109 0 -173 -73t-64 -191q0 -117 64 -190q64 -72 173 -72zM328 709q15 0 21.5 -11.5t0 -23t-21.5 -11.5q-22 0 -22 23t22 23z" />
    <glyph glyph-name="uni0122" unicode="&#x122;" horiz-adv-x="815" 
d="M60 350q0 153 100 258t251 105q117 0 205 -66q89 -65 125 -171h-10q-36 102 -122 164q-85 63 -198 63q-145 2 -244.5 -101.5t-96.5 -251.5q-2 -150 96.5 -252.5t244.5 -100.5q81 0 147.5 31.5t106 82t60.5 110.5t20 121h-343v10h353q6 -154 -94.5 -261t-249.5 -104
q-151 0 -251 104t-100 259zM389 -193h-10l20 133h23z" />
    <glyph glyph-name="uni0123" unicode="&#x123;" 
d="M307 533q88 0 147.5 -47t81.5 -125h6v159h10v-556q0 -97 -62 -152t-167 -55q-92 0 -145.5 39.5t-65.5 112.5h10q13 -69 65.5 -105.5t135.5 -36.5q100 0 159.5 52.5t59.5 144.5v195h-6q-22 -78 -81.5 -125t-147.5 -47q-113 0 -180 75q-67 76 -67 198q0 123 67 197
q67 76 180 76zM307 -3q109 0 172 74.5t63 188.5q2 111 -63 187.5t-172 75.5q-109 0 -173 -73t-64 -191q0 -117 64 -190q64 -72 173 -72zM316 611h-23l33 133h10z" />
    <glyph glyph-name="Hcircumflex" unicode="&#x124;" horiz-adv-x="740" 
d="M145 0h-10v700h10v-337h450v337h10v-700h-10v353h-450v-353zM268 790h-15l107 130h18l107 -130h-15l-98 120h-6z" />
    <glyph glyph-name="hcircumflex" unicode="&#x125;" horiz-adv-x="636" 
d="M24 790h-15l107 130h18l107 -130h-15l-98 120h-6zM130 0h-10v750h10v-341h6q19 53 71 88.5t117 35.5q90 0 146 -53t56 -133v-347h-10v347q0 74 -53 125t-139 51q-85 0 -140 -58q-54 -57 -54 -134v-331z" />
    <glyph glyph-name="Hbar" unicode="&#x126;" horiz-adv-x="870" 
d="M203 544h-68v10h68v146h10v-146h450v146h10v-146h62v-10h-62v-544h-10v353h-450v-353h-10v544zM213 544v-181h450v181h-450z" />
    <glyph glyph-name="hbar" unicode="&#x127;" horiz-adv-x="612" 
d="M120 649h-85v10h85v91h10v-91h199v-10h-199v-240h6q19 53 71 88.5t117 35.5q90 0 146 -53t56 -133v-347h-10v347q0 74 -53 125t-139 51q-85 0 -140 -58q-54 -57 -54 -134v-331h-10v649z" />
    <glyph glyph-name="Imacron" unicode="&#x12a;" horiz-adv-x="280" 
d="M259 850h-242v11h242v-11zM145 0h-10v700h10v-700z" />
    <glyph glyph-name="imacron" unicode="&#x12b;" horiz-adv-x="240" 
d="M247 670h-242v11h242v-11zM130 0h-10v520h10v-520z" />
    <glyph glyph-name="Iogonek" unicode="&#x12e;" horiz-adv-x="280" 
d="M52 -129q0 33 33 73l50 60v696h10v-700l-50 -59q-33 -39 -33 -70q0 -23 16.5 -38t40.5 -15h27v-10h-27q-28 0 -47.5 17.5t-19.5 45.5z" />
    <glyph glyph-name="iogonek" unicode="&#x12f;" horiz-adv-x="244" 
d="M36 -129q0 35 34 73l50 58v518h10v-520l-51 -59q-33 -39 -33 -70q0 -23 16.5 -38t40.5 -15h27v-10h-27q-28 0 -47.5 17.5t-19.5 45.5zM129 709q15 0 21.5 -11.5t0 -23t-21.5 -11.5q-14 0 -20 11.5t0 23t20 11.5z" />
    <glyph glyph-name="Idot" unicode="&#x130;" horiz-adv-x="280" 
d="M141 889q15 0 21 -11.5t-0.5 -23t-20.5 -11.5t-20 11.5t0 23t20 11.5zM145 0h-10v700h10v-700z" />
    <glyph glyph-name="dotlessi" unicode="&#x131;" horiz-adv-x="240" 
d="M130 0h-10v520h10v-520z" />
    <glyph glyph-name="Jcircumflex" unicode="&#x134;" horiz-adv-x="582" 
d="M60 167h10q7 -80 59 -125t134 -45q92 0 143 54.5t51 143.5v495h-295v10h305v-505q0 -95 -55 -151.5t-152 -56.5q-85 0 -139 48t-61 132zM203 790h-15l107 130h18l107 -130h-15l-98 120h-6z" />
    <glyph glyph-name="jcircumflex" unicode="&#x135;" horiz-adv-x="260" 
d="M0 -230v10h13q129 0 129 145v595h10v-595q0 -75 -35.5 -115t-104.5 -40h-12zM49 610h-15l107 130h18l107 -130h-15l-98 120h-6z" />
    <glyph glyph-name="uni0136" unicode="&#x136;" horiz-adv-x="595" 
d="M145 0h-10v700h10v-432h6l385 432h14l-262 -293l267 -407h-13l-261 398l-136 -152v-246zM313 -193h-10l20 133h23z" />
    <glyph glyph-name="uni0137" unicode="&#x137;" horiz-adv-x="523" 
d="M130 0h-10v750h10v-548h6l311 318h15l-205 -209l216 -311h-13l-210 303l-120 -122v-181zM277 -193h-10l20 133h23z" />
    <glyph glyph-name="kgreenlandic" unicode="&#x138;" horiz-adv-x="543" 
d="M130 0h-10v520h10v-320h6l332 320h14l-216 -208l227 -312h-13l-221 305l-129 -124v-181z" />
    <glyph glyph-name="Lacute" unicode="&#x139;" horiz-adv-x="530" 
d="M460 0h-325v700h10v-690h315v-10zM146 790h-10l60 133h23z" />
    <glyph glyph-name="lacute" unicode="&#x13a;" horiz-adv-x="268" 
d="M126 790h-10l60 133h23zM120 59v691h10v-691q0 -49 41 -49h17v-10h-18q-22 0 -36 16t-14 43z" />
    <glyph glyph-name="uni013B" unicode="&#x13b;" horiz-adv-x="530" 
d="M460 0h-325v700h10v-690h315v-10zM273 -193h-10l20 133h23z" />
    <glyph glyph-name="uni013C" unicode="&#x13c;" horiz-adv-x="268" 
d="M120 59v691h10v-691q0 -49 41 -49h17v-10h-18q-22 0 -36 16t-14 43zM133 -193h-10l20 133h23z" />
    <glyph glyph-name="Lcaron" unicode="&#x13d;" horiz-adv-x="533" 
d="M460 0h-325v700h10v-690h315v-10zM379 519h-7v181h12z" />
    <glyph glyph-name="lcaron" unicode="&#x13e;" horiz-adv-x="354" 
d="M120 59v691h10v-691q0 -49 41 -49h17v-10h-18q-22 0 -36 16t-14 43zM242 569h-7v181h12z" />
    <glyph glyph-name="Ldot" unicode="&#x13f;" horiz-adv-x="600" 
d="M460 0h-325v700h10v-690h315v-10zM338 386q0 11 7 18.5t18 7.5t18.5 -7.5t7.5 -18.5t-7.5 -18t-18.5 -7q-25 0 -25 25z" />
    <glyph glyph-name="ldot" unicode="&#x140;" horiz-adv-x="417" 
d="M120 59v691h10v-691q0 -49 41 -49h17v-10h-18q-22 0 -36 16t-14 43zM274 386q0 11 7 18.5t18 7.5t18.5 -7.5t7.5 -18.5t-7.5 -18t-18.5 -7q-25 0 -25 25z" />
    <glyph glyph-name="Lslash" unicode="&#x141;" horiz-adv-x="615" 
d="M217 333l-97 -54v11l97 54v356h10v-351l223 124v-11l-223 -124v-328h315v-10h-325v333z" />
    <glyph glyph-name="lslash" unicode="&#x142;" horiz-adv-x="384" 
d="M152 376l-92 -57v12l92 57v362h10v-355l132 82v-12l-132 -82v-324q0 -23 11 -36t30 -13h17v-10h-18q-22 0 -36 16t-14 43v317z" />
    <glyph glyph-name="Nacute" unicode="&#x143;" horiz-adv-x="740" 
d="M145 0h-10v700h22l432 -690h6v690h10v-700h-21l-433 690h-6v-690zM381 790h-10l60 133h23z" />
    <glyph glyph-name="nacute" unicode="&#x144;" horiz-adv-x="630" 
d="M130 0h-10v520h10v-110h6q19 53 70 88t115 35q89 0 144 -53q55 -52 55 -133v-347h-10v347q0 74 -52 125t-137 51q-84 0 -138 -57q-53 -58 -53 -135v-331zM323 610h-10l60 133h23z" />
    <glyph glyph-name="uni0145" unicode="&#x145;" horiz-adv-x="740" 
d="M145 0h-10v700h22l432 -690h6v690h10v-700h-21l-433 690h-6v-690zM349 -193h-10l20 133h23z" />
    <glyph glyph-name="uni0146" unicode="&#x146;" horiz-adv-x="630" 
d="M130 0h-10v520h10v-110h6q19 53 70 88t115 35q89 0 144 -53q55 -52 55 -133v-347h-10v347q0 74 -52 125t-137 51q-84 0 -138 -57q-53 -58 -53 -135v-331zM294 -193h-10l20 133h23z" />
    <glyph glyph-name="Ncaron" unicode="&#x147;" horiz-adv-x="740" 
d="M145 0h-10v700h22l432 -690h6v690h10v-700h-21l-433 690h-6v-690zM373 790l-107 130h15l98 -120h6l98 120h15l-107 -130h-18z" />
    <glyph glyph-name="ncaron" unicode="&#x148;" horiz-adv-x="630" 
d="M130 0h-10v520h10v-110h6q19 53 70 88t115 35q89 0 144 -53q55 -52 55 -133v-347h-10v347q0 74 -52 125t-137 51q-84 0 -138 -57q-53 -58 -53 -135v-331zM315 610l-107 130h15l98 -120h6l98 120h15l-107 -130h-18z" />
    <glyph glyph-name="Eng" unicode="&#x14a;" horiz-adv-x="747" 
d="M145 0h-10v700h21l440 -673h6v673h10v-775q0 -74 -40 -114.5t-110 -40.5v10q66 0 103 38t37 107v75l-451 690h-6v-690z" />
    <glyph glyph-name="eng" unicode="&#x14b;" horiz-adv-x="608" 
d="M130 0h-10v520h10v-110h6q19 53 70 88t115 35q89 0 144 -53q55 -52 55 -133v-422q0 -74 -40 -114.5t-110 -40.5h-22v10h23q65 0 102 38t37 107v422q0 74 -52 125t-137 51q-84 0 -138 -57q-53 -58 -53 -135v-331z" />
    <glyph glyph-name="Omacron" unicode="&#x14c;" horiz-adv-x="826" 
d="M60 350q0 153 101 258t252 105q152 0 252.5 -105.5t100.5 -257.5q0 -153 -100.5 -258t-252.5 -105t-252.5 104t-100.5 259zM70 350q-2 -150 97.5 -252.5t245.5 -100.5q146 -2 245.5 100.5t97.5 252.5q0 150 -97.5 251.5t-245.5 101.5q-145 3 -245.5 -101.5t-97.5 -251.5z
M533 850h-242v11h242v-11z" />
    <glyph glyph-name="omacron" unicode="&#x14d;" horiz-adv-x="652" 
d="M326 533q110 2 189 -78.5t77 -194.5q0 -117 -76.5 -195t-189.5 -78q-110 -2 -189 78.5t-77 193.5q-2 115 76.5 195.5t189.5 78.5zM582 260q0 113 -73.5 188t-182.5 75q-71 0 -129.5 -34t-92.5 -95q-34 -59 -34 -134q0 -74 34 -135q34 -60 92.5 -94t129.5 -34
q107 -2 182.5 75t73.5 188zM448 670h-242v11h242v-11z" />
    <glyph glyph-name="Ohungarumlaut" unicode="&#x150;" horiz-adv-x="826" 
d="M60 350q0 153 101 258t252 105q152 0 252.5 -105.5t100.5 -257.5q0 -153 -100.5 -258t-252.5 -105t-252.5 104t-100.5 259zM70 350q-2 -150 97.5 -252.5t245.5 -100.5q146 -2 245.5 100.5t97.5 252.5q0 150 -97.5 251.5t-245.5 101.5q-145 3 -245.5 -101.5t-97.5 -251.5z
M356 790h-10l60 133h23zM466 790h-10l60 133h23z" />
    <glyph glyph-name="ohungarumlaut" unicode="&#x151;" horiz-adv-x="652" 
d="M326 533q110 2 189 -78.5t77 -194.5q0 -117 -76.5 -195t-189.5 -78q-110 -2 -189 78.5t-77 193.5q-2 115 76.5 195.5t189.5 78.5zM582 260q0 113 -73.5 188t-182.5 75q-71 0 -129.5 -34t-92.5 -95q-34 -59 -34 -134q0 -74 34 -135q34 -60 92.5 -94t129.5 -34
q107 -2 182.5 75t73.5 188zM271 610h-10l60 133h23zM381 610h-10l60 133h23z" />
    <glyph glyph-name="OE" unicode="&#x152;" horiz-adv-x="1109" 
d="M60 350q0 153 101 258t252 105q49 0 97 -13h519v-10h-489q100 -37 161 -127q60 -87 65 -201h218v-10h-218q0 -119 -61 -211q-62 -93 -164 -131h488v-10h-519q-49 -13 -97 -13q-152 0 -252.5 104t-100.5 259zM70 350q-2 -150 97.5 -252.5t245.5 -100.5q146 -2 245.5 100.5
t97.5 252.5q0 149 -98.5 251t-244.5 102q-145 3 -245.5 -101.5t-97.5 -251.5z" />
    <glyph glyph-name="oe" unicode="&#x153;" horiz-adv-x="1141" 
d="M326 533q98 0 170 -60q71 -59 91 -156q16 98 84 157t161 59q116 0 182 -71q67 -70 67 -187v-21h-489q-1 -105 69 -181.5t175 -75.5q88 0 149 45q63 45 81 111h10q-21 -76 -86 -121t-155 -45q-95 0 -163 60q-69 63 -85 157q-18 -96 -91 -157q-72 -60 -170 -60
q-110 -2 -189 78.5t-77 193.5q-2 115 76.5 195.5t189.5 78.5zM582 260q0 113 -73.5 188t-182.5 75q-71 0 -129.5 -34t-92.5 -95q-34 -59 -34 -134q0 -74 34 -135q34 -60 92.5 -94t129.5 -34q107 -2 182.5 75t73.5 188zM592 264h479q0 120 -63.5 189.5t-175.5 69.5
q-98 2 -169 -71.5t-71 -187.5z" />
    <glyph glyph-name="Racute" unicode="&#x154;" horiz-adv-x="622" 
d="M145 0h-10v700h214q95 0 152 -51.5t57 -142.5q0 -80 -46.5 -132.5t-125.5 -63.5l189 -310h-13l-186 308h-231v-308zM145 690v-372h204q87 0 143 51q56 53 56 137q0 86 -54 135t-145 49h-204zM307 790h-10l60 133h23z" />
    <glyph glyph-name="racute" unicode="&#x155;" horiz-adv-x="380" 
d="M130 0h-10v520h10v-122h6q18 54 61.5 88t104.5 34h28v-10h-28q-81 0 -126.5 -58.5t-45.5 -138.5v-313zM233 610h-10l60 133h23z" />
    <glyph glyph-name="uni0156" unicode="&#x156;" horiz-adv-x="622" 
d="M145 0h-10v700h214q95 0 152 -51.5t57 -142.5q0 -80 -46.5 -132.5t-125.5 -63.5l189 -310h-13l-186 308h-231v-308zM145 690v-372h204q87 0 143 51q56 53 56 137q0 86 -54 135t-145 49h-204zM323 -193h-10l20 133h23z" />
    <glyph glyph-name="uni0157" unicode="&#x157;" horiz-adv-x="380" 
d="M130 0h-10v520h10v-122h6q18 54 61.5 88t104.5 34h28v-10h-28q-81 0 -126.5 -58.5t-45.5 -138.5v-313zM171 -193h-10l20 133h23z" />
    <glyph glyph-name="Rcaron" unicode="&#x158;" horiz-adv-x="622" 
d="M145 0h-10v700h214q95 0 152 -51.5t57 -142.5q0 -80 -46.5 -132.5t-125.5 -63.5l189 -310h-13l-186 308h-231v-308zM145 690v-372h204q87 0 143 51q56 53 56 137q0 86 -54 135t-145 49h-204zM299 790l-107 130h15l98 -120h6l98 120h15l-107 -130h-18z" />
    <glyph glyph-name="rcaron" unicode="&#x159;" horiz-adv-x="380" 
d="M225 610l-107 130h15l98 -120h6l98 120h15l-107 -130h-18zM130 0h-10v520h10v-122h6q18 54 61.5 88t104.5 34h28v-10h-28q-81 0 -126.5 -58.5t-45.5 -138.5v-313z" />
    <glyph glyph-name="Sacute" unicode="&#x15a;" horiz-adv-x="598" 
d="M65 198h10q0 -90 62 -146q62 -55 165 -55q100 0 158 49t58 127q0 51 -23.5 86.5t-61.5 54.5t-83.5 32.5t-91.5 26.5t-84 31.5t-61.5 53t-23.5 85.5q0 74 57 122q59 48 152 48q88 0 151.5 -49t63.5 -144h-10q0 90 -61.5 136.5t-144.5 46.5q-89 0 -144 -45
q-54 -45 -54 -115q0 -48 23.5 -81t61.5 -50.5t84 -30.5t91.5 -27t83.5 -33.5t61.5 -57t23.5 -90.5q0 -79 -59.5 -132.5t-166.5 -53.5q-108 0 -172 57q-65 59 -65 154zM293 790h-10l60 133h23z" />
    <glyph glyph-name="sacute" unicode="&#x15b;" horiz-adv-x="549" 
d="M80 134h10q3 -64 52.5 -100.5t126.5 -36.5q86 0 135.5 34t49.5 98q0 46 -26.5 75.5t-66.5 40t-86 21.5t-86 22t-66.5 40t-26.5 76q0 57 48.5 93t124.5 36q75 0 124 -37.5t55 -102.5h-10q-6 61 -53 95.5t-121 34.5q-69 0 -113.5 -33.5t-44.5 -85.5t37 -80.5t89.5 -39
t105 -22t89.5 -43.5t37 -90q0 -68 -52 -105t-143 -37q-84 0 -135 40t-54 107zM266 610h-10l60 133h23z" />
    <glyph glyph-name="Scedilla" unicode="&#x15e;" horiz-adv-x="598" 
d="M65 198h10q0 -90 62 -146q62 -55 165 -55q100 0 158 49t58 127q0 51 -23.5 86.5t-61.5 54.5t-83.5 32.5t-91.5 26.5t-84 31.5t-61.5 53t-23.5 85.5q0 74 57 122q59 48 152 48q88 0 151.5 -49t63.5 -144h-10q0 90 -61.5 136.5t-144.5 46.5q-89 0 -144 -45
q-54 -45 -54 -115q0 -48 23.5 -81t61.5 -50.5t84 -30.5t91.5 -27t83.5 -33.5t61.5 -57t23.5 -90.5q0 -80 -58.5 -133t-165.5 -53l-22 -56h6q21 24 54 24q34 0 55.5 -22.5t21.5 -54.5q0 -36 -22.5 -59.5t-58.5 -23.5q-31 0 -52.5 20.5t-22.5 53.5h10q1 -29 19.5 -46.5
t45.5 -17.5q33 0 52 20t19 53q0 27 -19 47t-48 20q-32 0 -48 -24h-27l25 66q-102 3 -165 60q-62 57 -62 151z" />
    <glyph glyph-name="scedilla" unicode="&#x15f;" horiz-adv-x="549" 
d="M80 134h10q3 -64 52.5 -100.5t126.5 -36.5q86 0 135.5 34t49.5 98q0 46 -26.5 75.5t-66.5 40t-86 21.5t-86 22t-66.5 40t-26.5 76q0 57 48.5 93t124.5 36q75 0 124 -37.5t55 -102.5h-10q-6 61 -53 95.5t-121 34.5q-69 0 -113.5 -33.5t-44.5 -85.5t37 -80.5t89.5 -39
t105 -22t89.5 -43.5t37 -90q0 -68 -51.5 -105t-142.5 -37l-22 -56h6q20 24 54 24t55.5 -22.5t21.5 -54.5q0 -36 -22.5 -59.5t-58.5 -23.5q-31 0 -53 21t-22 53h10q1 -29 19.5 -46.5t45.5 -17.5q33 0 52 20t19 53q0 27 -19 47t-48 20q-32 0 -48 -24h-27l25 66
q-80 3 -127.5 43t-50.5 104z" />
    <glyph glyph-name="Scaron" unicode="&#x160;" horiz-adv-x="598" 
d="M65 198h10q0 -90 62 -146q62 -55 165 -55q100 0 158 49t58 127q0 51 -23.5 86.5t-61.5 54.5t-83.5 32.5t-91.5 26.5t-84 31.5t-61.5 53t-23.5 85.5q0 74 57 122q59 48 152 48q88 0 151.5 -49t63.5 -144h-10q0 90 -61.5 136.5t-144.5 46.5q-89 0 -144 -45
q-54 -45 -54 -115q0 -48 23.5 -81t61.5 -50.5t84 -30.5t91.5 -27t83.5 -33.5t61.5 -57t23.5 -90.5q0 -79 -59.5 -132.5t-166.5 -53.5q-108 0 -172 57q-65 59 -65 154zM285 790l-107 130h15l98 -120h6l98 120h15l-107 -130h-18z" />
    <glyph glyph-name="scaron" unicode="&#x161;" horiz-adv-x="549" 
d="M80 134h10q3 -64 52.5 -100.5t126.5 -36.5q86 0 135.5 34t49.5 98q0 46 -26.5 75.5t-66.5 40t-86 21.5t-86 22t-66.5 40t-26.5 76q0 57 48.5 93t124.5 36q75 0 124 -37.5t55 -102.5h-10q-6 61 -53 95.5t-121 34.5q-69 0 -113.5 -33.5t-44.5 -85.5t37 -80.5t89.5 -39
t105 -22t89.5 -43.5t37 -90q0 -68 -52 -105t-143 -37q-84 0 -135 40t-54 107zM258 610l-107 130h15l98 -120h6l98 120h15l-107 -130h-18z" />
    <glyph glyph-name="uni0162" unicode="&#x162;" horiz-adv-x="560" 
d="M275 690h-225v10h460v-10h-225v-690h-10v690zM260 -193h-10l20 133h23z" />
    <glyph glyph-name="uni0163" unicode="&#x163;" horiz-adv-x="422" 
d="M170 510h-100v10h87q13 0 13 13v138h10v-151h162v-10h-162v-355q0 -69 37 -107t102 -38h23v-10h-23q-69 0 -109 41t-40 113v356zM273 -193h-10l20 133h23z" />
    <glyph glyph-name="Tcaron" unicode="&#x164;" horiz-adv-x="560" 
d="M275 690h-225v10h460v-10h-225v-690h-10v690zM276 790l-107 130h15l98 -120h6l98 120h15l-107 -130h-18z" />
    <glyph glyph-name="tcaron" unicode="&#x165;" horiz-adv-x="432" 
d="M170 510h-100v10h87q13 0 13 13v138h10v-151h162v-10h-162v-355q0 -69 37 -107t102 -38h23v-10h-23q-69 0 -109 41t-40 113v356zM347 569h-7v181h12z" />
    <glyph glyph-name="Tbar" unicode="&#x166;" horiz-adv-x="560" 
d="M275 690h-225v10h460v-10h-225v-295h171v-10h-171v-385h-10v385h-182v10h182v295z" />
    <glyph glyph-name="tbar" unicode="&#x167;" horiz-adv-x="432" 
d="M170 510h-100v10h87q13 0 13 13v138h10v-151h162v-10h-162v-177h153v-10h-153v-168q0 -69 37 -107t102 -38h23v-10h-23q-69 0 -109 41t-40 113v169h-96v10h96v177z" />
    <glyph glyph-name="Umacron" unicode="&#x16a;" horiz-adv-x="710" 
d="M125 212v488h10v-488q0 -102 60 -159q62 -56 156 -56q95 0 160 57q64 57 64 158v488h10v-488q0 -105 -67.5 -165t-166.5 -60q-101 0 -163 58q-63 59 -63 167zM472 850h-242v11h242v-11z" />
    <glyph glyph-name="umacron" unicode="&#x16b;" horiz-adv-x="620" 
d="M110 173v347h10v-347q0 -74 52 -125t137 -51t137 57q54 57 54 135v331h10v-520h-10v109h-6q-17 -50 -68 -86t-117 -36q-89 0 -145 53q-54 52 -54 133zM430 670h-242v11h242v-11z" />
    <glyph glyph-name="Uring" unicode="&#x16e;" horiz-adv-x="710" 
d="M125 212v488h10v-488q0 -102 60 -159q62 -56 156 -56q95 0 160 57q64 57 64 158v488h10v-488q0 -105 -67.5 -165t-166.5 -60q-101 0 -163 58q-63 59 -63 167zM350 943q39 0 65 -26t26 -65t-26 -65t-65 -26t-65 26t-26 65t26 65t65 26zM292 910q-23 -23 -23 -58t23 -58
t58 -23t58 23t23 58t-23 58t-58 23t-58 -23z" />
    <glyph glyph-name="uring" unicode="&#x16f;" horiz-adv-x="620" 
d="M110 173v347h10v-347q0 -74 52 -125t137 -51t137 57q54 57 54 135v331h10v-520h-10v109h-6q-17 -50 -68 -86t-117 -36q-89 0 -145 53q-54 52 -54 133zM217 672q-2 29 15 51.5t41.5 32.5t53 5.5t46.5 -24.5q26 -26 26 -65t-26 -65t-65 -26t-65 26t-26 65zM250 730
q-23 -23 -23 -58t23 -58t58 -23t58 23t23 58t-23 58t-58 23t-58 -23z" />
    <glyph glyph-name="Uhungarumlaut" unicode="&#x170;" horiz-adv-x="710" 
d="M125 212v488h10v-488q0 -102 60 -159q62 -56 156 -56q95 0 160 57q64 57 64 158v488h10v-488q0 -105 -67.5 -165t-166.5 -60q-101 0 -163 58q-63 59 -63 167zM295 790h-10l60 133h23zM405 790h-10l60 133h23z" />
    <glyph glyph-name="uhungarumlaut" unicode="&#x171;" horiz-adv-x="620" 
d="M110 173v347h10v-347q0 -74 52 -125t137 -51t137 57q54 57 54 135v331h10v-520h-10v109h-6q-17 -50 -68 -86t-117 -36q-89 0 -145 53q-54 52 -54 133zM253 610h-10l60 133h23zM363 610h-10l60 133h23z" />
    <glyph glyph-name="Uogonek" unicode="&#x172;" horiz-adv-x="710" 
d="M125 212v488h10v-488q0 -102 60 -159q62 -56 156 -56q95 0 160 57q64 57 64 158v488h10v-488q0 -104 -66 -163.5t-163 -61.5l-40 -46q-33 -38 -33 -70q0 -24 16.5 -38.5t40.5 -14.5h27v-10h-27q-29 0 -48 17t-19 46q0 34 33 73l38 43q-99 2 -159 61.5t-60 163.5z" />
    <glyph glyph-name="uogonek" unicode="&#x173;" horiz-adv-x="620" 
d="M110 173v347h10v-347q0 -74 52 -125t137 -51t137 57q54 57 54 135v331h10v-520l-50 -59q-33 -39 -33 -70q0 -24 16.5 -38.5t40.5 -14.5h27v-10h-27q-28 0 -47.5 17.5t-19.5 45.5q0 34 33 73l50 59v106h-6q-17 -50 -68 -86t-117 -36q-89 0 -145 53q-54 52 -54 133z" />
    <glyph glyph-name="Wcircumflex" unicode="&#x174;" horiz-adv-x="930" 
d="M230 0l-190 700h12l186 -690h6l210 690h22l210 -690h6l186 690h12l-190 -700h-22l-210 690h-6l-210 -690h-22zM364 790h-15l107 130h18l107 -130h-15l-98 120h-6z" />
    <glyph glyph-name="wcircumflex" unicode="&#x175;" horiz-adv-x="859" 
d="M233 0l-183 520h11l179 -510h6l174 510h20l174 -510h6l178 510h11l-182 -520h-20l-174 510h-6l-174 -510h-20zM332 610h-15l107 130h18l107 -130h-15l-98 120h-6z" />
    <glyph glyph-name="Ycircumflex" unicode="&#x176;" horiz-adv-x="598" 
d="M294 300l-254 400h12l244 -386h6l244 386h12l-254 -400v-300h-10v300zM207 790h-15l107 130h18l107 -130h-15l-98 120h-6z" />
    <glyph glyph-name="ycircumflex" unicode="&#x177;" horiz-adv-x="565" 
d="M278 -9l-228 529h11l220 -510h6l217 510h11l-273 -642q-45 -108 -150 -108h-12v10h12q98 0 140 101zM182 610h-15l107 130h18l107 -130h-15l-98 120h-6z" />
    <glyph glyph-name="Ydieresis" unicode="&#x178;" horiz-adv-x="598" 
d="M294 300l-254 400h12l244 -386h6l244 386h12l-254 -400v-300h-10v300zM206 854q0 12 9 21t21 9q13 0 21.5 -9t8.5 -21q0 -13 -8.5 -21.5t-21.5 -8.5q-12 0 -21 8.5t-9 21.5zM382 884q12 0 21 -9t9 -21q0 -13 -9 -21.5t-21 -8.5q-18 0 -26 15t0 30t26 15z" />
    <glyph glyph-name="Zacute" unicode="&#x179;" horiz-adv-x="610" 
d="M540 0h-470v19l460 661v10h-450v10h460v-24l-460 -660v-6h460v-10zM300 790h-10l60 133h23z" />
    <glyph glyph-name="zacute" unicode="&#x17a;" horiz-adv-x="528" 
d="M448 0h-368v20l358 484v6h-358v10h368v-20l-358 -484v-6h358v-10zM262 610h-10l60 133h23z" />
    <glyph glyph-name="Zdotaccent" unicode="&#x17b;" horiz-adv-x="610" 
d="M540 0h-470v19l460 661v10h-450v10h460v-24l-460 -660v-6h460v-10zM304 889q15 0 21 -11.5t-0.5 -23t-20.5 -11.5q-22 0 -22 23t22 23z" />
    <glyph glyph-name="zdotaccent" unicode="&#x17c;" horiz-adv-x="528" 
d="M448 0h-368v20l358 484v6h-358v10h368v-20l-358 -484v-6h358v-10zM266 709q15 0 21.5 -11.5t0 -23t-21.5 -11.5q-22 0 -22 23t22 23z" />
    <glyph glyph-name="Zcaron" unicode="&#x17d;" horiz-adv-x="610" 
d="M540 0h-470v19l460 661v10h-450v10h460v-24l-460 -660v-6h460v-10zM292 790l-107 130h15l98 -120h6l98 120h15l-107 -130h-18z" />
    <glyph glyph-name="zcaron" unicode="&#x17e;" horiz-adv-x="528" 
d="M448 0h-368v20l358 484v6h-358v10h368v-20l-358 -484v-6h358v-10zM254 610l-107 130h15l98 -120h6l98 120h15l-107 -130h-18z" />
    <glyph glyph-name="florin" unicode="&#x192;" horiz-adv-x="514" 
d="M213 422h-142v10h144l32 175q26 143 162 143h47v-10h-47q-126 0 -151 -133l-33 -175h168v-10h-169l-115 -615h-10z" />
    <glyph glyph-name="uni0218" unicode="&#x218;" horiz-adv-x="598" 
d="M65 198h10q0 -90 62 -146q62 -55 165 -55q100 0 158 49t58 127q0 51 -23.5 86.5t-61.5 54.5t-83.5 32.5t-91.5 26.5t-84 31.5t-61.5 53t-23.5 85.5q0 74 57 122q59 48 152 48q88 0 151.5 -49t63.5 -144h-10q0 90 -61.5 136.5t-144.5 46.5q-89 0 -144 -45
q-54 -45 -54 -115q0 -48 23.5 -81t61.5 -50.5t84 -30.5t91.5 -27t83.5 -33.5t61.5 -57t23.5 -90.5q0 -79 -59.5 -132.5t-166.5 -53.5q-108 0 -172 57q-65 59 -65 154zM287 -193h-10l20 133h23z" />
    <glyph glyph-name="uni0219" unicode="&#x219;" horiz-adv-x="549" 
d="M80 134h10q3 -64 52.5 -100.5t126.5 -36.5q86 0 135.5 34t49.5 98q0 46 -26.5 75.5t-66.5 40t-86 21.5t-86 22t-66.5 40t-26.5 76q0 57 48.5 93t124.5 36q75 0 124 -37.5t55 -102.5h-10q-6 61 -53 95.5t-121 34.5q-69 0 -113.5 -33.5t-44.5 -85.5t37 -80.5t89.5 -39
t105 -22t89.5 -43.5t37 -90q0 -68 -52 -105t-143 -37q-84 0 -135 40t-54 107zM253 -193h-10l20 133h23z" />
    <glyph glyph-name="uni021A" unicode="&#x21a;" horiz-adv-x="560" 
d="M275 690h-225v10h460v-10h-225v-690l-30 -69h6q21 24 54 24q34 0 55.5 -22.5t21.5 -54.5q0 -36 -22.5 -59.5t-58.5 -23.5q-31 0 -53 21t-22 53h10q2 -29 20 -46.5t45 -17.5q33 0 52 20t19 53q0 27 -19 47t-48 20q-31 0 -48 -24h-27l35 83v686z" />
    <glyph glyph-name="uni021B" unicode="&#x21b;" horiz-adv-x="422" 
d="M170 510h-100v10h87q13 0 13 13v138h10v-151h162v-10h-162v-355q0 -69 37 -107t102 -38h23v-10h-23q-19 0 -24 1l-27 -70h6q20 24 54 24t55.5 -22.5t21.5 -54.5q0 -36 -22.5 -59.5t-58.5 -23.5q-31 0 -52.5 20.5t-22.5 53.5h10q1 -29 19.5 -46.5t45.5 -17.5q33 0 52 20
t19 53q0 27 -19 47t-48 20q-32 0 -48 -24h-27l31 82q-54 10 -84 49t-30 102v356z" />
    <glyph glyph-name="uni0237" unicode="&#x237;" horiz-adv-x="260" 
d="M0 -230v10h13q129 0 129 145v595h10v-595q0 -75 -35.5 -115t-104.5 -40h-12z" />
    <glyph glyph-name="circumflex" unicode="&#x2c6;" horiz-adv-x="372" 
d="M85 610h-15l107 130h18l107 -130h-15l-98 120h-6z" />
    <glyph glyph-name="caron" unicode="&#x2c7;" horiz-adv-x="372" 
d="M177 610l-107 130h15l98 -120h6l98 120h15l-107 -130h-18z" />
    <glyph glyph-name="breve" unicode="&#x2d8;" horiz-adv-x="354" 
d="M55 735h10q0 -52 29.5 -84t82.5 -32t82.5 32t29.5 84h10q0 -58 -31.5 -92t-90.5 -34t-90.5 34t-31.5 92z" />
    <glyph glyph-name="dotaccent" unicode="&#x2d9;" horiz-adv-x="215" 
d="M107 709q15 0 21.5 -11.5t0 -23t-21.5 -11.5q-14 0 -20 11.5t0 23t20 11.5z" />
    <glyph glyph-name="ring" unicode="&#x2da;" horiz-adv-x="280" 
d="M48 672q-2 29 15 51.5t41.5 32.5t53 5.5t46.5 -24.5q26 -26 26 -65t-26 -65t-65 -26t-65 26t-26 65zM81 730q-23 -23 -23 -58t23 -58t58 -23t58 23t23 58t-23 58t-58 23t-58 -23z" />
    <glyph glyph-name="ogonek" unicode="&#x2db;" horiz-adv-x="242" 
d="M74 -129q0 36 33 73l49 56h12l-51 -59q-33 -39 -33 -70q0 -23 16.5 -38t40.5 -15h27v-10h-27q-28 0 -47.5 17.5t-19.5 45.5z" />
    <glyph glyph-name="tilde" unicode="&#x2dc;" horiz-adv-x="421" 
d="M70 625h-10q0 42 20 70t57 28q24 0 45 -14t34 -30.5t31 -30.5t37 -14q33 0 50 25t17 63h10q0 -42 -20 -70t-57 -28q-20 0 -39.5 14t-32.5 30.5t-33 30.5t-41 14q-35 0 -51.5 -26t-16.5 -62z" />
    <glyph glyph-name="hungarumlaut" unicode="&#x2dd;" horiz-adv-x="393" 
d="M110 610h-10l60 133h23zM220 610h-10l60 133h23z" />
    <glyph glyph-name="uni0326" unicode="&#x326;" horiz-adv-x="0" 
d="M-109 -193h-10l20 133h23z" />
    <glyph glyph-name="Wgrave" unicode="&#x1e80;" horiz-adv-x="930" 
d="M230 0l-190 700h12l186 -690h6l210 690h22l210 -690h6l186 690h12l-190 -700h-22l-210 690h-6l-210 -690h-22zM464 790l-73 133h23l60 -133h-10z" />
    <glyph glyph-name="wgrave" unicode="&#x1e81;" horiz-adv-x="859" 
d="M233 0l-183 520h11l179 -510h6l174 510h20l174 -510h6l178 510h11l-182 -520h-20l-174 510h-6l-174 -510h-20zM432 610l-73 133h23l60 -133h-10z" />
    <glyph glyph-name="Wacute" unicode="&#x1e82;" horiz-adv-x="930" 
d="M230 0l-190 700h12l186 -690h6l210 690h22l210 -690h6l186 690h12l-190 -700h-22l-210 690h-6l-210 -690h-22zM465 790h-10l60 133h23z" />
    <glyph glyph-name="wacute" unicode="&#x1e83;" horiz-adv-x="859" 
d="M233 0l-183 520h11l179 -510h6l174 510h20l174 -510h6l178 510h11l-182 -520h-20l-174 510h-6l-174 -510h-20zM433 610h-10l60 133h23z" />
    <glyph glyph-name="Wdieresis" unicode="&#x1e84;" horiz-adv-x="930" 
d="M230 0l-190 700h12l186 -690h6l210 690h22l210 -690h6l186 690h12l-190 -700h-22l-210 690h-6l-210 -690h-22zM363 854q0 12 9 21t21 9q13 0 21.5 -9t8.5 -21q0 -13 -8.5 -21.5t-21.5 -8.5q-12 0 -21 8.5t-9 21.5zM539 884q12 0 21 -9t9 -21q0 -13 -9 -21.5t-21 -8.5
q-19 0 -26.5 15t0 30t26.5 15z" />
    <glyph glyph-name="wdieresis" unicode="&#x1e85;" horiz-adv-x="859" 
d="M233 0l-183 520h11l179 -510h6l174 510h20l174 -510h6l178 510h11l-182 -520h-20l-174 510h-6l-174 -510h-20zM331 674q0 12 9 21t21 9q13 0 21.5 -9t8.5 -21q0 -13 -8.5 -21.5t-21.5 -8.5q-12 0 -21 8.5t-9 21.5zM507 704q12 0 21 -9t9 -21q0 -13 -9 -21.5t-21 -8.5
q-18 0 -26 15t0 30t26 15z" />
    <glyph glyph-name="uni1E9E" unicode="&#x1e9e;" horiz-adv-x="679" 
d="M145 0h-10v484q0 92 59 154t151 62h222v-24l-248 -249v-10h83q86 0 146 -61q61 -61 61 -148q3 -81 -58.5 -145t-148.5 -63h-114v10h114q82 0 140 58t57 140q-1 83 -59 140q-57 59 -138 59h-93v24l248 249v10h-212q-89 0 -144 -60q-56 -61 -56 -144v-486z" />
    <glyph glyph-name="Ygrave" unicode="&#x1ef2;" horiz-adv-x="598" 
d="M294 300l-254 400h12l244 -386h6l244 386h12l-254 -400v-300h-10v300zM307 790l-73 133h23l60 -133h-10z" />
    <glyph glyph-name="ygrave" unicode="&#x1ef3;" horiz-adv-x="565" 
d="M278 -9l-228 529h11l220 -510h6l217 510h11l-273 -642q-45 -108 -150 -108h-12v10h12q98 0 140 101zM282 610l-73 133h23l60 -133h-10z" />
    <glyph glyph-name="uni2000" unicode="&#x2000;" horiz-adv-x="471" 
 />
    <glyph glyph-name="uni2001" unicode="&#x2001;" horiz-adv-x="943" 
 />
    <glyph glyph-name="uni2002" unicode="&#x2002;" horiz-adv-x="471" 
 />
    <glyph glyph-name="uni2003" unicode="&#x2003;" horiz-adv-x="943" 
 />
    <glyph glyph-name="uni2004" unicode="&#x2004;" horiz-adv-x="314" 
 />
    <glyph glyph-name="uni2005" unicode="&#x2005;" horiz-adv-x="235" 
 />
    <glyph glyph-name="uni2006" unicode="&#x2006;" horiz-adv-x="157" 
 />
    <glyph glyph-name="uni2007" unicode="&#x2007;" horiz-adv-x="157" 
 />
    <glyph glyph-name="uni2008" unicode="&#x2008;" horiz-adv-x="118" 
 />
    <glyph glyph-name="uni2009" unicode="&#x2009;" horiz-adv-x="188" 
 />
    <glyph glyph-name="uni200A" unicode="&#x200a;" horiz-adv-x="52" 
 />
    <glyph glyph-name="uni2010" unicode="&#x2010;" horiz-adv-x="395" 
d="M325 288h-255v10h255v-10z" />
    <glyph glyph-name="uni2011" unicode="&#x2011;" horiz-adv-x="395" 
d="M325 288h-255v10h255v-10z" />
    <glyph glyph-name="figuredash" unicode="&#x2012;" horiz-adv-x="395" 
d="M325 288h-255v10h255v-10z" />
    <glyph glyph-name="endash" unicode="&#x2013;" horiz-adv-x="658" 
d="M568 288h-478v10h478v-10z" />
    <glyph glyph-name="emdash" unicode="&#x2014;" horiz-adv-x="923" 
d="M833 288h-743v10h743v-10z" />
    <glyph glyph-name="quoteleft" unicode="&#x2018;" horiz-adv-x="246" 
d="M129 536h-29l36 164h10z" />
    <glyph glyph-name="quoteright" unicode="&#x2019;" horiz-adv-x="246" 
d="M110 536h-10l17 164h29z" />
    <glyph glyph-name="quotesinglbase" unicode="&#x201a;" horiz-adv-x="246" 
d="M110 -131h-10l17 164h29z" />
    <glyph glyph-name="quotedblleft" unicode="&#x201c;" horiz-adv-x="376" 
d="M129 536h-29l36 164h10zM259 536h-29l36 164h10z" />
    <glyph glyph-name="quotedblright" unicode="&#x201d;" horiz-adv-x="376" 
d="M110 536h-10l17 164h29zM240 536h-10l17 164h29z" />
    <glyph glyph-name="quotedblbase" unicode="&#x201e;" horiz-adv-x="376" 
d="M110 -131h-10l17 164h29zM240 -131h-10l17 164h29z" />
    <glyph glyph-name="dagger" unicode="&#x2020;" horiz-adv-x="431" 
d="M210 496h-150v10h150v194h10v-194h151v-10h-151v-496h-10v496z" />
    <glyph glyph-name="daggerdbl" unicode="&#x2021;" horiz-adv-x="431" 
d="M210 194h-150v10h150v292h-150v10h150v194h10v-194h151v-10h-151v-292h151v-10h-151v-194h-10v194z" />
    <glyph glyph-name="bullet" unicode="&#x2022;" horiz-adv-x="464" 
d="M109 188q-49 49 -49 122t49 122q50 50 123 50t123 -50q49 -49 49 -122t-49 -122q-50 -50 -123 -50t-123 50z" />
    <glyph glyph-name="uni202F" unicode="&#x202f;" horiz-adv-x="188" 
 />
    <glyph glyph-name="perthousand" unicode="&#x2030;" horiz-adv-x="1137" 
d="M80 450v136q0 57 34 92t90 35t90 -35t34 -92v-136q0 -57 -34 -92t-90 -35t-90 35t-34 92zM90 585v-134q0 -54 31.5 -86t82.5 -32t82.5 32t31.5 86v134q0 53 -31.5 85.5t-82.5 32.5t-82.5 -32.5t-31.5 -85.5zM183 26l-10 5l453 643l9 -5zM479 114v136q0 57 34 92t90 35
t90 -35t34 -92v-136q0 -57 -34 -92t-90 -35t-90 35t-34 92zM489 249v-134q0 -54 31.5 -86t82.5 -32t82.5 32t31.5 86v134q0 53 -31.5 85.5t-82.5 32.5t-82.5 -32.5t-31.5 -85.5zM809 114v136q0 57 34 92t90 35t90 -35t34 -92v-136q0 -57 -34 -92t-90 -35t-90 35t-34 92z
M819 249v-134q0 -54 31.5 -86t82.5 -32t82.5 32t31.5 86v134q0 53 -31.5 85.5t-82.5 32.5t-82.5 -32.5t-31.5 -85.5z" />
    <glyph glyph-name="guilsinglleft" unicode="&#x2039;" horiz-adv-x="341" 
d="M256 108l-171 177v14l171 177v-14l-161 -167v-6l161 -167v-14z" />
    <glyph glyph-name="guilsinglright" unicode="&#x203a;" horiz-adv-x="341" 
d="M256 285l-171 -177v14l161 167v6l-161 167v14l171 -177v-14z" />
    <glyph glyph-name="fraction" unicode="&#x2044;" horiz-adv-x="479" 
d="M50 -41h-10l389 782h10z" />
    <glyph glyph-name="uni205F" unicode="&#x205f;" horiz-adv-x="235" 
 />
    <glyph glyph-name="Euro" unicode="&#x20ac;" horiz-adv-x="652" 
d="M105 253h-65v10h65v150h-65v10h65v78q0 100 58.5 156t147.5 56q96 0 151 -58.5t55 -163.5h-10q0 99 -52.5 155.5t-143.5 56.5q-85 0 -141 -54q-55 -52 -55 -153v-73h231v-10h-231v-150h231v-10h-231v-49q0 -100 55 -154q56 -53 141 -53q92 0 144 56t52 157h10
q0 -105 -55 -164t-151 -59q-89 0 -148 56q-58 55 -58 156v54z" />
    <glyph glyph-name="uni2116" unicode="&#x2116;" horiz-adv-x="1193" 
d="M145 0h-10v700h22l439 -690h6v690h10v-700h-21l-440 690h-6v-690zM787 408q-50 53 -50 126t50 126q51 53 128 53t127 -53q51 -52 51 -126q0 -73 -50 -126q-50 -51 -128 -51q-79 0 -128 51zM747 534q0 -68 47 -118q48 -49 121 -49q74 0 120 49q48 49 48 118q0 70 -48 119
q-47 50 -120 50t-121 -50q-47 -50 -47 -119zM1078 272h-327v10h327v-10z" />
    <glyph glyph-name="trademark" unicode="&#x2122;" horiz-adv-x="834" 
d="M188 690h-108v10h226v-10h-108v-350h-10v350zM414 340h-10v360h20l152 -350h6l152 350h20v-360h-10v350h-3l-153 -350h-18l-153 350h-3v-350z" />
    <glyph glyph-name="arrowleft" unicode="&#x2190;" horiz-adv-x="814" 
d="M347 36l-297 297v26l297 297l7 -7l-292 -292v-6h702v-10h-702v-6l292 -292z" />
    <glyph glyph-name="arrowup" unicode="&#x2191;" horiz-adv-x="750" 
d="M73 410l-7 7l297 297h26l297 -297l-7 -7l-292 292h-6v-702h-10v702h-6z" />
    <glyph glyph-name="arrowright" unicode="&#x2192;" horiz-adv-x="814" 
d="M752 341h-702v10h702v6l-292 292l7 7l297 -297v-26l-297 -297l-7 7l292 292v6z" />
    <glyph glyph-name="arrowdown" unicode="&#x2193;" horiz-adv-x="750" 
d="M363 -14l-297 297l7 7l292 -292h6v702h10v-702h6l292 292l7 -7l-297 -297h-26z" />
    <glyph glyph-name="uni2196" unicode="&#x2196;" horiz-adv-x="655" 
d="M72 248h-10v420l18 18h420v-10h-412l-5 -4l497 -496l-7 -7l-497 496l-4 -4v-413z" />
    <glyph glyph-name="uni2197" unicode="&#x2197;" horiz-adv-x="655" 
d="M82 169l-7 7l497 496l-5 4h-412v10h420l18 -18v-420h-10v413l-4 4z" />
    <glyph glyph-name="uni2198" unicode="&#x2198;" horiz-adv-x="655" 
d="M572 27l-497 496l7 7l497 -496l4 4v413h10v-420l-18 -18h-420v10h412z" />
    <glyph glyph-name="uni2199" unicode="&#x2199;" horiz-adv-x="655" 
d="M80 13l-18 18v420h10v-413l4 -4l497 496l7 -7l-497 -496l5 -4h412v-10h-420z" />
    <glyph glyph-name="minus" unicode="&#x2212;" horiz-adv-x="480" 
d="M475 307h-470v10h470v-10z" />
    <glyph glyph-name="uni25FC" unicode="&#x25fc;" horiz-adv-x="520" 
d="M520 0h-520v520h520v-520z" />
    <glyph glyph-name="_1" horiz-adv-x="0" 
 />
    <glyph glyph-name="CR" horiz-adv-x="333" 
 />
    <glyph glyph-name="i.loclTRK" horiz-adv-x="240" 
d="M126 709q15 0 21.5 -11.5t0 -23t-21.5 -11.5q-22 0 -22 23t22 23zM130 0h-10v520h10v-520z" />
    <glyph glyph-name="zero.tf" horiz-adv-x="624" 
d="M106 199v302q0 100 58.5 156t147.5 56t147.5 -56t58.5 -156v-302q0 -100 -59 -156t-147 -56q-89 0 -148 56q-58 55 -58 156zM116 496v-292q0 -100 55 -154q56 -53 141 -53t141 53q55 54 55 154v292q0 101 -55 153q-55 54 -141 54t-141 -54q-55 -52 -55 -153z" />
    <glyph glyph-name="one.tf" horiz-adv-x="624" 
d="M388 575h-160v10q51 0 76 1q5 0 11.5 0.5t10.5 1t6 0.5q25 2 35 12q14 10 17.5 31t3.5 69h10v-700h-10v575z" />
    <glyph glyph-name="two.tf" horiz-adv-x="624" 
d="M114 518h-10q0 79 55 137t153 58q90 0 146 -54t56 -133q0 -65 -30 -108t-98 -83l-160 -94q-58 -34 -84.5 -73t-26.5 -98v-60h405v-10h-415v70q0 64 27.5 104.5t86.5 74.5l159 94q68 39 97 81t29 102q0 75 -53 126t-139 51q-93 0 -145.5 -55.5t-52.5 -129.5z" />
    <glyph glyph-name="three.tf" horiz-adv-x="624" 
d="M92 183h10q2 -68 59.5 -126.5t147.5 -58.5q103 0 158 61t55 151t-64 148q-65 59 -161 59h-10v21l208 246v6h-387v10h397v-21l-208 -246v-6q102 0 168 -63q67 -61 67 -154q2 -93 -58 -157.5t-165 -64.5q-94 0 -155.5 62.5t-61.5 132.5z" />
    <glyph glyph-name="four.tf" horiz-adv-x="624" 
d="M439 177h-345v18l223 505h10l-223 -507v-6h335v200h10v-200h82v-10h-82v-177h-10v177z" />
    <glyph glyph-name="five.tf" horiz-adv-x="624" 
d="M93 172h10q7 -78 65 -127q58 -48 140 -48q90 0 152 65q61 64 61 159q2 85 -61.5 151.5t-154.5 65.5q-77 0 -126 -37q-36 -27 -51 -52h-19l22 351h356v-10h-347l-22 -331h6q14 18 27 31q19 17 35 27q48 31 119 31q99 0 162.5 -67t63.5 -160q0 -99 -63 -167
q-63 -67 -160 -67q-89 0 -148 50q-60 52 -67 135z" />
    <glyph glyph-name="six.tf" horiz-adv-x="624" 
d="M83 218q0 62 36 131l187 351h11l-167 -313l5 -4q61 64 158 64q99 0 164 -65q64 -64 64 -164q0 -98 -66 -165q-64 -66 -164 -66q-99 0 -164 66q-64 65 -64 165zM93 218q0 -93 63 -158q63 -63 155 -63q94 -1 158 66t62 155q0 95 -61 156q-62 63 -157 63q-89 2 -155.5 -65
t-64.5 -154z" />
    <glyph glyph-name="seven.tf" horiz-adv-x="624" 
d="M502 690h-400v10h410v-18l-252 -682h-11l253 684v6z" />
    <glyph glyph-name="eight.tf" horiz-adv-x="624" 
d="M88 182q0 80 49 127.5t117 60.5v6q-65 17 -100.5 60t-35.5 104q0 77 55 125q56 48 139 48q84 0 139 -48t55 -125q0 -61 -35.5 -104t-100.5 -60v-6q68 -13 117 -60.5t49 -127.5q0 -86 -61 -141q-61 -54 -163 -54q-101 0 -163 54q-61 55 -61 141zM98 182q0 -81 59 -134
q60 -51 155 -51q96 0 154 51q60 52 60 134q0 83 -61 134q-60 51 -153 51q-92 0 -154 -51q-60 -51 -60 -134zM128 540q0 -42 18 -75t47 -51.5t59.5 -27.5t59.5 -9t59.5 9t59.5 27.5t47 51.5t18 75q0 72 -52 117q-52 46 -132 46t-132 -46q-52 -45 -52 -117z" />
    <glyph glyph-name="nine.tf" horiz-adv-x="624" 
d="M83 482q0 97 65 164q66 67 165 67t163 -66q65 -67 65 -165q0 -62 -36 -131l-187 -351h-11l167 313l-5 4q-61 -64 -158 -64q-99 0 -164 65q-64 64 -64 164zM93 482q0 -96 60 -157q62 -62 158 -62q92 0 156 64t64 155q0 95 -64 158q-63 63 -154 63q-94 1 -158 -66t-62 -155
z" />
    <glyph glyph-name="caron.Slovak" horiz-adv-x="112" 
d="M57 519h-7v181h12z" />
    <glyph glyph-name="NULL" horiz-adv-x="0" 
 />
    </font>
</defs>
</svg>
